ISO-10303-21;
HEADER;
/* Generated by software containing ST-Developer
 * from STEP Tools, Inc. (www.steptools.com) 
 */
/* OPTION: using custom renumber hook */

FILE_DESCRIPTION(
/* description */ ('STEP AP242 Edition 2',
'CAx-IF Rec.Pracs.---Representation and Presentation of Product Manufa
cturing Information (PMI)---4.0---2014-10-13',
'CAx-IF Rec.Pracs.---3D Tessellated Geometry---0.4---2014-09-14','2;1',
'CAx-IF Rec.Pracs.---User Defined Attributes---1.5---2016-08-15'),
/* implementation_level */ '2;1');

FILE_NAME(
/* name */ 'CompleteShell - Part 20',
/* time_stamp */ '2026-09-23T14:59:39Z',
/* author */ (''),
/* organization */ (''),
/* preprocessor_version */ 'ST-DEVELOPER v20',
/* originating_system */ 'ONSHAPE BY PTC INC, 1.221',
/* authorisation */ '  ');

FILE_SCHEMA (('AP242_MANAGED_MODEL_BASED_3D_ENGINEERING_MIM_LF { 1 0 10303 442 3 1 4 }'));
ENDSEC;

DATA;
#10=SHAPE_REPRESENTATION_RELATIONSHIP('','',#489,#11);
#11=ADVANCED_BREP_SHAPE_REPRESENTATION('',(#487),#883);
#12=CIRCLE('',#493,0.0486260116522352);
#13=CIRCLE('',#494,0.0486260116522352);
#14=CIRCLE('',#496,0.0032769766290749);
#15=CIRCLE('',#497,0.0032769766290749);
#16=CIRCLE('',#499,0.0318654817917693);
#17=CIRCLE('',#500,0.0318654817917693);
#18=CIRCLE('',#502,0.0346610094112014);
#19=CIRCLE('',#503,0.0346610094112014);
#20=CIRCLE('',#505,0.0396530435927245);
#21=CIRCLE('',#506,0.0396530435927245);
#22=CIRCLE('',#508,0.0332919067521409);
#23=CIRCLE('',#509,0.0332919067521409);
#24=CIRCLE('',#511,0.00240820911708758);
#25=CIRCLE('',#512,0.00240820911708758);
#26=CIRCLE('',#514,0.000549309723192663);
#27=CIRCLE('',#515,0.000549309723192663);
#28=CIRCLE('',#517,0.000188351078267689);
#29=CIRCLE('',#518,0.000188351078267689);
#30=CIRCLE('',#520,0.000457168224363644);
#31=CIRCLE('',#521,0.000457168224363644);
#32=CIRCLE('',#523,0.000108292092550984);
#33=CIRCLE('',#524,0.000108292092550984);
#34=CIRCLE('',#526,0.000183596249087994);
#35=CIRCLE('',#527,0.000183596249087994);
#36=CIRCLE('',#529,0.00109131638497932);
#37=CIRCLE('',#530,0.00109131638497932);
#38=CIRCLE('',#532,0.00046455941259825);
#39=CIRCLE('',#533,0.00046455941259825);
#40=CIRCLE('',#535,0.000292724976640535);
#41=CIRCLE('',#536,0.000292724976640535);
#42=CIRCLE('',#538,0.000696164873391249);
#43=CIRCLE('',#539,0.000696164873391249);
#44=CIRCLE('',#541,0.0044180478649129);
#45=CIRCLE('',#542,0.0044180478649129);
#46=CIRCLE('',#544,0.0037833796596166);
#47=CIRCLE('',#545,0.0037833796596166);
#48=CIRCLE('',#547,0.00299453629644601);
#49=CIRCLE('',#548,0.00299453629644601);
#50=CIRCLE('',#550,0.00257826642478668);
#51=CIRCLE('',#551,0.00257826642478668);
#52=CIRCLE('',#553,0.00043379578250134);
#53=CIRCLE('',#554,0.00043379578250134);
#54=CIRCLE('',#556,0.000434752708450117);
#55=CIRCLE('',#557,0.000434752708450117);
#56=CIRCLE('',#559,0.0235096789671754);
#57=CIRCLE('',#560,0.0235096789671754);
#58=CYLINDRICAL_SURFACE('',#492,0.0486260116522352);
#59=CYLINDRICAL_SURFACE('',#495,0.0032769766290749);
#60=CYLINDRICAL_SURFACE('',#498,0.0318654817917693);
#61=CYLINDRICAL_SURFACE('',#501,0.0346610094112014);
#62=CYLINDRICAL_SURFACE('',#504,0.0396530435927245);
#63=CYLINDRICAL_SURFACE('',#507,0.0332919067521409);
#64=CYLINDRICAL_SURFACE('',#510,0.00240820911708758);
#65=CYLINDRICAL_SURFACE('',#513,0.000549309723192663);
#66=CYLINDRICAL_SURFACE('',#516,0.000188351078267689);
#67=CYLINDRICAL_SURFACE('',#519,0.000457168224363644);
#68=CYLINDRICAL_SURFACE('',#522,0.000108292092550984);
#69=CYLINDRICAL_SURFACE('',#525,0.000183596249087994);
#70=CYLINDRICAL_SURFACE('',#528,0.00109131638497932);
#71=CYLINDRICAL_SURFACE('',#531,0.00046455941259825);
#72=CYLINDRICAL_SURFACE('',#534,0.000292724976640535);
#73=CYLINDRICAL_SURFACE('',#537,0.000696164873391249);
#74=CYLINDRICAL_SURFACE('',#540,0.0044180478649129);
#75=CYLINDRICAL_SURFACE('',#543,0.0037833796596166);
#76=CYLINDRICAL_SURFACE('',#546,0.00299453629644601);
#77=CYLINDRICAL_SURFACE('',#549,0.00257826642478668);
#78=CYLINDRICAL_SURFACE('',#552,0.00043379578250134);
#79=CYLINDRICAL_SURFACE('',#555,0.000434752708450117);
#80=CYLINDRICAL_SURFACE('',#558,0.0235096789671754);
#81=ORIENTED_EDGE('',*,*,#225,.T.);
#82=ORIENTED_EDGE('',*,*,#226,.F.);
#83=ORIENTED_EDGE('',*,*,#227,.F.);
#84=ORIENTED_EDGE('',*,*,#228,.T.);
#85=ORIENTED_EDGE('',*,*,#229,.T.);
#86=ORIENTED_EDGE('',*,*,#230,.F.);
#87=ORIENTED_EDGE('',*,*,#231,.F.);
#88=ORIENTED_EDGE('',*,*,#226,.T.);
#89=ORIENTED_EDGE('',*,*,#232,.T.);
#90=ORIENTED_EDGE('',*,*,#233,.F.);
#91=ORIENTED_EDGE('',*,*,#234,.F.);
#92=ORIENTED_EDGE('',*,*,#230,.T.);
#93=ORIENTED_EDGE('',*,*,#235,.T.);
#94=ORIENTED_EDGE('',*,*,#236,.F.);
#95=ORIENTED_EDGE('',*,*,#237,.F.);
#96=ORIENTED_EDGE('',*,*,#233,.T.);
#97=ORIENTED_EDGE('',*,*,#238,.T.);
#98=ORIENTED_EDGE('',*,*,#239,.F.);
#99=ORIENTED_EDGE('',*,*,#240,.F.);
#100=ORIENTED_EDGE('',*,*,#236,.T.);
#101=ORIENTED_EDGE('',*,*,#241,.T.);
#102=ORIENTED_EDGE('',*,*,#242,.F.);
#103=ORIENTED_EDGE('',*,*,#243,.F.);
#104=ORIENTED_EDGE('',*,*,#239,.T.);
#105=ORIENTED_EDGE('',*,*,#244,.T.);
#106=ORIENTED_EDGE('',*,*,#245,.F.);
#107=ORIENTED_EDGE('',*,*,#246,.F.);
#108=ORIENTED_EDGE('',*,*,#242,.T.);
#109=ORIENTED_EDGE('',*,*,#247,.T.);
#110=ORIENTED_EDGE('',*,*,#248,.F.);
#111=ORIENTED_EDGE('',*,*,#249,.F.);
#112=ORIENTED_EDGE('',*,*,#245,.T.);
#113=ORIENTED_EDGE('',*,*,#250,.T.);
#114=ORIENTED_EDGE('',*,*,#251,.F.);
#115=ORIENTED_EDGE('',*,*,#252,.F.);
#116=ORIENTED_EDGE('',*,*,#248,.T.);
#117=ORIENTED_EDGE('',*,*,#253,.T.);
#118=ORIENTED_EDGE('',*,*,#254,.F.);
#119=ORIENTED_EDGE('',*,*,#255,.F.);
#120=ORIENTED_EDGE('',*,*,#251,.T.);
#121=ORIENTED_EDGE('',*,*,#256,.T.);
#122=ORIENTED_EDGE('',*,*,#257,.F.);
#123=ORIENTED_EDGE('',*,*,#258,.F.);
#124=ORIENTED_EDGE('',*,*,#254,.T.);
#125=ORIENTED_EDGE('',*,*,#259,.T.);
#126=ORIENTED_EDGE('',*,*,#260,.F.);
#127=ORIENTED_EDGE('',*,*,#261,.F.);
#128=ORIENTED_EDGE('',*,*,#257,.T.);
#129=ORIENTED_EDGE('',*,*,#262,.T.);
#130=ORIENTED_EDGE('',*,*,#263,.F.);
#131=ORIENTED_EDGE('',*,*,#264,.F.);
#132=ORIENTED_EDGE('',*,*,#260,.T.);
#133=ORIENTED_EDGE('',*,*,#265,.T.);
#134=ORIENTED_EDGE('',*,*,#266,.F.);
#135=ORIENTED_EDGE('',*,*,#267,.F.);
#136=ORIENTED_EDGE('',*,*,#263,.T.);
#137=ORIENTED_EDGE('',*,*,#268,.T.);
#138=ORIENTED_EDGE('',*,*,#269,.F.);
#139=ORIENTED_EDGE('',*,*,#270,.F.);
#140=ORIENTED_EDGE('',*,*,#266,.T.);
#141=ORIENTED_EDGE('',*,*,#271,.T.);
#142=ORIENTED_EDGE('',*,*,#272,.F.);
#143=ORIENTED_EDGE('',*,*,#273,.F.);
#144=ORIENTED_EDGE('',*,*,#269,.T.);
#145=ORIENTED_EDGE('',*,*,#274,.T.);
#146=ORIENTED_EDGE('',*,*,#275,.F.);
#147=ORIENTED_EDGE('',*,*,#276,.F.);
#148=ORIENTED_EDGE('',*,*,#272,.T.);
#149=ORIENTED_EDGE('',*,*,#277,.T.);
#150=ORIENTED_EDGE('',*,*,#278,.F.);
#151=ORIENTED_EDGE('',*,*,#279,.F.);
#152=ORIENTED_EDGE('',*,*,#275,.T.);
#153=ORIENTED_EDGE('',*,*,#280,.T.);
#154=ORIENTED_EDGE('',*,*,#281,.F.);
#155=ORIENTED_EDGE('',*,*,#282,.F.);
#156=ORIENTED_EDGE('',*,*,#278,.T.);
#157=ORIENTED_EDGE('',*,*,#283,.T.);
#158=ORIENTED_EDGE('',*,*,#284,.F.);
#159=ORIENTED_EDGE('',*,*,#285,.F.);
#160=ORIENTED_EDGE('',*,*,#281,.T.);
#161=ORIENTED_EDGE('',*,*,#286,.T.);
#162=ORIENTED_EDGE('',*,*,#287,.F.);
#163=ORIENTED_EDGE('',*,*,#288,.F.);
#164=ORIENTED_EDGE('',*,*,#284,.T.);
#165=ORIENTED_EDGE('',*,*,#289,.T.);
#166=ORIENTED_EDGE('',*,*,#290,.F.);
#167=ORIENTED_EDGE('',*,*,#291,.F.);
#168=ORIENTED_EDGE('',*,*,#287,.T.);
#169=ORIENTED_EDGE('',*,*,#292,.T.);
#170=ORIENTED_EDGE('',*,*,#293,.F.);
#171=ORIENTED_EDGE('',*,*,#294,.F.);
#172=ORIENTED_EDGE('',*,*,#290,.T.);
#173=ORIENTED_EDGE('',*,*,#295,.T.);
#174=ORIENTED_EDGE('',*,*,#228,.F.);
#175=ORIENTED_EDGE('',*,*,#296,.F.);
#176=ORIENTED_EDGE('',*,*,#293,.T.);
#177=ORIENTED_EDGE('',*,*,#227,.T.);
#178=ORIENTED_EDGE('',*,*,#231,.T.);
#179=ORIENTED_EDGE('',*,*,#234,.T.);
#180=ORIENTED_EDGE('',*,*,#237,.T.);
#181=ORIENTED_EDGE('',*,*,#240,.T.);
#182=ORIENTED_EDGE('',*,*,#243,.T.);
#183=ORIENTED_EDGE('',*,*,#246,.T.);
#184=ORIENTED_EDGE('',*,*,#249,.T.);
#185=ORIENTED_EDGE('',*,*,#252,.T.);
#186=ORIENTED_EDGE('',*,*,#255,.T.);
#187=ORIENTED_EDGE('',*,*,#258,.T.);
#188=ORIENTED_EDGE('',*,*,#261,.T.);
#189=ORIENTED_EDGE('',*,*,#264,.T.);
#190=ORIENTED_EDGE('',*,*,#267,.T.);
#191=ORIENTED_EDGE('',*,*,#270,.T.);
#192=ORIENTED_EDGE('',*,*,#273,.T.);
#193=ORIENTED_EDGE('',*,*,#276,.T.);
#194=ORIENTED_EDGE('',*,*,#279,.T.);
#195=ORIENTED_EDGE('',*,*,#282,.T.);
#196=ORIENTED_EDGE('',*,*,#285,.T.);
#197=ORIENTED_EDGE('',*,*,#288,.T.);
#198=ORIENTED_EDGE('',*,*,#291,.T.);
#199=ORIENTED_EDGE('',*,*,#294,.T.);
#200=ORIENTED_EDGE('',*,*,#296,.T.);
#201=ORIENTED_EDGE('',*,*,#225,.F.);
#202=ORIENTED_EDGE('',*,*,#295,.F.);
#203=ORIENTED_EDGE('',*,*,#292,.F.);
#204=ORIENTED_EDGE('',*,*,#289,.F.);
#205=ORIENTED_EDGE('',*,*,#286,.F.);
#206=ORIENTED_EDGE('',*,*,#283,.F.);
#207=ORIENTED_EDGE('',*,*,#280,.F.);
#208=ORIENTED_EDGE('',*,*,#277,.F.);
#209=ORIENTED_EDGE('',*,*,#274,.F.);
#210=ORIENTED_EDGE('',*,*,#271,.F.);
#211=ORIENTED_EDGE('',*,*,#268,.F.);
#212=ORIENTED_EDGE('',*,*,#265,.F.);
#213=ORIENTED_EDGE('',*,*,#262,.F.);
#214=ORIENTED_EDGE('',*,*,#259,.F.);
#215=ORIENTED_EDGE('',*,*,#256,.F.);
#216=ORIENTED_EDGE('',*,*,#253,.F.);
#217=ORIENTED_EDGE('',*,*,#250,.F.);
#218=ORIENTED_EDGE('',*,*,#247,.F.);
#219=ORIENTED_EDGE('',*,*,#244,.F.);
#220=ORIENTED_EDGE('',*,*,#241,.F.);
#221=ORIENTED_EDGE('',*,*,#238,.F.);
#222=ORIENTED_EDGE('',*,*,#235,.F.);
#223=ORIENTED_EDGE('',*,*,#232,.F.);
#224=ORIENTED_EDGE('',*,*,#229,.F.);
#225=EDGE_CURVE('',#297,#298,#345,.T.);
#226=EDGE_CURVE('',#299,#298,#346,.T.);
#227=EDGE_CURVE('',#300,#299,#347,.T.);
#228=EDGE_CURVE('',#300,#297,#348,.T.);
#229=EDGE_CURVE('',#298,#301,#12,.T.);
#230=EDGE_CURVE('',#302,#301,#349,.T.);
#231=EDGE_CURVE('',#299,#302,#13,.T.);
#232=EDGE_CURVE('',#301,#303,#14,.T.);
#233=EDGE_CURVE('',#304,#303,#350,.T.);
#234=EDGE_CURVE('',#302,#304,#15,.T.);
#235=EDGE_CURVE('',#303,#305,#16,.T.);
#236=EDGE_CURVE('',#306,#305,#351,.T.);
#237=EDGE_CURVE('',#304,#306,#17,.T.);
#238=EDGE_CURVE('',#305,#307,#18,.T.);
#239=EDGE_CURVE('',#308,#307,#352,.T.);
#240=EDGE_CURVE('',#306,#308,#19,.T.);
#241=EDGE_CURVE('',#307,#309,#20,.T.);
#242=EDGE_CURVE('',#310,#309,#353,.T.);
#243=EDGE_CURVE('',#308,#310,#21,.T.);
#244=EDGE_CURVE('',#309,#311,#22,.T.);
#245=EDGE_CURVE('',#312,#311,#354,.T.);
#246=EDGE_CURVE('',#310,#312,#23,.T.);
#247=EDGE_CURVE('',#311,#313,#24,.T.);
#248=EDGE_CURVE('',#314,#313,#355,.T.);
#249=EDGE_CURVE('',#312,#314,#25,.T.);
#250=EDGE_CURVE('',#313,#315,#26,.T.);
#251=EDGE_CURVE('',#316,#315,#356,.T.);
#252=EDGE_CURVE('',#314,#316,#27,.T.);
#253=EDGE_CURVE('',#315,#317,#28,.T.);
#254=EDGE_CURVE('',#318,#317,#357,.T.);
#255=EDGE_CURVE('',#316,#318,#29,.T.);
#256=EDGE_CURVE('',#317,#319,#30,.T.);
#257=EDGE_CURVE('',#320,#319,#358,.T.);
#258=EDGE_CURVE('',#318,#320,#31,.T.);
#259=EDGE_CURVE('',#319,#321,#32,.T.);
#260=EDGE_CURVE('',#322,#321,#359,.T.);
#261=EDGE_CURVE('',#320,#322,#33,.T.);
#262=EDGE_CURVE('',#321,#323,#34,.T.);
#263=EDGE_CURVE('',#324,#323,#360,.T.);
#264=EDGE_CURVE('',#322,#324,#35,.T.);
#265=EDGE_CURVE('',#323,#325,#36,.T.);
#266=EDGE_CURVE('',#326,#325,#361,.T.);
#267=EDGE_CURVE('',#324,#326,#37,.T.);
#268=EDGE_CURVE('',#325,#327,#38,.T.);
#269=EDGE_CURVE('',#328,#327,#362,.T.);
#270=EDGE_CURVE('',#326,#328,#39,.T.);
#271=EDGE_CURVE('',#327,#329,#40,.T.);
#272=EDGE_CURVE('',#330,#329,#363,.T.);
#273=EDGE_CURVE('',#328,#330,#41,.T.);
#274=EDGE_CURVE('',#329,#331,#42,.T.);
#275=EDGE_CURVE('',#332,#331,#364,.T.);
#276=EDGE_CURVE('',#330,#332,#43,.T.);
#277=EDGE_CURVE('',#331,#333,#44,.T.);
#278=EDGE_CURVE('',#334,#333,#365,.T.);
#279=EDGE_CURVE('',#332,#334,#45,.T.);
#280=EDGE_CURVE('',#333,#335,#46,.T.);
#281=EDGE_CURVE('',#336,#335,#366,.T.);
#282=EDGE_CURVE('',#334,#336,#47,.T.);
#283=EDGE_CURVE('',#335,#337,#48,.T.);
#284=EDGE_CURVE('',#338,#337,#367,.T.);
#285=EDGE_CURVE('',#336,#338,#49,.T.);
#286=EDGE_CURVE('',#337,#339,#50,.T.);
#287=EDGE_CURVE('',#340,#339,#368,.T.);
#288=EDGE_CURVE('',#338,#340,#51,.T.);
#289=EDGE_CURVE('',#339,#341,#52,.T.);
#290=EDGE_CURVE('',#342,#341,#369,.T.);
#291=EDGE_CURVE('',#340,#342,#53,.T.);
#292=EDGE_CURVE('',#341,#343,#54,.T.);
#293=EDGE_CURVE('',#344,#343,#370,.T.);
#294=EDGE_CURVE('',#342,#344,#55,.T.);
#295=EDGE_CURVE('',#343,#297,#56,.T.);
#296=EDGE_CURVE('',#344,#300,#57,.T.);
#297=VERTEX_POINT('',#738);
#298=VERTEX_POINT('',#739);
#299=VERTEX_POINT('',#741);
#300=VERTEX_POINT('',#743);
#301=VERTEX_POINT('',#747);
#302=VERTEX_POINT('',#749);
#303=VERTEX_POINT('',#753);
#304=VERTEX_POINT('',#755);
#305=VERTEX_POINT('',#759);
#306=VERTEX_POINT('',#761);
#307=VERTEX_POINT('',#765);
#308=VERTEX_POINT('',#767);
#309=VERTEX_POINT('',#771);
#310=VERTEX_POINT('',#773);
#311=VERTEX_POINT('',#777);
#312=VERTEX_POINT('',#779);
#313=VERTEX_POINT('',#783);
#314=VERTEX_POINT('',#785);
#315=VERTEX_POINT('',#789);
#316=VERTEX_POINT('',#791);
#317=VERTEX_POINT('',#795);
#318=VERTEX_POINT('',#797);
#319=VERTEX_POINT('',#801);
#320=VERTEX_POINT('',#803);
#321=VERTEX_POINT('',#807);
#322=VERTEX_POINT('',#809);
#323=VERTEX_POINT('',#813);
#324=VERTEX_POINT('',#815);
#325=VERTEX_POINT('',#819);
#326=VERTEX_POINT('',#821);
#327=VERTEX_POINT('',#825);
#328=VERTEX_POINT('',#827);
#329=VERTEX_POINT('',#831);
#330=VERTEX_POINT('',#833);
#331=VERTEX_POINT('',#837);
#332=VERTEX_POINT('',#839);
#333=VERTEX_POINT('',#843);
#334=VERTEX_POINT('',#845);
#335=VERTEX_POINT('',#849);
#336=VERTEX_POINT('',#851);
#337=VERTEX_POINT('',#855);
#338=VERTEX_POINT('',#857);
#339=VERTEX_POINT('',#861);
#340=VERTEX_POINT('',#863);
#341=VERTEX_POINT('',#867);
#342=VERTEX_POINT('',#869);
#343=VERTEX_POINT('',#873);
#344=VERTEX_POINT('',#875);
#345=LINE('',#737,#371);
#346=LINE('',#740,#372);
#347=LINE('',#742,#373);
#348=LINE('',#744,#374);
#349=LINE('',#748,#375);
#350=LINE('',#754,#376);
#351=LINE('',#760,#377);
#352=LINE('',#766,#378);
#353=LINE('',#772,#379);
#354=LINE('',#778,#380);
#355=LINE('',#784,#381);
#356=LINE('',#790,#382);
#357=LINE('',#796,#383);
#358=LINE('',#802,#384);
#359=LINE('',#808,#385);
#360=LINE('',#814,#386);
#361=LINE('',#820,#387);
#362=LINE('',#826,#388);
#363=LINE('',#832,#389);
#364=LINE('',#838,#390);
#365=LINE('',#844,#391);
#366=LINE('',#850,#392);
#367=LINE('',#856,#393);
#368=LINE('',#862,#394);
#369=LINE('',#868,#395);
#370=LINE('',#874,#396);
#371=VECTOR('',#567,1.);
#372=VECTOR('',#568,1.);
#373=VECTOR('',#569,1.);
#374=VECTOR('',#570,1.);
#375=VECTOR('',#575,1.);
#376=VECTOR('',#582,1.);
#377=VECTOR('',#589,1.);
#378=VECTOR('',#596,1.);
#379=VECTOR('',#603,1.);
#380=VECTOR('',#610,1.);
#381=VECTOR('',#617,1.);
#382=VECTOR('',#624,1.);
#383=VECTOR('',#631,1.);
#384=VECTOR('',#638,1.);
#385=VECTOR('',#645,1.);
#386=VECTOR('',#652,1.);
#387=VECTOR('',#659,1.);
#388=VECTOR('',#666,1.);
#389=VECTOR('',#673,1.);
#390=VECTOR('',#680,1.);
#391=VECTOR('',#687,1.);
#392=VECTOR('',#694,1.);
#393=VECTOR('',#701,1.);
#394=VECTOR('',#708,1.);
#395=VECTOR('',#715,1.);
#396=VECTOR('',#722,1.);
#397=EDGE_LOOP('',(#81,#82,#83,#84));
#398=EDGE_LOOP('',(#85,#86,#87,#88));
#399=EDGE_LOOP('',(#89,#90,#91,#92));
#400=EDGE_LOOP('',(#93,#94,#95,#96));
#401=EDGE_LOOP('',(#97,#98,#99,#100));
#402=EDGE_LOOP('',(#101,#102,#103,#104));
#403=EDGE_LOOP('',(#105,#106,#107,#108));
#404=EDGE_LOOP('',(#109,#110,#111,#112));
#405=EDGE_LOOP('',(#113,#114,#115,#116));
#406=EDGE_LOOP('',(#117,#118,#119,#120));
#407=EDGE_LOOP('',(#121,#122,#123,#124));
#408=EDGE_LOOP('',(#125,#126,#127,#128));
#409=EDGE_LOOP('',(#129,#130,#131,#132));
#410=EDGE_LOOP('',(#133,#134,#135,#136));
#411=EDGE_LOOP('',(#137,#138,#139,#140));
#412=EDGE_LOOP('',(#141,#142,#143,#144));
#413=EDGE_LOOP('',(#145,#146,#147,#148));
#414=EDGE_LOOP('',(#149,#150,#151,#152));
#415=EDGE_LOOP('',(#153,#154,#155,#156));
#416=EDGE_LOOP('',(#157,#158,#159,#160));
#417=EDGE_LOOP('',(#161,#162,#163,#164));
#418=EDGE_LOOP('',(#165,#166,#167,#168));
#419=EDGE_LOOP('',(#169,#170,#171,#172));
#420=EDGE_LOOP('',(#173,#174,#175,#176));
#421=EDGE_LOOP('',(#177,#178,#179,#180,#181,#182,#183,#184,#185,#186,#187,
#188,#189,#190,#191,#192,#193,#194,#195,#196,#197,#198,#199,#200));
#422=EDGE_LOOP('',(#201,#202,#203,#204,#205,#206,#207,#208,#209,#210,#211,
#212,#213,#214,#215,#216,#217,#218,#219,#220,#221,#222,#223,#224));
#423=FACE_BOUND('',#397,.T.);
#424=FACE_BOUND('',#398,.T.);
#425=FACE_BOUND('',#399,.T.);
#426=FACE_BOUND('',#400,.T.);
#427=FACE_BOUND('',#401,.T.);
#428=FACE_BOUND('',#402,.T.);
#429=FACE_BOUND('',#403,.T.);
#430=FACE_BOUND('',#404,.T.);
#431=FACE_BOUND('',#405,.T.);
#432=FACE_BOUND('',#406,.T.);
#433=FACE_BOUND('',#407,.T.);
#434=FACE_BOUND('',#408,.T.);
#435=FACE_BOUND('',#409,.T.);
#436=FACE_BOUND('',#410,.T.);
#437=FACE_BOUND('',#411,.T.);
#438=FACE_BOUND('',#412,.T.);
#439=FACE_BOUND('',#413,.T.);
#440=FACE_BOUND('',#414,.T.);
#441=FACE_BOUND('',#415,.T.);
#442=FACE_BOUND('',#416,.T.);
#443=FACE_BOUND('',#417,.T.);
#444=FACE_BOUND('',#418,.T.);
#445=FACE_BOUND('',#419,.T.);
#446=FACE_BOUND('',#420,.T.);
#447=FACE_BOUND('',#421,.T.);
#448=FACE_BOUND('',#422,.T.);
#449=PLANE('',#491);
#450=PLANE('',#561);
#451=PLANE('',#562);
#452=ADVANCED_FACE('',(#423),#449,.F.);
#453=ADVANCED_FACE('',(#424),#58,.T.);
#454=ADVANCED_FACE('',(#425),#59,.F.);
#455=ADVANCED_FACE('',(#426),#60,.F.);
#456=ADVANCED_FACE('',(#427),#61,.F.);
#457=ADVANCED_FACE('',(#428),#62,.F.);
#458=ADVANCED_FACE('',(#429),#63,.T.);
#459=ADVANCED_FACE('',(#430),#64,.T.);
#460=ADVANCED_FACE('',(#431),#65,.T.);
#461=ADVANCED_FACE('',(#432),#66,.T.);
#462=ADVANCED_FACE('',(#433),#67,.T.);
#463=ADVANCED_FACE('',(#434),#68,.T.);
#464=ADVANCED_FACE('',(#435),#69,.T.);
#465=ADVANCED_FACE('',(#436),#70,.T.);
#466=ADVANCED_FACE('',(#437),#71,.T.);
#467=ADVANCED_FACE('',(#438),#72,.T.);
#468=ADVANCED_FACE('',(#439),#73,.T.);
#469=ADVANCED_FACE('',(#440),#74,.T.);
#470=ADVANCED_FACE('',(#441),#75,.F.);
#471=ADVANCED_FACE('',(#442),#76,.F.);
#472=ADVANCED_FACE('',(#443),#77,.F.);
#473=ADVANCED_FACE('',(#444),#78,.F.);
#474=ADVANCED_FACE('',(#445),#79,.F.);
#475=ADVANCED_FACE('',(#446),#80,.F.);
#476=ADVANCED_FACE('',(#447),#450,.T.);
#477=ADVANCED_FACE('',(#448),#451,.F.);
#478=CLOSED_SHELL('',(#452,#453,#454,#455,#456,#457,#458,#459,#460,#461,
#462,#463,#464,#465,#466,#467,#468,#469,#470,#471,#472,#473,#474,#475,#476,
#477));
#479=STYLED_ITEM('',(#480),#487);
#480=PRESENTATION_STYLE_ASSIGNMENT((#481));
#481=SURFACE_STYLE_USAGE(.BOTH.,#482);
#482=SURFACE_SIDE_STYLE('',(#483));
#483=SURFACE_STYLE_FILL_AREA(#484);
#484=FILL_AREA_STYLE('',(#485));
#485=FILL_AREA_STYLE_COLOUR('',#486);
#486=COLOUR_RGB('',0.768627450980392,0.886274509803922,0.952941176470588);
#487=MANIFOLD_SOLID_BREP('Part 20',#478);
#488=SHAPE_DEFINITION_REPRESENTATION(#888,#489);
#489=SHAPE_REPRESENTATION('Part 20',(#490),#883);
#490=AXIS2_PLACEMENT_3D('',#735,#563,#564);
#491=AXIS2_PLACEMENT_3D('',#736,#565,#566);
#492=AXIS2_PLACEMENT_3D('',#745,#571,#572);
#493=AXIS2_PLACEMENT_3D('',#746,#573,#574);
#494=AXIS2_PLACEMENT_3D('',#750,#576,#577);
#495=AXIS2_PLACEMENT_3D('',#751,#578,#579);
#496=AXIS2_PLACEMENT_3D('',#752,#580,#581);
#497=AXIS2_PLACEMENT_3D('',#756,#583,#584);
#498=AXIS2_PLACEMENT_3D('',#757,#585,#586);
#499=AXIS2_PLACEMENT_3D('',#758,#587,#588);
#500=AXIS2_PLACEMENT_3D('',#762,#590,#591);
#501=AXIS2_PLACEMENT_3D('',#763,#592,#593);
#502=AXIS2_PLACEMENT_3D('',#764,#594,#595);
#503=AXIS2_PLACEMENT_3D('',#768,#597,#598);
#504=AXIS2_PLACEMENT_3D('',#769,#599,#600);
#505=AXIS2_PLACEMENT_3D('',#770,#601,#602);
#506=AXIS2_PLACEMENT_3D('',#774,#604,#605);
#507=AXIS2_PLACEMENT_3D('',#775,#606,#607);
#508=AXIS2_PLACEMENT_3D('',#776,#608,#609);
#509=AXIS2_PLACEMENT_3D('',#780,#611,#612);
#510=AXIS2_PLACEMENT_3D('',#781,#613,#614);
#511=AXIS2_PLACEMENT_3D('',#782,#615,#616);
#512=AXIS2_PLACEMENT_3D('',#786,#618,#619);
#513=AXIS2_PLACEMENT_3D('',#787,#620,#621);
#514=AXIS2_PLACEMENT_3D('',#788,#622,#623);
#515=AXIS2_PLACEMENT_3D('',#792,#625,#626);
#516=AXIS2_PLACEMENT_3D('',#793,#627,#628);
#517=AXIS2_PLACEMENT_3D('',#794,#629,#630);
#518=AXIS2_PLACEMENT_3D('',#798,#632,#633);
#519=AXIS2_PLACEMENT_3D('',#799,#634,#635);
#520=AXIS2_PLACEMENT_3D('',#800,#636,#637);
#521=AXIS2_PLACEMENT_3D('',#804,#639,#640);
#522=AXIS2_PLACEMENT_3D('',#805,#641,#642);
#523=AXIS2_PLACEMENT_3D('',#806,#643,#644);
#524=AXIS2_PLACEMENT_3D('',#810,#646,#647);
#525=AXIS2_PLACEMENT_3D('',#811,#648,#649);
#526=AXIS2_PLACEMENT_3D('',#812,#650,#651);
#527=AXIS2_PLACEMENT_3D('',#816,#653,#654);
#528=AXIS2_PLACEMENT_3D('',#817,#655,#656);
#529=AXIS2_PLACEMENT_3D('',#818,#657,#658);
#530=AXIS2_PLACEMENT_3D('',#822,#660,#661);
#531=AXIS2_PLACEMENT_3D('',#823,#662,#663);
#532=AXIS2_PLACEMENT_3D('',#824,#664,#665);
#533=AXIS2_PLACEMENT_3D('',#828,#667,#668);
#534=AXIS2_PLACEMENT_3D('',#829,#669,#670);
#535=AXIS2_PLACEMENT_3D('',#830,#671,#672);
#536=AXIS2_PLACEMENT_3D('',#834,#674,#675);
#537=AXIS2_PLACEMENT_3D('',#835,#676,#677);
#538=AXIS2_PLACEMENT_3D('',#836,#678,#679);
#539=AXIS2_PLACEMENT_3D('',#840,#681,#682);
#540=AXIS2_PLACEMENT_3D('',#841,#683,#684);
#541=AXIS2_PLACEMENT_3D('',#842,#685,#686);
#542=AXIS2_PLACEMENT_3D('',#846,#688,#689);
#543=AXIS2_PLACEMENT_3D('',#847,#690,#691);
#544=AXIS2_PLACEMENT_3D('',#848,#692,#693);
#545=AXIS2_PLACEMENT_3D('',#852,#695,#696);
#546=AXIS2_PLACEMENT_3D('',#853,#697,#698);
#547=AXIS2_PLACEMENT_3D('',#854,#699,#700);
#548=AXIS2_PLACEMENT_3D('',#858,#702,#703);
#549=AXIS2_PLACEMENT_3D('',#859,#704,#705);
#550=AXIS2_PLACEMENT_3D('',#860,#706,#707);
#551=AXIS2_PLACEMENT_3D('',#864,#709,#710);
#552=AXIS2_PLACEMENT_3D('',#865,#711,#712);
#553=AXIS2_PLACEMENT_3D('',#866,#713,#714);
#554=AXIS2_PLACEMENT_3D('',#870,#716,#717);
#555=AXIS2_PLACEMENT_3D('',#871,#718,#719);
#556=AXIS2_PLACEMENT_3D('',#872,#720,#721);
#557=AXIS2_PLACEMENT_3D('',#876,#723,#724);
#558=AXIS2_PLACEMENT_3D('',#877,#725,#726);
#559=AXIS2_PLACEMENT_3D('',#878,#727,#728);
#560=AXIS2_PLACEMENT_3D('',#879,#729,#730);
#561=AXIS2_PLACEMENT_3D('',#880,#731,#732);
#562=AXIS2_PLACEMENT_3D('',#881,#733,#734);
#563=DIRECTION('',(0.,0.,1.));
#564=DIRECTION('',(1.,0.,0.));
#565=DIRECTION('',(-1.,-9.08232186375291E-17,5.56131819963552E-33));
#566=DIRECTION('',(5.56131819963552E-33,-1.22464679914735E-16,-1.));
#567=DIRECTION('',(9.08232186375291E-17,-1.,1.22464679914735E-16));
#568=DIRECTION('',(-5.56131819963552E-33,1.22464679914735E-16,1.));
#569=DIRECTION('',(9.08232186375291E-17,-1.,1.22464679914735E-16));
#570=DIRECTION('',(-5.56131819963552E-33,1.22464679914735E-16,1.));
#571=DIRECTION('',(-5.56131819963552E-33,1.22464679914735E-16,1.));
#572=DIRECTION('',(-1.,-9.08232186375291E-17,5.56131819963552E-33));
#573=DIRECTION('',(5.56131819963552E-33,-1.22464679914735E-16,-1.));
#574=DIRECTION('',(1.,9.08232186375291E-17,-5.56131819963552E-33));
#575=DIRECTION('',(-5.56131819963552E-33,1.22464679914735E-16,1.));
#576=DIRECTION('',(5.56131819963552E-33,-1.22464679914735E-16,-1.));
#577=DIRECTION('',(1.,9.08232186375291E-17,-5.56131819963552E-33));
#578=DIRECTION('',(-5.56131819963552E-33,1.22464679914735E-16,1.));
#579=DIRECTION('',(-1.,-9.08232186375291E-17,5.56131819963552E-33));
#580=DIRECTION('',(-5.56131819963552E-33,1.22464679914735E-16,1.));
#581=DIRECTION('',(1.,9.08232186375291E-17,-5.56131819963552E-33));
#582=DIRECTION('',(-5.56131819963552E-33,1.22464679914735E-16,1.));
#583=DIRECTION('',(-5.56131819963552E-33,1.22464679914735E-16,1.));
#584=DIRECTION('',(1.,9.08232186375291E-17,-5.56131819963552E-33));
#585=DIRECTION('',(-5.56131819963552E-33,1.22464679914735E-16,1.));
#586=DIRECTION('',(-1.,-9.08232186375291E-17,5.56131819963552E-33));
#587=DIRECTION('',(-5.56131819963552E-33,1.22464679914735E-16,1.));
#588=DIRECTION('',(1.,9.08232186375291E-17,-5.56131819963552E-33));
#589=DIRECTION('',(-5.56131819963552E-33,1.22464679914735E-16,1.));
#590=DIRECTION('',(-5.56131819963552E-33,1.22464679914735E-16,1.));
#591=DIRECTION('',(1.,9.08232186375291E-17,-5.56131819963552E-33));
#592=DIRECTION('',(-5.56131819963552E-33,1.22464679914735E-16,1.));
#593=DIRECTION('',(-1.,-9.08232186375291E-17,5.56131819963552E-33));
#594=DIRECTION('',(-5.56131819963552E-33,1.22464679914735E-16,1.));
#595=DIRECTION('',(1.,9.08232186375291E-17,-5.56131819963552E-33));
#596=DIRECTION('',(-5.56131819963552E-33,1.22464679914735E-16,1.));
#597=DIRECTION('',(-5.56131819963552E-33,1.22464679914735E-16,1.));
#598=DIRECTION('',(1.,9.08232186375291E-17,-5.56131819963552E-33));
#599=DIRECTION('',(-5.56131819963552E-33,1.22464679914735E-16,1.));
#600=DIRECTION('',(-1.,-9.08232186375291E-17,5.56131819963552E-33));
#601=DIRECTION('',(-5.56131819963552E-33,1.22464679914735E-16,1.));
#602=DIRECTION('',(1.,9.08232186375291E-17,-5.56131819963552E-33));
#603=DIRECTION('',(-5.56131819963552E-33,1.22464679914735E-16,1.));
#604=DIRECTION('',(-5.56131819963552E-33,1.22464679914735E-16,1.));
#605=DIRECTION('',(1.,9.08232186375291E-17,-5.56131819963552E-33));
#606=DIRECTION('',(-5.56131819963552E-33,1.22464679914735E-16,1.));
#607=DIRECTION('',(-1.,-9.08232186375291E-17,5.56131819963552E-33));
#608=DIRECTION('',(5.56131819963552E-33,-1.22464679914735E-16,-1.));
#609=DIRECTION('',(1.,9.08232186375291E-17,-5.56131819963552E-33));
#610=DIRECTION('',(-5.56131819963552E-33,1.22464679914735E-16,1.));
#611=DIRECTION('',(5.56131819963552E-33,-1.22464679914735E-16,-1.));
#612=DIRECTION('',(1.,9.08232186375291E-17,-5.56131819963552E-33));
#613=DIRECTION('',(-5.56131819963552E-33,1.22464679914735E-16,1.));
#614=DIRECTION('',(-1.,-9.08232186375291E-17,5.56131819963552E-33));
#615=DIRECTION('',(5.56131819963552E-33,-1.22464679914735E-16,-1.));
#616=DIRECTION('',(1.,9.08232186375291E-17,-5.56131819963552E-33));
#617=DIRECTION('',(-5.56131819963552E-33,1.22464679914735E-16,1.));
#618=DIRECTION('',(5.56131819963552E-33,-1.22464679914735E-16,-1.));
#619=DIRECTION('',(1.,9.08232186375291E-17,-5.56131819963552E-33));
#620=DIRECTION('',(-5.56131819963552E-33,1.22464679914735E-16,1.));
#621=DIRECTION('',(-1.,-9.08232186375291E-17,5.56131819963552E-33));
#622=DIRECTION('',(5.56131819963552E-33,-1.22464679914735E-16,-1.));
#623=DIRECTION('',(1.,9.08232186375291E-17,-5.56131819963552E-33));
#624=DIRECTION('',(-5.56131819963552E-33,1.22464679914735E-16,1.));
#625=DIRECTION('',(5.56131819963552E-33,-1.22464679914735E-16,-1.));
#626=DIRECTION('',(1.,9.08232186375291E-17,-5.56131819963552E-33));
#627=DIRECTION('',(-5.56131819963552E-33,1.22464679914735E-16,1.));
#628=DIRECTION('',(-1.,-9.08232186375291E-17,5.56131819963552E-33));
#629=DIRECTION('',(5.56131819963552E-33,-1.22464679914735E-16,-1.));
#630=DIRECTION('',(1.,9.08232186375291E-17,-5.56131819963552E-33));
#631=DIRECTION('',(-5.56131819963552E-33,1.22464679914735E-16,1.));
#632=DIRECTION('',(5.56131819963552E-33,-1.22464679914735E-16,-1.));
#633=DIRECTION('',(1.,9.08232186375291E-17,-5.56131819963552E-33));
#634=DIRECTION('',(-5.56131819963552E-33,1.22464679914735E-16,1.));
#635=DIRECTION('',(-1.,-9.08232186375291E-17,5.56131819963552E-33));
#636=DIRECTION('',(5.56131819963552E-33,-1.22464679914735E-16,-1.));
#637=DIRECTION('',(1.,9.08232186375291E-17,-5.56131819963552E-33));
#638=DIRECTION('',(-5.56131819963552E-33,1.22464679914735E-16,1.));
#639=DIRECTION('',(5.56131819963552E-33,-1.22464679914735E-16,-1.));
#640=DIRECTION('',(1.,9.08232186375291E-17,-5.56131819963552E-33));
#641=DIRECTION('',(-5.56131819963552E-33,1.22464679914735E-16,1.));
#642=DIRECTION('',(-1.,-9.08232186375291E-17,5.56131819963552E-33));
#643=DIRECTION('',(5.56131819963552E-33,-1.22464679914735E-16,-1.));
#644=DIRECTION('',(1.,9.08232186375291E-17,-5.56131819963552E-33));
#645=DIRECTION('',(-5.56131819963552E-33,1.22464679914735E-16,1.));
#646=DIRECTION('',(5.56131819963552E-33,-1.22464679914735E-16,-1.));
#647=DIRECTION('',(1.,9.08232186375291E-17,-5.56131819963552E-33));
#648=DIRECTION('',(-5.56131819963552E-33,1.22464679914735E-16,1.));
#649=DIRECTION('',(-1.,-9.08232186375291E-17,5.56131819963552E-33));
#650=DIRECTION('',(5.56131819963552E-33,-1.22464679914735E-16,-1.));
#651=DIRECTION('',(1.,9.08232186375291E-17,-5.56131819963552E-33));
#652=DIRECTION('',(-5.56131819963552E-33,1.22464679914735E-16,1.));
#653=DIRECTION('',(5.56131819963552E-33,-1.22464679914735E-16,-1.));
#654=DIRECTION('',(1.,9.08232186375291E-17,-5.56131819963552E-33));
#655=DIRECTION('',(-5.56131819963552E-33,1.22464679914735E-16,1.));
#656=DIRECTION('',(-1.,-9.08232186375291E-17,5.56131819963552E-33));
#657=DIRECTION('',(5.56131819963552E-33,-1.22464679914735E-16,-1.));
#658=DIRECTION('',(1.,9.08232186375291E-17,-5.56131819963552E-33));
#659=DIRECTION('',(-5.56131819963552E-33,1.22464679914735E-16,1.));
#660=DIRECTION('',(5.56131819963552E-33,-1.22464679914735E-16,-1.));
#661=DIRECTION('',(1.,9.08232186375291E-17,-5.56131819963552E-33));
#662=DIRECTION('',(-5.56131819963552E-33,1.22464679914735E-16,1.));
#663=DIRECTION('',(-1.,-9.08232186375291E-17,5.56131819963552E-33));
#664=DIRECTION('',(5.56131819963552E-33,-1.22464679914735E-16,-1.));
#665=DIRECTION('',(1.,9.08232186375291E-17,-5.56131819963552E-33));
#666=DIRECTION('',(-5.56131819963552E-33,1.22464679914735E-16,1.));
#667=DIRECTION('',(5.56131819963552E-33,-1.22464679914735E-16,-1.));
#668=DIRECTION('',(1.,9.08232186375291E-17,-5.56131819963552E-33));
#669=DIRECTION('',(-5.56131819963552E-33,1.22464679914735E-16,1.));
#670=DIRECTION('',(-1.,-9.08232186375291E-17,5.56131819963552E-33));
#671=DIRECTION('',(5.56131819963552E-33,-1.22464679914735E-16,-1.));
#672=DIRECTION('',(1.,9.08232186375291E-17,-5.56131819963552E-33));
#673=DIRECTION('',(-5.56131819963552E-33,1.22464679914735E-16,1.));
#674=DIRECTION('',(5.56131819963552E-33,-1.22464679914735E-16,-1.));
#675=DIRECTION('',(1.,9.08232186375291E-17,-5.56131819963552E-33));
#676=DIRECTION('',(-5.56131819963552E-33,1.22464679914735E-16,1.));
#677=DIRECTION('',(-1.,-9.08232186375291E-17,5.56131819963552E-33));
#678=DIRECTION('',(5.56131819963552E-33,-1.22464679914735E-16,-1.));
#679=DIRECTION('',(1.,9.08232186375291E-17,-5.56131819963552E-33));
#680=DIRECTION('',(-5.56131819963552E-33,1.22464679914735E-16,1.));
#681=DIRECTION('',(5.56131819963552E-33,-1.22464679914735E-16,-1.));
#682=DIRECTION('',(1.,9.08232186375291E-17,-5.56131819963552E-33));
#683=DIRECTION('',(-5.56131819963552E-33,1.22464679914735E-16,1.));
#684=DIRECTION('',(-1.,-9.08232186375291E-17,5.56131819963552E-33));
#685=DIRECTION('',(5.56131819963552E-33,-1.22464679914735E-16,-1.));
#686=DIRECTION('',(1.,9.08232186375291E-17,-5.56131819963552E-33));
#687=DIRECTION('',(-5.56131819963552E-33,1.22464679914735E-16,1.));
#688=DIRECTION('',(5.56131819963552E-33,-1.22464679914735E-16,-1.));
#689=DIRECTION('',(1.,9.08232186375291E-17,-5.56131819963552E-33));
#690=DIRECTION('',(-5.56131819963552E-33,1.22464679914735E-16,1.));
#691=DIRECTION('',(-1.,-9.08232186375291E-17,5.56131819963552E-33));
#692=DIRECTION('',(-5.56131819963552E-33,1.22464679914735E-16,1.));
#693=DIRECTION('',(1.,9.08232186375291E-17,-5.56131819963552E-33));
#694=DIRECTION('',(-5.56131819963552E-33,1.22464679914735E-16,1.));
#695=DIRECTION('',(-5.56131819963552E-33,1.22464679914735E-16,1.));
#696=DIRECTION('',(1.,9.08232186375291E-17,-5.56131819963552E-33));
#697=DIRECTION('',(-5.56131819963552E-33,1.22464679914735E-16,1.));
#698=DIRECTION('',(-1.,-9.08232186375291E-17,5.56131819963552E-33));
#699=DIRECTION('',(-5.56131819963552E-33,1.22464679914735E-16,1.));
#700=DIRECTION('',(1.,9.08232186375291E-17,-5.56131819963552E-33));
#701=DIRECTION('',(-5.56131819963552E-33,1.22464679914735E-16,1.));
#702=DIRECTION('',(-5.56131819963552E-33,1.22464679914735E-16,1.));
#703=DIRECTION('',(1.,9.08232186375291E-17,-5.56131819963552E-33));
#704=DIRECTION('',(-5.56131819963552E-33,1.22464679914735E-16,1.));
#705=DIRECTION('',(-1.,-9.08232186375291E-17,5.56131819963552E-33));
#706=DIRECTION('',(-5.56131819963552E-33,1.22464679914735E-16,1.));
#707=DIRECTION('',(1.,9.08232186375291E-17,-5.56131819963552E-33));
#708=DIRECTION('',(-5.56131819963552E-33,1.22464679914735E-16,1.));
#709=DIRECTION('',(-5.56131819963552E-33,1.22464679914735E-16,1.));
#710=DIRECTION('',(1.,9.08232186375291E-17,-5.56131819963552E-33));
#711=DIRECTION('',(-5.56131819963552E-33,1.22464679914735E-16,1.));
#712=DIRECTION('',(-1.,-9.08232186375291E-17,5.56131819963552E-33));
#713=DIRECTION('',(-5.56131819963552E-33,1.22464679914735E-16,1.));
#714=DIRECTION('',(1.,9.08232186375291E-17,-5.56131819963552E-33));
#715=DIRECTION('',(-5.56131819963552E-33,1.22464679914735E-16,1.));
#716=DIRECTION('',(-5.56131819963552E-33,1.22464679914735E-16,1.));
#717=DIRECTION('',(1.,9.08232186375291E-17,-5.56131819963552E-33));
#718=DIRECTION('',(-5.56131819963552E-33,1.22464679914735E-16,1.));
#719=DIRECTION('',(-1.,-9.08232186375291E-17,5.56131819963552E-33));
#720=DIRECTION('',(-5.56131819963552E-33,1.22464679914735E-16,1.));
#721=DIRECTION('',(1.,9.08232186375291E-17,-5.56131819963552E-33));
#722=DIRECTION('',(-5.56131819963552E-33,1.22464679914735E-16,1.));
#723=DIRECTION('',(-5.56131819963552E-33,1.22464679914735E-16,1.));
#724=DIRECTION('',(1.,9.08232186375291E-17,-5.56131819963552E-33));
#725=DIRECTION('',(-5.56131819963552E-33,1.22464679914735E-16,1.));
#726=DIRECTION('',(-1.,-9.08232186375291E-17,5.56131819963552E-33));
#727=DIRECTION('',(-5.56131819963552E-33,1.22464679914735E-16,1.));
#728=DIRECTION('',(1.,9.08232186375291E-17,-5.56131819963552E-33));
#729=DIRECTION('',(-5.56131819963552E-33,1.22464679914735E-16,1.));
#730=DIRECTION('',(1.,9.08232186375291E-17,-5.56131819963552E-33));
#731=DIRECTION('',(5.56131819963552E-33,-1.22464679914735E-16,-1.));
#732=DIRECTION('',(1.,9.08232186375291E-17,-5.56131819963552E-33));
#733=DIRECTION('',(5.56131819963552E-33,-1.22464679914735E-16,-1.));
#734=DIRECTION('',(1.,9.08232186375291E-17,-5.56131819963552E-33));
#735=CARTESIAN_POINT('',(0.,0.,0.));
#736=CARTESIAN_POINT('',(-0.0480999999999982,-0.0166371657081002,-0.0237999946391486));
#737=CARTESIAN_POINT('',(-0.0480999999999982,-0.0166371657081002,-0.0229999946391486));
#738=CARTESIAN_POINT('',(-0.0480999999999982,-0.0155505496660251,-0.0229999946391486));
#739=CARTESIAN_POINT('',(-0.0480999999999982,-0.0177237817501753,-0.0229999946391486));
#740=CARTESIAN_POINT('',(-0.0480999999999982,-0.0177237817501753,-0.0237999946391486));
#741=CARTESIAN_POINT('',(-0.0480999999999982,-0.0177237817501753,-0.0237999946391486));
#742=CARTESIAN_POINT('',(-0.0480999999999982,-0.0166371657081002,-0.0237999946391486));
#743=CARTESIAN_POINT('',(-0.0480999999999982,-0.0155505496660251,-0.0237999946391486));
#744=CARTESIAN_POINT('',(-0.0480999999999982,-0.0155505496660251,-0.0237999946391486));
#745=CARTESIAN_POINT('',(-0.0141086550895772,0.0170480096961122,-0.0237999946391486));
#746=CARTESIAN_POINT('',(-0.0141086550895772,0.0170480096961122,-0.0229999946391486));
#747=CARTESIAN_POINT('',(-0.0482435897772868,-0.0175828326711906,-0.0229999946391486));
#748=CARTESIAN_POINT('',(-0.0482435897772868,-0.0175828326711906,-0.0237999946391486));
#749=CARTESIAN_POINT('',(-0.0482435897772868,-0.0175828326711906,-0.0237999946391486));
#750=CARTESIAN_POINT('',(-0.0141086550895772,0.0170480096961122,-0.0237999946391486));
#751=CARTESIAN_POINT('',(-0.0505439919572274,-0.019916654780527,-0.0237999946391486));
#752=CARTESIAN_POINT('',(-0.0505439919572274,-0.019916654780527,-0.0229999946391486));
#753=CARTESIAN_POINT('',(-0.0484250900958632,-0.0174168886455836,-0.0229999946391486));
#754=CARTESIAN_POINT('',(-0.0484250900958632,-0.0174168886455836,-0.0237999946391486));
#755=CARTESIAN_POINT('',(-0.0484250900958632,-0.0174168886455836,-0.0237999946391486));
#756=CARTESIAN_POINT('',(-0.0505439919572274,-0.019916654780527,-0.0237999946391486));
#757=CARTESIAN_POINT('',(-0.0690293959315454,-0.0417247373955503,-0.0237999946391486));
#758=CARTESIAN_POINT('',(-0.0690293959315454,-0.0417247373955503,-0.0229999946391486));
#759=CARTESIAN_POINT('',(-0.0487563686780258,-0.0171399189948953,-0.0229999946391486));
#760=CARTESIAN_POINT('',(-0.0487563686780258,-0.0171399189948953,-0.0237999946391486));
#761=CARTESIAN_POINT('',(-0.0487563686780258,-0.0171399189948953,-0.0237999946391486));
#762=CARTESIAN_POINT('',(-0.0690293959315454,-0.0417247373955503,-0.0237999946391486));
#763=CARTESIAN_POINT('',(-0.0708079288277144,-0.0438815395211096,-0.0237999946391486));
#764=CARTESIAN_POINT('',(-0.0708079288277144,-0.0438815395211096,-0.0229999946391486));
#765=CARTESIAN_POINT('',(-0.0491491804108162,-0.0168207895239119,-0.0229999946391486));
#766=CARTESIAN_POINT('',(-0.0491491804108162,-0.0168207895239119,-0.0237999946391486));
#767=CARTESIAN_POINT('',(-0.0491491804108162,-0.0168207895239119,-0.0237999946391486));
#768=CARTESIAN_POINT('',(-0.0708079288277144,-0.0438815395211096,-0.0237999946391486));
#769=CARTESIAN_POINT('',(-0.0739273190089308,-0.0477789502215233,-0.0237999946391486));
#770=CARTESIAN_POINT('',(-0.0739273190089308,-0.0477789502215233,-0.0229999946391486));
#771=CARTESIAN_POINT('',(-0.0495598696702307,-0.0164965066007003,-0.0229999946391486));
#772=CARTESIAN_POINT('',(-0.0495598696702307,-0.0164965066007003,-0.0237999946391486));
#773=CARTESIAN_POINT('',(-0.0495598696702307,-0.0164965066007003,-0.0237999946391486));
#774=CARTESIAN_POINT('',(-0.0739273190089308,-0.0477789502215233,-0.0237999946391486));
#775=CARTESIAN_POINT('',(-0.0291014438428374,0.00976761089557755,-0.0237999946391486));
#776=CARTESIAN_POINT('',(-0.0291014438428374,0.00976761089557755,-0.0229999946391486));
#777=CARTESIAN_POINT('',(-0.0501229963586225,-0.0160479926228256,-0.0229999946391486));
#778=CARTESIAN_POINT('',(-0.0501229963586225,-0.0160479926228256,-0.0237999946391486));
#779=CARTESIAN_POINT('',(-0.0501229963586225,-0.0160479926228256,-0.0237999946391486));
#780=CARTESIAN_POINT('',(-0.0291014438428374,0.00976761089557755,-0.0237999946391486));
#781=CARTESIAN_POINT('',(-0.0486023777049435,-0.0141805906677802,-0.0237999946391486));
#782=CARTESIAN_POINT('',(-0.0486023777049435,-0.0141805906677802,-0.0229999946391486));
#783=CARTESIAN_POINT('',(-0.0503687139518469,-0.0158175168770209,-0.0229999946391486));
#784=CARTESIAN_POINT('',(-0.0503687139518469,-0.0158175168770209,-0.0237999946391486));
#785=CARTESIAN_POINT('',(-0.0503687139518469,-0.0158175168770209,-0.0237999946391486));
#786=CARTESIAN_POINT('',(-0.0486023777049435,-0.0141805906677802,-0.0237999946391486));
#787=CARTESIAN_POINT('',(-0.0499658146903305,-0.015444135895899,-0.0237999946391486));
#788=CARTESIAN_POINT('',(-0.0499658146903305,-0.015444135895899,-0.0229999946391486));
#789=CARTESIAN_POINT('',(-0.0504619232835028,-0.0156799693875294,-0.0229999946391486));
#790=CARTESIAN_POINT('',(-0.0504619232835028,-0.0156799693875294,-0.0237999946391486));
#791=CARTESIAN_POINT('',(-0.0504619232835028,-0.0156799693875294,-0.0237999946391486));
#792=CARTESIAN_POINT('',(-0.0499658146903305,-0.015444135895899,-0.0237999946391486));
#793=CARTESIAN_POINT('',(-0.0502918141728926,-0.0155991051854867,-0.0237999946391486));
#794=CARTESIAN_POINT('',(-0.0502918141728926,-0.0155991051854867,-0.0229999946391486));
#795=CARTESIAN_POINT('',(-0.0504799034535251,-0.0155891778900275,-0.0229999946391486));
#796=CARTESIAN_POINT('',(-0.0504799034535251,-0.0155891778900275,-0.0237999946391486));
#797=CARTESIAN_POINT('',(-0.0504799034535251,-0.0155891778900275,-0.0237999946391486));
#798=CARTESIAN_POINT('',(-0.0502918141728926,-0.0155991051854867,-0.0237999946391486));
#799=CARTESIAN_POINT('',(-0.0500233706678347,-0.0156132735526571,-0.0237999946391486));
#800=CARTESIAN_POINT('',(-0.0500233706678347,-0.0156132735526571,-0.0229999946391486));
#801=CARTESIAN_POINT('',(-0.0504626856990787,-0.0154867623330326,-0.0229999946391486));
#802=CARTESIAN_POINT('',(-0.0504626856990787,-0.0154867623330326,-0.0237999946391486));
#803=CARTESIAN_POINT('',(-0.0504626856990787,-0.0154867623330326,-0.0237999946391486));
#804=CARTESIAN_POINT('',(-0.0500233706678347,-0.0156132735526571,-0.0237999946391486));
#805=CARTESIAN_POINT('',(-0.0503586225960738,-0.0155167297804057,-0.0237999946391486));
#806=CARTESIAN_POINT('',(-0.0503586225960738,-0.0155167297804057,-0.0229999946391486));
#807=CARTESIAN_POINT('',(-0.050442738074645,-0.0154485259419978,-0.0229999946391486));
#808=CARTESIAN_POINT('',(-0.050442738074645,-0.0154485259419978,-0.0237999946391486));
#809=CARTESIAN_POINT('',(-0.050442738074645,-0.0154485259419978,-0.0237999946391486));
#810=CARTESIAN_POINT('',(-0.0503586225960738,-0.0155167297804057,-0.0237999946391486));
#811=CARTESIAN_POINT('',(-0.0503001303736367,-0.0155641573663266,-0.0237999946391486));
#812=CARTESIAN_POINT('',(-0.0503001303736367,-0.0155641573663266,-0.0229999946391486));
#813=CARTESIAN_POINT('',(-0.0503944501436466,-0.0154066411333085,-0.0229999946391486));
#814=CARTESIAN_POINT('',(-0.0503944501436466,-0.0154066411333085,-0.0237999946391486));
#815=CARTESIAN_POINT('',(-0.0503944501436466,-0.0154066411333085,-0.0237999946391486));
#816=CARTESIAN_POINT('',(-0.0503001303736367,-0.0155641573663266,-0.0237999946391486));
#817=CARTESIAN_POINT('',(-0.0498338030119595,-0.0163429350219223,-0.0237999946391486));
#818=CARTESIAN_POINT('',(-0.0498338030119595,-0.0163429350219223,-0.0229999946391486));
#819=CARTESIAN_POINT('',(-0.0502565795024122,-0.0153368378639671,-0.0229999946391486));
#820=CARTESIAN_POINT('',(-0.0502565795024122,-0.0153368378639671,-0.0237999946391486));
#821=CARTESIAN_POINT('',(-0.0502565795024122,-0.0153368378639671,-0.0237999946391486));
#822=CARTESIAN_POINT('',(-0.0498338030119595,-0.0163429350219223,-0.0237999946391486));
#823=CARTESIAN_POINT('',(-0.0500766089633749,-0.0157651205427112,-0.0237999946391486));
#824=CARTESIAN_POINT('',(-0.0500766089633749,-0.0157651205427112,-0.0229999946391486));
#825=CARTESIAN_POINT('',(-0.0501219710647214,-0.0153027811353539,-0.0229999946391486));
#826=CARTESIAN_POINT('',(-0.0501219710647214,-0.0153027811353539,-0.0237999946391486));
#827=CARTESIAN_POINT('',(-0.0501219710647214,-0.0153027811353539,-0.0237999946391486));
#828=CARTESIAN_POINT('',(-0.0500766089633749,-0.0157651205427112,-0.0237999946391486));
#829=CARTESIAN_POINT('',(-0.0500933878099279,-0.0155941072575857,-0.0237999946391486));
#830=CARTESIAN_POINT('',(-0.0500933878099279,-0.0155941072575857,-0.0229999946391486));
#831=CARTESIAN_POINT('',(-0.0500131585660046,-0.0153125913959223,-0.0229999946391486));
#832=CARTESIAN_POINT('',(-0.0500131585660046,-0.0153125913959223,-0.0237999946391486));
#833=CARTESIAN_POINT('',(-0.0500131585660046,-0.0153125913959223,-0.0237999946391486));
#834=CARTESIAN_POINT('',(-0.0500933878099279,-0.0155941072575857,-0.0237999946391486));
#835=CARTESIAN_POINT('',(-0.0502039614898936,-0.0159820985095359,-0.0237999946391486));
#836=CARTESIAN_POINT('',(-0.0502039614898936,-0.0159820985095359,-0.0229999946391486));
#837=CARTESIAN_POINT('',(-0.04984801125234,-0.0153838134944063,-0.0229999946391486));
#838=CARTESIAN_POINT('',(-0.04984801125234,-0.0153838134944063,-0.0237999946391486));
#839=CARTESIAN_POINT('',(-0.04984801125234,-0.0153838134944063,-0.0237999946391486));
#840=CARTESIAN_POINT('',(-0.0502039614898936,-0.0159820985095359,-0.0237999946391486));
#841=CARTESIAN_POINT('',(-0.0521069663463815,-0.0191806896867209,-0.0237999946391486));
#842=CARTESIAN_POINT('',(-0.0521069663463815,-0.0191806896867209,-0.0229999946391486));
#843=CARTESIAN_POINT('',(-0.0495630879097249,-0.0155685117514338,-0.0229999946391486));
#844=CARTESIAN_POINT('',(-0.0495630879097249,-0.0155685117514338,-0.0237999946391486));
#845=CARTESIAN_POINT('',(-0.0495630879097249,-0.0155685117514338,-0.0237999946391486));
#846=CARTESIAN_POINT('',(-0.0521069663463815,-0.0191806896867209,-0.0237999946391486));
#847=CARTESIAN_POINT('',(-0.0473846466098426,-0.0124752359551673,-0.0237999946391486));
#848=CARTESIAN_POINT('',(-0.0473846466098426,-0.0124752359551673,-0.0229999946391486));
#849=CARTESIAN_POINT('',(-0.0493226074878554,-0.0157245850106243,-0.0229999946391486));
#850=CARTESIAN_POINT('',(-0.0493226074878554,-0.0157245850106243,-0.0237999946391486));
#851=CARTESIAN_POINT('',(-0.0493226074878554,-0.0157245850106243,-0.0237999946391486));
#852=CARTESIAN_POINT('',(-0.0473846466098426,-0.0124752359551673,-0.0237999946391486));
#853=CARTESIAN_POINT('',(-0.0477887159114366,-0.0131527327087757,-0.0237999946391486));
#854=CARTESIAN_POINT('',(-0.0477887159114366,-0.0131527327087757,-0.0229999946391486));
#855=CARTESIAN_POINT('',(-0.0490816369738365,-0.015853770057119,-0.0229999946391486));
#856=CARTESIAN_POINT('',(-0.0490816369738365,-0.015853770057119,-0.0237999946391486));
#857=CARTESIAN_POINT('',(-0.0490816369738365,-0.015853770057119,-0.0237999946391486));
#858=CARTESIAN_POINT('',(-0.0477887159114366,-0.0131527327087757,-0.0237999946391486));
#859=CARTESIAN_POINT('',(-0.047968444601101,-0.0135282033523208,-0.0237999946391486));
#860=CARTESIAN_POINT('',(-0.047968444601101,-0.0135282033523208,-0.0229999946391486));
#861=CARTESIAN_POINT('',(-0.0488699771779076,-0.0159437150517624,-0.0229999946391486));
#862=CARTESIAN_POINT('',(-0.0488699771779076,-0.0159437150517624,-0.0237999946391486));
#863=CARTESIAN_POINT('',(-0.0488699771779076,-0.0159437150517624,-0.0237999946391486));
#864=CARTESIAN_POINT('',(-0.047968444601101,-0.0135282033523208,-0.0237999946391486));
#865=CARTESIAN_POINT('',(-0.0487182934628941,-0.0155373029068705,-0.0237999946391486));
#866=CARTESIAN_POINT('',(-0.0487182934628941,-0.0155373029068705,-0.0229999946391486));
#867=CARTESIAN_POINT('',(-0.0486610016405163,-0.0159672987533558,-0.0229999946391486));
#868=CARTESIAN_POINT('',(-0.0486610016405163,-0.0159672987533558,-0.0237999946391486));
#869=CARTESIAN_POINT('',(-0.0486610016405163,-0.0159672987533558,-0.0237999946391486));
#870=CARTESIAN_POINT('',(-0.0487182934628941,-0.0155373029068705,-0.0237999946391486));
#871=CARTESIAN_POINT('',(-0.0487184198450175,-0.0155363543633278,-0.0237999946391486));
#872=CARTESIAN_POINT('',(-0.0487184198450175,-0.0155363543633278,-0.0229999946391486));
#873=CARTESIAN_POINT('',(-0.048423058606227,-0.0158553710652805,-0.0229999946391486));
#874=CARTESIAN_POINT('',(-0.048423058606227,-0.0158553710652805,-0.0237999946391486));
#875=CARTESIAN_POINT('',(-0.048423058606227,-0.0158553710652805,-0.0237999946391486));
#876=CARTESIAN_POINT('',(-0.0487184198450175,-0.0155363543633278,-0.0237999946391486));
#877=CARTESIAN_POINT('',(-0.0643950071837751,0.00139576987599669,-0.0237999946391486));
#878=CARTESIAN_POINT('',(-0.0643950071837751,0.00139576987599669,-0.0229999946391486));
#879=CARTESIAN_POINT('',(-0.0643950071837751,0.00139576987599669,-0.0237999946391486));
#880=CARTESIAN_POINT('',(-0.0697228288706337,0.00606633418553786,-0.0237999946391486));
#881=CARTESIAN_POINT('',(-0.0697228288706337,0.00606633418553786,-0.0229999946391486));
#882=MECHANICAL_DESIGN_GEOMETRIC_PRESENTATION_REPRESENTATION('',(#479),
#883);
#883=(
GEOMETRIC_REPRESENTATION_CONTEXT(3)
GLOBAL_UNCERTAINTY_ASSIGNED_CONTEXT((#884))
GLOBAL_UNIT_ASSIGNED_CONTEXT((#887,#886,#885))
REPRESENTATION_CONTEXT('Part 20','TOP_LEVEL_ASSEMBLY_PART')
);
#884=UNCERTAINTY_MEASURE_WITH_UNIT(LENGTH_MEASURE(1.E-8),#887,
'DISTANCE_ACCURACY_VALUE','Maximum Tolerance applied to model');
#885=(
NAMED_UNIT(*)
SI_UNIT($,.STERADIAN.)
SOLID_ANGLE_UNIT()
);
#886=(
NAMED_UNIT(*)
PLANE_ANGLE_UNIT()
SI_UNIT($,.RADIAN.)
);
#887=(
LENGTH_UNIT()
NAMED_UNIT(*)
SI_UNIT($,.METRE.)
);
#888=PRODUCT_DEFINITION_SHAPE('','',#889);
#889=PRODUCT_DEFINITION('','',#891,#890);
#890=PRODUCT_DEFINITION_CONTEXT('',#897,'design');
#891=PRODUCT_DEFINITION_FORMATION_WITH_SPECIFIED_SOURCE('','',#893,
 .NOT_KNOWN.);
#892=PRODUCT_RELATED_PRODUCT_CATEGORY('','',(#893));
#893=PRODUCT('Part 20','Part 20','Part 20',(#895));
#894=PRODUCT_CATEGORY('','');
#895=PRODUCT_CONTEXT('',#897,'mechanical');
#896=APPLICATION_PROTOCOL_DEFINITION('international standard',
'ap242_managed_model_based_3d_engineering',2020,#897);
#897=APPLICATION_CONTEXT('managed model based 3d engineering');
ENDSEC;
END-ISO-10303-21;
