ISO-10303-21;
HEADER;
/* Generated by software containing ST-Developer
 * from STEP Tools, Inc. (www.steptools.com) 
 */
/* OPTION: using custom renumber hook */

FILE_DESCRIPTION(
/* description */ ('STEP AP242 Edition 2',
'CAx-IF Rec.Pracs.---Representation and Presentation of Product Manufa
cturing Information (PMI)---4.0---2014-10-13',
'CAx-IF Rec.Pracs.---3D Tessellated Geometry---0.4---2014-09-14','2;1',
'CAx-IF Rec.Pracs.---User Defined Attributes---1.5---2016-08-15'),
/* implementation_level */ '2;1');

FILE_NAME(
/* name */ 'S_BUTTONS - Part 11',
/* time_stamp */ '2026-09-23T15:01:02Z',
/* author */ (''),
/* organization */ (''),
/* preprocessor_version */ 'ST-DEVELOPER v20',
/* originating_system */ 'ONSHAPE BY PTC INC, 1.221',
/* authorisation */ '  ');

FILE_SCHEMA (('AP242_MANAGED_MODEL_BASED_3D_ENGINEERING_MIM_LF { 1 0 10303 442 3 1 4 }'));
ENDSEC;

DATA;
#10=SHAPE_REPRESENTATION_RELATIONSHIP('','',#287,#11);
#11=ADVANCED_BREP_SHAPE_REPRESENTATION('',(#285),#445);
#12=ORIENTED_EDGE('',*,*,#84,.F.);
#13=ORIENTED_EDGE('',*,*,#85,.F.);
#14=ORIENTED_EDGE('',*,*,#86,.T.);
#15=ORIENTED_EDGE('',*,*,#87,.T.);
#16=ORIENTED_EDGE('',*,*,#88,.F.);
#17=ORIENTED_EDGE('',*,*,#87,.F.);
#18=ORIENTED_EDGE('',*,*,#89,.T.);
#19=ORIENTED_EDGE('',*,*,#90,.T.);
#20=ORIENTED_EDGE('',*,*,#91,.F.);
#21=ORIENTED_EDGE('',*,*,#90,.F.);
#22=ORIENTED_EDGE('',*,*,#92,.T.);
#23=ORIENTED_EDGE('',*,*,#93,.T.);
#24=ORIENTED_EDGE('',*,*,#94,.F.);
#25=ORIENTED_EDGE('',*,*,#93,.F.);
#26=ORIENTED_EDGE('',*,*,#95,.T.);
#27=ORIENTED_EDGE('',*,*,#96,.T.);
#28=ORIENTED_EDGE('',*,*,#97,.F.);
#29=ORIENTED_EDGE('',*,*,#96,.F.);
#30=ORIENTED_EDGE('',*,*,#98,.T.);
#31=ORIENTED_EDGE('',*,*,#99,.T.);
#32=ORIENTED_EDGE('',*,*,#100,.F.);
#33=ORIENTED_EDGE('',*,*,#99,.F.);
#34=ORIENTED_EDGE('',*,*,#101,.T.);
#35=ORIENTED_EDGE('',*,*,#102,.T.);
#36=ORIENTED_EDGE('',*,*,#103,.F.);
#37=ORIENTED_EDGE('',*,*,#102,.F.);
#38=ORIENTED_EDGE('',*,*,#104,.T.);
#39=ORIENTED_EDGE('',*,*,#105,.T.);
#40=ORIENTED_EDGE('',*,*,#106,.T.);
#41=ORIENTED_EDGE('',*,*,#107,.F.);
#42=ORIENTED_EDGE('',*,*,#108,.F.);
#43=ORIENTED_EDGE('',*,*,#109,.T.);
#44=ORIENTED_EDGE('',*,*,#110,.T.);
#45=ORIENTED_EDGE('',*,*,#109,.F.);
#46=ORIENTED_EDGE('',*,*,#111,.F.);
#47=ORIENTED_EDGE('',*,*,#112,.T.);
#48=ORIENTED_EDGE('',*,*,#113,.T.);
#49=ORIENTED_EDGE('',*,*,#112,.F.);
#50=ORIENTED_EDGE('',*,*,#114,.F.);
#51=ORIENTED_EDGE('',*,*,#115,.T.);
#52=ORIENTED_EDGE('',*,*,#116,.T.);
#53=ORIENTED_EDGE('',*,*,#115,.F.);
#54=ORIENTED_EDGE('',*,*,#117,.F.);
#55=ORIENTED_EDGE('',*,*,#107,.T.);
#56=ORIENTED_EDGE('',*,*,#118,.F.);
#57=ORIENTED_EDGE('',*,*,#105,.F.);
#58=ORIENTED_EDGE('',*,*,#119,.T.);
#59=ORIENTED_EDGE('',*,*,#85,.T.);
#60=ORIENTED_EDGE('',*,*,#108,.T.);
#61=ORIENTED_EDGE('',*,*,#117,.T.);
#62=ORIENTED_EDGE('',*,*,#114,.T.);
#63=ORIENTED_EDGE('',*,*,#111,.T.);
#64=ORIENTED_EDGE('',*,*,#86,.F.);
#65=ORIENTED_EDGE('',*,*,#119,.F.);
#66=ORIENTED_EDGE('',*,*,#104,.F.);
#67=ORIENTED_EDGE('',*,*,#101,.F.);
#68=ORIENTED_EDGE('',*,*,#98,.F.);
#69=ORIENTED_EDGE('',*,*,#95,.F.);
#70=ORIENTED_EDGE('',*,*,#92,.F.);
#71=ORIENTED_EDGE('',*,*,#89,.F.);
#72=ORIENTED_EDGE('',*,*,#106,.F.);
#73=ORIENTED_EDGE('',*,*,#110,.F.);
#74=ORIENTED_EDGE('',*,*,#113,.F.);
#75=ORIENTED_EDGE('',*,*,#116,.F.);
#76=ORIENTED_EDGE('',*,*,#84,.T.);
#77=ORIENTED_EDGE('',*,*,#88,.T.);
#78=ORIENTED_EDGE('',*,*,#91,.T.);
#79=ORIENTED_EDGE('',*,*,#94,.T.);
#80=ORIENTED_EDGE('',*,*,#97,.T.);
#81=ORIENTED_EDGE('',*,*,#100,.T.);
#82=ORIENTED_EDGE('',*,*,#103,.T.);
#83=ORIENTED_EDGE('',*,*,#118,.T.);
#84=EDGE_CURVE('',#120,#121,#144,.T.);
#85=EDGE_CURVE('',#122,#120,#145,.T.);
#86=EDGE_CURVE('',#122,#123,#146,.T.);
#87=EDGE_CURVE('',#123,#121,#147,.T.);
#88=EDGE_CURVE('',#121,#124,#148,.T.);
#89=EDGE_CURVE('',#123,#125,#149,.T.);
#90=EDGE_CURVE('',#125,#124,#150,.T.);
#91=EDGE_CURVE('',#124,#126,#151,.T.);
#92=EDGE_CURVE('',#125,#127,#152,.T.);
#93=EDGE_CURVE('',#127,#126,#153,.T.);
#94=EDGE_CURVE('',#126,#128,#154,.T.);
#95=EDGE_CURVE('',#127,#129,#155,.T.);
#96=EDGE_CURVE('',#129,#128,#156,.T.);
#97=EDGE_CURVE('',#128,#130,#157,.T.);
#98=EDGE_CURVE('',#129,#131,#158,.T.);
#99=EDGE_CURVE('',#131,#130,#159,.T.);
#100=EDGE_CURVE('',#130,#132,#160,.T.);
#101=EDGE_CURVE('',#131,#133,#161,.T.);
#102=EDGE_CURVE('',#133,#132,#162,.T.);
#103=EDGE_CURVE('',#132,#134,#163,.T.);
#104=EDGE_CURVE('',#133,#135,#164,.T.);
#105=EDGE_CURVE('',#135,#134,#165,.T.);
#106=EDGE_CURVE('',#136,#137,#166,.T.);
#107=EDGE_CURVE('',#138,#137,#167,.T.);
#108=EDGE_CURVE('',#139,#138,#168,.T.);
#109=EDGE_CURVE('',#139,#136,#169,.T.);
#110=EDGE_CURVE('',#140,#136,#170,.T.);
#111=EDGE_CURVE('',#141,#139,#171,.T.);
#112=EDGE_CURVE('',#141,#140,#172,.T.);
#113=EDGE_CURVE('',#142,#140,#173,.T.);
#114=EDGE_CURVE('',#143,#141,#174,.T.);
#115=EDGE_CURVE('',#143,#142,#175,.T.);
#116=EDGE_CURVE('',#137,#142,#176,.T.);
#117=EDGE_CURVE('',#138,#143,#177,.T.);
#118=EDGE_CURVE('',#134,#120,#178,.T.);
#119=EDGE_CURVE('',#135,#122,#179,.T.);
#120=VERTEX_POINT('',#372);
#121=VERTEX_POINT('',#373);
#122=VERTEX_POINT('',#375);
#123=VERTEX_POINT('',#377);
#124=VERTEX_POINT('',#381);
#125=VERTEX_POINT('',#383);
#126=VERTEX_POINT('',#387);
#127=VERTEX_POINT('',#389);
#128=VERTEX_POINT('',#393);
#129=VERTEX_POINT('',#395);
#130=VERTEX_POINT('',#399);
#131=VERTEX_POINT('',#401);
#132=VERTEX_POINT('',#405);
#133=VERTEX_POINT('',#407);
#134=VERTEX_POINT('',#411);
#135=VERTEX_POINT('',#413);
#136=VERTEX_POINT('',#417);
#137=VERTEX_POINT('',#418);
#138=VERTEX_POINT('',#420);
#139=VERTEX_POINT('',#422);
#140=VERTEX_POINT('',#426);
#141=VERTEX_POINT('',#428);
#142=VERTEX_POINT('',#432);
#143=VERTEX_POINT('',#434);
#144=LINE('',#371,#180);
#145=LINE('',#374,#181);
#146=LINE('',#376,#182);
#147=LINE('',#378,#183);
#148=LINE('',#380,#184);
#149=LINE('',#382,#185);
#150=LINE('',#384,#186);
#151=LINE('',#386,#187);
#152=LINE('',#388,#188);
#153=LINE('',#390,#189);
#154=LINE('',#392,#190);
#155=LINE('',#394,#191);
#156=LINE('',#396,#192);
#157=LINE('',#398,#193);
#158=LINE('',#400,#194);
#159=LINE('',#402,#195);
#160=LINE('',#404,#196);
#161=LINE('',#406,#197);
#162=LINE('',#408,#198);
#163=LINE('',#410,#199);
#164=LINE('',#412,#200);
#165=LINE('',#414,#201);
#166=LINE('',#416,#202);
#167=LINE('',#419,#203);
#168=LINE('',#421,#204);
#169=LINE('',#423,#205);
#170=LINE('',#425,#206);
#171=LINE('',#427,#207);
#172=LINE('',#429,#208);
#173=LINE('',#431,#209);
#174=LINE('',#433,#210);
#175=LINE('',#435,#211);
#176=LINE('',#437,#212);
#177=LINE('',#438,#213);
#178=LINE('',#440,#214);
#179=LINE('',#441,#215);
#180=VECTOR('',#307,1.);
#181=VECTOR('',#308,1.);
#182=VECTOR('',#309,1.);
#183=VECTOR('',#310,1.);
#184=VECTOR('',#313,1.);
#185=VECTOR('',#314,1.);
#186=VECTOR('',#315,1.);
#187=VECTOR('',#318,1.);
#188=VECTOR('',#319,1.);
#189=VECTOR('',#320,1.);
#190=VECTOR('',#323,1.);
#191=VECTOR('',#324,1.);
#192=VECTOR('',#325,1.);
#193=VECTOR('',#328,1.);
#194=VECTOR('',#329,1.);
#195=VECTOR('',#330,1.);
#196=VECTOR('',#333,1.);
#197=VECTOR('',#334,1.);
#198=VECTOR('',#335,1.);
#199=VECTOR('',#338,1.);
#200=VECTOR('',#339,1.);
#201=VECTOR('',#340,1.);
#202=VECTOR('',#343,1.);
#203=VECTOR('',#344,1.);
#204=VECTOR('',#345,1.);
#205=VECTOR('',#346,1.);
#206=VECTOR('',#349,1.);
#207=VECTOR('',#350,1.);
#208=VECTOR('',#351,1.);
#209=VECTOR('',#354,1.);
#210=VECTOR('',#355,1.);
#211=VECTOR('',#356,1.);
#212=VECTOR('',#359,1.);
#213=VECTOR('',#360,1.);
#214=VECTOR('',#363,1.);
#215=VECTOR('',#364,1.);
#216=EDGE_LOOP('',(#12,#13,#14,#15));
#217=EDGE_LOOP('',(#16,#17,#18,#19));
#218=EDGE_LOOP('',(#20,#21,#22,#23));
#219=EDGE_LOOP('',(#24,#25,#26,#27));
#220=EDGE_LOOP('',(#28,#29,#30,#31));
#221=EDGE_LOOP('',(#32,#33,#34,#35));
#222=EDGE_LOOP('',(#36,#37,#38,#39));
#223=EDGE_LOOP('',(#40,#41,#42,#43));
#224=EDGE_LOOP('',(#44,#45,#46,#47));
#225=EDGE_LOOP('',(#48,#49,#50,#51));
#226=EDGE_LOOP('',(#52,#53,#54,#55));
#227=EDGE_LOOP('',(#56,#57,#58,#59));
#228=EDGE_LOOP('',(#60,#61,#62,#63));
#229=EDGE_LOOP('',(#64,#65,#66,#67,#68,#69,#70,#71));
#230=EDGE_LOOP('',(#72,#73,#74,#75));
#231=EDGE_LOOP('',(#76,#77,#78,#79,#80,#81,#82,#83));
#232=FACE_BOUND('',#216,.T.);
#233=FACE_BOUND('',#217,.T.);
#234=FACE_BOUND('',#218,.T.);
#235=FACE_BOUND('',#219,.T.);
#236=FACE_BOUND('',#220,.T.);
#237=FACE_BOUND('',#221,.T.);
#238=FACE_BOUND('',#222,.T.);
#239=FACE_BOUND('',#223,.T.);
#240=FACE_BOUND('',#224,.T.);
#241=FACE_BOUND('',#225,.T.);
#242=FACE_BOUND('',#226,.T.);
#243=FACE_BOUND('',#227,.T.);
#244=FACE_BOUND('',#228,.T.);
#245=FACE_BOUND('',#229,.T.);
#246=FACE_BOUND('',#230,.T.);
#247=FACE_BOUND('',#231,.T.);
#248=PLANE('',#289);
#249=PLANE('',#290);
#250=PLANE('',#291);
#251=PLANE('',#292);
#252=PLANE('',#293);
#253=PLANE('',#294);
#254=PLANE('',#295);
#255=PLANE('',#296);
#256=PLANE('',#297);
#257=PLANE('',#298);
#258=PLANE('',#299);
#259=PLANE('',#300);
#260=PLANE('',#301);
#261=PLANE('',#302);
#262=ADVANCED_FACE('',(#232),#248,.T.);
#263=ADVANCED_FACE('',(#233),#249,.T.);
#264=ADVANCED_FACE('',(#234),#250,.T.);
#265=ADVANCED_FACE('',(#235),#251,.T.);
#266=ADVANCED_FACE('',(#236),#252,.T.);
#267=ADVANCED_FACE('',(#237),#253,.T.);
#268=ADVANCED_FACE('',(#238),#254,.T.);
#269=ADVANCED_FACE('',(#239),#255,.F.);
#270=ADVANCED_FACE('',(#240),#256,.F.);
#271=ADVANCED_FACE('',(#241),#257,.F.);
#272=ADVANCED_FACE('',(#242),#258,.F.);
#273=ADVANCED_FACE('',(#243),#259,.T.);
#274=ADVANCED_FACE('',(#244,#245),#260,.F.);
#275=ADVANCED_FACE('',(#246,#247),#261,.T.);
#276=CLOSED_SHELL('',(#262,#263,#264,#265,#266,#267,#268,#269,#270,#271,
#272,#273,#274,#275));
#277=STYLED_ITEM('',(#278),#285);
#278=PRESENTATION_STYLE_ASSIGNMENT((#279));
#279=SURFACE_STYLE_USAGE(.BOTH.,#280);
#280=SURFACE_SIDE_STYLE('',(#281));
#281=SURFACE_STYLE_FILL_AREA(#282);
#282=FILL_AREA_STYLE('',(#283));
#283=FILL_AREA_STYLE_COLOUR('',#284);
#284=COLOUR_RGB('',0.149019607843137,0.145098039215686,0.145098039215686);
#285=MANIFOLD_SOLID_BREP('Part 11',#276);
#286=SHAPE_DEFINITION_REPRESENTATION(#450,#287);
#287=SHAPE_REPRESENTATION('Part 11',(#288),#445);
#288=AXIS2_PLACEMENT_3D('',#369,#303,#304);
#289=AXIS2_PLACEMENT_3D('',#370,#305,#306);
#290=AXIS2_PLACEMENT_3D('',#379,#311,#312);
#291=AXIS2_PLACEMENT_3D('',#385,#316,#317);
#292=AXIS2_PLACEMENT_3D('',#391,#321,#322);
#293=AXIS2_PLACEMENT_3D('',#397,#326,#327);
#294=AXIS2_PLACEMENT_3D('',#403,#331,#332);
#295=AXIS2_PLACEMENT_3D('',#409,#336,#337);
#296=AXIS2_PLACEMENT_3D('',#415,#341,#342);
#297=AXIS2_PLACEMENT_3D('',#424,#347,#348);
#298=AXIS2_PLACEMENT_3D('',#430,#352,#353);
#299=AXIS2_PLACEMENT_3D('',#436,#357,#358);
#300=AXIS2_PLACEMENT_3D('',#439,#361,#362);
#301=AXIS2_PLACEMENT_3D('',#442,#365,#366);
#302=AXIS2_PLACEMENT_3D('',#443,#367,#368);
#303=DIRECTION('',(0.,0.,1.));
#304=DIRECTION('',(1.,0.,0.));
#305=DIRECTION('',(0.958242394220142,0.285957188962352,0.));
#306=DIRECTION('',(-0.285957188962352,0.958242394220142,0.));
#307=DIRECTION('',(-0.285957188962352,0.958242394220142,0.));
#308=DIRECTION('',(0.,0.,1.));
#309=DIRECTION('',(-0.285957188962352,0.958242394220142,0.));
#310=DIRECTION('',(0.,0.,1.));
#311=DIRECTION('',(0.,1.,0.));
#312=DIRECTION('',(0.,0.,1.));
#313=DIRECTION('',(-1.,0.,0.));
#314=DIRECTION('',(-1.,0.,0.));
#315=DIRECTION('',(0.,0.,1.));
#316=DIRECTION('',(-0.958242394220142,0.285957188962352,0.));
#317=DIRECTION('',(-0.285957188962352,-0.958242394220142,0.));
#318=DIRECTION('',(-0.285957188962352,-0.958242394220142,0.));
#319=DIRECTION('',(-0.285957188962352,-0.958242394220142,0.));
#320=DIRECTION('',(0.,0.,1.));
#321=DIRECTION('',(0.,-1.,0.));
#322=DIRECTION('',(0.,0.,-1.));
#323=DIRECTION('',(1.,0.,0.));
#324=DIRECTION('',(1.,0.,0.));
#325=DIRECTION('',(0.,0.,1.));
#326=DIRECTION('',(0.958242394220142,-0.285957188962352,0.));
#327=DIRECTION('',(0.285957188962352,0.958242394220142,0.));
#328=DIRECTION('',(0.285957188962352,0.958242394220142,0.));
#329=DIRECTION('',(0.285957188962352,0.958242394220142,0.));
#330=DIRECTION('',(0.,0.,1.));
#331=DIRECTION('',(0.,-1.,0.));
#332=DIRECTION('',(0.,0.,-1.));
#333=DIRECTION('',(1.,0.,0.));
#334=DIRECTION('',(1.,0.,0.));
#335=DIRECTION('',(0.,0.,1.));
#336=DIRECTION('',(-0.958242394220142,-0.285957188962352,0.));
#337=DIRECTION('',(0.285957188962352,-0.958242394220142,0.));
#338=DIRECTION('',(0.285957188962352,-0.958242394220142,0.));
#339=DIRECTION('',(0.285957188962352,-0.958242394220142,0.));
#340=DIRECTION('',(0.,0.,1.));
#341=DIRECTION('',(0.,-1.,0.));
#342=DIRECTION('',(0.,0.,-1.));
#343=DIRECTION('',(1.,0.,0.));
#344=DIRECTION('',(0.,0.,1.));
#345=DIRECTION('',(1.,0.,0.));
#346=DIRECTION('',(0.,0.,1.));
#347=DIRECTION('',(-0.958242394220142,0.285957188962352,0.));
#348=DIRECTION('',(-0.285957188962352,-0.958242394220142,0.));
#349=DIRECTION('',(-0.285957188962352,-0.958242394220142,0.));
#350=DIRECTION('',(-0.285957188962352,-0.958242394220142,0.));
#351=DIRECTION('',(0.,0.,1.));
#352=DIRECTION('',(0.,1.,0.));
#353=DIRECTION('',(0.,0.,1.));
#354=DIRECTION('',(-1.,0.,0.));
#355=DIRECTION('',(-1.,0.,0.));
#356=DIRECTION('',(0.,0.,1.));
#357=DIRECTION('',(0.958242394220142,0.285957188962352,0.));
#358=DIRECTION('',(-0.285957188962352,0.958242394220142,0.));
#359=DIRECTION('',(-0.285957188962352,0.958242394220142,0.));
#360=DIRECTION('',(-0.285957188962352,0.958242394220142,0.));
#361=DIRECTION('',(0.,-1.,0.));
#362=DIRECTION('',(0.,0.,-1.));
#363=DIRECTION('',(1.,0.,0.));
#364=DIRECTION('',(1.,0.,0.));
#365=DIRECTION('',(0.,0.,1.));
#366=DIRECTION('',(1.,0.,0.));
#367=DIRECTION('',(0.,0.,1.));
#368=DIRECTION('',(1.,0.,0.));
#369=CARTESIAN_POINT('',(0.,0.,0.));
#370=CARTESIAN_POINT('',(0.00186455924040932,-2.16840434497101E-19,0.0042));
#371=CARTESIAN_POINT('',(0.00186455924040932,-2.16840434497101E-19,0.005));
#372=CARTESIAN_POINT('',(0.00259617690766385,-0.00245165042944956,0.005));
#373=CARTESIAN_POINT('',(0.00113294157315479,0.00245165042944956,0.005));
#374=CARTESIAN_POINT('',(0.00259617690766385,-0.00245165042944956,0.0042));
#375=CARTESIAN_POINT('',(0.00259617690766385,-0.00245165042944956,0.0042));
#376=CARTESIAN_POINT('',(0.00186455924040932,-2.16840434497101E-19,0.0042));
#377=CARTESIAN_POINT('',(0.00113294157315479,0.00245165042944956,0.0042));
#378=CARTESIAN_POINT('',(0.00113294157315479,0.00245165042944956,0.0042));
#379=CARTESIAN_POINT('',(0.,0.00245165042944956,0.0042));
#380=CARTESIAN_POINT('',(0.,0.00245165042944956,0.005));
#381=CARTESIAN_POINT('',(-0.00113294157315479,0.00245165042944956,0.005));
#382=CARTESIAN_POINT('',(0.,0.00245165042944956,0.0042));
#383=CARTESIAN_POINT('',(-0.00113294157315479,0.00245165042944956,0.0042));
#384=CARTESIAN_POINT('',(-0.00113294157315479,0.00245165042944956,0.0042));
#385=CARTESIAN_POINT('',(-0.00186455924040932,4.33680868994202E-19,0.0042));
#386=CARTESIAN_POINT('',(-0.00186455924040932,4.33680868994202E-19,0.005));
#387=CARTESIAN_POINT('',(-0.00259617690766385,-0.00245165042944956,0.005));
#388=CARTESIAN_POINT('',(-0.00186455924040932,4.33680868994202E-19,0.0042));
#389=CARTESIAN_POINT('',(-0.00259617690766385,-0.00245165042944956,0.0042));
#390=CARTESIAN_POINT('',(-0.00259617690766385,-0.00245165042944956,0.0042));
#391=CARTESIAN_POINT('',(-0.00206697364650706,-0.00245165042944956,0.0042));
#392=CARTESIAN_POINT('',(-0.00206697364650706,-0.00245165042944956,0.005));
#393=CARTESIAN_POINT('',(-0.00153777038535025,-0.00245165042944956,0.005));
#394=CARTESIAN_POINT('',(-0.00206697364650706,-0.00245165042944956,0.0042));
#395=CARTESIAN_POINT('',(-0.00153777038535025,-0.00245165042944956,0.0042));
#396=CARTESIAN_POINT('',(-0.00153777038535025,-0.00245165042944956,0.0042));
#397=CARTESIAN_POINT('',(-0.00138464326623438,-0.00193852153146985,0.0042));
#398=CARTESIAN_POINT('',(-0.00138464326623438,-0.00193852153146985,0.005));
#399=CARTESIAN_POINT('',(-0.00123151614711851,-0.00142539263349014,0.005));
#400=CARTESIAN_POINT('',(-0.00138464326623438,-0.00193852153146985,0.0042));
#401=CARTESIAN_POINT('',(-0.00123151614711851,-0.00142539263349014,0.0042));
#402=CARTESIAN_POINT('',(-0.00123151614711851,-0.00142539263349014,0.0042));
#403=CARTESIAN_POINT('',(-2.16840434497101E-19,-0.00142539263349014,0.0042));
#404=CARTESIAN_POINT('',(-2.16840434497101E-19,-0.00142539263349014,0.005));
#405=CARTESIAN_POINT('',(0.00123151614711851,-0.00142539263349014,0.005));
#406=CARTESIAN_POINT('',(-2.16840434497101E-19,-0.00142539263349014,0.0042));
#407=CARTESIAN_POINT('',(0.00123151614711851,-0.00142539263349014,0.0042));
#408=CARTESIAN_POINT('',(0.00123151614711851,-0.00142539263349014,0.0042));
#409=CARTESIAN_POINT('',(0.00138464326623438,-0.00193852153146985,0.0042));
#410=CARTESIAN_POINT('',(0.00138464326623438,-0.00193852153146985,0.005));
#411=CARTESIAN_POINT('',(0.00153777038535025,-0.00245165042944956,0.005));
#412=CARTESIAN_POINT('',(0.00138464326623438,-0.00193852153146985,0.0042));
#413=CARTESIAN_POINT('',(0.00153777038535025,-0.00245165042944956,0.0042));
#414=CARTESIAN_POINT('',(0.00153777038535025,-0.00245165042944956,0.0042));
#415=CARTESIAN_POINT('',(0.,-0.000411182633490141,0.0042));
#416=CARTESIAN_POINT('',(0.,-0.000411182633490141,0.005));
#417=CARTESIAN_POINT('',(-0.000928857193218292,-0.000411182633490142,0.005));
#418=CARTESIAN_POINT('',(0.000928857193218292,-0.000411182633490141,0.005));
#419=CARTESIAN_POINT('',(0.000928857193218292,-0.000411182633490141,0.0042));
#420=CARTESIAN_POINT('',(0.000928857193218292,-0.000411182633490141,0.0042));
#421=CARTESIAN_POINT('',(0.,-0.000411182633490141,0.0042));
#422=CARTESIAN_POINT('',(-0.000928857193218292,-0.000411182633490142,0.0042));
#423=CARTESIAN_POINT('',(-0.000928857193218292,-0.000411182633490142,0.0042));
#424=CARTESIAN_POINT('',(-0.000653025598979849,0.000513128897979706,0.0042));
#425=CARTESIAN_POINT('',(-0.000653025598979849,0.000513128897979706,0.005));
#426=CARTESIAN_POINT('',(-0.000377194004741407,0.00143744042944955,0.005));
#427=CARTESIAN_POINT('',(-0.000653025598979849,0.000513128897979706,0.0042));
#428=CARTESIAN_POINT('',(-0.000377194004741407,0.00143744042944955,0.0042));
#429=CARTESIAN_POINT('',(-0.000377194004741407,0.00143744042944955,0.0042));
#430=CARTESIAN_POINT('',(0.,0.00143744042944955,0.0042));
#431=CARTESIAN_POINT('',(0.,0.00143744042944955,0.005));
#432=CARTESIAN_POINT('',(0.000377194004741407,0.00143744042944955,0.005));
#433=CARTESIAN_POINT('',(0.,0.00143744042944955,0.0042));
#434=CARTESIAN_POINT('',(0.000377194004741407,0.00143744042944955,0.0042));
#435=CARTESIAN_POINT('',(0.000377194004741407,0.00143744042944955,0.0042));
#436=CARTESIAN_POINT('',(0.000653025598979849,0.000513128897979707,0.0042));
#437=CARTESIAN_POINT('',(0.000653025598979849,0.000513128897979707,0.005));
#438=CARTESIAN_POINT('',(0.000653025598979849,0.000513128897979707,0.0042));
#439=CARTESIAN_POINT('',(0.00206697364650706,-0.00245165042944956,0.0042));
#440=CARTESIAN_POINT('',(0.00206697364650706,-0.00245165042944956,0.005));
#441=CARTESIAN_POINT('',(0.00206697364650706,-0.00245165042944956,0.0042));
#442=CARTESIAN_POINT('',(0.0121249629810509,-0.0297008252147247,0.0042));
#443=CARTESIAN_POINT('',(0.0121249629810509,-0.0297008252147247,0.005));
#444=MECHANICAL_DESIGN_GEOMETRIC_PRESENTATION_REPRESENTATION('',(#277),
#445);
#445=(
GEOMETRIC_REPRESENTATION_CONTEXT(3)
GLOBAL_UNCERTAINTY_ASSIGNED_CONTEXT((#446))
GLOBAL_UNIT_ASSIGNED_CONTEXT((#449,#448,#447))
REPRESENTATION_CONTEXT('Part 11','TOP_LEVEL_ASSEMBLY_PART')
);
#446=UNCERTAINTY_MEASURE_WITH_UNIT(LENGTH_MEASURE(1.E-8),#449,
'DISTANCE_ACCURACY_VALUE','Maximum Tolerance applied to model');
#447=(
NAMED_UNIT(*)
SI_UNIT($,.STERADIAN.)
SOLID_ANGLE_UNIT()
);
#448=(
NAMED_UNIT(*)
PLANE_ANGLE_UNIT()
SI_UNIT($,.RADIAN.)
);
#449=(
LENGTH_UNIT()
NAMED_UNIT(*)
SI_UNIT($,.METRE.)
);
#450=PRODUCT_DEFINITION_SHAPE('','',#451);
#451=PRODUCT_DEFINITION('','',#453,#452);
#452=PRODUCT_DEFINITION_CONTEXT('',#459,'design');
#453=PRODUCT_DEFINITION_FORMATION_WITH_SPECIFIED_SOURCE('','',#455,
 .NOT_KNOWN.);
#454=PRODUCT_RELATED_PRODUCT_CATEGORY('','',(#455));
#455=PRODUCT('Part 11','Part 11','Part 11',(#457));
#456=PRODUCT_CATEGORY('','');
#457=PRODUCT_CONTEXT('',#459,'mechanical');
#458=APPLICATION_PROTOCOL_DEFINITION('international standard',
'ap242_managed_model_based_3d_engineering',2020,#459);
#459=APPLICATION_CONTEXT('managed model based 3d engineering');
ENDSEC;
END-ISO-10303-21;
