ISO-10303-21;
HEADER;
/* Generated by software containing ST-Developer
 * from STEP Tools, Inc. (www.steptools.com) 
 */
/* OPTION: using custom renumber hook */

FILE_DESCRIPTION(
/* description */ ('STEP AP242 Edition 2',
'CAx-IF Rec.Pracs.---Representation and Presentation of Product Manufa
cturing Information (PMI)---4.0---2014-10-13',
'CAx-IF Rec.Pracs.---3D Tessellated Geometry---0.4---2014-09-14','2;1',
'CAx-IF Rec.Pracs.---User Defined Attributes---1.5---2016-08-15'),
/* implementation_level */ '2;1');

FILE_NAME(
/* name */ 'CompleteShell - ValinorStar3',
/* time_stamp */ '2026-09-23T14:41:02Z',
/* author */ (''),
/* organization */ (''),
/* preprocessor_version */ 'ST-DEVELOPER v20',
/* originating_system */ 'ONSHAPE BY PTC INC, 1.221',
/* authorisation */ '  ');

FILE_SCHEMA (('AP242_MANAGED_MODEL_BASED_3D_ENGINEERING_MIM_LF { 1 0 10303 442 3 1 4 }'));
ENDSEC;

DATA;
#10=SHAPE_REPRESENTATION_RELATIONSHIP('','',#715,#11);
#11=ADVANCED_BREP_SHAPE_REPRESENTATION('',(#713),#1305);
#12=PLANE('',#825);
#13=PLANE('',#826);
#14=LINE('',#1090,#50);
#15=LINE('',#1094,#51);
#16=LINE('',#1100,#52);
#17=LINE('',#1106,#53);
#18=LINE('',#1112,#54);
#19=LINE('',#1118,#55);
#20=LINE('',#1124,#56);
#21=LINE('',#1130,#57);
#22=LINE('',#1136,#58);
#23=LINE('',#1142,#59);
#24=LINE('',#1148,#60);
#25=LINE('',#1154,#61);
#26=LINE('',#1160,#62);
#27=LINE('',#1166,#63);
#28=LINE('',#1172,#64);
#29=LINE('',#1178,#65);
#30=LINE('',#1184,#66);
#31=LINE('',#1190,#67);
#32=LINE('',#1196,#68);
#33=LINE('',#1202,#69);
#34=LINE('',#1208,#70);
#35=LINE('',#1214,#71);
#36=LINE('',#1220,#72);
#37=LINE('',#1226,#73);
#38=LINE('',#1232,#74);
#39=LINE('',#1238,#75);
#40=LINE('',#1244,#76);
#41=LINE('',#1250,#77);
#42=LINE('',#1256,#78);
#43=LINE('',#1262,#79);
#44=LINE('',#1268,#80);
#45=LINE('',#1274,#81);
#46=LINE('',#1280,#82);
#47=LINE('',#1286,#83);
#48=LINE('',#1292,#84);
#49=LINE('',#1298,#85);
#50=VECTOR('',#833,1.);
#51=VECTOR('',#836,1.);
#52=VECTOR('',#843,1.);
#53=VECTOR('',#850,1.);
#54=VECTOR('',#857,1.);
#55=VECTOR('',#864,1.);
#56=VECTOR('',#871,1.);
#57=VECTOR('',#878,1.);
#58=VECTOR('',#885,1.);
#59=VECTOR('',#892,1.);
#60=VECTOR('',#899,1.);
#61=VECTOR('',#906,1.);
#62=VECTOR('',#913,1.);
#63=VECTOR('',#920,1.);
#64=VECTOR('',#927,1.);
#65=VECTOR('',#934,1.);
#66=VECTOR('',#941,1.);
#67=VECTOR('',#948,1.);
#68=VECTOR('',#955,1.);
#69=VECTOR('',#962,1.);
#70=VECTOR('',#969,1.);
#71=VECTOR('',#976,1.);
#72=VECTOR('',#983,1.);
#73=VECTOR('',#990,1.);
#74=VECTOR('',#997,1.);
#75=VECTOR('',#1004,1.);
#76=VECTOR('',#1011,1.);
#77=VECTOR('',#1018,1.);
#78=VECTOR('',#1025,1.);
#79=VECTOR('',#1032,1.);
#80=VECTOR('',#1039,1.);
#81=VECTOR('',#1046,1.);
#82=VECTOR('',#1053,1.);
#83=VECTOR('',#1060,1.);
#84=VECTOR('',#1067,1.);
#85=VECTOR('',#1074,1.);
#86=ORIENTED_EDGE('',*,*,#302,.F.);
#87=ORIENTED_EDGE('',*,*,#303,.F.);
#88=ORIENTED_EDGE('',*,*,#304,.T.);
#89=ORIENTED_EDGE('',*,*,#305,.T.);
#90=ORIENTED_EDGE('',*,*,#306,.F.);
#91=ORIENTED_EDGE('',*,*,#305,.F.);
#92=ORIENTED_EDGE('',*,*,#307,.T.);
#93=ORIENTED_EDGE('',*,*,#308,.T.);
#94=ORIENTED_EDGE('',*,*,#309,.F.);
#95=ORIENTED_EDGE('',*,*,#308,.F.);
#96=ORIENTED_EDGE('',*,*,#310,.T.);
#97=ORIENTED_EDGE('',*,*,#311,.T.);
#98=ORIENTED_EDGE('',*,*,#312,.F.);
#99=ORIENTED_EDGE('',*,*,#311,.F.);
#100=ORIENTED_EDGE('',*,*,#313,.T.);
#101=ORIENTED_EDGE('',*,*,#314,.T.);
#102=ORIENTED_EDGE('',*,*,#315,.F.);
#103=ORIENTED_EDGE('',*,*,#314,.F.);
#104=ORIENTED_EDGE('',*,*,#316,.T.);
#105=ORIENTED_EDGE('',*,*,#317,.T.);
#106=ORIENTED_EDGE('',*,*,#318,.F.);
#107=ORIENTED_EDGE('',*,*,#317,.F.);
#108=ORIENTED_EDGE('',*,*,#319,.T.);
#109=ORIENTED_EDGE('',*,*,#320,.T.);
#110=ORIENTED_EDGE('',*,*,#321,.F.);
#111=ORIENTED_EDGE('',*,*,#320,.F.);
#112=ORIENTED_EDGE('',*,*,#322,.T.);
#113=ORIENTED_EDGE('',*,*,#323,.T.);
#114=ORIENTED_EDGE('',*,*,#324,.F.);
#115=ORIENTED_EDGE('',*,*,#323,.F.);
#116=ORIENTED_EDGE('',*,*,#325,.T.);
#117=ORIENTED_EDGE('',*,*,#326,.T.);
#118=ORIENTED_EDGE('',*,*,#327,.F.);
#119=ORIENTED_EDGE('',*,*,#326,.F.);
#120=ORIENTED_EDGE('',*,*,#328,.T.);
#121=ORIENTED_EDGE('',*,*,#329,.T.);
#122=ORIENTED_EDGE('',*,*,#330,.F.);
#123=ORIENTED_EDGE('',*,*,#329,.F.);
#124=ORIENTED_EDGE('',*,*,#331,.T.);
#125=ORIENTED_EDGE('',*,*,#332,.T.);
#126=ORIENTED_EDGE('',*,*,#333,.F.);
#127=ORIENTED_EDGE('',*,*,#332,.F.);
#128=ORIENTED_EDGE('',*,*,#334,.T.);
#129=ORIENTED_EDGE('',*,*,#335,.T.);
#130=ORIENTED_EDGE('',*,*,#336,.F.);
#131=ORIENTED_EDGE('',*,*,#335,.F.);
#132=ORIENTED_EDGE('',*,*,#337,.T.);
#133=ORIENTED_EDGE('',*,*,#338,.T.);
#134=ORIENTED_EDGE('',*,*,#339,.F.);
#135=ORIENTED_EDGE('',*,*,#338,.F.);
#136=ORIENTED_EDGE('',*,*,#340,.T.);
#137=ORIENTED_EDGE('',*,*,#341,.T.);
#138=ORIENTED_EDGE('',*,*,#342,.F.);
#139=ORIENTED_EDGE('',*,*,#341,.F.);
#140=ORIENTED_EDGE('',*,*,#343,.T.);
#141=ORIENTED_EDGE('',*,*,#344,.T.);
#142=ORIENTED_EDGE('',*,*,#345,.F.);
#143=ORIENTED_EDGE('',*,*,#344,.F.);
#144=ORIENTED_EDGE('',*,*,#346,.T.);
#145=ORIENTED_EDGE('',*,*,#347,.T.);
#146=ORIENTED_EDGE('',*,*,#348,.F.);
#147=ORIENTED_EDGE('',*,*,#347,.F.);
#148=ORIENTED_EDGE('',*,*,#349,.T.);
#149=ORIENTED_EDGE('',*,*,#350,.T.);
#150=ORIENTED_EDGE('',*,*,#351,.F.);
#151=ORIENTED_EDGE('',*,*,#350,.F.);
#152=ORIENTED_EDGE('',*,*,#352,.T.);
#153=ORIENTED_EDGE('',*,*,#353,.T.);
#154=ORIENTED_EDGE('',*,*,#354,.F.);
#155=ORIENTED_EDGE('',*,*,#353,.F.);
#156=ORIENTED_EDGE('',*,*,#355,.T.);
#157=ORIENTED_EDGE('',*,*,#356,.T.);
#158=ORIENTED_EDGE('',*,*,#357,.F.);
#159=ORIENTED_EDGE('',*,*,#356,.F.);
#160=ORIENTED_EDGE('',*,*,#358,.T.);
#161=ORIENTED_EDGE('',*,*,#359,.T.);
#162=ORIENTED_EDGE('',*,*,#360,.F.);
#163=ORIENTED_EDGE('',*,*,#359,.F.);
#164=ORIENTED_EDGE('',*,*,#361,.T.);
#165=ORIENTED_EDGE('',*,*,#362,.T.);
#166=ORIENTED_EDGE('',*,*,#363,.F.);
#167=ORIENTED_EDGE('',*,*,#362,.F.);
#168=ORIENTED_EDGE('',*,*,#364,.T.);
#169=ORIENTED_EDGE('',*,*,#365,.T.);
#170=ORIENTED_EDGE('',*,*,#366,.F.);
#171=ORIENTED_EDGE('',*,*,#365,.F.);
#172=ORIENTED_EDGE('',*,*,#367,.T.);
#173=ORIENTED_EDGE('',*,*,#368,.T.);
#174=ORIENTED_EDGE('',*,*,#369,.F.);
#175=ORIENTED_EDGE('',*,*,#368,.F.);
#176=ORIENTED_EDGE('',*,*,#370,.T.);
#177=ORIENTED_EDGE('',*,*,#371,.T.);
#178=ORIENTED_EDGE('',*,*,#372,.F.);
#179=ORIENTED_EDGE('',*,*,#371,.F.);
#180=ORIENTED_EDGE('',*,*,#373,.T.);
#181=ORIENTED_EDGE('',*,*,#374,.T.);
#182=ORIENTED_EDGE('',*,*,#375,.F.);
#183=ORIENTED_EDGE('',*,*,#374,.F.);
#184=ORIENTED_EDGE('',*,*,#376,.T.);
#185=ORIENTED_EDGE('',*,*,#377,.T.);
#186=ORIENTED_EDGE('',*,*,#378,.F.);
#187=ORIENTED_EDGE('',*,*,#377,.F.);
#188=ORIENTED_EDGE('',*,*,#379,.T.);
#189=ORIENTED_EDGE('',*,*,#380,.T.);
#190=ORIENTED_EDGE('',*,*,#381,.F.);
#191=ORIENTED_EDGE('',*,*,#380,.F.);
#192=ORIENTED_EDGE('',*,*,#382,.T.);
#193=ORIENTED_EDGE('',*,*,#383,.T.);
#194=ORIENTED_EDGE('',*,*,#384,.F.);
#195=ORIENTED_EDGE('',*,*,#383,.F.);
#196=ORIENTED_EDGE('',*,*,#385,.T.);
#197=ORIENTED_EDGE('',*,*,#386,.T.);
#198=ORIENTED_EDGE('',*,*,#387,.F.);
#199=ORIENTED_EDGE('',*,*,#386,.F.);
#200=ORIENTED_EDGE('',*,*,#388,.T.);
#201=ORIENTED_EDGE('',*,*,#389,.T.);
#202=ORIENTED_EDGE('',*,*,#390,.F.);
#203=ORIENTED_EDGE('',*,*,#389,.F.);
#204=ORIENTED_EDGE('',*,*,#391,.T.);
#205=ORIENTED_EDGE('',*,*,#392,.T.);
#206=ORIENTED_EDGE('',*,*,#393,.F.);
#207=ORIENTED_EDGE('',*,*,#392,.F.);
#208=ORIENTED_EDGE('',*,*,#394,.T.);
#209=ORIENTED_EDGE('',*,*,#395,.T.);
#210=ORIENTED_EDGE('',*,*,#396,.F.);
#211=ORIENTED_EDGE('',*,*,#395,.F.);
#212=ORIENTED_EDGE('',*,*,#397,.T.);
#213=ORIENTED_EDGE('',*,*,#398,.T.);
#214=ORIENTED_EDGE('',*,*,#399,.F.);
#215=ORIENTED_EDGE('',*,*,#398,.F.);
#216=ORIENTED_EDGE('',*,*,#400,.T.);
#217=ORIENTED_EDGE('',*,*,#401,.T.);
#218=ORIENTED_EDGE('',*,*,#402,.F.);
#219=ORIENTED_EDGE('',*,*,#401,.F.);
#220=ORIENTED_EDGE('',*,*,#403,.T.);
#221=ORIENTED_EDGE('',*,*,#404,.T.);
#222=ORIENTED_EDGE('',*,*,#405,.F.);
#223=ORIENTED_EDGE('',*,*,#404,.F.);
#224=ORIENTED_EDGE('',*,*,#406,.T.);
#225=ORIENTED_EDGE('',*,*,#407,.T.);
#226=ORIENTED_EDGE('',*,*,#408,.F.);
#227=ORIENTED_EDGE('',*,*,#407,.F.);
#228=ORIENTED_EDGE('',*,*,#409,.T.);
#229=ORIENTED_EDGE('',*,*,#303,.T.);
#230=ORIENTED_EDGE('',*,*,#304,.F.);
#231=ORIENTED_EDGE('',*,*,#409,.F.);
#232=ORIENTED_EDGE('',*,*,#406,.F.);
#233=ORIENTED_EDGE('',*,*,#403,.F.);
#234=ORIENTED_EDGE('',*,*,#400,.F.);
#235=ORIENTED_EDGE('',*,*,#397,.F.);
#236=ORIENTED_EDGE('',*,*,#394,.F.);
#237=ORIENTED_EDGE('',*,*,#391,.F.);
#238=ORIENTED_EDGE('',*,*,#388,.F.);
#239=ORIENTED_EDGE('',*,*,#385,.F.);
#240=ORIENTED_EDGE('',*,*,#382,.F.);
#241=ORIENTED_EDGE('',*,*,#379,.F.);
#242=ORIENTED_EDGE('',*,*,#376,.F.);
#243=ORIENTED_EDGE('',*,*,#373,.F.);
#244=ORIENTED_EDGE('',*,*,#370,.F.);
#245=ORIENTED_EDGE('',*,*,#367,.F.);
#246=ORIENTED_EDGE('',*,*,#364,.F.);
#247=ORIENTED_EDGE('',*,*,#361,.F.);
#248=ORIENTED_EDGE('',*,*,#358,.F.);
#249=ORIENTED_EDGE('',*,*,#355,.F.);
#250=ORIENTED_EDGE('',*,*,#352,.F.);
#251=ORIENTED_EDGE('',*,*,#349,.F.);
#252=ORIENTED_EDGE('',*,*,#346,.F.);
#253=ORIENTED_EDGE('',*,*,#343,.F.);
#254=ORIENTED_EDGE('',*,*,#340,.F.);
#255=ORIENTED_EDGE('',*,*,#337,.F.);
#256=ORIENTED_EDGE('',*,*,#334,.F.);
#257=ORIENTED_EDGE('',*,*,#331,.F.);
#258=ORIENTED_EDGE('',*,*,#328,.F.);
#259=ORIENTED_EDGE('',*,*,#325,.F.);
#260=ORIENTED_EDGE('',*,*,#322,.F.);
#261=ORIENTED_EDGE('',*,*,#319,.F.);
#262=ORIENTED_EDGE('',*,*,#316,.F.);
#263=ORIENTED_EDGE('',*,*,#313,.F.);
#264=ORIENTED_EDGE('',*,*,#310,.F.);
#265=ORIENTED_EDGE('',*,*,#307,.F.);
#266=ORIENTED_EDGE('',*,*,#302,.T.);
#267=ORIENTED_EDGE('',*,*,#306,.T.);
#268=ORIENTED_EDGE('',*,*,#309,.T.);
#269=ORIENTED_EDGE('',*,*,#312,.T.);
#270=ORIENTED_EDGE('',*,*,#315,.T.);
#271=ORIENTED_EDGE('',*,*,#318,.T.);
#272=ORIENTED_EDGE('',*,*,#321,.T.);
#273=ORIENTED_EDGE('',*,*,#324,.T.);
#274=ORIENTED_EDGE('',*,*,#327,.T.);
#275=ORIENTED_EDGE('',*,*,#330,.T.);
#276=ORIENTED_EDGE('',*,*,#333,.T.);
#277=ORIENTED_EDGE('',*,*,#336,.T.);
#278=ORIENTED_EDGE('',*,*,#339,.T.);
#279=ORIENTED_EDGE('',*,*,#342,.T.);
#280=ORIENTED_EDGE('',*,*,#345,.T.);
#281=ORIENTED_EDGE('',*,*,#348,.T.);
#282=ORIENTED_EDGE('',*,*,#351,.T.);
#283=ORIENTED_EDGE('',*,*,#354,.T.);
#284=ORIENTED_EDGE('',*,*,#357,.T.);
#285=ORIENTED_EDGE('',*,*,#360,.T.);
#286=ORIENTED_EDGE('',*,*,#363,.T.);
#287=ORIENTED_EDGE('',*,*,#366,.T.);
#288=ORIENTED_EDGE('',*,*,#369,.T.);
#289=ORIENTED_EDGE('',*,*,#372,.T.);
#290=ORIENTED_EDGE('',*,*,#375,.T.);
#291=ORIENTED_EDGE('',*,*,#378,.T.);
#292=ORIENTED_EDGE('',*,*,#381,.T.);
#293=ORIENTED_EDGE('',*,*,#384,.T.);
#294=ORIENTED_EDGE('',*,*,#387,.T.);
#295=ORIENTED_EDGE('',*,*,#390,.T.);
#296=ORIENTED_EDGE('',*,*,#393,.T.);
#297=ORIENTED_EDGE('',*,*,#396,.T.);
#298=ORIENTED_EDGE('',*,*,#399,.T.);
#299=ORIENTED_EDGE('',*,*,#402,.T.);
#300=ORIENTED_EDGE('',*,*,#405,.T.);
#301=ORIENTED_EDGE('',*,*,#408,.T.);
#302=EDGE_CURVE('',#410,#411,#482,.T.);
#303=EDGE_CURVE('',#412,#410,#14,.T.);
#304=EDGE_CURVE('',#412,#413,#483,.T.);
#305=EDGE_CURVE('',#413,#411,#15,.T.);
#306=EDGE_CURVE('',#411,#414,#484,.T.);
#307=EDGE_CURVE('',#413,#415,#485,.T.);
#308=EDGE_CURVE('',#415,#414,#16,.T.);
#309=EDGE_CURVE('',#414,#416,#486,.T.);
#310=EDGE_CURVE('',#415,#417,#487,.T.);
#311=EDGE_CURVE('',#417,#416,#17,.T.);
#312=EDGE_CURVE('',#416,#418,#488,.T.);
#313=EDGE_CURVE('',#417,#419,#489,.T.);
#314=EDGE_CURVE('',#419,#418,#18,.T.);
#315=EDGE_CURVE('',#418,#420,#490,.T.);
#316=EDGE_CURVE('',#419,#421,#491,.T.);
#317=EDGE_CURVE('',#421,#420,#19,.T.);
#318=EDGE_CURVE('',#420,#422,#492,.T.);
#319=EDGE_CURVE('',#421,#423,#493,.T.);
#320=EDGE_CURVE('',#423,#422,#20,.T.);
#321=EDGE_CURVE('',#422,#424,#494,.T.);
#322=EDGE_CURVE('',#423,#425,#495,.T.);
#323=EDGE_CURVE('',#425,#424,#21,.T.);
#324=EDGE_CURVE('',#424,#426,#496,.T.);
#325=EDGE_CURVE('',#425,#427,#497,.T.);
#326=EDGE_CURVE('',#427,#426,#22,.T.);
#327=EDGE_CURVE('',#426,#428,#498,.T.);
#328=EDGE_CURVE('',#427,#429,#499,.T.);
#329=EDGE_CURVE('',#429,#428,#23,.T.);
#330=EDGE_CURVE('',#428,#430,#500,.T.);
#331=EDGE_CURVE('',#429,#431,#501,.T.);
#332=EDGE_CURVE('',#431,#430,#24,.T.);
#333=EDGE_CURVE('',#430,#432,#502,.T.);
#334=EDGE_CURVE('',#431,#433,#503,.T.);
#335=EDGE_CURVE('',#433,#432,#25,.T.);
#336=EDGE_CURVE('',#432,#434,#504,.T.);
#337=EDGE_CURVE('',#433,#435,#505,.T.);
#338=EDGE_CURVE('',#435,#434,#26,.T.);
#339=EDGE_CURVE('',#434,#436,#506,.T.);
#340=EDGE_CURVE('',#435,#437,#507,.T.);
#341=EDGE_CURVE('',#437,#436,#27,.T.);
#342=EDGE_CURVE('',#436,#438,#508,.T.);
#343=EDGE_CURVE('',#437,#439,#509,.T.);
#344=EDGE_CURVE('',#439,#438,#28,.T.);
#345=EDGE_CURVE('',#438,#440,#510,.T.);
#346=EDGE_CURVE('',#439,#441,#511,.T.);
#347=EDGE_CURVE('',#441,#440,#29,.T.);
#348=EDGE_CURVE('',#440,#442,#512,.T.);
#349=EDGE_CURVE('',#441,#443,#513,.T.);
#350=EDGE_CURVE('',#443,#442,#30,.T.);
#351=EDGE_CURVE('',#442,#444,#514,.T.);
#352=EDGE_CURVE('',#443,#445,#515,.T.);
#353=EDGE_CURVE('',#445,#444,#31,.T.);
#354=EDGE_CURVE('',#444,#446,#516,.T.);
#355=EDGE_CURVE('',#445,#447,#517,.T.);
#356=EDGE_CURVE('',#447,#446,#32,.T.);
#357=EDGE_CURVE('',#446,#448,#518,.T.);
#358=EDGE_CURVE('',#447,#449,#519,.T.);
#359=EDGE_CURVE('',#449,#448,#33,.T.);
#360=EDGE_CURVE('',#448,#450,#520,.T.);
#361=EDGE_CURVE('',#449,#451,#521,.T.);
#362=EDGE_CURVE('',#451,#450,#34,.T.);
#363=EDGE_CURVE('',#450,#452,#522,.T.);
#364=EDGE_CURVE('',#451,#453,#523,.T.);
#365=EDGE_CURVE('',#453,#452,#35,.T.);
#366=EDGE_CURVE('',#452,#454,#524,.T.);
#367=EDGE_CURVE('',#453,#455,#525,.T.);
#368=EDGE_CURVE('',#455,#454,#36,.T.);
#369=EDGE_CURVE('',#454,#456,#526,.T.);
#370=EDGE_CURVE('',#455,#457,#527,.T.);
#371=EDGE_CURVE('',#457,#456,#37,.T.);
#372=EDGE_CURVE('',#456,#458,#528,.T.);
#373=EDGE_CURVE('',#457,#459,#529,.T.);
#374=EDGE_CURVE('',#459,#458,#38,.T.);
#375=EDGE_CURVE('',#458,#460,#530,.T.);
#376=EDGE_CURVE('',#459,#461,#531,.T.);
#377=EDGE_CURVE('',#461,#460,#39,.T.);
#378=EDGE_CURVE('',#460,#462,#532,.T.);
#379=EDGE_CURVE('',#461,#463,#533,.T.);
#380=EDGE_CURVE('',#463,#462,#40,.T.);
#381=EDGE_CURVE('',#462,#464,#534,.T.);
#382=EDGE_CURVE('',#463,#465,#535,.T.);
#383=EDGE_CURVE('',#465,#464,#41,.T.);
#384=EDGE_CURVE('',#464,#466,#536,.T.);
#385=EDGE_CURVE('',#465,#467,#537,.T.);
#386=EDGE_CURVE('',#467,#466,#42,.T.);
#387=EDGE_CURVE('',#466,#468,#538,.T.);
#388=EDGE_CURVE('',#467,#469,#539,.T.);
#389=EDGE_CURVE('',#469,#468,#43,.T.);
#390=EDGE_CURVE('',#468,#470,#540,.T.);
#391=EDGE_CURVE('',#469,#471,#541,.T.);
#392=EDGE_CURVE('',#471,#470,#44,.T.);
#393=EDGE_CURVE('',#470,#472,#542,.T.);
#394=EDGE_CURVE('',#471,#473,#543,.T.);
#395=EDGE_CURVE('',#473,#472,#45,.T.);
#396=EDGE_CURVE('',#472,#474,#544,.T.);
#397=EDGE_CURVE('',#473,#475,#545,.T.);
#398=EDGE_CURVE('',#475,#474,#46,.T.);
#399=EDGE_CURVE('',#474,#476,#546,.T.);
#400=EDGE_CURVE('',#475,#477,#547,.T.);
#401=EDGE_CURVE('',#477,#476,#47,.T.);
#402=EDGE_CURVE('',#476,#478,#548,.T.);
#403=EDGE_CURVE('',#477,#479,#549,.T.);
#404=EDGE_CURVE('',#479,#478,#48,.T.);
#405=EDGE_CURVE('',#478,#480,#550,.T.);
#406=EDGE_CURVE('',#479,#481,#551,.T.);
#407=EDGE_CURVE('',#481,#480,#49,.T.);
#408=EDGE_CURVE('',#480,#410,#552,.T.);
#409=EDGE_CURVE('',#481,#412,#553,.T.);
#410=VERTEX_POINT('',#1088);
#411=VERTEX_POINT('',#1089);
#412=VERTEX_POINT('',#1091);
#413=VERTEX_POINT('',#1093);
#414=VERTEX_POINT('',#1097);
#415=VERTEX_POINT('',#1099);
#416=VERTEX_POINT('',#1103);
#417=VERTEX_POINT('',#1105);
#418=VERTEX_POINT('',#1109);
#419=VERTEX_POINT('',#1111);
#420=VERTEX_POINT('',#1115);
#421=VERTEX_POINT('',#1117);
#422=VERTEX_POINT('',#1121);
#423=VERTEX_POINT('',#1123);
#424=VERTEX_POINT('',#1127);
#425=VERTEX_POINT('',#1129);
#426=VERTEX_POINT('',#1133);
#427=VERTEX_POINT('',#1135);
#428=VERTEX_POINT('',#1139);
#429=VERTEX_POINT('',#1141);
#430=VERTEX_POINT('',#1145);
#431=VERTEX_POINT('',#1147);
#432=VERTEX_POINT('',#1151);
#433=VERTEX_POINT('',#1153);
#434=VERTEX_POINT('',#1157);
#435=VERTEX_POINT('',#1159);
#436=VERTEX_POINT('',#1163);
#437=VERTEX_POINT('',#1165);
#438=VERTEX_POINT('',#1169);
#439=VERTEX_POINT('',#1171);
#440=VERTEX_POINT('',#1175);
#441=VERTEX_POINT('',#1177);
#442=VERTEX_POINT('',#1181);
#443=VERTEX_POINT('',#1183);
#444=VERTEX_POINT('',#1187);
#445=VERTEX_POINT('',#1189);
#446=VERTEX_POINT('',#1193);
#447=VERTEX_POINT('',#1195);
#448=VERTEX_POINT('',#1199);
#449=VERTEX_POINT('',#1201);
#450=VERTEX_POINT('',#1205);
#451=VERTEX_POINT('',#1207);
#452=VERTEX_POINT('',#1211);
#453=VERTEX_POINT('',#1213);
#454=VERTEX_POINT('',#1217);
#455=VERTEX_POINT('',#1219);
#456=VERTEX_POINT('',#1223);
#457=VERTEX_POINT('',#1225);
#458=VERTEX_POINT('',#1229);
#459=VERTEX_POINT('',#1231);
#460=VERTEX_POINT('',#1235);
#461=VERTEX_POINT('',#1237);
#462=VERTEX_POINT('',#1241);
#463=VERTEX_POINT('',#1243);
#464=VERTEX_POINT('',#1247);
#465=VERTEX_POINT('',#1249);
#466=VERTEX_POINT('',#1253);
#467=VERTEX_POINT('',#1255);
#468=VERTEX_POINT('',#1259);
#469=VERTEX_POINT('',#1261);
#470=VERTEX_POINT('',#1265);
#471=VERTEX_POINT('',#1267);
#472=VERTEX_POINT('',#1271);
#473=VERTEX_POINT('',#1273);
#474=VERTEX_POINT('',#1277);
#475=VERTEX_POINT('',#1279);
#476=VERTEX_POINT('',#1283);
#477=VERTEX_POINT('',#1285);
#478=VERTEX_POINT('',#1289);
#479=VERTEX_POINT('',#1291);
#480=VERTEX_POINT('',#1295);
#481=VERTEX_POINT('',#1297);
#482=CIRCLE('',#718,0.00958844825773564);
#483=CIRCLE('',#719,0.00958844825773564);
#484=CIRCLE('',#721,0.00365150600695149);
#485=CIRCLE('',#722,0.00365150600695149);
#486=CIRCLE('',#724,0.00458928973477704);
#487=CIRCLE('',#725,0.00458928973477704);
#488=CIRCLE('',#727,0.00365150600695235);
#489=CIRCLE('',#728,0.00365150600695235);
#490=CIRCLE('',#730,0.0095884482577297);
#491=CIRCLE('',#731,0.0095884482577297);
#492=CIRCLE('',#733,0.00556894005880388);
#493=CIRCLE('',#734,0.00556894005880388);
#494=CIRCLE('',#736,0.00564036417424391);
#495=CIRCLE('',#737,0.00564036417424391);
#496=CIRCLE('',#739,0.00564036417424206);
#497=CIRCLE('',#740,0.00564036417424206);
#498=CIRCLE('',#742,0.00556894005880737);
#499=CIRCLE('',#743,0.00556894005880737);
#500=CIRCLE('',#745,0.00958844825774571);
#501=CIRCLE('',#746,0.00958844825774571);
#502=CIRCLE('',#748,0.00365150600695286);
#503=CIRCLE('',#749,0.00365150600695286);
#504=CIRCLE('',#751,0.00458928973477579);
#505=CIRCLE('',#752,0.00458928973477579);
#506=CIRCLE('',#754,0.00365150600695226);
#507=CIRCLE('',#755,0.00365150600695226);
#508=CIRCLE('',#757,0.00958844825774479);
#509=CIRCLE('',#758,0.00958844825774479);
#510=CIRCLE('',#760,0.00556894005880427);
#511=CIRCLE('',#761,0.00556894005880427);
#512=CIRCLE('',#763,0.00564036417425155);
#513=CIRCLE('',#764,0.00564036417425155);
#514=CIRCLE('',#766,0.00564036417423805);
#515=CIRCLE('',#767,0.00564036417423805);
#516=CIRCLE('',#769,0.00556894005880582);
#517=CIRCLE('',#770,0.00556894005880582);
#518=CIRCLE('',#772,0.00958844825772982);
#519=CIRCLE('',#773,0.00958844825772982);
#520=CIRCLE('',#775,0.00365150600695204);
#521=CIRCLE('',#776,0.00365150600695204);
#522=CIRCLE('',#778,0.004589289734777);
#523=CIRCLE('',#779,0.004589289734777);
#524=CIRCLE('',#781,0.00365150600695188);
#525=CIRCLE('',#782,0.00365150600695188);
#526=CIRCLE('',#784,0.0095884482577361);
#527=CIRCLE('',#785,0.0095884482577361);
#528=CIRCLE('',#787,0.00556894005880568);
#529=CIRCLE('',#788,0.00556894005880568);
#530=CIRCLE('',#790,0.00564036417423701);
#531=CIRCLE('',#791,0.00564036417423701);
#532=CIRCLE('',#793,0.00564036417423467);
#533=CIRCLE('',#794,0.00564036417423467);
#534=CIRCLE('',#796,0.00556894005880772);
#535=CIRCLE('',#797,0.00556894005880772);
#536=CIRCLE('',#799,0.00958844825773489);
#537=CIRCLE('',#800,0.00958844825773489);
#538=CIRCLE('',#802,0.00365150600695204);
#539=CIRCLE('',#803,0.00365150600695204);
#540=CIRCLE('',#805,0.00458928973477678);
#541=CIRCLE('',#806,0.00458928973477678);
#542=CIRCLE('',#808,0.00365150600695162);
#543=CIRCLE('',#809,0.00365150600695162);
#544=CIRCLE('',#811,0.00958844825773675);
#545=CIRCLE('',#812,0.00958844825773675);
#546=CIRCLE('',#814,0.00556894005880128);
#547=CIRCLE('',#815,0.00556894005880128);
#548=CIRCLE('',#817,0.00564036417423745);
#549=CIRCLE('',#818,0.00564036417423745);
#550=CIRCLE('',#820,0.00564036417424271);
#551=CIRCLE('',#821,0.00564036417424271);
#552=CIRCLE('',#823,0.00556894005880342);
#553=CIRCLE('',#824,0.00556894005880342);
#554=EDGE_LOOP('',(#86,#87,#88,#89));
#555=EDGE_LOOP('',(#90,#91,#92,#93));
#556=EDGE_LOOP('',(#94,#95,#96,#97));
#557=EDGE_LOOP('',(#98,#99,#100,#101));
#558=EDGE_LOOP('',(#102,#103,#104,#105));
#559=EDGE_LOOP('',(#106,#107,#108,#109));
#560=EDGE_LOOP('',(#110,#111,#112,#113));
#561=EDGE_LOOP('',(#114,#115,#116,#117));
#562=EDGE_LOOP('',(#118,#119,#120,#121));
#563=EDGE_LOOP('',(#122,#123,#124,#125));
#564=EDGE_LOOP('',(#126,#127,#128,#129));
#565=EDGE_LOOP('',(#130,#131,#132,#133));
#566=EDGE_LOOP('',(#134,#135,#136,#137));
#567=EDGE_LOOP('',(#138,#139,#140,#141));
#568=EDGE_LOOP('',(#142,#143,#144,#145));
#569=EDGE_LOOP('',(#146,#147,#148,#149));
#570=EDGE_LOOP('',(#150,#151,#152,#153));
#571=EDGE_LOOP('',(#154,#155,#156,#157));
#572=EDGE_LOOP('',(#158,#159,#160,#161));
#573=EDGE_LOOP('',(#162,#163,#164,#165));
#574=EDGE_LOOP('',(#166,#167,#168,#169));
#575=EDGE_LOOP('',(#170,#171,#172,#173));
#576=EDGE_LOOP('',(#174,#175,#176,#177));
#577=EDGE_LOOP('',(#178,#179,#180,#181));
#578=EDGE_LOOP('',(#182,#183,#184,#185));
#579=EDGE_LOOP('',(#186,#187,#188,#189));
#580=EDGE_LOOP('',(#190,#191,#192,#193));
#581=EDGE_LOOP('',(#194,#195,#196,#197));
#582=EDGE_LOOP('',(#198,#199,#200,#201));
#583=EDGE_LOOP('',(#202,#203,#204,#205));
#584=EDGE_LOOP('',(#206,#207,#208,#209));
#585=EDGE_LOOP('',(#210,#211,#212,#213));
#586=EDGE_LOOP('',(#214,#215,#216,#217));
#587=EDGE_LOOP('',(#218,#219,#220,#221));
#588=EDGE_LOOP('',(#222,#223,#224,#225));
#589=EDGE_LOOP('',(#226,#227,#228,#229));
#590=EDGE_LOOP('',(#230,#231,#232,#233,#234,#235,#236,#237,#238,#239,#240,
#241,#242,#243,#244,#245,#246,#247,#248,#249,#250,#251,#252,#253,#254,#255,
#256,#257,#258,#259,#260,#261,#262,#263,#264,#265));
#591=EDGE_LOOP('',(#266,#267,#268,#269,#270,#271,#272,#273,#274,#275,#276,
#277,#278,#279,#280,#281,#282,#283,#284,#285,#286,#287,#288,#289,#290,#291,
#292,#293,#294,#295,#296,#297,#298,#299,#300,#301));
#592=FACE_BOUND('',#554,.T.);
#593=FACE_BOUND('',#555,.T.);
#594=FACE_BOUND('',#556,.T.);
#595=FACE_BOUND('',#557,.T.);
#596=FACE_BOUND('',#558,.T.);
#597=FACE_BOUND('',#559,.T.);
#598=FACE_BOUND('',#560,.T.);
#599=FACE_BOUND('',#561,.T.);
#600=FACE_BOUND('',#562,.T.);
#601=FACE_BOUND('',#563,.T.);
#602=FACE_BOUND('',#564,.T.);
#603=FACE_BOUND('',#565,.T.);
#604=FACE_BOUND('',#566,.T.);
#605=FACE_BOUND('',#567,.T.);
#606=FACE_BOUND('',#568,.T.);
#607=FACE_BOUND('',#569,.T.);
#608=FACE_BOUND('',#570,.T.);
#609=FACE_BOUND('',#571,.T.);
#610=FACE_BOUND('',#572,.T.);
#611=FACE_BOUND('',#573,.T.);
#612=FACE_BOUND('',#574,.T.);
#613=FACE_BOUND('',#575,.T.);
#614=FACE_BOUND('',#576,.T.);
#615=FACE_BOUND('',#577,.T.);
#616=FACE_BOUND('',#578,.T.);
#617=FACE_BOUND('',#579,.T.);
#618=FACE_BOUND('',#580,.T.);
#619=FACE_BOUND('',#581,.T.);
#620=FACE_BOUND('',#582,.T.);
#621=FACE_BOUND('',#583,.T.);
#622=FACE_BOUND('',#584,.T.);
#623=FACE_BOUND('',#585,.T.);
#624=FACE_BOUND('',#586,.T.);
#625=FACE_BOUND('',#587,.T.);
#626=FACE_BOUND('',#588,.T.);
#627=FACE_BOUND('',#589,.T.);
#628=FACE_BOUND('',#590,.T.);
#629=FACE_BOUND('',#591,.T.);
#630=CYLINDRICAL_SURFACE('',#717,0.00958844825773564);
#631=CYLINDRICAL_SURFACE('',#720,0.00365150600695149);
#632=CYLINDRICAL_SURFACE('',#723,0.00458928973477704);
#633=CYLINDRICAL_SURFACE('',#726,0.00365150600695235);
#634=CYLINDRICAL_SURFACE('',#729,0.0095884482577297);
#635=CYLINDRICAL_SURFACE('',#732,0.00556894005880388);
#636=CYLINDRICAL_SURFACE('',#735,0.00564036417424391);
#637=CYLINDRICAL_SURFACE('',#738,0.00564036417424206);
#638=CYLINDRICAL_SURFACE('',#741,0.00556894005880737);
#639=CYLINDRICAL_SURFACE('',#744,0.00958844825774571);
#640=CYLINDRICAL_SURFACE('',#747,0.00365150600695286);
#641=CYLINDRICAL_SURFACE('',#750,0.00458928973477579);
#642=CYLINDRICAL_SURFACE('',#753,0.00365150600695226);
#643=CYLINDRICAL_SURFACE('',#756,0.00958844825774479);
#644=CYLINDRICAL_SURFACE('',#759,0.00556894005880427);
#645=CYLINDRICAL_SURFACE('',#762,0.00564036417425155);
#646=CYLINDRICAL_SURFACE('',#765,0.00564036417423805);
#647=CYLINDRICAL_SURFACE('',#768,0.00556894005880582);
#648=CYLINDRICAL_SURFACE('',#771,0.00958844825772982);
#649=CYLINDRICAL_SURFACE('',#774,0.00365150600695204);
#650=CYLINDRICAL_SURFACE('',#777,0.004589289734777);
#651=CYLINDRICAL_SURFACE('',#780,0.00365150600695188);
#652=CYLINDRICAL_SURFACE('',#783,0.0095884482577361);
#653=CYLINDRICAL_SURFACE('',#786,0.00556894005880568);
#654=CYLINDRICAL_SURFACE('',#789,0.00564036417423701);
#655=CYLINDRICAL_SURFACE('',#792,0.00564036417423467);
#656=CYLINDRICAL_SURFACE('',#795,0.00556894005880772);
#657=CYLINDRICAL_SURFACE('',#798,0.00958844825773489);
#658=CYLINDRICAL_SURFACE('',#801,0.00365150600695204);
#659=CYLINDRICAL_SURFACE('',#804,0.00458928973477678);
#660=CYLINDRICAL_SURFACE('',#807,0.00365150600695162);
#661=CYLINDRICAL_SURFACE('',#810,0.00958844825773675);
#662=CYLINDRICAL_SURFACE('',#813,0.00556894005880128);
#663=CYLINDRICAL_SURFACE('',#816,0.00564036417423745);
#664=CYLINDRICAL_SURFACE('',#819,0.00564036417424271);
#665=CYLINDRICAL_SURFACE('',#822,0.00556894005880342);
#666=ADVANCED_FACE('',(#592),#630,.T.);
#667=ADVANCED_FACE('',(#593),#631,.F.);
#668=ADVANCED_FACE('',(#594),#632,.F.);
#669=ADVANCED_FACE('',(#595),#633,.F.);
#670=ADVANCED_FACE('',(#596),#634,.T.);
#671=ADVANCED_FACE('',(#597),#635,.T.);
#672=ADVANCED_FACE('',(#598),#636,.T.);
#673=ADVANCED_FACE('',(#599),#637,.T.);
#674=ADVANCED_FACE('',(#600),#638,.T.);
#675=ADVANCED_FACE('',(#601),#639,.T.);
#676=ADVANCED_FACE('',(#602),#640,.F.);
#677=ADVANCED_FACE('',(#603),#641,.F.);
#678=ADVANCED_FACE('',(#604),#642,.F.);
#679=ADVANCED_FACE('',(#605),#643,.T.);
#680=ADVANCED_FACE('',(#606),#644,.T.);
#681=ADVANCED_FACE('',(#607),#645,.T.);
#682=ADVANCED_FACE('',(#608),#646,.T.);
#683=ADVANCED_FACE('',(#609),#647,.T.);
#684=ADVANCED_FACE('',(#610),#648,.T.);
#685=ADVANCED_FACE('',(#611),#649,.F.);
#686=ADVANCED_FACE('',(#612),#650,.F.);
#687=ADVANCED_FACE('',(#613),#651,.F.);
#688=ADVANCED_FACE('',(#614),#652,.T.);
#689=ADVANCED_FACE('',(#615),#653,.T.);
#690=ADVANCED_FACE('',(#616),#654,.T.);
#691=ADVANCED_FACE('',(#617),#655,.T.);
#692=ADVANCED_FACE('',(#618),#656,.T.);
#693=ADVANCED_FACE('',(#619),#657,.T.);
#694=ADVANCED_FACE('',(#620),#658,.F.);
#695=ADVANCED_FACE('',(#621),#659,.F.);
#696=ADVANCED_FACE('',(#622),#660,.F.);
#697=ADVANCED_FACE('',(#623),#661,.T.);
#698=ADVANCED_FACE('',(#624),#662,.T.);
#699=ADVANCED_FACE('',(#625),#663,.T.);
#700=ADVANCED_FACE('',(#626),#664,.T.);
#701=ADVANCED_FACE('',(#627),#665,.T.);
#702=ADVANCED_FACE('',(#628),#12,.F.);
#703=ADVANCED_FACE('',(#629),#13,.T.);
#704=CLOSED_SHELL('',(#666,#667,#668,#669,#670,#671,#672,#673,#674,#675,
#676,#677,#678,#679,#680,#681,#682,#683,#684,#685,#686,#687,#688,#689,#690,
#691,#692,#693,#694,#695,#696,#697,#698,#699,#700,#701,#702,#703));
#705=STYLED_ITEM('',(#706),#713);
#706=PRESENTATION_STYLE_ASSIGNMENT((#707));
#707=SURFACE_STYLE_USAGE(.BOTH.,#708);
#708=SURFACE_SIDE_STYLE('',(#709));
#709=SURFACE_STYLE_FILL_AREA(#710);
#710=FILL_AREA_STYLE('',(#711));
#711=FILL_AREA_STYLE_COLOUR('',#712);
#712=COLOUR_RGB('',0.682352941176471,0.333333333333334,0.737254901960784);
#713=MANIFOLD_SOLID_BREP('ValinorStar3',#704);
#714=SHAPE_DEFINITION_REPRESENTATION(#1310,#715);
#715=SHAPE_REPRESENTATION('ValinorStar3',(#716),#1305);
#716=AXIS2_PLACEMENT_3D('',#1085,#827,#828);
#717=AXIS2_PLACEMENT_3D('',#1086,#829,#830);
#718=AXIS2_PLACEMENT_3D('',#1087,#831,#832);
#719=AXIS2_PLACEMENT_3D('',#1092,#834,#835);
#720=AXIS2_PLACEMENT_3D('',#1095,#837,#838);
#721=AXIS2_PLACEMENT_3D('',#1096,#839,#840);
#722=AXIS2_PLACEMENT_3D('',#1098,#841,#842);
#723=AXIS2_PLACEMENT_3D('',#1101,#844,#845);
#724=AXIS2_PLACEMENT_3D('',#1102,#846,#847);
#725=AXIS2_PLACEMENT_3D('',#1104,#848,#849);
#726=AXIS2_PLACEMENT_3D('',#1107,#851,#852);
#727=AXIS2_PLACEMENT_3D('',#1108,#853,#854);
#728=AXIS2_PLACEMENT_3D('',#1110,#855,#856);
#729=AXIS2_PLACEMENT_3D('',#1113,#858,#859);
#730=AXIS2_PLACEMENT_3D('',#1114,#860,#861);
#731=AXIS2_PLACEMENT_3D('',#1116,#862,#863);
#732=AXIS2_PLACEMENT_3D('',#1119,#865,#866);
#733=AXIS2_PLACEMENT_3D('',#1120,#867,#868);
#734=AXIS2_PLACEMENT_3D('',#1122,#869,#870);
#735=AXIS2_PLACEMENT_3D('',#1125,#872,#873);
#736=AXIS2_PLACEMENT_3D('',#1126,#874,#875);
#737=AXIS2_PLACEMENT_3D('',#1128,#876,#877);
#738=AXIS2_PLACEMENT_3D('',#1131,#879,#880);
#739=AXIS2_PLACEMENT_3D('',#1132,#881,#882);
#740=AXIS2_PLACEMENT_3D('',#1134,#883,#884);
#741=AXIS2_PLACEMENT_3D('',#1137,#886,#887);
#742=AXIS2_PLACEMENT_3D('',#1138,#888,#889);
#743=AXIS2_PLACEMENT_3D('',#1140,#890,#891);
#744=AXIS2_PLACEMENT_3D('',#1143,#893,#894);
#745=AXIS2_PLACEMENT_3D('',#1144,#895,#896);
#746=AXIS2_PLACEMENT_3D('',#1146,#897,#898);
#747=AXIS2_PLACEMENT_3D('',#1149,#900,#901);
#748=AXIS2_PLACEMENT_3D('',#1150,#902,#903);
#749=AXIS2_PLACEMENT_3D('',#1152,#904,#905);
#750=AXIS2_PLACEMENT_3D('',#1155,#907,#908);
#751=AXIS2_PLACEMENT_3D('',#1156,#909,#910);
#752=AXIS2_PLACEMENT_3D('',#1158,#911,#912);
#753=AXIS2_PLACEMENT_3D('',#1161,#914,#915);
#754=AXIS2_PLACEMENT_3D('',#1162,#916,#917);
#755=AXIS2_PLACEMENT_3D('',#1164,#918,#919);
#756=AXIS2_PLACEMENT_3D('',#1167,#921,#922);
#757=AXIS2_PLACEMENT_3D('',#1168,#923,#924);
#758=AXIS2_PLACEMENT_3D('',#1170,#925,#926);
#759=AXIS2_PLACEMENT_3D('',#1173,#928,#929);
#760=AXIS2_PLACEMENT_3D('',#1174,#930,#931);
#761=AXIS2_PLACEMENT_3D('',#1176,#932,#933);
#762=AXIS2_PLACEMENT_3D('',#1179,#935,#936);
#763=AXIS2_PLACEMENT_3D('',#1180,#937,#938);
#764=AXIS2_PLACEMENT_3D('',#1182,#939,#940);
#765=AXIS2_PLACEMENT_3D('',#1185,#942,#943);
#766=AXIS2_PLACEMENT_3D('',#1186,#944,#945);
#767=AXIS2_PLACEMENT_3D('',#1188,#946,#947);
#768=AXIS2_PLACEMENT_3D('',#1191,#949,#950);
#769=AXIS2_PLACEMENT_3D('',#1192,#951,#952);
#770=AXIS2_PLACEMENT_3D('',#1194,#953,#954);
#771=AXIS2_PLACEMENT_3D('',#1197,#956,#957);
#772=AXIS2_PLACEMENT_3D('',#1198,#958,#959);
#773=AXIS2_PLACEMENT_3D('',#1200,#960,#961);
#774=AXIS2_PLACEMENT_3D('',#1203,#963,#964);
#775=AXIS2_PLACEMENT_3D('',#1204,#965,#966);
#776=AXIS2_PLACEMENT_3D('',#1206,#967,#968);
#777=AXIS2_PLACEMENT_3D('',#1209,#970,#971);
#778=AXIS2_PLACEMENT_3D('',#1210,#972,#973);
#779=AXIS2_PLACEMENT_3D('',#1212,#974,#975);
#780=AXIS2_PLACEMENT_3D('',#1215,#977,#978);
#781=AXIS2_PLACEMENT_3D('',#1216,#979,#980);
#782=AXIS2_PLACEMENT_3D('',#1218,#981,#982);
#783=AXIS2_PLACEMENT_3D('',#1221,#984,#985);
#784=AXIS2_PLACEMENT_3D('',#1222,#986,#987);
#785=AXIS2_PLACEMENT_3D('',#1224,#988,#989);
#786=AXIS2_PLACEMENT_3D('',#1227,#991,#992);
#787=AXIS2_PLACEMENT_3D('',#1228,#993,#994);
#788=AXIS2_PLACEMENT_3D('',#1230,#995,#996);
#789=AXIS2_PLACEMENT_3D('',#1233,#998,#999);
#790=AXIS2_PLACEMENT_3D('',#1234,#1000,#1001);
#791=AXIS2_PLACEMENT_3D('',#1236,#1002,#1003);
#792=AXIS2_PLACEMENT_3D('',#1239,#1005,#1006);
#793=AXIS2_PLACEMENT_3D('',#1240,#1007,#1008);
#794=AXIS2_PLACEMENT_3D('',#1242,#1009,#1010);
#795=AXIS2_PLACEMENT_3D('',#1245,#1012,#1013);
#796=AXIS2_PLACEMENT_3D('',#1246,#1014,#1015);
#797=AXIS2_PLACEMENT_3D('',#1248,#1016,#1017);
#798=AXIS2_PLACEMENT_3D('',#1251,#1019,#1020);
#799=AXIS2_PLACEMENT_3D('',#1252,#1021,#1022);
#800=AXIS2_PLACEMENT_3D('',#1254,#1023,#1024);
#801=AXIS2_PLACEMENT_3D('',#1257,#1026,#1027);
#802=AXIS2_PLACEMENT_3D('',#1258,#1028,#1029);
#803=AXIS2_PLACEMENT_3D('',#1260,#1030,#1031);
#804=AXIS2_PLACEMENT_3D('',#1263,#1033,#1034);
#805=AXIS2_PLACEMENT_3D('',#1264,#1035,#1036);
#806=AXIS2_PLACEMENT_3D('',#1266,#1037,#1038);
#807=AXIS2_PLACEMENT_3D('',#1269,#1040,#1041);
#808=AXIS2_PLACEMENT_3D('',#1270,#1042,#1043);
#809=AXIS2_PLACEMENT_3D('',#1272,#1044,#1045);
#810=AXIS2_PLACEMENT_3D('',#1275,#1047,#1048);
#811=AXIS2_PLACEMENT_3D('',#1276,#1049,#1050);
#812=AXIS2_PLACEMENT_3D('',#1278,#1051,#1052);
#813=AXIS2_PLACEMENT_3D('',#1281,#1054,#1055);
#814=AXIS2_PLACEMENT_3D('',#1282,#1056,#1057);
#815=AXIS2_PLACEMENT_3D('',#1284,#1058,#1059);
#816=AXIS2_PLACEMENT_3D('',#1287,#1061,#1062);
#817=AXIS2_PLACEMENT_3D('',#1288,#1063,#1064);
#818=AXIS2_PLACEMENT_3D('',#1290,#1065,#1066);
#819=AXIS2_PLACEMENT_3D('',#1293,#1068,#1069);
#820=AXIS2_PLACEMENT_3D('',#1294,#1070,#1071);
#821=AXIS2_PLACEMENT_3D('',#1296,#1072,#1073);
#822=AXIS2_PLACEMENT_3D('',#1299,#1075,#1076);
#823=AXIS2_PLACEMENT_3D('',#1300,#1077,#1078);
#824=AXIS2_PLACEMENT_3D('',#1301,#1079,#1080);
#825=AXIS2_PLACEMENT_3D('',#1302,#1081,#1082);
#826=AXIS2_PLACEMENT_3D('',#1303,#1083,#1084);
#827=DIRECTION('',(0.,0.,1.));
#828=DIRECTION('',(1.,0.,0.));
#829=DIRECTION('',(5.56131819963552E-33,-1.22464679914735E-16,-1.));
#830=DIRECTION('',(1.,9.08232186375291E-17,-5.56131819963552E-33));
#831=DIRECTION('',(5.56131819963552E-33,-1.22464679914735E-16,-1.));
#832=DIRECTION('',(1.,9.08232186375291E-17,-5.56131819963552E-33));
#833=DIRECTION('',(5.56131819963552E-33,-1.22464679914735E-16,-1.));
#834=DIRECTION('',(5.56131819963552E-33,-1.22464679914735E-16,-1.));
#835=DIRECTION('',(1.,9.08232186375291E-17,-5.56131819963552E-33));
#836=DIRECTION('',(5.56131819963552E-33,-1.22464679914735E-16,-1.));
#837=DIRECTION('',(5.56131819963552E-33,-1.22464679914735E-16,-1.));
#838=DIRECTION('',(1.,9.08232186375291E-17,-5.56131819963552E-33));
#839=DIRECTION('',(-5.56131819963552E-33,1.22464679914735E-16,1.));
#840=DIRECTION('',(1.,9.08232186375291E-17,-5.56131819963552E-33));
#841=DIRECTION('',(-5.56131819963552E-33,1.22464679914735E-16,1.));
#842=DIRECTION('',(1.,9.08232186375291E-17,-5.56131819963552E-33));
#843=DIRECTION('',(5.56131819963552E-33,-1.22464679914735E-16,-1.));
#844=DIRECTION('',(5.56131819963552E-33,-1.22464679914735E-16,-1.));
#845=DIRECTION('',(1.,9.08232186375291E-17,-5.56131819963552E-33));
#846=DIRECTION('',(-5.56131819963552E-33,1.22464679914735E-16,1.));
#847=DIRECTION('',(1.,9.08232186375291E-17,-5.56131819963552E-33));
#848=DIRECTION('',(-5.56131819963552E-33,1.22464679914735E-16,1.));
#849=DIRECTION('',(1.,9.08232186375291E-17,-5.56131819963552E-33));
#850=DIRECTION('',(5.56131819963552E-33,-1.22464679914735E-16,-1.));
#851=DIRECTION('',(5.56131819963552E-33,-1.22464679914735E-16,-1.));
#852=DIRECTION('',(1.,9.08232186375291E-17,-5.56131819963552E-33));
#853=DIRECTION('',(-5.56131819963552E-33,1.22464679914735E-16,1.));
#854=DIRECTION('',(1.,9.08232186375291E-17,-5.56131819963552E-33));
#855=DIRECTION('',(-5.56131819963552E-33,1.22464679914735E-16,1.));
#856=DIRECTION('',(1.,9.08232186375291E-17,-5.56131819963552E-33));
#857=DIRECTION('',(5.56131819963552E-33,-1.22464679914735E-16,-1.));
#858=DIRECTION('',(5.56131819963552E-33,-1.22464679914735E-16,-1.));
#859=DIRECTION('',(1.,9.08232186375291E-17,-5.56131819963552E-33));
#860=DIRECTION('',(5.56131819963552E-33,-1.22464679914735E-16,-1.));
#861=DIRECTION('',(1.,9.08232186375291E-17,-5.56131819963552E-33));
#862=DIRECTION('',(5.56131819963552E-33,-1.22464679914735E-16,-1.));
#863=DIRECTION('',(1.,9.08232186375291E-17,-5.56131819963552E-33));
#864=DIRECTION('',(5.56131819963552E-33,-1.22464679914735E-16,-1.));
#865=DIRECTION('',(5.56131819963552E-33,-1.22464679914735E-16,-1.));
#866=DIRECTION('',(1.,9.08232186375291E-17,-5.56131819963552E-33));
#867=DIRECTION('',(5.56131819963552E-33,-1.22464679914735E-16,-1.));
#868=DIRECTION('',(1.,9.08232186375291E-17,-5.56131819963552E-33));
#869=DIRECTION('',(5.56131819963552E-33,-1.22464679914735E-16,-1.));
#870=DIRECTION('',(1.,9.08232186375291E-17,-5.56131819963552E-33));
#871=DIRECTION('',(5.56131819963552E-33,-1.22464679914735E-16,-1.));
#872=DIRECTION('',(5.56131819963552E-33,-1.22464679914735E-16,-1.));
#873=DIRECTION('',(1.,9.08232186375291E-17,-5.56131819963552E-33));
#874=DIRECTION('',(5.56131819963552E-33,-1.22464679914735E-16,-1.));
#875=DIRECTION('',(1.,9.08232186375291E-17,-5.56131819963552E-33));
#876=DIRECTION('',(5.56131819963552E-33,-1.22464679914735E-16,-1.));
#877=DIRECTION('',(1.,9.08232186375291E-17,-5.56131819963552E-33));
#878=DIRECTION('',(5.56131819963552E-33,-1.22464679914735E-16,-1.));
#879=DIRECTION('',(5.56131819963552E-33,-1.22464679914735E-16,-1.));
#880=DIRECTION('',(1.,9.08232186375291E-17,-5.56131819963552E-33));
#881=DIRECTION('',(5.56131819963552E-33,-1.22464679914735E-16,-1.));
#882=DIRECTION('',(1.,9.08232186375291E-17,-5.56131819963552E-33));
#883=DIRECTION('',(5.56131819963552E-33,-1.22464679914735E-16,-1.));
#884=DIRECTION('',(1.,9.08232186375291E-17,-5.56131819963552E-33));
#885=DIRECTION('',(5.56131819963552E-33,-1.22464679914735E-16,-1.));
#886=DIRECTION('',(5.56131819963552E-33,-1.22464679914735E-16,-1.));
#887=DIRECTION('',(1.,9.08232186375291E-17,-5.56131819963552E-33));
#888=DIRECTION('',(5.56131819963552E-33,-1.22464679914735E-16,-1.));
#889=DIRECTION('',(1.,9.08232186375291E-17,-5.56131819963552E-33));
#890=DIRECTION('',(5.56131819963552E-33,-1.22464679914735E-16,-1.));
#891=DIRECTION('',(1.,9.08232186375291E-17,-5.56131819963552E-33));
#892=DIRECTION('',(5.56131819963552E-33,-1.22464679914735E-16,-1.));
#893=DIRECTION('',(5.56131819963552E-33,-1.22464679914735E-16,-1.));
#894=DIRECTION('',(1.,9.08232186375291E-17,-5.56131819963552E-33));
#895=DIRECTION('',(5.56131819963552E-33,-1.22464679914735E-16,-1.));
#896=DIRECTION('',(1.,9.08232186375291E-17,-5.56131819963552E-33));
#897=DIRECTION('',(5.56131819963552E-33,-1.22464679914735E-16,-1.));
#898=DIRECTION('',(1.,9.08232186375291E-17,-5.56131819963552E-33));
#899=DIRECTION('',(5.56131819963552E-33,-1.22464679914735E-16,-1.));
#900=DIRECTION('',(5.56131819963552E-33,-1.22464679914735E-16,-1.));
#901=DIRECTION('',(1.,9.08232186375291E-17,-5.56131819963552E-33));
#902=DIRECTION('',(-5.56131819963552E-33,1.22464679914735E-16,1.));
#903=DIRECTION('',(1.,9.08232186375291E-17,-5.56131819963552E-33));
#904=DIRECTION('',(-5.56131819963552E-33,1.22464679914735E-16,1.));
#905=DIRECTION('',(1.,9.08232186375291E-17,-5.56131819963552E-33));
#906=DIRECTION('',(5.56131819963552E-33,-1.22464679914735E-16,-1.));
#907=DIRECTION('',(5.56131819963552E-33,-1.22464679914735E-16,-1.));
#908=DIRECTION('',(1.,9.08232186375291E-17,-5.56131819963552E-33));
#909=DIRECTION('',(-5.56131819963552E-33,1.22464679914735E-16,1.));
#910=DIRECTION('',(1.,9.08232186375291E-17,-5.56131819963552E-33));
#911=DIRECTION('',(-5.56131819963552E-33,1.22464679914735E-16,1.));
#912=DIRECTION('',(1.,9.08232186375291E-17,-5.56131819963552E-33));
#913=DIRECTION('',(5.56131819963552E-33,-1.22464679914735E-16,-1.));
#914=DIRECTION('',(5.56131819963552E-33,-1.22464679914735E-16,-1.));
#915=DIRECTION('',(1.,9.08232186375291E-17,-5.56131819963552E-33));
#916=DIRECTION('',(-5.56131819963552E-33,1.22464679914735E-16,1.));
#917=DIRECTION('',(1.,9.08232186375291E-17,-5.56131819963552E-33));
#918=DIRECTION('',(-5.56131819963552E-33,1.22464679914735E-16,1.));
#919=DIRECTION('',(1.,9.08232186375291E-17,-5.56131819963552E-33));
#920=DIRECTION('',(5.56131819963552E-33,-1.22464679914735E-16,-1.));
#921=DIRECTION('',(5.56131819963552E-33,-1.22464679914735E-16,-1.));
#922=DIRECTION('',(1.,9.08232186375291E-17,-5.56131819963552E-33));
#923=DIRECTION('',(5.56131819963552E-33,-1.22464679914735E-16,-1.));
#924=DIRECTION('',(1.,9.08232186375291E-17,-5.56131819963552E-33));
#925=DIRECTION('',(5.56131819963552E-33,-1.22464679914735E-16,-1.));
#926=DIRECTION('',(1.,9.08232186375291E-17,-5.56131819963552E-33));
#927=DIRECTION('',(5.56131819963552E-33,-1.22464679914735E-16,-1.));
#928=DIRECTION('',(5.56131819963552E-33,-1.22464679914735E-16,-1.));
#929=DIRECTION('',(1.,9.08232186375291E-17,-5.56131819963552E-33));
#930=DIRECTION('',(5.56131819963552E-33,-1.22464679914735E-16,-1.));
#931=DIRECTION('',(1.,9.08232186375291E-17,-5.56131819963552E-33));
#932=DIRECTION('',(5.56131819963552E-33,-1.22464679914735E-16,-1.));
#933=DIRECTION('',(1.,9.08232186375291E-17,-5.56131819963552E-33));
#934=DIRECTION('',(5.56131819963552E-33,-1.22464679914735E-16,-1.));
#935=DIRECTION('',(5.56131819963552E-33,-1.22464679914735E-16,-1.));
#936=DIRECTION('',(1.,9.08232186375291E-17,-5.56131819963552E-33));
#937=DIRECTION('',(5.56131819963552E-33,-1.22464679914735E-16,-1.));
#938=DIRECTION('',(1.,9.08232186375291E-17,-5.56131819963552E-33));
#939=DIRECTION('',(5.56131819963552E-33,-1.22464679914735E-16,-1.));
#940=DIRECTION('',(1.,9.08232186375291E-17,-5.56131819963552E-33));
#941=DIRECTION('',(5.56131819963552E-33,-1.22464679914735E-16,-1.));
#942=DIRECTION('',(5.56131819963552E-33,-1.22464679914735E-16,-1.));
#943=DIRECTION('',(1.,9.08232186375291E-17,-5.56131819963552E-33));
#944=DIRECTION('',(5.56131819963552E-33,-1.22464679914735E-16,-1.));
#945=DIRECTION('',(1.,9.08232186375291E-17,-5.56131819963552E-33));
#946=DIRECTION('',(5.56131819963552E-33,-1.22464679914735E-16,-1.));
#947=DIRECTION('',(1.,9.08232186375291E-17,-5.56131819963552E-33));
#948=DIRECTION('',(5.56131819963552E-33,-1.22464679914735E-16,-1.));
#949=DIRECTION('',(5.56131819963552E-33,-1.22464679914735E-16,-1.));
#950=DIRECTION('',(1.,9.08232186375291E-17,-5.56131819963552E-33));
#951=DIRECTION('',(5.56131819963552E-33,-1.22464679914735E-16,-1.));
#952=DIRECTION('',(1.,9.08232186375291E-17,-5.56131819963552E-33));
#953=DIRECTION('',(5.56131819963552E-33,-1.22464679914735E-16,-1.));
#954=DIRECTION('',(1.,9.08232186375291E-17,-5.56131819963552E-33));
#955=DIRECTION('',(5.56131819963552E-33,-1.22464679914735E-16,-1.));
#956=DIRECTION('',(5.56131819963552E-33,-1.22464679914735E-16,-1.));
#957=DIRECTION('',(1.,9.08232186375291E-17,-5.56131819963552E-33));
#958=DIRECTION('',(5.56131819963552E-33,-1.22464679914735E-16,-1.));
#959=DIRECTION('',(1.,9.08232186375291E-17,-5.56131819963552E-33));
#960=DIRECTION('',(5.56131819963552E-33,-1.22464679914735E-16,-1.));
#961=DIRECTION('',(1.,9.08232186375291E-17,-5.56131819963552E-33));
#962=DIRECTION('',(5.56131819963552E-33,-1.22464679914735E-16,-1.));
#963=DIRECTION('',(5.56131819963552E-33,-1.22464679914735E-16,-1.));
#964=DIRECTION('',(1.,9.08232186375291E-17,-5.56131819963552E-33));
#965=DIRECTION('',(-5.56131819963552E-33,1.22464679914735E-16,1.));
#966=DIRECTION('',(1.,9.08232186375291E-17,-5.56131819963552E-33));
#967=DIRECTION('',(-5.56131819963552E-33,1.22464679914735E-16,1.));
#968=DIRECTION('',(1.,9.08232186375291E-17,-5.56131819963552E-33));
#969=DIRECTION('',(5.56131819963552E-33,-1.22464679914735E-16,-1.));
#970=DIRECTION('',(5.56131819963552E-33,-1.22464679914735E-16,-1.));
#971=DIRECTION('',(1.,9.08232186375291E-17,-5.56131819963552E-33));
#972=DIRECTION('',(-5.56131819963552E-33,1.22464679914735E-16,1.));
#973=DIRECTION('',(1.,9.08232186375291E-17,-5.56131819963552E-33));
#974=DIRECTION('',(-5.56131819963552E-33,1.22464679914735E-16,1.));
#975=DIRECTION('',(1.,9.08232186375291E-17,-5.56131819963552E-33));
#976=DIRECTION('',(5.56131819963552E-33,-1.22464679914735E-16,-1.));
#977=DIRECTION('',(5.56131819963552E-33,-1.22464679914735E-16,-1.));
#978=DIRECTION('',(1.,9.08232186375291E-17,-5.56131819963552E-33));
#979=DIRECTION('',(-5.56131819963552E-33,1.22464679914735E-16,1.));
#980=DIRECTION('',(1.,9.08232186375291E-17,-5.56131819963552E-33));
#981=DIRECTION('',(-5.56131819963552E-33,1.22464679914735E-16,1.));
#982=DIRECTION('',(1.,9.08232186375291E-17,-5.56131819963552E-33));
#983=DIRECTION('',(5.56131819963552E-33,-1.22464679914735E-16,-1.));
#984=DIRECTION('',(5.56131819963552E-33,-1.22464679914735E-16,-1.));
#985=DIRECTION('',(1.,9.08232186375291E-17,-5.56131819963552E-33));
#986=DIRECTION('',(5.56131819963552E-33,-1.22464679914735E-16,-1.));
#987=DIRECTION('',(1.,9.08232186375291E-17,-5.56131819963552E-33));
#988=DIRECTION('',(5.56131819963552E-33,-1.22464679914735E-16,-1.));
#989=DIRECTION('',(1.,9.08232186375291E-17,-5.56131819963552E-33));
#990=DIRECTION('',(5.56131819963552E-33,-1.22464679914735E-16,-1.));
#991=DIRECTION('',(5.56131819963552E-33,-1.22464679914735E-16,-1.));
#992=DIRECTION('',(1.,9.08232186375291E-17,-5.56131819963552E-33));
#993=DIRECTION('',(5.56131819963552E-33,-1.22464679914735E-16,-1.));
#994=DIRECTION('',(1.,9.08232186375291E-17,-5.56131819963552E-33));
#995=DIRECTION('',(5.56131819963552E-33,-1.22464679914735E-16,-1.));
#996=DIRECTION('',(1.,9.08232186375291E-17,-5.56131819963552E-33));
#997=DIRECTION('',(5.56131819963552E-33,-1.22464679914735E-16,-1.));
#998=DIRECTION('',(5.56131819963552E-33,-1.22464679914735E-16,-1.));
#999=DIRECTION('',(1.,9.08232186375291E-17,-5.56131819963552E-33));
#1000=DIRECTION('',(5.56131819963552E-33,-1.22464679914735E-16,-1.));
#1001=DIRECTION('',(1.,9.08232186375291E-17,-5.56131819963552E-33));
#1002=DIRECTION('',(5.56131819963552E-33,-1.22464679914735E-16,-1.));
#1003=DIRECTION('',(1.,9.08232186375291E-17,-5.56131819963552E-33));
#1004=DIRECTION('',(5.56131819963552E-33,-1.22464679914735E-16,-1.));
#1005=DIRECTION('',(5.56131819963552E-33,-1.22464679914735E-16,-1.));
#1006=DIRECTION('',(1.,9.08232186375291E-17,-5.56131819963552E-33));
#1007=DIRECTION('',(5.56131819963552E-33,-1.22464679914735E-16,-1.));
#1008=DIRECTION('',(1.,9.08232186375291E-17,-5.56131819963552E-33));
#1009=DIRECTION('',(5.56131819963552E-33,-1.22464679914735E-16,-1.));
#1010=DIRECTION('',(1.,9.08232186375291E-17,-5.56131819963552E-33));
#1011=DIRECTION('',(5.56131819963552E-33,-1.22464679914735E-16,-1.));
#1012=DIRECTION('',(5.56131819963552E-33,-1.22464679914735E-16,-1.));
#1013=DIRECTION('',(1.,9.08232186375291E-17,-5.56131819963552E-33));
#1014=DIRECTION('',(5.56131819963552E-33,-1.22464679914735E-16,-1.));
#1015=DIRECTION('',(1.,9.08232186375291E-17,-5.56131819963552E-33));
#1016=DIRECTION('',(5.56131819963552E-33,-1.22464679914735E-16,-1.));
#1017=DIRECTION('',(1.,9.08232186375291E-17,-5.56131819963552E-33));
#1018=DIRECTION('',(5.56131819963552E-33,-1.22464679914735E-16,-1.));
#1019=DIRECTION('',(5.56131819963552E-33,-1.22464679914735E-16,-1.));
#1020=DIRECTION('',(1.,9.08232186375291E-17,-5.56131819963552E-33));
#1021=DIRECTION('',(5.56131819963552E-33,-1.22464679914735E-16,-1.));
#1022=DIRECTION('',(1.,9.08232186375291E-17,-5.56131819963552E-33));
#1023=DIRECTION('',(5.56131819963552E-33,-1.22464679914735E-16,-1.));
#1024=DIRECTION('',(1.,9.08232186375291E-17,-5.56131819963552E-33));
#1025=DIRECTION('',(5.56131819963552E-33,-1.22464679914735E-16,-1.));
#1026=DIRECTION('',(5.56131819963552E-33,-1.22464679914735E-16,-1.));
#1027=DIRECTION('',(1.,9.08232186375291E-17,-5.56131819963552E-33));
#1028=DIRECTION('',(-5.56131819963552E-33,1.22464679914735E-16,1.));
#1029=DIRECTION('',(1.,9.08232186375291E-17,-5.56131819963552E-33));
#1030=DIRECTION('',(-5.56131819963552E-33,1.22464679914735E-16,1.));
#1031=DIRECTION('',(1.,9.08232186375291E-17,-5.56131819963552E-33));
#1032=DIRECTION('',(5.56131819963552E-33,-1.22464679914735E-16,-1.));
#1033=DIRECTION('',(5.56131819963552E-33,-1.22464679914735E-16,-1.));
#1034=DIRECTION('',(1.,9.08232186375291E-17,-5.56131819963552E-33));
#1035=DIRECTION('',(-5.56131819963552E-33,1.22464679914735E-16,1.));
#1036=DIRECTION('',(1.,9.08232186375291E-17,-5.56131819963552E-33));
#1037=DIRECTION('',(-5.56131819963552E-33,1.22464679914735E-16,1.));
#1038=DIRECTION('',(1.,9.08232186375291E-17,-5.56131819963552E-33));
#1039=DIRECTION('',(5.56131819963552E-33,-1.22464679914735E-16,-1.));
#1040=DIRECTION('',(5.56131819963552E-33,-1.22464679914735E-16,-1.));
#1041=DIRECTION('',(1.,9.08232186375291E-17,-5.56131819963552E-33));
#1042=DIRECTION('',(-5.56131819963552E-33,1.22464679914735E-16,1.));
#1043=DIRECTION('',(1.,9.08232186375291E-17,-5.56131819963552E-33));
#1044=DIRECTION('',(-5.56131819963552E-33,1.22464679914735E-16,1.));
#1045=DIRECTION('',(1.,9.08232186375291E-17,-5.56131819963552E-33));
#1046=DIRECTION('',(5.56131819963552E-33,-1.22464679914735E-16,-1.));
#1047=DIRECTION('',(5.56131819963552E-33,-1.22464679914735E-16,-1.));
#1048=DIRECTION('',(1.,9.08232186375291E-17,-5.56131819963552E-33));
#1049=DIRECTION('',(5.56131819963552E-33,-1.22464679914735E-16,-1.));
#1050=DIRECTION('',(1.,9.08232186375291E-17,-5.56131819963552E-33));
#1051=DIRECTION('',(5.56131819963552E-33,-1.22464679914735E-16,-1.));
#1052=DIRECTION('',(1.,9.08232186375291E-17,-5.56131819963552E-33));
#1053=DIRECTION('',(5.56131819963552E-33,-1.22464679914735E-16,-1.));
#1054=DIRECTION('',(5.56131819963552E-33,-1.22464679914735E-16,-1.));
#1055=DIRECTION('',(1.,9.08232186375291E-17,-5.56131819963552E-33));
#1056=DIRECTION('',(5.56131819963552E-33,-1.22464679914735E-16,-1.));
#1057=DIRECTION('',(1.,9.08232186375291E-17,-5.56131819963552E-33));
#1058=DIRECTION('',(5.56131819963552E-33,-1.22464679914735E-16,-1.));
#1059=DIRECTION('',(1.,9.08232186375291E-17,-5.56131819963552E-33));
#1060=DIRECTION('',(5.56131819963552E-33,-1.22464679914735E-16,-1.));
#1061=DIRECTION('',(5.56131819963552E-33,-1.22464679914735E-16,-1.));
#1062=DIRECTION('',(1.,9.08232186375291E-17,-5.56131819963552E-33));
#1063=DIRECTION('',(5.56131819963552E-33,-1.22464679914735E-16,-1.));
#1064=DIRECTION('',(1.,9.08232186375291E-17,-5.56131819963552E-33));
#1065=DIRECTION('',(5.56131819963552E-33,-1.22464679914735E-16,-1.));
#1066=DIRECTION('',(1.,9.08232186375291E-17,-5.56131819963552E-33));
#1067=DIRECTION('',(5.56131819963552E-33,-1.22464679914735E-16,-1.));
#1068=DIRECTION('',(5.56131819963552E-33,-1.22464679914735E-16,-1.));
#1069=DIRECTION('',(1.,9.08232186375291E-17,-5.56131819963552E-33));
#1070=DIRECTION('',(5.56131819963552E-33,-1.22464679914735E-16,-1.));
#1071=DIRECTION('',(1.,9.08232186375291E-17,-5.56131819963552E-33));
#1072=DIRECTION('',(5.56131819963552E-33,-1.22464679914735E-16,-1.));
#1073=DIRECTION('',(1.,9.08232186375291E-17,-5.56131819963552E-33));
#1074=DIRECTION('',(5.56131819963552E-33,-1.22464679914735E-16,-1.));
#1075=DIRECTION('',(5.56131819963552E-33,-1.22464679914735E-16,-1.));
#1076=DIRECTION('',(1.,9.08232186375291E-17,-5.56131819963552E-33));
#1077=DIRECTION('',(5.56131819963552E-33,-1.22464679914735E-16,-1.));
#1078=DIRECTION('',(1.,9.08232186375291E-17,-5.56131819963552E-33));
#1079=DIRECTION('',(5.56131819963552E-33,-1.22464679914735E-16,-1.));
#1080=DIRECTION('',(1.,9.08232186375291E-17,-5.56131819963552E-33));
#1081=DIRECTION('',(5.56131819963552E-33,-1.22464679914735E-16,-1.));
#1082=DIRECTION('',(1.,9.08232186375291E-17,-5.56131819963552E-33));
#1083=DIRECTION('',(5.56131819963552E-33,-1.22464679914735E-16,-1.));
#1084=DIRECTION('',(1.,9.08232186375291E-17,-5.56131819963552E-33));
#1085=CARTESIAN_POINT('',(0.,0.,0.));
#1086=CARTESIAN_POINT('',(-0.0159578381694742,0.0202118422744627,-0.0232000086266577));
#1087=CARTESIAN_POINT('',(-0.0159578381694742,0.0202118422744627,-0.0240000086266577));
#1088=CARTESIAN_POINT('',(-0.0243744561191414,0.0156184903087831,-0.0240000086266577));
#1089=CARTESIAN_POINT('',(-0.024612596157623,0.016084675672804,-0.0240000086266577));
#1090=CARTESIAN_POINT('',(-0.0243744561191414,0.0156184903087831,-0.0232000086266577));
#1091=CARTESIAN_POINT('',(-0.0243744561191414,0.0156184903087831,-0.0232000086266577));
#1092=CARTESIAN_POINT('',(-0.0159578381694742,0.0202118422744627,-0.0232000086266577));
#1093=CARTESIAN_POINT('',(-0.024612596157623,0.016084675672804,-0.0232000086266577));
#1094=CARTESIAN_POINT('',(-0.024612596157623,0.016084675672804,-0.0232000086266577));
#1095=CARTESIAN_POINT('',(-0.0279085310089087,0.0145129538224534,-0.0232000086266577));
#1096=CARTESIAN_POINT('',(-0.0279085310089087,0.0145129538224534,-0.0240000086266577));
#1097=CARTESIAN_POINT('',(-0.0249590429784933,0.0166656304069007,-0.0240000086266577));
#1098=CARTESIAN_POINT('',(-0.0279085310089087,0.0145129538224534,-0.0232000086266577));
#1099=CARTESIAN_POINT('',(-0.0249590429784933,0.0166656304069007,-0.0232000086266577));
#1100=CARTESIAN_POINT('',(-0.0249590429784933,0.0166656304069007,-0.0232000086266577));
#1101=CARTESIAN_POINT('',(-0.0286660217196127,0.0139601010903679,-0.0232000086266577));
#1102=CARTESIAN_POINT('',(-0.0286660217196127,0.0139601010903679,-0.0240000086266577));
#1103=CARTESIAN_POINT('',(-0.0259605001527147,0.0176670858756142,-0.0240000086266577));
#1104=CARTESIAN_POINT('',(-0.0286660217196127,0.0139601010903679,-0.0232000086266577));
#1105=CARTESIAN_POINT('',(-0.0259605001527147,0.0176670858756142,-0.0232000086266577));
#1106=CARTESIAN_POINT('',(-0.0259605001527147,0.0176670858756142,-0.0232000086266577));
#1107=CARTESIAN_POINT('',(-0.0281131704240625,0.014717593237606,-0.0232000086266577));
#1108=CARTESIAN_POINT('',(-0.0281131704240625,0.014717593237606,-0.0240000086266577));
#1109=CARTESIAN_POINT('',(-0.0265414485737115,0.0180135280888924,-0.0240000086266577));
#1110=CARTESIAN_POINT('',(-0.0281131704240625,0.014717593237606,-0.0232000086266577));
#1111=CARTESIAN_POINT('',(-0.0265414485737115,0.0180135280888924,-0.0232000086266577));
#1112=CARTESIAN_POINT('',(-0.0265414485737115,0.0180135280888924,-0.0232000086266577));
#1113=CARTESIAN_POINT('',(-0.0224142819720553,0.0266682860770359,-0.0232000086266577));
#1114=CARTESIAN_POINT('',(-0.0224142819720553,0.0266682860770359,-0.0240000086266577));
#1115=CARTESIAN_POINT('',(-0.0270076339377425,0.0182516681273559,-0.0240000086266577));
#1116=CARTESIAN_POINT('',(-0.0224142819720553,0.0266682860770359,-0.0232000086266577));
#1117=CARTESIAN_POINT('',(-0.0270076339377425,0.0182516681273559,-0.0232000086266577));
#1118=CARTESIAN_POINT('',(-0.0270076339377425,0.0182516681273559,-0.0232000086266577));
#1119=CARTESIAN_POINT('',(-0.0243398298177981,0.0231400128938549,-0.0232000086266577));
#1120=CARTESIAN_POINT('',(-0.0243398298177981,0.0231400128938549,-0.0240000086266577));
#1121=CARTESIAN_POINT('',(-0.0273950894613009,0.0184839972270746,-0.0240000086266577));
#1122=CARTESIAN_POINT('',(-0.0243398298177981,0.0231400128938549,-0.0232000086266577));
#1123=CARTESIAN_POINT('',(-0.0273950894613009,0.0184839972270746,-0.0232000086266577));
#1124=CARTESIAN_POINT('',(-0.0273950894613009,0.0184839972270746,-0.0232000086266577));
#1125=CARTESIAN_POINT('',(-0.0243006447636978,0.0231997283508316,-0.0232000086266577));
#1126=CARTESIAN_POINT('',(-0.0243006447636978,0.0231997283508316,-0.0240000086266577));
#1127=CARTESIAN_POINT('',(-0.0276317032771906,0.0186480520444823,-0.0240000086266577));
#1128=CARTESIAN_POINT('',(-0.0243006447636978,0.0231997283508316,-0.0232000086266577));
#1129=CARTESIAN_POINT('',(-0.0276317032771906,0.0186480520444823,-0.0232000086266577));
#1130=CARTESIAN_POINT('',(-0.0276317032771906,0.0186480520444823,-0.0232000086266577));
#1131=CARTESIAN_POINT('',(-0.0243006447636988,0.0140963757381346,-0.0232000086266577));
#1132=CARTESIAN_POINT('',(-0.0243006447636988,0.0140963757381346,-0.0240000086266577));
#1133=CARTESIAN_POINT('',(-0.0273950894613147,0.0188121068618843,-0.0240000086266577));
#1134=CARTESIAN_POINT('',(-0.0243006447636988,0.0140963757381346,-0.0232000086266577));
#1135=CARTESIAN_POINT('',(-0.0273950894613147,0.0188121068618843,-0.0232000086266577));
#1136=CARTESIAN_POINT('',(-0.0273950894613147,0.0188121068618843,-0.0232000086266577));
#1137=CARTESIAN_POINT('',(-0.0243398298177964,0.0141560911951067,-0.0232000086266577));
#1138=CARTESIAN_POINT('',(-0.0243398298177964,0.0141560911951067,-0.0240000086266577));
#1139=CARTESIAN_POINT('',(-0.0270076339377321,0.0190444359615907,-0.0240000086266577));
#1140=CARTESIAN_POINT('',(-0.0243398298177964,0.0141560911951067,-0.0232000086266577));
#1141=CARTESIAN_POINT('',(-0.0270076339377321,0.0190444359615907,-0.0232000086266577));
#1142=CARTESIAN_POINT('',(-0.0270076339377321,0.0190444359615907,-0.0232000086266577));
#1143=CARTESIAN_POINT('',(-0.022414281972048,0.0106278180119145,-0.0232000086266577));
#1144=CARTESIAN_POINT('',(-0.022414281972048,0.0106278180119145,-0.0240000086266577));
#1145=CARTESIAN_POINT('',(-0.0265414485737106,0.0192825760000705,-0.0240000086266577));
#1146=CARTESIAN_POINT('',(-0.022414281972048,0.0106278180119145,-0.0232000086266577));
#1147=CARTESIAN_POINT('',(-0.0265414485737106,0.0192825760000705,-0.0232000086266577));
#1148=CARTESIAN_POINT('',(-0.0265414485737106,0.0192825760000705,-0.0232000086266577));
#1149=CARTESIAN_POINT('',(-0.0281131704240628,0.022578510851359,-0.0232000086266577));
#1150=CARTESIAN_POINT('',(-0.0281131704240628,0.022578510851359,-0.0240000086266577));
#1151=CARTESIAN_POINT('',(-0.0259604938396148,0.0196290228209424,-0.0240000086266577));
#1152=CARTESIAN_POINT('',(-0.0281131704240628,0.022578510851359,-0.0232000086266577));
#1153=CARTESIAN_POINT('',(-0.0259604938396148,0.0196290228209424,-0.0232000086266577));
#1154=CARTESIAN_POINT('',(-0.0259604938396148,0.0196290228209424,-0.0232000086266577));
#1155=CARTESIAN_POINT('',(-0.0286660231561468,0.0233360015620609,-0.0232000086266577));
#1156=CARTESIAN_POINT('',(-0.0286660231561468,0.0233360015620609,-0.0240000086266577));
#1157=CARTESIAN_POINT('',(-0.0249590383709006,0.0206304799951648,-0.0240000086266577));
#1158=CARTESIAN_POINT('',(-0.0286660231561468,0.0233360015620609,-0.0232000086266577));
#1159=CARTESIAN_POINT('',(-0.0249590383709006,0.0206304799951648,-0.0232000086266577));
#1160=CARTESIAN_POINT('',(-0.0249590383709006,0.0206304799951648,-0.0232000086266577));
#1161=CARTESIAN_POINT('',(-0.0279085310089094,0.0227831502665116,-0.0232000086266577));
#1162=CARTESIAN_POINT('',(-0.0279085310089094,0.0227831502665116,-0.0240000086266577));
#1163=CARTESIAN_POINT('',(-0.024612596157623,0.0212114284161606,-0.0240000086266577));
#1164=CARTESIAN_POINT('',(-0.0279085310089094,0.0227831502665116,-0.0232000086266577));
#1165=CARTESIAN_POINT('',(-0.024612596157623,0.0212114284161606,-0.0232000086266577));
#1166=CARTESIAN_POINT('',(-0.024612596157623,0.0212114284161606,-0.0232000086266577));
#1167=CARTESIAN_POINT('',(-0.0159578381694661,0.0170842618144976,-0.0232000086266577));
#1168=CARTESIAN_POINT('',(-0.0159578381694661,0.0170842618144976,-0.0240000086266577));
#1169=CARTESIAN_POINT('',(-0.0243744561191597,0.0216776137801916,-0.0240000086266577));
#1170=CARTESIAN_POINT('',(-0.0159578381694661,0.0170842618144976,-0.0232000086266577));
#1171=CARTESIAN_POINT('',(-0.0243744561191597,0.0216776137801916,-0.0232000086266577));
#1172=CARTESIAN_POINT('',(-0.0243744561191597,0.0216776137801916,-0.0232000086266577));
#1173=CARTESIAN_POINT('',(-0.0194861113526602,0.0190098096602472,-0.0232000086266577));
#1174=CARTESIAN_POINT('',(-0.0194861113526602,0.0190098096602472,-0.0240000086266577));
#1175=CARTESIAN_POINT('',(-0.0241421270194376,0.0220650693037549,-0.0240000086266577));
#1176=CARTESIAN_POINT('',(-0.0194861113526602,0.0190098096602472,-0.0232000086266577));
#1177=CARTESIAN_POINT('',(-0.0241421270194376,0.0220650693037549,-0.0232000086266577));
#1178=CARTESIAN_POINT('',(-0.0241421270194376,0.0220650693037549,-0.0232000086266577));
#1179=CARTESIAN_POINT('',(-0.0194263958956775,0.0189706246061426,-0.0232000086266577));
#1180=CARTESIAN_POINT('',(-0.0194263958956775,0.0189706246061426,-0.0240000086266577));
#1181=CARTESIAN_POINT('',(-0.0239780722020332,0.0223016831196398,-0.0240000086266577));
#1182=CARTESIAN_POINT('',(-0.0194263958956775,0.0189706246061426,-0.0232000086266577));
#1183=CARTESIAN_POINT('',(-0.0239780722020332,0.0223016831196398,-0.0232000086266577));
#1184=CARTESIAN_POINT('',(-0.0239780722020332,0.0223016831196398,-0.0232000086266577));
#1185=CARTESIAN_POINT('',(-0.0285297485083778,0.0189706246061505,-0.0232000086266577));
#1186=CARTESIAN_POINT('',(-0.0285297485083778,0.0189706246061505,-0.0240000086266577));
#1187=CARTESIAN_POINT('',(-0.0238140173846116,0.022065069303734,-0.0240000086266577));
#1188=CARTESIAN_POINT('',(-0.0285297485083778,0.0189706246061505,-0.0232000086266577));
#1189=CARTESIAN_POINT('',(-0.0238140173846116,0.022065069303734,-0.0232000086266577));
#1190=CARTESIAN_POINT('',(-0.0238140173846116,0.022065069303734,-0.0232000086266577));
#1191=CARTESIAN_POINT('',(-0.0284700330514073,0.0190098096602463,-0.0232000086266577));
#1192=CARTESIAN_POINT('',(-0.0284700330514073,0.0190098096602463,-0.0240000086266577));
#1193=CARTESIAN_POINT('',(-0.0235816882849249,0.0216776137801815,-0.0240000086266577));
#1194=CARTESIAN_POINT('',(-0.0284700330514073,0.0190098096602463,-0.0232000086266577));
#1195=CARTESIAN_POINT('',(-0.0235816882849249,0.0216776137801815,-0.0232000086266577));
#1196=CARTESIAN_POINT('',(-0.0235816882849249,0.0216776137801815,-0.0232000086266577));
#1197=CARTESIAN_POINT('',(-0.0319983062345868,0.0170842618145044,-0.0232000086266577));
#1198=CARTESIAN_POINT('',(-0.0319983062345868,0.0170842618145044,-0.0240000086266577));
#1199=CARTESIAN_POINT('',(-0.0233435482464451,0.0212114284161599,-0.0240000086266577));
#1200=CARTESIAN_POINT('',(-0.0319983062345868,0.0170842618145044,-0.0232000086266577));
#1201=CARTESIAN_POINT('',(-0.0233435482464451,0.0212114284161599,-0.0232000086266577));
#1202=CARTESIAN_POINT('',(-0.0233435482464451,0.0212114284161599,-0.0232000086266577));
#1203=CARTESIAN_POINT('',(-0.0200476133951572,0.0227831502665115,-0.0232000086266577));
#1204=CARTESIAN_POINT('',(-0.0200476133951572,0.0227831502665115,-0.0240000086266577));
#1205=CARTESIAN_POINT('',(-0.022997101425573,0.0206304736820637,-0.0240000086266577));
#1206=CARTESIAN_POINT('',(-0.0200476133951572,0.0227831502665115,-0.0232000086266577));
#1207=CARTESIAN_POINT('',(-0.022997101425573,0.0206304736820637,-0.0232000086266577));
#1208=CARTESIAN_POINT('',(-0.022997101425573,0.0206304736820637,-0.0232000086266577));
#1209=CARTESIAN_POINT('',(-0.0192901226844536,0.0233360029985967,-0.0232000086266577));
#1210=CARTESIAN_POINT('',(-0.0192901226844536,0.0233360029985967,-0.0240000086266577));
#1211=CARTESIAN_POINT('',(-0.0219956442513514,0.0196290182133503,-0.0240000086266577));
#1212=CARTESIAN_POINT('',(-0.0192901226844536,0.0233360029985967,-0.0232000086266577));
#1213=CARTESIAN_POINT('',(-0.0219956442513514,0.0196290182133503,-0.0232000086266577));
#1214=CARTESIAN_POINT('',(-0.0219956442513514,0.0196290182133503,-0.0232000086266577));
#1215=CARTESIAN_POINT('',(-0.0198429739800041,0.0225785108513583,-0.0232000086266577));
#1216=CARTESIAN_POINT('',(-0.0198429739800041,0.0225785108513583,-0.0240000086266577));
#1217=CARTESIAN_POINT('',(-0.0214146958303548,0.0192825760000722,-0.0240000086266577));
#1218=CARTESIAN_POINT('',(-0.0198429739800041,0.0225785108513583,-0.0232000086266577));
#1219=CARTESIAN_POINT('',(-0.0214146958303548,0.0192825760000722,-0.0232000086266577));
#1220=CARTESIAN_POINT('',(-0.0214146958303548,0.0192825760000722,-0.0232000086266577));
#1221=CARTESIAN_POINT('',(-0.0255418624320137,0.0106278180119229,-0.0232000086266577));
#1222=CARTESIAN_POINT('',(-0.0255418624320137,0.0106278180119229,-0.0240000086266577));
#1223=CARTESIAN_POINT('',(-0.0209485104663241,0.019044435961609,-0.0240000086266577));
#1224=CARTESIAN_POINT('',(-0.0255418624320137,0.0106278180119229,-0.0232000086266577));
#1225=CARTESIAN_POINT('',(-0.0209485104663241,0.019044435961609,-0.0232000086266577));
#1226=CARTESIAN_POINT('',(-0.0209485104663241,0.019044435961609,-0.0232000086266577));
#1227=CARTESIAN_POINT('',(-0.0236163145862692,0.0141560911951082,-0.0232000086266577));
#1228=CARTESIAN_POINT('',(-0.0236163145862692,0.0141560911951082,-0.0240000086266577));
#1229=CARTESIAN_POINT('',(-0.0205610549427786,0.0188121068618987,-0.0240000086266577));
#1230=CARTESIAN_POINT('',(-0.0236163145862692,0.0141560911951082,-0.0232000086266577));
#1231=CARTESIAN_POINT('',(-0.0205610549427786,0.0188121068618987,-0.0232000086266577));
#1232=CARTESIAN_POINT('',(-0.0205610549427786,0.0188121068618987,-0.0232000086266577));
#1233=CARTESIAN_POINT('',(-0.0236554996403645,0.0140963757381386,-0.0232000086266577));
#1234=CARTESIAN_POINT('',(-0.0236554996403645,0.0140963757381386,-0.0240000086266577));
#1235=CARTESIAN_POINT('',(-0.0203244411268758,0.0186480520444823,-0.0240000086266577));
#1236=CARTESIAN_POINT('',(-0.0236554996403645,0.0140963757381386,-0.0232000086266577));
#1237=CARTESIAN_POINT('',(-0.0203244411268758,0.0186480520444823,-0.0232000086266577));
#1238=CARTESIAN_POINT('',(-0.0203244411268758,0.0186480520444823,-0.0232000086266577));
#1239=CARTESIAN_POINT('',(-0.0236554996403633,0.023199728350824,-0.0232000086266577));
#1240=CARTESIAN_POINT('',(-0.0236554996403633,0.023199728350824,-0.0240000086266577));
#1241=CARTESIAN_POINT('',(-0.0205610549427757,0.0184839972270645,-0.0240000086266577));
#1242=CARTESIAN_POINT('',(-0.0236554996403633,0.023199728350824,-0.0232000086266577));
#1243=CARTESIAN_POINT('',(-0.0205610549427757,0.0184839972270645,-0.0232000086266577));
#1244=CARTESIAN_POINT('',(-0.0205610549427757,0.0184839972270645,-0.0232000086266577));
#1245=CARTESIAN_POINT('',(-0.0236163145862701,0.0231400128938582,-0.0232000086266577));
#1246=CARTESIAN_POINT('',(-0.0236163145862701,0.0231400128938582,-0.0240000086266577));
#1247=CARTESIAN_POINT('',(-0.0209485104663339,0.0182516681273741,-0.0240000086266577));
#1248=CARTESIAN_POINT('',(-0.0236163145862701,0.0231400128938582,-0.0232000086266577));
#1249=CARTESIAN_POINT('',(-0.0209485104663339,0.0182516681273741,-0.0232000086266577));
#1250=CARTESIAN_POINT('',(-0.0209485104663339,0.0182516681273741,-0.0232000086266577));
#1251=CARTESIAN_POINT('',(-0.0255418624320131,0.0266682860770407,-0.0232000086266577));
#1252=CARTESIAN_POINT('',(-0.0255418624320131,0.0266682860770407,-0.0240000086266577));
#1253=CARTESIAN_POINT('',(-0.0214146958303556,0.0180135280888942,-0.0240000086266577));
#1254=CARTESIAN_POINT('',(-0.0255418624320131,0.0266682860770407,-0.0232000086266577));
#1255=CARTESIAN_POINT('',(-0.0214146958303556,0.0180135280888942,-0.0232000086266577));
#1256=CARTESIAN_POINT('',(-0.0214146958303556,0.0180135280888942,-0.0232000086266577));
#1257=CARTESIAN_POINT('',(-0.019842973980004,0.0147175932376063,-0.0232000086266577));
#1258=CARTESIAN_POINT('',(-0.019842973980004,0.0147175932376063,-0.0240000086266577));
#1259=CARTESIAN_POINT('',(-0.0219956505644516,0.0176670812680221,-0.0240000086266577));
#1260=CARTESIAN_POINT('',(-0.019842973980004,0.0147175932376063,-0.0232000086266577));
#1261=CARTESIAN_POINT('',(-0.0219956505644516,0.0176670812680221,-0.0232000086266577));
#1262=CARTESIAN_POINT('',(-0.0219956505644516,0.0176670812680221,-0.0232000086266577));
#1263=CARTESIAN_POINT('',(-0.0192901212479189,0.013960102526903,-0.0232000086266577));
#1264=CARTESIAN_POINT('',(-0.0192901212479189,0.013960102526903,-0.0240000086266577));
#1265=CARTESIAN_POINT('',(-0.0229971060331654,0.0166656240938002,-0.0240000086266577));
#1266=CARTESIAN_POINT('',(-0.0192901212479189,0.013960102526903,-0.0232000086266577));
#1267=CARTESIAN_POINT('',(-0.0229971060331654,0.0166656240938002,-0.0232000086266577));
#1268=CARTESIAN_POINT('',(-0.0229971060331654,0.0166656240938002,-0.0232000086266577));
#1269=CARTESIAN_POINT('',(-0.0200476133951575,0.0145129538224533,-0.0232000086266577));
#1270=CARTESIAN_POINT('',(-0.0200476133951575,0.0145129538224533,-0.0240000086266577));
#1271=CARTESIAN_POINT('',(-0.0233435482464433,0.0160846756728039,-0.0240000086266577));
#1272=CARTESIAN_POINT('',(-0.0200476133951575,0.0145129538224533,-0.0232000086266577));
#1273=CARTESIAN_POINT('',(-0.0233435482464433,0.0160846756728039,-0.0232000086266577));
#1274=CARTESIAN_POINT('',(-0.0233435482464433,0.0160846756728039,-0.0232000086266577));
#1275=CARTESIAN_POINT('',(-0.0319983062345931,0.0202118422744632,-0.0232000086266577));
#1276=CARTESIAN_POINT('',(-0.0319983062345931,0.0202118422744632,-0.0240000086266577));
#1277=CARTESIAN_POINT('',(-0.0235816882849067,0.0156184903087729,-0.0240000086266577));
#1278=CARTESIAN_POINT('',(-0.0319983062345931,0.0202118422744632,-0.0232000086266577));
#1279=CARTESIAN_POINT('',(-0.0235816882849067,0.0156184903087729,-0.0232000086266577));
#1280=CARTESIAN_POINT('',(-0.0235816882849067,0.0156184903087729,-0.0232000086266577));
#1281=CARTESIAN_POINT('',(-0.0284700330514036,0.018286294428716,-0.0232000086266577));
#1282=CARTESIAN_POINT('',(-0.0284700330514036,0.018286294428716,-0.0240000086266577));
#1283=CARTESIAN_POINT('',(-0.0238140173846102,0.015231034785238,-0.0240000086266577));
#1284=CARTESIAN_POINT('',(-0.0284700330514036,0.018286294428716,-0.0232000086266577));
#1285=CARTESIAN_POINT('',(-0.0238140173846102,0.015231034785238,-0.0232000086266577));
#1286=CARTESIAN_POINT('',(-0.0238140173846102,0.015231034785238,-0.0232000086266577));
#1287=CARTESIAN_POINT('',(-0.0285297485083773,0.0183254794828139,-0.0232000086266577));
#1288=CARTESIAN_POINT('',(-0.0285297485083773,0.0183254794828139,-0.0240000086266577));
#1289=CARTESIAN_POINT('',(-0.0239780722020332,0.0149944209693249,-0.0240000086266577));
#1290=CARTESIAN_POINT('',(-0.0285297485083773,0.0183254794828139,-0.0232000086266577));
#1291=CARTESIAN_POINT('',(-0.0239780722020332,0.0149944209693249,-0.0232000086266577));
#1292=CARTESIAN_POINT('',(-0.0239780722020332,0.0149944209693249,-0.0232000086266577));
#1293=CARTESIAN_POINT('',(-0.0194263958956848,0.0183254794828169,-0.0232000086266577));
#1294=CARTESIAN_POINT('',(-0.0194263958956848,0.0183254794828169,-0.0240000086266577));
#1295=CARTESIAN_POINT('',(-0.0241421270194484,0.015231034785221,-0.0240000086266577));
#1296=CARTESIAN_POINT('',(-0.0194263958956848,0.0183254794828169,-0.0232000086266577));
#1297=CARTESIAN_POINT('',(-0.0241421270194484,0.015231034785221,-0.0232000086266577));
#1298=CARTESIAN_POINT('',(-0.0241421270194484,0.015231034785221,-0.0232000086266577));
#1299=CARTESIAN_POINT('',(-0.019486111352661,0.0182862944287171,-0.0232000086266577));
#1300=CARTESIAN_POINT('',(-0.019486111352661,0.0182862944287171,-0.0240000086266577));
#1301=CARTESIAN_POINT('',(-0.019486111352661,0.0182862944287171,-0.0232000086266577));
#1302=CARTESIAN_POINT('',(1.77635683940025E-15,-0.00100021562487935,-0.0232000086266577));
#1303=CARTESIAN_POINT('',(1.77635683940025E-15,-0.00100021562487935,-0.0240000086266577));
#1304=MECHANICAL_DESIGN_GEOMETRIC_PRESENTATION_REPRESENTATION('',(#705),
#1305);
#1305=(
GEOMETRIC_REPRESENTATION_CONTEXT(3)
GLOBAL_UNCERTAINTY_ASSIGNED_CONTEXT((#1306))
GLOBAL_UNIT_ASSIGNED_CONTEXT((#1309,#1308,#1307))
REPRESENTATION_CONTEXT('ValinorStar3','TOP_LEVEL_ASSEMBLY_PART')
);
#1306=UNCERTAINTY_MEASURE_WITH_UNIT(LENGTH_MEASURE(1.E-8),#1309,
'DISTANCE_ACCURACY_VALUE','Maximum Tolerance applied to model');
#1307=(
NAMED_UNIT(*)
SI_UNIT($,.STERADIAN.)
SOLID_ANGLE_UNIT()
);
#1308=(
NAMED_UNIT(*)
PLANE_ANGLE_UNIT()
SI_UNIT($,.RADIAN.)
);
#1309=(
LENGTH_UNIT()
NAMED_UNIT(*)
SI_UNIT($,.METRE.)
);
#1310=PRODUCT_DEFINITION_SHAPE('','',#1311);
#1311=PRODUCT_DEFINITION('','',#1313,#1312);
#1312=PRODUCT_DEFINITION_CONTEXT('',#1319,'design');
#1313=PRODUCT_DEFINITION_FORMATION_WITH_SPECIFIED_SOURCE('','',#1315,
 .NOT_KNOWN.);
#1314=PRODUCT_RELATED_PRODUCT_CATEGORY('','',(#1315));
#1315=PRODUCT('ValinorStar3','ValinorStar3','ValinorStar3',(#1317));
#1316=PRODUCT_CATEGORY('','');
#1317=PRODUCT_CONTEXT('',#1319,'mechanical');
#1318=APPLICATION_PROTOCOL_DEFINITION('international standard',
'ap242_managed_model_based_3d_engineering',2020,#1319);
#1319=APPLICATION_CONTEXT('managed model based 3d engineering');
ENDSEC;
END-ISO-10303-21;
