ISO-10303-21;
HEADER;
/* Generated by software containing ST-Developer
 * from STEP Tools, Inc. (www.steptools.com) 
 */
/* OPTION: using custom renumber hook */

FILE_DESCRIPTION(
/* description */ ('STEP AP242 Edition 2',
'CAx-IF Rec.Pracs.---Representation and Presentation of Product Manufa
cturing Information (PMI)---4.0---2014-10-13',
'CAx-IF Rec.Pracs.---3D Tessellated Geometry---0.4---2014-09-14','2;1',
'CAx-IF Rec.Pracs.---User Defined Attributes---1.5---2016-08-15'),
/* implementation_level */ '2;1');

FILE_NAME(
/* name */ 'CompleteShell - ForgeE3',
/* time_stamp */ '2026-09-23T14:41:01Z',
/* author */ (''),
/* organization */ (''),
/* preprocessor_version */ 'ST-DEVELOPER v20',
/* originating_system */ 'ONSHAPE BY PTC INC, 1.221',
/* authorisation */ '  ');

FILE_SCHEMA (('AP242_MANAGED_MODEL_BASED_3D_ENGINEERING_MIM_LF { 1 0 10303 442 3 1 4 }'));
ENDSEC;

DATA;
#10=SHAPE_REPRESENTATION_RELATIONSHIP('','',#432,#11);
#11=ADVANCED_BREP_SHAPE_REPRESENTATION('',(#430),#778);
#12=CIRCLE('',#436,0.00213656533618024);
#13=CIRCLE('',#437,0.00213656533618024);
#14=CIRCLE('',#439,0.0102702714264901);
#15=CIRCLE('',#440,0.0102702714264901);
#16=CIRCLE('',#442,0.0100743675720337);
#17=CIRCLE('',#443,0.0100743675720337);
#18=CIRCLE('',#445,0.0020140476244524);
#19=CIRCLE('',#446,0.0020140476244524);
#20=CIRCLE('',#448,0.00149379188431287);
#21=CIRCLE('',#449,0.00149379188431287);
#22=CIRCLE('',#451,0.0036289363596707);
#23=CIRCLE('',#452,0.0036289363596707);
#24=CIRCLE('',#454,0.00378725908797662);
#25=CIRCLE('',#455,0.00378725908797662);
#26=CIRCLE('',#457,0.00171107509428137);
#27=CIRCLE('',#458,0.00171107509428137);
#28=CIRCLE('',#460,0.00100750548737174);
#29=CIRCLE('',#461,0.00100750548737174);
#30=CIRCLE('',#463,3.72912781456173E-5);
#31=CIRCLE('',#464,3.72912781456173E-5);
#32=CIRCLE('',#466,4.33276737046186E-5);
#33=CIRCLE('',#467,4.33276737046186E-5);
#34=CIRCLE('',#469,0.000627520929688219);
#35=CIRCLE('',#470,0.000627520929688219);
#36=CIRCLE('',#472,0.0148869416776836);
#37=CIRCLE('',#473,0.0148869416776836);
#38=CIRCLE('',#475,0.0139538921680734);
#39=CIRCLE('',#476,0.0139538921680734);
#40=CIRCLE('',#478,0.00115646976108232);
#41=CIRCLE('',#479,0.00115646976108232);
#42=CIRCLE('',#481,0.000334410416549908);
#43=CIRCLE('',#482,0.000334410416549908);
#44=CIRCLE('',#484,0.000788299982027583);
#45=CIRCLE('',#485,0.000788299982027583);
#46=CIRCLE('',#487,0.00220787998819851);
#47=CIRCLE('',#488,0.00220787998819851);
#48=CIRCLE('',#490,0.0542675101858634);
#49=CIRCLE('',#491,0.0542675101858634);
#50=CIRCLE('',#493,0.0482327157243896);
#51=CIRCLE('',#494,0.0482327157243896);
#52=CYLINDRICAL_SURFACE('',#435,0.00213656533618024);
#53=CYLINDRICAL_SURFACE('',#438,0.0102702714264901);
#54=CYLINDRICAL_SURFACE('',#441,0.0100743675720337);
#55=CYLINDRICAL_SURFACE('',#444,0.0020140476244524);
#56=CYLINDRICAL_SURFACE('',#447,0.00149379188431287);
#57=CYLINDRICAL_SURFACE('',#450,0.0036289363596707);
#58=CYLINDRICAL_SURFACE('',#453,0.00378725908797662);
#59=CYLINDRICAL_SURFACE('',#456,0.00171107509428137);
#60=CYLINDRICAL_SURFACE('',#459,0.00100750548737174);
#61=CYLINDRICAL_SURFACE('',#462,3.72912781456173E-5);
#62=CYLINDRICAL_SURFACE('',#465,4.33276737046186E-5);
#63=CYLINDRICAL_SURFACE('',#468,0.000627520929688219);
#64=CYLINDRICAL_SURFACE('',#471,0.0148869416776836);
#65=CYLINDRICAL_SURFACE('',#474,0.0139538921680734);
#66=CYLINDRICAL_SURFACE('',#477,0.00115646976108232);
#67=CYLINDRICAL_SURFACE('',#480,0.000334410416549908);
#68=CYLINDRICAL_SURFACE('',#483,0.000788299982027583);
#69=CYLINDRICAL_SURFACE('',#486,0.00220787998819851);
#70=CYLINDRICAL_SURFACE('',#489,0.0542675101858634);
#71=CYLINDRICAL_SURFACE('',#492,0.0482327157243896);
#72=ORIENTED_EDGE('',*,*,#198,.T.);
#73=ORIENTED_EDGE('',*,*,#199,.F.);
#74=ORIENTED_EDGE('',*,*,#200,.F.);
#75=ORIENTED_EDGE('',*,*,#201,.T.);
#76=ORIENTED_EDGE('',*,*,#202,.T.);
#77=ORIENTED_EDGE('',*,*,#203,.F.);
#78=ORIENTED_EDGE('',*,*,#204,.F.);
#79=ORIENTED_EDGE('',*,*,#199,.T.);
#80=ORIENTED_EDGE('',*,*,#205,.T.);
#81=ORIENTED_EDGE('',*,*,#206,.F.);
#82=ORIENTED_EDGE('',*,*,#207,.F.);
#83=ORIENTED_EDGE('',*,*,#203,.T.);
#84=ORIENTED_EDGE('',*,*,#208,.T.);
#85=ORIENTED_EDGE('',*,*,#209,.F.);
#86=ORIENTED_EDGE('',*,*,#210,.F.);
#87=ORIENTED_EDGE('',*,*,#206,.T.);
#88=ORIENTED_EDGE('',*,*,#211,.T.);
#89=ORIENTED_EDGE('',*,*,#212,.F.);
#90=ORIENTED_EDGE('',*,*,#213,.F.);
#91=ORIENTED_EDGE('',*,*,#209,.T.);
#92=ORIENTED_EDGE('',*,*,#214,.T.);
#93=ORIENTED_EDGE('',*,*,#215,.F.);
#94=ORIENTED_EDGE('',*,*,#216,.F.);
#95=ORIENTED_EDGE('',*,*,#212,.T.);
#96=ORIENTED_EDGE('',*,*,#217,.T.);
#97=ORIENTED_EDGE('',*,*,#218,.F.);
#98=ORIENTED_EDGE('',*,*,#219,.F.);
#99=ORIENTED_EDGE('',*,*,#215,.T.);
#100=ORIENTED_EDGE('',*,*,#220,.T.);
#101=ORIENTED_EDGE('',*,*,#221,.F.);
#102=ORIENTED_EDGE('',*,*,#222,.F.);
#103=ORIENTED_EDGE('',*,*,#218,.T.);
#104=ORIENTED_EDGE('',*,*,#223,.T.);
#105=ORIENTED_EDGE('',*,*,#224,.F.);
#106=ORIENTED_EDGE('',*,*,#225,.F.);
#107=ORIENTED_EDGE('',*,*,#221,.T.);
#108=ORIENTED_EDGE('',*,*,#226,.T.);
#109=ORIENTED_EDGE('',*,*,#227,.F.);
#110=ORIENTED_EDGE('',*,*,#228,.F.);
#111=ORIENTED_EDGE('',*,*,#224,.T.);
#112=ORIENTED_EDGE('',*,*,#229,.T.);
#113=ORIENTED_EDGE('',*,*,#230,.F.);
#114=ORIENTED_EDGE('',*,*,#231,.F.);
#115=ORIENTED_EDGE('',*,*,#227,.T.);
#116=ORIENTED_EDGE('',*,*,#232,.T.);
#117=ORIENTED_EDGE('',*,*,#233,.F.);
#118=ORIENTED_EDGE('',*,*,#234,.F.);
#119=ORIENTED_EDGE('',*,*,#230,.T.);
#120=ORIENTED_EDGE('',*,*,#235,.T.);
#121=ORIENTED_EDGE('',*,*,#236,.F.);
#122=ORIENTED_EDGE('',*,*,#237,.F.);
#123=ORIENTED_EDGE('',*,*,#233,.T.);
#124=ORIENTED_EDGE('',*,*,#238,.T.);
#125=ORIENTED_EDGE('',*,*,#239,.F.);
#126=ORIENTED_EDGE('',*,*,#240,.F.);
#127=ORIENTED_EDGE('',*,*,#236,.T.);
#128=ORIENTED_EDGE('',*,*,#241,.T.);
#129=ORIENTED_EDGE('',*,*,#242,.F.);
#130=ORIENTED_EDGE('',*,*,#243,.F.);
#131=ORIENTED_EDGE('',*,*,#239,.T.);
#132=ORIENTED_EDGE('',*,*,#244,.T.);
#133=ORIENTED_EDGE('',*,*,#245,.F.);
#134=ORIENTED_EDGE('',*,*,#246,.F.);
#135=ORIENTED_EDGE('',*,*,#242,.T.);
#136=ORIENTED_EDGE('',*,*,#247,.T.);
#137=ORIENTED_EDGE('',*,*,#248,.F.);
#138=ORIENTED_EDGE('',*,*,#249,.F.);
#139=ORIENTED_EDGE('',*,*,#245,.T.);
#140=ORIENTED_EDGE('',*,*,#250,.T.);
#141=ORIENTED_EDGE('',*,*,#251,.F.);
#142=ORIENTED_EDGE('',*,*,#252,.F.);
#143=ORIENTED_EDGE('',*,*,#248,.T.);
#144=ORIENTED_EDGE('',*,*,#253,.T.);
#145=ORIENTED_EDGE('',*,*,#254,.F.);
#146=ORIENTED_EDGE('',*,*,#255,.F.);
#147=ORIENTED_EDGE('',*,*,#251,.T.);
#148=ORIENTED_EDGE('',*,*,#256,.T.);
#149=ORIENTED_EDGE('',*,*,#257,.F.);
#150=ORIENTED_EDGE('',*,*,#258,.F.);
#151=ORIENTED_EDGE('',*,*,#254,.T.);
#152=ORIENTED_EDGE('',*,*,#259,.T.);
#153=ORIENTED_EDGE('',*,*,#201,.F.);
#154=ORIENTED_EDGE('',*,*,#260,.F.);
#155=ORIENTED_EDGE('',*,*,#257,.T.);
#156=ORIENTED_EDGE('',*,*,#200,.T.);
#157=ORIENTED_EDGE('',*,*,#204,.T.);
#158=ORIENTED_EDGE('',*,*,#207,.T.);
#159=ORIENTED_EDGE('',*,*,#210,.T.);
#160=ORIENTED_EDGE('',*,*,#213,.T.);
#161=ORIENTED_EDGE('',*,*,#216,.T.);
#162=ORIENTED_EDGE('',*,*,#219,.T.);
#163=ORIENTED_EDGE('',*,*,#222,.T.);
#164=ORIENTED_EDGE('',*,*,#225,.T.);
#165=ORIENTED_EDGE('',*,*,#228,.T.);
#166=ORIENTED_EDGE('',*,*,#231,.T.);
#167=ORIENTED_EDGE('',*,*,#234,.T.);
#168=ORIENTED_EDGE('',*,*,#237,.T.);
#169=ORIENTED_EDGE('',*,*,#240,.T.);
#170=ORIENTED_EDGE('',*,*,#243,.T.);
#171=ORIENTED_EDGE('',*,*,#246,.T.);
#172=ORIENTED_EDGE('',*,*,#249,.T.);
#173=ORIENTED_EDGE('',*,*,#252,.T.);
#174=ORIENTED_EDGE('',*,*,#255,.T.);
#175=ORIENTED_EDGE('',*,*,#258,.T.);
#176=ORIENTED_EDGE('',*,*,#260,.T.);
#177=ORIENTED_EDGE('',*,*,#198,.F.);
#178=ORIENTED_EDGE('',*,*,#259,.F.);
#179=ORIENTED_EDGE('',*,*,#256,.F.);
#180=ORIENTED_EDGE('',*,*,#253,.F.);
#181=ORIENTED_EDGE('',*,*,#250,.F.);
#182=ORIENTED_EDGE('',*,*,#247,.F.);
#183=ORIENTED_EDGE('',*,*,#244,.F.);
#184=ORIENTED_EDGE('',*,*,#241,.F.);
#185=ORIENTED_EDGE('',*,*,#238,.F.);
#186=ORIENTED_EDGE('',*,*,#235,.F.);
#187=ORIENTED_EDGE('',*,*,#232,.F.);
#188=ORIENTED_EDGE('',*,*,#229,.F.);
#189=ORIENTED_EDGE('',*,*,#226,.F.);
#190=ORIENTED_EDGE('',*,*,#223,.F.);
#191=ORIENTED_EDGE('',*,*,#220,.F.);
#192=ORIENTED_EDGE('',*,*,#217,.F.);
#193=ORIENTED_EDGE('',*,*,#214,.F.);
#194=ORIENTED_EDGE('',*,*,#211,.F.);
#195=ORIENTED_EDGE('',*,*,#208,.F.);
#196=ORIENTED_EDGE('',*,*,#205,.F.);
#197=ORIENTED_EDGE('',*,*,#202,.F.);
#198=EDGE_CURVE('',#261,#262,#303,.T.);
#199=EDGE_CURVE('',#263,#262,#304,.T.);
#200=EDGE_CURVE('',#264,#263,#305,.T.);
#201=EDGE_CURVE('',#264,#261,#306,.T.);
#202=EDGE_CURVE('',#262,#265,#12,.T.);
#203=EDGE_CURVE('',#266,#265,#307,.T.);
#204=EDGE_CURVE('',#263,#266,#13,.T.);
#205=EDGE_CURVE('',#265,#267,#14,.T.);
#206=EDGE_CURVE('',#268,#267,#308,.T.);
#207=EDGE_CURVE('',#266,#268,#15,.T.);
#208=EDGE_CURVE('',#267,#269,#16,.T.);
#209=EDGE_CURVE('',#270,#269,#309,.T.);
#210=EDGE_CURVE('',#268,#270,#17,.T.);
#211=EDGE_CURVE('',#269,#271,#18,.T.);
#212=EDGE_CURVE('',#272,#271,#310,.T.);
#213=EDGE_CURVE('',#270,#272,#19,.T.);
#214=EDGE_CURVE('',#271,#273,#20,.T.);
#215=EDGE_CURVE('',#274,#273,#311,.T.);
#216=EDGE_CURVE('',#272,#274,#21,.T.);
#217=EDGE_CURVE('',#273,#275,#22,.T.);
#218=EDGE_CURVE('',#276,#275,#312,.T.);
#219=EDGE_CURVE('',#274,#276,#23,.T.);
#220=EDGE_CURVE('',#275,#277,#24,.T.);
#221=EDGE_CURVE('',#278,#277,#313,.T.);
#222=EDGE_CURVE('',#276,#278,#25,.T.);
#223=EDGE_CURVE('',#277,#279,#26,.T.);
#224=EDGE_CURVE('',#280,#279,#314,.T.);
#225=EDGE_CURVE('',#278,#280,#27,.T.);
#226=EDGE_CURVE('',#279,#281,#28,.T.);
#227=EDGE_CURVE('',#282,#281,#315,.T.);
#228=EDGE_CURVE('',#280,#282,#29,.T.);
#229=EDGE_CURVE('',#281,#283,#30,.T.);
#230=EDGE_CURVE('',#284,#283,#316,.T.);
#231=EDGE_CURVE('',#282,#284,#31,.T.);
#232=EDGE_CURVE('',#283,#285,#32,.T.);
#233=EDGE_CURVE('',#286,#285,#317,.T.);
#234=EDGE_CURVE('',#284,#286,#33,.T.);
#235=EDGE_CURVE('',#285,#287,#34,.T.);
#236=EDGE_CURVE('',#288,#287,#318,.T.);
#237=EDGE_CURVE('',#286,#288,#35,.T.);
#238=EDGE_CURVE('',#287,#289,#36,.T.);
#239=EDGE_CURVE('',#290,#289,#319,.T.);
#240=EDGE_CURVE('',#288,#290,#37,.T.);
#241=EDGE_CURVE('',#289,#291,#38,.T.);
#242=EDGE_CURVE('',#292,#291,#320,.T.);
#243=EDGE_CURVE('',#290,#292,#39,.T.);
#244=EDGE_CURVE('',#291,#293,#40,.T.);
#245=EDGE_CURVE('',#294,#293,#321,.T.);
#246=EDGE_CURVE('',#292,#294,#41,.T.);
#247=EDGE_CURVE('',#293,#295,#42,.T.);
#248=EDGE_CURVE('',#296,#295,#322,.T.);
#249=EDGE_CURVE('',#294,#296,#43,.T.);
#250=EDGE_CURVE('',#295,#297,#44,.T.);
#251=EDGE_CURVE('',#298,#297,#323,.T.);
#252=EDGE_CURVE('',#296,#298,#45,.T.);
#253=EDGE_CURVE('',#297,#299,#46,.T.);
#254=EDGE_CURVE('',#300,#299,#324,.T.);
#255=EDGE_CURVE('',#298,#300,#47,.T.);
#256=EDGE_CURVE('',#299,#301,#48,.T.);
#257=EDGE_CURVE('',#302,#301,#325,.T.);
#258=EDGE_CURVE('',#300,#302,#49,.T.);
#259=EDGE_CURVE('',#301,#261,#50,.T.);
#260=EDGE_CURVE('',#302,#264,#51,.T.);
#261=VERTEX_POINT('',#651);
#262=VERTEX_POINT('',#652);
#263=VERTEX_POINT('',#654);
#264=VERTEX_POINT('',#656);
#265=VERTEX_POINT('',#660);
#266=VERTEX_POINT('',#662);
#267=VERTEX_POINT('',#666);
#268=VERTEX_POINT('',#668);
#269=VERTEX_POINT('',#672);
#270=VERTEX_POINT('',#674);
#271=VERTEX_POINT('',#678);
#272=VERTEX_POINT('',#680);
#273=VERTEX_POINT('',#684);
#274=VERTEX_POINT('',#686);
#275=VERTEX_POINT('',#690);
#276=VERTEX_POINT('',#692);
#277=VERTEX_POINT('',#696);
#278=VERTEX_POINT('',#698);
#279=VERTEX_POINT('',#702);
#280=VERTEX_POINT('',#704);
#281=VERTEX_POINT('',#708);
#282=VERTEX_POINT('',#710);
#283=VERTEX_POINT('',#714);
#284=VERTEX_POINT('',#716);
#285=VERTEX_POINT('',#720);
#286=VERTEX_POINT('',#722);
#287=VERTEX_POINT('',#726);
#288=VERTEX_POINT('',#728);
#289=VERTEX_POINT('',#732);
#290=VERTEX_POINT('',#734);
#291=VERTEX_POINT('',#738);
#292=VERTEX_POINT('',#740);
#293=VERTEX_POINT('',#744);
#294=VERTEX_POINT('',#746);
#295=VERTEX_POINT('',#750);
#296=VERTEX_POINT('',#752);
#297=VERTEX_POINT('',#756);
#298=VERTEX_POINT('',#758);
#299=VERTEX_POINT('',#762);
#300=VERTEX_POINT('',#764);
#301=VERTEX_POINT('',#768);
#302=VERTEX_POINT('',#770);
#303=LINE('',#650,#326);
#304=LINE('',#653,#327);
#305=LINE('',#655,#328);
#306=LINE('',#657,#329);
#307=LINE('',#661,#330);
#308=LINE('',#667,#331);
#309=LINE('',#673,#332);
#310=LINE('',#679,#333);
#311=LINE('',#685,#334);
#312=LINE('',#691,#335);
#313=LINE('',#697,#336);
#314=LINE('',#703,#337);
#315=LINE('',#709,#338);
#316=LINE('',#715,#339);
#317=LINE('',#721,#340);
#318=LINE('',#727,#341);
#319=LINE('',#733,#342);
#320=LINE('',#739,#343);
#321=LINE('',#745,#344);
#322=LINE('',#751,#345);
#323=LINE('',#757,#346);
#324=LINE('',#763,#347);
#325=LINE('',#769,#348);
#326=VECTOR('',#501,1.);
#327=VECTOR('',#502,1.);
#328=VECTOR('',#503,1.);
#329=VECTOR('',#504,1.);
#330=VECTOR('',#509,1.);
#331=VECTOR('',#516,1.);
#332=VECTOR('',#523,1.);
#333=VECTOR('',#530,1.);
#334=VECTOR('',#537,1.);
#335=VECTOR('',#544,1.);
#336=VECTOR('',#551,1.);
#337=VECTOR('',#558,1.);
#338=VECTOR('',#565,1.);
#339=VECTOR('',#572,1.);
#340=VECTOR('',#579,1.);
#341=VECTOR('',#586,1.);
#342=VECTOR('',#593,1.);
#343=VECTOR('',#600,1.);
#344=VECTOR('',#607,1.);
#345=VECTOR('',#614,1.);
#346=VECTOR('',#621,1.);
#347=VECTOR('',#628,1.);
#348=VECTOR('',#635,1.);
#349=EDGE_LOOP('',(#72,#73,#74,#75));
#350=EDGE_LOOP('',(#76,#77,#78,#79));
#351=EDGE_LOOP('',(#80,#81,#82,#83));
#352=EDGE_LOOP('',(#84,#85,#86,#87));
#353=EDGE_LOOP('',(#88,#89,#90,#91));
#354=EDGE_LOOP('',(#92,#93,#94,#95));
#355=EDGE_LOOP('',(#96,#97,#98,#99));
#356=EDGE_LOOP('',(#100,#101,#102,#103));
#357=EDGE_LOOP('',(#104,#105,#106,#107));
#358=EDGE_LOOP('',(#108,#109,#110,#111));
#359=EDGE_LOOP('',(#112,#113,#114,#115));
#360=EDGE_LOOP('',(#116,#117,#118,#119));
#361=EDGE_LOOP('',(#120,#121,#122,#123));
#362=EDGE_LOOP('',(#124,#125,#126,#127));
#363=EDGE_LOOP('',(#128,#129,#130,#131));
#364=EDGE_LOOP('',(#132,#133,#134,#135));
#365=EDGE_LOOP('',(#136,#137,#138,#139));
#366=EDGE_LOOP('',(#140,#141,#142,#143));
#367=EDGE_LOOP('',(#144,#145,#146,#147));
#368=EDGE_LOOP('',(#148,#149,#150,#151));
#369=EDGE_LOOP('',(#152,#153,#154,#155));
#370=EDGE_LOOP('',(#156,#157,#158,#159,#160,#161,#162,#163,#164,#165,#166,
#167,#168,#169,#170,#171,#172,#173,#174,#175,#176));
#371=EDGE_LOOP('',(#177,#178,#179,#180,#181,#182,#183,#184,#185,#186,#187,
#188,#189,#190,#191,#192,#193,#194,#195,#196,#197));
#372=FACE_BOUND('',#349,.T.);
#373=FACE_BOUND('',#350,.T.);
#374=FACE_BOUND('',#351,.T.);
#375=FACE_BOUND('',#352,.T.);
#376=FACE_BOUND('',#353,.T.);
#377=FACE_BOUND('',#354,.T.);
#378=FACE_BOUND('',#355,.T.);
#379=FACE_BOUND('',#356,.T.);
#380=FACE_BOUND('',#357,.T.);
#381=FACE_BOUND('',#358,.T.);
#382=FACE_BOUND('',#359,.T.);
#383=FACE_BOUND('',#360,.T.);
#384=FACE_BOUND('',#361,.T.);
#385=FACE_BOUND('',#362,.T.);
#386=FACE_BOUND('',#363,.T.);
#387=FACE_BOUND('',#364,.T.);
#388=FACE_BOUND('',#365,.T.);
#389=FACE_BOUND('',#366,.T.);
#390=FACE_BOUND('',#367,.T.);
#391=FACE_BOUND('',#368,.T.);
#392=FACE_BOUND('',#369,.T.);
#393=FACE_BOUND('',#370,.T.);
#394=FACE_BOUND('',#371,.T.);
#395=PLANE('',#434);
#396=PLANE('',#495);
#397=PLANE('',#496);
#398=ADVANCED_FACE('',(#372),#395,.F.);
#399=ADVANCED_FACE('',(#373),#52,.F.);
#400=ADVANCED_FACE('',(#374),#53,.F.);
#401=ADVANCED_FACE('',(#375),#54,.F.);
#402=ADVANCED_FACE('',(#376),#55,.F.);
#403=ADVANCED_FACE('',(#377),#56,.F.);
#404=ADVANCED_FACE('',(#378),#57,.F.);
#405=ADVANCED_FACE('',(#379),#58,.T.);
#406=ADVANCED_FACE('',(#380),#59,.T.);
#407=ADVANCED_FACE('',(#381),#60,.T.);
#408=ADVANCED_FACE('',(#382),#61,.T.);
#409=ADVANCED_FACE('',(#383),#62,.T.);
#410=ADVANCED_FACE('',(#384),#63,.T.);
#411=ADVANCED_FACE('',(#385),#64,.T.);
#412=ADVANCED_FACE('',(#386),#65,.T.);
#413=ADVANCED_FACE('',(#387),#66,.T.);
#414=ADVANCED_FACE('',(#388),#67,.T.);
#415=ADVANCED_FACE('',(#389),#68,.T.);
#416=ADVANCED_FACE('',(#390),#69,.T.);
#417=ADVANCED_FACE('',(#391),#70,.T.);
#418=ADVANCED_FACE('',(#392),#71,.T.);
#419=ADVANCED_FACE('',(#393),#396,.T.);
#420=ADVANCED_FACE('',(#394),#397,.F.);
#421=CLOSED_SHELL('',(#398,#399,#400,#401,#402,#403,#404,#405,#406,#407,
#408,#409,#410,#411,#412,#413,#414,#415,#416,#417,#418,#419,#420));
#422=STYLED_ITEM('',(#423),#430);
#423=PRESENTATION_STYLE_ASSIGNMENT((#424));
#424=SURFACE_STYLE_USAGE(.BOTH.,#425);
#425=SURFACE_SIDE_STYLE('',(#426));
#426=SURFACE_STYLE_FILL_AREA(#427);
#427=FILL_AREA_STYLE('',(#428));
#428=FILL_AREA_STYLE_COLOUR('',#429);
#429=COLOUR_RGB('',0.682352941176471,0.333333333333334,0.737254901960784);
#430=MANIFOLD_SOLID_BREP('ForgeE3',#421);
#431=SHAPE_DEFINITION_REPRESENTATION(#783,#432);
#432=SHAPE_REPRESENTATION('ForgeE3',(#433),#778);
#433=AXIS2_PLACEMENT_3D('',#648,#497,#498);
#434=AXIS2_PLACEMENT_3D('',#649,#499,#500);
#435=AXIS2_PLACEMENT_3D('',#658,#505,#506);
#436=AXIS2_PLACEMENT_3D('',#659,#507,#508);
#437=AXIS2_PLACEMENT_3D('',#663,#510,#511);
#438=AXIS2_PLACEMENT_3D('',#664,#512,#513);
#439=AXIS2_PLACEMENT_3D('',#665,#514,#515);
#440=AXIS2_PLACEMENT_3D('',#669,#517,#518);
#441=AXIS2_PLACEMENT_3D('',#670,#519,#520);
#442=AXIS2_PLACEMENT_3D('',#671,#521,#522);
#443=AXIS2_PLACEMENT_3D('',#675,#524,#525);
#444=AXIS2_PLACEMENT_3D('',#676,#526,#527);
#445=AXIS2_PLACEMENT_3D('',#677,#528,#529);
#446=AXIS2_PLACEMENT_3D('',#681,#531,#532);
#447=AXIS2_PLACEMENT_3D('',#682,#533,#534);
#448=AXIS2_PLACEMENT_3D('',#683,#535,#536);
#449=AXIS2_PLACEMENT_3D('',#687,#538,#539);
#450=AXIS2_PLACEMENT_3D('',#688,#540,#541);
#451=AXIS2_PLACEMENT_3D('',#689,#542,#543);
#452=AXIS2_PLACEMENT_3D('',#693,#545,#546);
#453=AXIS2_PLACEMENT_3D('',#694,#547,#548);
#454=AXIS2_PLACEMENT_3D('',#695,#549,#550);
#455=AXIS2_PLACEMENT_3D('',#699,#552,#553);
#456=AXIS2_PLACEMENT_3D('',#700,#554,#555);
#457=AXIS2_PLACEMENT_3D('',#701,#556,#557);
#458=AXIS2_PLACEMENT_3D('',#705,#559,#560);
#459=AXIS2_PLACEMENT_3D('',#706,#561,#562);
#460=AXIS2_PLACEMENT_3D('',#707,#563,#564);
#461=AXIS2_PLACEMENT_3D('',#711,#566,#567);
#462=AXIS2_PLACEMENT_3D('',#712,#568,#569);
#463=AXIS2_PLACEMENT_3D('',#713,#570,#571);
#464=AXIS2_PLACEMENT_3D('',#717,#573,#574);
#465=AXIS2_PLACEMENT_3D('',#718,#575,#576);
#466=AXIS2_PLACEMENT_3D('',#719,#577,#578);
#467=AXIS2_PLACEMENT_3D('',#723,#580,#581);
#468=AXIS2_PLACEMENT_3D('',#724,#582,#583);
#469=AXIS2_PLACEMENT_3D('',#725,#584,#585);
#470=AXIS2_PLACEMENT_3D('',#729,#587,#588);
#471=AXIS2_PLACEMENT_3D('',#730,#589,#590);
#472=AXIS2_PLACEMENT_3D('',#731,#591,#592);
#473=AXIS2_PLACEMENT_3D('',#735,#594,#595);
#474=AXIS2_PLACEMENT_3D('',#736,#596,#597);
#475=AXIS2_PLACEMENT_3D('',#737,#598,#599);
#476=AXIS2_PLACEMENT_3D('',#741,#601,#602);
#477=AXIS2_PLACEMENT_3D('',#742,#603,#604);
#478=AXIS2_PLACEMENT_3D('',#743,#605,#606);
#479=AXIS2_PLACEMENT_3D('',#747,#608,#609);
#480=AXIS2_PLACEMENT_3D('',#748,#610,#611);
#481=AXIS2_PLACEMENT_3D('',#749,#612,#613);
#482=AXIS2_PLACEMENT_3D('',#753,#615,#616);
#483=AXIS2_PLACEMENT_3D('',#754,#617,#618);
#484=AXIS2_PLACEMENT_3D('',#755,#619,#620);
#485=AXIS2_PLACEMENT_3D('',#759,#622,#623);
#486=AXIS2_PLACEMENT_3D('',#760,#624,#625);
#487=AXIS2_PLACEMENT_3D('',#761,#626,#627);
#488=AXIS2_PLACEMENT_3D('',#765,#629,#630);
#489=AXIS2_PLACEMENT_3D('',#766,#631,#632);
#490=AXIS2_PLACEMENT_3D('',#767,#633,#634);
#491=AXIS2_PLACEMENT_3D('',#771,#636,#637);
#492=AXIS2_PLACEMENT_3D('',#772,#638,#639);
#493=AXIS2_PLACEMENT_3D('',#773,#640,#641);
#494=AXIS2_PLACEMENT_3D('',#774,#642,#643);
#495=AXIS2_PLACEMENT_3D('',#775,#644,#645);
#496=AXIS2_PLACEMENT_3D('',#776,#646,#647);
#497=DIRECTION('',(0.,0.,1.));
#498=DIRECTION('',(1.,0.,0.));
#499=DIRECTION('',(1.,-1.19836312948613E-14,1.47313288894103E-30));
#500=DIRECTION('',(-1.19836312948613E-14,-1.,1.22464679914735E-16));
#501=DIRECTION('',(1.19836312948613E-14,1.,-1.22464679914735E-16));
#502=DIRECTION('',(-5.56131819963552E-33,1.22464679914735E-16,1.));
#503=DIRECTION('',(1.19836312948613E-14,1.,-1.22464679914735E-16));
#504=DIRECTION('',(-5.56131819963552E-33,1.22464679914735E-16,1.));
#505=DIRECTION('',(-5.56131819963552E-33,1.22464679914735E-16,1.));
#506=DIRECTION('',(-1.,-9.08232186375291E-17,5.56131819963552E-33));
#507=DIRECTION('',(-5.56131819963552E-33,1.22464679914735E-16,1.));
#508=DIRECTION('',(1.,9.08232186375291E-17,-5.56131819963552E-33));
#509=DIRECTION('',(-5.56131819963552E-33,1.22464679914735E-16,1.));
#510=DIRECTION('',(-5.56131819963552E-33,1.22464679914735E-16,1.));
#511=DIRECTION('',(1.,9.08232186375291E-17,-5.56131819963552E-33));
#512=DIRECTION('',(-5.56131819963552E-33,1.22464679914735E-16,1.));
#513=DIRECTION('',(-1.,-9.08232186375291E-17,5.56131819963552E-33));
#514=DIRECTION('',(-5.56131819963552E-33,1.22464679914735E-16,1.));
#515=DIRECTION('',(1.,9.08232186375291E-17,-5.56131819963552E-33));
#516=DIRECTION('',(-5.56131819963552E-33,1.22464679914735E-16,1.));
#517=DIRECTION('',(-5.56131819963552E-33,1.22464679914735E-16,1.));
#518=DIRECTION('',(1.,9.08232186375291E-17,-5.56131819963552E-33));
#519=DIRECTION('',(-5.56131819963552E-33,1.22464679914735E-16,1.));
#520=DIRECTION('',(-1.,-9.08232186375291E-17,5.56131819963552E-33));
#521=DIRECTION('',(-5.56131819963552E-33,1.22464679914735E-16,1.));
#522=DIRECTION('',(1.,9.08232186375291E-17,-5.56131819963552E-33));
#523=DIRECTION('',(-5.56131819963552E-33,1.22464679914735E-16,1.));
#524=DIRECTION('',(-5.56131819963552E-33,1.22464679914735E-16,1.));
#525=DIRECTION('',(1.,9.08232186375291E-17,-5.56131819963552E-33));
#526=DIRECTION('',(-5.56131819963552E-33,1.22464679914735E-16,1.));
#527=DIRECTION('',(-1.,-9.08232186375291E-17,5.56131819963552E-33));
#528=DIRECTION('',(-5.56131819963552E-33,1.22464679914735E-16,1.));
#529=DIRECTION('',(1.,9.08232186375291E-17,-5.56131819963552E-33));
#530=DIRECTION('',(-5.56131819963552E-33,1.22464679914735E-16,1.));
#531=DIRECTION('',(-5.56131819963552E-33,1.22464679914735E-16,1.));
#532=DIRECTION('',(1.,9.08232186375291E-17,-5.56131819963552E-33));
#533=DIRECTION('',(-5.56131819963552E-33,1.22464679914735E-16,1.));
#534=DIRECTION('',(-1.,-9.08232186375291E-17,5.56131819963552E-33));
#535=DIRECTION('',(-5.56131819963552E-33,1.22464679914735E-16,1.));
#536=DIRECTION('',(1.,9.08232186375291E-17,-5.56131819963552E-33));
#537=DIRECTION('',(-5.56131819963552E-33,1.22464679914735E-16,1.));
#538=DIRECTION('',(-5.56131819963552E-33,1.22464679914735E-16,1.));
#539=DIRECTION('',(1.,9.08232186375291E-17,-5.56131819963552E-33));
#540=DIRECTION('',(-5.56131819963552E-33,1.22464679914735E-16,1.));
#541=DIRECTION('',(-1.,-9.08232186375291E-17,5.56131819963552E-33));
#542=DIRECTION('',(-5.56131819963552E-33,1.22464679914735E-16,1.));
#543=DIRECTION('',(1.,9.08232186375291E-17,-5.56131819963552E-33));
#544=DIRECTION('',(-5.56131819963552E-33,1.22464679914735E-16,1.));
#545=DIRECTION('',(-5.56131819963552E-33,1.22464679914735E-16,1.));
#546=DIRECTION('',(1.,9.08232186375291E-17,-5.56131819963552E-33));
#547=DIRECTION('',(-5.56131819963552E-33,1.22464679914735E-16,1.));
#548=DIRECTION('',(-1.,-9.08232186375291E-17,5.56131819963552E-33));
#549=DIRECTION('',(5.56131819963552E-33,-1.22464679914735E-16,-1.));
#550=DIRECTION('',(1.,9.08232186375291E-17,-5.56131819963552E-33));
#551=DIRECTION('',(-5.56131819963552E-33,1.22464679914735E-16,1.));
#552=DIRECTION('',(5.56131819963552E-33,-1.22464679914735E-16,-1.));
#553=DIRECTION('',(1.,9.08232186375291E-17,-5.56131819963552E-33));
#554=DIRECTION('',(-5.56131819963552E-33,1.22464679914735E-16,1.));
#555=DIRECTION('',(-1.,-9.08232186375291E-17,5.56131819963552E-33));
#556=DIRECTION('',(5.56131819963552E-33,-1.22464679914735E-16,-1.));
#557=DIRECTION('',(1.,9.08232186375291E-17,-5.56131819963552E-33));
#558=DIRECTION('',(-5.56131819963552E-33,1.22464679914735E-16,1.));
#559=DIRECTION('',(5.56131819963552E-33,-1.22464679914735E-16,-1.));
#560=DIRECTION('',(1.,9.08232186375291E-17,-5.56131819963552E-33));
#561=DIRECTION('',(-5.56131819963552E-33,1.22464679914735E-16,1.));
#562=DIRECTION('',(-1.,-9.08232186375291E-17,5.56131819963552E-33));
#563=DIRECTION('',(5.56131819963552E-33,-1.22464679914735E-16,-1.));
#564=DIRECTION('',(1.,9.08232186375291E-17,-5.56131819963552E-33));
#565=DIRECTION('',(-5.56131819963552E-33,1.22464679914735E-16,1.));
#566=DIRECTION('',(5.56131819963552E-33,-1.22464679914735E-16,-1.));
#567=DIRECTION('',(1.,9.08232186375291E-17,-5.56131819963552E-33));
#568=DIRECTION('',(-5.56131819963552E-33,1.22464679914735E-16,1.));
#569=DIRECTION('',(-1.,-9.08232186375291E-17,5.56131819963552E-33));
#570=DIRECTION('',(5.56131819963552E-33,-1.22464679914735E-16,-1.));
#571=DIRECTION('',(1.,9.08232186375291E-17,-5.56131819963552E-33));
#572=DIRECTION('',(-5.56131819963552E-33,1.22464679914735E-16,1.));
#573=DIRECTION('',(5.56131819963552E-33,-1.22464679914735E-16,-1.));
#574=DIRECTION('',(1.,9.08232186375291E-17,-5.56131819963552E-33));
#575=DIRECTION('',(-5.56131819963552E-33,1.22464679914735E-16,1.));
#576=DIRECTION('',(-1.,-9.08232186375291E-17,5.56131819963552E-33));
#577=DIRECTION('',(5.56131819963552E-33,-1.22464679914735E-16,-1.));
#578=DIRECTION('',(1.,9.08232186375291E-17,-5.56131819963552E-33));
#579=DIRECTION('',(-5.56131819963552E-33,1.22464679914735E-16,1.));
#580=DIRECTION('',(5.56131819963552E-33,-1.22464679914735E-16,-1.));
#581=DIRECTION('',(1.,9.08232186375291E-17,-5.56131819963552E-33));
#582=DIRECTION('',(-5.56131819963552E-33,1.22464679914735E-16,1.));
#583=DIRECTION('',(-1.,-9.08232186375291E-17,5.56131819963552E-33));
#584=DIRECTION('',(5.56131819963552E-33,-1.22464679914735E-16,-1.));
#585=DIRECTION('',(1.,9.08232186375291E-17,-5.56131819963552E-33));
#586=DIRECTION('',(-5.56131819963552E-33,1.22464679914735E-16,1.));
#587=DIRECTION('',(5.56131819963552E-33,-1.22464679914735E-16,-1.));
#588=DIRECTION('',(1.,9.08232186375291E-17,-5.56131819963552E-33));
#589=DIRECTION('',(-5.56131819963552E-33,1.22464679914735E-16,1.));
#590=DIRECTION('',(-1.,-9.08232186375291E-17,5.56131819963552E-33));
#591=DIRECTION('',(5.56131819963552E-33,-1.22464679914735E-16,-1.));
#592=DIRECTION('',(1.,9.08232186375291E-17,-5.56131819963552E-33));
#593=DIRECTION('',(-5.56131819963552E-33,1.22464679914735E-16,1.));
#594=DIRECTION('',(5.56131819963552E-33,-1.22464679914735E-16,-1.));
#595=DIRECTION('',(1.,9.08232186375291E-17,-5.56131819963552E-33));
#596=DIRECTION('',(-5.56131819963552E-33,1.22464679914735E-16,1.));
#597=DIRECTION('',(-1.,-9.08232186375291E-17,5.56131819963552E-33));
#598=DIRECTION('',(5.56131819963552E-33,-1.22464679914735E-16,-1.));
#599=DIRECTION('',(1.,9.08232186375291E-17,-5.56131819963552E-33));
#600=DIRECTION('',(-5.56131819963552E-33,1.22464679914735E-16,1.));
#601=DIRECTION('',(5.56131819963552E-33,-1.22464679914735E-16,-1.));
#602=DIRECTION('',(1.,9.08232186375291E-17,-5.56131819963552E-33));
#603=DIRECTION('',(-5.56131819963552E-33,1.22464679914735E-16,1.));
#604=DIRECTION('',(-1.,-9.08232186375291E-17,5.56131819963552E-33));
#605=DIRECTION('',(5.56131819963552E-33,-1.22464679914735E-16,-1.));
#606=DIRECTION('',(1.,9.08232186375291E-17,-5.56131819963552E-33));
#607=DIRECTION('',(-5.56131819963552E-33,1.22464679914735E-16,1.));
#608=DIRECTION('',(5.56131819963552E-33,-1.22464679914735E-16,-1.));
#609=DIRECTION('',(1.,9.08232186375291E-17,-5.56131819963552E-33));
#610=DIRECTION('',(-5.56131819963552E-33,1.22464679914735E-16,1.));
#611=DIRECTION('',(-1.,-9.08232186375291E-17,5.56131819963552E-33));
#612=DIRECTION('',(5.56131819963552E-33,-1.22464679914735E-16,-1.));
#613=DIRECTION('',(1.,9.08232186375291E-17,-5.56131819963552E-33));
#614=DIRECTION('',(-5.56131819963552E-33,1.22464679914735E-16,1.));
#615=DIRECTION('',(5.56131819963552E-33,-1.22464679914735E-16,-1.));
#616=DIRECTION('',(1.,9.08232186375291E-17,-5.56131819963552E-33));
#617=DIRECTION('',(-5.56131819963552E-33,1.22464679914735E-16,1.));
#618=DIRECTION('',(-1.,-9.08232186375291E-17,5.56131819963552E-33));
#619=DIRECTION('',(5.56131819963552E-33,-1.22464679914735E-16,-1.));
#620=DIRECTION('',(1.,9.08232186375291E-17,-5.56131819963552E-33));
#621=DIRECTION('',(-5.56131819963552E-33,1.22464679914735E-16,1.));
#622=DIRECTION('',(5.56131819963552E-33,-1.22464679914735E-16,-1.));
#623=DIRECTION('',(1.,9.08232186375291E-17,-5.56131819963552E-33));
#624=DIRECTION('',(-5.56131819963552E-33,1.22464679914735E-16,1.));
#625=DIRECTION('',(-1.,-9.08232186375291E-17,5.56131819963552E-33));
#626=DIRECTION('',(5.56131819963552E-33,-1.22464679914735E-16,-1.));
#627=DIRECTION('',(1.,9.08232186375291E-17,-5.56131819963552E-33));
#628=DIRECTION('',(-5.56131819963552E-33,1.22464679914735E-16,1.));
#629=DIRECTION('',(5.56131819963552E-33,-1.22464679914735E-16,-1.));
#630=DIRECTION('',(1.,9.08232186375291E-17,-5.56131819963552E-33));
#631=DIRECTION('',(-5.56131819963552E-33,1.22464679914735E-16,1.));
#632=DIRECTION('',(-1.,-9.08232186375291E-17,5.56131819963552E-33));
#633=DIRECTION('',(5.56131819963552E-33,-1.22464679914735E-16,-1.));
#634=DIRECTION('',(1.,9.08232186375291E-17,-5.56131819963552E-33));
#635=DIRECTION('',(-5.56131819963552E-33,1.22464679914735E-16,1.));
#636=DIRECTION('',(5.56131819963552E-33,-1.22464679914735E-16,-1.));
#637=DIRECTION('',(1.,9.08232186375291E-17,-5.56131819963552E-33));
#638=DIRECTION('',(-5.56131819963552E-33,1.22464679914735E-16,1.));
#639=DIRECTION('',(-1.,-9.08232186375291E-17,5.56131819963552E-33));
#640=DIRECTION('',(5.56131819963552E-33,-1.22464679914735E-16,-1.));
#641=DIRECTION('',(1.,9.08232186375291E-17,-5.56131819963552E-33));
#642=DIRECTION('',(5.56131819963552E-33,-1.22464679914735E-16,-1.));
#643=DIRECTION('',(1.,9.08232186375291E-17,-5.56131819963552E-33));
#644=DIRECTION('',(5.56131819963552E-33,-1.22464679914735E-16,-1.));
#645=DIRECTION('',(1.,9.08232186375291E-17,-5.56131819963552E-33));
#646=DIRECTION('',(5.56131819963552E-33,-1.22464679914735E-16,-1.));
#647=DIRECTION('',(1.,9.08232186375291E-17,-5.56131819963552E-33));
#648=CARTESIAN_POINT('',(0.,0.,0.));
#649=CARTESIAN_POINT('',(-0.0470999999999982,-0.018386621603899,-0.0237999946391486));
#650=CARTESIAN_POINT('',(-0.0470999999999982,-0.018386621603899,-0.0229999946391486));
#651=CARTESIAN_POINT('',(-0.0470999999999982,-0.0186739593836782,-0.0229999946391486));
#652=CARTESIAN_POINT('',(-0.0470999999999982,-0.0180992838241198,-0.0229999946391486));
#653=CARTESIAN_POINT('',(-0.0470999999999982,-0.0180992838241198,-0.0237999946391486));
#654=CARTESIAN_POINT('',(-0.0470999999999982,-0.0180992838241198,-0.0237999946391486));
#655=CARTESIAN_POINT('',(-0.0470999999999982,-0.018386621603899,-0.0237999946391486));
#656=CARTESIAN_POINT('',(-0.0470999999999982,-0.0186739593836782,-0.0237999946391486));
#657=CARTESIAN_POINT('',(-0.0470999999999982,-0.0186739593836782,-0.0237999946391486));
#658=CARTESIAN_POINT('',(-0.0457003128594515,-0.0164850386926868,-0.0237999946391486));
#659=CARTESIAN_POINT('',(-0.0457003128594515,-0.0164850386926868,-0.0229999946391486));
#660=CARTESIAN_POINT('',(-0.0470614423834514,-0.0181319260156882,-0.0229999946391486));
#661=CARTESIAN_POINT('',(-0.0470614423834514,-0.0181319260156882,-0.0237999946391486));
#662=CARTESIAN_POINT('',(-0.0470614423834514,-0.0181319260156882,-0.0237999946391486));
#663=CARTESIAN_POINT('',(-0.0457003128594515,-0.0164850386926868,-0.0237999946391486));
#664=CARTESIAN_POINT('',(-0.040518618992394,-0.0102154913859314,-0.0237999946391486));
#665=CARTESIAN_POINT('',(-0.040518618992394,-0.0102154913859314,-0.0229999946391486));
#666=CARTESIAN_POINT('',(-0.0467134451919582,-0.0184071092683513,-0.0229999946391486));
#667=CARTESIAN_POINT('',(-0.0467134451919582,-0.0184071092683513,-0.0237999946391486));
#668=CARTESIAN_POINT('',(-0.0467134451919582,-0.0184071092683513,-0.0237999946391486));
#669=CARTESIAN_POINT('',(-0.040518618992394,-0.0102154913859314,-0.0237999946391486));
#670=CARTESIAN_POINT('',(-0.0406367843533631,-0.0103717452424263,-0.0237999946391486));
#671=CARTESIAN_POINT('',(-0.0406367843533631,-0.0103717452424263,-0.0229999946391486));
#672=CARTESIAN_POINT('',(-0.0460326706462825,-0.0188792297760784,-0.0229999946391486));
#673=CARTESIAN_POINT('',(-0.0460326706462825,-0.0188792297760784,-0.0237999946391486));
#674=CARTESIAN_POINT('',(-0.0460326706462825,-0.0188792297760784,-0.0237999946391486));
#675=CARTESIAN_POINT('',(-0.0406367843533631,-0.0103717452424263,-0.0237999946391486));
#676=CARTESIAN_POINT('',(-0.0449539357388688,-0.0171784303072728,-0.0237999946391486));
#677=CARTESIAN_POINT('',(-0.0449539357388688,-0.0171784303072728,-0.0229999946391486));
#678=CARTESIAN_POINT('',(-0.0455044248534309,-0.0191157866421565,-0.0229999946391486));
#679=CARTESIAN_POINT('',(-0.0455044248534309,-0.0191157866421565,-0.0237999946391486));
#680=CARTESIAN_POINT('',(-0.0455044248534309,-0.0191157866421565,-0.0237999946391486));
#681=CARTESIAN_POINT('',(-0.0449539357388688,-0.0171784303072728,-0.0237999946391486));
#682=CARTESIAN_POINT('',(-0.0450961345221838,-0.0176788756501152,-0.0237999946391486));
#683=CARTESIAN_POINT('',(-0.0450961345221838,-0.0176788756501152,-0.0229999946391486));
#684=CARTESIAN_POINT('',(-0.0449743215079275,-0.0191676925573234,-0.0229999946391486));
#685=CARTESIAN_POINT('',(-0.0449743215079275,-0.0191676925573234,-0.0237999946391486));
#686=CARTESIAN_POINT('',(-0.0449743215079275,-0.0191676925573234,-0.0237999946391486));
#687=CARTESIAN_POINT('',(-0.0450961345221838,-0.0176788756501152,-0.0237999946391486));
#688=CARTESIAN_POINT('',(-0.0452702473869999,-0.0155508421351141,-0.0237999946391486));
#689=CARTESIAN_POINT('',(-0.0452702473869999,-0.0155508421351141,-0.0229999946391486));
#690=CARTESIAN_POINT('',(-0.0443554907517038,-0.01906259374944,-0.0229999946391486));
#691=CARTESIAN_POINT('',(-0.0443554907517038,-0.01906259374944,-0.0237999946391486));
#692=CARTESIAN_POINT('',(-0.0443554907517038,-0.01906259374944,-0.0237999946391486));
#693=CARTESIAN_POINT('',(-0.0452702473869999,-0.0155508421351141,-0.0237999946391486));
#694=CARTESIAN_POINT('',(-0.0434008252417728,-0.0227275555723802,-0.0237999946391486));
#695=CARTESIAN_POINT('',(-0.0434008252417728,-0.0227275555723802,-0.0229999946391486));
#696=CARTESIAN_POINT('',(-0.044045153560509,-0.0189955088929914,-0.0229999946391486));
#697=CARTESIAN_POINT('',(-0.044045153560509,-0.0189955088929914,-0.0237999946391486));
#698=CARTESIAN_POINT('',(-0.044045153560509,-0.0189955088929914,-0.0237999946391486));
#699=CARTESIAN_POINT('',(-0.0434008252417728,-0.0227275555723802,-0.0237999946391486));
#700=CARTESIAN_POINT('',(-0.0437540474827047,-0.0206816391458887,-0.0237999946391486));
#701=CARTESIAN_POINT('',(-0.0437540474827047,-0.0206816391458887,-0.0229999946391486));
#702=CARTESIAN_POINT('',(-0.0437978551913045,-0.0189711249357894,-0.0229999946391486));
#703=CARTESIAN_POINT('',(-0.0437978551913045,-0.0189711249357894,-0.0237999946391486));
#704=CARTESIAN_POINT('',(-0.0437978551913045,-0.0189711249357894,-0.0237999946391486));
#705=CARTESIAN_POINT('',(-0.0437540474827047,-0.0206816391458887,-0.0237999946391486));
#706=CARTESIAN_POINT('',(-0.0437720605859415,-0.0199783001665305,-0.0237999946391486));
#707=CARTESIAN_POINT('',(-0.0437720605859415,-0.0199783001665305,-0.0229999946391486));
#708=CARTESIAN_POINT('',(-0.0436193836174786,-0.018982430169801,-0.0229999946391486));
#709=CARTESIAN_POINT('',(-0.0436193836174786,-0.018982430169801,-0.0237999946391486));
#710=CARTESIAN_POINT('',(-0.0436193836174786,-0.018982430169801,-0.0237999946391486));
#711=CARTESIAN_POINT('',(-0.0437720605859415,-0.0199783001665305,-0.0237999946391486));
#712=CARTESIAN_POINT('',(-0.0436250347224789,-0.0190192907780164,-0.0237999946391486));
#713=CARTESIAN_POINT('',(-0.0436250347224789,-0.0190192907780164,-0.0229999946391486));
#714=CARTESIAN_POINT('',(-0.0435997379230383,-0.0189918916655706,-0.0229999946391486));
#715=CARTESIAN_POINT('',(-0.0435997379230383,-0.0189918916655706,-0.0237999946391486));
#716=CARTESIAN_POINT('',(-0.0435997379230383,-0.0189918916655706,-0.0237999946391486));
#717=CARTESIAN_POINT('',(-0.0436250347224789,-0.0190192907780164,-0.0237999946391486));
#718=CARTESIAN_POINT('',(-0.0436291295536506,-0.0190237259137729,-0.0237999946391486));
#719=CARTESIAN_POINT('',(-0.0436291295536506,-0.0190237259137729,-0.0229999946391486));
#720=CARTESIAN_POINT('',(-0.0435889489167168,-0.0190075146916028,-0.0229999946391486));
#721=CARTESIAN_POINT('',(-0.0435889489167168,-0.0190075146916028,-0.0237999946391486));
#722=CARTESIAN_POINT('',(-0.0435889489167168,-0.0190075146916028,-0.0237999946391486));
#723=CARTESIAN_POINT('',(-0.0436291295536506,-0.0190237259137729,-0.0237999946391486));
#724=CARTESIAN_POINT('',(-0.0441465719576665,-0.0187196969343349,-0.0237999946391486));
#725=CARTESIAN_POINT('',(-0.0441465719576665,-0.0187196969343349,-0.0229999946391486));
#726=CARTESIAN_POINT('',(-0.0436787648306072,-0.0191379540431439,-0.0229999946391486));
#727=CARTESIAN_POINT('',(-0.0436787648306072,-0.0191379540431439,-0.0237999946391486));
#728=CARTESIAN_POINT('',(-0.0436787648306072,-0.0191379540431439,-0.0237999946391486));
#729=CARTESIAN_POINT('',(-0.0441465719576665,-0.0187196969343349,-0.0237999946391486));
#730=CARTESIAN_POINT('',(-0.0547767491167985,-0.00921546558015221,-0.0237999946391486));
#731=CARTESIAN_POINT('',(-0.0547767491167985,-0.00921546558015221,-0.0229999946391486));
#732=CARTESIAN_POINT('',(-0.0440005100427697,-0.0194864783800189,-0.0229999946391486));
#733=CARTESIAN_POINT('',(-0.0440005100427697,-0.0194864783800189,-0.0237999946391486));
#734=CARTESIAN_POINT('',(-0.0440005100427697,-0.0194864783800189,-0.0237999946391486));
#735=CARTESIAN_POINT('',(-0.0547767491167985,-0.00921546558015221,-0.0237999946391486));
#736=CARTESIAN_POINT('',(-0.0541013407756186,-0.00985920851029174,-0.0237999946391486));
#737=CARTESIAN_POINT('',(-0.0541013407756186,-0.00985920851029174,-0.0229999946391486));
#738=CARTESIAN_POINT('',(-0.0445646429784198,-0.020045596572953,-0.0229999946391486));
#739=CARTESIAN_POINT('',(-0.0445646429784198,-0.020045596572953,-0.0237999946391486));
#740=CARTESIAN_POINT('',(-0.0445646429784198,-0.020045596572953,-0.0237999946391486));
#741=CARTESIAN_POINT('',(-0.0541013407756186,-0.00985920851029174,-0.0237999946391486));
#742=CARTESIAN_POINT('',(-0.0453550247937728,-0.0192013697703358,-0.0237999946391486));
#743=CARTESIAN_POINT('',(-0.0453550247937728,-0.0192013697703358,-0.0229999946391486));
#744=CARTESIAN_POINT('',(-0.0448684502016624,-0.0202504967762843,-0.0229999946391486));
#745=CARTESIAN_POINT('',(-0.0448684502016624,-0.0202504967762843,-0.0237999946391486));
#746=CARTESIAN_POINT('',(-0.0448684502016624,-0.0202504967762843,-0.0237999946391486));
#747=CARTESIAN_POINT('',(-0.0453550247937728,-0.0192013697703358,-0.0237999946391486));
#748=CARTESIAN_POINT('',(-0.0450091504754663,-0.019947126112494,-0.0237999946391486));
#749=CARTESIAN_POINT('',(-0.0450091504754663,-0.019947126112494,-0.0229999946391486));
#750=CARTESIAN_POINT('',(-0.0450594790013576,-0.0202777276342364,-0.0229999946391486));
#751=CARTESIAN_POINT('',(-0.0450594790013576,-0.0202777276342364,-0.0237999946391486));
#752=CARTESIAN_POINT('',(-0.0450594790013576,-0.0202777276342364,-0.0237999946391486));
#753=CARTESIAN_POINT('',(-0.0450091504754663,-0.019947126112494,-0.0237999946391486));
#754=CARTESIAN_POINT('',(-0.0449408404240522,-0.019498406295096,-0.0237999946391486));
#755=CARTESIAN_POINT('',(-0.0449408404240522,-0.019498406295096,-0.0229999946391486));
#756=CARTESIAN_POINT('',(-0.0453329494748939,-0.020182268382005,-0.0229999946391486));
#757=CARTESIAN_POINT('',(-0.0453329494748939,-0.020182268382005,-0.0237999946391486));
#758=CARTESIAN_POINT('',(-0.0453329494748939,-0.020182268382005,-0.0237999946391486));
#759=CARTESIAN_POINT('',(-0.0449408404240522,-0.019498406295096,-0.0237999946391486));
#760=CARTESIAN_POINT('',(-0.0442347257703608,-0.0182668992956175,-0.0237999946391486));
#761=CARTESIAN_POINT('',(-0.0442347257703608,-0.0182668992956175,-0.0229999946391486));
#762=CARTESIAN_POINT('',(-0.0456712655581146,-0.0199435290938992,-0.0229999946391486));
#763=CARTESIAN_POINT('',(-0.0456712655581146,-0.0199435290938992,-0.0237999946391486));
#764=CARTESIAN_POINT('',(-0.0456712655581146,-0.0199435290938992,-0.0237999946391486));
#765=CARTESIAN_POINT('',(-0.0442347257703608,-0.0182668992956175,-0.0237999946391486));
#766=CARTESIAN_POINT('',(-0.0103625359255994,0.0212663759473736,-0.0237999946391486));
#767=CARTESIAN_POINT('',(-0.0103625359255994,0.0212663759473736,-0.0229999946391486));
#768=CARTESIAN_POINT('',(-0.0464683341812641,-0.0192470044858927,-0.0229999946391486));
#769=CARTESIAN_POINT('',(-0.0464683341812641,-0.0192470044858927,-0.0237999946391486));
#770=CARTESIAN_POINT('',(-0.0464683341812641,-0.0192470044858927,-0.0237999946391486));
#771=CARTESIAN_POINT('',(-0.0103625359255994,0.0212663759473736,-0.0237999946391486));
#772=CARTESIAN_POINT('',(-0.0143776652470819,0.0167611033997834,-0.0237999946391486));
#773=CARTESIAN_POINT('',(-0.0143776652470819,0.0167611033997834,-0.0229999946391486));
#774=CARTESIAN_POINT('',(-0.0143776652470819,0.0167611033997834,-0.0237999946391486));
#775=CARTESIAN_POINT('',(-0.0697228288706337,0.00606633418553786,-0.0237999946391486));
#776=CARTESIAN_POINT('',(-0.0697228288706337,0.00606633418553786,-0.0229999946391486));
#777=MECHANICAL_DESIGN_GEOMETRIC_PRESENTATION_REPRESENTATION('',(#422),
#778);
#778=(
GEOMETRIC_REPRESENTATION_CONTEXT(3)
GLOBAL_UNCERTAINTY_ASSIGNED_CONTEXT((#779))
GLOBAL_UNIT_ASSIGNED_CONTEXT((#782,#781,#780))
REPRESENTATION_CONTEXT('ForgeE3','TOP_LEVEL_ASSEMBLY_PART')
);
#779=UNCERTAINTY_MEASURE_WITH_UNIT(LENGTH_MEASURE(1.E-8),#782,
'DISTANCE_ACCURACY_VALUE','Maximum Tolerance applied to model');
#780=(
NAMED_UNIT(*)
SI_UNIT($,.STERADIAN.)
SOLID_ANGLE_UNIT()
);
#781=(
NAMED_UNIT(*)
PLANE_ANGLE_UNIT()
SI_UNIT($,.RADIAN.)
);
#782=(
LENGTH_UNIT()
NAMED_UNIT(*)
SI_UNIT($,.METRE.)
);
#783=PRODUCT_DEFINITION_SHAPE('','',#784);
#784=PRODUCT_DEFINITION('','',#786,#785);
#785=PRODUCT_DEFINITION_CONTEXT('',#792,'design');
#786=PRODUCT_DEFINITION_FORMATION_WITH_SPECIFIED_SOURCE('','',#788,
 .NOT_KNOWN.);
#787=PRODUCT_RELATED_PRODUCT_CATEGORY('','',(#788));
#788=PRODUCT('ForgeE3','ForgeE3','ForgeE3',(#790));
#789=PRODUCT_CATEGORY('','');
#790=PRODUCT_CONTEXT('',#792,'mechanical');
#791=APPLICATION_PROTOCOL_DEFINITION('international standard',
'ap242_managed_model_based_3d_engineering',2020,#792);
#792=APPLICATION_CONTEXT('managed model based 3d engineering');
ENDSEC;
END-ISO-10303-21;
