ISO-10303-21;
HEADER;
/* Generated by software containing ST-Developer
 * from STEP Tools, Inc. (www.steptools.com) 
 */
/* OPTION: using custom renumber hook */

FILE_DESCRIPTION(
/* description */ ('STEP AP242 Edition 2',
'CAx-IF Rec.Pracs.---Representation and Presentation of Product Manufa
cturing Information (PMI)---4.0---2014-10-13',
'CAx-IF Rec.Pracs.---3D Tessellated Geometry---0.4---2014-09-14','2;1',
'CAx-IF Rec.Pracs.---User Defined Attributes---1.5---2016-08-15'),
/* implementation_level */ '2;1');

FILE_NAME(
/* name */ 'CompleteShell - ForgeG2',
/* time_stamp */ '2026-09-23T14:41:01Z',
/* author */ (''),
/* organization */ (''),
/* preprocessor_version */ 'ST-DEVELOPER v20',
/* originating_system */ 'ONSHAPE BY PTC INC, 1.221',
/* authorisation */ '  ');

FILE_SCHEMA (('AP242_MANAGED_MODEL_BASED_3D_ENGINEERING_MIM_LF { 1 0 10303 442 3 1 4 }'));
ENDSEC;

DATA;
#10=SHAPE_REPRESENTATION_RELATIONSHIP('','',#299,#11);
#11=ADVANCED_BREP_SHAPE_REPRESENTATION('',(#297),#533);
#12=CIRCLE('',#303,0.00333133942817182);
#13=CIRCLE('',#304,0.00333133942817182);
#14=CIRCLE('',#306,0.0016771185851585);
#15=CIRCLE('',#307,0.0016771185851585);
#16=CIRCLE('',#309,0.00328855809853242);
#17=CIRCLE('',#310,0.00328855809853242);
#18=CIRCLE('',#312,0.0052457145973261);
#19=CIRCLE('',#313,0.0052457145973261);
#20=CIRCLE('',#315,0.00456824717073554);
#21=CIRCLE('',#316,0.00456824717073554);
#22=CIRCLE('',#318,0.00403778934418614);
#23=CIRCLE('',#319,0.00403778934418614);
#24=CIRCLE('',#321,0.000636542273289445);
#25=CIRCLE('',#322,0.000636542273289445);
#26=CIRCLE('',#324,0.000356701820068916);
#27=CIRCLE('',#325,0.000356701820068916);
#28=CIRCLE('',#327,0.000527993633657614);
#29=CIRCLE('',#328,0.000527993633657614);
#30=CIRCLE('',#330,0.001498274891181);
#31=CIRCLE('',#331,0.001498274891181);
#32=CIRCLE('',#333,0.00715383005599424);
#33=CIRCLE('',#334,0.00715383005599424);
#34=CIRCLE('',#336,0.0196615887905938);
#35=CIRCLE('',#337,0.0196615887905938);
#36=CIRCLE('',#339,0.0122227252259208);
#37=CIRCLE('',#340,0.0122227252259208);
#38=CYLINDRICAL_SURFACE('',#302,0.00333133942817182);
#39=CYLINDRICAL_SURFACE('',#305,0.0016771185851585);
#40=CYLINDRICAL_SURFACE('',#308,0.00328855809853242);
#41=CYLINDRICAL_SURFACE('',#311,0.0052457145973261);
#42=CYLINDRICAL_SURFACE('',#314,0.00456824717073554);
#43=CYLINDRICAL_SURFACE('',#317,0.00403778934418614);
#44=CYLINDRICAL_SURFACE('',#320,0.000636542273289445);
#45=CYLINDRICAL_SURFACE('',#323,0.000356701820068916);
#46=CYLINDRICAL_SURFACE('',#326,0.000527993633657614);
#47=CYLINDRICAL_SURFACE('',#329,0.001498274891181);
#48=CYLINDRICAL_SURFACE('',#332,0.00715383005599424);
#49=CYLINDRICAL_SURFACE('',#335,0.0196615887905938);
#50=CYLINDRICAL_SURFACE('',#338,0.0122227252259208);
#51=ORIENTED_EDGE('',*,*,#135,.T.);
#52=ORIENTED_EDGE('',*,*,#136,.F.);
#53=ORIENTED_EDGE('',*,*,#137,.F.);
#54=ORIENTED_EDGE('',*,*,#138,.T.);
#55=ORIENTED_EDGE('',*,*,#139,.T.);
#56=ORIENTED_EDGE('',*,*,#140,.F.);
#57=ORIENTED_EDGE('',*,*,#141,.F.);
#58=ORIENTED_EDGE('',*,*,#136,.T.);
#59=ORIENTED_EDGE('',*,*,#142,.T.);
#60=ORIENTED_EDGE('',*,*,#143,.F.);
#61=ORIENTED_EDGE('',*,*,#144,.F.);
#62=ORIENTED_EDGE('',*,*,#140,.T.);
#63=ORIENTED_EDGE('',*,*,#145,.T.);
#64=ORIENTED_EDGE('',*,*,#146,.F.);
#65=ORIENTED_EDGE('',*,*,#147,.F.);
#66=ORIENTED_EDGE('',*,*,#143,.T.);
#67=ORIENTED_EDGE('',*,*,#148,.T.);
#68=ORIENTED_EDGE('',*,*,#149,.F.);
#69=ORIENTED_EDGE('',*,*,#150,.F.);
#70=ORIENTED_EDGE('',*,*,#146,.T.);
#71=ORIENTED_EDGE('',*,*,#151,.T.);
#72=ORIENTED_EDGE('',*,*,#152,.F.);
#73=ORIENTED_EDGE('',*,*,#153,.F.);
#74=ORIENTED_EDGE('',*,*,#149,.T.);
#75=ORIENTED_EDGE('',*,*,#154,.T.);
#76=ORIENTED_EDGE('',*,*,#155,.F.);
#77=ORIENTED_EDGE('',*,*,#156,.F.);
#78=ORIENTED_EDGE('',*,*,#152,.T.);
#79=ORIENTED_EDGE('',*,*,#157,.T.);
#80=ORIENTED_EDGE('',*,*,#158,.F.);
#81=ORIENTED_EDGE('',*,*,#159,.F.);
#82=ORIENTED_EDGE('',*,*,#155,.T.);
#83=ORIENTED_EDGE('',*,*,#160,.T.);
#84=ORIENTED_EDGE('',*,*,#161,.F.);
#85=ORIENTED_EDGE('',*,*,#162,.F.);
#86=ORIENTED_EDGE('',*,*,#158,.T.);
#87=ORIENTED_EDGE('',*,*,#163,.T.);
#88=ORIENTED_EDGE('',*,*,#164,.F.);
#89=ORIENTED_EDGE('',*,*,#165,.F.);
#90=ORIENTED_EDGE('',*,*,#161,.T.);
#91=ORIENTED_EDGE('',*,*,#166,.T.);
#92=ORIENTED_EDGE('',*,*,#167,.F.);
#93=ORIENTED_EDGE('',*,*,#168,.F.);
#94=ORIENTED_EDGE('',*,*,#164,.T.);
#95=ORIENTED_EDGE('',*,*,#169,.T.);
#96=ORIENTED_EDGE('',*,*,#170,.F.);
#97=ORIENTED_EDGE('',*,*,#171,.F.);
#98=ORIENTED_EDGE('',*,*,#167,.T.);
#99=ORIENTED_EDGE('',*,*,#172,.T.);
#100=ORIENTED_EDGE('',*,*,#173,.F.);
#101=ORIENTED_EDGE('',*,*,#174,.F.);
#102=ORIENTED_EDGE('',*,*,#170,.T.);
#103=ORIENTED_EDGE('',*,*,#175,.T.);
#104=ORIENTED_EDGE('',*,*,#138,.F.);
#105=ORIENTED_EDGE('',*,*,#176,.F.);
#106=ORIENTED_EDGE('',*,*,#173,.T.);
#107=ORIENTED_EDGE('',*,*,#137,.T.);
#108=ORIENTED_EDGE('',*,*,#141,.T.);
#109=ORIENTED_EDGE('',*,*,#144,.T.);
#110=ORIENTED_EDGE('',*,*,#147,.T.);
#111=ORIENTED_EDGE('',*,*,#150,.T.);
#112=ORIENTED_EDGE('',*,*,#153,.T.);
#113=ORIENTED_EDGE('',*,*,#156,.T.);
#114=ORIENTED_EDGE('',*,*,#159,.T.);
#115=ORIENTED_EDGE('',*,*,#162,.T.);
#116=ORIENTED_EDGE('',*,*,#165,.T.);
#117=ORIENTED_EDGE('',*,*,#168,.T.);
#118=ORIENTED_EDGE('',*,*,#171,.T.);
#119=ORIENTED_EDGE('',*,*,#174,.T.);
#120=ORIENTED_EDGE('',*,*,#176,.T.);
#121=ORIENTED_EDGE('',*,*,#135,.F.);
#122=ORIENTED_EDGE('',*,*,#175,.F.);
#123=ORIENTED_EDGE('',*,*,#172,.F.);
#124=ORIENTED_EDGE('',*,*,#169,.F.);
#125=ORIENTED_EDGE('',*,*,#166,.F.);
#126=ORIENTED_EDGE('',*,*,#163,.F.);
#127=ORIENTED_EDGE('',*,*,#160,.F.);
#128=ORIENTED_EDGE('',*,*,#157,.F.);
#129=ORIENTED_EDGE('',*,*,#154,.F.);
#130=ORIENTED_EDGE('',*,*,#151,.F.);
#131=ORIENTED_EDGE('',*,*,#148,.F.);
#132=ORIENTED_EDGE('',*,*,#145,.F.);
#133=ORIENTED_EDGE('',*,*,#142,.F.);
#134=ORIENTED_EDGE('',*,*,#139,.F.);
#135=EDGE_CURVE('',#177,#178,#205,.T.);
#136=EDGE_CURVE('',#179,#178,#206,.T.);
#137=EDGE_CURVE('',#180,#179,#207,.T.);
#138=EDGE_CURVE('',#180,#177,#208,.T.);
#139=EDGE_CURVE('',#178,#181,#12,.T.);
#140=EDGE_CURVE('',#182,#181,#209,.T.);
#141=EDGE_CURVE('',#179,#182,#13,.T.);
#142=EDGE_CURVE('',#181,#183,#14,.T.);
#143=EDGE_CURVE('',#184,#183,#210,.T.);
#144=EDGE_CURVE('',#182,#184,#15,.T.);
#145=EDGE_CURVE('',#183,#185,#16,.T.);
#146=EDGE_CURVE('',#186,#185,#211,.T.);
#147=EDGE_CURVE('',#184,#186,#17,.T.);
#148=EDGE_CURVE('',#185,#187,#18,.T.);
#149=EDGE_CURVE('',#188,#187,#212,.T.);
#150=EDGE_CURVE('',#186,#188,#19,.T.);
#151=EDGE_CURVE('',#187,#189,#20,.T.);
#152=EDGE_CURVE('',#190,#189,#213,.T.);
#153=EDGE_CURVE('',#188,#190,#21,.T.);
#154=EDGE_CURVE('',#189,#191,#22,.T.);
#155=EDGE_CURVE('',#192,#191,#214,.T.);
#156=EDGE_CURVE('',#190,#192,#23,.T.);
#157=EDGE_CURVE('',#191,#193,#24,.T.);
#158=EDGE_CURVE('',#194,#193,#215,.T.);
#159=EDGE_CURVE('',#192,#194,#25,.T.);
#160=EDGE_CURVE('',#193,#195,#26,.T.);
#161=EDGE_CURVE('',#196,#195,#216,.T.);
#162=EDGE_CURVE('',#194,#196,#27,.T.);
#163=EDGE_CURVE('',#195,#197,#28,.T.);
#164=EDGE_CURVE('',#198,#197,#217,.T.);
#165=EDGE_CURVE('',#196,#198,#29,.T.);
#166=EDGE_CURVE('',#197,#199,#30,.T.);
#167=EDGE_CURVE('',#200,#199,#218,.T.);
#168=EDGE_CURVE('',#198,#200,#31,.T.);
#169=EDGE_CURVE('',#199,#201,#32,.T.);
#170=EDGE_CURVE('',#202,#201,#219,.T.);
#171=EDGE_CURVE('',#200,#202,#33,.T.);
#172=EDGE_CURVE('',#201,#203,#34,.T.);
#173=EDGE_CURVE('',#204,#203,#220,.T.);
#174=EDGE_CURVE('',#202,#204,#35,.T.);
#175=EDGE_CURVE('',#203,#177,#36,.T.);
#176=EDGE_CURVE('',#204,#180,#37,.T.);
#177=VERTEX_POINT('',#448);
#178=VERTEX_POINT('',#449);
#179=VERTEX_POINT('',#451);
#180=VERTEX_POINT('',#453);
#181=VERTEX_POINT('',#457);
#182=VERTEX_POINT('',#459);
#183=VERTEX_POINT('',#463);
#184=VERTEX_POINT('',#465);
#185=VERTEX_POINT('',#469);
#186=VERTEX_POINT('',#471);
#187=VERTEX_POINT('',#475);
#188=VERTEX_POINT('',#477);
#189=VERTEX_POINT('',#481);
#190=VERTEX_POINT('',#483);
#191=VERTEX_POINT('',#487);
#192=VERTEX_POINT('',#489);
#193=VERTEX_POINT('',#493);
#194=VERTEX_POINT('',#495);
#195=VERTEX_POINT('',#499);
#196=VERTEX_POINT('',#501);
#197=VERTEX_POINT('',#505);
#198=VERTEX_POINT('',#507);
#199=VERTEX_POINT('',#511);
#200=VERTEX_POINT('',#513);
#201=VERTEX_POINT('',#517);
#202=VERTEX_POINT('',#519);
#203=VERTEX_POINT('',#523);
#204=VERTEX_POINT('',#525);
#205=LINE('',#447,#221);
#206=LINE('',#450,#222);
#207=LINE('',#452,#223);
#208=LINE('',#454,#224);
#209=LINE('',#458,#225);
#210=LINE('',#464,#226);
#211=LINE('',#470,#227);
#212=LINE('',#476,#228);
#213=LINE('',#482,#229);
#214=LINE('',#488,#230);
#215=LINE('',#494,#231);
#216=LINE('',#500,#232);
#217=LINE('',#506,#233);
#218=LINE('',#512,#234);
#219=LINE('',#518,#235);
#220=LINE('',#524,#236);
#221=VECTOR('',#347,1.);
#222=VECTOR('',#348,1.);
#223=VECTOR('',#349,1.);
#224=VECTOR('',#350,1.);
#225=VECTOR('',#355,1.);
#226=VECTOR('',#362,1.);
#227=VECTOR('',#369,1.);
#228=VECTOR('',#376,1.);
#229=VECTOR('',#383,1.);
#230=VECTOR('',#390,1.);
#231=VECTOR('',#397,1.);
#232=VECTOR('',#404,1.);
#233=VECTOR('',#411,1.);
#234=VECTOR('',#418,1.);
#235=VECTOR('',#425,1.);
#236=VECTOR('',#432,1.);
#237=EDGE_LOOP('',(#51,#52,#53,#54));
#238=EDGE_LOOP('',(#55,#56,#57,#58));
#239=EDGE_LOOP('',(#59,#60,#61,#62));
#240=EDGE_LOOP('',(#63,#64,#65,#66));
#241=EDGE_LOOP('',(#67,#68,#69,#70));
#242=EDGE_LOOP('',(#71,#72,#73,#74));
#243=EDGE_LOOP('',(#75,#76,#77,#78));
#244=EDGE_LOOP('',(#79,#80,#81,#82));
#245=EDGE_LOOP('',(#83,#84,#85,#86));
#246=EDGE_LOOP('',(#87,#88,#89,#90));
#247=EDGE_LOOP('',(#91,#92,#93,#94));
#248=EDGE_LOOP('',(#95,#96,#97,#98));
#249=EDGE_LOOP('',(#99,#100,#101,#102));
#250=EDGE_LOOP('',(#103,#104,#105,#106));
#251=EDGE_LOOP('',(#107,#108,#109,#110,#111,#112,#113,#114,#115,#116,#117,
#118,#119,#120));
#252=EDGE_LOOP('',(#121,#122,#123,#124,#125,#126,#127,#128,#129,#130,#131,
#132,#133,#134));
#253=FACE_BOUND('',#237,.T.);
#254=FACE_BOUND('',#238,.T.);
#255=FACE_BOUND('',#239,.T.);
#256=FACE_BOUND('',#240,.T.);
#257=FACE_BOUND('',#241,.T.);
#258=FACE_BOUND('',#242,.T.);
#259=FACE_BOUND('',#243,.T.);
#260=FACE_BOUND('',#244,.T.);
#261=FACE_BOUND('',#245,.T.);
#262=FACE_BOUND('',#246,.T.);
#263=FACE_BOUND('',#247,.T.);
#264=FACE_BOUND('',#248,.T.);
#265=FACE_BOUND('',#249,.T.);
#266=FACE_BOUND('',#250,.T.);
#267=FACE_BOUND('',#251,.T.);
#268=FACE_BOUND('',#252,.T.);
#269=PLANE('',#301);
#270=PLANE('',#341);
#271=PLANE('',#342);
#272=ADVANCED_FACE('',(#253),#269,.F.);
#273=ADVANCED_FACE('',(#254),#38,.T.);
#274=ADVANCED_FACE('',(#255),#39,.T.);
#275=ADVANCED_FACE('',(#256),#40,.T.);
#276=ADVANCED_FACE('',(#257),#41,.F.);
#277=ADVANCED_FACE('',(#258),#42,.F.);
#278=ADVANCED_FACE('',(#259),#43,.F.);
#279=ADVANCED_FACE('',(#260),#44,.F.);
#280=ADVANCED_FACE('',(#261),#45,.T.);
#281=ADVANCED_FACE('',(#262),#46,.T.);
#282=ADVANCED_FACE('',(#263),#47,.T.);
#283=ADVANCED_FACE('',(#264),#48,.T.);
#284=ADVANCED_FACE('',(#265),#49,.F.);
#285=ADVANCED_FACE('',(#266),#50,.F.);
#286=ADVANCED_FACE('',(#267),#270,.T.);
#287=ADVANCED_FACE('',(#268),#271,.F.);
#288=CLOSED_SHELL('',(#272,#273,#274,#275,#276,#277,#278,#279,#280,#281,
#282,#283,#284,#285,#286,#287));
#289=STYLED_ITEM('',(#290),#297);
#290=PRESENTATION_STYLE_ASSIGNMENT((#291));
#291=SURFACE_STYLE_USAGE(.BOTH.,#292);
#292=SURFACE_SIDE_STYLE('',(#293));
#293=SURFACE_STYLE_FILL_AREA(#294);
#294=FILL_AREA_STYLE('',(#295));
#295=FILL_AREA_STYLE_COLOUR('',#296);
#296=COLOUR_RGB('',0.682352941176471,0.333333333333334,0.737254901960784);
#297=MANIFOLD_SOLID_BREP('ForgeG2',#288);
#298=SHAPE_DEFINITION_REPRESENTATION(#538,#299);
#299=SHAPE_REPRESENTATION('ForgeG2',(#300),#533);
#300=AXIS2_PLACEMENT_3D('',#445,#343,#344);
#301=AXIS2_PLACEMENT_3D('',#446,#345,#346);
#302=AXIS2_PLACEMENT_3D('',#455,#351,#352);
#303=AXIS2_PLACEMENT_3D('',#456,#353,#354);
#304=AXIS2_PLACEMENT_3D('',#460,#356,#357);
#305=AXIS2_PLACEMENT_3D('',#461,#358,#359);
#306=AXIS2_PLACEMENT_3D('',#462,#360,#361);
#307=AXIS2_PLACEMENT_3D('',#466,#363,#364);
#308=AXIS2_PLACEMENT_3D('',#467,#365,#366);
#309=AXIS2_PLACEMENT_3D('',#468,#367,#368);
#310=AXIS2_PLACEMENT_3D('',#472,#370,#371);
#311=AXIS2_PLACEMENT_3D('',#473,#372,#373);
#312=AXIS2_PLACEMENT_3D('',#474,#374,#375);
#313=AXIS2_PLACEMENT_3D('',#478,#377,#378);
#314=AXIS2_PLACEMENT_3D('',#479,#379,#380);
#315=AXIS2_PLACEMENT_3D('',#480,#381,#382);
#316=AXIS2_PLACEMENT_3D('',#484,#384,#385);
#317=AXIS2_PLACEMENT_3D('',#485,#386,#387);
#318=AXIS2_PLACEMENT_3D('',#486,#388,#389);
#319=AXIS2_PLACEMENT_3D('',#490,#391,#392);
#320=AXIS2_PLACEMENT_3D('',#491,#393,#394);
#321=AXIS2_PLACEMENT_3D('',#492,#395,#396);
#322=AXIS2_PLACEMENT_3D('',#496,#398,#399);
#323=AXIS2_PLACEMENT_3D('',#497,#400,#401);
#324=AXIS2_PLACEMENT_3D('',#498,#402,#403);
#325=AXIS2_PLACEMENT_3D('',#502,#405,#406);
#326=AXIS2_PLACEMENT_3D('',#503,#407,#408);
#327=AXIS2_PLACEMENT_3D('',#504,#409,#410);
#328=AXIS2_PLACEMENT_3D('',#508,#412,#413);
#329=AXIS2_PLACEMENT_3D('',#509,#414,#415);
#330=AXIS2_PLACEMENT_3D('',#510,#416,#417);
#331=AXIS2_PLACEMENT_3D('',#514,#419,#420);
#332=AXIS2_PLACEMENT_3D('',#515,#421,#422);
#333=AXIS2_PLACEMENT_3D('',#516,#423,#424);
#334=AXIS2_PLACEMENT_3D('',#520,#426,#427);
#335=AXIS2_PLACEMENT_3D('',#521,#428,#429);
#336=AXIS2_PLACEMENT_3D('',#522,#430,#431);
#337=AXIS2_PLACEMENT_3D('',#526,#433,#434);
#338=AXIS2_PLACEMENT_3D('',#527,#435,#436);
#339=AXIS2_PLACEMENT_3D('',#528,#437,#438);
#340=AXIS2_PLACEMENT_3D('',#529,#439,#440);
#341=AXIS2_PLACEMENT_3D('',#530,#441,#442);
#342=AXIS2_PLACEMENT_3D('',#531,#443,#444);
#343=DIRECTION('',(0.,0.,1.));
#344=DIRECTION('',(1.,0.,0.));
#345=DIRECTION('',(1.,5.69819275509417E-15,-6.92266033645436E-31));
#346=DIRECTION('',(5.69819275509417E-15,-1.,1.22464679914735E-16));
#347=DIRECTION('',(-5.69819275509417E-15,1.,-1.22464679914735E-16));
#348=DIRECTION('',(-5.56131819963552E-33,1.22464679914735E-16,1.));
#349=DIRECTION('',(-5.69819275509417E-15,1.,-1.22464679914735E-16));
#350=DIRECTION('',(-5.56131819963552E-33,1.22464679914735E-16,1.));
#351=DIRECTION('',(-5.56131819963552E-33,1.22464679914735E-16,1.));
#352=DIRECTION('',(-1.,-9.08232186375291E-17,5.56131819963552E-33));
#353=DIRECTION('',(5.56131819963552E-33,-1.22464679914735E-16,-1.));
#354=DIRECTION('',(1.,9.08232186375291E-17,-5.56131819963552E-33));
#355=DIRECTION('',(-5.56131819963552E-33,1.22464679914735E-16,1.));
#356=DIRECTION('',(5.56131819963552E-33,-1.22464679914735E-16,-1.));
#357=DIRECTION('',(1.,9.08232186375291E-17,-5.56131819963552E-33));
#358=DIRECTION('',(-5.56131819963552E-33,1.22464679914735E-16,1.));
#359=DIRECTION('',(-1.,-9.08232186375291E-17,5.56131819963552E-33));
#360=DIRECTION('',(5.56131819963552E-33,-1.22464679914735E-16,-1.));
#361=DIRECTION('',(1.,9.08232186375291E-17,-5.56131819963552E-33));
#362=DIRECTION('',(-5.56131819963552E-33,1.22464679914735E-16,1.));
#363=DIRECTION('',(5.56131819963552E-33,-1.22464679914735E-16,-1.));
#364=DIRECTION('',(1.,9.08232186375291E-17,-5.56131819963552E-33));
#365=DIRECTION('',(-5.56131819963552E-33,1.22464679914735E-16,1.));
#366=DIRECTION('',(-1.,-9.08232186375291E-17,5.56131819963552E-33));
#367=DIRECTION('',(5.56131819963552E-33,-1.22464679914735E-16,-1.));
#368=DIRECTION('',(1.,9.08232186375291E-17,-5.56131819963552E-33));
#369=DIRECTION('',(-5.56131819963552E-33,1.22464679914735E-16,1.));
#370=DIRECTION('',(5.56131819963552E-33,-1.22464679914735E-16,-1.));
#371=DIRECTION('',(1.,9.08232186375291E-17,-5.56131819963552E-33));
#372=DIRECTION('',(-5.56131819963552E-33,1.22464679914735E-16,1.));
#373=DIRECTION('',(-1.,-9.08232186375291E-17,5.56131819963552E-33));
#374=DIRECTION('',(-5.56131819963552E-33,1.22464679914735E-16,1.));
#375=DIRECTION('',(1.,9.08232186375291E-17,-5.56131819963552E-33));
#376=DIRECTION('',(-5.56131819963552E-33,1.22464679914735E-16,1.));
#377=DIRECTION('',(-5.56131819963552E-33,1.22464679914735E-16,1.));
#378=DIRECTION('',(1.,9.08232186375291E-17,-5.56131819963552E-33));
#379=DIRECTION('',(-5.56131819963552E-33,1.22464679914735E-16,1.));
#380=DIRECTION('',(-1.,-9.08232186375291E-17,5.56131819963552E-33));
#381=DIRECTION('',(-5.56131819963552E-33,1.22464679914735E-16,1.));
#382=DIRECTION('',(1.,9.08232186375291E-17,-5.56131819963552E-33));
#383=DIRECTION('',(-5.56131819963552E-33,1.22464679914735E-16,1.));
#384=DIRECTION('',(-5.56131819963552E-33,1.22464679914735E-16,1.));
#385=DIRECTION('',(1.,9.08232186375291E-17,-5.56131819963552E-33));
#386=DIRECTION('',(-5.56131819963552E-33,1.22464679914735E-16,1.));
#387=DIRECTION('',(-1.,-9.08232186375291E-17,5.56131819963552E-33));
#388=DIRECTION('',(-5.56131819963552E-33,1.22464679914735E-16,1.));
#389=DIRECTION('',(1.,9.08232186375291E-17,-5.56131819963552E-33));
#390=DIRECTION('',(-5.56131819963552E-33,1.22464679914735E-16,1.));
#391=DIRECTION('',(-5.56131819963552E-33,1.22464679914735E-16,1.));
#392=DIRECTION('',(1.,9.08232186375291E-17,-5.56131819963552E-33));
#393=DIRECTION('',(-5.56131819963552E-33,1.22464679914735E-16,1.));
#394=DIRECTION('',(-1.,-9.08232186375291E-17,5.56131819963552E-33));
#395=DIRECTION('',(-5.56131819963552E-33,1.22464679914735E-16,1.));
#396=DIRECTION('',(1.,9.08232186375291E-17,-5.56131819963552E-33));
#397=DIRECTION('',(-5.56131819963552E-33,1.22464679914735E-16,1.));
#398=DIRECTION('',(-5.56131819963552E-33,1.22464679914735E-16,1.));
#399=DIRECTION('',(1.,9.08232186375291E-17,-5.56131819963552E-33));
#400=DIRECTION('',(-5.56131819963552E-33,1.22464679914735E-16,1.));
#401=DIRECTION('',(-1.,-9.08232186375291E-17,5.56131819963552E-33));
#402=DIRECTION('',(5.56131819963552E-33,-1.22464679914735E-16,-1.));
#403=DIRECTION('',(1.,9.08232186375291E-17,-5.56131819963552E-33));
#404=DIRECTION('',(-5.56131819963552E-33,1.22464679914735E-16,1.));
#405=DIRECTION('',(5.56131819963552E-33,-1.22464679914735E-16,-1.));
#406=DIRECTION('',(1.,9.08232186375291E-17,-5.56131819963552E-33));
#407=DIRECTION('',(-5.56131819963552E-33,1.22464679914735E-16,1.));
#408=DIRECTION('',(-1.,-9.08232186375291E-17,5.56131819963552E-33));
#409=DIRECTION('',(5.56131819963552E-33,-1.22464679914735E-16,-1.));
#410=DIRECTION('',(1.,9.08232186375291E-17,-5.56131819963552E-33));
#411=DIRECTION('',(-5.56131819963552E-33,1.22464679914735E-16,1.));
#412=DIRECTION('',(5.56131819963552E-33,-1.22464679914735E-16,-1.));
#413=DIRECTION('',(1.,9.08232186375291E-17,-5.56131819963552E-33));
#414=DIRECTION('',(-5.56131819963552E-33,1.22464679914735E-16,1.));
#415=DIRECTION('',(-1.,-9.08232186375291E-17,5.56131819963552E-33));
#416=DIRECTION('',(5.56131819963552E-33,-1.22464679914735E-16,-1.));
#417=DIRECTION('',(1.,9.08232186375291E-17,-5.56131819963552E-33));
#418=DIRECTION('',(-5.56131819963552E-33,1.22464679914735E-16,1.));
#419=DIRECTION('',(5.56131819963552E-33,-1.22464679914735E-16,-1.));
#420=DIRECTION('',(1.,9.08232186375291E-17,-5.56131819963552E-33));
#421=DIRECTION('',(-5.56131819963552E-33,1.22464679914735E-16,1.));
#422=DIRECTION('',(-1.,-9.08232186375291E-17,5.56131819963552E-33));
#423=DIRECTION('',(5.56131819963552E-33,-1.22464679914735E-16,-1.));
#424=DIRECTION('',(1.,9.08232186375291E-17,-5.56131819963552E-33));
#425=DIRECTION('',(-5.56131819963552E-33,1.22464679914735E-16,1.));
#426=DIRECTION('',(5.56131819963552E-33,-1.22464679914735E-16,-1.));
#427=DIRECTION('',(1.,9.08232186375291E-17,-5.56131819963552E-33));
#428=DIRECTION('',(-5.56131819963552E-33,1.22464679914735E-16,1.));
#429=DIRECTION('',(-1.,-9.08232186375291E-17,5.56131819963552E-33));
#430=DIRECTION('',(-5.56131819963552E-33,1.22464679914735E-16,1.));
#431=DIRECTION('',(1.,9.08232186375291E-17,-5.56131819963552E-33));
#432=DIRECTION('',(-5.56131819963552E-33,1.22464679914735E-16,1.));
#433=DIRECTION('',(-5.56131819963552E-33,1.22464679914735E-16,1.));
#434=DIRECTION('',(1.,9.08232186375291E-17,-5.56131819963552E-33));
#435=DIRECTION('',(-5.56131819963552E-33,1.22464679914735E-16,1.));
#436=DIRECTION('',(-1.,-9.08232186375291E-17,5.56131819963552E-33));
#437=DIRECTION('',(-5.56131819963552E-33,1.22464679914735E-16,1.));
#438=DIRECTION('',(1.,9.08232186375291E-17,-5.56131819963552E-33));
#439=DIRECTION('',(-5.56131819963552E-33,1.22464679914735E-16,1.));
#440=DIRECTION('',(1.,9.08232186375291E-17,-5.56131819963552E-33));
#441=DIRECTION('',(5.56131819963552E-33,-1.22464679914735E-16,-1.));
#442=DIRECTION('',(1.,9.08232186375291E-17,-5.56131819963552E-33));
#443=DIRECTION('',(5.56131819963552E-33,-1.22464679914735E-16,-1.));
#444=DIRECTION('',(1.,9.08232186375291E-17,-5.56131819963552E-33));
#445=CARTESIAN_POINT('',(0.,0.,0.));
#446=CARTESIAN_POINT('',(-0.0470999999999982,-0.00833609252143535,-0.0237999946391486));
#447=CARTESIAN_POINT('',(-0.0470999999999982,-0.00833609252143535,-0.0229999946391486));
#448=CARTESIAN_POINT('',(-0.0470999999999982,-0.0101922820927112,-0.0229999946391486));
#449=CARTESIAN_POINT('',(-0.0470999999999982,-0.00647990295015948,-0.0229999946391486));
#450=CARTESIAN_POINT('',(-0.0470999999999982,-0.00647990295015948,-0.0237999946391486));
#451=CARTESIAN_POINT('',(-0.0470999999999982,-0.00647990295015948,-0.0237999946391486));
#452=CARTESIAN_POINT('',(-0.0470999999999982,-0.00833609252143535,-0.0237999946391486));
#453=CARTESIAN_POINT('',(-0.0470999999999982,-0.0101922820927112,-0.0237999946391486));
#454=CARTESIAN_POINT('',(-0.0470999999999982,-0.0101922820927112,-0.0237999946391486));
#455=CARTESIAN_POINT('',(-0.0495685154617247,-0.00871692190423866,-0.0237999946391486));
#456=CARTESIAN_POINT('',(-0.0495685154617247,-0.00871692190423866,-0.0229999946391486));
#457=CARTESIAN_POINT('',(-0.0469441510242442,-0.00666496340441929,-0.0229999946391486));
#458=CARTESIAN_POINT('',(-0.0469441510242442,-0.00666496340441929,-0.0237999946391486));
#459=CARTESIAN_POINT('',(-0.0469441510242442,-0.00666496340441929,-0.0237999946391486));
#460=CARTESIAN_POINT('',(-0.0495685154617247,-0.00871692190423866,-0.0237999946391486));
#461=CARTESIAN_POINT('',(-0.0482653524410397,-0.00769799465512838,-0.0237999946391486));
#462=CARTESIAN_POINT('',(-0.0482653524410397,-0.00769799465512838,-0.0229999946391486));
#463=CARTESIAN_POINT('',(-0.0467647112754789,-0.00694912694925258,-0.0229999946391486));
#464=CARTESIAN_POINT('',(-0.0467647112754789,-0.00694912694925258,-0.0237999946391486));
#465=CARTESIAN_POINT('',(-0.0467647112754789,-0.00694912694925258,-0.0237999946391486));
#466=CARTESIAN_POINT('',(-0.0482653524410397,-0.00769799465512838,-0.0237999946391486));
#467=CARTESIAN_POINT('',(-0.0497072257176129,-0.00841753531386228,-0.0237999946391486));
#468=CARTESIAN_POINT('',(-0.0497072257176129,-0.00841753531386228,-0.0229999946391486));
#469=CARTESIAN_POINT('',(-0.0466032655888236,-0.00733123614406189,-0.0229999946391486));
#470=CARTESIAN_POINT('',(-0.0466032655888236,-0.00733123614406189,-0.0237999946391486));
#471=CARTESIAN_POINT('',(-0.0466032655888236,-0.00733123614406189,-0.0237999946391486));
#472=CARTESIAN_POINT('',(-0.0497072257176129,-0.00841753531386228,-0.0237999946391486));
#473=CARTESIAN_POINT('',(-0.0416520108232852,-0.00559843555445759,-0.0237999946391486));
#474=CARTESIAN_POINT('',(-0.0416520108232852,-0.00559843555445759,-0.0229999946391486));
#475=CARTESIAN_POINT('',(-0.0464958466523372,-0.00761208301560702,-0.0229999946391486));
#476=CARTESIAN_POINT('',(-0.0464958466523372,-0.00761208301560702,-0.0237999946391486));
#477=CARTESIAN_POINT('',(-0.0464958466523372,-0.00761208301560702,-0.0237999946391486));
#478=CARTESIAN_POINT('',(-0.0416520108232852,-0.00559843555445759,-0.0237999946391486));
#479=CARTESIAN_POINT('',(-0.0422775768797397,-0.00585849174666096,-0.0237999946391486));
#480=CARTESIAN_POINT('',(-0.0422775768797397,-0.00585849174666096,-0.0229999946391486));
#481=CARTESIAN_POINT('',(-0.0463752929953747,-0.00787779975903562,-0.0229999946391486));
#482=CARTESIAN_POINT('',(-0.0463752929953747,-0.00787779975903562,-0.0237999946391486));
#483=CARTESIAN_POINT('',(-0.0463752929953747,-0.00787779975903562,-0.0237999946391486));
#484=CARTESIAN_POINT('',(-0.0422775768797397,-0.00585849174666096,-0.0237999946391486));
#485=CARTESIAN_POINT('',(-0.0427533973647907,-0.00609297068341533,-0.0237999946391486));
#486=CARTESIAN_POINT('',(-0.0427533973647907,-0.00609297068341533,-0.0229999946391486));
#487=CARTESIAN_POINT('',(-0.0462582177760977,-0.00809795863163561,-0.0229999946391486));
#488=CARTESIAN_POINT('',(-0.0462582177760977,-0.00809795863163561,-0.0237999946391486));
#489=CARTESIAN_POINT('',(-0.0462582177760977,-0.00809795863163561,-0.0237999946391486));
#490=CARTESIAN_POINT('',(-0.0427533973647907,-0.00609297068341533,-0.0237999946391486));
#491=CARTESIAN_POINT('',(-0.0457056960465288,-0.00778187983760056,-0.0237999946391486));
#492=CARTESIAN_POINT('',(-0.0457056960465288,-0.00778187983760056,-0.0229999946391486));
#493=CARTESIAN_POINT('',(-0.0461374682886652,-0.008249596414819,-0.0229999946391486));
#494=CARTESIAN_POINT('',(-0.0461374682886652,-0.008249596414819,-0.0237999946391486));
#495=CARTESIAN_POINT('',(-0.0461374682886652,-0.008249596414819,-0.0237999946391486));
#496=CARTESIAN_POINT('',(-0.0457056960465288,-0.00778187983760056,-0.0237999946391486));
#497=CARTESIAN_POINT('',(-0.0463794222814919,-0.00851169268300252,-0.0237999946391486));
#498=CARTESIAN_POINT('',(-0.0463794222814919,-0.00851169268300252,-0.0229999946391486));
#499=CARTESIAN_POINT('',(-0.0460302579137244,-0.00843875138659768,-0.0229999946391486));
#500=CARTESIAN_POINT('',(-0.0460302579137244,-0.00843875138659768,-0.0237999946391486));
#501=CARTESIAN_POINT('',(-0.0460302579137244,-0.00843875138659768,-0.0237999946391486));
#502=CARTESIAN_POINT('',(-0.0463794222814919,-0.00851169268300252,-0.0237999946391486));
#503=CARTESIAN_POINT('',(-0.0465470945344242,-0.0085467198296103,-0.0237999946391486));
#504=CARTESIAN_POINT('',(-0.0465470945344242,-0.0085467198296103,-0.0229999946391486));
#505=CARTESIAN_POINT('',(-0.0460428005367113,-0.00870313223657591,-0.0229999946391486));
#506=CARTESIAN_POINT('',(-0.0460428005367113,-0.00870313223657591,-0.0237999946391486));
#507=CARTESIAN_POINT('',(-0.0460428005367113,-0.00870313223657591,-0.0237999946391486));
#508=CARTESIAN_POINT('',(-0.0465470945344242,-0.0085467198296103,-0.0237999946391486));
#509=CARTESIAN_POINT('',(-0.047473823538473,-0.00825928449469544,-0.0237999946391486));
#510=CARTESIAN_POINT('',(-0.047473823538473,-0.00825928449469544,-0.0229999946391486));
#511=CARTESIAN_POINT('',(-0.04624094830905,-0.00911066356315939,-0.0229999946391486));
#512=CARTESIAN_POINT('',(-0.04624094830905,-0.00911066356315939,-0.0237999946391486));
#513=CARTESIAN_POINT('',(-0.04624094830905,-0.00911066356315939,-0.0237999946391486));
#514=CARTESIAN_POINT('',(-0.047473823538473,-0.00825928449469544,-0.0237999946391486));
#515=CARTESIAN_POINT('',(-0.0521275716005776,-0.00504557430292277,-0.0237999946391486));
#516=CARTESIAN_POINT('',(-0.0521275716005776,-0.00504557430292277,-0.0229999946391486));
#517=CARTESIAN_POINT('',(-0.0466866270150389,-0.00969029243076672,-0.0229999946391486));
#518=CARTESIAN_POINT('',(-0.0466866270150389,-0.00969029243076672,-0.0237999946391486));
#519=CARTESIAN_POINT('',(-0.0466866270150389,-0.00969029243076672,-0.0237999946391486));
#520=CARTESIAN_POINT('',(-0.0521275716005776,-0.00504557430292277,-0.0237999946391486));
#521=CARTESIAN_POINT('',(-0.0317327331936927,-0.0224558372037213,-0.0237999946391486));
#522=CARTESIAN_POINT('',(-0.0317327331936927,-0.0224558372037213,-0.0229999946391486));
#523=CARTESIAN_POINT('',(-0.0469602038020254,-0.0100179027834484,-0.0229999946391486));
#524=CARTESIAN_POINT('',(-0.0469602038020254,-0.0100179027834484,-0.0237999946391486));
#525=CARTESIAN_POINT('',(-0.0469602038020254,-0.0100179027834484,-0.0237999946391486));
#526=CARTESIAN_POINT('',(-0.0317327331936927,-0.0224558372037213,-0.0237999946391486));
#527=CARTESIAN_POINT('',(-0.0374939703702483,-0.0177500070612932,-0.0237999946391486));
#528=CARTESIAN_POINT('',(-0.0374939703702483,-0.0177500070612932,-0.0229999946391486));
#529=CARTESIAN_POINT('',(-0.0374939703702483,-0.0177500070612932,-0.0237999946391486));
#530=CARTESIAN_POINT('',(-0.0697228288706337,0.00606633418553786,-0.0237999946391486));
#531=CARTESIAN_POINT('',(-0.0697228288706337,0.00606633418553786,-0.0229999946391486));
#532=MECHANICAL_DESIGN_GEOMETRIC_PRESENTATION_REPRESENTATION('',(#289),
#533);
#533=(
GEOMETRIC_REPRESENTATION_CONTEXT(3)
GLOBAL_UNCERTAINTY_ASSIGNED_CONTEXT((#534))
GLOBAL_UNIT_ASSIGNED_CONTEXT((#537,#536,#535))
REPRESENTATION_CONTEXT('ForgeG2','TOP_LEVEL_ASSEMBLY_PART')
);
#534=UNCERTAINTY_MEASURE_WITH_UNIT(LENGTH_MEASURE(1.E-8),#537,
'DISTANCE_ACCURACY_VALUE','Maximum Tolerance applied to model');
#535=(
NAMED_UNIT(*)
SI_UNIT($,.STERADIAN.)
SOLID_ANGLE_UNIT()
);
#536=(
NAMED_UNIT(*)
PLANE_ANGLE_UNIT()
SI_UNIT($,.RADIAN.)
);
#537=(
LENGTH_UNIT()
NAMED_UNIT(*)
SI_UNIT($,.METRE.)
);
#538=PRODUCT_DEFINITION_SHAPE('','',#539);
#539=PRODUCT_DEFINITION('','',#541,#540);
#540=PRODUCT_DEFINITION_CONTEXT('',#547,'design');
#541=PRODUCT_DEFINITION_FORMATION_WITH_SPECIFIED_SOURCE('','',#543,
 .NOT_KNOWN.);
#542=PRODUCT_RELATED_PRODUCT_CATEGORY('','',(#543));
#543=PRODUCT('ForgeG2','ForgeG2','ForgeG2',(#545));
#544=PRODUCT_CATEGORY('','');
#545=PRODUCT_CONTEXT('',#547,'mechanical');
#546=APPLICATION_PROTOCOL_DEFINITION('international standard',
'ap242_managed_model_based_3d_engineering',2020,#547);
#547=APPLICATION_CONTEXT('managed model based 3d engineering');
ENDSEC;
END-ISO-10303-21;
