ISO-10303-21;
HEADER;
/* Generated by software containing ST-Developer
 * from STEP Tools, Inc. (www.steptools.com) 
 */
/* OPTION: using custom renumber hook */

FILE_DESCRIPTION(
/* description */ ('STEP AP242 Edition 2',
'CAx-IF Rec.Pracs.---Representation and Presentation of Product Manufa
cturing Information (PMI)---4.0---2014-10-13',
'CAx-IF Rec.Pracs.---3D Tessellated Geometry---0.4---2014-09-14','2;1',
'CAx-IF Rec.Pracs.---User Defined Attributes---1.5---2016-08-15'),
/* implementation_level */ '2;1');

FILE_NAME(
/* name */ 'CompleteShell - ValinorStar1',
/* time_stamp */ '2026-09-23T14:41:02Z',
/* author */ (''),
/* organization */ (''),
/* preprocessor_version */ 'ST-DEVELOPER v20',
/* originating_system */ 'ONSHAPE BY PTC INC, 1.221',
/* authorisation */ '  ');

FILE_SCHEMA (('AP242_MANAGED_MODEL_BASED_3D_ENGINEERING_MIM_LF { 1 0 10303 442 3 1 4 }'));
ENDSEC;

DATA;
#10=SHAPE_REPRESENTATION_RELATIONSHIP('','',#655,#11);
#11=ADVANCED_BREP_SHAPE_REPRESENTATION('',(#653),#1149);
#12=PLANE('',#660);
#13=PLANE('',#661);
#14=PLANE('',#680);
#15=PLANE('',#681);
#16=PLANE('',#700);
#17=PLANE('',#701);
#18=PLANE('',#720);
#19=PLANE('',#721);
#20=PLANE('',#737);
#21=PLANE('',#738);
#22=LINE('',#958,#70);
#23=LINE('',#962,#71);
#24=LINE('',#964,#72);
#25=LINE('',#966,#73);
#26=LINE('',#968,#74);
#27=LINE('',#970,#75);
#28=LINE('',#972,#76);
#29=LINE('',#974,#77);
#30=LINE('',#980,#78);
#31=LINE('',#986,#79);
#32=LINE('',#992,#80);
#33=LINE('',#998,#81);
#34=LINE('',#1004,#82);
#35=LINE('',#1010,#83);
#36=LINE('',#1012,#84);
#37=LINE('',#1014,#85);
#38=LINE('',#1016,#86);
#39=LINE('',#1018,#87);
#40=LINE('',#1020,#88);
#41=LINE('',#1022,#89);
#42=LINE('',#1028,#90);
#43=LINE('',#1034,#91);
#44=LINE('',#1040,#92);
#45=LINE('',#1046,#93);
#46=LINE('',#1052,#94);
#47=LINE('',#1058,#95);
#48=LINE('',#1060,#96);
#49=LINE('',#1062,#97);
#50=LINE('',#1064,#98);
#51=LINE('',#1066,#99);
#52=LINE('',#1068,#100);
#53=LINE('',#1070,#101);
#54=LINE('',#1076,#102);
#55=LINE('',#1082,#103);
#56=LINE('',#1088,#104);
#57=LINE('',#1094,#105);
#58=LINE('',#1100,#106);
#59=LINE('',#1106,#107);
#60=LINE('',#1108,#108);
#61=LINE('',#1110,#109);
#62=LINE('',#1112,#110);
#63=LINE('',#1114,#111);
#64=LINE('',#1116,#112);
#65=LINE('',#1118,#113);
#66=LINE('',#1124,#114);
#67=LINE('',#1130,#115);
#68=LINE('',#1136,#116);
#69=LINE('',#1142,#117);
#70=VECTOR('',#745,1.);
#71=VECTOR('',#748,1.);
#72=VECTOR('',#751,1.);
#73=VECTOR('',#752,1.);
#74=VECTOR('',#753,1.);
#75=VECTOR('',#756,1.);
#76=VECTOR('',#757,1.);
#77=VECTOR('',#758,1.);
#78=VECTOR('',#765,1.);
#79=VECTOR('',#772,1.);
#80=VECTOR('',#779,1.);
#81=VECTOR('',#786,1.);
#82=VECTOR('',#793,1.);
#83=VECTOR('',#800,1.);
#84=VECTOR('',#803,1.);
#85=VECTOR('',#804,1.);
#86=VECTOR('',#805,1.);
#87=VECTOR('',#808,1.);
#88=VECTOR('',#809,1.);
#89=VECTOR('',#810,1.);
#90=VECTOR('',#817,1.);
#91=VECTOR('',#824,1.);
#92=VECTOR('',#831,1.);
#93=VECTOR('',#838,1.);
#94=VECTOR('',#845,1.);
#95=VECTOR('',#852,1.);
#96=VECTOR('',#855,1.);
#97=VECTOR('',#856,1.);
#98=VECTOR('',#857,1.);
#99=VECTOR('',#860,1.);
#100=VECTOR('',#861,1.);
#101=VECTOR('',#862,1.);
#102=VECTOR('',#869,1.);
#103=VECTOR('',#876,1.);
#104=VECTOR('',#883,1.);
#105=VECTOR('',#890,1.);
#106=VECTOR('',#897,1.);
#107=VECTOR('',#904,1.);
#108=VECTOR('',#907,1.);
#109=VECTOR('',#908,1.);
#110=VECTOR('',#909,1.);
#111=VECTOR('',#912,1.);
#112=VECTOR('',#913,1.);
#113=VECTOR('',#914,1.);
#114=VECTOR('',#921,1.);
#115=VECTOR('',#928,1.);
#116=VECTOR('',#935,1.);
#117=VECTOR('',#942,1.);
#118=ORIENTED_EDGE('',*,*,#310,.F.);
#119=ORIENTED_EDGE('',*,*,#311,.F.);
#120=ORIENTED_EDGE('',*,*,#312,.T.);
#121=ORIENTED_EDGE('',*,*,#313,.T.);
#122=ORIENTED_EDGE('',*,*,#314,.F.);
#123=ORIENTED_EDGE('',*,*,#313,.F.);
#124=ORIENTED_EDGE('',*,*,#315,.T.);
#125=ORIENTED_EDGE('',*,*,#316,.T.);
#126=ORIENTED_EDGE('',*,*,#317,.F.);
#127=ORIENTED_EDGE('',*,*,#316,.F.);
#128=ORIENTED_EDGE('',*,*,#318,.T.);
#129=ORIENTED_EDGE('',*,*,#319,.T.);
#130=ORIENTED_EDGE('',*,*,#320,.F.);
#131=ORIENTED_EDGE('',*,*,#319,.F.);
#132=ORIENTED_EDGE('',*,*,#321,.T.);
#133=ORIENTED_EDGE('',*,*,#322,.T.);
#134=ORIENTED_EDGE('',*,*,#323,.F.);
#135=ORIENTED_EDGE('',*,*,#322,.F.);
#136=ORIENTED_EDGE('',*,*,#324,.T.);
#137=ORIENTED_EDGE('',*,*,#325,.T.);
#138=ORIENTED_EDGE('',*,*,#326,.F.);
#139=ORIENTED_EDGE('',*,*,#325,.F.);
#140=ORIENTED_EDGE('',*,*,#327,.T.);
#141=ORIENTED_EDGE('',*,*,#328,.T.);
#142=ORIENTED_EDGE('',*,*,#329,.F.);
#143=ORIENTED_EDGE('',*,*,#328,.F.);
#144=ORIENTED_EDGE('',*,*,#330,.T.);
#145=ORIENTED_EDGE('',*,*,#331,.T.);
#146=ORIENTED_EDGE('',*,*,#332,.F.);
#147=ORIENTED_EDGE('',*,*,#331,.F.);
#148=ORIENTED_EDGE('',*,*,#333,.T.);
#149=ORIENTED_EDGE('',*,*,#334,.T.);
#150=ORIENTED_EDGE('',*,*,#335,.F.);
#151=ORIENTED_EDGE('',*,*,#334,.F.);
#152=ORIENTED_EDGE('',*,*,#336,.T.);
#153=ORIENTED_EDGE('',*,*,#337,.T.);
#154=ORIENTED_EDGE('',*,*,#338,.F.);
#155=ORIENTED_EDGE('',*,*,#337,.F.);
#156=ORIENTED_EDGE('',*,*,#339,.T.);
#157=ORIENTED_EDGE('',*,*,#340,.T.);
#158=ORIENTED_EDGE('',*,*,#341,.F.);
#159=ORIENTED_EDGE('',*,*,#340,.F.);
#160=ORIENTED_EDGE('',*,*,#342,.T.);
#161=ORIENTED_EDGE('',*,*,#343,.T.);
#162=ORIENTED_EDGE('',*,*,#344,.F.);
#163=ORIENTED_EDGE('',*,*,#343,.F.);
#164=ORIENTED_EDGE('',*,*,#345,.T.);
#165=ORIENTED_EDGE('',*,*,#346,.T.);
#166=ORIENTED_EDGE('',*,*,#347,.F.);
#167=ORIENTED_EDGE('',*,*,#346,.F.);
#168=ORIENTED_EDGE('',*,*,#348,.T.);
#169=ORIENTED_EDGE('',*,*,#349,.T.);
#170=ORIENTED_EDGE('',*,*,#350,.F.);
#171=ORIENTED_EDGE('',*,*,#349,.F.);
#172=ORIENTED_EDGE('',*,*,#351,.T.);
#173=ORIENTED_EDGE('',*,*,#352,.T.);
#174=ORIENTED_EDGE('',*,*,#353,.F.);
#175=ORIENTED_EDGE('',*,*,#352,.F.);
#176=ORIENTED_EDGE('',*,*,#354,.T.);
#177=ORIENTED_EDGE('',*,*,#355,.T.);
#178=ORIENTED_EDGE('',*,*,#356,.F.);
#179=ORIENTED_EDGE('',*,*,#355,.F.);
#180=ORIENTED_EDGE('',*,*,#357,.T.);
#181=ORIENTED_EDGE('',*,*,#358,.T.);
#182=ORIENTED_EDGE('',*,*,#359,.F.);
#183=ORIENTED_EDGE('',*,*,#358,.F.);
#184=ORIENTED_EDGE('',*,*,#360,.T.);
#185=ORIENTED_EDGE('',*,*,#361,.T.);
#186=ORIENTED_EDGE('',*,*,#362,.F.);
#187=ORIENTED_EDGE('',*,*,#361,.F.);
#188=ORIENTED_EDGE('',*,*,#363,.T.);
#189=ORIENTED_EDGE('',*,*,#364,.T.);
#190=ORIENTED_EDGE('',*,*,#365,.F.);
#191=ORIENTED_EDGE('',*,*,#364,.F.);
#192=ORIENTED_EDGE('',*,*,#366,.T.);
#193=ORIENTED_EDGE('',*,*,#367,.T.);
#194=ORIENTED_EDGE('',*,*,#368,.F.);
#195=ORIENTED_EDGE('',*,*,#367,.F.);
#196=ORIENTED_EDGE('',*,*,#369,.T.);
#197=ORIENTED_EDGE('',*,*,#370,.T.);
#198=ORIENTED_EDGE('',*,*,#371,.F.);
#199=ORIENTED_EDGE('',*,*,#370,.F.);
#200=ORIENTED_EDGE('',*,*,#372,.T.);
#201=ORIENTED_EDGE('',*,*,#373,.T.);
#202=ORIENTED_EDGE('',*,*,#374,.F.);
#203=ORIENTED_EDGE('',*,*,#373,.F.);
#204=ORIENTED_EDGE('',*,*,#375,.T.);
#205=ORIENTED_EDGE('',*,*,#376,.T.);
#206=ORIENTED_EDGE('',*,*,#377,.F.);
#207=ORIENTED_EDGE('',*,*,#376,.F.);
#208=ORIENTED_EDGE('',*,*,#378,.T.);
#209=ORIENTED_EDGE('',*,*,#379,.T.);
#210=ORIENTED_EDGE('',*,*,#380,.F.);
#211=ORIENTED_EDGE('',*,*,#379,.F.);
#212=ORIENTED_EDGE('',*,*,#381,.T.);
#213=ORIENTED_EDGE('',*,*,#382,.T.);
#214=ORIENTED_EDGE('',*,*,#383,.F.);
#215=ORIENTED_EDGE('',*,*,#382,.F.);
#216=ORIENTED_EDGE('',*,*,#384,.T.);
#217=ORIENTED_EDGE('',*,*,#385,.T.);
#218=ORIENTED_EDGE('',*,*,#386,.F.);
#219=ORIENTED_EDGE('',*,*,#385,.F.);
#220=ORIENTED_EDGE('',*,*,#387,.T.);
#221=ORIENTED_EDGE('',*,*,#388,.T.);
#222=ORIENTED_EDGE('',*,*,#389,.F.);
#223=ORIENTED_EDGE('',*,*,#388,.F.);
#224=ORIENTED_EDGE('',*,*,#390,.T.);
#225=ORIENTED_EDGE('',*,*,#391,.T.);
#226=ORIENTED_EDGE('',*,*,#392,.F.);
#227=ORIENTED_EDGE('',*,*,#391,.F.);
#228=ORIENTED_EDGE('',*,*,#393,.T.);
#229=ORIENTED_EDGE('',*,*,#394,.T.);
#230=ORIENTED_EDGE('',*,*,#395,.F.);
#231=ORIENTED_EDGE('',*,*,#394,.F.);
#232=ORIENTED_EDGE('',*,*,#396,.T.);
#233=ORIENTED_EDGE('',*,*,#397,.T.);
#234=ORIENTED_EDGE('',*,*,#398,.F.);
#235=ORIENTED_EDGE('',*,*,#397,.F.);
#236=ORIENTED_EDGE('',*,*,#399,.T.);
#237=ORIENTED_EDGE('',*,*,#400,.T.);
#238=ORIENTED_EDGE('',*,*,#401,.F.);
#239=ORIENTED_EDGE('',*,*,#400,.F.);
#240=ORIENTED_EDGE('',*,*,#402,.T.);
#241=ORIENTED_EDGE('',*,*,#403,.T.);
#242=ORIENTED_EDGE('',*,*,#404,.F.);
#243=ORIENTED_EDGE('',*,*,#403,.F.);
#244=ORIENTED_EDGE('',*,*,#405,.T.);
#245=ORIENTED_EDGE('',*,*,#311,.T.);
#246=ORIENTED_EDGE('',*,*,#312,.F.);
#247=ORIENTED_EDGE('',*,*,#405,.F.);
#248=ORIENTED_EDGE('',*,*,#402,.F.);
#249=ORIENTED_EDGE('',*,*,#399,.F.);
#250=ORIENTED_EDGE('',*,*,#396,.F.);
#251=ORIENTED_EDGE('',*,*,#393,.F.);
#252=ORIENTED_EDGE('',*,*,#390,.F.);
#253=ORIENTED_EDGE('',*,*,#387,.F.);
#254=ORIENTED_EDGE('',*,*,#384,.F.);
#255=ORIENTED_EDGE('',*,*,#381,.F.);
#256=ORIENTED_EDGE('',*,*,#378,.F.);
#257=ORIENTED_EDGE('',*,*,#375,.F.);
#258=ORIENTED_EDGE('',*,*,#372,.F.);
#259=ORIENTED_EDGE('',*,*,#369,.F.);
#260=ORIENTED_EDGE('',*,*,#366,.F.);
#261=ORIENTED_EDGE('',*,*,#363,.F.);
#262=ORIENTED_EDGE('',*,*,#360,.F.);
#263=ORIENTED_EDGE('',*,*,#357,.F.);
#264=ORIENTED_EDGE('',*,*,#354,.F.);
#265=ORIENTED_EDGE('',*,*,#351,.F.);
#266=ORIENTED_EDGE('',*,*,#348,.F.);
#267=ORIENTED_EDGE('',*,*,#345,.F.);
#268=ORIENTED_EDGE('',*,*,#342,.F.);
#269=ORIENTED_EDGE('',*,*,#339,.F.);
#270=ORIENTED_EDGE('',*,*,#336,.F.);
#271=ORIENTED_EDGE('',*,*,#333,.F.);
#272=ORIENTED_EDGE('',*,*,#330,.F.);
#273=ORIENTED_EDGE('',*,*,#327,.F.);
#274=ORIENTED_EDGE('',*,*,#324,.F.);
#275=ORIENTED_EDGE('',*,*,#321,.F.);
#276=ORIENTED_EDGE('',*,*,#318,.F.);
#277=ORIENTED_EDGE('',*,*,#315,.F.);
#278=ORIENTED_EDGE('',*,*,#310,.T.);
#279=ORIENTED_EDGE('',*,*,#314,.T.);
#280=ORIENTED_EDGE('',*,*,#317,.T.);
#281=ORIENTED_EDGE('',*,*,#320,.T.);
#282=ORIENTED_EDGE('',*,*,#323,.T.);
#283=ORIENTED_EDGE('',*,*,#326,.T.);
#284=ORIENTED_EDGE('',*,*,#329,.T.);
#285=ORIENTED_EDGE('',*,*,#332,.T.);
#286=ORIENTED_EDGE('',*,*,#335,.T.);
#287=ORIENTED_EDGE('',*,*,#338,.T.);
#288=ORIENTED_EDGE('',*,*,#341,.T.);
#289=ORIENTED_EDGE('',*,*,#344,.T.);
#290=ORIENTED_EDGE('',*,*,#347,.T.);
#291=ORIENTED_EDGE('',*,*,#350,.T.);
#292=ORIENTED_EDGE('',*,*,#353,.T.);
#293=ORIENTED_EDGE('',*,*,#356,.T.);
#294=ORIENTED_EDGE('',*,*,#359,.T.);
#295=ORIENTED_EDGE('',*,*,#362,.T.);
#296=ORIENTED_EDGE('',*,*,#365,.T.);
#297=ORIENTED_EDGE('',*,*,#368,.T.);
#298=ORIENTED_EDGE('',*,*,#371,.T.);
#299=ORIENTED_EDGE('',*,*,#374,.T.);
#300=ORIENTED_EDGE('',*,*,#377,.T.);
#301=ORIENTED_EDGE('',*,*,#380,.T.);
#302=ORIENTED_EDGE('',*,*,#383,.T.);
#303=ORIENTED_EDGE('',*,*,#386,.T.);
#304=ORIENTED_EDGE('',*,*,#389,.T.);
#305=ORIENTED_EDGE('',*,*,#392,.T.);
#306=ORIENTED_EDGE('',*,*,#395,.T.);
#307=ORIENTED_EDGE('',*,*,#398,.T.);
#308=ORIENTED_EDGE('',*,*,#401,.T.);
#309=ORIENTED_EDGE('',*,*,#404,.T.);
#310=EDGE_CURVE('',#406,#407,#470,.T.);
#311=EDGE_CURVE('',#408,#406,#22,.T.);
#312=EDGE_CURVE('',#408,#409,#471,.T.);
#313=EDGE_CURVE('',#409,#407,#23,.T.);
#314=EDGE_CURVE('',#407,#410,#24,.T.);
#315=EDGE_CURVE('',#409,#411,#25,.T.);
#316=EDGE_CURVE('',#411,#410,#26,.T.);
#317=EDGE_CURVE('',#410,#412,#27,.T.);
#318=EDGE_CURVE('',#411,#413,#28,.T.);
#319=EDGE_CURVE('',#413,#412,#29,.T.);
#320=EDGE_CURVE('',#412,#414,#472,.T.);
#321=EDGE_CURVE('',#413,#415,#473,.T.);
#322=EDGE_CURVE('',#415,#414,#30,.T.);
#323=EDGE_CURVE('',#414,#416,#474,.T.);
#324=EDGE_CURVE('',#415,#417,#475,.T.);
#325=EDGE_CURVE('',#417,#416,#31,.T.);
#326=EDGE_CURVE('',#416,#418,#476,.T.);
#327=EDGE_CURVE('',#417,#419,#477,.T.);
#328=EDGE_CURVE('',#419,#418,#32,.T.);
#329=EDGE_CURVE('',#418,#420,#478,.T.);
#330=EDGE_CURVE('',#419,#421,#479,.T.);
#331=EDGE_CURVE('',#421,#420,#33,.T.);
#332=EDGE_CURVE('',#420,#422,#480,.T.);
#333=EDGE_CURVE('',#421,#423,#481,.T.);
#334=EDGE_CURVE('',#423,#422,#34,.T.);
#335=EDGE_CURVE('',#422,#424,#482,.T.);
#336=EDGE_CURVE('',#423,#425,#483,.T.);
#337=EDGE_CURVE('',#425,#424,#35,.T.);
#338=EDGE_CURVE('',#424,#426,#36,.T.);
#339=EDGE_CURVE('',#425,#427,#37,.T.);
#340=EDGE_CURVE('',#427,#426,#38,.T.);
#341=EDGE_CURVE('',#426,#428,#39,.T.);
#342=EDGE_CURVE('',#427,#429,#40,.T.);
#343=EDGE_CURVE('',#429,#428,#41,.T.);
#344=EDGE_CURVE('',#428,#430,#484,.T.);
#345=EDGE_CURVE('',#429,#431,#485,.T.);
#346=EDGE_CURVE('',#431,#430,#42,.T.);
#347=EDGE_CURVE('',#430,#432,#486,.T.);
#348=EDGE_CURVE('',#431,#433,#487,.T.);
#349=EDGE_CURVE('',#433,#432,#43,.T.);
#350=EDGE_CURVE('',#432,#434,#488,.T.);
#351=EDGE_CURVE('',#433,#435,#489,.T.);
#352=EDGE_CURVE('',#435,#434,#44,.T.);
#353=EDGE_CURVE('',#434,#436,#490,.T.);
#354=EDGE_CURVE('',#435,#437,#491,.T.);
#355=EDGE_CURVE('',#437,#436,#45,.T.);
#356=EDGE_CURVE('',#436,#438,#492,.T.);
#357=EDGE_CURVE('',#437,#439,#493,.T.);
#358=EDGE_CURVE('',#439,#438,#46,.T.);
#359=EDGE_CURVE('',#438,#440,#494,.T.);
#360=EDGE_CURVE('',#439,#441,#495,.T.);
#361=EDGE_CURVE('',#441,#440,#47,.T.);
#362=EDGE_CURVE('',#440,#442,#48,.T.);
#363=EDGE_CURVE('',#441,#443,#49,.T.);
#364=EDGE_CURVE('',#443,#442,#50,.T.);
#365=EDGE_CURVE('',#442,#444,#51,.T.);
#366=EDGE_CURVE('',#443,#445,#52,.T.);
#367=EDGE_CURVE('',#445,#444,#53,.T.);
#368=EDGE_CURVE('',#444,#446,#496,.T.);
#369=EDGE_CURVE('',#445,#447,#497,.T.);
#370=EDGE_CURVE('',#447,#446,#54,.T.);
#371=EDGE_CURVE('',#446,#448,#498,.T.);
#372=EDGE_CURVE('',#447,#449,#499,.T.);
#373=EDGE_CURVE('',#449,#448,#55,.T.);
#374=EDGE_CURVE('',#448,#450,#500,.T.);
#375=EDGE_CURVE('',#449,#451,#501,.T.);
#376=EDGE_CURVE('',#451,#450,#56,.T.);
#377=EDGE_CURVE('',#450,#452,#502,.T.);
#378=EDGE_CURVE('',#451,#453,#503,.T.);
#379=EDGE_CURVE('',#453,#452,#57,.T.);
#380=EDGE_CURVE('',#452,#454,#504,.T.);
#381=EDGE_CURVE('',#453,#455,#505,.T.);
#382=EDGE_CURVE('',#455,#454,#58,.T.);
#383=EDGE_CURVE('',#454,#456,#506,.T.);
#384=EDGE_CURVE('',#455,#457,#507,.T.);
#385=EDGE_CURVE('',#457,#456,#59,.T.);
#386=EDGE_CURVE('',#456,#458,#60,.T.);
#387=EDGE_CURVE('',#457,#459,#61,.T.);
#388=EDGE_CURVE('',#459,#458,#62,.T.);
#389=EDGE_CURVE('',#458,#460,#63,.T.);
#390=EDGE_CURVE('',#459,#461,#64,.T.);
#391=EDGE_CURVE('',#461,#460,#65,.T.);
#392=EDGE_CURVE('',#460,#462,#508,.T.);
#393=EDGE_CURVE('',#461,#463,#509,.T.);
#394=EDGE_CURVE('',#463,#462,#66,.T.);
#395=EDGE_CURVE('',#462,#464,#510,.T.);
#396=EDGE_CURVE('',#463,#465,#511,.T.);
#397=EDGE_CURVE('',#465,#464,#67,.T.);
#398=EDGE_CURVE('',#464,#466,#512,.T.);
#399=EDGE_CURVE('',#465,#467,#513,.T.);
#400=EDGE_CURVE('',#467,#466,#68,.T.);
#401=EDGE_CURVE('',#466,#468,#514,.T.);
#402=EDGE_CURVE('',#467,#469,#515,.T.);
#403=EDGE_CURVE('',#469,#468,#69,.T.);
#404=EDGE_CURVE('',#468,#406,#516,.T.);
#405=EDGE_CURVE('',#469,#408,#517,.T.);
#406=VERTEX_POINT('',#956);
#407=VERTEX_POINT('',#957);
#408=VERTEX_POINT('',#959);
#409=VERTEX_POINT('',#961);
#410=VERTEX_POINT('',#965);
#411=VERTEX_POINT('',#967);
#412=VERTEX_POINT('',#971);
#413=VERTEX_POINT('',#973);
#414=VERTEX_POINT('',#977);
#415=VERTEX_POINT('',#979);
#416=VERTEX_POINT('',#983);
#417=VERTEX_POINT('',#985);
#418=VERTEX_POINT('',#989);
#419=VERTEX_POINT('',#991);
#420=VERTEX_POINT('',#995);
#421=VERTEX_POINT('',#997);
#422=VERTEX_POINT('',#1001);
#423=VERTEX_POINT('',#1003);
#424=VERTEX_POINT('',#1007);
#425=VERTEX_POINT('',#1009);
#426=VERTEX_POINT('',#1013);
#427=VERTEX_POINT('',#1015);
#428=VERTEX_POINT('',#1019);
#429=VERTEX_POINT('',#1021);
#430=VERTEX_POINT('',#1025);
#431=VERTEX_POINT('',#1027);
#432=VERTEX_POINT('',#1031);
#433=VERTEX_POINT('',#1033);
#434=VERTEX_POINT('',#1037);
#435=VERTEX_POINT('',#1039);
#436=VERTEX_POINT('',#1043);
#437=VERTEX_POINT('',#1045);
#438=VERTEX_POINT('',#1049);
#439=VERTEX_POINT('',#1051);
#440=VERTEX_POINT('',#1055);
#441=VERTEX_POINT('',#1057);
#442=VERTEX_POINT('',#1061);
#443=VERTEX_POINT('',#1063);
#444=VERTEX_POINT('',#1067);
#445=VERTEX_POINT('',#1069);
#446=VERTEX_POINT('',#1073);
#447=VERTEX_POINT('',#1075);
#448=VERTEX_POINT('',#1079);
#449=VERTEX_POINT('',#1081);
#450=VERTEX_POINT('',#1085);
#451=VERTEX_POINT('',#1087);
#452=VERTEX_POINT('',#1091);
#453=VERTEX_POINT('',#1093);
#454=VERTEX_POINT('',#1097);
#455=VERTEX_POINT('',#1099);
#456=VERTEX_POINT('',#1103);
#457=VERTEX_POINT('',#1105);
#458=VERTEX_POINT('',#1109);
#459=VERTEX_POINT('',#1111);
#460=VERTEX_POINT('',#1115);
#461=VERTEX_POINT('',#1117);
#462=VERTEX_POINT('',#1121);
#463=VERTEX_POINT('',#1123);
#464=VERTEX_POINT('',#1127);
#465=VERTEX_POINT('',#1129);
#466=VERTEX_POINT('',#1133);
#467=VERTEX_POINT('',#1135);
#468=VERTEX_POINT('',#1139);
#469=VERTEX_POINT('',#1141);
#470=CIRCLE('',#658,0.0415863463767775);
#471=CIRCLE('',#659,0.0415863463767775);
#472=CIRCLE('',#663,0.0396033321293824);
#473=CIRCLE('',#664,0.0396033321293824);
#474=CIRCLE('',#666,0.0212943388709788);
#475=CIRCLE('',#667,0.0212943388709788);
#476=CIRCLE('',#669,0.0374809693804256);
#477=CIRCLE('',#670,0.0374809693804256);
#478=CIRCLE('',#672,0.0402434673707569);
#479=CIRCLE('',#673,0.0402434673707569);
#480=CIRCLE('',#675,0.0223713296593776);
#481=CIRCLE('',#676,0.0223713296593776);
#482=CIRCLE('',#678,0.0415863463767382);
#483=CIRCLE('',#679,0.0415863463767382);
#484=CIRCLE('',#683,0.0377132337234963);
#485=CIRCLE('',#684,0.0377132337234963);
#486=CIRCLE('',#686,0.0203485884435549);
#487=CIRCLE('',#687,0.0203485884435549);
#488=CIRCLE('',#689,0.0342297419368081);
#489=CIRCLE('',#690,0.0342297419368081);
#490=CIRCLE('',#692,0.0342297419368244);
#491=CIRCLE('',#693,0.0342297419368244);
#492=CIRCLE('',#695,0.0203485884435562);
#493=CIRCLE('',#696,0.0203485884435562);
#494=CIRCLE('',#698,0.0377132337234955);
#495=CIRCLE('',#699,0.0377132337234955);
#496=CIRCLE('',#703,0.0437744819428299);
#497=CIRCLE('',#704,0.0437744819428299);
#498=CIRCLE('',#706,0.0234687715478574);
#499=CIRCLE('',#707,0.0234687715478574);
#500=CIRCLE('',#709,0.0442940868413272);
#501=CIRCLE('',#710,0.0442940868413272);
#502=CIRCLE('',#712,0.044294086841238);
#503=CIRCLE('',#713,0.044294086841238);
#504=CIRCLE('',#715,0.0234687715478362);
#505=CIRCLE('',#716,0.0234687715478362);
#506=CIRCLE('',#718,0.0437744819428099);
#507=CIRCLE('',#719,0.0437744819428099);
#508=CIRCLE('',#723,0.0396033321293056);
#509=CIRCLE('',#724,0.0396033321293056);
#510=CIRCLE('',#726,0.0212943388709778);
#511=CIRCLE('',#727,0.0212943388709778);
#512=CIRCLE('',#729,0.0374809693806956);
#513=CIRCLE('',#730,0.0374809693806956);
#514=CIRCLE('',#732,0.0402434673707803);
#515=CIRCLE('',#733,0.0402434673707803);
#516=CIRCLE('',#735,0.0223713296593393);
#517=CIRCLE('',#736,0.0223713296593393);
#518=EDGE_LOOP('',(#118,#119,#120,#121));
#519=EDGE_LOOP('',(#122,#123,#124,#125));
#520=EDGE_LOOP('',(#126,#127,#128,#129));
#521=EDGE_LOOP('',(#130,#131,#132,#133));
#522=EDGE_LOOP('',(#134,#135,#136,#137));
#523=EDGE_LOOP('',(#138,#139,#140,#141));
#524=EDGE_LOOP('',(#142,#143,#144,#145));
#525=EDGE_LOOP('',(#146,#147,#148,#149));
#526=EDGE_LOOP('',(#150,#151,#152,#153));
#527=EDGE_LOOP('',(#154,#155,#156,#157));
#528=EDGE_LOOP('',(#158,#159,#160,#161));
#529=EDGE_LOOP('',(#162,#163,#164,#165));
#530=EDGE_LOOP('',(#166,#167,#168,#169));
#531=EDGE_LOOP('',(#170,#171,#172,#173));
#532=EDGE_LOOP('',(#174,#175,#176,#177));
#533=EDGE_LOOP('',(#178,#179,#180,#181));
#534=EDGE_LOOP('',(#182,#183,#184,#185));
#535=EDGE_LOOP('',(#186,#187,#188,#189));
#536=EDGE_LOOP('',(#190,#191,#192,#193));
#537=EDGE_LOOP('',(#194,#195,#196,#197));
#538=EDGE_LOOP('',(#198,#199,#200,#201));
#539=EDGE_LOOP('',(#202,#203,#204,#205));
#540=EDGE_LOOP('',(#206,#207,#208,#209));
#541=EDGE_LOOP('',(#210,#211,#212,#213));
#542=EDGE_LOOP('',(#214,#215,#216,#217));
#543=EDGE_LOOP('',(#218,#219,#220,#221));
#544=EDGE_LOOP('',(#222,#223,#224,#225));
#545=EDGE_LOOP('',(#226,#227,#228,#229));
#546=EDGE_LOOP('',(#230,#231,#232,#233));
#547=EDGE_LOOP('',(#234,#235,#236,#237));
#548=EDGE_LOOP('',(#238,#239,#240,#241));
#549=EDGE_LOOP('',(#242,#243,#244,#245));
#550=EDGE_LOOP('',(#246,#247,#248,#249,#250,#251,#252,#253,#254,#255,#256,
#257,#258,#259,#260,#261,#262,#263,#264,#265,#266,#267,#268,#269,#270,#271,
#272,#273,#274,#275,#276,#277));
#551=EDGE_LOOP('',(#278,#279,#280,#281,#282,#283,#284,#285,#286,#287,#288,
#289,#290,#291,#292,#293,#294,#295,#296,#297,#298,#299,#300,#301,#302,#303,
#304,#305,#306,#307,#308,#309));
#552=FACE_BOUND('',#518,.T.);
#553=FACE_BOUND('',#519,.T.);
#554=FACE_BOUND('',#520,.T.);
#555=FACE_BOUND('',#521,.T.);
#556=FACE_BOUND('',#522,.T.);
#557=FACE_BOUND('',#523,.T.);
#558=FACE_BOUND('',#524,.T.);
#559=FACE_BOUND('',#525,.T.);
#560=FACE_BOUND('',#526,.T.);
#561=FACE_BOUND('',#527,.T.);
#562=FACE_BOUND('',#528,.T.);
#563=FACE_BOUND('',#529,.T.);
#564=FACE_BOUND('',#530,.T.);
#565=FACE_BOUND('',#531,.T.);
#566=FACE_BOUND('',#532,.T.);
#567=FACE_BOUND('',#533,.T.);
#568=FACE_BOUND('',#534,.T.);
#569=FACE_BOUND('',#535,.T.);
#570=FACE_BOUND('',#536,.T.);
#571=FACE_BOUND('',#537,.T.);
#572=FACE_BOUND('',#538,.T.);
#573=FACE_BOUND('',#539,.T.);
#574=FACE_BOUND('',#540,.T.);
#575=FACE_BOUND('',#541,.T.);
#576=FACE_BOUND('',#542,.T.);
#577=FACE_BOUND('',#543,.T.);
#578=FACE_BOUND('',#544,.T.);
#579=FACE_BOUND('',#545,.T.);
#580=FACE_BOUND('',#546,.T.);
#581=FACE_BOUND('',#547,.T.);
#582=FACE_BOUND('',#548,.T.);
#583=FACE_BOUND('',#549,.T.);
#584=FACE_BOUND('',#550,.T.);
#585=FACE_BOUND('',#551,.T.);
#586=CYLINDRICAL_SURFACE('',#657,0.0415863463767775);
#587=CYLINDRICAL_SURFACE('',#662,0.0396033321293824);
#588=CYLINDRICAL_SURFACE('',#665,0.0212943388709788);
#589=CYLINDRICAL_SURFACE('',#668,0.0374809693804256);
#590=CYLINDRICAL_SURFACE('',#671,0.0402434673707569);
#591=CYLINDRICAL_SURFACE('',#674,0.0223713296593776);
#592=CYLINDRICAL_SURFACE('',#677,0.0415863463767382);
#593=CYLINDRICAL_SURFACE('',#682,0.0377132337234963);
#594=CYLINDRICAL_SURFACE('',#685,0.0203485884435549);
#595=CYLINDRICAL_SURFACE('',#688,0.0342297419368081);
#596=CYLINDRICAL_SURFACE('',#691,0.0342297419368244);
#597=CYLINDRICAL_SURFACE('',#694,0.0203485884435562);
#598=CYLINDRICAL_SURFACE('',#697,0.0377132337234955);
#599=CYLINDRICAL_SURFACE('',#702,0.0437744819428299);
#600=CYLINDRICAL_SURFACE('',#705,0.0234687715478574);
#601=CYLINDRICAL_SURFACE('',#708,0.0442940868413272);
#602=CYLINDRICAL_SURFACE('',#711,0.044294086841238);
#603=CYLINDRICAL_SURFACE('',#714,0.0234687715478362);
#604=CYLINDRICAL_SURFACE('',#717,0.0437744819428099);
#605=CYLINDRICAL_SURFACE('',#722,0.0396033321293056);
#606=CYLINDRICAL_SURFACE('',#725,0.0212943388709778);
#607=CYLINDRICAL_SURFACE('',#728,0.0374809693806956);
#608=CYLINDRICAL_SURFACE('',#731,0.0402434673707803);
#609=CYLINDRICAL_SURFACE('',#734,0.0223713296593393);
#610=ADVANCED_FACE('',(#552),#586,.T.);
#611=ADVANCED_FACE('',(#553),#12,.T.);
#612=ADVANCED_FACE('',(#554),#13,.T.);
#613=ADVANCED_FACE('',(#555),#587,.T.);
#614=ADVANCED_FACE('',(#556),#588,.T.);
#615=ADVANCED_FACE('',(#557),#589,.T.);
#616=ADVANCED_FACE('',(#558),#590,.T.);
#617=ADVANCED_FACE('',(#559),#591,.T.);
#618=ADVANCED_FACE('',(#560),#592,.T.);
#619=ADVANCED_FACE('',(#561),#14,.T.);
#620=ADVANCED_FACE('',(#562),#15,.T.);
#621=ADVANCED_FACE('',(#563),#593,.T.);
#622=ADVANCED_FACE('',(#564),#594,.T.);
#623=ADVANCED_FACE('',(#565),#595,.T.);
#624=ADVANCED_FACE('',(#566),#596,.T.);
#625=ADVANCED_FACE('',(#567),#597,.T.);
#626=ADVANCED_FACE('',(#568),#598,.T.);
#627=ADVANCED_FACE('',(#569),#16,.T.);
#628=ADVANCED_FACE('',(#570),#17,.T.);
#629=ADVANCED_FACE('',(#571),#599,.T.);
#630=ADVANCED_FACE('',(#572),#600,.T.);
#631=ADVANCED_FACE('',(#573),#601,.T.);
#632=ADVANCED_FACE('',(#574),#602,.T.);
#633=ADVANCED_FACE('',(#575),#603,.T.);
#634=ADVANCED_FACE('',(#576),#604,.T.);
#635=ADVANCED_FACE('',(#577),#18,.T.);
#636=ADVANCED_FACE('',(#578),#19,.T.);
#637=ADVANCED_FACE('',(#579),#605,.T.);
#638=ADVANCED_FACE('',(#580),#606,.T.);
#639=ADVANCED_FACE('',(#581),#607,.T.);
#640=ADVANCED_FACE('',(#582),#608,.T.);
#641=ADVANCED_FACE('',(#583),#609,.T.);
#642=ADVANCED_FACE('',(#584),#20,.F.);
#643=ADVANCED_FACE('',(#585),#21,.T.);
#644=CLOSED_SHELL('',(#610,#611,#612,#613,#614,#615,#616,#617,#618,#619,
#620,#621,#622,#623,#624,#625,#626,#627,#628,#629,#630,#631,#632,#633,#634,
#635,#636,#637,#638,#639,#640,#641,#642,#643));
#645=STYLED_ITEM('',(#646),#653);
#646=PRESENTATION_STYLE_ASSIGNMENT((#647));
#647=SURFACE_STYLE_USAGE(.BOTH.,#648);
#648=SURFACE_SIDE_STYLE('',(#649));
#649=SURFACE_STYLE_FILL_AREA(#650);
#650=FILL_AREA_STYLE('',(#651));
#651=FILL_AREA_STYLE_COLOUR('',#652);
#652=COLOUR_RGB('',0.682352941176471,0.333333333333334,0.737254901960784);
#653=MANIFOLD_SOLID_BREP('ValinorStar1',#644);
#654=SHAPE_DEFINITION_REPRESENTATION(#1154,#655);
#655=SHAPE_REPRESENTATION('ValinorStar1',(#656),#1149);
#656=AXIS2_PLACEMENT_3D('',#953,#739,#740);
#657=AXIS2_PLACEMENT_3D('',#954,#741,#742);
#658=AXIS2_PLACEMENT_3D('',#955,#743,#744);
#659=AXIS2_PLACEMENT_3D('',#960,#746,#747);
#660=AXIS2_PLACEMENT_3D('',#963,#749,#750);
#661=AXIS2_PLACEMENT_3D('',#969,#754,#755);
#662=AXIS2_PLACEMENT_3D('',#975,#759,#760);
#663=AXIS2_PLACEMENT_3D('',#976,#761,#762);
#664=AXIS2_PLACEMENT_3D('',#978,#763,#764);
#665=AXIS2_PLACEMENT_3D('',#981,#766,#767);
#666=AXIS2_PLACEMENT_3D('',#982,#768,#769);
#667=AXIS2_PLACEMENT_3D('',#984,#770,#771);
#668=AXIS2_PLACEMENT_3D('',#987,#773,#774);
#669=AXIS2_PLACEMENT_3D('',#988,#775,#776);
#670=AXIS2_PLACEMENT_3D('',#990,#777,#778);
#671=AXIS2_PLACEMENT_3D('',#993,#780,#781);
#672=AXIS2_PLACEMENT_3D('',#994,#782,#783);
#673=AXIS2_PLACEMENT_3D('',#996,#784,#785);
#674=AXIS2_PLACEMENT_3D('',#999,#787,#788);
#675=AXIS2_PLACEMENT_3D('',#1000,#789,#790);
#676=AXIS2_PLACEMENT_3D('',#1002,#791,#792);
#677=AXIS2_PLACEMENT_3D('',#1005,#794,#795);
#678=AXIS2_PLACEMENT_3D('',#1006,#796,#797);
#679=AXIS2_PLACEMENT_3D('',#1008,#798,#799);
#680=AXIS2_PLACEMENT_3D('',#1011,#801,#802);
#681=AXIS2_PLACEMENT_3D('',#1017,#806,#807);
#682=AXIS2_PLACEMENT_3D('',#1023,#811,#812);
#683=AXIS2_PLACEMENT_3D('',#1024,#813,#814);
#684=AXIS2_PLACEMENT_3D('',#1026,#815,#816);
#685=AXIS2_PLACEMENT_3D('',#1029,#818,#819);
#686=AXIS2_PLACEMENT_3D('',#1030,#820,#821);
#687=AXIS2_PLACEMENT_3D('',#1032,#822,#823);
#688=AXIS2_PLACEMENT_3D('',#1035,#825,#826);
#689=AXIS2_PLACEMENT_3D('',#1036,#827,#828);
#690=AXIS2_PLACEMENT_3D('',#1038,#829,#830);
#691=AXIS2_PLACEMENT_3D('',#1041,#832,#833);
#692=AXIS2_PLACEMENT_3D('',#1042,#834,#835);
#693=AXIS2_PLACEMENT_3D('',#1044,#836,#837);
#694=AXIS2_PLACEMENT_3D('',#1047,#839,#840);
#695=AXIS2_PLACEMENT_3D('',#1048,#841,#842);
#696=AXIS2_PLACEMENT_3D('',#1050,#843,#844);
#697=AXIS2_PLACEMENT_3D('',#1053,#846,#847);
#698=AXIS2_PLACEMENT_3D('',#1054,#848,#849);
#699=AXIS2_PLACEMENT_3D('',#1056,#850,#851);
#700=AXIS2_PLACEMENT_3D('',#1059,#853,#854);
#701=AXIS2_PLACEMENT_3D('',#1065,#858,#859);
#702=AXIS2_PLACEMENT_3D('',#1071,#863,#864);
#703=AXIS2_PLACEMENT_3D('',#1072,#865,#866);
#704=AXIS2_PLACEMENT_3D('',#1074,#867,#868);
#705=AXIS2_PLACEMENT_3D('',#1077,#870,#871);
#706=AXIS2_PLACEMENT_3D('',#1078,#872,#873);
#707=AXIS2_PLACEMENT_3D('',#1080,#874,#875);
#708=AXIS2_PLACEMENT_3D('',#1083,#877,#878);
#709=AXIS2_PLACEMENT_3D('',#1084,#879,#880);
#710=AXIS2_PLACEMENT_3D('',#1086,#881,#882);
#711=AXIS2_PLACEMENT_3D('',#1089,#884,#885);
#712=AXIS2_PLACEMENT_3D('',#1090,#886,#887);
#713=AXIS2_PLACEMENT_3D('',#1092,#888,#889);
#714=AXIS2_PLACEMENT_3D('',#1095,#891,#892);
#715=AXIS2_PLACEMENT_3D('',#1096,#893,#894);
#716=AXIS2_PLACEMENT_3D('',#1098,#895,#896);
#717=AXIS2_PLACEMENT_3D('',#1101,#898,#899);
#718=AXIS2_PLACEMENT_3D('',#1102,#900,#901);
#719=AXIS2_PLACEMENT_3D('',#1104,#902,#903);
#720=AXIS2_PLACEMENT_3D('',#1107,#905,#906);
#721=AXIS2_PLACEMENT_3D('',#1113,#910,#911);
#722=AXIS2_PLACEMENT_3D('',#1119,#915,#916);
#723=AXIS2_PLACEMENT_3D('',#1120,#917,#918);
#724=AXIS2_PLACEMENT_3D('',#1122,#919,#920);
#725=AXIS2_PLACEMENT_3D('',#1125,#922,#923);
#726=AXIS2_PLACEMENT_3D('',#1126,#924,#925);
#727=AXIS2_PLACEMENT_3D('',#1128,#926,#927);
#728=AXIS2_PLACEMENT_3D('',#1131,#929,#930);
#729=AXIS2_PLACEMENT_3D('',#1132,#931,#932);
#730=AXIS2_PLACEMENT_3D('',#1134,#933,#934);
#731=AXIS2_PLACEMENT_3D('',#1137,#936,#937);
#732=AXIS2_PLACEMENT_3D('',#1138,#938,#939);
#733=AXIS2_PLACEMENT_3D('',#1140,#940,#941);
#734=AXIS2_PLACEMENT_3D('',#1143,#943,#944);
#735=AXIS2_PLACEMENT_3D('',#1144,#945,#946);
#736=AXIS2_PLACEMENT_3D('',#1145,#947,#948);
#737=AXIS2_PLACEMENT_3D('',#1146,#949,#950);
#738=AXIS2_PLACEMENT_3D('',#1147,#951,#952);
#739=DIRECTION('',(0.,0.,1.));
#740=DIRECTION('',(1.,0.,0.));
#741=DIRECTION('',(5.56131819963552E-33,-1.22464679914735E-16,-1.));
#742=DIRECTION('',(1.,9.08232186375291E-17,-5.56131819963552E-33));
#743=DIRECTION('',(5.56131819963552E-33,-1.22464679914735E-16,-1.));
#744=DIRECTION('',(1.,9.08232186375291E-17,-5.56131819963552E-33));
#745=DIRECTION('',(5.56131819963552E-33,-1.22464679914735E-16,-1.));
#746=DIRECTION('',(5.56131819963552E-33,-1.22464679914735E-16,-1.));
#747=DIRECTION('',(1.,9.08232186375291E-17,-5.56131819963552E-33));
#748=DIRECTION('',(5.56131819963552E-33,-1.22464679914735E-16,-1.));
#749=DIRECTION('',(-0.912014506243605,-0.410157945676094,5.02298615317082E-17));
#750=DIRECTION('',(-0.410157945676094,0.912014506243605,-1.11689564584718E-16));
#751=DIRECTION('',(-0.410157945676094,0.912014506243605,-1.11689564584718E-16));
#752=DIRECTION('',(-0.410157945676094,0.912014506243605,-1.11689564584718E-16));
#753=DIRECTION('',(5.56131819963552E-33,-1.22464679914735E-16,-1.));
#754=DIRECTION('',(-0.399670657181372,-0.91665880554774,1.12258327212428E-16));
#755=DIRECTION('',(-0.91665880554774,0.399670657181372,-4.89455391030287E-17));
#756=DIRECTION('',(-0.91665880554774,0.399670657181372,-4.89455391030287E-17));
#757=DIRECTION('',(-0.91665880554774,0.399670657181372,-4.89455391030287E-17));
#758=DIRECTION('',(5.56131819963552E-33,-1.22464679914735E-16,-1.));
#759=DIRECTION('',(5.56131819963552E-33,-1.22464679914735E-16,-1.));
#760=DIRECTION('',(1.,9.08232186375291E-17,-5.56131819963552E-33));
#761=DIRECTION('',(5.56131819963552E-33,-1.22464679914735E-16,-1.));
#762=DIRECTION('',(1.,9.08232186375291E-17,-5.56131819963552E-33));
#763=DIRECTION('',(5.56131819963552E-33,-1.22464679914735E-16,-1.));
#764=DIRECTION('',(1.,9.08232186375291E-17,-5.56131819963552E-33));
#765=DIRECTION('',(5.56131819963552E-33,-1.22464679914735E-16,-1.));
#766=DIRECTION('',(5.56131819963552E-33,-1.22464679914735E-16,-1.));
#767=DIRECTION('',(1.,9.08232186375291E-17,-5.56131819963552E-33));
#768=DIRECTION('',(5.56131819963552E-33,-1.22464679914735E-16,-1.));
#769=DIRECTION('',(1.,9.08232186375291E-17,-5.56131819963552E-33));
#770=DIRECTION('',(5.56131819963552E-33,-1.22464679914735E-16,-1.));
#771=DIRECTION('',(1.,9.08232186375291E-17,-5.56131819963552E-33));
#772=DIRECTION('',(5.56131819963552E-33,-1.22464679914735E-16,-1.));
#773=DIRECTION('',(5.56131819963552E-33,-1.22464679914735E-16,-1.));
#774=DIRECTION('',(1.,9.08232186375291E-17,-5.56131819963552E-33));
#775=DIRECTION('',(5.56131819963552E-33,-1.22464679914735E-16,-1.));
#776=DIRECTION('',(1.,9.08232186375291E-17,-5.56131819963552E-33));
#777=DIRECTION('',(5.56131819963552E-33,-1.22464679914735E-16,-1.));
#778=DIRECTION('',(1.,9.08232186375291E-17,-5.56131819963552E-33));
#779=DIRECTION('',(5.56131819963552E-33,-1.22464679914735E-16,-1.));
#780=DIRECTION('',(5.56131819963552E-33,-1.22464679914735E-16,-1.));
#781=DIRECTION('',(1.,9.08232186375291E-17,-5.56131819963552E-33));
#782=DIRECTION('',(5.56131819963552E-33,-1.22464679914735E-16,-1.));
#783=DIRECTION('',(1.,9.08232186375291E-17,-5.56131819963552E-33));
#784=DIRECTION('',(5.56131819963552E-33,-1.22464679914735E-16,-1.));
#785=DIRECTION('',(1.,9.08232186375291E-17,-5.56131819963552E-33));
#786=DIRECTION('',(5.56131819963552E-33,-1.22464679914735E-16,-1.));
#787=DIRECTION('',(5.56131819963552E-33,-1.22464679914735E-16,-1.));
#788=DIRECTION('',(1.,9.08232186375291E-17,-5.56131819963552E-33));
#789=DIRECTION('',(5.56131819963552E-33,-1.22464679914735E-16,-1.));
#790=DIRECTION('',(1.,9.08232186375291E-17,-5.56131819963552E-33));
#791=DIRECTION('',(5.56131819963552E-33,-1.22464679914735E-16,-1.));
#792=DIRECTION('',(1.,9.08232186375291E-17,-5.56131819963552E-33));
#793=DIRECTION('',(5.56131819963552E-33,-1.22464679914735E-16,-1.));
#794=DIRECTION('',(5.56131819963552E-33,-1.22464679914735E-16,-1.));
#795=DIRECTION('',(1.,9.08232186375291E-17,-5.56131819963552E-33));
#796=DIRECTION('',(5.56131819963552E-33,-1.22464679914735E-16,-1.));
#797=DIRECTION('',(1.,9.08232186375291E-17,-5.56131819963552E-33));
#798=DIRECTION('',(5.56131819963552E-33,-1.22464679914735E-16,-1.));
#799=DIRECTION('',(1.,9.08232186375291E-17,-5.56131819963552E-33));
#800=DIRECTION('',(5.56131819963552E-33,-1.22464679914735E-16,-1.));
#801=DIRECTION('',(-0.410157945676095,0.912014506243605,-1.11689564584718E-16));
#802=DIRECTION('',(0.912014506243605,0.410157945676095,-5.02298615317083E-17));
#803=DIRECTION('',(0.912014506243605,0.410157945676095,-5.02298615317083E-17));
#804=DIRECTION('',(0.912014506243605,0.410157945676095,-5.02298615317083E-17));
#805=DIRECTION('',(5.56131819963552E-33,-1.22464679914735E-16,-1.));
#806=DIRECTION('',(-0.91665880554774,0.399670657181373,-4.89455391030288E-17));
#807=DIRECTION('',(0.399670657181373,0.91665880554774,-1.12258327212428E-16));
#808=DIRECTION('',(0.399670657181373,0.91665880554774,-1.12258327212428E-16));
#809=DIRECTION('',(0.399670657181373,0.91665880554774,-1.12258327212428E-16));
#810=DIRECTION('',(5.56131819963552E-33,-1.22464679914735E-16,-1.));
#811=DIRECTION('',(5.56131819963552E-33,-1.22464679914735E-16,-1.));
#812=DIRECTION('',(1.,9.08232186375291E-17,-5.56131819963552E-33));
#813=DIRECTION('',(5.56131819963552E-33,-1.22464679914735E-16,-1.));
#814=DIRECTION('',(1.,9.08232186375291E-17,-5.56131819963552E-33));
#815=DIRECTION('',(5.56131819963552E-33,-1.22464679914735E-16,-1.));
#816=DIRECTION('',(1.,9.08232186375291E-17,-5.56131819963552E-33));
#817=DIRECTION('',(5.56131819963552E-33,-1.22464679914735E-16,-1.));
#818=DIRECTION('',(5.56131819963552E-33,-1.22464679914735E-16,-1.));
#819=DIRECTION('',(1.,9.08232186375291E-17,-5.56131819963552E-33));
#820=DIRECTION('',(5.56131819963552E-33,-1.22464679914735E-16,-1.));
#821=DIRECTION('',(1.,9.08232186375291E-17,-5.56131819963552E-33));
#822=DIRECTION('',(5.56131819963552E-33,-1.22464679914735E-16,-1.));
#823=DIRECTION('',(1.,9.08232186375291E-17,-5.56131819963552E-33));
#824=DIRECTION('',(5.56131819963552E-33,-1.22464679914735E-16,-1.));
#825=DIRECTION('',(5.56131819963552E-33,-1.22464679914735E-16,-1.));
#826=DIRECTION('',(1.,9.08232186375291E-17,-5.56131819963552E-33));
#827=DIRECTION('',(5.56131819963552E-33,-1.22464679914735E-16,-1.));
#828=DIRECTION('',(1.,9.08232186375291E-17,-5.56131819963552E-33));
#829=DIRECTION('',(5.56131819963552E-33,-1.22464679914735E-16,-1.));
#830=DIRECTION('',(1.,9.08232186375291E-17,-5.56131819963552E-33));
#831=DIRECTION('',(5.56131819963552E-33,-1.22464679914735E-16,-1.));
#832=DIRECTION('',(5.56131819963552E-33,-1.22464679914735E-16,-1.));
#833=DIRECTION('',(1.,9.08232186375291E-17,-5.56131819963552E-33));
#834=DIRECTION('',(5.56131819963552E-33,-1.22464679914735E-16,-1.));
#835=DIRECTION('',(1.,9.08232186375291E-17,-5.56131819963552E-33));
#836=DIRECTION('',(5.56131819963552E-33,-1.22464679914735E-16,-1.));
#837=DIRECTION('',(1.,9.08232186375291E-17,-5.56131819963552E-33));
#838=DIRECTION('',(5.56131819963552E-33,-1.22464679914735E-16,-1.));
#839=DIRECTION('',(5.56131819963552E-33,-1.22464679914735E-16,-1.));
#840=DIRECTION('',(1.,9.08232186375291E-17,-5.56131819963552E-33));
#841=DIRECTION('',(5.56131819963552E-33,-1.22464679914735E-16,-1.));
#842=DIRECTION('',(1.,9.08232186375291E-17,-5.56131819963552E-33));
#843=DIRECTION('',(5.56131819963552E-33,-1.22464679914735E-16,-1.));
#844=DIRECTION('',(1.,9.08232186375291E-17,-5.56131819963552E-33));
#845=DIRECTION('',(5.56131819963552E-33,-1.22464679914735E-16,-1.));
#846=DIRECTION('',(5.56131819963552E-33,-1.22464679914735E-16,-1.));
#847=DIRECTION('',(1.,9.08232186375291E-17,-5.56131819963552E-33));
#848=DIRECTION('',(5.56131819963552E-33,-1.22464679914735E-16,-1.));
#849=DIRECTION('',(1.,9.08232186375291E-17,-5.56131819963552E-33));
#850=DIRECTION('',(5.56131819963552E-33,-1.22464679914735E-16,-1.));
#851=DIRECTION('',(1.,9.08232186375291E-17,-5.56131819963552E-33));
#852=DIRECTION('',(5.56131819963552E-33,-1.22464679914735E-16,-1.));
#853=DIRECTION('',(0.91665880554774,0.399670657181374,-4.89455391030288E-17));
#854=DIRECTION('',(0.399670657181374,-0.91665880554774,1.12258327212428E-16));
#855=DIRECTION('',(0.399670657181374,-0.91665880554774,1.12258327212428E-16));
#856=DIRECTION('',(0.399670657181374,-0.91665880554774,1.12258327212428E-16));
#857=DIRECTION('',(5.56131819963552E-33,-1.22464679914735E-16,-1.));
#858=DIRECTION('',(0.410157945676095,0.912014506243605,-1.11689564584718E-16));
#859=DIRECTION('',(0.912014506243605,-0.410157945676095,5.02298615317083E-17));
#860=DIRECTION('',(0.912014506243605,-0.410157945676095,5.02298615317083E-17));
#861=DIRECTION('',(0.912014506243605,-0.410157945676095,5.02298615317083E-17));
#862=DIRECTION('',(5.56131819963552E-33,-1.22464679914735E-16,-1.));
#863=DIRECTION('',(5.56131819963552E-33,-1.22464679914735E-16,-1.));
#864=DIRECTION('',(1.,9.08232186375291E-17,-5.56131819963552E-33));
#865=DIRECTION('',(5.56131819963552E-33,-1.22464679914735E-16,-1.));
#866=DIRECTION('',(1.,9.08232186375291E-17,-5.56131819963552E-33));
#867=DIRECTION('',(5.56131819963552E-33,-1.22464679914735E-16,-1.));
#868=DIRECTION('',(1.,9.08232186375291E-17,-5.56131819963552E-33));
#869=DIRECTION('',(5.56131819963552E-33,-1.22464679914735E-16,-1.));
#870=DIRECTION('',(5.56131819963552E-33,-1.22464679914735E-16,-1.));
#871=DIRECTION('',(1.,9.08232186375291E-17,-5.56131819963552E-33));
#872=DIRECTION('',(5.56131819963552E-33,-1.22464679914735E-16,-1.));
#873=DIRECTION('',(1.,9.08232186375291E-17,-5.56131819963552E-33));
#874=DIRECTION('',(5.56131819963552E-33,-1.22464679914735E-16,-1.));
#875=DIRECTION('',(1.,9.08232186375291E-17,-5.56131819963552E-33));
#876=DIRECTION('',(5.56131819963552E-33,-1.22464679914735E-16,-1.));
#877=DIRECTION('',(5.56131819963552E-33,-1.22464679914735E-16,-1.));
#878=DIRECTION('',(1.,9.08232186375291E-17,-5.56131819963552E-33));
#879=DIRECTION('',(5.56131819963552E-33,-1.22464679914735E-16,-1.));
#880=DIRECTION('',(1.,9.08232186375291E-17,-5.56131819963552E-33));
#881=DIRECTION('',(5.56131819963552E-33,-1.22464679914735E-16,-1.));
#882=DIRECTION('',(1.,9.08232186375291E-17,-5.56131819963552E-33));
#883=DIRECTION('',(5.56131819963552E-33,-1.22464679914735E-16,-1.));
#884=DIRECTION('',(5.56131819963552E-33,-1.22464679914735E-16,-1.));
#885=DIRECTION('',(1.,9.08232186375291E-17,-5.56131819963552E-33));
#886=DIRECTION('',(5.56131819963552E-33,-1.22464679914735E-16,-1.));
#887=DIRECTION('',(1.,9.08232186375291E-17,-5.56131819963552E-33));
#888=DIRECTION('',(5.56131819963552E-33,-1.22464679914735E-16,-1.));
#889=DIRECTION('',(1.,9.08232186375291E-17,-5.56131819963552E-33));
#890=DIRECTION('',(5.56131819963552E-33,-1.22464679914735E-16,-1.));
#891=DIRECTION('',(5.56131819963552E-33,-1.22464679914735E-16,-1.));
#892=DIRECTION('',(1.,9.08232186375291E-17,-5.56131819963552E-33));
#893=DIRECTION('',(5.56131819963552E-33,-1.22464679914735E-16,-1.));
#894=DIRECTION('',(1.,9.08232186375291E-17,-5.56131819963552E-33));
#895=DIRECTION('',(5.56131819963552E-33,-1.22464679914735E-16,-1.));
#896=DIRECTION('',(1.,9.08232186375291E-17,-5.56131819963552E-33));
#897=DIRECTION('',(5.56131819963552E-33,-1.22464679914735E-16,-1.));
#898=DIRECTION('',(5.56131819963552E-33,-1.22464679914735E-16,-1.));
#899=DIRECTION('',(1.,9.08232186375291E-17,-5.56131819963552E-33));
#900=DIRECTION('',(5.56131819963552E-33,-1.22464679914735E-16,-1.));
#901=DIRECTION('',(1.,9.08232186375291E-17,-5.56131819963552E-33));
#902=DIRECTION('',(5.56131819963552E-33,-1.22464679914735E-16,-1.));
#903=DIRECTION('',(1.,9.08232186375291E-17,-5.56131819963552E-33));
#904=DIRECTION('',(5.56131819963552E-33,-1.22464679914735E-16,-1.));
#905=DIRECTION('',(0.410157945676095,-0.912014506243605,1.11689564584718E-16));
#906=DIRECTION('',(-0.912014506243605,-0.410157945676095,5.02298615317083E-17));
#907=DIRECTION('',(-0.912014506243605,-0.410157945676095,5.02298615317083E-17));
#908=DIRECTION('',(-0.912014506243605,-0.410157945676095,5.02298615317083E-17));
#909=DIRECTION('',(5.56131819963552E-33,-1.22464679914735E-16,-1.));
#910=DIRECTION('',(0.91665880554774,-0.399670657181372,4.89455391030287E-17));
#911=DIRECTION('',(-0.399670657181372,-0.91665880554774,1.12258327212428E-16));
#912=DIRECTION('',(-0.399670657181372,-0.91665880554774,1.12258327212428E-16));
#913=DIRECTION('',(-0.399670657181372,-0.91665880554774,1.12258327212428E-16));
#914=DIRECTION('',(5.56131819963552E-33,-1.22464679914735E-16,-1.));
#915=DIRECTION('',(5.56131819963552E-33,-1.22464679914735E-16,-1.));
#916=DIRECTION('',(1.,9.08232186375291E-17,-5.56131819963552E-33));
#917=DIRECTION('',(5.56131819963552E-33,-1.22464679914735E-16,-1.));
#918=DIRECTION('',(1.,9.08232186375291E-17,-5.56131819963552E-33));
#919=DIRECTION('',(5.56131819963552E-33,-1.22464679914735E-16,-1.));
#920=DIRECTION('',(1.,9.08232186375291E-17,-5.56131819963552E-33));
#921=DIRECTION('',(5.56131819963552E-33,-1.22464679914735E-16,-1.));
#922=DIRECTION('',(5.56131819963552E-33,-1.22464679914735E-16,-1.));
#923=DIRECTION('',(1.,9.08232186375291E-17,-5.56131819963552E-33));
#924=DIRECTION('',(5.56131819963552E-33,-1.22464679914735E-16,-1.));
#925=DIRECTION('',(1.,9.08232186375291E-17,-5.56131819963552E-33));
#926=DIRECTION('',(5.56131819963552E-33,-1.22464679914735E-16,-1.));
#927=DIRECTION('',(1.,9.08232186375291E-17,-5.56131819963552E-33));
#928=DIRECTION('',(5.56131819963552E-33,-1.22464679914735E-16,-1.));
#929=DIRECTION('',(5.56131819963552E-33,-1.22464679914735E-16,-1.));
#930=DIRECTION('',(1.,9.08232186375291E-17,-5.56131819963552E-33));
#931=DIRECTION('',(5.56131819963552E-33,-1.22464679914735E-16,-1.));
#932=DIRECTION('',(1.,9.08232186375291E-17,-5.56131819963552E-33));
#933=DIRECTION('',(5.56131819963552E-33,-1.22464679914735E-16,-1.));
#934=DIRECTION('',(1.,9.08232186375291E-17,-5.56131819963552E-33));
#935=DIRECTION('',(5.56131819963552E-33,-1.22464679914735E-16,-1.));
#936=DIRECTION('',(5.56131819963552E-33,-1.22464679914735E-16,-1.));
#937=DIRECTION('',(1.,9.08232186375291E-17,-5.56131819963552E-33));
#938=DIRECTION('',(5.56131819963552E-33,-1.22464679914735E-16,-1.));
#939=DIRECTION('',(1.,9.08232186375291E-17,-5.56131819963552E-33));
#940=DIRECTION('',(5.56131819963552E-33,-1.22464679914735E-16,-1.));
#941=DIRECTION('',(1.,9.08232186375291E-17,-5.56131819963552E-33));
#942=DIRECTION('',(5.56131819963552E-33,-1.22464679914735E-16,-1.));
#943=DIRECTION('',(5.56131819963552E-33,-1.22464679914735E-16,-1.));
#944=DIRECTION('',(1.,9.08232186375291E-17,-5.56131819963552E-33));
#945=DIRECTION('',(5.56131819963552E-33,-1.22464679914735E-16,-1.));
#946=DIRECTION('',(1.,9.08232186375291E-17,-5.56131819963552E-33));
#947=DIRECTION('',(5.56131819963552E-33,-1.22464679914735E-16,-1.));
#948=DIRECTION('',(1.,9.08232186375291E-17,-5.56131819963552E-33));
#949=DIRECTION('',(5.56131819963552E-33,-1.22464679914735E-16,-1.));
#950=DIRECTION('',(1.,9.08232186375291E-17,-5.56131819963552E-33));
#951=DIRECTION('',(5.56131819963552E-33,-1.22464679914735E-16,-1.));
#952=DIRECTION('',(1.,9.08232186375291E-17,-5.56131819963552E-33));
#953=CARTESIAN_POINT('',(0.,0.,0.));
#954=CARTESIAN_POINT('',(0.00222713597276876,0.0230598051411309,-0.0232000086266577));
#955=CARTESIAN_POINT('',(0.00222713597276876,0.0230598051411309,-0.0240000086266577));
#956=CARTESIAN_POINT('',(-0.0352119029706547,0.00495614341312307,-0.0240000086266577));
#957=CARTESIAN_POINT('',(-0.0357002151845233,0.00600283474305714,-0.0240000086266577));
#958=CARTESIAN_POINT('',(-0.0352119029706547,0.00495614341312307,-0.0232000086266577));
#959=CARTESIAN_POINT('',(-0.0352119029706547,0.00495614341312307,-0.0232000086266577));
#960=CARTESIAN_POINT('',(0.00222713597276876,0.0230598051411309,-0.0232000086266577));
#961=CARTESIAN_POINT('',(-0.0357002151845233,0.00600283474305714,-0.0232000086266577));
#962=CARTESIAN_POINT('',(-0.0357002151845233,0.00600283474305714,-0.0232000086266577));
#963=CARTESIAN_POINT('',(-0.0363518487163052,0.00745178688457625,-0.0232000086266577));
#964=CARTESIAN_POINT('',(-0.0363518487163052,0.00745178688457625,-0.0240000086266577));
#965=CARTESIAN_POINT('',(-0.037003482248095,0.0089007390260918,-0.0240000086266577));
#966=CARTESIAN_POINT('',(-0.0363518487163052,0.00745178688457625,-0.0232000086266577));
#967=CARTESIAN_POINT('',(-0.037003482248095,0.0089007390260918,-0.0232000086266577));
#968=CARTESIAN_POINT('',(-0.037003482248095,0.0089007390260918,-0.0232000086266577));
#969=CARTESIAN_POINT('',(-0.0384301172299329,0.00952276342306292,-0.0232000086266577));
#970=CARTESIAN_POINT('',(-0.0384301172299329,0.00952276342306292,-0.0240000086266577));
#971=CARTESIAN_POINT('',(-0.0398567522117736,0.0101447878200276,-0.0240000086266577));
#972=CARTESIAN_POINT('',(-0.0384301172299329,0.00952276342306292,-0.0232000086266577));
#973=CARTESIAN_POINT('',(-0.0398567522117736,0.0101447878200276,-0.0232000086266577));
#974=CARTESIAN_POINT('',(-0.0398567522117736,0.0101447878200276,-0.0232000086266577));
#975=CARTESIAN_POINT('',(-0.0240284624330512,0.0464475309454576,-0.0232000086266577));
#976=CARTESIAN_POINT('',(-0.0240284624330512,0.0464475309454576,-0.0240000086266577));
#977=CARTESIAN_POINT('',(-0.0408858066133875,0.0106110430743501,-0.0240000086266577));
#978=CARTESIAN_POINT('',(-0.0240284624330512,0.0464475309454576,-0.0232000086266577));
#979=CARTESIAN_POINT('',(-0.0408858066133875,0.0106110430743501,-0.0232000086266577));
#980=CARTESIAN_POINT('',(-0.0408858066133875,0.0106110430743501,-0.0232000086266577));
#981=CARTESIAN_POINT('',(-0.0318217713380715,0.0298799852477001,-0.0232000086266577));
#982=CARTESIAN_POINT('',(-0.0318217713380715,0.0298799852477001,-0.0240000086266577));
#983=CARTESIAN_POINT('',(-0.0417454462746229,0.0110393498098209,-0.0240000086266577));
#984=CARTESIAN_POINT('',(-0.0318217713380715,0.0298799852477001,-0.0232000086266577));
#985=CARTESIAN_POINT('',(-0.0417454462746229,0.0110393498098209,-0.0232000086266577));
#986=CARTESIAN_POINT('',(-0.0417454462746229,0.0110393498098209,-0.0232000086266577));
#987=CARTESIAN_POINT('',(-0.0242784115527231,0.0442014631881982,-0.0232000086266577));
#988=CARTESIAN_POINT('',(-0.0242784115527231,0.0442014631881982,-0.0240000086266577));
#989=CARTESIAN_POINT('',(-0.0420643455853879,0.0112092881116425,-0.0240000086266577));
#990=CARTESIAN_POINT('',(-0.0242784115527231,0.0442014631881982,-0.0232000086266577));
#991=CARTESIAN_POINT('',(-0.0420643455853879,0.0112092881116425,-0.0232000086266577));
#992=CARTESIAN_POINT('',(-0.0420643455853879,0.0112092881116425,-0.0232000086266577));
#993=CARTESIAN_POINT('',(-0.0226360994766013,-0.0240338661052772,-0.0232000086266577));
#994=CARTESIAN_POINT('',(-0.0226360994766013,-0.0240338661052772,-0.0240000086266577));
#995=CARTESIAN_POINT('',(-0.0417287339967183,0.0113922255942486,-0.0240000086266577));
#996=CARTESIAN_POINT('',(-0.0226360994766013,-0.0240338661052772,-0.0232000086266577));
#997=CARTESIAN_POINT('',(-0.0417287339967183,0.0113922255942486,-0.0232000086266577));
#998=CARTESIAN_POINT('',(-0.0417287339967183,0.0113922255942486,-0.0232000086266577));
#999=CARTESIAN_POINT('',(-0.0311151450387796,-0.00830112658765449,-0.0232000086266577));
#1000=CARTESIAN_POINT('',(-0.0311151450387796,-0.00830112658765449,-0.0240000086266577));
#1001=CARTESIAN_POINT('',(-0.040853990112824,0.0118391635629864,-0.0240000086266577));
#1002=CARTESIAN_POINT('',(-0.0311151450387796,-0.00830112658765449,-0.0232000086266577));
#1003=CARTESIAN_POINT('',(-0.040853990112824,0.0118391635629864,-0.0232000086266577));
#1004=CARTESIAN_POINT('',(-0.040853990112824,0.0118391635629864,-0.0232000086266577));
#1005=CARTESIAN_POINT('',(-0.0227503283848337,-0.0255998753804019,-0.0232000086266577));
#1006=CARTESIAN_POINT('',(-0.0227503283848337,-0.0255998753804019,-0.0240000086266577));
#1007=CARTESIAN_POINT('',(-0.0398072987828874,0.0123274757768467,-0.0240000086266577));
#1008=CARTESIAN_POINT('',(-0.0227503283848337,-0.0255998753804019,-0.0232000086266577));
#1009=CARTESIAN_POINT('',(-0.0398072987828874,0.0123274757768467,-0.0232000086266577));
#1010=CARTESIAN_POINT('',(-0.0398072987828874,0.0123274757768467,-0.0232000086266577));
#1011=CARTESIAN_POINT('',(-0.0383583466413719,0.0129791093086364,-0.0232000086266577));
#1012=CARTESIAN_POINT('',(-0.0383583466413719,0.0129791093086364,-0.0240000086266577));
#1013=CARTESIAN_POINT('',(-0.0369093944998562,0.0136307428404262,-0.0240000086266577));
#1014=CARTESIAN_POINT('',(-0.0383583466413719,0.0129791093086364,-0.0232000086266577));
#1015=CARTESIAN_POINT('',(-0.0369093944998562,0.0136307428404262,-0.0232000086266577));
#1016=CARTESIAN_POINT('',(-0.0369093944998562,0.0136307428404262,-0.0232000086266577));
#1017=CARTESIAN_POINT('',(-0.0362873610653573,0.0150573985501542,-0.0232000086266577));
#1018=CARTESIAN_POINT('',(-0.0362873610653573,0.0150573985501542,-0.0240000086266577));
#1019=CARTESIAN_POINT('',(-0.0356653276308639,0.0164840542598846,-0.0240000086266577));
#1020=CARTESIAN_POINT('',(-0.0362873610653573,0.0150573985501542,-0.0232000086266577));
#1021=CARTESIAN_POINT('',(-0.0356653276308639,0.0164840542598846,-0.0232000086266577));
#1022=CARTESIAN_POINT('',(-0.0356653276308639,0.0164840542598846,-0.0232000086266577));
#1023=CARTESIAN_POINT('',(-0.00109515985254107,0.00141118135318007,-0.0232000086266577));
#1024=CARTESIAN_POINT('',(-0.00109515985254107,0.00141118135318007,-0.0240000086266577));
#1025=CARTESIAN_POINT('',(-0.0351984223268315,0.0175125939152834,-0.0240000086266577));
#1026=CARTESIAN_POINT('',(-0.00109515985254107,0.00141118135318007,-0.0232000086266577));
#1027=CARTESIAN_POINT('',(-0.0351984223268315,0.0175125939152834,-0.0232000086266577));
#1028=CARTESIAN_POINT('',(-0.0351984223268315,0.0175125939152834,-0.0232000086266577));
#1029=CARTESIAN_POINT('',(-0.0167976334218235,0.00882490035953981,-0.0232000086266577));
#1030=CARTESIAN_POINT('',(-0.0167976334218235,0.00882490035953981,-0.0240000086266577));
#1031=CARTESIAN_POINT('',(-0.0347678939137707,0.018371354648761,-0.0240000086266577));
#1032=CARTESIAN_POINT('',(-0.0167976334218235,0.00882490035953981,-0.0232000086266577));
#1033=CARTESIAN_POINT('',(-0.0347678939137707,0.018371354648761,-0.0232000086266577));
#1034=CARTESIAN_POINT('',(-0.0347678939137707,0.018371354648761,-0.0232000086266577));
#1035=CARTESIAN_POINT('',(-0.00453889887152205,0.00231261585033146,-0.0232000086266577));
#1036=CARTESIAN_POINT('',(-0.00453889887152205,0.00231261585033146,-0.0240000086266577));
#1037=CARTESIAN_POINT('',(-0.0345914364668084,0.018699202351015,-0.0240000086266577));
#1038=CARTESIAN_POINT('',(-0.00453889887152205,0.00231261585033146,-0.0232000086266577));
#1039=CARTESIAN_POINT('',(-0.0345914364668084,0.018699202351015,-0.0232000086266577));
#1040=CARTESIAN_POINT('',(-0.0345914364668084,0.018699202351015,-0.0232000086266577));
#1041=CARTESIAN_POINT('',(-0.0646439740621096,0.00231261585032473,-0.0232000086266577));
#1042=CARTESIAN_POINT('',(-0.0646439740621096,0.00231261585032473,-0.0240000086266577));
#1043=CARTESIAN_POINT('',(-0.0344149790198335,0.0183713546487663,-0.0240000086266577));
#1044=CARTESIAN_POINT('',(-0.0646439740621096,0.00231261585032473,-0.0232000086266577));
#1045=CARTESIAN_POINT('',(-0.0344149790198335,0.0183713546487663,-0.0232000086266577));
#1046=CARTESIAN_POINT('',(-0.0344149790198335,0.0183713546487663,-0.0232000086266577));
#1047=CARTESIAN_POINT('',(-0.0523852395117944,0.00882490035953939,-0.0232000086266577));
#1048=CARTESIAN_POINT('',(-0.0523852395117944,0.00882490035953939,-0.0240000086266577));
#1049=CARTESIAN_POINT('',(-0.0339844506068129,0.017512593915269,-0.0240000086266577));
#1050=CARTESIAN_POINT('',(-0.0523852395117944,0.00882490035953939,-0.0232000086266577));
#1051=CARTESIAN_POINT('',(-0.0339844506068129,0.017512593915269,-0.0232000086266577));
#1052=CARTESIAN_POINT('',(-0.0339844506068129,0.017512593915269,-0.0232000086266577));
#1053=CARTESIAN_POINT('',(-0.0680877130810752,0.00141118135318088,-0.0232000086266577));
#1054=CARTESIAN_POINT('',(-0.0680877130810752,0.00141118135318088,-0.0240000086266577));
#1055=CARTESIAN_POINT('',(-0.0335175453027585,0.0164840542598824,-0.0240000086266577));
#1056=CARTESIAN_POINT('',(-0.0680877130810752,0.00141118135318088,-0.0232000086266577));
#1057=CARTESIAN_POINT('',(-0.0335175453027585,0.0164840542598824,-0.0232000086266577));
#1058=CARTESIAN_POINT('',(-0.0335175453027585,0.0164840542598824,-0.0232000086266577));
#1059=CARTESIAN_POINT('',(-0.0328955118682595,0.0150573985501543,-0.0232000086266577));
#1060=CARTESIAN_POINT('',(-0.0328955118682595,0.0150573985501543,-0.0240000086266577));
#1061=CARTESIAN_POINT('',(-0.0322734784337605,0.0136307428404262,-0.0240000086266577));
#1062=CARTESIAN_POINT('',(-0.0328955118682595,0.0150573985501543,-0.0232000086266577));
#1063=CARTESIAN_POINT('',(-0.0322734784337605,0.0136307428404262,-0.0232000086266577));
#1064=CARTESIAN_POINT('',(-0.0322734784337605,0.0136307428404262,-0.0232000086266577));
#1065=CARTESIAN_POINT('',(-0.0308245203695721,0.0129791066450479,-0.0232000086266577));
#1066=CARTESIAN_POINT('',(-0.0308245203695721,0.0129791066450479,-0.0240000086266577));
#1067=CARTESIAN_POINT('',(-0.0293755623053762,0.0123274704496862,-0.0240000086266577));
#1068=CARTESIAN_POINT('',(-0.0308245203695721,0.0129791066450479,-0.0232000086266577));
#1069=CARTESIAN_POINT('',(-0.0293755623053762,0.0123274704496862,-0.0232000086266577));
#1070=CARTESIAN_POINT('',(-0.0293755623053762,0.0123274704496862,-0.0232000086266577));
#1071=CARTESIAN_POINT('',(-0.0473300138920825,-0.0275954920854734,-0.0232000086266577));
#1072=CARTESIAN_POINT('',(-0.0473300138920825,-0.0275954920854734,-0.0240000086266577));
#1073=CARTESIAN_POINT('',(-0.0283283709473226,0.0118398072637636,-0.0240000086266577));
#1074=CARTESIAN_POINT('',(-0.0473300138920825,-0.0275954920854734,-0.0232000086266577));
#1075=CARTESIAN_POINT('',(-0.0283283709473226,0.0118398072637636,-0.0232000086266577));
#1076=CARTESIAN_POINT('',(-0.0283283709473226,0.0118398072637636,-0.0232000086266577));
#1077=CARTESIAN_POINT('',(-0.038515703783993,-0.00930260242956186,-0.0232000086266577));
#1078=CARTESIAN_POINT('',(-0.038515703783993,-0.00930260242956186,-0.0240000086266577));
#1079=CARTESIAN_POINT('',(-0.02745293892718,0.0113951866235792,-0.0240000086266577));
#1080=CARTESIAN_POINT('',(-0.038515703783993,-0.00930260242956186,-0.0232000086266577));
#1081=CARTESIAN_POINT('',(-0.02745293892718,0.0113951866235792,-0.0232000086266577));
#1082=CARTESIAN_POINT('',(-0.02745293892718,0.0113951866235792,-0.0232000086266577));
#1083=CARTESIAN_POINT('',(-0.0483323900000092,-0.0276690508834344,-0.0232000086266577));
#1084=CARTESIAN_POINT('',(-0.0483323900000092,-0.0276690508834344,-0.0240000086266577));
#1085=CARTESIAN_POINT('',(-0.0271260421517382,0.0112186970591396,-0.0240000086266577));
#1086=CARTESIAN_POINT('',(-0.0483323900000092,-0.0276690508834344,-0.0232000086266577));
#1087=CARTESIAN_POINT('',(-0.0271260421517382,0.0112186970591396,-0.0232000086266577));
#1088=CARTESIAN_POINT('',(-0.0271260421517382,0.0112186970591396,-0.0232000086266577));
#1089=CARTESIAN_POINT('',(-0.0483323899999668,0.0501064450016352,-0.0232000086266577));
#1090=CARTESIAN_POINT('',(-0.0483323899999668,0.0501064450016352,-0.0240000086266577));
#1091=CARTESIAN_POINT('',(-0.0274529389271798,0.0110422074946987,-0.0240000086266577));
#1092=CARTESIAN_POINT('',(-0.0483323899999668,0.0501064450016352,-0.0232000086266577));
#1093=CARTESIAN_POINT('',(-0.0274529389271798,0.0110422074946987,-0.0232000086266577));
#1094=CARTESIAN_POINT('',(-0.0274529389271798,0.0110422074946987,-0.0232000086266577));
#1095=CARTESIAN_POINT('',(-0.0385157037839833,0.0317399965478223,-0.0232000086266577));
#1096=CARTESIAN_POINT('',(-0.0385157037839833,0.0317399965478223,-0.0240000086266577));
#1097=CARTESIAN_POINT('',(-0.0283283709473264,0.0105975868545258,-0.0240000086266577));
#1098=CARTESIAN_POINT('',(-0.0385157037839833,0.0317399965478223,-0.0232000086266577));
#1099=CARTESIAN_POINT('',(-0.0283283709473264,0.0105975868545258,-0.0232000086266577));
#1100=CARTESIAN_POINT('',(-0.0283283709473264,0.0105975868545258,-0.0232000086266577));
#1101=CARTESIAN_POINT('',(-0.0473300138920741,0.0500328862037346,-0.0232000086266577));
#1102=CARTESIAN_POINT('',(-0.0473300138920741,0.0500328862037346,-0.0240000086266577));
#1103=CARTESIAN_POINT('',(-0.0293755623053833,0.0101099236686097,-0.0240000086266577));
#1104=CARTESIAN_POINT('',(-0.0473300138920741,0.0500328862037346,-0.0232000086266577));
#1105=CARTESIAN_POINT('',(-0.0293755623053833,0.0101099236686097,-0.0232000086266577));
#1106=CARTESIAN_POINT('',(-0.0293755623053833,0.0101099236686097,-0.0232000086266577));
#1107=CARTESIAN_POINT('',(-0.030824520369572,0.0094582874732314,-0.0232000086266577));
#1108=CARTESIAN_POINT('',(-0.030824520369572,0.0094582874732314,-0.0240000086266577));
#1109=CARTESIAN_POINT('',(-0.0322734784337605,0.00880665127785308,-0.0240000086266577));
#1110=CARTESIAN_POINT('',(-0.030824520369572,0.0094582874732314,-0.0232000086266577));
#1111=CARTESIAN_POINT('',(-0.0322734784337605,0.00880665127785308,-0.0232000086266577));
#1112=CARTESIAN_POINT('',(-0.0322734784337605,0.00880665127785308,-0.0232000086266577));
#1113=CARTESIAN_POINT('',(-0.0328955028307318,0.00738001629601475,-0.0232000086266577));
#1114=CARTESIAN_POINT('',(-0.0328955028307318,0.00738001629601475,-0.0240000086266577));
#1115=CARTESIAN_POINT('',(-0.0335175272276967,0.0059533813141736,-0.0240000086266577));
#1116=CARTESIAN_POINT('',(-0.0328955028307318,0.00738001629601475,-0.0232000086266577));
#1117=CARTESIAN_POINT('',(-0.0335175272276967,0.0059533813141736,-0.0232000086266577));
#1118=CARTESIAN_POINT('',(-0.0335175272276967,0.0059533813141736,-0.0232000086266577));
#1119=CARTESIAN_POINT('',(-0.0698202703530564,0.0217816710928654,-0.0232000086266577));
#1120=CARTESIAN_POINT('',(-0.0698202703530564,0.0217816710928654,-0.0240000086266577));
#1121=CARTESIAN_POINT('',(-0.0339837824820194,0.00492432691255973,-0.0240000086266577));
#1122=CARTESIAN_POINT('',(-0.0698202703530564,0.0217816710928654,-0.0232000086266577));
#1123=CARTESIAN_POINT('',(-0.0339837824820194,0.00492432691255973,-0.0232000086266577));
#1124=CARTESIAN_POINT('',(-0.0339837824820194,0.00492432691255973,-0.0232000086266577));
#1125=CARTESIAN_POINT('',(-0.053252724655368,0.0139883621878764,-0.0232000086266577));
#1126=CARTESIAN_POINT('',(-0.053252724655368,0.0139883621878764,-0.0240000086266577));
#1127=CARTESIAN_POINT('',(-0.0344120892174899,0.00406468725132463,-0.0240000086266577));
#1128=CARTESIAN_POINT('',(-0.053252724655368,0.0139883621878764,-0.0232000086266577));
#1129=CARTESIAN_POINT('',(-0.0344120892174899,0.00406468725132463,-0.0232000086266577));
#1130=CARTESIAN_POINT('',(-0.0344120892174899,0.00406468725132463,-0.0232000086266577));
#1131=CARTESIAN_POINT('',(-0.0675742025961052,0.0215317219733518,-0.0232000086266577));
#1132=CARTESIAN_POINT('',(-0.0675742025961052,0.0215317219733518,-0.0240000086266577));
#1133=CARTESIAN_POINT('',(-0.0345820275193113,0.00374578794056019,-0.0240000086266577));
#1134=CARTESIAN_POINT('',(-0.0675742025961052,0.0215317219733518,-0.0232000086266577));
#1135=CARTESIAN_POINT('',(-0.0345820275193113,0.00374578794056019,-0.0232000086266577));
#1136=CARTESIAN_POINT('',(-0.0345820275193113,0.00374578794056019,-0.0232000086266577));
#1137=CARTESIAN_POINT('',(0.000661126697628905,0.0231740340493582,-0.0232000086266577));
#1138=CARTESIAN_POINT('',(0.000661126697628905,0.0231740340493582,-0.0240000086266577));
#1139=CARTESIAN_POINT('',(-0.0347649650019171,0.00408139952922985,-0.0240000086266577));
#1140=CARTESIAN_POINT('',(0.000661126697628905,0.0231740340493582,-0.0232000086266577));
#1141=CARTESIAN_POINT('',(-0.0347649650019171,0.00408139952922985,-0.0232000086266577));
#1142=CARTESIAN_POINT('',(-0.0347649650019171,0.00408139952922985,-0.0232000086266577));
#1143=CARTESIAN_POINT('',(-0.0150716128200481,0.0146949884871511,-0.0232000086266577));
#1144=CARTESIAN_POINT('',(-0.0150716128200481,0.0146949884871511,-0.0240000086266577));
#1145=CARTESIAN_POINT('',(-0.0150716128200481,0.0146949884871511,-0.0232000086266577));
#1146=CARTESIAN_POINT('',(1.77635683940025E-15,-0.00100021562487935,-0.0232000086266577));
#1147=CARTESIAN_POINT('',(1.77635683940025E-15,-0.00100021562487935,-0.0240000086266577));
#1148=MECHANICAL_DESIGN_GEOMETRIC_PRESENTATION_REPRESENTATION('',(#645),
#1149);
#1149=(
GEOMETRIC_REPRESENTATION_CONTEXT(3)
GLOBAL_UNCERTAINTY_ASSIGNED_CONTEXT((#1150))
GLOBAL_UNIT_ASSIGNED_CONTEXT((#1153,#1152,#1151))
REPRESENTATION_CONTEXT('ValinorStar1','TOP_LEVEL_ASSEMBLY_PART')
);
#1150=UNCERTAINTY_MEASURE_WITH_UNIT(LENGTH_MEASURE(1.E-8),#1153,
'DISTANCE_ACCURACY_VALUE','Maximum Tolerance applied to model');
#1151=(
NAMED_UNIT(*)
SI_UNIT($,.STERADIAN.)
SOLID_ANGLE_UNIT()
);
#1152=(
NAMED_UNIT(*)
PLANE_ANGLE_UNIT()
SI_UNIT($,.RADIAN.)
);
#1153=(
LENGTH_UNIT()
NAMED_UNIT(*)
SI_UNIT($,.METRE.)
);
#1154=PRODUCT_DEFINITION_SHAPE('','',#1155);
#1155=PRODUCT_DEFINITION('','',#1157,#1156);
#1156=PRODUCT_DEFINITION_CONTEXT('',#1163,'design');
#1157=PRODUCT_DEFINITION_FORMATION_WITH_SPECIFIED_SOURCE('','',#1159,
 .NOT_KNOWN.);
#1158=PRODUCT_RELATED_PRODUCT_CATEGORY('','',(#1159));
#1159=PRODUCT('ValinorStar1','ValinorStar1','ValinorStar1',(#1161));
#1160=PRODUCT_CATEGORY('','');
#1161=PRODUCT_CONTEXT('',#1163,'mechanical');
#1162=APPLICATION_PROTOCOL_DEFINITION('international standard',
'ap242_managed_model_based_3d_engineering',2020,#1163);
#1163=APPLICATION_CONTEXT('managed model based 3d engineering');
ENDSEC;
END-ISO-10303-21;
