ISO-10303-21;
HEADER;
/* Generated by software containing ST-Developer
 * from STEP Tools, Inc. (www.steptools.com) 
 */
/* OPTION: using custom renumber hook */

FILE_DESCRIPTION(
/* description */ ('STEP AP242 Edition 2',
'CAx-IF Rec.Pracs.---Representation and Presentation of Product Manufa
cturing Information (PMI)---4.0---2014-10-13',
'CAx-IF Rec.Pracs.---3D Tessellated Geometry---0.4---2014-09-14','2;1',
'CAx-IF Rec.Pracs.---User Defined Attributes---1.5---2016-08-15'),
/* implementation_level */ '2;1');

FILE_NAME(
/* name */ 'M_TOP - Part 2',
/* time_stamp */ '2026-09-23T14:54:52Z',
/* author */ (''),
/* organization */ (''),
/* preprocessor_version */ 'ST-DEVELOPER v20',
/* originating_system */ 'ONSHAPE BY PTC INC, 1.221',
/* authorisation */ '  ');

FILE_SCHEMA (('AP242_MANAGED_MODEL_BASED_3D_ENGINEERING_MIM_LF { 1 0 10303 442 3 1 4 }'));
ENDSEC;

DATA;
#10=SHAPE_REPRESENTATION_RELATIONSHIP('','',#441,#11);
#11=ADVANCED_BREP_SHAPE_REPRESENTATION('',(#439),#763);
#12=CYLINDRICAL_SURFACE('',#460,0.000235593449693447);
#13=CYLINDRICAL_SURFACE('',#461,0.000235593449644387);
#14=B_SPLINE_SURFACE_WITH_KNOTS('',3,1,((#703,#704),(#705,#706),(#707,#708),
(#709,#710)),.SURF_OF_LINEAR_EXTRUSION.,.F.,.F.,.F.,(4,4),(2,2),(-9.97232500620823E-15,
0.557521071351047),(0.,1.),.PIECEWISE_BEZIER_KNOTS.);
#15=B_SPLINE_SURFACE_WITH_KNOTS('',3,1,((#715,#716),(#717,#718),(#719,#720),
(#721,#722)),.SURF_OF_LINEAR_EXTRUSION.,.F.,.F.,.F.,(4,4),(2,2),(-1.42830596213973E-14,
0.557521071349359),(0.,1.),.PIECEWISE_BEZIER_KNOTS.);
#16=B_SPLINE_SURFACE_WITH_KNOTS('',3,1,((#727,#728),(#729,#730),(#731,#732),
(#733,#734)),.SURF_OF_LINEAR_EXTRUSION.,.F.,.F.,.F.,(4,4),(2,2),(-3.27600608435696E-15,
1.00000000000001),(0.,1.),.PIECEWISE_BEZIER_KNOTS.);
#17=B_SPLINE_SURFACE_WITH_KNOTS('',3,1,((#735,#736),(#737,#738),(#739,#740),
(#741,#742)),.SURF_OF_LINEAR_EXTRUSION.,.F.,.F.,.F.,(4,4),(2,2),(-9.41150601459312E-16,
1.00000000000002),(0.,1.),.PIECEWISE_BEZIER_KNOTS.);
#18=CIRCLE('',#445,0.000235593449644387);
#19=CIRCLE('',#446,0.000235593449693447);
#20=CIRCLE('',#455,0.000235593449693447);
#21=CIRCLE('',#456,0.000235593449644387);
#22=B_SPLINE_CURVE_WITH_KNOTS('',3,(#560,#561,#562,#563),.UNSPECIFIED.,
 .F.,.F.,(4,4),(0.,1.),.UNSPECIFIED.);
#23=B_SPLINE_CURVE_WITH_KNOTS('',3,(#567,#568,#569,#570),.UNSPECIFIED.,
 .F.,.F.,(4,4),(0.,1.),.UNSPECIFIED.);
#24=B_SPLINE_CURVE_WITH_KNOTS('',3,(#572,#573,#574,#575),.UNSPECIFIED.,
 .F.,.F.,(4,4),(0.,0.788453860408353),.UNSPECIFIED.);
#25=B_SPLINE_CURVE_WITH_KNOTS('',3,(#584,#585,#586,#587),.UNSPECIFIED.,
 .F.,.F.,(4,4),(0.211546139588499,1.),.UNSPECIFIED.);
#26=B_SPLINE_CURVE_WITH_KNOTS('',3,(#588,#589,#590,#591),.UNSPECIFIED.,
 .F.,.F.,(4,4),(0.,1.),.UNSPECIFIED.);
#27=B_SPLINE_CURVE_WITH_KNOTS('',3,(#599,#600,#601,#602),.UNSPECIFIED.,
 .F.,.F.,(4,4),(0.,1.),.UNSPECIFIED.);
#28=B_SPLINE_CURVE_WITH_KNOTS('',3,(#647,#648,#649,#650),.UNSPECIFIED.,
 .F.,.F.,(4,4),(0.,1.),.UNSPECIFIED.);
#29=B_SPLINE_CURVE_WITH_KNOTS('',3,(#652,#653,#654,#655),.UNSPECIFIED.,
 .F.,.F.,(4,4),(0.,0.788453860408396),.UNSPECIFIED.);
#30=B_SPLINE_CURVE_WITH_KNOTS('',3,(#663,#664,#665,#666),.UNSPECIFIED.,
 .F.,.F.,(4,4),(0.211546139590827,1.),.UNSPECIFIED.);
#31=B_SPLINE_CURVE_WITH_KNOTS('',3,(#670,#671,#672,#673),.UNSPECIFIED.,
 .F.,.F.,(4,4),(0.,1.),.UNSPECIFIED.);
#32=B_SPLINE_CURVE_WITH_KNOTS('',3,(#676,#677,#678,#679),.UNSPECIFIED.,
 .F.,.F.,(4,4),(0.,1.),.UNSPECIFIED.);
#33=B_SPLINE_CURVE_WITH_KNOTS('',3,(#681,#682,#683,#684),.UNSPECIFIED.,
 .F.,.F.,(4,4),(0.,1.),.UNSPECIFIED.);
#34=B_SPLINE_CURVE_WITH_KNOTS('',3,(#686,#687,#688,#689),.UNSPECIFIED.,
 .F.,.F.,(4,4),(0.,1.),.UNSPECIFIED.);
#35=B_SPLINE_CURVE_WITH_KNOTS('',3,(#690,#691,#692,#693),.UNSPECIFIED.,
 .F.,.F.,(4,4),(0.,1.),.UNSPECIFIED.);
#36=B_SPLINE_CURVE_WITH_KNOTS('',3,(#695,#696,#697,#698),.UNSPECIFIED.,
 .F.,.F.,(4,4),(0.,1.),.UNSPECIFIED.);
#37=B_SPLINE_CURVE_WITH_KNOTS('',3,(#699,#700,#701,#702),.UNSPECIFIED.,
 .F.,.F.,(4,4),(0.,1.),.UNSPECIFIED.);
#38=B_SPLINE_CURVE_WITH_KNOTS('',3,(#711,#712,#713,#714),.UNSPECIFIED.,
 .F.,.F.,(4,4),(0.,1.),.UNSPECIFIED.);
#39=B_SPLINE_CURVE_WITH_KNOTS('',3,(#723,#724,#725,#726),.UNSPECIFIED.,
 .F.,.F.,(4,4),(0.,1.),.UNSPECIFIED.);
#40=ORIENTED_EDGE('',*,*,#160,.F.);
#41=ORIENTED_EDGE('',*,*,#161,.T.);
#42=ORIENTED_EDGE('',*,*,#162,.T.);
#43=ORIENTED_EDGE('',*,*,#163,.T.);
#44=ORIENTED_EDGE('',*,*,#164,.T.);
#45=ORIENTED_EDGE('',*,*,#165,.T.);
#46=ORIENTED_EDGE('',*,*,#166,.T.);
#47=ORIENTED_EDGE('',*,*,#167,.T.);
#48=ORIENTED_EDGE('',*,*,#168,.T.);
#49=ORIENTED_EDGE('',*,*,#160,.T.);
#50=ORIENTED_EDGE('',*,*,#169,.T.);
#51=ORIENTED_EDGE('',*,*,#170,.T.);
#52=ORIENTED_EDGE('',*,*,#171,.F.);
#53=ORIENTED_EDGE('',*,*,#172,.F.);
#54=ORIENTED_EDGE('',*,*,#173,.T.);
#55=ORIENTED_EDGE('',*,*,#174,.T.);
#56=ORIENTED_EDGE('',*,*,#175,.T.);
#57=ORIENTED_EDGE('',*,*,#176,.F.);
#58=ORIENTED_EDGE('',*,*,#177,.F.);
#59=ORIENTED_EDGE('',*,*,#178,.T.);
#60=ORIENTED_EDGE('',*,*,#179,.T.);
#61=ORIENTED_EDGE('',*,*,#178,.F.);
#62=ORIENTED_EDGE('',*,*,#180,.F.);
#63=ORIENTED_EDGE('',*,*,#181,.T.);
#64=ORIENTED_EDGE('',*,*,#182,.F.);
#65=ORIENTED_EDGE('',*,*,#181,.F.);
#66=ORIENTED_EDGE('',*,*,#183,.T.);
#67=ORIENTED_EDGE('',*,*,#184,.T.);
#68=ORIENTED_EDGE('',*,*,#185,.T.);
#69=ORIENTED_EDGE('',*,*,#184,.F.);
#70=ORIENTED_EDGE('',*,*,#186,.F.);
#71=ORIENTED_EDGE('',*,*,#176,.T.);
#72=ORIENTED_EDGE('',*,*,#187,.F.);
#73=ORIENTED_EDGE('',*,*,#171,.T.);
#74=ORIENTED_EDGE('',*,*,#188,.T.);
#75=ORIENTED_EDGE('',*,*,#189,.F.);
#76=ORIENTED_EDGE('',*,*,#177,.T.);
#77=ORIENTED_EDGE('',*,*,#186,.T.);
#78=ORIENTED_EDGE('',*,*,#183,.F.);
#79=ORIENTED_EDGE('',*,*,#180,.T.);
#80=ORIENTED_EDGE('',*,*,#190,.F.);
#81=ORIENTED_EDGE('',*,*,#191,.T.);
#82=ORIENTED_EDGE('',*,*,#192,.T.);
#83=ORIENTED_EDGE('',*,*,#193,.F.);
#84=ORIENTED_EDGE('',*,*,#175,.F.);
#85=ORIENTED_EDGE('',*,*,#179,.F.);
#86=ORIENTED_EDGE('',*,*,#182,.T.);
#87=ORIENTED_EDGE('',*,*,#185,.F.);
#88=ORIENTED_EDGE('',*,*,#194,.F.);
#89=ORIENTED_EDGE('',*,*,#195,.T.);
#90=ORIENTED_EDGE('',*,*,#172,.T.);
#91=ORIENTED_EDGE('',*,*,#187,.T.);
#92=ORIENTED_EDGE('',*,*,#196,.T.);
#93=ORIENTED_EDGE('',*,*,#197,.T.);
#94=ORIENTED_EDGE('',*,*,#198,.F.);
#95=ORIENTED_EDGE('',*,*,#199,.T.);
#96=ORIENTED_EDGE('',*,*,#200,.T.);
#97=ORIENTED_EDGE('',*,*,#201,.F.);
#98=ORIENTED_EDGE('',*,*,#202,.T.);
#99=ORIENTED_EDGE('',*,*,#194,.T.);
#100=ORIENTED_EDGE('',*,*,#189,.T.);
#101=ORIENTED_EDGE('',*,*,#203,.F.);
#102=ORIENTED_EDGE('',*,*,#204,.T.);
#103=ORIENTED_EDGE('',*,*,#162,.F.);
#104=ORIENTED_EDGE('',*,*,#170,.F.);
#105=ORIENTED_EDGE('',*,*,#205,.T.);
#106=ORIENTED_EDGE('',*,*,#203,.T.);
#107=ORIENTED_EDGE('',*,*,#188,.F.);
#108=ORIENTED_EDGE('',*,*,#201,.T.);
#109=ORIENTED_EDGE('',*,*,#206,.T.);
#110=ORIENTED_EDGE('',*,*,#174,.F.);
#111=ORIENTED_EDGE('',*,*,#207,.T.);
#112=ORIENTED_EDGE('',*,*,#198,.T.);
#113=ORIENTED_EDGE('',*,*,#208,.T.);
#114=ORIENTED_EDGE('',*,*,#166,.F.);
#115=ORIENTED_EDGE('',*,*,#209,.T.);
#116=ORIENTED_EDGE('',*,*,#168,.F.);
#117=ORIENTED_EDGE('',*,*,#210,.T.);
#118=ORIENTED_EDGE('',*,*,#196,.F.);
#119=ORIENTED_EDGE('',*,*,#161,.F.);
#120=ORIENTED_EDGE('',*,*,#200,.F.);
#121=ORIENTED_EDGE('',*,*,#211,.T.);
#122=ORIENTED_EDGE('',*,*,#164,.F.);
#123=ORIENTED_EDGE('',*,*,#206,.F.);
#124=ORIENTED_EDGE('',*,*,#169,.F.);
#125=ORIENTED_EDGE('',*,*,#163,.F.);
#126=ORIENTED_EDGE('',*,*,#204,.F.);
#127=ORIENTED_EDGE('',*,*,#205,.F.);
#128=ORIENTED_EDGE('',*,*,#173,.F.);
#129=ORIENTED_EDGE('',*,*,#195,.F.);
#130=ORIENTED_EDGE('',*,*,#202,.F.);
#131=ORIENTED_EDGE('',*,*,#207,.F.);
#132=ORIENTED_EDGE('',*,*,#197,.F.);
#133=ORIENTED_EDGE('',*,*,#210,.F.);
#134=ORIENTED_EDGE('',*,*,#167,.F.);
#135=ORIENTED_EDGE('',*,*,#208,.F.);
#136=ORIENTED_EDGE('',*,*,#165,.F.);
#137=ORIENTED_EDGE('',*,*,#211,.F.);
#138=ORIENTED_EDGE('',*,*,#199,.F.);
#139=ORIENTED_EDGE('',*,*,#209,.F.);
#140=ORIENTED_EDGE('',*,*,#212,.T.);
#141=ORIENTED_EDGE('',*,*,#213,.T.);
#142=ORIENTED_EDGE('',*,*,#214,.F.);
#143=ORIENTED_EDGE('',*,*,#215,.F.);
#144=ORIENTED_EDGE('',*,*,#216,.T.);
#145=ORIENTED_EDGE('',*,*,#192,.F.);
#146=ORIENTED_EDGE('',*,*,#217,.F.);
#147=ORIENTED_EDGE('',*,*,#212,.F.);
#148=ORIENTED_EDGE('',*,*,#215,.T.);
#149=ORIENTED_EDGE('',*,*,#218,.T.);
#150=ORIENTED_EDGE('',*,*,#193,.T.);
#151=ORIENTED_EDGE('',*,*,#216,.F.);
#152=ORIENTED_EDGE('',*,*,#217,.T.);
#153=ORIENTED_EDGE('',*,*,#191,.F.);
#154=ORIENTED_EDGE('',*,*,#219,.F.);
#155=ORIENTED_EDGE('',*,*,#213,.F.);
#156=ORIENTED_EDGE('',*,*,#214,.T.);
#157=ORIENTED_EDGE('',*,*,#219,.T.);
#158=ORIENTED_EDGE('',*,*,#190,.T.);
#159=ORIENTED_EDGE('',*,*,#218,.F.);
#160=EDGE_CURVE('',#220,#221,#260,.T.);
#161=EDGE_CURVE('',#220,#222,#22,.T.);
#162=EDGE_CURVE('',#222,#223,#261,.T.);
#163=EDGE_CURVE('',#223,#221,#23,.T.);
#164=EDGE_CURVE('',#224,#225,#24,.T.);
#165=EDGE_CURVE('',#225,#226,#18,.T.);
#166=EDGE_CURVE('',#226,#227,#262,.T.);
#167=EDGE_CURVE('',#227,#228,#19,.F.);
#168=EDGE_CURVE('',#228,#220,#25,.T.);
#169=EDGE_CURVE('',#221,#229,#26,.T.);
#170=EDGE_CURVE('',#229,#230,#263,.T.);
#171=EDGE_CURVE('',#231,#230,#264,.T.);
#172=EDGE_CURVE('',#232,#231,#265,.T.);
#173=EDGE_CURVE('',#232,#233,#27,.T.);
#174=EDGE_CURVE('',#233,#224,#266,.T.);
#175=EDGE_CURVE('',#234,#235,#267,.T.);
#176=EDGE_CURVE('',#236,#235,#268,.T.);
#177=EDGE_CURVE('',#237,#236,#269,.T.);
#178=EDGE_CURVE('',#237,#234,#270,.T.);
#179=EDGE_CURVE('',#238,#234,#271,.T.);
#180=EDGE_CURVE('',#239,#237,#272,.T.);
#181=EDGE_CURVE('',#239,#238,#273,.T.);
#182=EDGE_CURVE('',#238,#240,#274,.T.);
#183=EDGE_CURVE('',#239,#241,#275,.T.);
#184=EDGE_CURVE('',#241,#240,#276,.T.);
#185=EDGE_CURVE('',#235,#240,#277,.T.);
#186=EDGE_CURVE('',#236,#241,#278,.T.);
#187=EDGE_CURVE('',#231,#242,#279,.T.);
#188=EDGE_CURVE('',#230,#243,#280,.T.);
#189=EDGE_CURVE('',#242,#243,#281,.T.);
#190=EDGE_CURVE('',#244,#245,#282,.T.);
#191=EDGE_CURVE('',#244,#246,#283,.T.);
#192=EDGE_CURVE('',#246,#247,#284,.T.);
#193=EDGE_CURVE('',#245,#247,#285,.T.);
#194=EDGE_CURVE('',#248,#242,#286,.T.);
#195=EDGE_CURVE('',#248,#232,#28,.T.);
#196=EDGE_CURVE('',#222,#249,#29,.T.);
#197=EDGE_CURVE('',#249,#250,#20,.T.);
#198=EDGE_CURVE('',#251,#250,#287,.T.);
#199=EDGE_CURVE('',#251,#252,#21,.F.);
#200=EDGE_CURVE('',#252,#253,#30,.T.);
#201=EDGE_CURVE('',#254,#253,#288,.T.);
#202=EDGE_CURVE('',#254,#248,#31,.T.);
#203=EDGE_CURVE('',#255,#243,#289,.T.);
#204=EDGE_CURVE('',#255,#223,#32,.T.);
#205=EDGE_CURVE('',#229,#255,#33,.T.);
#206=EDGE_CURVE('',#253,#224,#34,.T.);
#207=EDGE_CURVE('',#233,#254,#35,.T.);
#208=EDGE_CURVE('',#250,#227,#36,.T.);
#209=EDGE_CURVE('',#226,#251,#37,.T.);
#210=EDGE_CURVE('',#228,#249,#38,.F.);
#211=EDGE_CURVE('',#252,#225,#39,.F.);
#212=EDGE_CURVE('',#256,#257,#290,.T.);
#213=EDGE_CURVE('',#257,#258,#291,.T.);
#214=EDGE_CURVE('',#259,#258,#292,.T.);
#215=EDGE_CURVE('',#256,#259,#293,.T.);
#216=EDGE_CURVE('',#256,#247,#294,.T.);
#217=EDGE_CURVE('',#257,#246,#295,.T.);
#218=EDGE_CURVE('',#259,#245,#296,.T.);
#219=EDGE_CURVE('',#258,#244,#297,.T.);
#220=VERTEX_POINT('',#558);
#221=VERTEX_POINT('',#559);
#222=VERTEX_POINT('',#564);
#223=VERTEX_POINT('',#566);
#224=VERTEX_POINT('',#576);
#225=VERTEX_POINT('',#577);
#226=VERTEX_POINT('',#579);
#227=VERTEX_POINT('',#581);
#228=VERTEX_POINT('',#583);
#229=VERTEX_POINT('',#592);
#230=VERTEX_POINT('',#594);
#231=VERTEX_POINT('',#596);
#232=VERTEX_POINT('',#598);
#233=VERTEX_POINT('',#603);
#234=VERTEX_POINT('',#607);
#235=VERTEX_POINT('',#608);
#236=VERTEX_POINT('',#610);
#237=VERTEX_POINT('',#612);
#238=VERTEX_POINT('',#616);
#239=VERTEX_POINT('',#618);
#240=VERTEX_POINT('',#622);
#241=VERTEX_POINT('',#624);
#242=VERTEX_POINT('',#631);
#243=VERTEX_POINT('',#633);
#244=VERTEX_POINT('',#637);
#245=VERTEX_POINT('',#638);
#246=VERTEX_POINT('',#640);
#247=VERTEX_POINT('',#642);
#248=VERTEX_POINT('',#646);
#249=VERTEX_POINT('',#656);
#250=VERTEX_POINT('',#658);
#251=VERTEX_POINT('',#660);
#252=VERTEX_POINT('',#662);
#253=VERTEX_POINT('',#667);
#254=VERTEX_POINT('',#669);
#255=VERTEX_POINT('',#675);
#256=VERTEX_POINT('',#747);
#257=VERTEX_POINT('',#748);
#258=VERTEX_POINT('',#750);
#259=VERTEX_POINT('',#752);
#260=LINE('',#557,#298);
#261=LINE('',#565,#299);
#262=LINE('',#580,#300);
#263=LINE('',#593,#301);
#264=LINE('',#595,#302);
#265=LINE('',#597,#303);
#266=LINE('',#604,#304);
#267=LINE('',#606,#305);
#268=LINE('',#609,#306);
#269=LINE('',#611,#307);
#270=LINE('',#613,#308);
#271=LINE('',#615,#309);
#272=LINE('',#617,#310);
#273=LINE('',#619,#311);
#274=LINE('',#621,#312);
#275=LINE('',#623,#313);
#276=LINE('',#625,#314);
#277=LINE('',#627,#315);
#278=LINE('',#628,#316);
#279=LINE('',#630,#317);
#280=LINE('',#632,#318);
#281=LINE('',#634,#319);
#282=LINE('',#636,#320);
#283=LINE('',#639,#321);
#284=LINE('',#641,#322);
#285=LINE('',#643,#323);
#286=LINE('',#645,#324);
#287=LINE('',#659,#325);
#288=LINE('',#668,#326);
#289=LINE('',#674,#327);
#290=LINE('',#746,#328);
#291=LINE('',#749,#329);
#292=LINE('',#751,#330);
#293=LINE('',#753,#331);
#294=LINE('',#755,#332);
#295=LINE('',#756,#333);
#296=LINE('',#758,#334);
#297=LINE('',#760,#335);
#298=VECTOR('',#471,1.);
#299=VECTOR('',#472,1.);
#300=VECTOR('',#477,1.);
#301=VECTOR('',#480,1.);
#302=VECTOR('',#481,1.);
#303=VECTOR('',#482,1.);
#304=VECTOR('',#483,1.);
#305=VECTOR('',#486,1.);
#306=VECTOR('',#487,1.);
#307=VECTOR('',#488,1.);
#308=VECTOR('',#489,1.);
#309=VECTOR('',#492,1.);
#310=VECTOR('',#493,1.);
#311=VECTOR('',#494,1.);
#312=VECTOR('',#497,1.);
#313=VECTOR('',#498,1.);
#314=VECTOR('',#499,1.);
#315=VECTOR('',#502,1.);
#316=VECTOR('',#503,1.);
#317=VECTOR('',#506,1.);
#318=VECTOR('',#507,1.);
#319=VECTOR('',#508,1.);
#320=VECTOR('',#511,1.);
#321=VECTOR('',#512,1.);
#322=VECTOR('',#513,1.);
#323=VECTOR('',#514,1.);
#324=VECTOR('',#517,1.);
#325=VECTOR('',#522,1.);
#326=VECTOR('',#525,1.);
#327=VECTOR('',#526,1.);
#328=VECTOR('',#539,1.);
#329=VECTOR('',#540,1.);
#330=VECTOR('',#541,1.);
#331=VECTOR('',#542,1.);
#332=VECTOR('',#545,1.);
#333=VECTOR('',#546,1.);
#334=VECTOR('',#549,1.);
#335=VECTOR('',#552,1.);
#336=EDGE_LOOP('',(#40,#41,#42,#43));
#337=EDGE_LOOP('',(#44,#45,#46,#47,#48,#49,#50,#51,#52,#53,#54,#55));
#338=EDGE_LOOP('',(#56,#57,#58,#59));
#339=EDGE_LOOP('',(#60,#61,#62,#63));
#340=EDGE_LOOP('',(#64,#65,#66,#67));
#341=EDGE_LOOP('',(#68,#69,#70,#71));
#342=EDGE_LOOP('',(#72,#73,#74,#75));
#343=EDGE_LOOP('',(#76,#77,#78,#79));
#344=EDGE_LOOP('',(#80,#81,#82,#83));
#345=EDGE_LOOP('',(#84,#85,#86,#87));
#346=EDGE_LOOP('',(#88,#89,#90,#91));
#347=EDGE_LOOP('',(#92,#93,#94,#95,#96,#97,#98,#99,#100,#101,#102,#103));
#348=EDGE_LOOP('',(#104,#105,#106,#107));
#349=EDGE_LOOP('',(#108,#109,#110,#111));
#350=EDGE_LOOP('',(#112,#113,#114,#115));
#351=EDGE_LOOP('',(#116,#117,#118,#119));
#352=EDGE_LOOP('',(#120,#121,#122,#123));
#353=EDGE_LOOP('',(#124,#125,#126,#127));
#354=EDGE_LOOP('',(#128,#129,#130,#131));
#355=EDGE_LOOP('',(#132,#133,#134,#135));
#356=EDGE_LOOP('',(#136,#137,#138,#139));
#357=EDGE_LOOP('',(#140,#141,#142,#143));
#358=EDGE_LOOP('',(#144,#145,#146,#147));
#359=EDGE_LOOP('',(#148,#149,#150,#151));
#360=EDGE_LOOP('',(#152,#153,#154,#155));
#361=EDGE_LOOP('',(#156,#157,#158,#159));
#362=FACE_BOUND('',#336,.T.);
#363=FACE_BOUND('',#337,.T.);
#364=FACE_BOUND('',#338,.T.);
#365=FACE_BOUND('',#339,.T.);
#366=FACE_BOUND('',#340,.T.);
#367=FACE_BOUND('',#341,.T.);
#368=FACE_BOUND('',#342,.T.);
#369=FACE_BOUND('',#343,.T.);
#370=FACE_BOUND('',#344,.T.);
#371=FACE_BOUND('',#345,.T.);
#372=FACE_BOUND('',#346,.T.);
#373=FACE_BOUND('',#347,.T.);
#374=FACE_BOUND('',#348,.T.);
#375=FACE_BOUND('',#349,.T.);
#376=FACE_BOUND('',#350,.T.);
#377=FACE_BOUND('',#351,.T.);
#378=FACE_BOUND('',#352,.T.);
#379=FACE_BOUND('',#353,.T.);
#380=FACE_BOUND('',#354,.T.);
#381=FACE_BOUND('',#355,.T.);
#382=FACE_BOUND('',#356,.T.);
#383=FACE_BOUND('',#357,.T.);
#384=FACE_BOUND('',#358,.T.);
#385=FACE_BOUND('',#359,.T.);
#386=FACE_BOUND('',#360,.T.);
#387=FACE_BOUND('',#361,.T.);
#388=PLANE('',#443);
#389=PLANE('',#444);
#390=PLANE('',#447);
#391=PLANE('',#448);
#392=PLANE('',#449);
#393=PLANE('',#450);
#394=PLANE('',#451);
#395=PLANE('',#452);
#396=PLANE('',#453);
#397=PLANE('',#454);
#398=PLANE('',#457);
#399=PLANE('',#458);
#400=PLANE('',#459);
#401=PLANE('',#462);
#402=PLANE('',#463);
#403=PLANE('',#464);
#404=PLANE('',#465);
#405=PLANE('',#466);
#406=ADVANCED_FACE('',(#362),#388,.T.);
#407=ADVANCED_FACE('',(#363),#389,.T.);
#408=ADVANCED_FACE('',(#364),#390,.F.);
#409=ADVANCED_FACE('',(#365),#391,.F.);
#410=ADVANCED_FACE('',(#366),#392,.T.);
#411=ADVANCED_FACE('',(#367),#393,.F.);
#412=ADVANCED_FACE('',(#368,#369),#394,.F.);
#413=ADVANCED_FACE('',(#370,#371),#395,.T.);
#414=ADVANCED_FACE('',(#372),#396,.F.);
#415=ADVANCED_FACE('',(#373),#397,.F.);
#416=ADVANCED_FACE('',(#374),#398,.T.);
#417=ADVANCED_FACE('',(#375),#399,.T.);
#418=ADVANCED_FACE('',(#376),#400,.T.);
#419=ADVANCED_FACE('',(#377),#14,.T.);
#420=ADVANCED_FACE('',(#378),#15,.T.);
#421=ADVANCED_FACE('',(#379),#16,.T.);
#422=ADVANCED_FACE('',(#380),#17,.T.);
#423=ADVANCED_FACE('',(#381),#12,.F.);
#424=ADVANCED_FACE('',(#382),#13,.F.);
#425=ADVANCED_FACE('',(#383),#401,.T.);
#426=ADVANCED_FACE('',(#384),#402,.T.);
#427=ADVANCED_FACE('',(#385),#403,.F.);
#428=ADVANCED_FACE('',(#386),#404,.T.);
#429=ADVANCED_FACE('',(#387),#405,.F.);
#430=CLOSED_SHELL('',(#406,#407,#408,#409,#410,#411,#412,#413,#414,#415,
#416,#417,#418,#419,#420,#421,#422,#423,#424,#425,#426,#427,#428,#429));
#431=STYLED_ITEM('',(#432),#439);
#432=PRESENTATION_STYLE_ASSIGNMENT((#433));
#433=SURFACE_STYLE_USAGE(.BOTH.,#434);
#434=SURFACE_SIDE_STYLE('',(#435));
#435=SURFACE_STYLE_FILL_AREA(#436);
#436=FILL_AREA_STYLE('',(#437));
#437=FILL_AREA_STYLE_COLOUR('',#438);
#438=COLOUR_RGB('',0.682352941176471,0.333333333333334,0.737254901960784);
#439=MANIFOLD_SOLID_BREP('Part 2',#430);
#440=SHAPE_DEFINITION_REPRESENTATION(#768,#441);
#441=SHAPE_REPRESENTATION('Part 2',(#442),#763);
#442=AXIS2_PLACEMENT_3D('',#555,#467,#468);
#443=AXIS2_PLACEMENT_3D('',#556,#469,#470);
#444=AXIS2_PLACEMENT_3D('',#571,#473,#474);
#445=AXIS2_PLACEMENT_3D('',#578,#475,#476);
#446=AXIS2_PLACEMENT_3D('',#582,#478,#479);
#447=AXIS2_PLACEMENT_3D('',#605,#484,#485);
#448=AXIS2_PLACEMENT_3D('',#614,#490,#491);
#449=AXIS2_PLACEMENT_3D('',#620,#495,#496);
#450=AXIS2_PLACEMENT_3D('',#626,#500,#501);
#451=AXIS2_PLACEMENT_3D('',#629,#504,#505);
#452=AXIS2_PLACEMENT_3D('',#635,#509,#510);
#453=AXIS2_PLACEMENT_3D('',#644,#515,#516);
#454=AXIS2_PLACEMENT_3D('',#651,#518,#519);
#455=AXIS2_PLACEMENT_3D('',#657,#520,#521);
#456=AXIS2_PLACEMENT_3D('',#661,#523,#524);
#457=AXIS2_PLACEMENT_3D('',#680,#527,#528);
#458=AXIS2_PLACEMENT_3D('',#685,#529,#530);
#459=AXIS2_PLACEMENT_3D('',#694,#531,#532);
#460=AXIS2_PLACEMENT_3D('',#743,#533,#534);
#461=AXIS2_PLACEMENT_3D('',#744,#535,#536);
#462=AXIS2_PLACEMENT_3D('',#745,#537,#538);
#463=AXIS2_PLACEMENT_3D('',#754,#543,#544);
#464=AXIS2_PLACEMENT_3D('',#757,#547,#548);
#465=AXIS2_PLACEMENT_3D('',#759,#550,#551);
#466=AXIS2_PLACEMENT_3D('',#761,#553,#554);
#467=DIRECTION('',(0.,0.,1.));
#468=DIRECTION('',(1.,0.,0.));
#469=DIRECTION('',(1.50845519650157E-16,1.,0.));
#470=DIRECTION('',(-1.,1.50845519650157E-16,0.));
#471=DIRECTION('',(1.,-1.50845519650157E-16,0.));
#472=DIRECTION('',(1.,-1.50845519650157E-16,0.));
#473=DIRECTION('',(0.,0.,-1.));
#474=DIRECTION('',(-1.,0.,0.));
#475=DIRECTION('',(-2.10649679834589E-11,1.51382745896059E-11,1.));
#476=DIRECTION('',(1.,0.,2.10649679834589E-11));
#477=DIRECTION('',(1.,-1.50845519650157E-16,0.));
#478=DIRECTION('',(1.07589091352259E-11,7.53088850616765E-12,-1.));
#479=DIRECTION('',(-1.,0.,-1.07589091352259E-11));
#480=DIRECTION('',(-1.50845519650157E-16,-1.,0.));
#481=DIRECTION('',(1.,-1.50845519650157E-16,0.));
#482=DIRECTION('',(-1.50845519650157E-16,-1.,0.));
#483=DIRECTION('',(1.,-1.50845519650157E-16,0.));
#484=DIRECTION('',(0.,0.,-1.));
#485=DIRECTION('',(-1.,0.,0.));
#486=DIRECTION('',(1.,-1.50845519650157E-16,0.));
#487=DIRECTION('',(-1.50845519650157E-16,-1.,0.));
#488=DIRECTION('',(1.,-1.50845519650157E-16,0.));
#489=DIRECTION('',(-1.50845519650157E-16,-1.,0.));
#490=DIRECTION('',(1.,-1.50845519650157E-16,0.));
#491=DIRECTION('',(1.50845519650157E-16,1.,0.));
#492=DIRECTION('',(0.,0.,1.));
#493=DIRECTION('',(0.,0.,1.));
#494=DIRECTION('',(-1.50845519650157E-16,-1.,0.));
#495=DIRECTION('',(0.,0.,-1.));
#496=DIRECTION('',(-1.,0.,0.));
#497=DIRECTION('',(1.,-1.50845519650157E-16,0.));
#498=DIRECTION('',(1.,-1.50845519650157E-16,0.));
#499=DIRECTION('',(-1.50845519650157E-16,-1.,0.));
#500=DIRECTION('',(-1.,1.50845519650157E-16,0.));
#501=DIRECTION('',(-1.50845519650157E-16,-1.,0.));
#502=DIRECTION('',(0.,0.,-1.));
#503=DIRECTION('',(0.,0.,-1.));
#504=DIRECTION('',(-1.50845519650157E-16,-1.,0.));
#505=DIRECTION('',(1.,-1.50845519650157E-16,0.));
#506=DIRECTION('',(0.,0.,1.));
#507=DIRECTION('',(0.,0.,1.));
#508=DIRECTION('',(1.,-1.50845519650157E-16,0.));
#509=DIRECTION('',(-1.50845519650157E-16,-1.,0.));
#510=DIRECTION('',(1.,-1.50845519650157E-16,0.));
#511=DIRECTION('',(0.,0.,1.));
#512=DIRECTION('',(-1.,1.50845519650157E-16,0.));
#513=DIRECTION('',(0.,0.,1.));
#514=DIRECTION('',(-1.,1.50845519650157E-16,0.));
#515=DIRECTION('',(1.,-1.50845519650157E-16,0.));
#516=DIRECTION('',(1.50845519650157E-16,1.,0.));
#517=DIRECTION('',(-1.50845519650157E-16,-1.,0.));
#518=DIRECTION('',(0.,0.,-1.));
#519=DIRECTION('',(-1.,0.,0.));
#520=DIRECTION('',(1.07589091352259E-11,7.53088850616765E-12,-1.));
#521=DIRECTION('',(-1.,0.,-1.07589091352259E-11));
#522=DIRECTION('',(1.,-1.50845519650157E-16,0.));
#523=DIRECTION('',(-2.10649679834589E-11,1.51382745896059E-11,1.));
#524=DIRECTION('',(1.,0.,2.10649679834589E-11));
#525=DIRECTION('',(1.,-1.50845519650157E-16,0.));
#526=DIRECTION('',(-1.50845519650157E-16,-1.,0.));
#527=DIRECTION('',(1.,-1.50845519650157E-16,0.));
#528=DIRECTION('',(1.50845519650157E-16,1.,0.));
#529=DIRECTION('',(1.50845519650157E-16,1.,0.));
#530=DIRECTION('',(-1.,1.50845519650157E-16,0.));
#531=DIRECTION('',(1.50845519650157E-16,1.,0.));
#532=DIRECTION('',(-1.,1.50845519650157E-16,0.));
#533=DIRECTION('',(1.07589091352259E-11,7.53088850616765E-12,-1.));
#534=DIRECTION('',(-1.,0.,-1.07589091352259E-11));
#535=DIRECTION('',(-2.10649679834589E-11,1.51382745896059E-11,1.));
#536=DIRECTION('',(1.,0.,2.10649679834589E-11));
#537=DIRECTION('',(-1.50845519650157E-16,-1.,0.));
#538=DIRECTION('',(1.,-1.50845519650157E-16,0.));
#539=DIRECTION('',(0.,0.,-1.));
#540=DIRECTION('',(1.,-1.50845519650157E-16,0.));
#541=DIRECTION('',(0.,0.,-1.));
#542=DIRECTION('',(1.,-1.50845519650157E-16,0.));
#543=DIRECTION('',(1.,-1.50845519650157E-16,0.));
#544=DIRECTION('',(1.50845519650157E-16,1.,0.));
#545=DIRECTION('',(-1.50845519650157E-16,-1.,0.));
#546=DIRECTION('',(-1.50845519650157E-16,-1.,0.));
#547=DIRECTION('',(0.,0.,1.));
#548=DIRECTION('',(1.,0.,0.));
#549=DIRECTION('',(-1.50845519650157E-16,-1.,0.));
#550=DIRECTION('',(0.,0.,1.));
#551=DIRECTION('',(1.,0.,0.));
#552=DIRECTION('',(-1.50845519650157E-16,-1.,0.));
#553=DIRECTION('',(1.,-1.50845519650157E-16,0.));
#554=DIRECTION('',(1.50845519650157E-16,1.,0.));
#555=CARTESIAN_POINT('',(0.,0.,0.));
#556=CARTESIAN_POINT('',(0.0358,0.0389,-0.00954804726805593));
#557=CARTESIAN_POINT('',(0.036,0.0389,-0.0117480472680559));
#558=CARTESIAN_POINT('',(0.03675,0.0389,-0.0117480472680559));
#559=CARTESIAN_POINT('',(0.0372202257514,0.0389,-0.0117480472680559));
#560=CARTESIAN_POINT('',(0.03675,0.0389,-0.0117480472680559));
#561=CARTESIAN_POINT('',(0.03675,0.0389,-0.0102813806013893));
#562=CARTESIAN_POINT('',(0.03675,0.0389,-0.00881471393472259));
#563=CARTESIAN_POINT('',(0.03675,0.0389,-0.00734804726805593));
#564=CARTESIAN_POINT('',(0.03675,0.0389,-0.00734804726805593));
#565=CARTESIAN_POINT('',(0.036,0.0389,-0.00734804726805593));
#566=CARTESIAN_POINT('',(0.0372202257514,0.0389,-0.00734804726805593));
#567=CARTESIAN_POINT('',(0.0372202257514,0.0389,-0.00734804726805593));
#568=CARTESIAN_POINT('',(0.0372202257514,0.0389,-0.00881471393472259));
#569=CARTESIAN_POINT('',(0.0372202257514,0.0389,-0.0102813806013893));
#570=CARTESIAN_POINT('',(0.0372202257514,0.0389,-0.0117480472680559));
#571=CARTESIAN_POINT('',(0.036,0.0389,-0.0117480472680559));
#572=CARTESIAN_POINT('',(0.03525,0.0389,-0.0117480472680559));
#573=CARTESIAN_POINT('',(0.0354358403571163,0.0389,-0.0117480472680559));
#574=CARTESIAN_POINT('',(0.0355698757567329,0.0388481950425003,-0.0117480472680559));
#575=CARTESIAN_POINT('',(0.0356521061988499,0.038744585127501,-0.0117480472680559));
#576=CARTESIAN_POINT('',(0.03525,0.0389,-0.0117480472680559));
#577=CARTESIAN_POINT('',(0.0356521061988498,0.038744585127501,-0.0117480472680559));
#578=CARTESIAN_POINT('',(0.0358414305170768,0.0388857702110403,-0.0117480472680596));
#579=CARTESIAN_POINT('',(0.035847924433336,0.0386501330883506,-0.0117480472680559));
#580=CARTESIAN_POINT('',(0.036,0.03865,-0.0117480472680559));
#581=CARTESIAN_POINT('',(0.0361520755666614,0.0386501330883695,-0.0117480472680559));
#582=CARTESIAN_POINT('',(0.036158569482966,0.038885770211126,-0.0117480472680569));
#583=CARTESIAN_POINT('',(0.0363478938011492,0.0387445851274998,-0.0117480472680559));
#584=CARTESIAN_POINT('',(0.0363478938011492,0.0387445851274998,-0.0117480472680559));
#585=CARTESIAN_POINT('',(0.036430124243266,0.0388481950424999,-0.0117480472680559));
#586=CARTESIAN_POINT('',(0.036564159642883,0.0389,-0.0117480472680559));
#587=CARTESIAN_POINT('',(0.03675,0.0389,-0.0117480472680559));
#588=CARTESIAN_POINT('',(0.0372202257514,0.0389,-0.0117480472680559));
#589=CARTESIAN_POINT('',(0.0375535590847333,0.0389,-0.0117480472680559));
#590=CARTESIAN_POINT('',(0.0377202257514,0.0387333333333333,-0.0117480472680559));
#591=CARTESIAN_POINT('',(0.0377202257514,0.0384,-0.0117480472680559));
#592=CARTESIAN_POINT('',(0.0377202257514,0.0384,-0.0117480472680559));
#593=CARTESIAN_POINT('',(0.0377202257514,0.0389,-0.0117480472680559));
#594=CARTESIAN_POINT('',(0.0377202257514,0.0359,-0.0117480472680559));
#595=CARTESIAN_POINT('',(0.036,0.0359,-0.0117480472680559));
#596=CARTESIAN_POINT('',(0.0342797742486,0.0359,-0.0117480472680559));
#597=CARTESIAN_POINT('',(0.0342797742486,0.0389,-0.0117480472680559));
#598=CARTESIAN_POINT('',(0.0342797742486,0.0384,-0.0117480472680559));
#599=CARTESIAN_POINT('',(0.0342797742486,0.0384,-0.0117480472680559));
#600=CARTESIAN_POINT('',(0.0342797742486,0.0387333333333333,-0.0117480472680559));
#601=CARTESIAN_POINT('',(0.0344464409152667,0.0389,-0.0117480472680559));
#602=CARTESIAN_POINT('',(0.0347797742486,0.0389,-0.0117480472680559));
#603=CARTESIAN_POINT('',(0.0347797742486,0.0389,-0.0117480472680559));
#604=CARTESIAN_POINT('',(0.036,0.0389,-0.0117480472680559));
#605=CARTESIAN_POINT('',(0.0358,0.0359,-0.00694804726805593));
#606=CARTESIAN_POINT('',(0.0358,0.0342,-0.00694804726805593));
#607=CARTESIAN_POINT('',(0.029,0.0342,-0.00694804726805593));
#608=CARTESIAN_POINT('',(0.0426,0.0342,-0.00694804726805593));
#609=CARTESIAN_POINT('',(0.0426,0.0359,-0.00694804726805593));
#610=CARTESIAN_POINT('',(0.0426,0.0359,-0.00694804726805593));
#611=CARTESIAN_POINT('',(0.0358,0.0359,-0.00694804726805593));
#612=CARTESIAN_POINT('',(0.029,0.0359,-0.00694804726805593));
#613=CARTESIAN_POINT('',(0.029,0.0359,-0.00694804726805593));
#614=CARTESIAN_POINT('',(0.029,0.0359,-0.00954804726805593));
#615=CARTESIAN_POINT('',(0.029,0.0342,-0.00954804726805593));
#616=CARTESIAN_POINT('',(0.029,0.0342,-0.0121480472680559));
#617=CARTESIAN_POINT('',(0.029,0.0359,-0.00954804726805593));
#618=CARTESIAN_POINT('',(0.029,0.0359,-0.0121480472680559));
#619=CARTESIAN_POINT('',(0.029,0.0359,-0.0121480472680559));
#620=CARTESIAN_POINT('',(0.0358,0.0359,-0.0121480472680559));
#621=CARTESIAN_POINT('',(0.0358,0.0342,-0.0121480472680559));
#622=CARTESIAN_POINT('',(0.0426,0.0342,-0.0121480472680559));
#623=CARTESIAN_POINT('',(0.0358,0.0359,-0.0121480472680559));
#624=CARTESIAN_POINT('',(0.0426,0.0359,-0.0121480472680559));
#625=CARTESIAN_POINT('',(0.0426,0.0359,-0.0121480472680559));
#626=CARTESIAN_POINT('',(0.0426,0.0359,-0.00954804726805593));
#627=CARTESIAN_POINT('',(0.0426,0.0342,-0.00954804726805593));
#628=CARTESIAN_POINT('',(0.0426,0.0359,-0.00954804726805593));
#629=CARTESIAN_POINT('',(1.23542480593479E-17,0.0359,-0.009));
#630=CARTESIAN_POINT('',(0.0342797742486,0.0359,-0.00954804726805592));
#631=CARTESIAN_POINT('',(0.0342797742486,0.0359,-0.00734804726805593));
#632=CARTESIAN_POINT('',(0.0377202257514,0.0359,-0.00954804726805592));
#633=CARTESIAN_POINT('',(0.0377202257514,0.0359,-0.00734804726805593));
#634=CARTESIAN_POINT('',(0.036,0.0359,-0.00734804726805593));
#635=CARTESIAN_POINT('',(1.20978106759426E-17,0.0342,-0.009));
#636=CARTESIAN_POINT('',(0.034075,0.0342,-0.00954804726805593));
#637=CARTESIAN_POINT('',(0.034075,0.0342,-0.0103980472680559));
#638=CARTESIAN_POINT('',(0.034075,0.0342,-0.00869804726805593));
#639=CARTESIAN_POINT('',(0.032075,0.0342,-0.0103980472680559));
#640=CARTESIAN_POINT('',(0.030075,0.0342,-0.0103980472680559));
#641=CARTESIAN_POINT('',(0.030075,0.0342,-0.00954804726805593));
#642=CARTESIAN_POINT('',(0.030075,0.0342,-0.00869804726805593));
#643=CARTESIAN_POINT('',(0.032075,0.0342,-0.00869804726805593));
#644=CARTESIAN_POINT('',(0.0342797742486,0.0389,-0.00954804726805592));
#645=CARTESIAN_POINT('',(0.0342797742486,0.0389,-0.00734804726805593));
#646=CARTESIAN_POINT('',(0.0342797742486,0.0384,-0.00734804726805593));
#647=CARTESIAN_POINT('',(0.0342797742486,0.0384,-0.00734804726805592));
#648=CARTESIAN_POINT('',(0.0342797742486,0.0384,-0.00881471393472259));
#649=CARTESIAN_POINT('',(0.0342797742486,0.0384,-0.0102813806013893));
#650=CARTESIAN_POINT('',(0.0342797742486,0.0384,-0.0117480472680559));
#651=CARTESIAN_POINT('',(0.036,0.0389,-0.00734804726805593));
#652=CARTESIAN_POINT('',(0.03675,0.0389,-0.00734804726805593));
#653=CARTESIAN_POINT('',(0.0365641596428837,0.0389,-0.00734804726805593));
#654=CARTESIAN_POINT('',(0.0364301242432671,0.0388481950425003,-0.00734804726805593));
#655=CARTESIAN_POINT('',(0.0363478938011501,0.038744585127501,-0.00734804726805593));
#656=CARTESIAN_POINT('',(0.0363478938011502,0.038744585127501,-0.00734804726805593));
#657=CARTESIAN_POINT('',(0.0361585694829187,0.0388857702110929,-0.00734804726805408));
#658=CARTESIAN_POINT('',(0.0361520755666642,0.0386501330883523,-0.00734804726805592));
#659=CARTESIAN_POINT('',(0.036,0.03865,-0.00734804726805593));
#660=CARTESIAN_POINT('',(0.0358479244333416,0.0386501330883852,-0.00734804726805592));
#661=CARTESIAN_POINT('',(0.0358414305169841,0.0388857702111069,-0.00734804726805408));
#662=CARTESIAN_POINT('',(0.0356521061988501,0.0387445851275007,-0.00734804726805593));
#663=CARTESIAN_POINT('',(0.0356521061988501,0.0387445851275007,-0.00734804726805593));
#664=CARTESIAN_POINT('',(0.0355698757567332,0.0388481950425002,-0.00734804726805593));
#665=CARTESIAN_POINT('',(0.0354358403571165,0.0389,-0.00734804726805593));
#666=CARTESIAN_POINT('',(0.03525,0.0389,-0.00734804726805593));
#667=CARTESIAN_POINT('',(0.03525,0.0389,-0.00734804726805593));
#668=CARTESIAN_POINT('',(0.036,0.0389,-0.00734804726805593));
#669=CARTESIAN_POINT('',(0.0347797742486,0.0389,-0.00734804726805593));
#670=CARTESIAN_POINT('',(0.0347797742486,0.0389,-0.00734804726805593));
#671=CARTESIAN_POINT('',(0.0344464409152667,0.0389,-0.00734804726805593));
#672=CARTESIAN_POINT('',(0.0342797742486,0.0387333333333333,-0.00734804726805593));
#673=CARTESIAN_POINT('',(0.0342797742486,0.0384,-0.00734804726805593));
#674=CARTESIAN_POINT('',(0.0377202257514,0.0389,-0.00734804726805593));
#675=CARTESIAN_POINT('',(0.0377202257514,0.0384,-0.00734804726805593));
#676=CARTESIAN_POINT('',(0.0377202257514,0.0384,-0.00734804726805593));
#677=CARTESIAN_POINT('',(0.0377202257514,0.0387333333333333,-0.00734804726805593));
#678=CARTESIAN_POINT('',(0.0375535590847333,0.0389,-0.00734804726805593));
#679=CARTESIAN_POINT('',(0.0372202257514,0.0389,-0.00734804726805593));
#680=CARTESIAN_POINT('',(0.0377202257514,0.0389,-0.00954804726805592));
#681=CARTESIAN_POINT('',(0.0377202257514,0.0384,-0.0117480472680559));
#682=CARTESIAN_POINT('',(0.0377202257514,0.0384,-0.0102813806013893));
#683=CARTESIAN_POINT('',(0.0377202257514,0.0384,-0.00881471393472259));
#684=CARTESIAN_POINT('',(0.0377202257514,0.0384,-0.00734804726805592));
#685=CARTESIAN_POINT('',(0.0358,0.0389,-0.00954804726805593));
#686=CARTESIAN_POINT('',(0.03525,0.0389,-0.00734804726805593));
#687=CARTESIAN_POINT('',(0.03525,0.0389,-0.00881471393472259));
#688=CARTESIAN_POINT('',(0.03525,0.0389,-0.0102813806013893));
#689=CARTESIAN_POINT('',(0.03525,0.0389,-0.0117480472680559));
#690=CARTESIAN_POINT('',(0.0347797742486,0.0389,-0.0117480472680559));
#691=CARTESIAN_POINT('',(0.0347797742486,0.0389,-0.0102813806013893));
#692=CARTESIAN_POINT('',(0.0347797742486,0.0389,-0.00881471393472259));
#693=CARTESIAN_POINT('',(0.0347797742486,0.0389,-0.00734804726805593));
#694=CARTESIAN_POINT('',(0.036,0.03865,-0.00954804726805591));
#695=CARTESIAN_POINT('',(0.0361520718988864,0.03865,-0.00734804726805591));
#696=CARTESIAN_POINT('',(0.0361520718988853,0.03865,-0.00881471393472258));
#697=CARTESIAN_POINT('',(0.0361520718988842,0.03865,-0.0102813806013892));
#698=CARTESIAN_POINT('',(0.0361520718988831,0.03865,-0.0117480472680559));
#699=CARTESIAN_POINT('',(0.0358479281011138,0.03865,-0.0117480472680559));
#700=CARTESIAN_POINT('',(0.035847928101116,0.03865,-0.0102813806013892));
#701=CARTESIAN_POINT('',(0.0358479281011182,0.03865,-0.00881471393472258));
#702=CARTESIAN_POINT('',(0.0358479281011204,0.03865,-0.00734804726805591));
#703=CARTESIAN_POINT('',(0.03675,0.0389,-0.0117480472680559));
#704=CARTESIAN_POINT('',(0.03675,0.0389,-0.00734804726805593));
#705=CARTESIAN_POINT('',(0.036564159642883,0.0389,-0.0117480472680559));
#706=CARTESIAN_POINT('',(0.036564159642883,0.0389,-0.00734804726805592));
#707=CARTESIAN_POINT('',(0.0364301242432661,0.0388481950424999,-0.0117480472680559));
#708=CARTESIAN_POINT('',(0.0364301242432661,0.0388481950424999,-0.00734804726805591));
#709=CARTESIAN_POINT('',(0.0363478938011492,0.0387445851274998,-0.0117480472680559));
#710=CARTESIAN_POINT('',(0.0363478938011492,0.0387445851274998,-0.00734804726805592));
#711=CARTESIAN_POINT('',(0.0363474305019667,0.0387449306249582,-0.00734804726805593));
#712=CARTESIAN_POINT('',(0.0363474305019713,0.0387449306249542,-0.00881471393472259));
#713=CARTESIAN_POINT('',(0.0363474305019759,0.0387449306249502,-0.0102813806013893));
#714=CARTESIAN_POINT('',(0.0363474305019804,0.0387449306249462,-0.0117480472680559));
#715=CARTESIAN_POINT('',(0.03525,0.0389,-0.00734804726805592));
#716=CARTESIAN_POINT('',(0.03525,0.0389,-0.0117480472680559));
#717=CARTESIAN_POINT('',(0.0354358403571164,0.0389,-0.00734804726805593));
#718=CARTESIAN_POINT('',(0.0354358403571164,0.0389,-0.0117480472680559));
#719=CARTESIAN_POINT('',(0.0355698757567331,0.0388481950425002,-0.00734804726805593));
#720=CARTESIAN_POINT('',(0.0355698757567331,0.0388481950425002,-0.0117480472680559));
#721=CARTESIAN_POINT('',(0.0356521061988501,0.0387445851275007,-0.00734804726805593));
#722=CARTESIAN_POINT('',(0.0356521061988501,0.0387445851275007,-0.0117480472680559));
#723=CARTESIAN_POINT('',(0.0356525694980445,0.0387449306249665,-0.0117480472680559));
#724=CARTESIAN_POINT('',(0.0356525694980353,0.0387449306249596,-0.0102813806013893));
#725=CARTESIAN_POINT('',(0.0356525694980261,0.0387449306249527,-0.00881471393472259));
#726=CARTESIAN_POINT('',(0.0356525694980169,0.0387449306249458,-0.00734804726805592));
#727=CARTESIAN_POINT('',(0.0377202257514,0.0384,-0.0117480472680559));
#728=CARTESIAN_POINT('',(0.0377202257514,0.0384,-0.00734804726805592));
#729=CARTESIAN_POINT('',(0.0377202257514,0.0387333333333333,-0.0117480472680559));
#730=CARTESIAN_POINT('',(0.0377202257514,0.0387333333333333,-0.0073480472680559));
#731=CARTESIAN_POINT('',(0.0375535590847333,0.0389,-0.0117480472680559));
#732=CARTESIAN_POINT('',(0.0375535590847333,0.0389,-0.0073480472680559));
#733=CARTESIAN_POINT('',(0.0372202257514,0.0389,-0.0117480472680559));
#734=CARTESIAN_POINT('',(0.0372202257514,0.0389,-0.00734804726805592));
#735=CARTESIAN_POINT('',(0.0342797742486,0.0384,-0.00734804726805592));
#736=CARTESIAN_POINT('',(0.0342797742486,0.0384,-0.0117480472680559));
#737=CARTESIAN_POINT('',(0.0342797742486,0.0387333333333333,-0.00734804726805592));
#738=CARTESIAN_POINT('',(0.0342797742486,0.0387333333333333,-0.0117480472680559));
#739=CARTESIAN_POINT('',(0.0344464409152667,0.0389,-0.00734804726805592));
#740=CARTESIAN_POINT('',(0.0344464409152667,0.0389,-0.0117480472680559));
#741=CARTESIAN_POINT('',(0.0347797742486,0.0389,-0.00734804726805592));
#742=CARTESIAN_POINT('',(0.0347797742486,0.0389,-0.0117480472680559));
#743=CARTESIAN_POINT('',(0.036158569482958,0.0388857702111204,-0.0110000472680563));
#744=CARTESIAN_POINT('',(0.0358414305169998,0.0388857702110956,-0.00809604726805527));
#745=CARTESIAN_POINT('',(1.23240789554178E-17,0.0357,-0.009));
#746=CARTESIAN_POINT('',(0.030075,0.0357,-0.00954804726805593));
#747=CARTESIAN_POINT('',(0.030075,0.0357,-0.00869804726805593));
#748=CARTESIAN_POINT('',(0.030075,0.0357,-0.0103980472680559));
#749=CARTESIAN_POINT('',(0.032075,0.0357,-0.0103980472680559));
#750=CARTESIAN_POINT('',(0.034075,0.0357,-0.0103980472680559));
#751=CARTESIAN_POINT('',(0.034075,0.0357,-0.00954804726805593));
#752=CARTESIAN_POINT('',(0.034075,0.0357,-0.00869804726805593));
#753=CARTESIAN_POINT('',(0.032075,0.0357,-0.00869804726805593));
#754=CARTESIAN_POINT('',(0.030075,0.293817621135331,-0.00954804726805593));
#755=CARTESIAN_POINT('',(0.030075,0.293817621135331,-0.00869804726805593));
#756=CARTESIAN_POINT('',(0.030075,0.293817621135331,-0.0103980472680559));
#757=CARTESIAN_POINT('',(0.032075,0.293817621135331,-0.00869804726805593));
#758=CARTESIAN_POINT('',(0.034075,0.293817621135331,-0.00869804726805593));
#759=CARTESIAN_POINT('',(0.032075,0.293817621135331,-0.0103980472680559));
#760=CARTESIAN_POINT('',(0.034075,0.293817621135331,-0.0103980472680559));
#761=CARTESIAN_POINT('',(0.034075,0.293817621135331,-0.00954804726805593));
#762=MECHANICAL_DESIGN_GEOMETRIC_PRESENTATION_REPRESENTATION('',(#431),
#763);
#763=(
GEOMETRIC_REPRESENTATION_CONTEXT(3)
GLOBAL_UNCERTAINTY_ASSIGNED_CONTEXT((#764))
GLOBAL_UNIT_ASSIGNED_CONTEXT((#767,#766,#765))
REPRESENTATION_CONTEXT('Part 2','TOP_LEVEL_ASSEMBLY_PART')
);
#764=UNCERTAINTY_MEASURE_WITH_UNIT(LENGTH_MEASURE(2.02E-5),#767,
'DISTANCE_ACCURACY_VALUE','Maximum Tolerance applied to model');
#765=(
NAMED_UNIT(*)
SI_UNIT($,.STERADIAN.)
SOLID_ANGLE_UNIT()
);
#766=(
NAMED_UNIT(*)
PLANE_ANGLE_UNIT()
SI_UNIT($,.RADIAN.)
);
#767=(
LENGTH_UNIT()
NAMED_UNIT(*)
SI_UNIT($,.METRE.)
);
#768=PRODUCT_DEFINITION_SHAPE('','',#769);
#769=PRODUCT_DEFINITION('','',#771,#770);
#770=PRODUCT_DEFINITION_CONTEXT('',#777,'design');
#771=PRODUCT_DEFINITION_FORMATION_WITH_SPECIFIED_SOURCE('','',#773,
 .NOT_KNOWN.);
#772=PRODUCT_RELATED_PRODUCT_CATEGORY('','',(#773));
#773=PRODUCT('Part 2','Part 2','Part 2',(#775));
#774=PRODUCT_CATEGORY('','');
#775=PRODUCT_CONTEXT('',#777,'mechanical');
#776=APPLICATION_PROTOCOL_DEFINITION('international standard',
'ap242_managed_model_based_3d_engineering',2020,#777);
#777=APPLICATION_CONTEXT('managed model based 3d engineering');
ENDSEC;
END-ISO-10303-21;
