ISO-10303-21;
HEADER;
/* Generated by software containing ST-Developer
 * from STEP Tools, Inc. (www.steptools.com) 
 */
/* OPTION: using custom renumber hook */

FILE_DESCRIPTION(
/* description */ ('STEP AP242 Edition 2',
'CAx-IF Rec.Pracs.---Representation and Presentation of Product Manufa
cturing Information (PMI)---4.0---2014-10-13',
'CAx-IF Rec.Pracs.---3D Tessellated Geometry---0.4---2014-09-14','2;1',
'CAx-IF Rec.Pracs.---User Defined Attributes---1.5---2016-08-15'),
/* implementation_level */ '2;1');

FILE_NAME(
/* name */ 'RearButton - RearRButton',
/* time_stamp */ '2026-09-23T14:42:32Z',
/* author */ (''),
/* organization */ (''),
/* preprocessor_version */ 'ST-DEVELOPER v20',
/* originating_system */ 'ONSHAPE BY PTC INC, 1.221',
/* authorisation */ '  ');

FILE_SCHEMA (('AP242_MANAGED_MODEL_BASED_3D_ENGINEERING_MIM_LF { 1 0 10303 442 3 1 4 }'));
ENDSEC;

DATA;
#10=SHAPE_REPRESENTATION_RELATIONSHIP('','',#678,#11);
#11=ADVANCED_BREP_SHAPE_REPRESENTATION('',(#676),#1116);
#12=CONICAL_SURFACE('',#715,0.0009,0.380506377112365);
#13=CYLINDRICAL_SURFACE('',#698,0.0028);
#14=CYLINDRICAL_SURFACE('',#708,0.0019);
#15=CYLINDRICAL_SURFACE('',#717,0.0012);
#16=CYLINDRICAL_SURFACE('',#723,0.0009);
#17=B_SPLINE_SURFACE_WITH_KNOTS('',3,1,((#1029,#1030),(#1031,#1032),(#1033,
#1034),(#1035,#1036)),.SURF_OF_LINEAR_EXTRUSION.,.F.,.F.,.F.,(4,4),(2,2),
(0.165616363203054,0.455683265649464),(0.,1.),.PIECEWISE_BEZIER_KNOTS.);
#18=B_SPLINE_CURVE_WITH_KNOTS('',3,(#929,#930,#931,#932,#933,#934),
 .UNSPECIFIED.,.F.,.F.,(4,1,1,4),(0.165616363203054,0.25,0.375,0.455683265649464),
 .UNSPECIFIED.);
#19=B_SPLINE_CURVE_WITH_KNOTS('',3,(#959,#960,#961,#962,#963,#964),
 .UNSPECIFIED.,.F.,.F.,(4,1,1,4),(0.165616363203054,0.25,0.375,0.455683265649464),
 .UNSPECIFIED.);
#20=B_SPLINE_CURVE_WITH_KNOTS('',3,(#1072,#1073,#1074,#1075,#1076,#1077,
#1078),.UNSPECIFIED.,.F.,.F.,(4,1,1,1,4),(0.,0.000440242777375334,0.000880485554750668,
0.001320728332126,0.00176097110950134),.UNSPECIFIED.);
#21=B_SPLINE_CURVE_WITH_KNOTS('',3,(#1085,#1086,#1087,#1088),
 .UNSPECIFIED.,.F.,.F.,(4,4),(0.,0.000189736659610103),.UNSPECIFIED.);
#22=B_SPLINE_CURVE_WITH_KNOTS('',3,(#1093,#1094,#1095,#1096),
 .UNSPECIFIED.,.F.,.F.,(4,4),(0.,0.000189736659610105),.UNSPECIFIED.);
#23=CIRCLE('',#681,0.0013);
#24=CIRCLE('',#683,0.0013);
#25=CIRCLE('',#699,0.0028);
#26=CIRCLE('',#700,0.0028);
#27=CIRCLE('',#703,0.0019);
#28=CIRCLE('',#706,0.0019);
#29=CIRCLE('',#710,0.0013);
#30=CIRCLE('',#716,0.0009);
#31=CIRCLE('',#718,0.0012);
#32=CIRCLE('',#719,0.0012);
#33=CIRCLE('',#721,0.0009);
#34=CIRCLE('',#724,0.0009);
#35=ORIENTED_EDGE('',*,*,#213,.F.);
#36=ORIENTED_EDGE('',*,*,#214,.F.);
#37=ORIENTED_EDGE('',*,*,#215,.F.);
#38=ORIENTED_EDGE('',*,*,#216,.F.);
#39=ORIENTED_EDGE('',*,*,#217,.F.);
#40=ORIENTED_EDGE('',*,*,#218,.F.);
#41=ORIENTED_EDGE('',*,*,#219,.F.);
#42=ORIENTED_EDGE('',*,*,#220,.F.);
#43=ORIENTED_EDGE('',*,*,#221,.F.);
#44=ORIENTED_EDGE('',*,*,#222,.F.);
#45=ORIENTED_EDGE('',*,*,#223,.T.);
#46=ORIENTED_EDGE('',*,*,#224,.F.);
#47=ORIENTED_EDGE('',*,*,#225,.T.);
#48=ORIENTED_EDGE('',*,*,#226,.F.);
#49=ORIENTED_EDGE('',*,*,#227,.T.);
#50=ORIENTED_EDGE('',*,*,#228,.F.);
#51=ORIENTED_EDGE('',*,*,#229,.F.);
#52=ORIENTED_EDGE('',*,*,#230,.F.);
#53=ORIENTED_EDGE('',*,*,#231,.F.);
#54=ORIENTED_EDGE('',*,*,#232,.F.);
#55=ORIENTED_EDGE('',*,*,#233,.T.);
#56=ORIENTED_EDGE('',*,*,#234,.T.);
#57=ORIENTED_EDGE('',*,*,#235,.T.);
#58=ORIENTED_EDGE('',*,*,#236,.T.);
#59=ORIENTED_EDGE('',*,*,#237,.F.);
#60=ORIENTED_EDGE('',*,*,#238,.T.);
#61=ORIENTED_EDGE('',*,*,#239,.F.);
#62=ORIENTED_EDGE('',*,*,#240,.T.);
#63=ORIENTED_EDGE('',*,*,#241,.F.);
#64=ORIENTED_EDGE('',*,*,#242,.F.);
#65=ORIENTED_EDGE('',*,*,#243,.T.);
#66=ORIENTED_EDGE('',*,*,#244,.T.);
#67=ORIENTED_EDGE('',*,*,#245,.T.);
#68=ORIENTED_EDGE('',*,*,#246,.F.);
#69=ORIENTED_EDGE('',*,*,#247,.T.);
#70=ORIENTED_EDGE('',*,*,#248,.F.);
#71=ORIENTED_EDGE('',*,*,#249,.T.);
#72=ORIENTED_EDGE('',*,*,#250,.F.);
#73=ORIENTED_EDGE('',*,*,#223,.F.);
#74=ORIENTED_EDGE('',*,*,#251,.F.);
#75=ORIENTED_EDGE('',*,*,#241,.T.);
#76=ORIENTED_EDGE('',*,*,#252,.F.);
#77=ORIENTED_EDGE('',*,*,#221,.T.);
#78=ORIENTED_EDGE('',*,*,#253,.T.);
#79=ORIENTED_EDGE('',*,*,#243,.F.);
#80=ORIENTED_EDGE('',*,*,#254,.F.);
#81=ORIENTED_EDGE('',*,*,#244,.F.);
#82=ORIENTED_EDGE('',*,*,#253,.F.);
#83=ORIENTED_EDGE('',*,*,#220,.T.);
#84=ORIENTED_EDGE('',*,*,#255,.T.);
#85=ORIENTED_EDGE('',*,*,#256,.T.);
#86=ORIENTED_EDGE('',*,*,#257,.F.);
#87=ORIENTED_EDGE('',*,*,#245,.F.);
#88=ORIENTED_EDGE('',*,*,#255,.F.);
#89=ORIENTED_EDGE('',*,*,#219,.T.);
#90=ORIENTED_EDGE('',*,*,#258,.F.);
#91=ORIENTED_EDGE('',*,*,#259,.T.);
#92=ORIENTED_EDGE('',*,*,#260,.F.);
#93=ORIENTED_EDGE('',*,*,#256,.F.);
#94=ORIENTED_EDGE('',*,*,#261,.F.);
#95=ORIENTED_EDGE('',*,*,#231,.T.);
#96=ORIENTED_EDGE('',*,*,#262,.T.);
#97=ORIENTED_EDGE('',*,*,#233,.F.);
#98=ORIENTED_EDGE('',*,*,#263,.F.);
#99=ORIENTED_EDGE('',*,*,#259,.F.);
#100=ORIENTED_EDGE('',*,*,#264,.F.);
#101=ORIENTED_EDGE('',*,*,#265,.F.);
#102=ORIENTED_EDGE('',*,*,#266,.F.);
#103=ORIENTED_EDGE('',*,*,#267,.F.);
#104=ORIENTED_EDGE('',*,*,#268,.F.);
#105=ORIENTED_EDGE('',*,*,#234,.F.);
#106=ORIENTED_EDGE('',*,*,#262,.F.);
#107=ORIENTED_EDGE('',*,*,#230,.T.);
#108=ORIENTED_EDGE('',*,*,#269,.T.);
#109=ORIENTED_EDGE('',*,*,#235,.F.);
#110=ORIENTED_EDGE('',*,*,#269,.F.);
#111=ORIENTED_EDGE('',*,*,#229,.T.);
#112=ORIENTED_EDGE('',*,*,#270,.T.);
#113=ORIENTED_EDGE('',*,*,#236,.F.);
#114=ORIENTED_EDGE('',*,*,#270,.F.);
#115=ORIENTED_EDGE('',*,*,#228,.T.);
#116=ORIENTED_EDGE('',*,*,#271,.T.);
#117=ORIENTED_EDGE('',*,*,#237,.T.);
#118=ORIENTED_EDGE('',*,*,#271,.F.);
#119=ORIENTED_EDGE('',*,*,#227,.F.);
#120=ORIENTED_EDGE('',*,*,#272,.T.);
#121=ORIENTED_EDGE('',*,*,#238,.F.);
#122=ORIENTED_EDGE('',*,*,#272,.F.);
#123=ORIENTED_EDGE('',*,*,#226,.T.);
#124=ORIENTED_EDGE('',*,*,#273,.T.);
#125=ORIENTED_EDGE('',*,*,#239,.T.);
#126=ORIENTED_EDGE('',*,*,#273,.F.);
#127=ORIENTED_EDGE('',*,*,#225,.F.);
#128=ORIENTED_EDGE('',*,*,#274,.T.);
#129=ORIENTED_EDGE('',*,*,#275,.T.);
#130=ORIENTED_EDGE('',*,*,#276,.F.);
#131=ORIENTED_EDGE('',*,*,#274,.F.);
#132=ORIENTED_EDGE('',*,*,#277,.F.);
#133=ORIENTED_EDGE('',*,*,#278,.T.);
#134=ORIENTED_EDGE('',*,*,#279,.T.);
#135=ORIENTED_EDGE('',*,*,#280,.F.);
#136=ORIENTED_EDGE('',*,*,#279,.F.);
#137=ORIENTED_EDGE('',*,*,#281,.F.);
#138=ORIENTED_EDGE('',*,*,#248,.T.);
#139=ORIENTED_EDGE('',*,*,#222,.T.);
#140=ORIENTED_EDGE('',*,*,#254,.T.);
#141=ORIENTED_EDGE('',*,*,#242,.T.);
#142=ORIENTED_EDGE('',*,*,#251,.T.);
#143=ORIENTED_EDGE('',*,*,#282,.F.);
#144=ORIENTED_EDGE('',*,*,#249,.F.);
#145=ORIENTED_EDGE('',*,*,#281,.T.);
#146=ORIENTED_EDGE('',*,*,#278,.F.);
#147=ORIENTED_EDGE('',*,*,#283,.T.);
#148=ORIENTED_EDGE('',*,*,#224,.T.);
#149=ORIENTED_EDGE('',*,*,#250,.T.);
#150=ORIENTED_EDGE('',*,*,#283,.F.);
#151=ORIENTED_EDGE('',*,*,#277,.T.);
#152=ORIENTED_EDGE('',*,*,#284,.F.);
#153=ORIENTED_EDGE('',*,*,#247,.F.);
#154=ORIENTED_EDGE('',*,*,#285,.F.);
#155=ORIENTED_EDGE('',*,*,#275,.F.);
#156=ORIENTED_EDGE('',*,*,#280,.T.);
#157=ORIENTED_EDGE('',*,*,#285,.T.);
#158=ORIENTED_EDGE('',*,*,#252,.T.);
#159=ORIENTED_EDGE('',*,*,#240,.F.);
#160=ORIENTED_EDGE('',*,*,#276,.T.);
#161=ORIENTED_EDGE('',*,*,#284,.T.);
#162=ORIENTED_EDGE('',*,*,#282,.T.);
#163=ORIENTED_EDGE('',*,*,#286,.F.);
#164=ORIENTED_EDGE('',*,*,#265,.T.);
#165=ORIENTED_EDGE('',*,*,#287,.F.);
#166=ORIENTED_EDGE('',*,*,#288,.F.);
#167=ORIENTED_EDGE('',*,*,#216,.T.);
#168=ORIENTED_EDGE('',*,*,#289,.F.);
#169=ORIENTED_EDGE('',*,*,#214,.T.);
#170=ORIENTED_EDGE('',*,*,#290,.T.);
#171=ORIENTED_EDGE('',*,*,#291,.F.);
#172=ORIENTED_EDGE('',*,*,#292,.F.);
#173=ORIENTED_EDGE('',*,*,#286,.T.);
#174=ORIENTED_EDGE('',*,*,#293,.F.);
#175=ORIENTED_EDGE('',*,*,#217,.T.);
#176=ORIENTED_EDGE('',*,*,#292,.T.);
#177=ORIENTED_EDGE('',*,*,#294,.T.);
#178=ORIENTED_EDGE('',*,*,#266,.T.);
#179=ORIENTED_EDGE('',*,*,#294,.F.);
#180=ORIENTED_EDGE('',*,*,#291,.T.);
#181=ORIENTED_EDGE('',*,*,#295,.T.);
#182=ORIENTED_EDGE('',*,*,#267,.T.);
#183=ORIENTED_EDGE('',*,*,#213,.T.);
#184=ORIENTED_EDGE('',*,*,#296,.F.);
#185=ORIENTED_EDGE('',*,*,#287,.T.);
#186=ORIENTED_EDGE('',*,*,#268,.T.);
#187=ORIENTED_EDGE('',*,*,#295,.F.);
#188=ORIENTED_EDGE('',*,*,#290,.F.);
#189=ORIENTED_EDGE('',*,*,#289,.T.);
#190=ORIENTED_EDGE('',*,*,#218,.T.);
#191=ORIENTED_EDGE('',*,*,#293,.T.);
#192=ORIENTED_EDGE('',*,*,#288,.T.);
#193=ORIENTED_EDGE('',*,*,#296,.T.);
#194=ORIENTED_EDGE('',*,*,#215,.T.);
#195=ORIENTED_EDGE('',*,*,#297,.T.);
#196=ORIENTED_EDGE('',*,*,#298,.T.);
#197=ORIENTED_EDGE('',*,*,#299,.F.);
#198=ORIENTED_EDGE('',*,*,#300,.T.);
#199=ORIENTED_EDGE('',*,*,#298,.F.);
#200=ORIENTED_EDGE('',*,*,#297,.F.);
#201=ORIENTED_EDGE('',*,*,#299,.T.);
#202=ORIENTED_EDGE('',*,*,#301,.T.);
#203=ORIENTED_EDGE('',*,*,#300,.F.);
#204=ORIENTED_EDGE('',*,*,#301,.F.);
#205=ORIENTED_EDGE('',*,*,#258,.T.);
#206=ORIENTED_EDGE('',*,*,#232,.T.);
#207=ORIENTED_EDGE('',*,*,#264,.T.);
#208=ORIENTED_EDGE('',*,*,#261,.T.);
#209=ORIENTED_EDGE('',*,*,#257,.T.);
#210=ORIENTED_EDGE('',*,*,#260,.T.);
#211=ORIENTED_EDGE('',*,*,#263,.T.);
#212=ORIENTED_EDGE('',*,*,#246,.T.);
#213=EDGE_CURVE('',#302,#303,#363,.T.);
#214=EDGE_CURVE('',#304,#302,#364,.T.);
#215=EDGE_CURVE('',#303,#304,#23,.F.);
#216=EDGE_CURVE('',#305,#306,#365,.T.);
#217=EDGE_CURVE('',#307,#305,#366,.F.);
#218=EDGE_CURVE('',#306,#307,#24,.F.);
#219=EDGE_CURVE('',#308,#309,#367,.T.);
#220=EDGE_CURVE('',#310,#308,#368,.T.);
#221=EDGE_CURVE('',#311,#310,#369,.T.);
#222=EDGE_CURVE('',#312,#311,#370,.T.);
#223=EDGE_CURVE('',#312,#313,#371,.T.);
#224=EDGE_CURVE('',#314,#313,#372,.T.);
#225=EDGE_CURVE('',#314,#315,#373,.T.);
#226=EDGE_CURVE('',#316,#315,#18,.T.);
#227=EDGE_CURVE('',#316,#317,#374,.T.);
#228=EDGE_CURVE('',#318,#317,#375,.T.);
#229=EDGE_CURVE('',#319,#318,#376,.T.);
#230=EDGE_CURVE('',#320,#319,#377,.T.);
#231=EDGE_CURVE('',#321,#320,#378,.T.);
#232=EDGE_CURVE('',#309,#321,#379,.T.);
#233=EDGE_CURVE('',#322,#323,#380,.T.);
#234=EDGE_CURVE('',#323,#324,#381,.T.);
#235=EDGE_CURVE('',#324,#325,#382,.T.);
#236=EDGE_CURVE('',#325,#326,#383,.T.);
#237=EDGE_CURVE('',#327,#326,#384,.T.);
#238=EDGE_CURVE('',#327,#328,#19,.T.);
#239=EDGE_CURVE('',#329,#328,#385,.T.);
#240=EDGE_CURVE('',#329,#330,#386,.T.);
#241=EDGE_CURVE('',#331,#330,#387,.T.);
#242=EDGE_CURVE('',#332,#331,#388,.T.);
#243=EDGE_CURVE('',#332,#333,#389,.T.);
#244=EDGE_CURVE('',#333,#334,#390,.T.);
#245=EDGE_CURVE('',#334,#335,#391,.T.);
#246=EDGE_CURVE('',#322,#335,#392,.T.);
#247=EDGE_CURVE('',#336,#337,#393,.T.);
#248=EDGE_CURVE('',#338,#337,#394,.T.);
#249=EDGE_CURVE('',#338,#339,#395,.T.);
#250=EDGE_CURVE('',#313,#339,#396,.T.);
#251=EDGE_CURVE('',#331,#312,#397,.T.);
#252=EDGE_CURVE('',#336,#330,#398,.T.);
#253=EDGE_CURVE('',#310,#333,#399,.T.);
#254=EDGE_CURVE('',#311,#332,#400,.T.);
#255=EDGE_CURVE('',#308,#334,#401,.T.);
#256=EDGE_CURVE('',#340,#341,#402,.T.);
#257=EDGE_CURVE('',#335,#341,#403,.F.);
#258=EDGE_CURVE('',#340,#309,#404,.T.);
#259=EDGE_CURVE('',#342,#343,#405,.T.);
#260=EDGE_CURVE('',#341,#343,#406,.T.);
#261=EDGE_CURVE('',#342,#340,#407,.T.);
#262=EDGE_CURVE('',#320,#323,#408,.T.);
#263=EDGE_CURVE('',#343,#322,#409,.F.);
#264=EDGE_CURVE('',#321,#342,#410,.T.);
#265=EDGE_CURVE('',#344,#345,#411,.T.);
#266=EDGE_CURVE('',#346,#344,#412,.T.);
#267=EDGE_CURVE('',#347,#346,#413,.T.);
#268=EDGE_CURVE('',#345,#347,#414,.T.);
#269=EDGE_CURVE('',#319,#324,#415,.T.);
#270=EDGE_CURVE('',#318,#325,#416,.T.);
#271=EDGE_CURVE('',#317,#326,#417,.T.);
#272=EDGE_CURVE('',#316,#327,#418,.T.);
#273=EDGE_CURVE('',#315,#328,#419,.T.);
#274=EDGE_CURVE('',#314,#329,#420,.T.);
#275=EDGE_CURVE('',#348,#349,#421,.T.);
#276=EDGE_CURVE('',#329,#349,#422,.T.);
#277=EDGE_CURVE('',#350,#314,#423,.T.);
#278=EDGE_CURVE('',#350,#351,#424,.T.);
#279=EDGE_CURVE('',#351,#348,#425,.T.);
#280=EDGE_CURVE('',#348,#337,#25,.T.);
#281=EDGE_CURVE('',#338,#351,#26,.T.);
#282=EDGE_CURVE('',#352,#352,#27,.T.);
#283=EDGE_CURVE('',#350,#339,#426,.T.);
#284=EDGE_CURVE('',#353,#353,#28,.T.);
#285=EDGE_CURVE('',#349,#336,#427,.T.);
#286=EDGE_CURVE('',#344,#354,#428,.F.);
#287=EDGE_CURVE('',#355,#345,#429,.T.);
#288=EDGE_CURVE('',#354,#355,#29,.F.);
#289=EDGE_CURVE('',#304,#306,#20,.T.);
#290=EDGE_CURVE('',#302,#356,#430,.T.);
#291=EDGE_CURVE('',#357,#356,#431,.T.);
#292=EDGE_CURVE('',#305,#357,#432,.T.);
#293=EDGE_CURVE('',#307,#354,#21,.T.);
#294=EDGE_CURVE('',#357,#346,#433,.F.);
#295=EDGE_CURVE('',#356,#347,#434,.T.);
#296=EDGE_CURVE('',#355,#303,#22,.T.);
#297=EDGE_CURVE('',#358,#358,#30,.T.);
#298=EDGE_CURVE('',#359,#359,#31,.T.);
#299=EDGE_CURVE('',#360,#360,#32,.T.);
#300=EDGE_CURVE('',#361,#361,#33,.T.);
#301=EDGE_CURVE('',#362,#362,#34,.T.);
#302=VERTEX_POINT('',#901);
#303=VERTEX_POINT('',#902);
#304=VERTEX_POINT('',#904);
#305=VERTEX_POINT('',#908);
#306=VERTEX_POINT('',#909);
#307=VERTEX_POINT('',#911);
#308=VERTEX_POINT('',#915);
#309=VERTEX_POINT('',#916);
#310=VERTEX_POINT('',#918);
#311=VERTEX_POINT('',#920);
#312=VERTEX_POINT('',#922);
#313=VERTEX_POINT('',#924);
#314=VERTEX_POINT('',#926);
#315=VERTEX_POINT('',#928);
#316=VERTEX_POINT('',#935);
#317=VERTEX_POINT('',#937);
#318=VERTEX_POINT('',#939);
#319=VERTEX_POINT('',#941);
#320=VERTEX_POINT('',#943);
#321=VERTEX_POINT('',#945);
#322=VERTEX_POINT('',#949);
#323=VERTEX_POINT('',#950);
#324=VERTEX_POINT('',#952);
#325=VERTEX_POINT('',#954);
#326=VERTEX_POINT('',#956);
#327=VERTEX_POINT('',#958);
#328=VERTEX_POINT('',#965);
#329=VERTEX_POINT('',#967);
#330=VERTEX_POINT('',#969);
#331=VERTEX_POINT('',#971);
#332=VERTEX_POINT('',#973);
#333=VERTEX_POINT('',#975);
#334=VERTEX_POINT('',#977);
#335=VERTEX_POINT('',#979);
#336=VERTEX_POINT('',#983);
#337=VERTEX_POINT('',#984);
#338=VERTEX_POINT('',#986);
#339=VERTEX_POINT('',#988);
#340=VERTEX_POINT('',#999);
#341=VERTEX_POINT('',#1000);
#342=VERTEX_POINT('',#1005);
#343=VERTEX_POINT('',#1006);
#344=VERTEX_POINT('',#1015);
#345=VERTEX_POINT('',#1016);
#346=VERTEX_POINT('',#1018);
#347=VERTEX_POINT('',#1020);
#348=VERTEX_POINT('',#1042);
#349=VERTEX_POINT('',#1043);
#350=VERTEX_POINT('',#1046);
#351=VERTEX_POINT('',#1048);
#352=VERTEX_POINT('',#1056);
#353=VERTEX_POINT('',#1061);
#354=VERTEX_POINT('',#1067);
#355=VERTEX_POINT('',#1069);
#356=VERTEX_POINT('',#1080);
#357=VERTEX_POINT('',#1082);
#358=VERTEX_POINT('',#1099);
#359=VERTEX_POINT('',#1102);
#360=VERTEX_POINT('',#1104);
#361=VERTEX_POINT('',#1107);
#362=VERTEX_POINT('',#1111);
#363=LINE('',#900,#435);
#364=LINE('',#903,#436);
#365=LINE('',#907,#437);
#366=LINE('',#910,#438);
#367=LINE('',#914,#439);
#368=LINE('',#917,#440);
#369=LINE('',#919,#441);
#370=LINE('',#921,#442);
#371=LINE('',#923,#443);
#372=LINE('',#925,#444);
#373=LINE('',#927,#445);
#374=LINE('',#936,#446);
#375=LINE('',#938,#447);
#376=LINE('',#940,#448);
#377=LINE('',#942,#449);
#378=LINE('',#944,#450);
#379=LINE('',#946,#451);
#380=LINE('',#948,#452);
#381=LINE('',#951,#453);
#382=LINE('',#953,#454);
#383=LINE('',#955,#455);
#384=LINE('',#957,#456);
#385=LINE('',#966,#457);
#386=LINE('',#968,#458);
#387=LINE('',#970,#459);
#388=LINE('',#972,#460);
#389=LINE('',#974,#461);
#390=LINE('',#976,#462);
#391=LINE('',#978,#463);
#392=LINE('',#980,#464);
#393=LINE('',#982,#465);
#394=LINE('',#985,#466);
#395=LINE('',#987,#467);
#396=LINE('',#989,#468);
#397=LINE('',#990,#469);
#398=LINE('',#991,#470);
#399=LINE('',#993,#471);
#400=LINE('',#994,#472);
#401=LINE('',#996,#473);
#402=LINE('',#998,#474);
#403=LINE('',#1001,#475);
#404=LINE('',#1002,#476);
#405=LINE('',#1004,#477);
#406=LINE('',#1007,#478);
#407=LINE('',#1008,#479);
#408=LINE('',#1010,#480);
#409=LINE('',#1011,#481);
#410=LINE('',#1012,#482);
#411=LINE('',#1014,#483);
#412=LINE('',#1017,#484);
#413=LINE('',#1019,#485);
#414=LINE('',#1021,#486);
#415=LINE('',#1022,#487);
#416=LINE('',#1024,#488);
#417=LINE('',#1026,#489);
#418=LINE('',#1028,#490);
#419=LINE('',#1037,#491);
#420=LINE('',#1039,#492);
#421=LINE('',#1041,#493);
#422=LINE('',#1044,#494);
#423=LINE('',#1045,#495);
#424=LINE('',#1047,#496);
#425=LINE('',#1049,#497);
#426=LINE('',#1057,#498);
#427=LINE('',#1062,#499);
#428=LINE('',#1066,#500);
#429=LINE('',#1068,#501);
#430=LINE('',#1079,#502);
#431=LINE('',#1081,#503);
#432=LINE('',#1083,#504);
#433=LINE('',#1089,#505);
#434=LINE('',#1091,#506);
#435=VECTOR('',#732,1.);
#436=VECTOR('',#733,1.);
#437=VECTOR('',#738,1.);
#438=VECTOR('',#739,1.);
#439=VECTOR('',#744,1.);
#440=VECTOR('',#745,1.);
#441=VECTOR('',#746,1.);
#442=VECTOR('',#747,1.);
#443=VECTOR('',#748,1.);
#444=VECTOR('',#749,1.);
#445=VECTOR('',#750,1.);
#446=VECTOR('',#751,1.);
#447=VECTOR('',#752,1.);
#448=VECTOR('',#753,1.);
#449=VECTOR('',#754,1.);
#450=VECTOR('',#755,1.);
#451=VECTOR('',#756,1.);
#452=VECTOR('',#759,1.);
#453=VECTOR('',#760,1.);
#454=VECTOR('',#761,1.);
#455=VECTOR('',#762,1.);
#456=VECTOR('',#763,1.);
#457=VECTOR('',#764,1.);
#458=VECTOR('',#765,1.);
#459=VECTOR('',#766,1.);
#460=VECTOR('',#767,1.);
#461=VECTOR('',#768,1.);
#462=VECTOR('',#769,1.);
#463=VECTOR('',#770,1.);
#464=VECTOR('',#771,1.);
#465=VECTOR('',#774,1.);
#466=VECTOR('',#775,1.);
#467=VECTOR('',#776,1.);
#468=VECTOR('',#777,1.);
#469=VECTOR('',#778,1.);
#470=VECTOR('',#779,1.);
#471=VECTOR('',#782,1.);
#472=VECTOR('',#783,1.);
#473=VECTOR('',#786,1.);
#474=VECTOR('',#789,1.);
#475=VECTOR('',#790,1.);
#476=VECTOR('',#791,1.);
#477=VECTOR('',#794,1.);
#478=VECTOR('',#795,1.);
#479=VECTOR('',#796,1.);
#480=VECTOR('',#799,1.);
#481=VECTOR('',#800,1.);
#482=VECTOR('',#801,1.);
#483=VECTOR('',#804,1.);
#484=VECTOR('',#805,1.);
#485=VECTOR('',#806,1.);
#486=VECTOR('',#807,1.);
#487=VECTOR('',#808,1.);
#488=VECTOR('',#811,1.);
#489=VECTOR('',#814,1.);
#490=VECTOR('',#817,1.);
#491=VECTOR('',#818,1.);
#492=VECTOR('',#821,1.);
#493=VECTOR('',#824,1.);
#494=VECTOR('',#825,1.);
#495=VECTOR('',#826,1.);
#496=VECTOR('',#827,1.);
#497=VECTOR('',#828,1.);
#498=VECTOR('',#841,1.);
#499=VECTOR('',#848,1.);
#500=VECTOR('',#855,1.);
#501=VECTOR('',#856,1.);
#502=VECTOR('',#861,1.);
#503=VECTOR('',#862,1.);
#504=VECTOR('',#863,1.);
#505=VECTOR('',#866,1.);
#506=VECTOR('',#869,1.);
#507=EDGE_LOOP('',(#35,#36,#37));
#508=EDGE_LOOP('',(#38,#39,#40));
#509=EDGE_LOOP('',(#41,#42,#43,#44,#45,#46,#47,#48,#49,#50,#51,#52,#53,
#54));
#510=EDGE_LOOP('',(#55,#56,#57,#58,#59,#60,#61,#62,#63,#64,#65,#66,#67,
#68));
#511=EDGE_LOOP('',(#69,#70,#71,#72,#73,#74,#75,#76));
#512=EDGE_LOOP('',(#77,#78,#79,#80));
#513=EDGE_LOOP('',(#81,#82,#83,#84));
#514=EDGE_LOOP('',(#85,#86,#87,#88,#89,#90));
#515=EDGE_LOOP('',(#91,#92,#93,#94));
#516=EDGE_LOOP('',(#95,#96,#97,#98,#99,#100));
#517=EDGE_LOOP('',(#101,#102,#103,#104));
#518=EDGE_LOOP('',(#105,#106,#107,#108));
#519=EDGE_LOOP('',(#109,#110,#111,#112));
#520=EDGE_LOOP('',(#113,#114,#115,#116));
#521=EDGE_LOOP('',(#117,#118,#119,#120));
#522=EDGE_LOOP('',(#121,#122,#123,#124));
#523=EDGE_LOOP('',(#125,#126,#127,#128));
#524=EDGE_LOOP('',(#129,#130,#131,#132,#133,#134));
#525=EDGE_LOOP('',(#135,#136,#137,#138));
#526=EDGE_LOOP('',(#139,#140,#141,#142));
#527=EDGE_LOOP('',(#143));
#528=EDGE_LOOP('',(#144,#145,#146,#147));
#529=EDGE_LOOP('',(#148,#149,#150,#151));
#530=EDGE_LOOP('',(#152));
#531=EDGE_LOOP('',(#153,#154,#155,#156));
#532=EDGE_LOOP('',(#157,#158,#159,#160));
#533=EDGE_LOOP('',(#161));
#534=EDGE_LOOP('',(#162));
#535=EDGE_LOOP('',(#163,#164,#165,#166));
#536=EDGE_LOOP('',(#167,#168,#169,#170,#171,#172));
#537=EDGE_LOOP('',(#173,#174,#175,#176,#177,#178));
#538=EDGE_LOOP('',(#179,#180,#181,#182));
#539=EDGE_LOOP('',(#183,#184,#185,#186,#187,#188));
#540=EDGE_LOOP('',(#189,#190,#191,#192,#193,#194));
#541=EDGE_LOOP('',(#195));
#542=EDGE_LOOP('',(#196));
#543=EDGE_LOOP('',(#197));
#544=EDGE_LOOP('',(#198));
#545=EDGE_LOOP('',(#199));
#546=EDGE_LOOP('',(#200));
#547=EDGE_LOOP('',(#201));
#548=EDGE_LOOP('',(#202));
#549=EDGE_LOOP('',(#203));
#550=EDGE_LOOP('',(#204));
#551=EDGE_LOOP('',(#205,#206,#207,#208));
#552=EDGE_LOOP('',(#209,#210,#211,#212));
#553=FACE_BOUND('',#507,.T.);
#554=FACE_BOUND('',#508,.T.);
#555=FACE_BOUND('',#509,.T.);
#556=FACE_BOUND('',#510,.T.);
#557=FACE_BOUND('',#511,.T.);
#558=FACE_BOUND('',#512,.T.);
#559=FACE_BOUND('',#513,.T.);
#560=FACE_BOUND('',#514,.T.);
#561=FACE_BOUND('',#515,.T.);
#562=FACE_BOUND('',#516,.T.);
#563=FACE_BOUND('',#517,.T.);
#564=FACE_BOUND('',#518,.T.);
#565=FACE_BOUND('',#519,.T.);
#566=FACE_BOUND('',#520,.T.);
#567=FACE_BOUND('',#521,.T.);
#568=FACE_BOUND('',#522,.T.);
#569=FACE_BOUND('',#523,.T.);
#570=FACE_BOUND('',#524,.T.);
#571=FACE_BOUND('',#525,.T.);
#572=FACE_BOUND('',#526,.T.);
#573=FACE_BOUND('',#527,.T.);
#574=FACE_BOUND('',#528,.T.);
#575=FACE_BOUND('',#529,.T.);
#576=FACE_BOUND('',#530,.T.);
#577=FACE_BOUND('',#531,.T.);
#578=FACE_BOUND('',#532,.T.);
#579=FACE_BOUND('',#533,.T.);
#580=FACE_BOUND('',#534,.T.);
#581=FACE_BOUND('',#535,.T.);
#582=FACE_BOUND('',#536,.T.);
#583=FACE_BOUND('',#537,.T.);
#584=FACE_BOUND('',#538,.T.);
#585=FACE_BOUND('',#539,.T.);
#586=FACE_BOUND('',#540,.T.);
#587=FACE_BOUND('',#541,.T.);
#588=FACE_BOUND('',#542,.T.);
#589=FACE_BOUND('',#543,.T.);
#590=FACE_BOUND('',#544,.T.);
#591=FACE_BOUND('',#545,.T.);
#592=FACE_BOUND('',#546,.T.);
#593=FACE_BOUND('',#547,.T.);
#594=FACE_BOUND('',#548,.T.);
#595=FACE_BOUND('',#549,.T.);
#596=FACE_BOUND('',#550,.T.);
#597=FACE_BOUND('',#551,.T.);
#598=FACE_BOUND('',#552,.T.);
#599=PLANE('',#680);
#600=PLANE('',#682);
#601=PLANE('',#684);
#602=PLANE('',#685);
#603=PLANE('',#686);
#604=PLANE('',#687);
#605=PLANE('',#688);
#606=PLANE('',#689);
#607=PLANE('',#690);
#608=PLANE('',#691);
#609=PLANE('',#692);
#610=PLANE('',#693);
#611=PLANE('',#694);
#612=PLANE('',#695);
#613=PLANE('',#696);
#614=PLANE('',#697);
#615=PLANE('',#701);
#616=PLANE('',#702);
#617=PLANE('',#704);
#618=PLANE('',#705);
#619=PLANE('',#707);
#620=PLANE('',#709);
#621=PLANE('',#711);
#622=PLANE('',#712);
#623=PLANE('',#713);
#624=PLANE('',#714);
#625=PLANE('',#720);
#626=PLANE('',#722);
#627=PLANE('',#725);
#628=PLANE('',#726);
#629=PLANE('',#727);
#630=ADVANCED_FACE('',(#553),#599,.T.);
#631=ADVANCED_FACE('',(#554),#600,.T.);
#632=ADVANCED_FACE('',(#555),#601,.T.);
#633=ADVANCED_FACE('',(#556),#602,.F.);
#634=ADVANCED_FACE('',(#557),#603,.T.);
#635=ADVANCED_FACE('',(#558),#604,.F.);
#636=ADVANCED_FACE('',(#559),#605,.F.);
#637=ADVANCED_FACE('',(#560),#606,.F.);
#638=ADVANCED_FACE('',(#561),#607,.F.);
#639=ADVANCED_FACE('',(#562),#608,.F.);
#640=ADVANCED_FACE('',(#563,#564),#609,.F.);
#641=ADVANCED_FACE('',(#565),#610,.F.);
#642=ADVANCED_FACE('',(#566),#611,.F.);
#643=ADVANCED_FACE('',(#567),#612,.T.);
#644=ADVANCED_FACE('',(#568),#17,.T.);
#645=ADVANCED_FACE('',(#569),#613,.T.);
#646=ADVANCED_FACE('',(#570),#614,.T.);
#647=ADVANCED_FACE('',(#571),#13,.T.);
#648=ADVANCED_FACE('',(#572),#615,.F.);
#649=ADVANCED_FACE('',(#573,#574),#616,.F.);
#650=ADVANCED_FACE('',(#575),#617,.T.);
#651=ADVANCED_FACE('',(#576,#577),#618,.F.);
#652=ADVANCED_FACE('',(#578),#619,.T.);
#653=ADVANCED_FACE('',(#579,#580),#14,.F.);
#654=ADVANCED_FACE('',(#581),#620,.T.);
#655=ADVANCED_FACE('',(#582),#621,.T.);
#656=ADVANCED_FACE('',(#583),#622,.T.);
#657=ADVANCED_FACE('',(#584),#623,.T.);
#658=ADVANCED_FACE('',(#585),#624,.F.);
#659=ADVANCED_FACE('',(#586,#587),#12,.T.);
#660=ADVANCED_FACE('',(#588,#589),#15,.T.);
#661=ADVANCED_FACE('',(#590,#591),#625,.T.);
#662=ADVANCED_FACE('',(#592,#593),#626,.F.);
#663=ADVANCED_FACE('',(#594,#595),#16,.T.);
#664=ADVANCED_FACE('',(#596),#627,.T.);
#665=ADVANCED_FACE('',(#597),#628,.T.);
#666=ADVANCED_FACE('',(#598),#629,.F.);
#667=CLOSED_SHELL('',(#630,#631,#632,#633,#634,#635,#636,#637,#638,#639,
#640,#641,#642,#643,#644,#645,#646,#647,#648,#649,#650,#651,#652,#653,#654,
#655,#656,#657,#658,#659,#660,#661,#662,#663,#664,#665,#666));
#668=STYLED_ITEM('',(#669),#676);
#669=PRESENTATION_STYLE_ASSIGNMENT((#670));
#670=SURFACE_STYLE_USAGE(.BOTH.,#671);
#671=SURFACE_SIDE_STYLE('',(#672));
#672=SURFACE_STYLE_FILL_AREA(#673);
#673=FILL_AREA_STYLE('',(#674));
#674=FILL_AREA_STYLE_COLOUR('',#675);
#675=COLOUR_RGB('',0.682352941176471,0.333333333333334,0.737254901960784);
#676=MANIFOLD_SOLID_BREP('RearRButton',#667);
#677=SHAPE_DEFINITION_REPRESENTATION(#1121,#678);
#678=SHAPE_REPRESENTATION('RearRButton',(#679),#1116);
#679=AXIS2_PLACEMENT_3D('',#898,#728,#729);
#680=AXIS2_PLACEMENT_3D('',#899,#730,#731);
#681=AXIS2_PLACEMENT_3D('',#905,#734,#735);
#682=AXIS2_PLACEMENT_3D('',#906,#736,#737);
#683=AXIS2_PLACEMENT_3D('',#912,#740,#741);
#684=AXIS2_PLACEMENT_3D('',#913,#742,#743);
#685=AXIS2_PLACEMENT_3D('',#947,#757,#758);
#686=AXIS2_PLACEMENT_3D('',#981,#772,#773);
#687=AXIS2_PLACEMENT_3D('',#992,#780,#781);
#688=AXIS2_PLACEMENT_3D('',#995,#784,#785);
#689=AXIS2_PLACEMENT_3D('',#997,#787,#788);
#690=AXIS2_PLACEMENT_3D('',#1003,#792,#793);
#691=AXIS2_PLACEMENT_3D('',#1009,#797,#798);
#692=AXIS2_PLACEMENT_3D('',#1013,#802,#803);
#693=AXIS2_PLACEMENT_3D('',#1023,#809,#810);
#694=AXIS2_PLACEMENT_3D('',#1025,#812,#813);
#695=AXIS2_PLACEMENT_3D('',#1027,#815,#816);
#696=AXIS2_PLACEMENT_3D('',#1038,#819,#820);
#697=AXIS2_PLACEMENT_3D('',#1040,#822,#823);
#698=AXIS2_PLACEMENT_3D('',#1050,#829,#830);
#699=AXIS2_PLACEMENT_3D('',#1051,#831,#832);
#700=AXIS2_PLACEMENT_3D('',#1052,#833,#834);
#701=AXIS2_PLACEMENT_3D('',#1053,#835,#836);
#702=AXIS2_PLACEMENT_3D('',#1054,#837,#838);
#703=AXIS2_PLACEMENT_3D('',#1055,#839,#840);
#704=AXIS2_PLACEMENT_3D('',#1058,#842,#843);
#705=AXIS2_PLACEMENT_3D('',#1059,#844,#845);
#706=AXIS2_PLACEMENT_3D('',#1060,#846,#847);
#707=AXIS2_PLACEMENT_3D('',#1063,#849,#850);
#708=AXIS2_PLACEMENT_3D('',#1064,#851,#852);
#709=AXIS2_PLACEMENT_3D('',#1065,#853,#854);
#710=AXIS2_PLACEMENT_3D('',#1070,#857,#858);
#711=AXIS2_PLACEMENT_3D('',#1071,#859,#860);
#712=AXIS2_PLACEMENT_3D('',#1084,#864,#865);
#713=AXIS2_PLACEMENT_3D('',#1090,#867,#868);
#714=AXIS2_PLACEMENT_3D('',#1092,#870,#871);
#715=AXIS2_PLACEMENT_3D('',#1097,#872,#873);
#716=AXIS2_PLACEMENT_3D('',#1098,#874,#875);
#717=AXIS2_PLACEMENT_3D('',#1100,#876,#877);
#718=AXIS2_PLACEMENT_3D('',#1101,#878,#879);
#719=AXIS2_PLACEMENT_3D('',#1103,#880,#881);
#720=AXIS2_PLACEMENT_3D('',#1105,#882,#883);
#721=AXIS2_PLACEMENT_3D('',#1106,#884,#885);
#722=AXIS2_PLACEMENT_3D('',#1108,#886,#887);
#723=AXIS2_PLACEMENT_3D('',#1109,#888,#889);
#724=AXIS2_PLACEMENT_3D('',#1110,#890,#891);
#725=AXIS2_PLACEMENT_3D('',#1112,#892,#893);
#726=AXIS2_PLACEMENT_3D('',#1113,#894,#895);
#727=AXIS2_PLACEMENT_3D('',#1114,#896,#897);
#728=DIRECTION('',(0.,0.,1.));
#729=DIRECTION('',(1.,0.,0.));
#730=DIRECTION('',(2.16840434497101E-16,0.,1.));
#731=DIRECTION('',(-1.,0.,2.16840434497101E-16));
#732=DIRECTION('',(-0.316227766016838,0.948683298050514,6.85709661831388E-17));
#733=DIRECTION('',(-1.,0.,2.16840434497101E-16));
#734=DIRECTION('',(-2.16840434497101E-16,0.,-1.));
#735=DIRECTION('',(-1.,0.,2.16840434497101E-16));
#736=DIRECTION('',(2.16840434497101E-16,0.,1.));
#737=DIRECTION('',(-1.,0.,2.16840434497101E-16));
#738=DIRECTION('',(-1.,0.,2.16840434497101E-16));
#739=DIRECTION('',(0.316227766016838,0.948683298050514,-6.85709661831388E-17));
#740=DIRECTION('',(-2.16840434497101E-16,0.,-1.));
#741=DIRECTION('',(-1.,0.,2.16840434497101E-16));
#742=DIRECTION('',(0.,0.,1.));
#743=DIRECTION('',(-1.,0.,0.));
#744=DIRECTION('',(0.,-1.,0.));
#745=DIRECTION('',(-1.,0.,0.));
#746=DIRECTION('',(-0.974391194878078,0.224859510237107,0.));
#747=DIRECTION('',(-0.849483185753519,0.527615690746639,0.));
#748=DIRECTION('',(-0.302426403485118,-0.95317273905366,0.));
#749=DIRECTION('',(-1.,0.,0.));
#750=DIRECTION('',(0.,1.,0.));
#751=DIRECTION('',(-0.995887568763487,0.0905977393887441,0.));
#752=DIRECTION('',(1.,-1.83697019872103E-16,0.));
#753=DIRECTION('',(0.,1.,0.));
#754=DIRECTION('',(-1.,0.,0.));
#755=DIRECTION('',(0.,1.,0.));
#756=DIRECTION('',(-0.974391194878078,0.224859510237108,0.));
#757=DIRECTION('',(0.,0.,1.));
#758=DIRECTION('',(-1.,0.,0.));
#759=DIRECTION('',(0.,1.,0.));
#760=DIRECTION('',(-1.,0.,0.));
#761=DIRECTION('',(0.,1.,0.));
#762=DIRECTION('',(1.,-1.83697019872103E-16,0.));
#763=DIRECTION('',(-0.995887568763487,0.0905977393887441,0.));
#764=DIRECTION('',(0.,1.,0.));
#765=DIRECTION('',(-1.,0.,0.));
#766=DIRECTION('',(-0.302426403485118,-0.95317273905366,0.));
#767=DIRECTION('',(0.849483185753519,-0.527615690746639,0.));
#768=DIRECTION('',(-0.974391194878078,0.224859510237107,0.));
#769=DIRECTION('',(-1.,0.,0.));
#770=DIRECTION('',(0.,-1.,0.));
#771=DIRECTION('',(0.974391194878078,-0.224859510237108,0.));
#772=DIRECTION('',(-0.95317273905366,0.302426403485118,0.));
#773=DIRECTION('',(0.302426403485118,0.95317273905366,0.));
#774=DIRECTION('',(-0.302426403485118,-0.95317273905366,-1.47633136347991E-16));
#775=DIRECTION('',(0.,0.,-1.));
#776=DIRECTION('',(0.302426403485118,0.95317273905366,2.95266272695982E-16));
#777=DIRECTION('',(-0.226882859217631,-0.715078293008359,-0.661201333227243));
#778=DIRECTION('',(0.,0.,1.));
#779=DIRECTION('',(0.226882859217631,0.715078293008359,-0.661201333227244));
#780=DIRECTION('',(0.224859510237107,0.974391194878078,0.));
#781=DIRECTION('',(0.974391194878078,-0.224859510237107,0.));
#782=DIRECTION('',(0.,0.,-1.));
#783=DIRECTION('',(0.,0.,-1.));
#784=DIRECTION('',(0.,1.,0.));
#785=DIRECTION('',(0.,0.,1.));
#786=DIRECTION('',(0.,0.,-1.));
#787=DIRECTION('',(-1.,0.,0.));
#788=DIRECTION('',(0.,0.,-1.));
#789=DIRECTION('',(0.,0.,-1.));
#790=DIRECTION('',(0.,0.931731341754625,-0.363148326159058));
#791=DIRECTION('',(0.,0.931731341754625,0.363148326159058));
#792=DIRECTION('',(0.224859510237108,0.974391194878078,0.));
#793=DIRECTION('',(0.974391194878078,-0.224859510237108,0.));
#794=DIRECTION('',(0.,0.,-1.));
#795=DIRECTION('',(-0.974391194878078,0.224859510237108,0.));
#796=DIRECTION('',(0.974391194878078,-0.224859510237108,0.));
#797=DIRECTION('',(1.,0.,0.));
#798=DIRECTION('',(0.,0.,1.));
#799=DIRECTION('',(0.,0.,-1.));
#800=DIRECTION('',(0.,-0.931731341754625,0.363148326159058));
#801=DIRECTION('',(0.,-0.931731341754625,-0.363148326159058));
#802=DIRECTION('',(0.,1.,0.));
#803=DIRECTION('',(0.,0.,1.));
#804=DIRECTION('',(-1.,0.,2.16840434497101E-16));
#805=DIRECTION('',(0.,0.,1.));
#806=DIRECTION('',(1.,0.,0.));
#807=DIRECTION('',(0.,0.,-1.));
#808=DIRECTION('',(0.,0.,-1.));
#809=DIRECTION('',(1.,0.,0.));
#810=DIRECTION('',(0.,0.,1.));
#811=DIRECTION('',(0.,0.,-1.));
#812=DIRECTION('',(-1.83697019872103E-16,-1.,0.));
#813=DIRECTION('',(-1.,1.83697019872103E-16,0.));
#814=DIRECTION('',(0.,0.,-1.));
#815=DIRECTION('',(0.0905977393887441,0.995887568763487,0.));
#816=DIRECTION('',(0.995887568763487,-0.0905977393887441,0.));
#817=DIRECTION('',(0.,0.,-1.));
#818=DIRECTION('',(0.,0.,-1.));
#819=DIRECTION('',(1.,0.,0.));
#820=DIRECTION('',(0.,0.,1.));
#821=DIRECTION('',(0.,0.,-1.));
#822=DIRECTION('',(0.939692620785907,-0.342020143325672,0.));
#823=DIRECTION('',(-0.342020143325673,-0.939692620785907,0.));
#824=DIRECTION('',(0.342020143325673,0.939692620785907,1.45545254417811E-16));
#825=DIRECTION('',(-0.258176295613337,-0.709333542436075,0.655889415952463));
#826=DIRECTION('',(0.258176295613337,0.709333542436076,0.655889415952463));
#827=DIRECTION('',(-0.342020143325673,-0.939692620785907,-2.91090508835622E-16));
#828=DIRECTION('',(0.,0.,-1.));
#829=DIRECTION('',(0.,0.,-1.));
#830=DIRECTION('',(1.,0.,0.));
#831=DIRECTION('',(0.,1.54886024640786E-16,-1.));
#832=DIRECTION('',(0.,-1.,-1.54886024640786E-16));
#833=DIRECTION('',(0.,-3.09772049281573E-16,1.));
#834=DIRECTION('',(0.,1.,3.09772049281573E-16));
#835=DIRECTION('',(0.527615690746639,0.849483185753519,0.));
#836=DIRECTION('',(0.,0.,-1.));
#837=DIRECTION('',(0.,3.09772049281573E-16,-1.));
#838=DIRECTION('',(0.,1.,3.09772049281573E-16));
#839=DIRECTION('',(0.,-3.09772049281573E-16,1.));
#840=DIRECTION('',(0.,1.,3.09772049281573E-16));
#841=DIRECTION('',(-1.,0.,0.));
#842=DIRECTION('',(0.,-0.678905801741516,0.734225382537072));
#843=DIRECTION('',(0.,-0.734225382537072,-0.678905801741516));
#844=DIRECTION('',(0.,-1.54886024640786E-16,1.));
#845=DIRECTION('',(0.,-1.,-1.54886024640786E-16));
#846=DIRECTION('',(0.,1.54886024640786E-16,-1.));
#847=DIRECTION('',(0.,-1.,-1.54886024640786E-16));
#848=DIRECTION('',(-1.,0.,0.));
#849=DIRECTION('',(0.,-0.678905801741516,-0.734225382537071));
#850=DIRECTION('',(0.,0.734225382537072,-0.678905801741516));
#851=DIRECTION('',(0.,0.,-1.));
#852=DIRECTION('',(1.,0.,0.));
#853=DIRECTION('',(2.16840434497101E-16,0.,1.));
#854=DIRECTION('',(-1.,0.,2.16840434497101E-16));
#855=DIRECTION('',(0.316227766016838,0.948683298050514,-6.85709661831388E-17));
#856=DIRECTION('',(-0.316227766016838,0.948683298050514,6.85709661831388E-17));
#857=DIRECTION('',(-2.16840434497101E-16,0.,-1.));
#858=DIRECTION('',(-1.,0.,2.16840434497101E-16));
#859=DIRECTION('',(0.,-1.,0.));
#860=DIRECTION('',(-1.,0.,0.));
#861=DIRECTION('',(0.,0.,-1.));
#862=DIRECTION('',(-1.,0.,0.));
#863=DIRECTION('',(0.,0.,-1.));
#864=DIRECTION('',(0.948683298050514,-0.316227766016838,0.));
#865=DIRECTION('',(0.,0.,1.));
#866=DIRECTION('',(-0.301511344577764,-0.904534033733291,0.301511344577764));
#867=DIRECTION('',(0.,-0.316227766016838,-0.948683298050514));
#868=DIRECTION('',(1.,0.,0.));
#869=DIRECTION('',(-0.301511344577764,0.904534033733291,-0.301511344577764));
#870=DIRECTION('',(0.948683298050514,0.316227766016838,0.));
#871=DIRECTION('',(0.,0.,-1.));
#872=DIRECTION('',(0.,0.,-1.));
#873=DIRECTION('',(1.,0.,0.));
#874=DIRECTION('',(-2.16840434497101E-16,0.,-1.));
#875=DIRECTION('',(-1.,0.,2.16840434497101E-16));
#876=DIRECTION('',(-2.16840434497101E-16,0.,-1.));
#877=DIRECTION('',(1.,0.,-2.16840434497101E-16));
#878=DIRECTION('',(-2.16840434497101E-16,0.,-1.));
#879=DIRECTION('',(-1.,0.,2.16840434497101E-16));
#880=DIRECTION('',(-2.16840434497101E-16,0.,-1.));
#881=DIRECTION('',(-1.,0.,2.16840434497101E-16));
#882=DIRECTION('',(2.16840434497101E-16,0.,1.));
#883=DIRECTION('',(-1.,0.,2.16840434497101E-16));
#884=DIRECTION('',(-2.16840434497101E-16,0.,-1.));
#885=DIRECTION('',(-1.,0.,2.16840434497101E-16));
#886=DIRECTION('',(2.16840434497101E-16,0.,1.));
#887=DIRECTION('',(-1.,0.,2.16840434497101E-16));
#888=DIRECTION('',(-2.16840434497101E-16,0.,-1.));
#889=DIRECTION('',(1.,0.,-2.16840434497101E-16));
#890=DIRECTION('',(-2.16840434497101E-16,0.,-1.));
#891=DIRECTION('',(-1.,0.,2.16840434497101E-16));
#892=DIRECTION('',(2.16840434497101E-16,0.,1.));
#893=DIRECTION('',(-1.,0.,2.16840434497101E-16));
#894=DIRECTION('',(-0.0835107255916121,-0.361879804899253,0.928476690885259));
#895=DIRECTION('',(0.974391194878078,-0.224859510237108,0.));
#896=DIRECTION('',(0.0835107255916121,0.361879804899253,0.928476690885259));
#897=DIRECTION('',(-0.974391194878078,0.224859510237108,0.));
#898=CARTESIAN_POINT('',(0.,0.,0.));
#899=CARTESIAN_POINT('',(0.00499999999061578,-0.007,-0.00195));
#900=CARTESIAN_POINT('',(0.00299999999061577,-0.004,-0.00195));
#901=CARTESIAN_POINT('',(0.00399999999061577,-0.007,-0.00195));
#902=CARTESIAN_POINT('',(0.00379999999061578,-0.0064,-0.00195));
#903=CARTESIAN_POINT('',(0.00499999999061578,-0.007,-0.00195));
#904=CARTESIAN_POINT('',(0.00430717966758823,-0.007,-0.00195));
#905=CARTESIAN_POINT('',(0.00499999999061578,-0.0059,-0.00195));
#906=CARTESIAN_POINT('',(0.00499999999061578,-0.007,-0.00195));
#907=CARTESIAN_POINT('',(0.00499999999061578,-0.007,-0.00195));
#908=CARTESIAN_POINT('',(0.00599999999061578,-0.007,-0.00195));
#909=CARTESIAN_POINT('',(0.00569282031364333,-0.007,-0.00195));
#910=CARTESIAN_POINT('',(0.00599999999061578,-0.007,-0.00195));
#911=CARTESIAN_POINT('',(0.00619999999061578,-0.0064,-0.00195));
#912=CARTESIAN_POINT('',(0.00499999999061578,-0.0059,-0.00195));
#913=CARTESIAN_POINT('',(0.0164999999910424,-0.0115000000055396,0.00725));
#914=CARTESIAN_POINT('',(0.0109999999906158,-0.007,0.00725));
#915=CARTESIAN_POINT('',(0.0109999999906158,-0.004,0.00725));
#916=CARTESIAN_POINT('',(0.0109999999906158,-0.00486859074026666,0.00725));
#917=CARTESIAN_POINT('',(0.0144999999906158,-0.004,0.00725));
#918=CARTESIAN_POINT('',(0.0179999999906158,-0.004,0.00725));
#919=CARTESIAN_POINT('',(0.0231249941046172,-0.00518269096898665,0.00725));
#920=CARTESIAN_POINT('',(0.020378746500106,-0.00454894151128813,0.00725));
#921=CARTESIAN_POINT('',(0.020378746500106,-0.00454894151128813,0.00725));
#922=CARTESIAN_POINT('',(0.0229994936812551,-0.00617669278105311,0.00725));
#923=CARTESIAN_POINT('',(0.0204560928332856,-0.0141928591105576,0.00725));
#924=CARTESIAN_POINT('',(0.0221178070126502,-0.00895554967719916,0.00725));
#925=CARTESIAN_POINT('',(0.0280019999906158,-0.00895554967719916,0.00725));
#926=CARTESIAN_POINT('',(0.0279999999906158,-0.00895554967719916,0.00725));
#927=CARTESIAN_POINT('',(0.0279999999906158,-0.00690421119606241,0.00725));
#928=CARTESIAN_POINT('',(0.0279999999906158,-0.00485287271492566,0.00725));
#929=CARTESIAN_POINT('',(0.0186603851558838,-0.000605907611164484,0.00725));
#930=CARTESIAN_POINT('',(0.0197134964412642,-0.000814907063430285,0.00725));
#931=CARTESIAN_POINT('',(0.0222272725329224,-0.00147225039116244,0.00725));
#932=CARTESIAN_POINT('',(0.0253581952425271,-0.00288724237121871,0.00725));
#933=CARTESIAN_POINT('',(0.0272915171183825,-0.00425998217167424,0.00725));
#934=CARTESIAN_POINT('',(0.0279999999808623,-0.00485287271492566,0.00725));
#935=CARTESIAN_POINT('',(0.0186603851576347,-0.000605907591918143,0.00725));
#936=CARTESIAN_POINT('',(0.0153301925795311,-0.000302953795959067,0.00725));
#937=CARTESIAN_POINT('',(0.0120000000014276,8.45677694538693E-18,0.00725));
#938=CARTESIAN_POINT('',(-0.00100000000469211,2.94330079432633E-18,0.00725));
#939=CARTESIAN_POINT('',(-0.00200000000938423,3.12699781506037E-18,0.00725));
#940=CARTESIAN_POINT('',(-0.00200000000938423,-0.002,0.00725));
#941=CARTESIAN_POINT('',(-0.00200000000938423,-0.004,0.00725));
#942=CARTESIAN_POINT('',(0.00299999999061577,-0.004,0.00725));
#943=CARTESIAN_POINT('',(0.00799999999061578,-0.004,0.00725));
#944=CARTESIAN_POINT('',(0.00799999999061578,-0.00665384614810906,0.00725));
#945=CARTESIAN_POINT('',(0.00799999999061578,-0.00417628303648479,0.00725));
#946=CARTESIAN_POINT('',(0.00912429754180132,-0.00443573632182773,0.00725));
#947=CARTESIAN_POINT('',(0.0164999999910424,-0.0115000000055396,-0.00725));
#948=CARTESIAN_POINT('',(0.00799999999061578,-0.00665384614810906,-0.00725));
#949=CARTESIAN_POINT('',(0.00799999999061578,-0.00417628303648479,-0.00725));
#950=CARTESIAN_POINT('',(0.00799999999061578,-0.004,-0.00725));
#951=CARTESIAN_POINT('',(0.00299999999061577,-0.004,-0.00725));
#952=CARTESIAN_POINT('',(-0.00200000000938423,-0.004,-0.00725));
#953=CARTESIAN_POINT('',(-0.00200000000938423,-0.002,-0.00725));
#954=CARTESIAN_POINT('',(-0.00200000000938423,3.12699781506037E-18,-0.00725));
#955=CARTESIAN_POINT('',(-0.00100000000469211,2.94330079432633E-18,-0.00725));
#956=CARTESIAN_POINT('',(0.0120000000014276,8.45677694538693E-18,-0.00725));
#957=CARTESIAN_POINT('',(0.0153301925795311,-0.000302953795959067,-0.00725));
#958=CARTESIAN_POINT('',(0.0186603851576347,-0.000605907591918143,-0.00725));
#959=CARTESIAN_POINT('',(0.0186603851558838,-0.000605907611164484,-0.00725));
#960=CARTESIAN_POINT('',(0.0197134964412642,-0.000814907063430285,-0.00725));
#961=CARTESIAN_POINT('',(0.0222272725329224,-0.00147225039116244,-0.00725));
#962=CARTESIAN_POINT('',(0.0253581952425271,-0.00288724237121871,-0.00725));
#963=CARTESIAN_POINT('',(0.0272915171183825,-0.00425998217167424,-0.00725));
#964=CARTESIAN_POINT('',(0.0279999999808623,-0.00485287271492566,-0.00725));
#965=CARTESIAN_POINT('',(0.0279999999906158,-0.00485287271492566,-0.00725));
#966=CARTESIAN_POINT('',(0.0279999999906158,-0.00690421119606241,-0.00725));
#967=CARTESIAN_POINT('',(0.0279999999906158,-0.00895554967719917,-0.00725));
#968=CARTESIAN_POINT('',(0.0280019999906158,-0.00895554967719917,-0.00725));
#969=CARTESIAN_POINT('',(0.0221178070126502,-0.00895554967719917,-0.00725));
#970=CARTESIAN_POINT('',(0.0204560928332856,-0.0141928591105576,-0.00725));
#971=CARTESIAN_POINT('',(0.0229994936812551,-0.00617669278105311,-0.00725));
#972=CARTESIAN_POINT('',(0.02069522790651,-0.00474550874022056,-0.00725));
#973=CARTESIAN_POINT('',(0.020378746500106,-0.00454894151128813,-0.00725));
#974=CARTESIAN_POINT('',(0.0231249941046172,-0.00518269096898665,-0.00725));
#975=CARTESIAN_POINT('',(0.0179999999906158,-0.004,-0.00725));
#976=CARTESIAN_POINT('',(0.0144999999906158,-0.004,-0.00725));
#977=CARTESIAN_POINT('',(0.0109999999906158,-0.004,-0.00725));
#978=CARTESIAN_POINT('',(0.0109999999906158,-0.007,-0.00725));
#979=CARTESIAN_POINT('',(0.0109999999906158,-0.00486859074026666,-0.00725));
#980=CARTESIAN_POINT('',(0.0176748593373172,-0.00640894292272728,-0.00725));
#981=CARTESIAN_POINT('',(0.0204560928332856,-0.0141928591105576,0.00725));
#982=CARTESIAN_POINT('',(0.0204560928332856,-0.0141928591105576,-0.00425));
#983=CARTESIAN_POINT('',(0.021088395026545,-0.0121999999999994,-0.00425));
#984=CARTESIAN_POINT('',(0.0201999999906157,-0.0149999999999994,-0.00425));
#985=CARTESIAN_POINT('',(0.0201999999906157,-0.0149999999999994,0.00725));
#986=CARTESIAN_POINT('',(0.0201999999906157,-0.0149999999999994,0.00425));
#987=CARTESIAN_POINT('',(0.0204560928332856,-0.0141928591105576,0.00425));
#988=CARTESIAN_POINT('',(0.021088395026545,-0.0121999999999994,0.00425));
#989=CARTESIAN_POINT('',(0.0211825730076496,-0.0119031744478201,0.00452446148590413));
#990=CARTESIAN_POINT('',(0.0229994936812551,-0.00617669278105311,0.00725));
#991=CARTESIAN_POINT('',(0.0190073518971336,-0.0187589298979555,0.0018147529584874));
#992=CARTESIAN_POINT('',(0.0231249941046172,-0.00518269096898665,0.00725));
#993=CARTESIAN_POINT('',(0.0179999999906158,-0.004,0.00725));
#994=CARTESIAN_POINT('',(0.020378746500106,-0.00454894151128813,0.00725));
#995=CARTESIAN_POINT('',(0.0144999999906158,-0.004,0.00725));
#996=CARTESIAN_POINT('',(0.0109999999906158,-0.004,0.00725));
#997=CARTESIAN_POINT('',(0.0109999999906158,-0.007,0.00725));
#998=CARTESIAN_POINT('',(0.0109999999906158,-0.01,0.00725));
#999=CARTESIAN_POINT('',(0.0109999999906158,-0.01,0.00525));
#1000=CARTESIAN_POINT('',(0.0109999999906158,-0.01,-0.00525));
#1001=CARTESIAN_POINT('',(0.0109999999906158,-0.00969949577813985,-0.00536712346712169));
#1002=CARTESIAN_POINT('',(0.0109999999906158,-0.00620580634960431,0.00672881155384315));
#1003=CARTESIAN_POINT('',(0.00949999999061579,-0.00965384614810906,0.00725));
#1004=CARTESIAN_POINT('',(0.00799999999061578,-0.00930769229621812,0.00725));
#1005=CARTESIAN_POINT('',(0.00799999999061578,-0.00930769229621812,0.00525));
#1006=CARTESIAN_POINT('',(0.00799999999061578,-0.00930769229621812,-0.00525));
#1007=CARTESIAN_POINT('',(0.00949999999061579,-0.00965384614810906,-0.00525));
#1008=CARTESIAN_POINT('',(0.0109999999906158,-0.01,0.00525));
#1009=CARTESIAN_POINT('',(0.00799999999061578,-0.00665384614810906,0.00725));
#1010=CARTESIAN_POINT('',(0.00799999999061578,-0.004,0.00725));
#1011=CARTESIAN_POINT('',(0.00799999999061578,-0.00960819651807828,-0.00513287653287831));
#1012=CARTESIAN_POINT('',(0.00799999999061578,-0.00611450708954274,0.00649456461959977));
#1013=CARTESIAN_POINT('',(0.00299999999061577,-0.004,0.00725));
#1014=CARTESIAN_POINT('',(0.00499999999061578,-0.004,-0.00195));
#1015=CARTESIAN_POINT('',(0.00699999999061578,-0.004,-0.00195));
#1016=CARTESIAN_POINT('',(0.00299999999061577,-0.004,-0.00195));
#1017=CARTESIAN_POINT('',(0.00699999999061578,-0.004,-0.00195));
#1018=CARTESIAN_POINT('',(0.00699999999061578,-0.004,-0.00445));
#1019=CARTESIAN_POINT('',(0.00599999999061578,-0.004,-0.00445));
#1020=CARTESIAN_POINT('',(0.00299999999061577,-0.004,-0.00445));
#1021=CARTESIAN_POINT('',(0.00299999999061577,-0.004,0.00725));
#1022=CARTESIAN_POINT('',(-0.00200000000938423,-0.004,0.00725));
#1023=CARTESIAN_POINT('',(-0.00200000000938423,-0.002,0.00725));
#1024=CARTESIAN_POINT('',(-0.00200000000938423,3.12699781506037E-18,0.00725));
#1025=CARTESIAN_POINT('',(-0.00100000000469211,2.94330079432633E-18,0.00725));
#1026=CARTESIAN_POINT('',(0.0120000000014276,8.45677694538693E-18,0.00725));
#1027=CARTESIAN_POINT('',(0.0153301925795311,-0.000302953795959067,0.00725));
#1028=CARTESIAN_POINT('',(0.0186603851576347,-0.000605907591918143,0.00725));
#1029=CARTESIAN_POINT('',(0.0186603851558838,-0.000605907611164484,0.00725));
#1030=CARTESIAN_POINT('',(0.0186603851558838,-0.000605907611164484,-0.00725));
#1031=CARTESIAN_POINT('',(0.0222804321232446,-0.00132433864866074,0.00725));
#1032=CARTESIAN_POINT('',(0.0222804321232446,-0.00132433864866074,-0.00725));
#1033=CARTESIAN_POINT('',(0.0254529113410852,-0.00272135359523753,0.00725));
#1034=CARTESIAN_POINT('',(0.0254529113410852,-0.00272135359523753,-0.00725));
#1035=CARTESIAN_POINT('',(0.0279999999808623,-0.00485287271492566,0.00725));
#1036=CARTESIAN_POINT('',(0.0279999999808623,-0.00485287271492566,-0.00725));
#1037=CARTESIAN_POINT('',(0.0279999999906158,-0.00485287271492566,0.00725));
#1038=CARTESIAN_POINT('',(0.0279999999906158,-0.00690421119606241,0.00725));
#1039=CARTESIAN_POINT('',(0.0279999999906158,-0.00895554967719917,0.00725));
#1040=CARTESIAN_POINT('',(0.0279804016083679,-0.00900939578988295,0.00725));
#1041=CARTESIAN_POINT('',(0.0279804016083679,-0.00900939578988294,-0.00425));
#1042=CARTESIAN_POINT('',(0.0257999999906157,-0.0149999999999994,-0.00425));
#1043=CARTESIAN_POINT('',(0.0268191166465611,-0.0121999999999994,-0.00425));
#1044=CARTESIAN_POINT('',(0.0255334737083067,-0.0157322749423346,-0.000983861279201289));
#1045=CARTESIAN_POINT('',(0.0279888326545744,-0.00898623168080825,0.00722162970559901));
#1046=CARTESIAN_POINT('',(0.0268191166465611,-0.0121999999999994,0.00425));
#1047=CARTESIAN_POINT('',(0.0279804016083679,-0.00900939578988295,0.00425));
#1048=CARTESIAN_POINT('',(0.0257999999906157,-0.0149999999999994,0.00425));
#1049=CARTESIAN_POINT('',(0.0257999999906157,-0.0149999999999994,0.00725));
#1050=CARTESIAN_POINT('',(0.0229999999906157,-0.0149999999999994,0.00725));
#1051=CARTESIAN_POINT('',(0.0229999999906157,-0.0149999999999994,-0.00425));
#1052=CARTESIAN_POINT('',(0.0229999999906157,-0.0149999999999994,0.00425));
#1053=CARTESIAN_POINT('',(0.020378746500106,-0.00454894151128813,0.00725));
#1054=CARTESIAN_POINT('',(0.0280019999906158,-0.0149999999999994,0.00425));
#1055=CARTESIAN_POINT('',(0.0229999999906157,-0.0149999999999994,0.00425));
#1056=CARTESIAN_POINT('',(0.0229999999906157,-0.0130999999999994,0.00425));
#1057=CARTESIAN_POINT('',(0.0280019999906158,-0.0121999999999994,0.00425));
#1058=CARTESIAN_POINT('',(0.0280019999906158,-0.0105777748385993,0.00575));
#1059=CARTESIAN_POINT('',(0.0280019999906158,-0.0149999999999994,-0.00425));
#1060=CARTESIAN_POINT('',(0.0229999999906157,-0.0149999999999994,-0.00425));
#1061=CARTESIAN_POINT('',(0.0229999999906157,-0.0168999999999994,-0.00425));
#1062=CARTESIAN_POINT('',(0.0280019999906158,-0.0121999999999994,-0.00425));
#1063=CARTESIAN_POINT('',(0.0280019999906158,-0.0105777748385993,-0.00575));
#1064=CARTESIAN_POINT('',(0.0229999999906157,-0.0149999999999994,0.00725));
#1065=CARTESIAN_POINT('',(0.00499999999061578,-0.007,-0.00195));
#1066=CARTESIAN_POINT('',(0.00599999999061578,-0.007,-0.00195));
#1067=CARTESIAN_POINT('',(0.00625999999061578,-0.00622,-0.00195));
#1068=CARTESIAN_POINT('',(0.00299999999061577,-0.004,-0.00195));
#1069=CARTESIAN_POINT('',(0.00373999999061577,-0.00622,-0.00195));
#1070=CARTESIAN_POINT('',(0.00499999999061578,-0.0059,-0.00195));
#1071=CARTESIAN_POINT('',(0.00299999999061578,-0.007,0.));
#1072=CARTESIAN_POINT('',(0.00430717966758823,-0.007,-0.00195));
#1073=CARTESIAN_POINT('',(0.0043957745462635,-0.007,-0.00183196089911079));
#1074=CARTESIAN_POINT('',(0.00457789120735464,-0.007,-0.00160662151415575));
#1075=CARTESIAN_POINT('',(0.00500077844874933,-0.007,-0.00137140404924962));
#1076=CARTESIAN_POINT('',(0.00542304955921723,-0.007,-0.00160776540246783));
#1077=CARTESIAN_POINT('',(0.00560438788460036,-0.007,-0.0018321773383545));
#1078=CARTESIAN_POINT('',(0.00569282031364333,-0.007,-0.00195));
#1079=CARTESIAN_POINT('',(0.00399999999061577,-0.007,-0.0027));
#1080=CARTESIAN_POINT('',(0.00399999999061577,-0.007,-0.00345));
#1081=CARTESIAN_POINT('',(0.00499999999061578,-0.007,-0.00345));
#1082=CARTESIAN_POINT('',(0.00599999999061578,-0.007,-0.00345));
#1083=CARTESIAN_POINT('',(0.00599999999061578,-0.007,-0.0027));
#1084=CARTESIAN_POINT('',(0.00599999999061578,-0.007,-0.0027));
#1085=CARTESIAN_POINT('',(0.00619999999061578,-0.0064,-0.00195));
#1086=CARTESIAN_POINT('',(0.00621999999061578,-0.00634,-0.00193846153846154));
#1087=CARTESIAN_POINT('',(0.00623999999061578,-0.00628,-0.00193846153846154));
#1088=CARTESIAN_POINT('',(0.00625999999061578,-0.00622,-0.00195));
#1089=CARTESIAN_POINT('',(0.00593181817243396,-0.00720454545454545,-0.00338181818181819));
#1090=CARTESIAN_POINT('',(0.00499999999061578,-0.007,-0.00345));
#1091=CARTESIAN_POINT('',(0.00409090908152487,-0.00727272727272727,-0.00335909090909092));
#1092=CARTESIAN_POINT('',(0.00299999999061577,-0.004,0.00725));
#1093=CARTESIAN_POINT('',(0.00373999999061577,-0.00622,-0.00195));
#1094=CARTESIAN_POINT('',(0.00375999999061578,-0.00628,-0.00193846153846154));
#1095=CARTESIAN_POINT('',(0.00377999999061578,-0.00634,-0.00193846153846154));
#1096=CARTESIAN_POINT('',(0.00379999999061578,-0.0064,-0.00195));
#1097=CARTESIAN_POINT('',(0.00499999999061578,-0.0059,-0.00095));
#1098=CARTESIAN_POINT('',(0.00499999999061578,-0.0059,-0.00095));
#1099=CARTESIAN_POINT('',(0.00409999999061578,-0.0059,-0.00095));
#1100=CARTESIAN_POINT('',(0.00499999999061578,-0.0059,-0.00055));
#1101=CARTESIAN_POINT('',(0.00499999999061578,-0.0059,-0.00055));
#1102=CARTESIAN_POINT('',(0.00379999999061578,-0.0059,-0.00055));
#1103=CARTESIAN_POINT('',(0.00499999999061578,-0.0059,-0.00095));
#1104=CARTESIAN_POINT('',(0.00379999999061578,-0.0059,-0.00095));
#1105=CARTESIAN_POINT('',(0.00499999999061578,-0.0059,-0.00055));
#1106=CARTESIAN_POINT('',(0.00499999999061578,-0.0059,-0.00055));
#1107=CARTESIAN_POINT('',(0.00409999999061578,-0.0059,-0.00055));
#1108=CARTESIAN_POINT('',(0.00499999999061578,-0.0059,-0.00095));
#1109=CARTESIAN_POINT('',(0.00499999999061578,-0.0059,0.00445));
#1110=CARTESIAN_POINT('',(0.00499999999061578,-0.0059,0.00445));
#1111=CARTESIAN_POINT('',(0.00409999999061578,-0.0059,0.00445));
#1112=CARTESIAN_POINT('',(0.00499999999061578,-0.0059,0.00445));
#1113=CARTESIAN_POINT('',(0.0176748593373172,-0.00640894292272728,0.00725));
#1114=CARTESIAN_POINT('',(0.00949999999061579,-0.00965384614810906,-0.00525));
#1115=MECHANICAL_DESIGN_GEOMETRIC_PRESENTATION_REPRESENTATION('',(#668),
#1116);
#1116=(
GEOMETRIC_REPRESENTATION_CONTEXT(3)
GLOBAL_UNCERTAINTY_ASSIGNED_CONTEXT((#1117))
GLOBAL_UNIT_ASSIGNED_CONTEXT((#1120,#1119,#1118))
REPRESENTATION_CONTEXT('RearRButton','TOP_LEVEL_ASSEMBLY_PART')
);
#1117=UNCERTAINTY_MEASURE_WITH_UNIT(LENGTH_MEASURE(2.E-5),#1120,
'DISTANCE_ACCURACY_VALUE','Maximum Tolerance applied to model');
#1118=(
NAMED_UNIT(*)
SI_UNIT($,.STERADIAN.)
SOLID_ANGLE_UNIT()
);
#1119=(
NAMED_UNIT(*)
PLANE_ANGLE_UNIT()
SI_UNIT($,.RADIAN.)
);
#1120=(
LENGTH_UNIT()
NAMED_UNIT(*)
SI_UNIT($,.METRE.)
);
#1121=PRODUCT_DEFINITION_SHAPE('','',#1122);
#1122=PRODUCT_DEFINITION('','',#1124,#1123);
#1123=PRODUCT_DEFINITION_CONTEXT('',#1130,'design');
#1124=PRODUCT_DEFINITION_FORMATION_WITH_SPECIFIED_SOURCE('','',#1126,
 .NOT_KNOWN.);
#1125=PRODUCT_RELATED_PRODUCT_CATEGORY('','',(#1126));
#1126=PRODUCT('RearRButton','RearRButton','RearRButton',(#1128));
#1127=PRODUCT_CATEGORY('','');
#1128=PRODUCT_CONTEXT('',#1130,'mechanical');
#1129=APPLICATION_PROTOCOL_DEFINITION('international standard',
'ap242_managed_model_based_3d_engineering',2020,#1130);
#1130=APPLICATION_CONTEXT('managed model based 3d engineering');
ENDSEC;
END-ISO-10303-21;
