ISO-10303-21;
HEADER;
/* Generated by software containing ST-Developer
 * from STEP Tools, Inc. (www.steptools.com) 
 */
/* OPTION: using custom renumber hook */

FILE_DESCRIPTION(
/* description */ ('STEP AP242 Edition 2',
'CAx-IF Rec.Pracs.---Representation and Presentation of Product Manufa
cturing Information (PMI)---4.0---2014-10-13',
'CAx-IF Rec.Pracs.---3D Tessellated Geometry---0.4---2014-09-14','2;1',
'CAx-IF Rec.Pracs.---User Defined Attributes---1.5---2016-08-15'),
/* implementation_level */ '2;1');

FILE_NAME(
/* name */ 'S_BUTTONS - Part 6',
/* time_stamp */ '2026-09-23T14:42:51Z',
/* author */ (''),
/* organization */ (''),
/* preprocessor_version */ 'ST-DEVELOPER v20',
/* originating_system */ 'ONSHAPE BY PTC INC, 1.221',
/* authorisation */ '  ');

FILE_SCHEMA (('AP242_MANAGED_MODEL_BASED_3D_ENGINEERING_MIM_LF { 1 0 10303 442 3 1 4 }'));
ENDSEC;

DATA;
#10=SHAPE_REPRESENTATION_RELATIONSHIP('','',#387,#11);
#11=ADVANCED_BREP_SHAPE_REPRESENTATION('',(#385),#725);
#12=B_SPLINE_SURFACE_WITH_KNOTS('',3,3,((#611,#612,#613,#614,#615,#616,
#617,#618,#619,#620,#621,#622,#623,#624,#625,#626,#627,#628,#629),(#630,
#631,#632,#633,#634,#635,#636,#637,#638,#639,#640,#641,#642,#643,#644,#645,
#646,#647,#648),(#649,#650,#651,#652,#653,#654,#655,#656,#657,#658,#659,
#660,#661,#662,#663,#664,#665,#666,#667),(#668,#669,#670,#671,#672,#673,
#674,#675,#676,#677,#678,#679,#680,#681,#682,#683,#684,#685,#686)),
 .UNSPECIFIED.,.F.,.T.,.F.,(4,4),(1,1,1,1,1,1,1,1,1,1,1,1,1,1,1,1,1,1,1,
1,1,1,1),(0.,1.),(-1.17809724509617,-0.785398163397448,-0.392699081698725,
0.,0.392699081698724,0.785398163397448,1.17809724509617,1.5707963267949,
1.96349540849362,2.35619449019234,2.74889357189107,3.14159265358979,3.53429173528852,
3.92699081698724,4.31968989868597,4.71238898038469,5.10508806208341,5.49778714378214,
5.89048622548086,6.28318530717959,6.67588438887831,7.06858347057703,7.46128255227576),
 .UNSPECIFIED.);
#13=B_SPLINE_CURVE_WITH_KNOTS('',3,(#541,#542,#543,#544,#545,#546,#547,
#548,#549,#550,#551),.UNSPECIFIED.,.T.,.F.,(1,1,1,1,1,1,1,1,1,1,1,1,1,1,
1),(-0.375,-0.25,-0.125,0.,0.125,0.25,0.375,0.5,0.625,0.75,0.875,1.,1.125,
1.25,1.375),.UNSPECIFIED.);
#14=B_SPLINE_CURVE_WITH_KNOTS('',3,(#583,#584,#585,#586,#587,#588,#589,
#590,#591,#592,#593,#594,#595,#596,#597,#598,#599,#600,#601),
 .UNSPECIFIED.,.T.,.F.,(1,1,1,1,1,1,1,1,1,1,1,1,1,1,1,1,1,1,1,1,1,1,1),
(-0.190789473684211,-0.128289473684211,-0.0657894736842105,0.,0.059375,
0.12171875,0.1842109375,0.246710546875,0.30921052734375,0.371710526367187,
0.434210526318359,0.496710526315918,0.559210526315796,0.62171052631579,
0.684210526315789,0.746710526315789,0.809210526315789,0.871710526315789,
0.934210526315789,1.,1.059375,1.12171875,1.1842109375),.UNSPECIFIED.);
#15=PLANE('',#395);
#16=PLANE('',#401);
#17=PLANE('',#402);
#18=PLANE('',#403);
#19=PLANE('',#404);
#20=PLANE('',#405);
#21=PLANE('',#406);
#22=PLANE('',#407);
#23=PLANE('',#408);
#24=PLANE('',#409);
#25=PLANE('',#410);
#26=PLANE('',#411);
#27=PLANE('',#412);
#28=PLANE('',#413);
#29=PLANE('',#414);
#30=PLANE('',#415);
#31=PLANE('',#416);
#32=CIRCLE('',#390,0.00662153341332279);
#33=CIRCLE('',#391,0.00662153341332279);
#34=CIRCLE('',#393,0.00662153341332279);
#35=CIRCLE('',#394,0.00662153341332279);
#36=CIRCLE('',#396,0.00575);
#37=CIRCLE('',#398,0.00575);
#38=CIRCLE('',#399,0.00575);
#39=CIRCLE('',#400,0.00575);
#40=ORIENTED_EDGE('',*,*,#140,.F.);
#41=ORIENTED_EDGE('',*,*,#141,.F.);
#42=ORIENTED_EDGE('',*,*,#142,.T.);
#43=ORIENTED_EDGE('',*,*,#143,.T.);
#44=ORIENTED_EDGE('',*,*,#144,.F.);
#45=ORIENTED_EDGE('',*,*,#145,.T.);
#46=ORIENTED_EDGE('',*,*,#146,.T.);
#47=ORIENTED_EDGE('',*,*,#147,.F.);
#48=ORIENTED_EDGE('',*,*,#146,.F.);
#49=ORIENTED_EDGE('',*,*,#148,.T.);
#50=ORIENTED_EDGE('',*,*,#149,.F.);
#51=ORIENTED_EDGE('',*,*,#150,.T.);
#52=ORIENTED_EDGE('',*,*,#151,.T.);
#53=ORIENTED_EDGE('',*,*,#149,.T.);
#54=ORIENTED_EDGE('',*,*,#152,.F.);
#55=ORIENTED_EDGE('',*,*,#153,.T.);
#56=ORIENTED_EDGE('',*,*,#154,.T.);
#57=ORIENTED_EDGE('',*,*,#155,.T.);
#58=ORIENTED_EDGE('',*,*,#156,.F.);
#59=ORIENTED_EDGE('',*,*,#157,.T.);
#60=ORIENTED_EDGE('',*,*,#158,.T.);
#61=ORIENTED_EDGE('',*,*,#159,.F.);
#62=ORIENTED_EDGE('',*,*,#160,.F.);
#63=ORIENTED_EDGE('',*,*,#161,.T.);
#64=ORIENTED_EDGE('',*,*,#162,.T.);
#65=ORIENTED_EDGE('',*,*,#163,.T.);
#66=ORIENTED_EDGE('',*,*,#164,.F.);
#67=ORIENTED_EDGE('',*,*,#165,.F.);
#68=ORIENTED_EDGE('',*,*,#166,.F.);
#69=ORIENTED_EDGE('',*,*,#167,.T.);
#70=ORIENTED_EDGE('',*,*,#168,.F.);
#71=ORIENTED_EDGE('',*,*,#144,.T.);
#72=ORIENTED_EDGE('',*,*,#169,.F.);
#73=ORIENTED_EDGE('',*,*,#157,.F.);
#74=ORIENTED_EDGE('',*,*,#170,.F.);
#75=ORIENTED_EDGE('',*,*,#141,.T.);
#76=ORIENTED_EDGE('',*,*,#171,.F.);
#77=ORIENTED_EDGE('',*,*,#153,.F.);
#78=ORIENTED_EDGE('',*,*,#155,.F.);
#79=ORIENTED_EDGE('',*,*,#172,.T.);
#80=ORIENTED_EDGE('',*,*,#143,.F.);
#81=ORIENTED_EDGE('',*,*,#173,.T.);
#82=ORIENTED_EDGE('',*,*,#151,.F.);
#83=ORIENTED_EDGE('',*,*,#167,.F.);
#84=ORIENTED_EDGE('',*,*,#169,.T.);
#85=ORIENTED_EDGE('',*,*,#147,.T.);
#86=ORIENTED_EDGE('',*,*,#150,.F.);
#87=ORIENTED_EDGE('',*,*,#158,.F.);
#88=ORIENTED_EDGE('',*,*,#170,.T.);
#89=ORIENTED_EDGE('',*,*,#156,.T.);
#90=ORIENTED_EDGE('',*,*,#173,.F.);
#91=ORIENTED_EDGE('',*,*,#142,.F.);
#92=ORIENTED_EDGE('',*,*,#171,.T.);
#93=ORIENTED_EDGE('',*,*,#140,.T.);
#94=ORIENTED_EDGE('',*,*,#172,.F.);
#95=ORIENTED_EDGE('',*,*,#154,.F.);
#96=ORIENTED_EDGE('',*,*,#168,.T.);
#97=ORIENTED_EDGE('',*,*,#152,.T.);
#98=ORIENTED_EDGE('',*,*,#148,.F.);
#99=ORIENTED_EDGE('',*,*,#145,.F.);
#100=ORIENTED_EDGE('',*,*,#159,.T.);
#101=ORIENTED_EDGE('',*,*,#174,.F.);
#102=ORIENTED_EDGE('',*,*,#175,.F.);
#103=ORIENTED_EDGE('',*,*,#176,.T.);
#104=ORIENTED_EDGE('',*,*,#166,.T.);
#105=ORIENTED_EDGE('',*,*,#177,.F.);
#106=ORIENTED_EDGE('',*,*,#178,.F.);
#107=ORIENTED_EDGE('',*,*,#174,.T.);
#108=ORIENTED_EDGE('',*,*,#165,.T.);
#109=ORIENTED_EDGE('',*,*,#179,.F.);
#110=ORIENTED_EDGE('',*,*,#180,.F.);
#111=ORIENTED_EDGE('',*,*,#177,.T.);
#112=ORIENTED_EDGE('',*,*,#164,.T.);
#113=ORIENTED_EDGE('',*,*,#181,.F.);
#114=ORIENTED_EDGE('',*,*,#182,.F.);
#115=ORIENTED_EDGE('',*,*,#179,.T.);
#116=ORIENTED_EDGE('',*,*,#163,.F.);
#117=ORIENTED_EDGE('',*,*,#183,.F.);
#118=ORIENTED_EDGE('',*,*,#184,.T.);
#119=ORIENTED_EDGE('',*,*,#181,.T.);
#120=ORIENTED_EDGE('',*,*,#162,.F.);
#121=ORIENTED_EDGE('',*,*,#185,.F.);
#122=ORIENTED_EDGE('',*,*,#186,.T.);
#123=ORIENTED_EDGE('',*,*,#183,.T.);
#124=ORIENTED_EDGE('',*,*,#161,.F.);
#125=ORIENTED_EDGE('',*,*,#187,.F.);
#126=ORIENTED_EDGE('',*,*,#188,.T.);
#127=ORIENTED_EDGE('',*,*,#185,.T.);
#128=ORIENTED_EDGE('',*,*,#160,.T.);
#129=ORIENTED_EDGE('',*,*,#176,.F.);
#130=ORIENTED_EDGE('',*,*,#189,.F.);
#131=ORIENTED_EDGE('',*,*,#187,.T.);
#132=ORIENTED_EDGE('',*,*,#175,.T.);
#133=ORIENTED_EDGE('',*,*,#178,.T.);
#134=ORIENTED_EDGE('',*,*,#180,.T.);
#135=ORIENTED_EDGE('',*,*,#182,.T.);
#136=ORIENTED_EDGE('',*,*,#184,.F.);
#137=ORIENTED_EDGE('',*,*,#186,.F.);
#138=ORIENTED_EDGE('',*,*,#188,.F.);
#139=ORIENTED_EDGE('',*,*,#189,.T.);
#140=EDGE_CURVE('',#190,#191,#224,.T.);
#141=EDGE_CURVE('',#192,#190,#32,.T.);
#142=EDGE_CURVE('',#192,#193,#225,.T.);
#143=EDGE_CURVE('',#193,#191,#33,.T.);
#144=EDGE_CURVE('',#194,#195,#34,.T.);
#145=EDGE_CURVE('',#194,#196,#226,.T.);
#146=EDGE_CURVE('',#196,#197,#35,.T.);
#147=EDGE_CURVE('',#195,#197,#227,.T.);
#148=EDGE_CURVE('',#196,#198,#228,.T.);
#149=EDGE_CURVE('',#199,#198,#36,.T.);
#150=EDGE_CURVE('',#199,#197,#229,.T.);
#151=EDGE_CURVE('',#200,#200,#13,.T.);
#152=EDGE_CURVE('',#201,#198,#230,.T.);
#153=EDGE_CURVE('',#201,#202,#37,.F.);
#154=EDGE_CURVE('',#202,#203,#231,.T.);
#155=EDGE_CURVE('',#203,#204,#38,.T.);
#156=EDGE_CURVE('',#205,#204,#232,.T.);
#157=EDGE_CURVE('',#205,#206,#39,.F.);
#158=EDGE_CURVE('',#206,#199,#233,.T.);
#159=EDGE_CURVE('',#207,#208,#234,.T.);
#160=EDGE_CURVE('',#209,#207,#235,.T.);
#161=EDGE_CURVE('',#209,#210,#236,.T.);
#162=EDGE_CURVE('',#210,#211,#237,.T.);
#163=EDGE_CURVE('',#211,#212,#238,.T.);
#164=EDGE_CURVE('',#213,#212,#239,.T.);
#165=EDGE_CURVE('',#214,#213,#240,.T.);
#166=EDGE_CURVE('',#208,#214,#241,.T.);
#167=EDGE_CURVE('',#215,#215,#14,.T.);
#168=EDGE_CURVE('',#194,#201,#242,.T.);
#169=EDGE_CURVE('',#206,#195,#243,.T.);
#170=EDGE_CURVE('',#192,#205,#244,.T.);
#171=EDGE_CURVE('',#202,#190,#245,.T.);
#172=EDGE_CURVE('',#203,#191,#246,.T.);
#173=EDGE_CURVE('',#193,#204,#247,.T.);
#174=EDGE_CURVE('',#216,#208,#248,.T.);
#175=EDGE_CURVE('',#217,#216,#249,.T.);
#176=EDGE_CURVE('',#217,#207,#250,.T.);
#177=EDGE_CURVE('',#218,#214,#251,.T.);
#178=EDGE_CURVE('',#216,#218,#252,.T.);
#179=EDGE_CURVE('',#219,#213,#253,.T.);
#180=EDGE_CURVE('',#218,#219,#254,.T.);
#181=EDGE_CURVE('',#220,#212,#255,.T.);
#182=EDGE_CURVE('',#219,#220,#256,.T.);
#183=EDGE_CURVE('',#221,#211,#257,.T.);
#184=EDGE_CURVE('',#221,#220,#258,.T.);
#185=EDGE_CURVE('',#222,#210,#259,.T.);
#186=EDGE_CURVE('',#222,#221,#260,.T.);
#187=EDGE_CURVE('',#223,#209,#261,.T.);
#188=EDGE_CURVE('',#223,#222,#262,.T.);
#189=EDGE_CURVE('',#223,#217,#263,.T.);
#190=VERTEX_POINT('',#518);
#191=VERTEX_POINT('',#519);
#192=VERTEX_POINT('',#521);
#193=VERTEX_POINT('',#523);
#194=VERTEX_POINT('',#527);
#195=VERTEX_POINT('',#528);
#196=VERTEX_POINT('',#530);
#197=VERTEX_POINT('',#532);
#198=VERTEX_POINT('',#536);
#199=VERTEX_POINT('',#538);
#200=VERTEX_POINT('',#552);
#201=VERTEX_POINT('',#554);
#202=VERTEX_POINT('',#556);
#203=VERTEX_POINT('',#558);
#204=VERTEX_POINT('',#560);
#205=VERTEX_POINT('',#562);
#206=VERTEX_POINT('',#564);
#207=VERTEX_POINT('',#568);
#208=VERTEX_POINT('',#569);
#209=VERTEX_POINT('',#571);
#210=VERTEX_POINT('',#573);
#211=VERTEX_POINT('',#575);
#212=VERTEX_POINT('',#577);
#213=VERTEX_POINT('',#579);
#214=VERTEX_POINT('',#581);
#215=VERTEX_POINT('',#602);
#216=VERTEX_POINT('',#693);
#217=VERTEX_POINT('',#695);
#218=VERTEX_POINT('',#699);
#219=VERTEX_POINT('',#703);
#220=VERTEX_POINT('',#707);
#221=VERTEX_POINT('',#711);
#222=VERTEX_POINT('',#715);
#223=VERTEX_POINT('',#719);
#224=LINE('',#517,#264);
#225=LINE('',#522,#265);
#226=LINE('',#529,#266);
#227=LINE('',#533,#267);
#228=LINE('',#535,#268);
#229=LINE('',#539,#269);
#230=LINE('',#553,#270);
#231=LINE('',#557,#271);
#232=LINE('',#561,#272);
#233=LINE('',#565,#273);
#234=LINE('',#567,#274);
#235=LINE('',#570,#275);
#236=LINE('',#572,#276);
#237=LINE('',#574,#277);
#238=LINE('',#576,#278);
#239=LINE('',#578,#279);
#240=LINE('',#580,#280);
#241=LINE('',#582,#281);
#242=LINE('',#604,#282);
#243=LINE('',#605,#283);
#244=LINE('',#606,#284);
#245=LINE('',#607,#285);
#246=LINE('',#609,#286);
#247=LINE('',#610,#287);
#248=LINE('',#692,#288);
#249=LINE('',#694,#289);
#250=LINE('',#696,#290);
#251=LINE('',#698,#291);
#252=LINE('',#700,#292);
#253=LINE('',#702,#293);
#254=LINE('',#704,#294);
#255=LINE('',#706,#295);
#256=LINE('',#708,#296);
#257=LINE('',#710,#297);
#258=LINE('',#712,#298);
#259=LINE('',#714,#299);
#260=LINE('',#716,#300);
#261=LINE('',#718,#301);
#262=LINE('',#720,#302);
#263=LINE('',#722,#303);
#264=VECTOR('',#421,1.);
#265=VECTOR('',#424,1.);
#266=VECTOR('',#431,1.);
#267=VECTOR('',#434,1.);
#268=VECTOR('',#437,1.);
#269=VECTOR('',#440,1.);
#270=VECTOR('',#443,1.);
#271=VECTOR('',#446,1.);
#272=VECTOR('',#449,1.);
#273=VECTOR('',#452,1.);
#274=VECTOR('',#455,1.);
#275=VECTOR('',#456,1.);
#276=VECTOR('',#457,1.);
#277=VECTOR('',#458,1.);
#278=VECTOR('',#459,1.);
#279=VECTOR('',#460,1.);
#280=VECTOR('',#461,1.);
#281=VECTOR('',#462,1.);
#282=VECTOR('',#465,1.);
#283=VECTOR('',#466,1.);
#284=VECTOR('',#467,1.);
#285=VECTOR('',#468,1.);
#286=VECTOR('',#471,1.);
#287=VECTOR('',#472,1.);
#288=VECTOR('',#483,1.);
#289=VECTOR('',#484,1.);
#290=VECTOR('',#485,1.);
#291=VECTOR('',#488,1.);
#292=VECTOR('',#489,1.);
#293=VECTOR('',#492,1.);
#294=VECTOR('',#493,1.);
#295=VECTOR('',#496,1.);
#296=VECTOR('',#497,1.);
#297=VECTOR('',#500,1.);
#298=VECTOR('',#501,1.);
#299=VECTOR('',#504,1.);
#300=VECTOR('',#505,1.);
#301=VECTOR('',#508,1.);
#302=VECTOR('',#509,1.);
#303=VECTOR('',#512,1.);
#304=EDGE_LOOP('',(#40,#41,#42,#43));
#305=EDGE_LOOP('',(#44,#45,#46,#47));
#306=EDGE_LOOP('',(#48,#49,#50,#51));
#307=EDGE_LOOP('',(#52));
#308=EDGE_LOOP('',(#53,#54,#55,#56,#57,#58,#59,#60));
#309=EDGE_LOOP('',(#61,#62,#63,#64,#65,#66,#67,#68));
#310=EDGE_LOOP('',(#69));
#311=EDGE_LOOP('',(#70,#71,#72,#73,#74,#75,#76,#77));
#312=EDGE_LOOP('',(#78,#79,#80,#81));
#313=EDGE_LOOP('',(#82));
#314=EDGE_LOOP('',(#83));
#315=EDGE_LOOP('',(#84,#85,#86,#87));
#316=EDGE_LOOP('',(#88,#89,#90,#91));
#317=EDGE_LOOP('',(#92,#93,#94,#95));
#318=EDGE_LOOP('',(#96,#97,#98,#99));
#319=EDGE_LOOP('',(#100,#101,#102,#103));
#320=EDGE_LOOP('',(#104,#105,#106,#107));
#321=EDGE_LOOP('',(#108,#109,#110,#111));
#322=EDGE_LOOP('',(#112,#113,#114,#115));
#323=EDGE_LOOP('',(#116,#117,#118,#119));
#324=EDGE_LOOP('',(#120,#121,#122,#123));
#325=EDGE_LOOP('',(#124,#125,#126,#127));
#326=EDGE_LOOP('',(#128,#129,#130,#131));
#327=EDGE_LOOP('',(#132,#133,#134,#135,#136,#137,#138,#139));
#328=FACE_BOUND('',#304,.T.);
#329=FACE_BOUND('',#305,.T.);
#330=FACE_BOUND('',#306,.T.);
#331=FACE_BOUND('',#307,.T.);
#332=FACE_BOUND('',#308,.T.);
#333=FACE_BOUND('',#309,.T.);
#334=FACE_BOUND('',#310,.T.);
#335=FACE_BOUND('',#311,.T.);
#336=FACE_BOUND('',#312,.T.);
#337=FACE_BOUND('',#313,.T.);
#338=FACE_BOUND('',#314,.T.);
#339=FACE_BOUND('',#315,.T.);
#340=FACE_BOUND('',#316,.T.);
#341=FACE_BOUND('',#317,.T.);
#342=FACE_BOUND('',#318,.T.);
#343=FACE_BOUND('',#319,.T.);
#344=FACE_BOUND('',#320,.T.);
#345=FACE_BOUND('',#321,.T.);
#346=FACE_BOUND('',#322,.T.);
#347=FACE_BOUND('',#323,.T.);
#348=FACE_BOUND('',#324,.T.);
#349=FACE_BOUND('',#325,.T.);
#350=FACE_BOUND('',#326,.T.);
#351=FACE_BOUND('',#327,.T.);
#352=CYLINDRICAL_SURFACE('',#389,0.00662153341332279);
#353=CYLINDRICAL_SURFACE('',#392,0.00662153341332279);
#354=CYLINDRICAL_SURFACE('',#397,0.00575);
#355=ADVANCED_FACE('',(#328),#352,.T.);
#356=ADVANCED_FACE('',(#329),#353,.T.);
#357=ADVANCED_FACE('',(#330),#15,.F.);
#358=ADVANCED_FACE('',(#331,#332),#354,.T.);
#359=ADVANCED_FACE('',(#333,#334),#16,.T.);
#360=ADVANCED_FACE('',(#335),#17,.T.);
#361=ADVANCED_FACE('',(#336),#18,.F.);
#362=ADVANCED_FACE('',(#337,#338),#12,.T.);
#363=ADVANCED_FACE('',(#339),#19,.T.);
#364=ADVANCED_FACE('',(#340),#20,.T.);
#365=ADVANCED_FACE('',(#341),#21,.T.);
#366=ADVANCED_FACE('',(#342),#22,.T.);
#367=ADVANCED_FACE('',(#343),#23,.F.);
#368=ADVANCED_FACE('',(#344),#24,.F.);
#369=ADVANCED_FACE('',(#345),#25,.F.);
#370=ADVANCED_FACE('',(#346),#26,.F.);
#371=ADVANCED_FACE('',(#347),#27,.T.);
#372=ADVANCED_FACE('',(#348),#28,.T.);
#373=ADVANCED_FACE('',(#349),#29,.T.);
#374=ADVANCED_FACE('',(#350),#30,.F.);
#375=ADVANCED_FACE('',(#351),#31,.T.);
#376=CLOSED_SHELL('',(#355,#356,#357,#358,#359,#360,#361,#362,#363,#364,
#365,#366,#367,#368,#369,#370,#371,#372,#373,#374,#375));
#377=STYLED_ITEM('',(#378),#385);
#378=PRESENTATION_STYLE_ASSIGNMENT((#379));
#379=SURFACE_STYLE_USAGE(.BOTH.,#380);
#380=SURFACE_SIDE_STYLE('',(#381));
#381=SURFACE_STYLE_FILL_AREA(#382);
#382=FILL_AREA_STYLE('',(#383));
#383=FILL_AREA_STYLE_COLOUR('',#384);
#384=COLOUR_RGB('',0.682352941176471,0.333333333333334,0.737254901960784);
#385=MANIFOLD_SOLID_BREP('Part 6',#376);
#386=SHAPE_DEFINITION_REPRESENTATION(#730,#387);
#387=SHAPE_REPRESENTATION('Part 6',(#388),#725);
#388=AXIS2_PLACEMENT_3D('',#515,#417,#418);
#389=AXIS2_PLACEMENT_3D('',#516,#419,#420);
#390=AXIS2_PLACEMENT_3D('',#520,#422,#423);
#391=AXIS2_PLACEMENT_3D('',#524,#425,#426);
#392=AXIS2_PLACEMENT_3D('',#525,#427,#428);
#393=AXIS2_PLACEMENT_3D('',#526,#429,#430);
#394=AXIS2_PLACEMENT_3D('',#531,#432,#433);
#395=AXIS2_PLACEMENT_3D('',#534,#435,#436);
#396=AXIS2_PLACEMENT_3D('',#537,#438,#439);
#397=AXIS2_PLACEMENT_3D('',#540,#441,#442);
#398=AXIS2_PLACEMENT_3D('',#555,#444,#445);
#399=AXIS2_PLACEMENT_3D('',#559,#447,#448);
#400=AXIS2_PLACEMENT_3D('',#563,#450,#451);
#401=AXIS2_PLACEMENT_3D('',#566,#453,#454);
#402=AXIS2_PLACEMENT_3D('',#603,#463,#464);
#403=AXIS2_PLACEMENT_3D('',#608,#469,#470);
#404=AXIS2_PLACEMENT_3D('',#687,#473,#474);
#405=AXIS2_PLACEMENT_3D('',#688,#475,#476);
#406=AXIS2_PLACEMENT_3D('',#689,#477,#478);
#407=AXIS2_PLACEMENT_3D('',#690,#479,#480);
#408=AXIS2_PLACEMENT_3D('',#691,#481,#482);
#409=AXIS2_PLACEMENT_3D('',#697,#486,#487);
#410=AXIS2_PLACEMENT_3D('',#701,#490,#491);
#411=AXIS2_PLACEMENT_3D('',#705,#494,#495);
#412=AXIS2_PLACEMENT_3D('',#709,#498,#499);
#413=AXIS2_PLACEMENT_3D('',#713,#502,#503);
#414=AXIS2_PLACEMENT_3D('',#717,#506,#507);
#415=AXIS2_PLACEMENT_3D('',#721,#510,#511);
#416=AXIS2_PLACEMENT_3D('',#723,#513,#514);
#417=DIRECTION('',(0.,0.,1.));
#418=DIRECTION('',(1.,0.,0.));
#419=DIRECTION('',(0.,0.,1.));
#420=DIRECTION('',(1.,0.,0.));
#421=DIRECTION('',(0.,0.,1.));
#422=DIRECTION('',(0.,0.,-1.));
#423=DIRECTION('',(-1.,0.,0.));
#424=DIRECTION('',(0.,0.,1.));
#425=DIRECTION('',(0.,0.,-1.));
#426=DIRECTION('',(-1.,0.,0.));
#427=DIRECTION('',(0.,0.,1.));
#428=DIRECTION('',(1.,0.,0.));
#429=DIRECTION('',(0.,0.,-1.));
#430=DIRECTION('',(-1.,0.,0.));
#431=DIRECTION('',(0.,0.,1.));
#432=DIRECTION('',(0.,0.,-1.));
#433=DIRECTION('',(-1.,0.,0.));
#434=DIRECTION('',(0.,0.,1.));
#435=DIRECTION('',(0.,0.,-1.));
#436=DIRECTION('',(1.,0.,0.));
#437=DIRECTION('',(1.,3.71639862219125E-16,0.));
#438=DIRECTION('',(0.,0.,1.));
#439=DIRECTION('',(1.,0.,0.));
#440=DIRECTION('',(1.,3.71639862219125E-16,0.));
#441=DIRECTION('',(0.,0.,-1.));
#442=DIRECTION('',(-1.,0.,0.));
#443=DIRECTION('',(0.,0.,1.));
#444=DIRECTION('',(0.,0.,-1.));
#445=DIRECTION('',(-1.,0.,0.));
#446=DIRECTION('',(0.,0.,1.));
#447=DIRECTION('',(0.,0.,1.));
#448=DIRECTION('',(1.,0.,0.));
#449=DIRECTION('',(0.,0.,1.));
#450=DIRECTION('',(0.,0.,-1.));
#451=DIRECTION('',(-1.,0.,0.));
#452=DIRECTION('',(0.,0.,1.));
#453=DIRECTION('',(0.,0.,1.));
#454=DIRECTION('',(1.,0.,0.));
#455=DIRECTION('',(0.529185146906786,0.848506381999124,0.));
#456=DIRECTION('',(1.,0.,0.));
#457=DIRECTION('',(-0.529185146906786,0.848506381999124,0.));
#458=DIRECTION('',(1.,0.,0.));
#459=DIRECTION('',(0.,1.,0.));
#460=DIRECTION('',(-1.,0.,0.));
#461=DIRECTION('',(0.,1.,0.));
#462=DIRECTION('',(-1.,0.,0.));
#463=DIRECTION('',(0.,0.,-1.));
#464=DIRECTION('',(1.,0.,0.));
#465=DIRECTION('',(1.,3.71639862219125E-16,0.));
#466=DIRECTION('',(1.,3.71639862219125E-16,0.));
#467=DIRECTION('',(-1.,-1.33894854141351E-16,0.));
#468=DIRECTION('',(-1.,-1.33894854141351E-16,0.));
#469=DIRECTION('',(0.,0.,-1.));
#470=DIRECTION('',(1.,0.,0.));
#471=DIRECTION('',(-1.,-1.33894854141351E-16,0.));
#472=DIRECTION('',(-1.,-1.33894854141351E-16,0.));
#473=DIRECTION('',(3.71639862219125E-16,-1.,0.));
#474=DIRECTION('',(1.,3.71639862219125E-16,0.));
#475=DIRECTION('',(-1.33894854141351E-16,1.,0.));
#476=DIRECTION('',(-1.,-1.33894854141351E-16,0.));
#477=DIRECTION('',(-1.33894854141351E-16,1.,0.));
#478=DIRECTION('',(-1.,-1.33894854141351E-16,0.));
#479=DIRECTION('',(3.71639862219125E-16,-1.,0.));
#480=DIRECTION('',(1.,3.71639862219125E-16,0.));
#481=DIRECTION('',(0.848506381999124,-0.529185146906786,0.));
#482=DIRECTION('',(0.529185146906786,0.848506381999124,0.));
#483=DIRECTION('',(0.,0.,1.));
#484=DIRECTION('',(0.529185146906786,0.848506381999124,0.));
#485=DIRECTION('',(0.,0.,1.));
#486=DIRECTION('',(0.,1.,0.));
#487=DIRECTION('',(0.,0.,1.));
#488=DIRECTION('',(0.,0.,1.));
#489=DIRECTION('',(-1.,0.,0.));
#490=DIRECTION('',(1.,0.,0.));
#491=DIRECTION('',(0.,0.,-1.));
#492=DIRECTION('',(0.,0.,1.));
#493=DIRECTION('',(0.,1.,0.));
#494=DIRECTION('',(0.,1.,0.));
#495=DIRECTION('',(0.,0.,1.));
#496=DIRECTION('',(0.,0.,1.));
#497=DIRECTION('',(-1.,0.,0.));
#498=DIRECTION('',(1.,0.,0.));
#499=DIRECTION('',(0.,0.,-1.));
#500=DIRECTION('',(0.,0.,1.));
#501=DIRECTION('',(0.,1.,0.));
#502=DIRECTION('',(0.,-1.,0.));
#503=DIRECTION('',(0.,0.,-1.));
#504=DIRECTION('',(0.,0.,1.));
#505=DIRECTION('',(1.,0.,0.));
#506=DIRECTION('',(0.848506381999124,0.529185146906786,0.));
#507=DIRECTION('',(-0.529185146906786,0.848506381999124,0.));
#508=DIRECTION('',(0.,0.,1.));
#509=DIRECTION('',(-0.529185146906786,0.848506381999124,0.));
#510=DIRECTION('',(0.,-1.,0.));
#511=DIRECTION('',(0.,0.,-1.));
#512=DIRECTION('',(1.,0.,0.));
#513=DIRECTION('',(0.,0.,1.));
#514=DIRECTION('',(1.,0.,0.));
#515=CARTESIAN_POINT('',(0.,0.,0.));
#516=CARTESIAN_POINT('',(0.025,-0.0201284665866772,-0.0015));
#517=CARTESIAN_POINT('',(0.0185220681664678,-0.0215,-0.001502));
#518=CARTESIAN_POINT('',(0.0185220681664678,-0.0215,-0.0015));
#519=CARTESIAN_POINT('',(0.0185220681664678,-0.0215,0.));
#520=CARTESIAN_POINT('',(0.025,-0.0201284665866772,-0.0015));
#521=CARTESIAN_POINT('',(0.0314779318335321,-0.0215,-0.0015));
#522=CARTESIAN_POINT('',(0.0314779318335321,-0.0215,-0.001502));
#523=CARTESIAN_POINT('',(0.0314779318335321,-0.0215,0.));
#524=CARTESIAN_POINT('',(0.025,-0.0201284665866772,0.));
#525=CARTESIAN_POINT('',(0.025,-0.0201284665866772,-0.0015));
#526=CARTESIAN_POINT('',(0.025,-0.0201284665866772,-0.0015));
#527=CARTESIAN_POINT('',(0.0185818381665912,-0.0185,-0.0015));
#528=CARTESIAN_POINT('',(0.0314181618334088,-0.0185,-0.0015));
#529=CARTESIAN_POINT('',(0.0185818381665912,-0.0185,-0.001502));
#530=CARTESIAN_POINT('',(0.0185818381665912,-0.0185,0.));
#531=CARTESIAN_POINT('',(0.025,-0.0201284665866772,0.));
#532=CARTESIAN_POINT('',(0.0314181618334088,-0.0185,0.));
#533=CARTESIAN_POINT('',(0.0314181618334088,-0.0185,-0.001502));
#534=CARTESIAN_POINT('',(0.025,-0.0201284665866772,0.));
#535=CARTESIAN_POINT('',(0.025,-0.0185,0.));
#536=CARTESIAN_POINT('',(0.0194490991722064,-0.0185,0.));
#537=CARTESIAN_POINT('',(0.025,-0.02,0.));
#538=CARTESIAN_POINT('',(0.0305509008277936,-0.0185,0.));
#539=CARTESIAN_POINT('',(0.025,-0.0185,0.));
#540=CARTESIAN_POINT('',(0.025,-0.02,0.005));
#541=CARTESIAN_POINT('',(0.0295057668431245,-0.0154942331568755,0.003));
#542=CARTESIAN_POINT('',(0.0313721165784377,-0.02,0.003));
#543=CARTESIAN_POINT('',(0.0295057668431245,-0.0245057668431245,0.003));
#544=CARTESIAN_POINT('',(0.025,-0.0263721165784377,0.003));
#545=CARTESIAN_POINT('',(0.0204942331568755,-0.0245057668431245,0.003));
#546=CARTESIAN_POINT('',(0.0186278834215623,-0.02,0.003));
#547=CARTESIAN_POINT('',(0.0204942331568755,-0.0154942331568755,0.003));
#548=CARTESIAN_POINT('',(0.025,-0.0136278834215623,0.003));
#549=CARTESIAN_POINT('',(0.0295057668431245,-0.0154942331568755,0.003));
#550=CARTESIAN_POINT('',(0.0313721165784377,-0.02,0.003));
#551=CARTESIAN_POINT('',(0.0295057668431245,-0.0245057668431245,0.003));
#552=CARTESIAN_POINT('',(0.03075,-0.02,0.003));
#553=CARTESIAN_POINT('',(0.0194490991722064,-0.0185,-0.001502));
#554=CARTESIAN_POINT('',(0.0194490991722064,-0.0185,-0.0015));
#555=CARTESIAN_POINT('',(0.025,-0.02,-0.0015));
#556=CARTESIAN_POINT('',(0.0194490991722064,-0.0215,-0.0015));
#557=CARTESIAN_POINT('',(0.0194490991722064,-0.0215,-0.001502));
#558=CARTESIAN_POINT('',(0.0194490991722064,-0.0215,0.));
#559=CARTESIAN_POINT('',(0.025,-0.02,0.));
#560=CARTESIAN_POINT('',(0.0305509008277936,-0.0215,0.));
#561=CARTESIAN_POINT('',(0.0305509008277936,-0.0215,-0.001502));
#562=CARTESIAN_POINT('',(0.0305509008277936,-0.0215,-0.0015));
#563=CARTESIAN_POINT('',(0.025,-0.02,-0.0015));
#564=CARTESIAN_POINT('',(0.0305509008277936,-0.0185,-0.0015));
#565=CARTESIAN_POINT('',(0.0305509008277936,-0.0185,-0.001502));
#566=CARTESIAN_POINT('',(0.025,-0.02,0.005));
#567=CARTESIAN_POINT('',(0.0261855,-0.02175,0.005));
#568=CARTESIAN_POINT('',(0.02525,-0.02325,0.005));
#569=CARTESIAN_POINT('',(0.027121,-0.02025,0.005));
#570=CARTESIAN_POINT('',(0.024875,-0.02325,0.005));
#571=CARTESIAN_POINT('',(0.02475,-0.02325,0.005));
#572=CARTESIAN_POINT('',(0.0238145,-0.02175,0.005));
#573=CARTESIAN_POINT('',(0.022879,-0.02025,0.005));
#574=CARTESIAN_POINT('',(0.023586,-0.0202499999999996,0.005));
#575=CARTESIAN_POINT('',(0.024293,-0.0202499999999996,0.005));
#576=CARTESIAN_POINT('',(0.024293,-0.0185,0.005));
#577=CARTESIAN_POINT('',(0.024293,-0.01675,0.005));
#578=CARTESIAN_POINT('',(0.0253535,-0.01675,0.005));
#579=CARTESIAN_POINT('',(0.025707,-0.01675,0.005));
#580=CARTESIAN_POINT('',(0.0257070000000004,-0.0185,0.005));
#581=CARTESIAN_POINT('',(0.0257070000000004,-0.02025,0.005));
#582=CARTESIAN_POINT('',(0.026414,-0.02025,0.005));
#583=CARTESIAN_POINT('',(0.028538381925606,-0.021525295936876,0.005));
#584=CARTESIAN_POINT('',(0.0288476260335593,-0.0200497868549382,0.005));
#585=CARTESIAN_POINT('',(0.0285699338012724,-0.0185790137267273,0.005));
#586=CARTESIAN_POINT('',(0.0277759086000617,-0.0173359111535431,0.005));
#587=CARTESIAN_POINT('',(0.0265463814523786,-0.0164768243854813,0.005));
#588=CARTESIAN_POINT('',(0.0250804760570883,-0.0161531929609774,0.005));
#589=CARTESIAN_POINT('',(0.0236022431904412,-0.0164152236259583,0.005));
#590=CARTESIAN_POINT('',(0.0223368067852791,-0.017222994433578,0.005));
#591=CARTESIAN_POINT('',(0.021476816248877,-0.0184535419327805,0.005));
#592=CARTESIAN_POINT('',(0.0211531987532029,-0.0199195228798451,0.005));
#593=CARTESIAN_POINT('',(0.0214152218652614,-0.0213977561729043,0.005));
#594=CARTESIAN_POINT('',(0.0222229947376154,-0.0226631928054749,0.005));
#595=CARTESIAN_POINT('',(0.0234535423567064,-0.0235231858572221,0.005));
#596=CARTESIAN_POINT('',(0.0249195208713263,-0.0238467932262155,0.005));
#597=CARTESIAN_POINT('',(0.0263977637825441,-0.0235848081108829,0.005));
#598=CARTESIAN_POINT('',(0.0276631643754092,-0.0227768933783949,0.005));
#599=CARTESIAN_POINT('',(0.028538381925606,-0.021525295936876,0.005));
#600=CARTESIAN_POINT('',(0.0288476260335593,-0.0200497868549382,0.005));
#601=CARTESIAN_POINT('',(0.0285699338012724,-0.0185790137267273,0.005));
#602=CARTESIAN_POINT('',(0.02875,-0.02,0.005));
#603=CARTESIAN_POINT('',(0.025,-0.0201284665866772,-0.0015));
#604=CARTESIAN_POINT('',(0.025,-0.0185,-0.0015));
#605=CARTESIAN_POINT('',(0.025,-0.0185,-0.0015));
#606=CARTESIAN_POINT('',(0.025,-0.0215,-0.0015));
#607=CARTESIAN_POINT('',(0.025,-0.0215,-0.0015));
#608=CARTESIAN_POINT('',(0.025,-0.0201284665866772,0.));
#609=CARTESIAN_POINT('',(0.025,-0.0215,0.));
#610=CARTESIAN_POINT('',(0.025,-0.0215,0.));
#611=CARTESIAN_POINT('',(0.021445257016871,-0.0185275650319544,0.005));
#612=CARTESIAN_POINT('',(0.0211523714915645,-0.02,0.005));
#613=CARTESIAN_POINT('',(0.0214452570168711,-0.0214724349680456,0.005));
#614=CARTESIAN_POINT('',(0.0222793244265767,-0.0227207050598624,0.005));
#615=CARTESIAN_POINT('',(0.0235275945183935,-0.023554772469568,0.005));
#616=CARTESIAN_POINT('',(0.0250000294864391,-0.0238476579948745,0.005));
#617=CARTESIAN_POINT('',(0.0264724644544847,-0.0235547724695679,0.005));
#618=CARTESIAN_POINT('',(0.0277207345463015,-0.0227207050598623,0.005));
#619=CARTESIAN_POINT('',(0.0285548019560071,-0.0214724349680454,0.005));
#620=CARTESIAN_POINT('',(0.0288476874813136,-0.0199999999999998,0.005));
#621=CARTESIAN_POINT('',(0.028554801956007,-0.0185275650319543,0.005));
#622=CARTESIAN_POINT('',(0.0277207345463014,-0.0172792949401374,0.005));
#623=CARTESIAN_POINT('',(0.0264724644544845,-0.0164452275304319,0.005));
#624=CARTESIAN_POINT('',(0.025000029486439,-0.0161523420051254,0.005));
#625=CARTESIAN_POINT('',(0.0235275945183934,-0.0164452275304319,0.005));
#626=CARTESIAN_POINT('',(0.0222793244265766,-0.0172792949401376,0.005));
#627=CARTESIAN_POINT('',(0.021445257016871,-0.0185275650319544,0.005));
#628=CARTESIAN_POINT('',(0.0211523714915645,-0.02,0.005));
#629=CARTESIAN_POINT('',(0.0214452570168711,-0.0214724349680456,0.005));
#630=CARTESIAN_POINT('',(0.0201813478547616,-0.0180040367154011,0.005));
#631=CARTESIAN_POINT('',(0.0197843260726192,-0.02,0.005));
#632=CARTESIAN_POINT('',(0.0201813478547617,-0.0219959632845989,0.005));
#633=CARTESIAN_POINT('',(0.0213119702338693,-0.0236880592525698,0.005));
#634=CARTESIAN_POINT('',(0.0230040662018402,-0.0248186816316773,0.005));
#635=CARTESIAN_POINT('',(0.0250000294864391,-0.0252157034138197,0.005));
#636=CARTESIAN_POINT('',(0.026995992771038,-0.0248186816316773,0.00500000000000001));
#637=CARTESIAN_POINT('',(0.0286880887390089,-0.0236880592525697,0.005));
#638=CARTESIAN_POINT('',(0.0298187111181165,-0.0219959632845987,0.005));
#639=CARTESIAN_POINT('',(0.0302157329002589,-0.0199999999999998,0.005));
#640=CARTESIAN_POINT('',(0.0298187111181164,-0.018004036715401,0.005));
#641=CARTESIAN_POINT('',(0.0286880887390088,-0.01631194074743,0.005));
#642=CARTESIAN_POINT('',(0.0269959927710379,-0.0151813183683225,0.005));
#643=CARTESIAN_POINT('',(0.025000029486439,-0.0147842965861801,0.005));
#644=CARTESIAN_POINT('',(0.0230040662018401,-0.0151813183683226,0.005));
#645=CARTESIAN_POINT('',(0.0213119702338691,-0.0163119407474302,0.00500000000000001));
#646=CARTESIAN_POINT('',(0.0201813478547616,-0.0180040367154011,0.005));
#647=CARTESIAN_POINT('',(0.0197843260726192,-0.02,0.005));
#648=CARTESIAN_POINT('',(0.0201813478547617,-0.0219959632845989,0.005));
#649=CARTESIAN_POINT('',(0.0195493932737069,-0.0177422725571245,0.00433333333333334));
#650=CARTESIAN_POINT('',(0.0191003033631465,-0.02,0.00433333333333333));
#651=CARTESIAN_POINT('',(0.019549393273707,-0.0222577274428756,0.00433333333333334));
#652=CARTESIAN_POINT('',(0.0208282931375155,-0.0241717363489235,0.00433333333333333));
#653=CARTESIAN_POINT('',(0.0227423020435636,-0.0254506362127321,0.00433333333333334));
#654=CARTESIAN_POINT('',(0.0250000294864391,-0.0258997261232925,0.00433333333333333));
#655=CARTESIAN_POINT('',(0.0272577569293147,-0.025450636212732,0.00433333333333333));
#656=CARTESIAN_POINT('',(0.0291717658353626,-0.0241717363489234,0.00433333333333333));
#657=CARTESIAN_POINT('',(0.0304506656991712,-0.0222577274428754,0.00433333333333333));
#658=CARTESIAN_POINT('',(0.0308997556097316,-0.0199999999999998,0.00433333333333333));
#659=CARTESIAN_POINT('',(0.0304506656991711,-0.0177422725571243,0.00433333333333333));
#660=CARTESIAN_POINT('',(0.0291717658353626,-0.0158282636510763,0.00433333333333333));
#661=CARTESIAN_POINT('',(0.0272577569293145,-0.0145493637872678,0.00433333333333333));
#662=CARTESIAN_POINT('',(0.025000029486439,-0.0141002738767074,0.00433333333333333));
#663=CARTESIAN_POINT('',(0.0227423020435634,-0.0145493637872678,0.00433333333333333));
#664=CARTESIAN_POINT('',(0.0208282931375154,-0.0158282636510764,0.00433333333333333));
#665=CARTESIAN_POINT('',(0.0195493932737069,-0.0177422725571245,0.00433333333333334));
#666=CARTESIAN_POINT('',(0.0191003033631465,-0.02,0.00433333333333333));
#667=CARTESIAN_POINT('',(0.019549393273707,-0.0222577274428756,0.00433333333333334));
#668=CARTESIAN_POINT('',(0.0195493932737069,-0.0177422725571245,0.003));
#669=CARTESIAN_POINT('',(0.0191003033631465,-0.02,0.003));
#670=CARTESIAN_POINT('',(0.019549393273707,-0.0222577274428756,0.003));
#671=CARTESIAN_POINT('',(0.0208282931375155,-0.0241717363489235,0.003));
#672=CARTESIAN_POINT('',(0.0227423020435636,-0.0254506362127321,0.003));
#673=CARTESIAN_POINT('',(0.0250000294864391,-0.0258997261232924,0.003));
#674=CARTESIAN_POINT('',(0.0272577569293147,-0.025450636212732,0.003));
#675=CARTESIAN_POINT('',(0.0291717658353626,-0.0241717363489234,0.003));
#676=CARTESIAN_POINT('',(0.0304506656991712,-0.0222577274428754,0.003));
#677=CARTESIAN_POINT('',(0.0308997556097315,-0.0199999999999998,0.003));
#678=CARTESIAN_POINT('',(0.0304506656991711,-0.0177422725571243,0.003));
#679=CARTESIAN_POINT('',(0.0291717658353625,-0.0158282636510763,0.003));
#680=CARTESIAN_POINT('',(0.0272577569293145,-0.0145493637872678,0.003));
#681=CARTESIAN_POINT('',(0.025000029486439,-0.0141002738767074,0.003));
#682=CARTESIAN_POINT('',(0.0227423020435634,-0.0145493637872679,0.003));
#683=CARTESIAN_POINT('',(0.0208282931375154,-0.0158282636510764,0.003));
#684=CARTESIAN_POINT('',(0.0195493932737069,-0.0177422725571245,0.003));
#685=CARTESIAN_POINT('',(0.0191003033631465,-0.02,0.003));
#686=CARTESIAN_POINT('',(0.019549393273707,-0.0222577274428756,0.003));
#687=CARTESIAN_POINT('',(0.025,-0.0185,-0.001502));
#688=CARTESIAN_POINT('',(0.025,-0.0215,-0.001502));
#689=CARTESIAN_POINT('',(0.025,-0.0215,-0.001502));
#690=CARTESIAN_POINT('',(0.025,-0.0185,-0.001502));
#691=CARTESIAN_POINT('',(0.0261855,-0.02175,0.004));
#692=CARTESIAN_POINT('',(0.027121,-0.02025,0.004));
#693=CARTESIAN_POINT('',(0.027121,-0.02025,0.004));
#694=CARTESIAN_POINT('',(0.0261855,-0.02175,0.004));
#695=CARTESIAN_POINT('',(0.02525,-0.02325,0.004));
#696=CARTESIAN_POINT('',(0.02525,-0.02325,0.004));
#697=CARTESIAN_POINT('',(0.026414,-0.02025,0.004));
#698=CARTESIAN_POINT('',(0.0257070000000004,-0.02025,0.004));
#699=CARTESIAN_POINT('',(0.0257070000000004,-0.02025,0.004));
#700=CARTESIAN_POINT('',(0.026414,-0.02025,0.004));
#701=CARTESIAN_POINT('',(0.0257070000000004,-0.0185,0.004));
#702=CARTESIAN_POINT('',(0.025707,-0.01675,0.004));
#703=CARTESIAN_POINT('',(0.025707,-0.01675,0.004));
#704=CARTESIAN_POINT('',(0.0257070000000004,-0.0185,0.004));
#705=CARTESIAN_POINT('',(0.0253535,-0.01675,0.004));
#706=CARTESIAN_POINT('',(0.024293,-0.01675,0.004));
#707=CARTESIAN_POINT('',(0.024293,-0.01675,0.004));
#708=CARTESIAN_POINT('',(0.0253535,-0.01675,0.004));
#709=CARTESIAN_POINT('',(0.024293,-0.0185,0.004));
#710=CARTESIAN_POINT('',(0.024293,-0.0202499999999996,0.004));
#711=CARTESIAN_POINT('',(0.024293,-0.0202499999999996,0.004));
#712=CARTESIAN_POINT('',(0.024293,-0.0185,0.004));
#713=CARTESIAN_POINT('',(0.023586,-0.0202499999999996,0.004));
#714=CARTESIAN_POINT('',(0.022879,-0.02025,0.004));
#715=CARTESIAN_POINT('',(0.022879,-0.02025,0.004));
#716=CARTESIAN_POINT('',(0.023586,-0.0202499999999996,0.004));
#717=CARTESIAN_POINT('',(0.0238145,-0.02175,0.004));
#718=CARTESIAN_POINT('',(0.02475,-0.02325,0.004));
#719=CARTESIAN_POINT('',(0.02475,-0.02325,0.004));
#720=CARTESIAN_POINT('',(0.0238145,-0.02175,0.004));
#721=CARTESIAN_POINT('',(0.024875,-0.02325,0.004));
#722=CARTESIAN_POINT('',(0.024875,-0.02325,0.004));
#723=CARTESIAN_POINT('',(0.0261621644641273,-0.0279750306723765,0.004));
#724=MECHANICAL_DESIGN_GEOMETRIC_PRESENTATION_REPRESENTATION('',(#377),
#725);
#725=(
GEOMETRIC_REPRESENTATION_CONTEXT(3)
GLOBAL_UNCERTAINTY_ASSIGNED_CONTEXT((#726))
GLOBAL_UNIT_ASSIGNED_CONTEXT((#729,#728,#727))
REPRESENTATION_CONTEXT('Part 6','TOP_LEVEL_ASSEMBLY_PART')
);
#726=UNCERTAINTY_MEASURE_WITH_UNIT(LENGTH_MEASURE(2.E-5),#729,
'DISTANCE_ACCURACY_VALUE','Maximum Tolerance applied to model');
#727=(
NAMED_UNIT(*)
SI_UNIT($,.STERADIAN.)
SOLID_ANGLE_UNIT()
);
#728=(
NAMED_UNIT(*)
PLANE_ANGLE_UNIT()
SI_UNIT($,.RADIAN.)
);
#729=(
LENGTH_UNIT()
NAMED_UNIT(*)
SI_UNIT($,.METRE.)
);
#730=PRODUCT_DEFINITION_SHAPE('','',#731);
#731=PRODUCT_DEFINITION('','',#733,#732);
#732=PRODUCT_DEFINITION_CONTEXT('',#739,'design');
#733=PRODUCT_DEFINITION_FORMATION_WITH_SPECIFIED_SOURCE('','',#735,
 .NOT_KNOWN.);
#734=PRODUCT_RELATED_PRODUCT_CATEGORY('','',(#735));
#735=PRODUCT('Part 6','Part 6','Part 6',(#737));
#736=PRODUCT_CATEGORY('','');
#737=PRODUCT_CONTEXT('',#739,'mechanical');
#738=APPLICATION_PROTOCOL_DEFINITION('international standard',
'ap242_managed_model_based_3d_engineering',2020,#739);
#739=APPLICATION_CONTEXT('managed model based 3d engineering');
ENDSEC;
END-ISO-10303-21;
