ISO-10303-21;
HEADER;
/* Generated by software containing ST-Developer
 * from STEP Tools, Inc. (www.steptools.com) 
 */
/* OPTION: using custom renumber hook */

FILE_DESCRIPTION(
/* description */ ('STEP AP242 Edition 2',
'CAx-IF Rec.Pracs.---Representation and Presentation of Product Manufa
cturing Information (PMI)---4.0---2014-10-13',
'CAx-IF Rec.Pracs.---3D Tessellated Geometry---0.4---2014-09-14','2;1',
'CAx-IF Rec.Pracs.---User Defined Attributes---1.5---2016-08-15'),
/* implementation_level */ '2;1');

FILE_NAME(
/* name */ 'S_BUTTONS - Part 2',
/* time_stamp */ '2026-09-23T14:42:51Z',
/* author */ (''),
/* organization */ (''),
/* preprocessor_version */ 'ST-DEVELOPER v20',
/* originating_system */ 'ONSHAPE BY PTC INC, 1.221',
/* authorisation */ '  ');

FILE_SCHEMA (('AP242_MANAGED_MODEL_BASED_3D_ENGINEERING_MIM_LF { 1 0 10303 442 3 1 4 }'));
ENDSEC;

DATA;
#10=SHAPE_REPRESENTATION_RELATIONSHIP('','',#703,#11);
#11=ADVANCED_BREP_SHAPE_REPRESENTATION('',(#701),#1334);
#12=B_SPLINE_SURFACE_WITH_KNOTS('',3,3,((#993,#994,#995,#996,#997,#998,
#999,#1000,#1001,#1002,#1003,#1004,#1005,#1006,#1007,#1008,#1009,#1010,
#1011),(#1012,#1013,#1014,#1015,#1016,#1017,#1018,#1019,#1020,#1021,#1022,
#1023,#1024,#1025,#1026,#1027,#1028,#1029,#1030),(#1031,#1032,#1033,#1034,
#1035,#1036,#1037,#1038,#1039,#1040,#1041,#1042,#1043,#1044,#1045,#1046,
#1047,#1048,#1049),(#1050,#1051,#1052,#1053,#1054,#1055,#1056,#1057,#1058,
#1059,#1060,#1061,#1062,#1063,#1064,#1065,#1066,#1067,#1068)),
 .UNSPECIFIED.,.F.,.T.,.F.,(4,4),(1,1,1,1,1,1,1,1,1,1,1,1,1,1,1,1,1,1,1,
1,1,1,1),(0.,1.),(-1.17809724509617,-0.785398163397448,-0.392699081698725,
0.,0.392699081698724,0.785398163397448,1.17809724509617,1.5707963267949,
1.96349540849362,2.35619449019234,2.74889357189107,3.14159265358979,3.53429173528852,
3.92699081698724,4.31968989868597,4.71238898038469,5.10508806208341,5.49778714378214,
5.89048622548086,6.28318530717959,6.67588438887831,7.06858347057703,7.46128255227576),
 .UNSPECIFIED.);
#13=B_SPLINE_SURFACE_WITH_KNOTS('',3,1,((#1094,#1095),(#1096,#1097),(#1098,
#1099),(#1100,#1101)),.SURF_OF_LINEAR_EXTRUSION.,.F.,.F.,.F.,(4,4),(2,2),
(0.,1.),(0.,1.),.PIECEWISE_BEZIER_KNOTS.);
#14=B_SPLINE_SURFACE_WITH_KNOTS('',3,1,((#1111,#1112),(#1113,#1114),(#1115,
#1116),(#1117,#1118)),.SURF_OF_LINEAR_EXTRUSION.,.F.,.F.,.F.,(4,4),(2,2),
(0.,1.),(0.,1.),.PIECEWISE_BEZIER_KNOTS.);
#15=B_SPLINE_SURFACE_WITH_KNOTS('',3,1,((#1143,#1144),(#1145,#1146),(#1147,
#1148),(#1149,#1150)),.SURF_OF_LINEAR_EXTRUSION.,.F.,.F.,.F.,(4,4),(2,2),
(0.,1.),(0.,1.),.PIECEWISE_BEZIER_KNOTS.);
#16=B_SPLINE_SURFACE_WITH_KNOTS('',3,1,((#1160,#1161),(#1162,#1163),(#1164,
#1165),(#1166,#1167)),.SURF_OF_LINEAR_EXTRUSION.,.F.,.F.,.F.,(4,4),(2,2),
(0.,1.),(0.,1.),.PIECEWISE_BEZIER_KNOTS.);
#17=B_SPLINE_SURFACE_WITH_KNOTS('',3,1,((#1177,#1178),(#1179,#1180),(#1181,
#1182),(#1183,#1184)),.SURF_OF_LINEAR_EXTRUSION.,.F.,.F.,.F.,(4,4),(2,2),
(0.,1.),(0.,1.),.PIECEWISE_BEZIER_KNOTS.);
#18=B_SPLINE_SURFACE_WITH_KNOTS('',3,1,((#1204,#1205),(#1206,#1207),(#1208,
#1209),(#1210,#1211)),.SURF_OF_LINEAR_EXTRUSION.,.F.,.F.,.F.,(4,4),(2,2),
(0.,1.),(0.,1.),.PIECEWISE_BEZIER_KNOTS.);
#19=B_SPLINE_SURFACE_WITH_KNOTS('',3,1,((#1217,#1218),(#1219,#1220),(#1221,
#1222),(#1223,#1224)),.SURF_OF_LINEAR_EXTRUSION.,.F.,.F.,.F.,(4,4),(2,2),
(0.,1.),(0.,1.),.PIECEWISE_BEZIER_KNOTS.);
#20=B_SPLINE_SURFACE_WITH_KNOTS('',3,1,((#1230,#1231),(#1232,#1233),(#1234,
#1235),(#1236,#1237)),.SURF_OF_LINEAR_EXTRUSION.,.F.,.F.,.F.,(4,4),(2,2),
(0.,1.),(0.,1.),.PIECEWISE_BEZIER_KNOTS.);
#21=B_SPLINE_SURFACE_WITH_KNOTS('',3,1,((#1259,#1260),(#1261,#1262),(#1263,
#1264),(#1265,#1266)),.SURF_OF_LINEAR_EXTRUSION.,.F.,.F.,.F.,(4,4),(2,2),
(0.,1.),(0.,1.),.PIECEWISE_BEZIER_KNOTS.);
#22=B_SPLINE_SURFACE_WITH_KNOTS('',3,1,((#1272,#1273),(#1274,#1275),(#1276,
#1277),(#1278,#1279)),.SURF_OF_LINEAR_EXTRUSION.,.F.,.F.,.F.,(4,4),(2,2),
(0.,1.),(0.,1.),.PIECEWISE_BEZIER_KNOTS.);
#23=B_SPLINE_SURFACE_WITH_KNOTS('',3,1,((#1285,#1286),(#1287,#1288),(#1289,
#1290),(#1291,#1292)),.SURF_OF_LINEAR_EXTRUSION.,.F.,.F.,.F.,(4,4),(2,2),
(0.,1.),(0.,1.),.PIECEWISE_BEZIER_KNOTS.);
#24=B_SPLINE_SURFACE_WITH_KNOTS('',3,1,((#1303,#1304),(#1305,#1306),(#1307,
#1308),(#1309,#1310)),.SURF_OF_LINEAR_EXTRUSION.,.F.,.F.,.F.,(4,4),(2,2),
(0.,1.),(0.,1.),.PIECEWISE_BEZIER_KNOTS.);
#25=B_SPLINE_SURFACE_WITH_KNOTS('',3,1,((#1325,#1326),(#1327,#1328),(#1329,
#1330),(#1331,#1332)),.SURF_OF_LINEAR_EXTRUSION.,.F.,.F.,.F.,(4,4),(2,2),
(-3.48930476469586E-6,1.00000427788075),(0.,1.),
 .PIECEWISE_BEZIER_KNOTS.);
#26=CYLINDRICAL_SURFACE('',#708,0.00662153341332279);
#27=CYLINDRICAL_SURFACE('',#711,0.00662153341332279);
#28=CYLINDRICAL_SURFACE('',#716,0.00575);
#29=CYLINDRICAL_SURFACE('',#733,0.00112599279118612);
#30=CYLINDRICAL_SURFACE('',#735,0.00118599699007051);
#31=LINE('',#918,#87);
#32=LINE('',#920,#88);
#33=LINE('',#922,#89);
#34=LINE('',#936,#90);
#35=LINE('',#941,#91);
#36=LINE('',#948,#92);
#37=LINE('',#952,#93);
#38=LINE('',#954,#94);
#39=LINE('',#958,#95);
#40=LINE('',#972,#96);
#41=LINE('',#976,#97);
#42=LINE('',#980,#98);
#43=LINE('',#984,#99);
#44=LINE('',#986,#100);
#45=LINE('',#987,#101);
#46=LINE('',#988,#102);
#47=LINE('',#989,#103);
#48=LINE('',#991,#104);
#49=LINE('',#992,#105);
#50=LINE('',#1074,#106);
#51=LINE('',#1077,#107);
#52=LINE('',#1079,#108);
#53=LINE('',#1081,#109);
#54=LINE('',#1083,#110);
#55=LINE('',#1085,#111);
#56=LINE('',#1087,#112);
#57=LINE('',#1089,#113);
#58=LINE('',#1091,#114);
#59=LINE('',#1093,#115);
#60=LINE('',#1106,#116);
#61=LINE('',#1123,#117);
#62=LINE('',#1129,#118);
#63=LINE('',#1132,#119);
#64=LINE('',#1134,#120);
#65=LINE('',#1136,#121);
#66=LINE('',#1138,#122);
#67=LINE('',#1140,#123);
#68=LINE('',#1142,#124);
#69=LINE('',#1155,#125);
#70=LINE('',#1172,#126);
#71=LINE('',#1189,#127);
#72=LINE('',#1195,#128);
#73=LINE('',#1197,#129);
#74=LINE('',#1199,#130);
#75=LINE('',#1201,#131);
#76=LINE('',#1203,#132);
#77=LINE('',#1212,#133);
#78=LINE('',#1225,#134);
#79=LINE('',#1238,#135);
#80=LINE('',#1258,#136);
#81=LINE('',#1267,#137);
#82=LINE('',#1280,#138);
#83=LINE('',#1293,#139);
#84=LINE('',#1299,#140);
#85=LINE('',#1300,#141);
#86=LINE('',#1302,#142);
#87=VECTOR('',#750,1.);
#88=VECTOR('',#751,1.);
#89=VECTOR('',#752,1.);
#90=VECTOR('',#755,1.);
#91=VECTOR('',#758,1.);
#92=VECTOR('',#765,1.);
#93=VECTOR('',#768,1.);
#94=VECTOR('',#771,1.);
#95=VECTOR('',#774,1.);
#96=VECTOR('',#777,1.);
#97=VECTOR('',#780,1.);
#98=VECTOR('',#783,1.);
#99=VECTOR('',#786,1.);
#100=VECTOR('',#789,1.);
#101=VECTOR('',#790,1.);
#102=VECTOR('',#791,1.);
#103=VECTOR('',#792,1.);
#104=VECTOR('',#795,1.);
#105=VECTOR('',#796,1.);
#106=VECTOR('',#807,1.);
#107=VECTOR('',#808,1.);
#108=VECTOR('',#809,1.);
#109=VECTOR('',#810,1.);
#110=VECTOR('',#813,1.);
#111=VECTOR('',#814,1.);
#112=VECTOR('',#815,1.);
#113=VECTOR('',#818,1.);
#114=VECTOR('',#819,1.);
#115=VECTOR('',#820,1.);
#116=VECTOR('',#821,1.);
#117=VECTOR('',#822,1.);
#118=VECTOR('',#825,1.);
#119=VECTOR('',#826,1.);
#120=VECTOR('',#827,1.);
#121=VECTOR('',#828,1.);
#122=VECTOR('',#831,1.);
#123=VECTOR('',#832,1.);
#124=VECTOR('',#833,1.);
#125=VECTOR('',#834,1.);
#126=VECTOR('',#835,1.);
#127=VECTOR('',#836,1.);
#128=VECTOR('',#839,1.);
#129=VECTOR('',#840,1.);
#130=VECTOR('',#841,1.);
#131=VECTOR('',#844,1.);
#132=VECTOR('',#845,1.);
#133=VECTOR('',#846,1.);
#134=VECTOR('',#847,1.);
#135=VECTOR('',#848,1.);
#136=VECTOR('',#857,1.);
#137=VECTOR('',#858,1.);
#138=VECTOR('',#859,1.);
#139=VECTOR('',#860,1.);
#140=VECTOR('',#863,1.);
#141=VECTOR('',#864,1.);
#142=VECTOR('',#867,1.);
#143=CIRCLE('',#706,0.00118599699007051);
#144=CIRCLE('',#707,0.00112599279118612);
#145=CIRCLE('',#709,0.00662153341332279);
#146=CIRCLE('',#710,0.00662153341332279);
#147=CIRCLE('',#712,0.00662153341332279);
#148=CIRCLE('',#713,0.00662153341332279);
#149=CIRCLE('',#715,0.00575);
#150=CIRCLE('',#717,0.00575);
#151=CIRCLE('',#718,0.00575);
#152=CIRCLE('',#719,0.00575);
#153=CIRCLE('',#734,0.00112599279118612);
#154=CIRCLE('',#736,0.00118599699007051);
#155=ORIENTED_EDGE('',*,*,#351,.T.);
#156=ORIENTED_EDGE('',*,*,#352,.T.);
#157=ORIENTED_EDGE('',*,*,#353,.T.);
#158=ORIENTED_EDGE('',*,*,#354,.T.);
#159=ORIENTED_EDGE('',*,*,#355,.T.);
#160=ORIENTED_EDGE('',*,*,#356,.T.);
#161=ORIENTED_EDGE('',*,*,#357,.T.);
#162=ORIENTED_EDGE('',*,*,#358,.T.);
#163=ORIENTED_EDGE('',*,*,#359,.T.);
#164=ORIENTED_EDGE('',*,*,#360,.T.);
#165=ORIENTED_EDGE('',*,*,#361,.T.);
#166=ORIENTED_EDGE('',*,*,#362,.T.);
#167=ORIENTED_EDGE('',*,*,#363,.T.);
#168=ORIENTED_EDGE('',*,*,#364,.F.);
#169=ORIENTED_EDGE('',*,*,#365,.F.);
#170=ORIENTED_EDGE('',*,*,#366,.T.);
#171=ORIENTED_EDGE('',*,*,#367,.T.);
#172=ORIENTED_EDGE('',*,*,#368,.F.);
#173=ORIENTED_EDGE('',*,*,#369,.T.);
#174=ORIENTED_EDGE('',*,*,#370,.T.);
#175=ORIENTED_EDGE('',*,*,#371,.F.);
#176=ORIENTED_EDGE('',*,*,#370,.F.);
#177=ORIENTED_EDGE('',*,*,#372,.T.);
#178=ORIENTED_EDGE('',*,*,#373,.F.);
#179=ORIENTED_EDGE('',*,*,#374,.T.);
#180=ORIENTED_EDGE('',*,*,#375,.T.);
#181=ORIENTED_EDGE('',*,*,#373,.T.);
#182=ORIENTED_EDGE('',*,*,#376,.F.);
#183=ORIENTED_EDGE('',*,*,#377,.T.);
#184=ORIENTED_EDGE('',*,*,#378,.T.);
#185=ORIENTED_EDGE('',*,*,#379,.T.);
#186=ORIENTED_EDGE('',*,*,#380,.F.);
#187=ORIENTED_EDGE('',*,*,#381,.T.);
#188=ORIENTED_EDGE('',*,*,#382,.T.);
#189=ORIENTED_EDGE('',*,*,#383,.F.);
#190=ORIENTED_EDGE('',*,*,#368,.T.);
#191=ORIENTED_EDGE('',*,*,#384,.F.);
#192=ORIENTED_EDGE('',*,*,#381,.F.);
#193=ORIENTED_EDGE('',*,*,#385,.F.);
#194=ORIENTED_EDGE('',*,*,#365,.T.);
#195=ORIENTED_EDGE('',*,*,#386,.F.);
#196=ORIENTED_EDGE('',*,*,#377,.F.);
#197=ORIENTED_EDGE('',*,*,#379,.F.);
#198=ORIENTED_EDGE('',*,*,#387,.T.);
#199=ORIENTED_EDGE('',*,*,#367,.F.);
#200=ORIENTED_EDGE('',*,*,#388,.T.);
#201=ORIENTED_EDGE('',*,*,#375,.F.);
#202=ORIENTED_EDGE('',*,*,#351,.F.);
#203=ORIENTED_EDGE('',*,*,#384,.T.);
#204=ORIENTED_EDGE('',*,*,#371,.T.);
#205=ORIENTED_EDGE('',*,*,#374,.F.);
#206=ORIENTED_EDGE('',*,*,#382,.F.);
#207=ORIENTED_EDGE('',*,*,#385,.T.);
#208=ORIENTED_EDGE('',*,*,#380,.T.);
#209=ORIENTED_EDGE('',*,*,#388,.F.);
#210=ORIENTED_EDGE('',*,*,#366,.F.);
#211=ORIENTED_EDGE('',*,*,#386,.T.);
#212=ORIENTED_EDGE('',*,*,#364,.T.);
#213=ORIENTED_EDGE('',*,*,#387,.F.);
#214=ORIENTED_EDGE('',*,*,#378,.F.);
#215=ORIENTED_EDGE('',*,*,#383,.T.);
#216=ORIENTED_EDGE('',*,*,#376,.T.);
#217=ORIENTED_EDGE('',*,*,#372,.F.);
#218=ORIENTED_EDGE('',*,*,#369,.F.);
#219=ORIENTED_EDGE('',*,*,#389,.F.);
#220=ORIENTED_EDGE('',*,*,#390,.F.);
#221=ORIENTED_EDGE('',*,*,#391,.T.);
#222=ORIENTED_EDGE('',*,*,#392,.T.);
#223=ORIENTED_EDGE('',*,*,#393,.F.);
#224=ORIENTED_EDGE('',*,*,#394,.F.);
#225=ORIENTED_EDGE('',*,*,#395,.T.);
#226=ORIENTED_EDGE('',*,*,#390,.T.);
#227=ORIENTED_EDGE('',*,*,#396,.F.);
#228=ORIENTED_EDGE('',*,*,#397,.F.);
#229=ORIENTED_EDGE('',*,*,#398,.T.);
#230=ORIENTED_EDGE('',*,*,#394,.T.);
#231=ORIENTED_EDGE('',*,*,#399,.F.);
#232=ORIENTED_EDGE('',*,*,#400,.F.);
#233=ORIENTED_EDGE('',*,*,#401,.T.);
#234=ORIENTED_EDGE('',*,*,#397,.T.);
#235=ORIENTED_EDGE('',*,*,#402,.F.);
#236=ORIENTED_EDGE('',*,*,#403,.F.);
#237=ORIENTED_EDGE('',*,*,#404,.T.);
#238=ORIENTED_EDGE('',*,*,#400,.T.);
#239=ORIENTED_EDGE('',*,*,#405,.F.);
#240=ORIENTED_EDGE('',*,*,#406,.F.);
#241=ORIENTED_EDGE('',*,*,#407,.T.);
#242=ORIENTED_EDGE('',*,*,#408,.T.);
#243=ORIENTED_EDGE('',*,*,#409,.F.);
#244=ORIENTED_EDGE('',*,*,#410,.F.);
#245=ORIENTED_EDGE('',*,*,#411,.T.);
#246=ORIENTED_EDGE('',*,*,#406,.T.);
#247=ORIENTED_EDGE('',*,*,#412,.F.);
#248=ORIENTED_EDGE('',*,*,#413,.F.);
#249=ORIENTED_EDGE('',*,*,#414,.T.);
#250=ORIENTED_EDGE('',*,*,#410,.T.);
#251=ORIENTED_EDGE('',*,*,#415,.F.);
#252=ORIENTED_EDGE('',*,*,#416,.F.);
#253=ORIENTED_EDGE('',*,*,#417,.T.);
#254=ORIENTED_EDGE('',*,*,#413,.T.);
#255=ORIENTED_EDGE('',*,*,#418,.F.);
#256=ORIENTED_EDGE('',*,*,#419,.F.);
#257=ORIENTED_EDGE('',*,*,#420,.T.);
#258=ORIENTED_EDGE('',*,*,#416,.T.);
#259=ORIENTED_EDGE('',*,*,#359,.F.);
#260=ORIENTED_EDGE('',*,*,#421,.F.);
#261=ORIENTED_EDGE('',*,*,#422,.T.);
#262=ORIENTED_EDGE('',*,*,#423,.T.);
#263=ORIENTED_EDGE('',*,*,#358,.F.);
#264=ORIENTED_EDGE('',*,*,#424,.F.);
#265=ORIENTED_EDGE('',*,*,#425,.T.);
#266=ORIENTED_EDGE('',*,*,#421,.T.);
#267=ORIENTED_EDGE('',*,*,#357,.F.);
#268=ORIENTED_EDGE('',*,*,#426,.F.);
#269=ORIENTED_EDGE('',*,*,#427,.T.);
#270=ORIENTED_EDGE('',*,*,#424,.T.);
#271=ORIENTED_EDGE('',*,*,#356,.F.);
#272=ORIENTED_EDGE('',*,*,#428,.F.);
#273=ORIENTED_EDGE('',*,*,#429,.T.);
#274=ORIENTED_EDGE('',*,*,#426,.T.);
#275=ORIENTED_EDGE('',*,*,#355,.F.);
#276=ORIENTED_EDGE('',*,*,#430,.F.);
#277=ORIENTED_EDGE('',*,*,#431,.T.);
#278=ORIENTED_EDGE('',*,*,#428,.T.);
#279=ORIENTED_EDGE('',*,*,#354,.F.);
#280=ORIENTED_EDGE('',*,*,#432,.T.);
#281=ORIENTED_EDGE('',*,*,#433,.T.);
#282=ORIENTED_EDGE('',*,*,#430,.T.);
#283=ORIENTED_EDGE('',*,*,#434,.T.);
#284=ORIENTED_EDGE('',*,*,#435,.T.);
#285=ORIENTED_EDGE('',*,*,#352,.F.);
#286=ORIENTED_EDGE('',*,*,#436,.F.);
#287=ORIENTED_EDGE('',*,*,#363,.F.);
#288=ORIENTED_EDGE('',*,*,#437,.F.);
#289=ORIENTED_EDGE('',*,*,#438,.T.);
#290=ORIENTED_EDGE('',*,*,#436,.T.);
#291=ORIENTED_EDGE('',*,*,#362,.F.);
#292=ORIENTED_EDGE('',*,*,#439,.F.);
#293=ORIENTED_EDGE('',*,*,#440,.T.);
#294=ORIENTED_EDGE('',*,*,#437,.T.);
#295=ORIENTED_EDGE('',*,*,#361,.F.);
#296=ORIENTED_EDGE('',*,*,#441,.F.);
#297=ORIENTED_EDGE('',*,*,#442,.T.);
#298=ORIENTED_EDGE('',*,*,#439,.T.);
#299=ORIENTED_EDGE('',*,*,#443,.F.);
#300=ORIENTED_EDGE('',*,*,#408,.F.);
#301=ORIENTED_EDGE('',*,*,#444,.T.);
#302=ORIENTED_EDGE('',*,*,#419,.T.);
#303=ORIENTED_EDGE('',*,*,#360,.F.);
#304=ORIENTED_EDGE('',*,*,#423,.F.);
#305=ORIENTED_EDGE('',*,*,#445,.T.);
#306=ORIENTED_EDGE('',*,*,#441,.T.);
#307=ORIENTED_EDGE('',*,*,#446,.F.);
#308=ORIENTED_EDGE('',*,*,#392,.F.);
#309=ORIENTED_EDGE('',*,*,#447,.T.);
#310=ORIENTED_EDGE('',*,*,#403,.T.);
#311=ORIENTED_EDGE('',*,*,#422,.F.);
#312=ORIENTED_EDGE('',*,*,#425,.F.);
#313=ORIENTED_EDGE('',*,*,#427,.F.);
#314=ORIENTED_EDGE('',*,*,#429,.F.);
#315=ORIENTED_EDGE('',*,*,#431,.F.);
#316=ORIENTED_EDGE('',*,*,#433,.F.);
#317=ORIENTED_EDGE('',*,*,#448,.T.);
#318=ORIENTED_EDGE('',*,*,#434,.F.);
#319=ORIENTED_EDGE('',*,*,#438,.F.);
#320=ORIENTED_EDGE('',*,*,#440,.F.);
#321=ORIENTED_EDGE('',*,*,#442,.F.);
#322=ORIENTED_EDGE('',*,*,#445,.F.);
#323=ORIENTED_EDGE('',*,*,#407,.F.);
#324=ORIENTED_EDGE('',*,*,#411,.F.);
#325=ORIENTED_EDGE('',*,*,#414,.F.);
#326=ORIENTED_EDGE('',*,*,#417,.F.);
#327=ORIENTED_EDGE('',*,*,#420,.F.);
#328=ORIENTED_EDGE('',*,*,#444,.F.);
#329=ORIENTED_EDGE('',*,*,#391,.F.);
#330=ORIENTED_EDGE('',*,*,#395,.F.);
#331=ORIENTED_EDGE('',*,*,#398,.F.);
#332=ORIENTED_EDGE('',*,*,#401,.F.);
#333=ORIENTED_EDGE('',*,*,#404,.F.);
#334=ORIENTED_EDGE('',*,*,#447,.F.);
#335=ORIENTED_EDGE('',*,*,#409,.T.);
#336=ORIENTED_EDGE('',*,*,#405,.T.);
#337=ORIENTED_EDGE('',*,*,#443,.T.);
#338=ORIENTED_EDGE('',*,*,#418,.T.);
#339=ORIENTED_EDGE('',*,*,#415,.T.);
#340=ORIENTED_EDGE('',*,*,#412,.T.);
#341=ORIENTED_EDGE('',*,*,#393,.T.);
#342=ORIENTED_EDGE('',*,*,#389,.T.);
#343=ORIENTED_EDGE('',*,*,#446,.T.);
#344=ORIENTED_EDGE('',*,*,#402,.T.);
#345=ORIENTED_EDGE('',*,*,#399,.T.);
#346=ORIENTED_EDGE('',*,*,#396,.T.);
#347=ORIENTED_EDGE('',*,*,#448,.F.);
#348=ORIENTED_EDGE('',*,*,#432,.F.);
#349=ORIENTED_EDGE('',*,*,#353,.F.);
#350=ORIENTED_EDGE('',*,*,#435,.F.);
#351=EDGE_CURVE('',#449,#449,#515,.T.);
#352=EDGE_CURVE('',#450,#451,#143,.F.);
#353=EDGE_CURVE('',#451,#452,#516,.T.);
#354=EDGE_CURVE('',#452,#453,#144,.T.);
#355=EDGE_CURVE('',#453,#454,#517,.T.);
#356=EDGE_CURVE('',#454,#455,#518,.T.);
#357=EDGE_CURVE('',#455,#456,#519,.T.);
#358=EDGE_CURVE('',#456,#457,#31,.T.);
#359=EDGE_CURVE('',#457,#458,#32,.T.);
#360=EDGE_CURVE('',#458,#459,#33,.T.);
#361=EDGE_CURVE('',#459,#460,#520,.T.);
#362=EDGE_CURVE('',#460,#461,#521,.T.);
#363=EDGE_CURVE('',#461,#450,#522,.T.);
#364=EDGE_CURVE('',#462,#463,#34,.T.);
#365=EDGE_CURVE('',#464,#462,#145,.T.);
#366=EDGE_CURVE('',#464,#465,#35,.T.);
#367=EDGE_CURVE('',#465,#463,#146,.T.);
#368=EDGE_CURVE('',#466,#467,#147,.T.);
#369=EDGE_CURVE('',#466,#468,#36,.T.);
#370=EDGE_CURVE('',#468,#469,#148,.T.);
#371=EDGE_CURVE('',#467,#469,#37,.T.);
#372=EDGE_CURVE('',#468,#470,#38,.T.);
#373=EDGE_CURVE('',#471,#470,#149,.T.);
#374=EDGE_CURVE('',#471,#469,#39,.T.);
#375=EDGE_CURVE('',#472,#472,#523,.T.);
#376=EDGE_CURVE('',#473,#470,#40,.T.);
#377=EDGE_CURVE('',#473,#474,#150,.F.);
#378=EDGE_CURVE('',#474,#475,#41,.T.);
#379=EDGE_CURVE('',#475,#476,#151,.T.);
#380=EDGE_CURVE('',#477,#476,#42,.T.);
#381=EDGE_CURVE('',#477,#478,#152,.F.);
#382=EDGE_CURVE('',#478,#471,#43,.T.);
#383=EDGE_CURVE('',#466,#473,#44,.T.);
#384=EDGE_CURVE('',#478,#467,#45,.T.);
#385=EDGE_CURVE('',#464,#477,#46,.T.);
#386=EDGE_CURVE('',#474,#462,#47,.T.);
#387=EDGE_CURVE('',#475,#463,#48,.T.);
#388=EDGE_CURVE('',#465,#476,#49,.T.);
#389=EDGE_CURVE('',#479,#480,#50,.T.);
#390=EDGE_CURVE('',#481,#479,#51,.T.);
#391=EDGE_CURVE('',#481,#482,#52,.T.);
#392=EDGE_CURVE('',#482,#480,#53,.T.);
#393=EDGE_CURVE('',#483,#479,#54,.T.);
#394=EDGE_CURVE('',#484,#483,#55,.T.);
#395=EDGE_CURVE('',#484,#481,#56,.T.);
#396=EDGE_CURVE('',#485,#483,#57,.T.);
#397=EDGE_CURVE('',#486,#485,#58,.T.);
#398=EDGE_CURVE('',#486,#484,#59,.T.);
#399=EDGE_CURVE('',#487,#485,#524,.T.);
#400=EDGE_CURVE('',#488,#487,#60,.T.);
#401=EDGE_CURVE('',#488,#486,#525,.T.);
#402=EDGE_CURVE('',#489,#487,#526,.T.);
#403=EDGE_CURVE('',#490,#489,#61,.T.);
#404=EDGE_CURVE('',#490,#488,#527,.T.);
#405=EDGE_CURVE('',#491,#492,#62,.T.);
#406=EDGE_CURVE('',#493,#491,#63,.T.);
#407=EDGE_CURVE('',#493,#494,#64,.T.);
#408=EDGE_CURVE('',#494,#492,#65,.T.);
#409=EDGE_CURVE('',#495,#491,#66,.T.);
#410=EDGE_CURVE('',#496,#495,#67,.T.);
#411=EDGE_CURVE('',#496,#493,#68,.T.);
#412=EDGE_CURVE('',#497,#495,#528,.T.);
#413=EDGE_CURVE('',#498,#497,#69,.T.);
#414=EDGE_CURVE('',#498,#496,#529,.T.);
#415=EDGE_CURVE('',#499,#497,#530,.T.);
#416=EDGE_CURVE('',#500,#499,#70,.T.);
#417=EDGE_CURVE('',#500,#498,#531,.T.);
#418=EDGE_CURVE('',#501,#499,#532,.T.);
#419=EDGE_CURVE('',#502,#501,#71,.T.);
#420=EDGE_CURVE('',#502,#500,#533,.T.);
#421=EDGE_CURVE('',#503,#457,#72,.T.);
#422=EDGE_CURVE('',#503,#504,#73,.T.);
#423=EDGE_CURVE('',#504,#458,#74,.T.);
#424=EDGE_CURVE('',#505,#456,#75,.T.);
#425=EDGE_CURVE('',#505,#503,#76,.T.);
#426=EDGE_CURVE('',#506,#455,#77,.T.);
#427=EDGE_CURVE('',#506,#505,#534,.T.);
#428=EDGE_CURVE('',#507,#454,#78,.T.);
#429=EDGE_CURVE('',#507,#506,#535,.T.);
#430=EDGE_CURVE('',#508,#453,#79,.T.);
#431=EDGE_CURVE('',#508,#507,#536,.T.);
#432=EDGE_CURVE('',#452,#509,#537,.T.);
#433=EDGE_CURVE('',#509,#508,#153,.T.);
#434=EDGE_CURVE('',#510,#511,#154,.F.);
#435=EDGE_CURVE('',#511,#451,#538,.T.);
#436=EDGE_CURVE('',#510,#450,#80,.T.);
#437=EDGE_CURVE('',#512,#461,#81,.T.);
#438=EDGE_CURVE('',#512,#510,#539,.T.);
#439=EDGE_CURVE('',#513,#460,#82,.T.);
#440=EDGE_CURVE('',#513,#512,#540,.T.);
#441=EDGE_CURVE('',#514,#459,#83,.T.);
#442=EDGE_CURVE('',#514,#513,#541,.T.);
#443=EDGE_CURVE('',#492,#501,#84,.T.);
#444=EDGE_CURVE('',#494,#502,#85,.T.);
#445=EDGE_CURVE('',#504,#514,#86,.T.);
#446=EDGE_CURVE('',#480,#489,#542,.T.);
#447=EDGE_CURVE('',#482,#490,#543,.T.);
#448=EDGE_CURVE('',#509,#511,#544,.T.);
#449=VERTEX_POINT('',#895);
#450=VERTEX_POINT('',#897);
#451=VERTEX_POINT('',#898);
#452=VERTEX_POINT('',#903);
#453=VERTEX_POINT('',#905);
#454=VERTEX_POINT('',#909);
#455=VERTEX_POINT('',#913);
#456=VERTEX_POINT('',#917);
#457=VERTEX_POINT('',#919);
#458=VERTEX_POINT('',#921);
#459=VERTEX_POINT('',#923);
#460=VERTEX_POINT('',#927);
#461=VERTEX_POINT('',#931);
#462=VERTEX_POINT('',#937);
#463=VERTEX_POINT('',#938);
#464=VERTEX_POINT('',#940);
#465=VERTEX_POINT('',#942);
#466=VERTEX_POINT('',#946);
#467=VERTEX_POINT('',#947);
#468=VERTEX_POINT('',#949);
#469=VERTEX_POINT('',#951);
#470=VERTEX_POINT('',#955);
#471=VERTEX_POINT('',#957);
#472=VERTEX_POINT('',#971);
#473=VERTEX_POINT('',#973);
#474=VERTEX_POINT('',#975);
#475=VERTEX_POINT('',#977);
#476=VERTEX_POINT('',#979);
#477=VERTEX_POINT('',#981);
#478=VERTEX_POINT('',#983);
#479=VERTEX_POINT('',#1075);
#480=VERTEX_POINT('',#1076);
#481=VERTEX_POINT('',#1078);
#482=VERTEX_POINT('',#1080);
#483=VERTEX_POINT('',#1084);
#484=VERTEX_POINT('',#1086);
#485=VERTEX_POINT('',#1090);
#486=VERTEX_POINT('',#1092);
#487=VERTEX_POINT('',#1105);
#488=VERTEX_POINT('',#1107);
#489=VERTEX_POINT('',#1122);
#490=VERTEX_POINT('',#1124);
#491=VERTEX_POINT('',#1130);
#492=VERTEX_POINT('',#1131);
#493=VERTEX_POINT('',#1133);
#494=VERTEX_POINT('',#1135);
#495=VERTEX_POINT('',#1139);
#496=VERTEX_POINT('',#1141);
#497=VERTEX_POINT('',#1154);
#498=VERTEX_POINT('',#1156);
#499=VERTEX_POINT('',#1171);
#500=VERTEX_POINT('',#1173);
#501=VERTEX_POINT('',#1188);
#502=VERTEX_POINT('',#1190);
#503=VERTEX_POINT('',#1196);
#504=VERTEX_POINT('',#1198);
#505=VERTEX_POINT('',#1202);
#506=VERTEX_POINT('',#1213);
#507=VERTEX_POINT('',#1226);
#508=VERTEX_POINT('',#1239);
#509=VERTEX_POINT('',#1248);
#510=VERTEX_POINT('',#1252);
#511=VERTEX_POINT('',#1253);
#512=VERTEX_POINT('',#1268);
#513=VERTEX_POINT('',#1281);
#514=VERTEX_POINT('',#1294);
#515=B_SPLINE_CURVE_WITH_KNOTS('',3,(#876,#877,#878,#879,#880,#881,#882,
#883,#884,#885,#886,#887,#888,#889,#890,#891,#892,#893,#894),
 .UNSPECIFIED.,.T.,.F.,(1,1,1,1,1,1,1,1,1,1,1,1,1,1,1,1,1,1,1,1,1,1,1),
(-0.190789473684211,-0.128289473684211,-0.0657894736842105,0.,0.059375,
0.12171875,0.1842109375,0.246710546875,0.30921052734375,0.371710526367187,
0.434210526318359,0.496710526315918,0.559210526315796,0.62171052631579,
0.684210526315789,0.746710526315789,0.809210526315789,0.871710526315789,
0.934210526315789,1.,1.059375,1.12171875,1.1842109375),.UNSPECIFIED.);
#516=B_SPLINE_CURVE_WITH_KNOTS('',3,(#899,#900,#901,#902),.UNSPECIFIED.,
 .F.,.F.,(4,4),(0.,1.),.UNSPECIFIED.);
#517=B_SPLINE_CURVE_WITH_KNOTS('',2,(#906,#907,#908),.UNSPECIFIED.,.F.,
 .F.,(3,3),(0.,1.),.PIECEWISE_BEZIER_KNOTS.);
#518=B_SPLINE_CURVE_WITH_KNOTS('',2,(#910,#911,#912),.UNSPECIFIED.,.F.,
 .F.,(3,3),(0.,1.),.PIECEWISE_BEZIER_KNOTS.);
#519=B_SPLINE_CURVE_WITH_KNOTS('',2,(#914,#915,#916),.UNSPECIFIED.,.F.,
 .F.,(3,3),(0.,1.),.PIECEWISE_BEZIER_KNOTS.);
#520=B_SPLINE_CURVE_WITH_KNOTS('',2,(#924,#925,#926),.UNSPECIFIED.,.F.,
 .F.,(3,3),(0.,1.),.PIECEWISE_BEZIER_KNOTS.);
#521=B_SPLINE_CURVE_WITH_KNOTS('',2,(#928,#929,#930),.UNSPECIFIED.,.F.,
 .F.,(3,3),(0.,1.),.PIECEWISE_BEZIER_KNOTS.);
#522=B_SPLINE_CURVE_WITH_KNOTS('',2,(#932,#933,#934),.UNSPECIFIED.,.F.,
 .F.,(3,3),(0.,1.),.PIECEWISE_BEZIER_KNOTS.);
#523=B_SPLINE_CURVE_WITH_KNOTS('',3,(#960,#961,#962,#963,#964,#965,#966,
#967,#968,#969,#970),.UNSPECIFIED.,.T.,.F.,(1,1,1,1,1,1,1,1,1,1,1,1,1,1,
1),(-0.375,-0.25,-0.125,0.,0.125,0.25,0.375,0.5,0.625,0.75,0.875,1.,1.125,
1.25,1.375),.UNSPECIFIED.);
#524=B_SPLINE_CURVE_WITH_KNOTS('',2,(#1102,#1103,#1104),.UNSPECIFIED.,.F.,
 .F.,(3,3),(0.,1.),.PIECEWISE_BEZIER_KNOTS.);
#525=B_SPLINE_CURVE_WITH_KNOTS('',2,(#1108,#1109,#1110),.UNSPECIFIED.,.F.,
 .F.,(3,3),(0.,1.),.PIECEWISE_BEZIER_KNOTS.);
#526=B_SPLINE_CURVE_WITH_KNOTS('',2,(#1119,#1120,#1121),.UNSPECIFIED.,.F.,
 .F.,(3,3),(0.,1.),.PIECEWISE_BEZIER_KNOTS.);
#527=B_SPLINE_CURVE_WITH_KNOTS('',2,(#1125,#1126,#1127),.UNSPECIFIED.,.F.,
 .F.,(3,3),(0.,1.),.PIECEWISE_BEZIER_KNOTS.);
#528=B_SPLINE_CURVE_WITH_KNOTS('',2,(#1151,#1152,#1153),.UNSPECIFIED.,.F.,
 .F.,(3,3),(0.,1.),.PIECEWISE_BEZIER_KNOTS.);
#529=B_SPLINE_CURVE_WITH_KNOTS('',2,(#1157,#1158,#1159),.UNSPECIFIED.,.F.,
 .F.,(3,3),(0.,1.),.PIECEWISE_BEZIER_KNOTS.);
#530=B_SPLINE_CURVE_WITH_KNOTS('',2,(#1168,#1169,#1170),.UNSPECIFIED.,.F.,
 .F.,(3,3),(0.,1.),.PIECEWISE_BEZIER_KNOTS.);
#531=B_SPLINE_CURVE_WITH_KNOTS('',2,(#1174,#1175,#1176),.UNSPECIFIED.,.F.,
 .F.,(3,3),(0.,1.),.PIECEWISE_BEZIER_KNOTS.);
#532=B_SPLINE_CURVE_WITH_KNOTS('',2,(#1185,#1186,#1187),.UNSPECIFIED.,.F.,
 .F.,(3,3),(0.,1.),.PIECEWISE_BEZIER_KNOTS.);
#533=B_SPLINE_CURVE_WITH_KNOTS('',2,(#1191,#1192,#1193),.UNSPECIFIED.,.F.,
 .F.,(3,3),(0.,1.),.PIECEWISE_BEZIER_KNOTS.);
#534=B_SPLINE_CURVE_WITH_KNOTS('',2,(#1214,#1215,#1216),.UNSPECIFIED.,.F.,
 .F.,(3,3),(0.,1.),.PIECEWISE_BEZIER_KNOTS.);
#535=B_SPLINE_CURVE_WITH_KNOTS('',2,(#1227,#1228,#1229),.UNSPECIFIED.,.F.,
 .F.,(3,3),(0.,1.),.PIECEWISE_BEZIER_KNOTS.);
#536=B_SPLINE_CURVE_WITH_KNOTS('',2,(#1240,#1241,#1242),.UNSPECIFIED.,.F.,
 .F.,(3,3),(0.,1.),.PIECEWISE_BEZIER_KNOTS.);
#537=B_SPLINE_CURVE_WITH_KNOTS('',3,(#1244,#1245,#1246,#1247),
 .UNSPECIFIED.,.F.,.F.,(4,4),(0.,1.),.UNSPECIFIED.);
#538=B_SPLINE_CURVE_WITH_KNOTS('',3,(#1254,#1255,#1256,#1257),
 .UNSPECIFIED.,.F.,.F.,(4,4),(0.,1.),.UNSPECIFIED.);
#539=B_SPLINE_CURVE_WITH_KNOTS('',2,(#1269,#1270,#1271),.UNSPECIFIED.,.F.,
 .F.,(3,3),(0.,1.),.PIECEWISE_BEZIER_KNOTS.);
#540=B_SPLINE_CURVE_WITH_KNOTS('',2,(#1282,#1283,#1284),.UNSPECIFIED.,.F.,
 .F.,(3,3),(0.,1.),.PIECEWISE_BEZIER_KNOTS.);
#541=B_SPLINE_CURVE_WITH_KNOTS('',2,(#1295,#1296,#1297),.UNSPECIFIED.,.F.,
 .F.,(3,3),(0.,1.),.PIECEWISE_BEZIER_KNOTS.);
#542=B_SPLINE_CURVE_WITH_KNOTS('',2,(#1311,#1312,#1313),.UNSPECIFIED.,.F.,
 .F.,(3,3),(0.,1.),.PIECEWISE_BEZIER_KNOTS.);
#543=B_SPLINE_CURVE_WITH_KNOTS('',2,(#1314,#1315,#1316),.UNSPECIFIED.,.F.,
 .F.,(3,3),(0.,1.),.PIECEWISE_BEZIER_KNOTS.);
#544=B_SPLINE_CURVE_WITH_KNOTS('',3,(#1318,#1319,#1320,#1321,#1322),
 .UNSPECIFIED.,.F.,.F.,(4,1,4),(0.,0.000128064838101582,0.000256129676203163),
 .UNSPECIFIED.);
#545=EDGE_LOOP('',(#155));
#546=EDGE_LOOP('',(#156,#157,#158,#159,#160,#161,#162,#163,#164,#165,#166,
#167));
#547=EDGE_LOOP('',(#168,#169,#170,#171));
#548=EDGE_LOOP('',(#172,#173,#174,#175));
#549=EDGE_LOOP('',(#176,#177,#178,#179));
#550=EDGE_LOOP('',(#180));
#551=EDGE_LOOP('',(#181,#182,#183,#184,#185,#186,#187,#188));
#552=EDGE_LOOP('',(#189,#190,#191,#192,#193,#194,#195,#196));
#553=EDGE_LOOP('',(#197,#198,#199,#200));
#554=EDGE_LOOP('',(#201));
#555=EDGE_LOOP('',(#202));
#556=EDGE_LOOP('',(#203,#204,#205,#206));
#557=EDGE_LOOP('',(#207,#208,#209,#210));
#558=EDGE_LOOP('',(#211,#212,#213,#214));
#559=EDGE_LOOP('',(#215,#216,#217,#218));
#560=EDGE_LOOP('',(#219,#220,#221,#222));
#561=EDGE_LOOP('',(#223,#224,#225,#226));
#562=EDGE_LOOP('',(#227,#228,#229,#230));
#563=EDGE_LOOP('',(#231,#232,#233,#234));
#564=EDGE_LOOP('',(#235,#236,#237,#238));
#565=EDGE_LOOP('',(#239,#240,#241,#242));
#566=EDGE_LOOP('',(#243,#244,#245,#246));
#567=EDGE_LOOP('',(#247,#248,#249,#250));
#568=EDGE_LOOP('',(#251,#252,#253,#254));
#569=EDGE_LOOP('',(#255,#256,#257,#258));
#570=EDGE_LOOP('',(#259,#260,#261,#262));
#571=EDGE_LOOP('',(#263,#264,#265,#266));
#572=EDGE_LOOP('',(#267,#268,#269,#270));
#573=EDGE_LOOP('',(#271,#272,#273,#274));
#574=EDGE_LOOP('',(#275,#276,#277,#278));
#575=EDGE_LOOP('',(#279,#280,#281,#282));
#576=EDGE_LOOP('',(#283,#284,#285,#286));
#577=EDGE_LOOP('',(#287,#288,#289,#290));
#578=EDGE_LOOP('',(#291,#292,#293,#294));
#579=EDGE_LOOP('',(#295,#296,#297,#298));
#580=EDGE_LOOP('',(#299,#300,#301,#302));
#581=EDGE_LOOP('',(#303,#304,#305,#306));
#582=EDGE_LOOP('',(#307,#308,#309,#310));
#583=EDGE_LOOP('',(#311,#312,#313,#314,#315,#316,#317,#318,#319,#320,#321,
#322));
#584=EDGE_LOOP('',(#323,#324,#325,#326,#327,#328));
#585=EDGE_LOOP('',(#329,#330,#331,#332,#333,#334));
#586=EDGE_LOOP('',(#335,#336,#337,#338,#339,#340));
#587=EDGE_LOOP('',(#341,#342,#343,#344,#345,#346));
#588=EDGE_LOOP('',(#347,#348,#349,#350));
#589=FACE_BOUND('',#545,.T.);
#590=FACE_BOUND('',#546,.T.);
#591=FACE_BOUND('',#547,.T.);
#592=FACE_BOUND('',#548,.T.);
#593=FACE_BOUND('',#549,.T.);
#594=FACE_BOUND('',#550,.T.);
#595=FACE_BOUND('',#551,.T.);
#596=FACE_BOUND('',#552,.T.);
#597=FACE_BOUND('',#553,.T.);
#598=FACE_BOUND('',#554,.T.);
#599=FACE_BOUND('',#555,.T.);
#600=FACE_BOUND('',#556,.T.);
#601=FACE_BOUND('',#557,.T.);
#602=FACE_BOUND('',#558,.T.);
#603=FACE_BOUND('',#559,.T.);
#604=FACE_BOUND('',#560,.T.);
#605=FACE_BOUND('',#561,.T.);
#606=FACE_BOUND('',#562,.T.);
#607=FACE_BOUND('',#563,.T.);
#608=FACE_BOUND('',#564,.T.);
#609=FACE_BOUND('',#565,.T.);
#610=FACE_BOUND('',#566,.T.);
#611=FACE_BOUND('',#567,.T.);
#612=FACE_BOUND('',#568,.T.);
#613=FACE_BOUND('',#569,.T.);
#614=FACE_BOUND('',#570,.T.);
#615=FACE_BOUND('',#571,.T.);
#616=FACE_BOUND('',#572,.T.);
#617=FACE_BOUND('',#573,.T.);
#618=FACE_BOUND('',#574,.T.);
#619=FACE_BOUND('',#575,.T.);
#620=FACE_BOUND('',#576,.T.);
#621=FACE_BOUND('',#577,.T.);
#622=FACE_BOUND('',#578,.T.);
#623=FACE_BOUND('',#579,.T.);
#624=FACE_BOUND('',#580,.T.);
#625=FACE_BOUND('',#581,.T.);
#626=FACE_BOUND('',#582,.T.);
#627=FACE_BOUND('',#583,.T.);
#628=FACE_BOUND('',#584,.T.);
#629=FACE_BOUND('',#585,.T.);
#630=FACE_BOUND('',#586,.T.);
#631=FACE_BOUND('',#587,.T.);
#632=FACE_BOUND('',#588,.T.);
#633=PLANE('',#705);
#634=PLANE('',#714);
#635=PLANE('',#720);
#636=PLANE('',#721);
#637=PLANE('',#722);
#638=PLANE('',#723);
#639=PLANE('',#724);
#640=PLANE('',#725);
#641=PLANE('',#726);
#642=PLANE('',#727);
#643=PLANE('',#728);
#644=PLANE('',#729);
#645=PLANE('',#730);
#646=PLANE('',#731);
#647=PLANE('',#732);
#648=PLANE('',#737);
#649=PLANE('',#738);
#650=PLANE('',#739);
#651=PLANE('',#740);
#652=PLANE('',#741);
#653=ADVANCED_FACE('',(#589,#590),#633,.T.);
#654=ADVANCED_FACE('',(#591),#26,.T.);
#655=ADVANCED_FACE('',(#592),#27,.T.);
#656=ADVANCED_FACE('',(#593),#634,.F.);
#657=ADVANCED_FACE('',(#594,#595),#28,.T.);
#658=ADVANCED_FACE('',(#596),#635,.T.);
#659=ADVANCED_FACE('',(#597),#636,.F.);
#660=ADVANCED_FACE('',(#598,#599),#12,.T.);
#661=ADVANCED_FACE('',(#600),#637,.T.);
#662=ADVANCED_FACE('',(#601),#638,.T.);
#663=ADVANCED_FACE('',(#602),#639,.T.);
#664=ADVANCED_FACE('',(#603),#640,.T.);
#665=ADVANCED_FACE('',(#604),#641,.T.);
#666=ADVANCED_FACE('',(#605),#642,.T.);
#667=ADVANCED_FACE('',(#606),#643,.T.);
#668=ADVANCED_FACE('',(#607),#13,.T.);
#669=ADVANCED_FACE('',(#608),#14,.T.);
#670=ADVANCED_FACE('',(#609),#644,.T.);
#671=ADVANCED_FACE('',(#610),#645,.T.);
#672=ADVANCED_FACE('',(#611),#15,.T.);
#673=ADVANCED_FACE('',(#612),#16,.T.);
#674=ADVANCED_FACE('',(#613),#17,.T.);
#675=ADVANCED_FACE('',(#614),#646,.T.);
#676=ADVANCED_FACE('',(#615),#647,.T.);
#677=ADVANCED_FACE('',(#616),#18,.T.);
#678=ADVANCED_FACE('',(#617),#19,.T.);
#679=ADVANCED_FACE('',(#618),#20,.T.);
#680=ADVANCED_FACE('',(#619),#29,.F.);
#681=ADVANCED_FACE('',(#620),#30,.F.);
#682=ADVANCED_FACE('',(#621),#21,.T.);
#683=ADVANCED_FACE('',(#622),#22,.T.);
#684=ADVANCED_FACE('',(#623),#23,.T.);
#685=ADVANCED_FACE('',(#624),#648,.T.);
#686=ADVANCED_FACE('',(#625),#649,.T.);
#687=ADVANCED_FACE('',(#626),#24,.T.);
#688=ADVANCED_FACE('',(#627,#628,#629),#650,.T.);
#689=ADVANCED_FACE('',(#630),#651,.T.);
#690=ADVANCED_FACE('',(#631),#652,.T.);
#691=ADVANCED_FACE('',(#632),#25,.T.);
#692=CLOSED_SHELL('',(#653,#654,#655,#656,#657,#658,#659,#660,#661,#662,
#663,#664,#665,#666,#667,#668,#669,#670,#671,#672,#673,#674,#675,#676,#677,
#678,#679,#680,#681,#682,#683,#684,#685,#686,#687,#688,#689,#690,#691));
#693=STYLED_ITEM('',(#694),#701);
#694=PRESENTATION_STYLE_ASSIGNMENT((#695));
#695=SURFACE_STYLE_USAGE(.BOTH.,#696);
#696=SURFACE_SIDE_STYLE('',(#697));
#697=SURFACE_STYLE_FILL_AREA(#698);
#698=FILL_AREA_STYLE('',(#699));
#699=FILL_AREA_STYLE_COLOUR('',#700);
#700=COLOUR_RGB('',0.682352941176471,0.333333333333334,0.737254901960784);
#701=MANIFOLD_SOLID_BREP('Part 2',#692);
#702=SHAPE_DEFINITION_REPRESENTATION(#1339,#703);
#703=SHAPE_REPRESENTATION('Part 2',(#704),#1334);
#704=AXIS2_PLACEMENT_3D('',#874,#742,#743);
#705=AXIS2_PLACEMENT_3D('',#875,#744,#745);
#706=AXIS2_PLACEMENT_3D('',#896,#746,#747);
#707=AXIS2_PLACEMENT_3D('',#904,#748,#749);
#708=AXIS2_PLACEMENT_3D('',#935,#753,#754);
#709=AXIS2_PLACEMENT_3D('',#939,#756,#757);
#710=AXIS2_PLACEMENT_3D('',#943,#759,#760);
#711=AXIS2_PLACEMENT_3D('',#944,#761,#762);
#712=AXIS2_PLACEMENT_3D('',#945,#763,#764);
#713=AXIS2_PLACEMENT_3D('',#950,#766,#767);
#714=AXIS2_PLACEMENT_3D('',#953,#769,#770);
#715=AXIS2_PLACEMENT_3D('',#956,#772,#773);
#716=AXIS2_PLACEMENT_3D('',#959,#775,#776);
#717=AXIS2_PLACEMENT_3D('',#974,#778,#779);
#718=AXIS2_PLACEMENT_3D('',#978,#781,#782);
#719=AXIS2_PLACEMENT_3D('',#982,#784,#785);
#720=AXIS2_PLACEMENT_3D('',#985,#787,#788);
#721=AXIS2_PLACEMENT_3D('',#990,#793,#794);
#722=AXIS2_PLACEMENT_3D('',#1069,#797,#798);
#723=AXIS2_PLACEMENT_3D('',#1070,#799,#800);
#724=AXIS2_PLACEMENT_3D('',#1071,#801,#802);
#725=AXIS2_PLACEMENT_3D('',#1072,#803,#804);
#726=AXIS2_PLACEMENT_3D('',#1073,#805,#806);
#727=AXIS2_PLACEMENT_3D('',#1082,#811,#812);
#728=AXIS2_PLACEMENT_3D('',#1088,#816,#817);
#729=AXIS2_PLACEMENT_3D('',#1128,#823,#824);
#730=AXIS2_PLACEMENT_3D('',#1137,#829,#830);
#731=AXIS2_PLACEMENT_3D('',#1194,#837,#838);
#732=AXIS2_PLACEMENT_3D('',#1200,#842,#843);
#733=AXIS2_PLACEMENT_3D('',#1243,#849,#850);
#734=AXIS2_PLACEMENT_3D('',#1249,#851,#852);
#735=AXIS2_PLACEMENT_3D('',#1250,#853,#854);
#736=AXIS2_PLACEMENT_3D('',#1251,#855,#856);
#737=AXIS2_PLACEMENT_3D('',#1298,#861,#862);
#738=AXIS2_PLACEMENT_3D('',#1301,#865,#866);
#739=AXIS2_PLACEMENT_3D('',#1317,#868,#869);
#740=AXIS2_PLACEMENT_3D('',#1323,#870,#871);
#741=AXIS2_PLACEMENT_3D('',#1324,#872,#873);
#742=DIRECTION('',(0.,0.,1.));
#743=DIRECTION('',(1.,0.,0.));
#744=DIRECTION('',(0.,0.,1.));
#745=DIRECTION('',(1.,0.,0.));
#746=DIRECTION('',(0.,0.,1.));
#747=DIRECTION('',(1.,0.,0.));
#748=DIRECTION('',(0.,0.,-1.));
#749=DIRECTION('',(-1.,0.,0.));
#750=DIRECTION('',(-1.,0.,0.));
#751=DIRECTION('',(0.,1.,0.));
#752=DIRECTION('',(1.,0.,0.));
#753=DIRECTION('',(0.,0.,1.));
#754=DIRECTION('',(1.,0.,0.));
#755=DIRECTION('',(0.,0.,1.));
#756=DIRECTION('',(0.,0.,-1.));
#757=DIRECTION('',(-1.,0.,0.));
#758=DIRECTION('',(0.,0.,1.));
#759=DIRECTION('',(0.,0.,-1.));
#760=DIRECTION('',(-1.,0.,0.));
#761=DIRECTION('',(0.,0.,1.));
#762=DIRECTION('',(1.,0.,0.));
#763=DIRECTION('',(0.,0.,-1.));
#764=DIRECTION('',(-1.,0.,0.));
#765=DIRECTION('',(0.,0.,1.));
#766=DIRECTION('',(0.,0.,-1.));
#767=DIRECTION('',(-1.,0.,0.));
#768=DIRECTION('',(0.,0.,1.));
#769=DIRECTION('',(0.,0.,-1.));
#770=DIRECTION('',(1.,0.,0.));
#771=DIRECTION('',(1.,3.71639862219125E-16,0.));
#772=DIRECTION('',(0.,0.,1.));
#773=DIRECTION('',(1.,0.,0.));
#774=DIRECTION('',(1.,3.71639862219125E-16,0.));
#775=DIRECTION('',(0.,0.,-1.));
#776=DIRECTION('',(-1.,0.,0.));
#777=DIRECTION('',(0.,0.,1.));
#778=DIRECTION('',(0.,0.,-1.));
#779=DIRECTION('',(-1.,0.,0.));
#780=DIRECTION('',(0.,0.,1.));
#781=DIRECTION('',(0.,0.,1.));
#782=DIRECTION('',(1.,0.,0.));
#783=DIRECTION('',(0.,0.,1.));
#784=DIRECTION('',(0.,0.,-1.));
#785=DIRECTION('',(-1.,0.,0.));
#786=DIRECTION('',(0.,0.,1.));
#787=DIRECTION('',(0.,0.,-1.));
#788=DIRECTION('',(1.,0.,0.));
#789=DIRECTION('',(1.,3.71639862219125E-16,0.));
#790=DIRECTION('',(1.,3.71639862219125E-16,0.));
#791=DIRECTION('',(-1.,-1.33894854141351E-16,0.));
#792=DIRECTION('',(-1.,-1.33894854141351E-16,0.));
#793=DIRECTION('',(0.,0.,-1.));
#794=DIRECTION('',(1.,0.,0.));
#795=DIRECTION('',(-1.,-1.33894854141351E-16,0.));
#796=DIRECTION('',(-1.,-1.33894854141351E-16,0.));
#797=DIRECTION('',(3.71639862219125E-16,-1.,0.));
#798=DIRECTION('',(1.,3.71639862219125E-16,0.));
#799=DIRECTION('',(-1.33894854141351E-16,1.,0.));
#800=DIRECTION('',(-1.,-1.33894854141351E-16,0.));
#801=DIRECTION('',(-1.33894854141351E-16,1.,0.));
#802=DIRECTION('',(-1.,-1.33894854141351E-16,0.));
#803=DIRECTION('',(3.71639862219125E-16,-1.,0.));
#804=DIRECTION('',(1.,3.71639862219125E-16,0.));
#805=DIRECTION('',(0.,-1.,0.));
#806=DIRECTION('',(0.,0.,-1.));
#807=DIRECTION('',(1.,0.,0.));
#808=DIRECTION('',(0.,0.,1.));
#809=DIRECTION('',(1.,0.,0.));
#810=DIRECTION('',(0.,0.,1.));
#811=DIRECTION('',(-1.,0.,0.));
#812=DIRECTION('',(0.,0.,1.));
#813=DIRECTION('',(0.,-1.,0.));
#814=DIRECTION('',(0.,0.,1.));
#815=DIRECTION('',(0.,-1.,0.));
#816=DIRECTION('',(0.,1.,0.));
#817=DIRECTION('',(0.,0.,1.));
#818=DIRECTION('',(-1.,0.,0.));
#819=DIRECTION('',(0.,0.,1.));
#820=DIRECTION('',(-1.,0.,0.));
#821=DIRECTION('',(0.,0.,1.));
#822=DIRECTION('',(0.,0.,1.));
#823=DIRECTION('',(-1.,0.,0.));
#824=DIRECTION('',(0.,0.,1.));
#825=DIRECTION('',(0.,-1.,0.));
#826=DIRECTION('',(0.,0.,1.));
#827=DIRECTION('',(0.,-1.,0.));
#828=DIRECTION('',(0.,0.,1.));
#829=DIRECTION('',(0.,1.,0.));
#830=DIRECTION('',(0.,0.,1.));
#831=DIRECTION('',(-1.,0.,0.));
#832=DIRECTION('',(0.,0.,1.));
#833=DIRECTION('',(-1.,0.,0.));
#834=DIRECTION('',(0.,0.,1.));
#835=DIRECTION('',(0.,0.,1.));
#836=DIRECTION('',(0.,0.,1.));
#837=DIRECTION('',(1.,0.,0.));
#838=DIRECTION('',(0.,0.,-1.));
#839=DIRECTION('',(0.,0.,1.));
#840=DIRECTION('',(0.,1.,0.));
#841=DIRECTION('',(0.,0.,1.));
#842=DIRECTION('',(0.,1.,0.));
#843=DIRECTION('',(0.,0.,1.));
#844=DIRECTION('',(0.,0.,1.));
#845=DIRECTION('',(-1.,0.,0.));
#846=DIRECTION('',(0.,0.,1.));
#847=DIRECTION('',(0.,0.,1.));
#848=DIRECTION('',(0.,0.,1.));
#849=DIRECTION('',(0.,0.,-1.));
#850=DIRECTION('',(-1.,0.,0.));
#851=DIRECTION('',(0.,0.,-1.));
#852=DIRECTION('',(-1.,0.,0.));
#853=DIRECTION('',(0.,0.,1.));
#854=DIRECTION('',(0.617787734623851,-0.78634490838838,0.));
#855=DIRECTION('',(0.,0.,1.));
#856=DIRECTION('',(1.,0.,0.));
#857=DIRECTION('',(0.,0.,1.));
#858=DIRECTION('',(0.,0.,1.));
#859=DIRECTION('',(0.,0.,1.));
#860=DIRECTION('',(0.,0.,1.));
#861=DIRECTION('',(0.,-1.,0.));
#862=DIRECTION('',(0.,0.,-1.));
#863=DIRECTION('',(1.,0.,0.));
#864=DIRECTION('',(1.,0.,0.));
#865=DIRECTION('',(0.,-1.,0.));
#866=DIRECTION('',(0.,0.,-1.));
#867=DIRECTION('',(1.,0.,0.));
#868=DIRECTION('',(0.,0.,1.));
#869=DIRECTION('',(1.,0.,0.));
#870=DIRECTION('',(0.,0.,1.));
#871=DIRECTION('',(1.,0.,0.));
#872=DIRECTION('',(0.,0.,1.));
#873=DIRECTION('',(1.,0.,0.));
#874=CARTESIAN_POINT('',(0.,0.,0.));
#875=CARTESIAN_POINT('',(0.,-0.02,0.005));
#876=CARTESIAN_POINT('',(0.00353838192560604,-0.021525295936876,0.005));
#877=CARTESIAN_POINT('',(0.00384762603355932,-0.0200497868549382,0.005));
#878=CARTESIAN_POINT('',(0.00356993380127245,-0.0185790137267273,0.005));
#879=CARTESIAN_POINT('',(0.00277590860006166,-0.0173359111535431,0.005));
#880=CARTESIAN_POINT('',(0.00154638145237862,-0.0164768243854813,0.005));
#881=CARTESIAN_POINT('',(8.04760570883354E-5,-0.0161531929609774,0.005));
#882=CARTESIAN_POINT('',(-0.00139775680955877,-0.0164152236259583,0.005));
#883=CARTESIAN_POINT('',(-0.00266319321472085,-0.017222994433578,0.005));
#884=CARTESIAN_POINT('',(-0.00352318375112304,-0.0184535419327805,0.005));
#885=CARTESIAN_POINT('',(-0.00384680124679712,-0.0199195228798451,0.005));
#886=CARTESIAN_POINT('',(-0.0035847781347386,-0.0213977561729043,0.005));
#887=CARTESIAN_POINT('',(-0.00277700526238462,-0.0226631928054749,0.005));
#888=CARTESIAN_POINT('',(-0.00154645764329362,-0.0235231858572221,0.005));
#889=CARTESIAN_POINT('',(-8.04791286736939E-5,-0.0238467932262155,0.005));
#890=CARTESIAN_POINT('',(0.00139776378254414,-0.0235848081108829,0.005));
#891=CARTESIAN_POINT('',(0.00266316437540915,-0.0227768933783949,0.005));
#892=CARTESIAN_POINT('',(0.00353838192560604,-0.021525295936876,0.005));
#893=CARTESIAN_POINT('',(0.00384762603355932,-0.0200497868549382,0.005));
#894=CARTESIAN_POINT('',(0.00356993380127245,-0.0185790137267273,0.005));
#895=CARTESIAN_POINT('',(0.00375,-0.02,0.005));
#896=CARTESIAN_POINT('',(0.000729981383935021,-0.0188392415838591,0.005));
#897=CARTESIAN_POINT('',(0.00171019972901008,-0.0195060137514933,0.005));
#898=CARTESIAN_POINT('',(0.00134346250375648,-0.0198537313117353,0.005));
#899=CARTESIAN_POINT('',(0.00134346250377411,-0.0198537313117247,0.005));
#900=CARTESIAN_POINT('',(0.00123357547939021,-0.0199197243309672,0.005));
#901=CARTESIAN_POINT('',(0.00123719458642903,-0.019978758866781,0.005));
#902=CARTESIAN_POINT('',(0.00135431982489059,-0.020030834919166,0.005));
#903=CARTESIAN_POINT('',(0.00135431982489059,-0.020030834919166,0.005));
#904=CARTESIAN_POINT('',(0.00090282588007716,-0.0210626495932888,0.005));
#905=CARTESIAN_POINT('',(0.00179874995726639,-0.0203812755314691,0.005));
#906=CARTESIAN_POINT('',(0.00179874995726639,-0.0203812755314691,0.005));
#907=CARTESIAN_POINT('',(0.00204211248934499,-0.0207011406417012,0.005));
#908=CARTESIAN_POINT('',(0.00204211248934499,-0.0211637704056526,0.005));
#909=CARTESIAN_POINT('',(0.00204211248934499,-0.0211637704056526,0.005));
#910=CARTESIAN_POINT('',(0.00204211248934499,-0.0211637704056526,0.005));
#911=CARTESIAN_POINT('',(0.00204211248934499,-0.0219553010174131,0.005));
#912=CARTESIAN_POINT('',(0.00153731595003345,-0.022361909208386,0.005));
#913=CARTESIAN_POINT('',(0.00153731595003345,-0.022361909208386,0.005));
#914=CARTESIAN_POINT('',(0.00153731595003345,-0.022361909208386,0.005));
#915=CARTESIAN_POINT('',(0.0010325194107219,-0.0227685173993589,0.005));
#916=CARTESIAN_POINT('',(9.88265277470923E-5,-0.0227757459894207,0.005));
#917=CARTESIAN_POINT('',(9.88265277470923E-5,-0.0227757459894207,0.005));
#918=CARTESIAN_POINT('',(-0.000966788123854484,-0.0227757459894207,0.005));
#919=CARTESIAN_POINT('',(-0.00203240277545606,-0.0227757459894207,0.005));
#920=CARTESIAN_POINT('',(-0.00203240277545606,-0.0200349055910107,0.005));
#921=CARTESIAN_POINT('',(-0.00203240277545606,-0.0172940651926008,0.005));
#922=CARTESIAN_POINT('',(-0.00107220506225487,-0.0172940651926008,0.005));
#923=CARTESIAN_POINT('',(-0.000112007349053672,-0.0172940651926008,0.005));
#924=CARTESIAN_POINT('',(-0.000112007349053672,-0.0172940651926008,0.005));
#925=CARTESIAN_POINT('',(0.000885538079466515,-0.0172940651926008,0.005));
#926=CARTESIAN_POINT('',(0.00140117750387067,-0.0176759757008627,0.005));
#927=CARTESIAN_POINT('',(0.00140117750387067,-0.0176759757008627,0.005));
#928=CARTESIAN_POINT('',(0.00140117750387067,-0.0176759757008627,0.005));
#929=CARTESIAN_POINT('',(0.00191681692827483,-0.0180578862091247,0.005));
#930=CARTESIAN_POINT('',(0.00191681692827483,-0.0187964071604325,0.005));
#931=CARTESIAN_POINT('',(0.00191681692827483,-0.0187964071604325,0.005));
#932=CARTESIAN_POINT('',(0.00191681692827483,-0.0187964071604325,0.005));
#933=CARTESIAN_POINT('',(0.00191681692827483,-0.0191987986738694,0.005));
#934=CARTESIAN_POINT('',(0.00171019972901008,-0.0195060137514933,0.005));
#935=CARTESIAN_POINT('',(0.,-0.0201284665866772,-0.0015));
#936=CARTESIAN_POINT('',(-0.00647793183353215,-0.0215,-0.001502));
#937=CARTESIAN_POINT('',(-0.00647793183353215,-0.0215,-0.0015));
#938=CARTESIAN_POINT('',(-0.00647793183353215,-0.0215,0.));
#939=CARTESIAN_POINT('',(0.,-0.0201284665866772,-0.0015));
#940=CARTESIAN_POINT('',(0.00647793183353215,-0.0215,-0.0015));
#941=CARTESIAN_POINT('',(0.00647793183353215,-0.0215,-0.001502));
#942=CARTESIAN_POINT('',(0.00647793183353215,-0.0215,0.));
#943=CARTESIAN_POINT('',(0.,-0.0201284665866772,0.));
#944=CARTESIAN_POINT('',(0.,-0.0201284665866772,-0.0015));
#945=CARTESIAN_POINT('',(0.,-0.0201284665866772,-0.0015));
#946=CARTESIAN_POINT('',(-0.00641816183340885,-0.0185,-0.0015));
#947=CARTESIAN_POINT('',(0.00641816183340884,-0.0185,-0.0015));
#948=CARTESIAN_POINT('',(-0.00641816183340885,-0.0185,-0.001502));
#949=CARTESIAN_POINT('',(-0.00641816183340885,-0.0185,0.));
#950=CARTESIAN_POINT('',(0.,-0.0201284665866772,0.));
#951=CARTESIAN_POINT('',(0.00641816183340884,-0.0185,0.));
#952=CARTESIAN_POINT('',(0.00641816183340884,-0.0185,-0.001502));
#953=CARTESIAN_POINT('',(0.,-0.0201284665866772,0.));
#954=CARTESIAN_POINT('',(-8.67361737988404E-19,-0.0185,0.));
#955=CARTESIAN_POINT('',(-0.00555090082779363,-0.0185,0.));
#956=CARTESIAN_POINT('',(0.,-0.02,0.));
#957=CARTESIAN_POINT('',(0.00555090082779363,-0.0185,0.));
#958=CARTESIAN_POINT('',(-8.67361737988404E-19,-0.0185,0.));
#959=CARTESIAN_POINT('',(0.,-0.02,0.005));
#960=CARTESIAN_POINT('',(0.00450576684312454,-0.0154942331568755,0.003));
#961=CARTESIAN_POINT('',(0.00637211657843773,-0.02,0.003));
#962=CARTESIAN_POINT('',(0.00450576684312453,-0.0245057668431245,0.003));
#963=CARTESIAN_POINT('',(-1.15196480826585E-17,-0.0263721165784377,0.003));
#964=CARTESIAN_POINT('',(-0.00450576684312454,-0.0245057668431245,0.003));
#965=CARTESIAN_POINT('',(-0.00637211657843773,-0.02,0.003));
#966=CARTESIAN_POINT('',(-0.00450576684312454,-0.0154942331568755,0.003));
#967=CARTESIAN_POINT('',(3.95733792957209E-18,-0.0136278834215623,0.003));
#968=CARTESIAN_POINT('',(0.00450576684312454,-0.0154942331568755,0.003));
#969=CARTESIAN_POINT('',(0.00637211657843773,-0.02,0.003));
#970=CARTESIAN_POINT('',(0.00450576684312453,-0.0245057668431245,0.003));
#971=CARTESIAN_POINT('',(0.00575,-0.02,0.003));
#972=CARTESIAN_POINT('',(-0.00555090082779363,-0.0185,-0.001502));
#973=CARTESIAN_POINT('',(-0.00555090082779363,-0.0185,-0.0015));
#974=CARTESIAN_POINT('',(0.,-0.02,-0.0015));
#975=CARTESIAN_POINT('',(-0.00555090082779363,-0.0215,-0.0015));
#976=CARTESIAN_POINT('',(-0.00555090082779363,-0.0215,-0.001502));
#977=CARTESIAN_POINT('',(-0.00555090082779363,-0.0215,0.));
#978=CARTESIAN_POINT('',(0.,-0.02,0.));
#979=CARTESIAN_POINT('',(0.00555090082779363,-0.0215,0.));
#980=CARTESIAN_POINT('',(0.00555090082779363,-0.0215,-0.001502));
#981=CARTESIAN_POINT('',(0.00555090082779363,-0.0215,-0.0015));
#982=CARTESIAN_POINT('',(0.,-0.02,-0.0015));
#983=CARTESIAN_POINT('',(0.00555090082779363,-0.0185,-0.0015));
#984=CARTESIAN_POINT('',(0.00555090082779363,-0.0185,-0.001502));
#985=CARTESIAN_POINT('',(0.,-0.0201284665866772,-0.0015));
#986=CARTESIAN_POINT('',(-8.67361737988404E-19,-0.0185,-0.0015));
#987=CARTESIAN_POINT('',(-8.67361737988404E-19,-0.0185,-0.0015));
#988=CARTESIAN_POINT('',(8.67361737988404E-19,-0.0215,-0.0015));
#989=CARTESIAN_POINT('',(8.67361737988404E-19,-0.0215,-0.0015));
#990=CARTESIAN_POINT('',(0.,-0.0201284665866772,0.));
#991=CARTESIAN_POINT('',(8.67361737988404E-19,-0.0215,0.));
#992=CARTESIAN_POINT('',(8.67361737988404E-19,-0.0215,0.));
#993=CARTESIAN_POINT('',(-0.00355474298312898,-0.0185275650319544,0.005));
#994=CARTESIAN_POINT('',(-0.00384762850843551,-0.02,0.005));
#995=CARTESIAN_POINT('',(-0.00355474298312898,-0.0214724349680456,0.005));
#996=CARTESIAN_POINT('',(-0.00272067557342339,-0.0227207050598624,0.005));
#997=CARTESIAN_POINT('',(-0.00147240548160653,-0.023554772469568,0.005));
#998=CARTESIAN_POINT('',(2.94864390506601E-8,-0.0238476579948746,0.005));
#999=CARTESIAN_POINT('',(0.00147246445448463,-0.023554772469568,0.005));
#1000=CARTESIAN_POINT('',(0.00272073454630149,-0.0227207050598625,0.005));
#1001=CARTESIAN_POINT('',(0.00355480195600708,-0.0214724349680456,0.005));
#1002=CARTESIAN_POINT('',(0.00384768748131362,-0.02,0.005));
#1003=CARTESIAN_POINT('',(0.00355480195600709,-0.0185275650319544,0.005));
#1004=CARTESIAN_POINT('',(0.0027207345463015,-0.0172792949401376,0.005));
#1005=CARTESIAN_POINT('',(0.00147246445448464,-0.016445227530432,0.005));
#1006=CARTESIAN_POINT('',(2.94864390589136E-8,-0.0161523420051254,0.005));
#1007=CARTESIAN_POINT('',(-0.00147240548160652,-0.016445227530432,0.005));
#1008=CARTESIAN_POINT('',(-0.00272067557342339,-0.0172792949401376,0.005));
#1009=CARTESIAN_POINT('',(-0.00355474298312898,-0.0185275650319544,0.005));
#1010=CARTESIAN_POINT('',(-0.00384762850843551,-0.02,0.005));
#1011=CARTESIAN_POINT('',(-0.00355474298312898,-0.0214724349680456,0.005));
#1012=CARTESIAN_POINT('',(-0.00481865214523838,-0.0180040367154011,0.005));
#1013=CARTESIAN_POINT('',(-0.00521567392738081,-0.02,0.005));
#1014=CARTESIAN_POINT('',(-0.00481865214523837,-0.0219959632845989,0.005));
#1015=CARTESIAN_POINT('',(-0.00368802976613081,-0.0236880592525699,0.005));
#1016=CARTESIAN_POINT('',(-0.00199593379815985,-0.0248186816316774,0.005));
#1017=CARTESIAN_POINT('',(2.94864390484104E-8,-0.0252157034138199,0.005));
#1018=CARTESIAN_POINT('',(0.00199599277103796,-0.0248186816316774,0.00500000000000001));
#1019=CARTESIAN_POINT('',(0.0036880887390089,-0.0236880592525699,0.005));
#1020=CARTESIAN_POINT('',(0.00481871111811648,-0.0219959632845989,0.005));
#1021=CARTESIAN_POINT('',(0.00521573290025892,-0.02,0.005));
#1022=CARTESIAN_POINT('',(0.00481871111811647,-0.0180040367154011,0.005));
#1023=CARTESIAN_POINT('',(0.00368808873900892,-0.0163119407474301,0.005));
#1024=CARTESIAN_POINT('',(0.00199599277103796,-0.0151813183683226,0.005));
#1025=CARTESIAN_POINT('',(2.94864390600893E-8,-0.0147842965861801,0.005));
#1026=CARTESIAN_POINT('',(-0.00199593379815985,-0.0151813183683226,0.005));
#1027=CARTESIAN_POINT('',(-0.0036880297661308,-0.0163119407474301,0.00500000000000001));
#1028=CARTESIAN_POINT('',(-0.00481865214523838,-0.0180040367154011,0.005));
#1029=CARTESIAN_POINT('',(-0.00521567392738081,-0.02,0.005));
#1030=CARTESIAN_POINT('',(-0.00481865214523837,-0.0219959632845989,0.005));
#1031=CARTESIAN_POINT('',(-0.00545060672629307,-0.0177422725571245,0.00433333333333334));
#1032=CARTESIAN_POINT('',(-0.00589969663685346,-0.02,0.00433333333333333));
#1033=CARTESIAN_POINT('',(-0.00545060672629307,-0.0222577274428756,0.00433333333333334));
#1034=CARTESIAN_POINT('',(-0.00417170686248451,-0.0241717363489236,0.00433333333333333));
#1035=CARTESIAN_POINT('',(-0.00225769795643652,-0.0254506362127321,0.00433333333333334));
#1036=CARTESIAN_POINT('',(2.94864390502807E-8,-0.0258997261232925,0.00433333333333333));
#1037=CARTESIAN_POINT('',(0.00225775692931461,-0.0254506362127321,0.00433333333333333));
#1038=CARTESIAN_POINT('',(0.00417176583536262,-0.0241717363489236,0.00433333333333333));
#1039=CARTESIAN_POINT('',(0.00545066569917117,-0.0222577274428756,0.00433333333333333));
#1040=CARTESIAN_POINT('',(0.00589975560973157,-0.02,0.00433333333333333));
#1041=CARTESIAN_POINT('',(0.00545066569917118,-0.0177422725571244,0.00433333333333333));
#1042=CARTESIAN_POINT('',(0.00417176583536261,-0.0158282636510765,0.00433333333333333));
#1043=CARTESIAN_POINT('',(0.00225775692931463,-0.0145493637872679,0.00433333333333333));
#1044=CARTESIAN_POINT('',(2.94864390578192E-8,-0.0141002738767075,0.00433333333333333));
#1045=CARTESIAN_POINT('',(-0.00225769795643651,-0.0145493637872679,0.00433333333333333));
#1046=CARTESIAN_POINT('',(-0.00417170686248451,-0.0158282636510764,0.00433333333333333));
#1047=CARTESIAN_POINT('',(-0.00545060672629307,-0.0177422725571245,0.00433333333333334));
#1048=CARTESIAN_POINT('',(-0.00589969663685346,-0.02,0.00433333333333333));
#1049=CARTESIAN_POINT('',(-0.00545060672629307,-0.0222577274428756,0.00433333333333334));
#1050=CARTESIAN_POINT('',(-0.00545060672629307,-0.0177422725571245,0.003));
#1051=CARTESIAN_POINT('',(-0.00589969663685347,-0.02,0.003));
#1052=CARTESIAN_POINT('',(-0.00545060672629307,-0.0222577274428756,0.003));
#1053=CARTESIAN_POINT('',(-0.00417170686248451,-0.0241717363489236,0.003));
#1054=CARTESIAN_POINT('',(-0.00225769795643652,-0.0254506362127321,0.003));
#1055=CARTESIAN_POINT('',(2.94864390496708E-8,-0.0258997261232925,0.003));
#1056=CARTESIAN_POINT('',(0.00225775692931461,-0.0254506362127321,0.003));
#1057=CARTESIAN_POINT('',(0.00417176583536262,-0.0241717363489236,0.003));
#1058=CARTESIAN_POINT('',(0.00545066569917117,-0.0222577274428756,0.003));
#1059=CARTESIAN_POINT('',(0.00589975560973158,-0.02,0.003));
#1060=CARTESIAN_POINT('',(0.00545066569917118,-0.0177422725571244,0.003));
#1061=CARTESIAN_POINT('',(0.00417176583536262,-0.0158282636510764,0.003));
#1062=CARTESIAN_POINT('',(0.00225775692931463,-0.0145493637872679,0.003));
#1063=CARTESIAN_POINT('',(2.94864390588662E-8,-0.0141002738767075,0.003));
#1064=CARTESIAN_POINT('',(-0.00225769795643651,-0.0145493637872679,0.003));
#1065=CARTESIAN_POINT('',(-0.00417170686248451,-0.0158282636510764,0.003));
#1066=CARTESIAN_POINT('',(-0.00545060672629307,-0.0177422725571245,0.003));
#1067=CARTESIAN_POINT('',(-0.00589969663685347,-0.02,0.003));
#1068=CARTESIAN_POINT('',(-0.00545060672629307,-0.0222577274428756,0.003));
#1069=CARTESIAN_POINT('',(-8.67361737988404E-19,-0.0185,-0.001502));
#1070=CARTESIAN_POINT('',(8.67361737988404E-19,-0.0215,-0.001502));
#1071=CARTESIAN_POINT('',(8.67361737988404E-19,-0.0215,-0.001502));
#1072=CARTESIAN_POINT('',(-8.67361737988404E-19,-0.0185,-0.001502));
#1073=CARTESIAN_POINT('',(-0.000484279737233306,-0.0195903473022137,0.004));
#1074=CARTESIAN_POINT('',(-0.000484279737233306,-0.0195903473022137,0.005));
#1075=CARTESIAN_POINT('',(-0.000902333195803964,-0.0195903473022137,0.005));
#1076=CARTESIAN_POINT('',(-6.62262786626485E-5,-0.0195903473022137,0.005));
#1077=CARTESIAN_POINT('',(-0.000902333195803964,-0.0195903473022137,0.004));
#1078=CARTESIAN_POINT('',(-0.000902333195803964,-0.0195903473022137,0.004));
#1079=CARTESIAN_POINT('',(-0.000484279737233306,-0.0195903473022137,0.004));
#1080=CARTESIAN_POINT('',(-6.62262786626485E-5,-0.0195903473022137,0.004));
#1081=CARTESIAN_POINT('',(-6.62262786626485E-5,-0.0195903473022137,0.004));
#1082=CARTESIAN_POINT('',(-0.000902333195803964,-0.0188994145688123,0.004));
#1083=CARTESIAN_POINT('',(-0.000902333195803964,-0.0188994145688123,0.005));
#1084=CARTESIAN_POINT('',(-0.000902333195803964,-0.018208481835411,0.005));
#1085=CARTESIAN_POINT('',(-0.000902333195803964,-0.018208481835411,0.004));
#1086=CARTESIAN_POINT('',(-0.000902333195803964,-0.018208481835411,0.004));
#1087=CARTESIAN_POINT('',(-0.000902333195803964,-0.0188994145688123,0.004));
#1088=CARTESIAN_POINT('',(-0.000507170272428818,-0.018208481835411,0.004));
#1089=CARTESIAN_POINT('',(-0.000507170272428818,-0.018208481835411,0.005));
#1090=CARTESIAN_POINT('',(-0.000112007349053672,-0.018208481835411,0.005));
#1091=CARTESIAN_POINT('',(-0.000112007349053672,-0.018208481835411,0.004));
#1092=CARTESIAN_POINT('',(-0.000112007349053672,-0.018208481835411,0.004));
#1093=CARTESIAN_POINT('',(-0.000507170272428818,-0.018208481835411,0.004));
#1094=CARTESIAN_POINT('',(0.000571696794285949,-0.0183723298768104,0.004));
#1095=CARTESIAN_POINT('',(0.000571696794285949,-0.0183723298768104,0.005));
#1096=CARTESIAN_POINT('',(0.000427526581387902,-0.0182630978492108,0.004));
#1097=CARTESIAN_POINT('',(0.000427526581387902,-0.0182630978492108,0.005));
#1098=CARTESIAN_POINT('',(0.000199625200274695,-0.018208481835411,0.004));
#1099=CARTESIAN_POINT('',(0.000199625200274695,-0.018208481835411,0.005));
#1100=CARTESIAN_POINT('',(-0.000112007349053672,-0.018208481835411,0.004));
#1101=CARTESIAN_POINT('',(-0.000112007349053672,-0.018208481835411,0.005));
#1102=CARTESIAN_POINT('',(0.000571696794285949,-0.0183723298768104,0.005));
#1103=CARTESIAN_POINT('',(0.000355441474938879,-0.018208481835411,0.005));
#1104=CARTESIAN_POINT('',(-0.000112007349053672,-0.018208481835411,0.005));
#1105=CARTESIAN_POINT('',(0.000571696794285949,-0.0183723298768104,0.005));
#1106=CARTESIAN_POINT('',(0.000571696794285949,-0.0183723298768104,0.004));
#1107=CARTESIAN_POINT('',(0.000571696794285949,-0.0183723298768104,0.004));
#1108=CARTESIAN_POINT('',(0.000571696794285949,-0.0183723298768104,0.004));
#1109=CARTESIAN_POINT('',(0.000355441474938879,-0.018208481835411,0.004));
#1110=CARTESIAN_POINT('',(-0.000112007349053672,-0.018208481835411,0.004));
#1111=CARTESIAN_POINT('',(0.000787952113633018,-0.0189096550713998,0.004));
#1112=CARTESIAN_POINT('',(0.000787952113633018,-0.0189096550713998,0.005));
#1113=CARTESIAN_POINT('',(0.000787952113633018,-0.0186606703026065,0.004));
#1114=CARTESIAN_POINT('',(0.000787952113633018,-0.0186606703026065,0.005));
#1115=CARTESIAN_POINT('',(0.000715867007183995,-0.01848156190441,0.004));
#1116=CARTESIAN_POINT('',(0.000715867007183995,-0.01848156190441,0.005));
#1117=CARTESIAN_POINT('',(0.000571696794285949,-0.0183723298768104,0.004));
#1118=CARTESIAN_POINT('',(0.000571696794285949,-0.0183723298768104,0.005));
#1119=CARTESIAN_POINT('',(0.000787952113633018,-0.0189096550713998,0.005));
#1120=CARTESIAN_POINT('',(0.000787952113633018,-0.0185361779182098,0.005));
#1121=CARTESIAN_POINT('',(0.000571696794285949,-0.0183723298768104,0.005));
#1122=CARTESIAN_POINT('',(0.000787952113633018,-0.0189096550713998,0.005));
#1123=CARTESIAN_POINT('',(0.000787952113633018,-0.0189096550713998,0.004));
#1124=CARTESIAN_POINT('',(0.000787952113633018,-0.0189096550713998,0.004));
#1125=CARTESIAN_POINT('',(0.000787952113633018,-0.0189096550713998,0.004));
#1126=CARTESIAN_POINT('',(0.000787952113633018,-0.0185361779182098,0.004));
#1127=CARTESIAN_POINT('',(0.000571696794285949,-0.0183723298768104,0.004));
#1128=CARTESIAN_POINT('',(-0.000902333195803964,-0.0211288322203541,0.004));
#1129=CARTESIAN_POINT('',(-0.000902333195803964,-0.0211288322203541,0.005));
#1130=CARTESIAN_POINT('',(-0.000902333195803964,-0.020389106504036,0.005));
#1131=CARTESIAN_POINT('',(-0.000902333195803964,-0.0218685579366722,0.005));
#1132=CARTESIAN_POINT('',(-0.000902333195803964,-0.020389106504036,0.004));
#1133=CARTESIAN_POINT('',(-0.000902333195803964,-0.020389106504036,0.004));
#1134=CARTESIAN_POINT('',(-0.000902333195803964,-0.0211288322203541,0.004));
#1135=CARTESIAN_POINT('',(-0.000902333195803964,-0.0218685579366722,0.004));
#1136=CARTESIAN_POINT('',(-0.000902333195803964,-0.0218685579366722,0.004));
#1137=CARTESIAN_POINT('',(-0.000384886623884375,-0.020389106504036,0.004));
#1138=CARTESIAN_POINT('',(-0.000384886623884375,-0.020389106504036,0.005));
#1139=CARTESIAN_POINT('',(0.000132559948035215,-0.020389106504036,0.005));
#1140=CARTESIAN_POINT('',(0.000132559948035215,-0.020389106504036,0.004));
#1141=CARTESIAN_POINT('',(0.000132559948035215,-0.020389106504036,0.004));
#1142=CARTESIAN_POINT('',(-0.000384886623884375,-0.020389106504036,0.004));
#1143=CARTESIAN_POINT('',(0.000912042909692897,-0.0211529275205599,0.004));
#1144=CARTESIAN_POINT('',(0.000912042909692897,-0.0211529275205599,0.005));
#1145=CARTESIAN_POINT('',(0.000912042909692897,-0.0206509420996057,0.004));
#1146=CARTESIAN_POINT('',(0.000912042909692897,-0.0206509420996057,0.005));
#1147=CARTESIAN_POINT('',(0.000652215255807003,-0.0203963350940977,0.004));
#1148=CARTESIAN_POINT('',(0.000652215255807003,-0.0203963350940977,0.005));
#1149=CARTESIAN_POINT('',(0.000132559948035215,-0.020389106504036,0.004));
#1150=CARTESIAN_POINT('',(0.000132559948035215,-0.020389106504036,0.005));
#1151=CARTESIAN_POINT('',(0.000912042909692897,-0.0211529275205599,0.005));
#1152=CARTESIAN_POINT('',(0.000912042909692897,-0.0203999493891286,0.005));
#1153=CARTESIAN_POINT('',(0.000132559948035215,-0.020389106504036,0.005));
#1154=CARTESIAN_POINT('',(0.000912042909692897,-0.0211529275205599,0.005));
#1155=CARTESIAN_POINT('',(0.000912042909692897,-0.0211529275205599,0.004));
#1156=CARTESIAN_POINT('',(0.000912042909692897,-0.0211529275205599,0.004));
#1157=CARTESIAN_POINT('',(0.000912042909692897,-0.0211529275205599,0.004));
#1158=CARTESIAN_POINT('',(0.000912042909692897,-0.0203999493891286,0.004));
#1159=CARTESIAN_POINT('',(0.000132559948035215,-0.020389106504036,0.004));
#1160=CARTESIAN_POINT('',(0.000687956617778942,-0.0216782050650464,0.004));
#1161=CARTESIAN_POINT('',(0.000687956617778942,-0.0216782050650464,0.005));
#1162=CARTESIAN_POINT('',(0.000837347479054912,-0.0215513031506292,0.004));
#1163=CARTESIAN_POINT('',(0.000837347479054912,-0.0215513031506292,0.005));
#1164=CARTESIAN_POINT('',(0.000912042909692897,-0.0213762106358003,0.004));
#1165=CARTESIAN_POINT('',(0.000912042909692897,-0.0213762106358003,0.005));
#1166=CARTESIAN_POINT('',(0.000912042909692897,-0.0211529275205599,0.004));
#1167=CARTESIAN_POINT('',(0.000912042909692897,-0.0211529275205599,0.005));
#1168=CARTESIAN_POINT('',(0.000687956617778942,-0.0216782050650464,0.005));
#1169=CARTESIAN_POINT('',(0.000912042909692897,-0.0214878521934205,0.005));
#1170=CARTESIAN_POINT('',(0.000912042909692897,-0.0211529275205599,0.005));
#1171=CARTESIAN_POINT('',(0.000687956617778942,-0.0216782050650464,0.005));
#1172=CARTESIAN_POINT('',(0.000687956617778942,-0.0216782050650464,0.004));
#1173=CARTESIAN_POINT('',(0.000687956617778942,-0.0216782050650464,0.004));
#1174=CARTESIAN_POINT('',(0.000687956617778942,-0.0216782050650464,0.004));
#1175=CARTESIAN_POINT('',(0.000912042909692897,-0.0214878521934205,0.004));
#1176=CARTESIAN_POINT('',(0.000912042909692897,-0.0211529275205599,0.004));
#1177=CARTESIAN_POINT('',(6.50931074589701E-5,-0.0218685579366722,0.004));
#1178=CARTESIAN_POINT('',(6.50931074589701E-5,-0.0218685579366722,0.005));
#1179=CARTESIAN_POINT('',(0.000330944586396315,-0.0218685579366722,0.004));
#1180=CARTESIAN_POINT('',(0.000330944586396315,-0.0218685579366722,0.005));
#1181=CARTESIAN_POINT('',(0.000538565756502972,-0.0218051069794636,0.004));
#1182=CARTESIAN_POINT('',(0.000538565756502972,-0.0218051069794636,0.005));
#1183=CARTESIAN_POINT('',(0.000687956617778942,-0.0216782050650464,0.004));
#1184=CARTESIAN_POINT('',(0.000687956617778942,-0.0216782050650464,0.005));
#1185=CARTESIAN_POINT('',(6.50931074589701E-5,-0.0218685579366722,0.005));
#1186=CARTESIAN_POINT('',(0.000463870325864987,-0.0218685579366722,0.005));
#1187=CARTESIAN_POINT('',(0.000687956617778942,-0.0216782050650464,0.005));
#1188=CARTESIAN_POINT('',(6.50931074589701E-5,-0.0218685579366722,0.005));
#1189=CARTESIAN_POINT('',(6.50931074589701E-5,-0.0218685579366722,0.004));
#1190=CARTESIAN_POINT('',(6.50931074589701E-5,-0.0218685579366722,0.004));
#1191=CARTESIAN_POINT('',(6.50931074589701E-5,-0.0218685579366722,0.004));
#1192=CARTESIAN_POINT('',(0.000463870325864987,-0.0218685579366722,0.004));
#1193=CARTESIAN_POINT('',(0.000687956617778942,-0.0216782050650464,0.004));
#1194=CARTESIAN_POINT('',(-0.00203240277545606,-0.0200349055910107,0.004));
#1195=CARTESIAN_POINT('',(-0.00203240277545606,-0.0227757459894207,0.004));
#1196=CARTESIAN_POINT('',(-0.00203240277545606,-0.0227757459894207,0.004));
#1197=CARTESIAN_POINT('',(-0.00203240277545606,-0.0200349055910107,0.004));
#1198=CARTESIAN_POINT('',(-0.00203240277545606,-0.0172940651926008,0.004));
#1199=CARTESIAN_POINT('',(-0.00203240277545606,-0.0172940651926008,0.004));
#1200=CARTESIAN_POINT('',(-0.000966788123854484,-0.0227757459894207,0.004));
#1201=CARTESIAN_POINT('',(9.88265277470923E-5,-0.0227757459894207,0.004));
#1202=CARTESIAN_POINT('',(9.88265277470923E-5,-0.0227757459894207,0.004));
#1203=CARTESIAN_POINT('',(-0.000966788123854484,-0.0227757459894207,0.004));
#1204=CARTESIAN_POINT('',(0.00153731595003345,-0.022361909208386,0.004));
#1205=CARTESIAN_POINT('',(0.00153731595003345,-0.022361909208386,0.005));
#1206=CARTESIAN_POINT('',(0.00120078492382575,-0.0226329813357013,0.004));
#1207=CARTESIAN_POINT('',(0.00120078492382575,-0.0226329813357013,0.005));
#1208=CARTESIAN_POINT('',(0.0007212884497303,-0.0227709269293795,0.004));
#1209=CARTESIAN_POINT('',(0.0007212884497303,-0.0227709269293795,0.005));
#1210=CARTESIAN_POINT('',(9.88265277470923E-5,-0.0227757459894207,0.004));
#1211=CARTESIAN_POINT('',(9.88265277470923E-5,-0.0227757459894207,0.005));
#1212=CARTESIAN_POINT('',(0.00153731595003345,-0.022361909208386,0.004));
#1213=CARTESIAN_POINT('',(0.00153731595003345,-0.022361909208386,0.004));
#1214=CARTESIAN_POINT('',(0.00153731595003345,-0.022361909208386,0.004));
#1215=CARTESIAN_POINT('',(0.0010325194107219,-0.0227685173993589,0.004));
#1216=CARTESIAN_POINT('',(9.88265277470923E-5,-0.0227757459894207,0.004));
#1217=CARTESIAN_POINT('',(0.00204211248934499,-0.0211637704056526,0.004));
#1218=CARTESIAN_POINT('',(0.00204211248934499,-0.0211637704056526,0.005));
#1219=CARTESIAN_POINT('',(0.00204211248934499,-0.0216914574801596,0.004));
#1220=CARTESIAN_POINT('',(0.00204211248934499,-0.0216914574801596,0.005));
#1221=CARTESIAN_POINT('',(0.00187384697624114,-0.0220908370810707,0.004));
#1222=CARTESIAN_POINT('',(0.00187384697624114,-0.0220908370810707,0.005));
#1223=CARTESIAN_POINT('',(0.00153731595003345,-0.022361909208386,0.004));
#1224=CARTESIAN_POINT('',(0.00153731595003345,-0.022361909208386,0.005));
#1225=CARTESIAN_POINT('',(0.00204211248934499,-0.0211637704056526,0.004));
#1226=CARTESIAN_POINT('',(0.00204211248934499,-0.0211637704056526,0.004));
#1227=CARTESIAN_POINT('',(0.00204211248934499,-0.0211637704056526,0.004));
#1228=CARTESIAN_POINT('',(0.00204211248934499,-0.0219553010174131,0.004));
#1229=CARTESIAN_POINT('',(0.00153731595003345,-0.022361909208386,0.004));
#1230=CARTESIAN_POINT('',(0.00179874995726639,-0.0203812755314691,0.004));
#1231=CARTESIAN_POINT('',(0.00179874995726639,-0.0203812755314691,0.005));
#1232=CARTESIAN_POINT('',(0.00196099164531879,-0.0205945189382905,0.004));
#1233=CARTESIAN_POINT('',(0.00196099164531879,-0.0205945189382905,0.005));
#1234=CARTESIAN_POINT('',(0.00204211248934499,-0.0208553505630183,0.004));
#1235=CARTESIAN_POINT('',(0.00204211248934499,-0.0208553505630183,0.005));
#1236=CARTESIAN_POINT('',(0.00204211248934499,-0.0211637704056526,0.004));
#1237=CARTESIAN_POINT('',(0.00204211248934499,-0.0211637704056526,0.005));
#1238=CARTESIAN_POINT('',(0.00179874995726639,-0.0203812755314691,0.004));
#1239=CARTESIAN_POINT('',(0.00179874995726639,-0.0203812755314691,0.004));
#1240=CARTESIAN_POINT('',(0.00179874995726639,-0.0203812755314691,0.004));
#1241=CARTESIAN_POINT('',(0.00204211248934499,-0.0207011406417012,0.004));
#1242=CARTESIAN_POINT('',(0.00204211248934499,-0.0211637704056526,0.004));
#1243=CARTESIAN_POINT('',(0.00090282588007716,-0.0210626495932888,0.0042));
#1244=CARTESIAN_POINT('',(0.00135420795301782,-0.0200310905838129,0.005));
#1245=CARTESIAN_POINT('',(0.00135420795301782,-0.0200310905838129,0.00466666666666667));
#1246=CARTESIAN_POINT('',(0.00135420795301783,-0.0200310905838129,0.00433333333333333));
#1247=CARTESIAN_POINT('',(0.00135420795301783,-0.0200310905838129,0.004));
#1248=CARTESIAN_POINT('',(0.0013543198248906,-0.020030834919166,0.004));
#1249=CARTESIAN_POINT('',(0.00090282588007716,-0.0210626495932888,0.004));
#1250=CARTESIAN_POINT('',(0.000729981383935021,-0.0188392415838591,0.004));
#1251=CARTESIAN_POINT('',(0.000729981383935021,-0.0188392415838591,0.004));
#1252=CARTESIAN_POINT('',(0.00171019972901008,-0.0195060137514933,0.004));
#1253=CARTESIAN_POINT('',(0.00134346250375648,-0.0198537313117353,0.004));
#1254=CARTESIAN_POINT('',(0.0013436895070175,-0.0198541066981077,0.004));
#1255=CARTESIAN_POINT('',(0.0013436895070175,-0.0198541066981077,0.00433333333333333));
#1256=CARTESIAN_POINT('',(0.0013436895070175,-0.0198541066981077,0.00466666666666667));
#1257=CARTESIAN_POINT('',(0.0013436895070175,-0.0198541066981077,0.005));
#1258=CARTESIAN_POINT('',(0.00171019972901008,-0.0195060137514933,0.004));
#1259=CARTESIAN_POINT('',(0.00191681692827483,-0.0187964071604325,0.004));
#1260=CARTESIAN_POINT('',(0.00191681692827483,-0.0187964071604325,0.005));
#1261=CARTESIAN_POINT('',(0.00191681692827483,-0.0190646681693904,0.004));
#1262=CARTESIAN_POINT('',(0.00191681692827483,-0.0190646681693904,0.005));
#1263=CARTESIAN_POINT('',(0.00184794452851991,-0.0193012036997441,0.004));
#1264=CARTESIAN_POINT('',(0.00184794452851991,-0.0193012036997441,0.005));
#1265=CARTESIAN_POINT('',(0.00171019972901008,-0.0195060137514933,0.004));
#1266=CARTESIAN_POINT('',(0.00171019972901008,-0.0195060137514933,0.005));
#1267=CARTESIAN_POINT('',(0.00191681692827483,-0.0187964071604325,0.004));
#1268=CARTESIAN_POINT('',(0.00191681692827483,-0.0187964071604325,0.004));
#1269=CARTESIAN_POINT('',(0.00191681692827483,-0.0187964071604325,0.004));
#1270=CARTESIAN_POINT('',(0.00191681692827483,-0.0191987986738694,0.004));
#1271=CARTESIAN_POINT('',(0.00171019972901008,-0.0195060137514933,0.004));
#1272=CARTESIAN_POINT('',(0.00140117750387067,-0.0176759757008627,0.004));
#1273=CARTESIAN_POINT('',(0.00140117750387067,-0.0176759757008627,0.005));
#1274=CARTESIAN_POINT('',(0.00174493712014011,-0.0179305827063707,0.004));
#1275=CARTESIAN_POINT('',(0.00174493712014011,-0.0179305827063707,0.005));
#1276=CARTESIAN_POINT('',(0.00191681692827483,-0.0183040598595606,0.004));
#1277=CARTESIAN_POINT('',(0.00191681692827483,-0.0183040598595606,0.005));
#1278=CARTESIAN_POINT('',(0.00191681692827483,-0.0187964071604325,0.004));
#1279=CARTESIAN_POINT('',(0.00191681692827483,-0.0187964071604325,0.005));
#1280=CARTESIAN_POINT('',(0.00140117750387067,-0.0176759757008627,0.004));
#1281=CARTESIAN_POINT('',(0.00140117750387067,-0.0176759757008627,0.004));
#1282=CARTESIAN_POINT('',(0.00140117750387067,-0.0176759757008627,0.004));
#1283=CARTESIAN_POINT('',(0.00191681692827483,-0.0180578862091247,0.004));
#1284=CARTESIAN_POINT('',(0.00191681692827483,-0.0187964071604325,0.004));
#1285=CARTESIAN_POINT('',(-0.000112007349053672,-0.0172940651926008,0.004));
#1286=CARTESIAN_POINT('',(-0.000112007349053672,-0.0172940651926008,0.005));
#1287=CARTESIAN_POINT('',(0.000553022936626453,-0.0172940651926008,0.004));
#1288=CARTESIAN_POINT('',(0.000553022936626453,-0.0172940651926008,0.005));
#1289=CARTESIAN_POINT('',(0.00105741788760123,-0.0174213686953548,0.004));
#1290=CARTESIAN_POINT('',(0.00105741788760123,-0.0174213686953548,0.005));
#1291=CARTESIAN_POINT('',(0.00140117750387067,-0.0176759757008627,0.004));
#1292=CARTESIAN_POINT('',(0.00140117750387067,-0.0176759757008627,0.005));
#1293=CARTESIAN_POINT('',(-0.000112007349053672,-0.0172940651926008,0.004));
#1294=CARTESIAN_POINT('',(-0.000112007349053672,-0.0172940651926008,0.004));
#1295=CARTESIAN_POINT('',(-0.000112007349053672,-0.0172940651926008,0.004));
#1296=CARTESIAN_POINT('',(0.000885538079466515,-0.0172940651926008,0.004));
#1297=CARTESIAN_POINT('',(0.00140117750387067,-0.0176759757008627,0.004));
#1298=CARTESIAN_POINT('',(-0.000418620044172497,-0.0218685579366722,0.004));
#1299=CARTESIAN_POINT('',(-0.000418620044172497,-0.0218685579366722,0.005));
#1300=CARTESIAN_POINT('',(-0.000418620044172497,-0.0218685579366722,0.004));
#1301=CARTESIAN_POINT('',(-0.00107220506225487,-0.0172940651926008,0.004));
#1302=CARTESIAN_POINT('',(-0.00107220506225487,-0.0172940651926008,0.004));
#1303=CARTESIAN_POINT('',(-6.62262786626485E-5,-0.0195903473022137,0.004));
#1304=CARTESIAN_POINT('',(-6.62262786626485E-5,-0.0195903473022137,0.005));
#1305=CARTESIAN_POINT('',(0.000503225982867796,-0.0195807091821314,0.004));
#1306=CARTESIAN_POINT('',(0.000503225982867796,-0.0195807091821314,0.005));
#1307=CARTESIAN_POINT('',(0.000787952113633018,-0.0193538117718601,0.004));
#1308=CARTESIAN_POINT('',(0.000787952113633018,-0.0193538117718601,0.005));
#1309=CARTESIAN_POINT('',(0.000787952113633018,-0.0189096550713998,0.004));
#1310=CARTESIAN_POINT('',(0.000787952113633018,-0.0189096550713998,0.005));
#1311=CARTESIAN_POINT('',(-6.62262786626485E-5,-0.0195903473022137,0.005));
#1312=CARTESIAN_POINT('',(0.000787952113633018,-0.0195758901220902,0.005));
#1313=CARTESIAN_POINT('',(0.000787952113633018,-0.0189096550713998,0.005));
#1314=CARTESIAN_POINT('',(-6.62262786626485E-5,-0.0195903473022137,0.004));
#1315=CARTESIAN_POINT('',(0.000787952113633018,-0.0195758901220902,0.004));
#1316=CARTESIAN_POINT('',(0.000787952113633018,-0.0189096550713998,0.004));
#1317=CARTESIAN_POINT('',(0.0261621644641273,-0.0279750306723765,0.004));
#1318=CARTESIAN_POINT('',(0.0013543198248906,-0.020030834919166,0.004));
#1319=CARTESIAN_POINT('',(0.00131512751794526,-0.0200134092929186,0.004));
#1320=CARTESIAN_POINT('',(0.0012166270443136,-0.0199504527785864,0.004));
#1321=CARTESIAN_POINT('',(0.00130667282200501,-0.019875825477897,0.004));
#1322=CARTESIAN_POINT('',(0.00134346250377411,-0.0198537313117247,0.004));
#1323=CARTESIAN_POINT('',(0.,-0.02,0.005));
#1324=CARTESIAN_POINT('',(0.,-0.02,0.005));
#1325=CARTESIAN_POINT('',(0.00134346365406621,-0.0198537306209152,0.004));
#1326=CARTESIAN_POINT('',(0.00134346365406621,-0.0198537306209152,0.005));
#1327=CARTESIAN_POINT('',(0.00123357498405802,-0.0199197242012979,0.004));
#1328=CARTESIAN_POINT('',(0.00123357498405802,-0.0199197242012979,0.005));
#1329=CARTESIAN_POINT('',(0.0012371942087209,-0.0199787591901563,0.004));
#1330=CARTESIAN_POINT('',(0.0012371942087209,-0.0199787591901563,0.005));
#1331=CARTESIAN_POINT('',(0.00135432132804021,-0.0200308355874911,0.004));
#1332=CARTESIAN_POINT('',(0.00135432132804021,-0.0200308355874911,0.005));
#1333=MECHANICAL_DESIGN_GEOMETRIC_PRESENTATION_REPRESENTATION('',(#693),
#1334);
#1334=(
GEOMETRIC_REPRESENTATION_CONTEXT(3)
GLOBAL_UNCERTAINTY_ASSIGNED_CONTEXT((#1335))
GLOBAL_UNIT_ASSIGNED_CONTEXT((#1338,#1337,#1336))
REPRESENTATION_CONTEXT('Part 2','TOP_LEVEL_ASSEMBLY_PART')
);
#1335=UNCERTAINTY_MEASURE_WITH_UNIT(LENGTH_MEASURE(2.E-5),#1338,
'DISTANCE_ACCURACY_VALUE','Maximum Tolerance applied to model');
#1336=(
NAMED_UNIT(*)
SI_UNIT($,.STERADIAN.)
SOLID_ANGLE_UNIT()
);
#1337=(
NAMED_UNIT(*)
PLANE_ANGLE_UNIT()
SI_UNIT($,.RADIAN.)
);
#1338=(
LENGTH_UNIT()
NAMED_UNIT(*)
SI_UNIT($,.METRE.)
);
#1339=PRODUCT_DEFINITION_SHAPE('','',#1340);
#1340=PRODUCT_DEFINITION('','',#1342,#1341);
#1341=PRODUCT_DEFINITION_CONTEXT('',#1348,'design');
#1342=PRODUCT_DEFINITION_FORMATION_WITH_SPECIFIED_SOURCE('','',#1344,
 .NOT_KNOWN.);
#1343=PRODUCT_RELATED_PRODUCT_CATEGORY('','',(#1344));
#1344=PRODUCT('Part 2','Part 2','Part 2',(#1346));
#1345=PRODUCT_CATEGORY('','');
#1346=PRODUCT_CONTEXT('',#1348,'mechanical');
#1347=APPLICATION_PROTOCOL_DEFINITION('international standard',
'ap242_managed_model_based_3d_engineering',2020,#1348);
#1348=APPLICATION_CONTEXT('managed model based 3d engineering');
ENDSEC;
END-ISO-10303-21;
