ISO-10303-21;
HEADER;
/* Generated by software containing ST-Developer
 * from STEP Tools, Inc. (www.steptools.com) 
 */
/* OPTION: using custom renumber hook */

FILE_DESCRIPTION(
/* description */ ('STEP AP242 Edition 2',
'CAx-IF Rec.Pracs.---Representation and Presentation of Product Manufa
cturing Information (PMI)---4.0---2014-10-13',
'CAx-IF Rec.Pracs.---3D Tessellated Geometry---0.4---2014-09-14','2;1',
'CAx-IF Rec.Pracs.---User Defined Attributes---1.5---2016-08-15'),
/* implementation_level */ '2;1');

FILE_NAME(
/* name */ 'S_BUTTONS - Part 3',
/* time_stamp */ '2026-09-23T14:42:51Z',
/* author */ (''),
/* organization */ (''),
/* preprocessor_version */ 'ST-DEVELOPER v20',
/* originating_system */ 'ONSHAPE BY PTC INC, 1.221',
/* authorisation */ '  ');

FILE_SCHEMA (('AP242_MANAGED_MODEL_BASED_3D_ENGINEERING_MIM_LF { 1 0 10303 442 3 1 4 }'));
ENDSEC;

DATA;
#10=SHAPE_REPRESENTATION_RELATIONSHIP('','',#471,#11);
#11=ADVANCED_BREP_SHAPE_REPRESENTATION('',(#469),#857);
#12=B_SPLINE_SURFACE_WITH_KNOTS('',3,3,((#727,#728,#729,#730,#731,#732,
#733,#734,#735,#736,#737,#738,#739,#740,#741,#742,#743,#744,#745),(#746,
#747,#748,#749,#750,#751,#752,#753,#754,#755,#756,#757,#758,#759,#760,#761,
#762,#763,#764),(#765,#766,#767,#768,#769,#770,#771,#772,#773,#774,#775,
#776,#777,#778,#779,#780,#781,#782,#783),(#784,#785,#786,#787,#788,#789,
#790,#791,#792,#793,#794,#795,#796,#797,#798,#799,#800,#801,#802)),
 .UNSPECIFIED.,.F.,.T.,.F.,(4,4),(1,1,1,1,1,1,1,1,1,1,1,1,1,1,1,1,1,1,1,
1,1,1,1),(0.,1.),(-1.17809724509617,-0.785398163397448,-0.392699081698725,
0.,0.392699081698724,0.785398163397448,1.17809724509617,1.5707963267949,
1.96349540849362,2.35619449019234,2.74889357189107,3.14159265358979,3.53429173528852,
3.92699081698724,4.31968989868597,4.71238898038469,5.10508806208341,5.49778714378214,
5.89048622548086,6.28318530717959,6.67588438887831,7.06858347057703,7.46128255227576),
 .UNSPECIFIED.);
#13=B_SPLINE_CURVE_WITH_KNOTS('',3,(#649,#650,#651,#652,#653,#654,#655,
#656,#657,#658,#659),.UNSPECIFIED.,.T.,.F.,(1,1,1,1,1,1,1,1,1,1,1,1,1,1,
1),(-0.375,-0.25,-0.125,0.,0.125,0.25,0.375,0.5,0.625,0.75,0.875,1.,1.125,
1.25,1.375),.UNSPECIFIED.);
#14=B_SPLINE_CURVE_WITH_KNOTS('',3,(#699,#700,#701,#702,#703,#704,#705,
#706,#707,#708,#709,#710,#711,#712,#713,#714,#715,#716,#717),
 .UNSPECIFIED.,.T.,.F.,(1,1,1,1,1,1,1,1,1,1,1,1,1,1,1,1,1,1,1,1,1,1,1),
(-0.190789473684211,-0.128289473684211,-0.0657894736842105,0.,0.059375,
0.12171875,0.1842109375,0.246710546875,0.30921052734375,0.371710526367187,
0.434210526318359,0.496710526315918,0.559210526315796,0.62171052631579,
0.684210526315789,0.746710526315789,0.809210526315789,0.871710526315789,
0.934210526315789,1.,1.059375,1.12171875,1.1842109375),.UNSPECIFIED.);
#15=PLANE('',#479);
#16=PLANE('',#485);
#17=PLANE('',#486);
#18=PLANE('',#487);
#19=PLANE('',#488);
#20=PLANE('',#489);
#21=PLANE('',#490);
#22=PLANE('',#491);
#23=PLANE('',#492);
#24=PLANE('',#493);
#25=PLANE('',#494);
#26=PLANE('',#495);
#27=PLANE('',#496);
#28=PLANE('',#497);
#29=PLANE('',#498);
#30=PLANE('',#499);
#31=PLANE('',#500);
#32=PLANE('',#501);
#33=PLANE('',#502);
#34=PLANE('',#503);
#35=PLANE('',#504);
#36=CIRCLE('',#474,0.00662153341332279);
#37=CIRCLE('',#475,0.00662153341332279);
#38=CIRCLE('',#477,0.00662153341332279);
#39=CIRCLE('',#478,0.00662153341332279);
#40=CIRCLE('',#480,0.00575);
#41=CIRCLE('',#482,0.00575);
#42=CIRCLE('',#483,0.00575);
#43=CIRCLE('',#484,0.00575);
#44=ORIENTED_EDGE('',*,*,#168,.F.);
#45=ORIENTED_EDGE('',*,*,#169,.F.);
#46=ORIENTED_EDGE('',*,*,#170,.T.);
#47=ORIENTED_EDGE('',*,*,#171,.T.);
#48=ORIENTED_EDGE('',*,*,#172,.F.);
#49=ORIENTED_EDGE('',*,*,#173,.T.);
#50=ORIENTED_EDGE('',*,*,#174,.T.);
#51=ORIENTED_EDGE('',*,*,#175,.F.);
#52=ORIENTED_EDGE('',*,*,#174,.F.);
#53=ORIENTED_EDGE('',*,*,#176,.T.);
#54=ORIENTED_EDGE('',*,*,#177,.F.);
#55=ORIENTED_EDGE('',*,*,#178,.T.);
#56=ORIENTED_EDGE('',*,*,#179,.T.);
#57=ORIENTED_EDGE('',*,*,#177,.T.);
#58=ORIENTED_EDGE('',*,*,#180,.F.);
#59=ORIENTED_EDGE('',*,*,#181,.T.);
#60=ORIENTED_EDGE('',*,*,#182,.T.);
#61=ORIENTED_EDGE('',*,*,#183,.T.);
#62=ORIENTED_EDGE('',*,*,#184,.F.);
#63=ORIENTED_EDGE('',*,*,#185,.T.);
#64=ORIENTED_EDGE('',*,*,#186,.T.);
#65=ORIENTED_EDGE('',*,*,#187,.F.);
#66=ORIENTED_EDGE('',*,*,#188,.F.);
#67=ORIENTED_EDGE('',*,*,#189,.F.);
#68=ORIENTED_EDGE('',*,*,#190,.F.);
#69=ORIENTED_EDGE('',*,*,#191,.F.);
#70=ORIENTED_EDGE('',*,*,#192,.F.);
#71=ORIENTED_EDGE('',*,*,#193,.F.);
#72=ORIENTED_EDGE('',*,*,#194,.F.);
#73=ORIENTED_EDGE('',*,*,#195,.F.);
#74=ORIENTED_EDGE('',*,*,#196,.F.);
#75=ORIENTED_EDGE('',*,*,#197,.F.);
#76=ORIENTED_EDGE('',*,*,#198,.F.);
#77=ORIENTED_EDGE('',*,*,#199,.T.);
#78=ORIENTED_EDGE('',*,*,#200,.F.);
#79=ORIENTED_EDGE('',*,*,#172,.T.);
#80=ORIENTED_EDGE('',*,*,#201,.F.);
#81=ORIENTED_EDGE('',*,*,#185,.F.);
#82=ORIENTED_EDGE('',*,*,#202,.F.);
#83=ORIENTED_EDGE('',*,*,#169,.T.);
#84=ORIENTED_EDGE('',*,*,#203,.F.);
#85=ORIENTED_EDGE('',*,*,#181,.F.);
#86=ORIENTED_EDGE('',*,*,#183,.F.);
#87=ORIENTED_EDGE('',*,*,#204,.T.);
#88=ORIENTED_EDGE('',*,*,#171,.F.);
#89=ORIENTED_EDGE('',*,*,#205,.T.);
#90=ORIENTED_EDGE('',*,*,#179,.F.);
#91=ORIENTED_EDGE('',*,*,#199,.F.);
#92=ORIENTED_EDGE('',*,*,#201,.T.);
#93=ORIENTED_EDGE('',*,*,#175,.T.);
#94=ORIENTED_EDGE('',*,*,#178,.F.);
#95=ORIENTED_EDGE('',*,*,#186,.F.);
#96=ORIENTED_EDGE('',*,*,#202,.T.);
#97=ORIENTED_EDGE('',*,*,#184,.T.);
#98=ORIENTED_EDGE('',*,*,#205,.F.);
#99=ORIENTED_EDGE('',*,*,#170,.F.);
#100=ORIENTED_EDGE('',*,*,#203,.T.);
#101=ORIENTED_EDGE('',*,*,#168,.T.);
#102=ORIENTED_EDGE('',*,*,#204,.F.);
#103=ORIENTED_EDGE('',*,*,#182,.F.);
#104=ORIENTED_EDGE('',*,*,#200,.T.);
#105=ORIENTED_EDGE('',*,*,#180,.T.);
#106=ORIENTED_EDGE('',*,*,#176,.F.);
#107=ORIENTED_EDGE('',*,*,#173,.F.);
#108=ORIENTED_EDGE('',*,*,#187,.T.);
#109=ORIENTED_EDGE('',*,*,#206,.F.);
#110=ORIENTED_EDGE('',*,*,#207,.F.);
#111=ORIENTED_EDGE('',*,*,#208,.T.);
#112=ORIENTED_EDGE('',*,*,#198,.T.);
#113=ORIENTED_EDGE('',*,*,#209,.F.);
#114=ORIENTED_EDGE('',*,*,#210,.F.);
#115=ORIENTED_EDGE('',*,*,#206,.T.);
#116=ORIENTED_EDGE('',*,*,#197,.T.);
#117=ORIENTED_EDGE('',*,*,#211,.F.);
#118=ORIENTED_EDGE('',*,*,#212,.F.);
#119=ORIENTED_EDGE('',*,*,#209,.T.);
#120=ORIENTED_EDGE('',*,*,#196,.T.);
#121=ORIENTED_EDGE('',*,*,#213,.F.);
#122=ORIENTED_EDGE('',*,*,#214,.F.);
#123=ORIENTED_EDGE('',*,*,#211,.T.);
#124=ORIENTED_EDGE('',*,*,#195,.T.);
#125=ORIENTED_EDGE('',*,*,#215,.F.);
#126=ORIENTED_EDGE('',*,*,#216,.F.);
#127=ORIENTED_EDGE('',*,*,#213,.T.);
#128=ORIENTED_EDGE('',*,*,#194,.T.);
#129=ORIENTED_EDGE('',*,*,#217,.F.);
#130=ORIENTED_EDGE('',*,*,#218,.F.);
#131=ORIENTED_EDGE('',*,*,#215,.T.);
#132=ORIENTED_EDGE('',*,*,#193,.T.);
#133=ORIENTED_EDGE('',*,*,#219,.F.);
#134=ORIENTED_EDGE('',*,*,#220,.F.);
#135=ORIENTED_EDGE('',*,*,#217,.T.);
#136=ORIENTED_EDGE('',*,*,#192,.T.);
#137=ORIENTED_EDGE('',*,*,#221,.F.);
#138=ORIENTED_EDGE('',*,*,#222,.F.);
#139=ORIENTED_EDGE('',*,*,#219,.T.);
#140=ORIENTED_EDGE('',*,*,#191,.T.);
#141=ORIENTED_EDGE('',*,*,#223,.F.);
#142=ORIENTED_EDGE('',*,*,#224,.F.);
#143=ORIENTED_EDGE('',*,*,#221,.T.);
#144=ORIENTED_EDGE('',*,*,#190,.T.);
#145=ORIENTED_EDGE('',*,*,#225,.F.);
#146=ORIENTED_EDGE('',*,*,#226,.F.);
#147=ORIENTED_EDGE('',*,*,#223,.T.);
#148=ORIENTED_EDGE('',*,*,#189,.T.);
#149=ORIENTED_EDGE('',*,*,#227,.F.);
#150=ORIENTED_EDGE('',*,*,#228,.F.);
#151=ORIENTED_EDGE('',*,*,#225,.T.);
#152=ORIENTED_EDGE('',*,*,#188,.T.);
#153=ORIENTED_EDGE('',*,*,#208,.F.);
#154=ORIENTED_EDGE('',*,*,#229,.F.);
#155=ORIENTED_EDGE('',*,*,#227,.T.);
#156=ORIENTED_EDGE('',*,*,#207,.T.);
#157=ORIENTED_EDGE('',*,*,#210,.T.);
#158=ORIENTED_EDGE('',*,*,#212,.T.);
#159=ORIENTED_EDGE('',*,*,#214,.T.);
#160=ORIENTED_EDGE('',*,*,#216,.T.);
#161=ORIENTED_EDGE('',*,*,#218,.T.);
#162=ORIENTED_EDGE('',*,*,#220,.T.);
#163=ORIENTED_EDGE('',*,*,#222,.T.);
#164=ORIENTED_EDGE('',*,*,#224,.T.);
#165=ORIENTED_EDGE('',*,*,#226,.T.);
#166=ORIENTED_EDGE('',*,*,#228,.T.);
#167=ORIENTED_EDGE('',*,*,#229,.T.);
#168=EDGE_CURVE('',#230,#231,#272,.T.);
#169=EDGE_CURVE('',#232,#230,#36,.T.);
#170=EDGE_CURVE('',#232,#233,#273,.T.);
#171=EDGE_CURVE('',#233,#231,#37,.T.);
#172=EDGE_CURVE('',#234,#235,#38,.T.);
#173=EDGE_CURVE('',#234,#236,#274,.T.);
#174=EDGE_CURVE('',#236,#237,#39,.T.);
#175=EDGE_CURVE('',#235,#237,#275,.T.);
#176=EDGE_CURVE('',#236,#238,#276,.T.);
#177=EDGE_CURVE('',#239,#238,#40,.T.);
#178=EDGE_CURVE('',#239,#237,#277,.T.);
#179=EDGE_CURVE('',#240,#240,#13,.T.);
#180=EDGE_CURVE('',#241,#238,#278,.T.);
#181=EDGE_CURVE('',#241,#242,#41,.F.);
#182=EDGE_CURVE('',#242,#243,#279,.T.);
#183=EDGE_CURVE('',#243,#244,#42,.T.);
#184=EDGE_CURVE('',#245,#244,#280,.T.);
#185=EDGE_CURVE('',#245,#246,#43,.F.);
#186=EDGE_CURVE('',#246,#239,#281,.T.);
#187=EDGE_CURVE('',#247,#248,#282,.T.);
#188=EDGE_CURVE('',#249,#247,#283,.T.);
#189=EDGE_CURVE('',#250,#249,#284,.T.);
#190=EDGE_CURVE('',#251,#250,#285,.T.);
#191=EDGE_CURVE('',#252,#251,#286,.T.);
#192=EDGE_CURVE('',#253,#252,#287,.T.);
#193=EDGE_CURVE('',#254,#253,#288,.T.);
#194=EDGE_CURVE('',#255,#254,#289,.T.);
#195=EDGE_CURVE('',#256,#255,#290,.T.);
#196=EDGE_CURVE('',#257,#256,#291,.T.);
#197=EDGE_CURVE('',#258,#257,#292,.T.);
#198=EDGE_CURVE('',#248,#258,#293,.T.);
#199=EDGE_CURVE('',#259,#259,#14,.T.);
#200=EDGE_CURVE('',#234,#241,#294,.T.);
#201=EDGE_CURVE('',#246,#235,#295,.T.);
#202=EDGE_CURVE('',#232,#245,#296,.T.);
#203=EDGE_CURVE('',#242,#230,#297,.T.);
#204=EDGE_CURVE('',#243,#231,#298,.T.);
#205=EDGE_CURVE('',#233,#244,#299,.T.);
#206=EDGE_CURVE('',#260,#248,#300,.T.);
#207=EDGE_CURVE('',#261,#260,#301,.T.);
#208=EDGE_CURVE('',#261,#247,#302,.T.);
#209=EDGE_CURVE('',#262,#258,#303,.T.);
#210=EDGE_CURVE('',#260,#262,#304,.T.);
#211=EDGE_CURVE('',#263,#257,#305,.T.);
#212=EDGE_CURVE('',#262,#263,#306,.T.);
#213=EDGE_CURVE('',#264,#256,#307,.T.);
#214=EDGE_CURVE('',#263,#264,#308,.T.);
#215=EDGE_CURVE('',#265,#255,#309,.T.);
#216=EDGE_CURVE('',#264,#265,#310,.T.);
#217=EDGE_CURVE('',#266,#254,#311,.T.);
#218=EDGE_CURVE('',#265,#266,#312,.T.);
#219=EDGE_CURVE('',#267,#253,#313,.T.);
#220=EDGE_CURVE('',#266,#267,#314,.T.);
#221=EDGE_CURVE('',#268,#252,#315,.T.);
#222=EDGE_CURVE('',#267,#268,#316,.T.);
#223=EDGE_CURVE('',#269,#251,#317,.T.);
#224=EDGE_CURVE('',#268,#269,#318,.T.);
#225=EDGE_CURVE('',#270,#250,#319,.T.);
#226=EDGE_CURVE('',#269,#270,#320,.T.);
#227=EDGE_CURVE('',#271,#249,#321,.T.);
#228=EDGE_CURVE('',#270,#271,#322,.T.);
#229=EDGE_CURVE('',#271,#261,#323,.T.);
#230=VERTEX_POINT('',#626);
#231=VERTEX_POINT('',#627);
#232=VERTEX_POINT('',#629);
#233=VERTEX_POINT('',#631);
#234=VERTEX_POINT('',#635);
#235=VERTEX_POINT('',#636);
#236=VERTEX_POINT('',#638);
#237=VERTEX_POINT('',#640);
#238=VERTEX_POINT('',#644);
#239=VERTEX_POINT('',#646);
#240=VERTEX_POINT('',#660);
#241=VERTEX_POINT('',#662);
#242=VERTEX_POINT('',#664);
#243=VERTEX_POINT('',#666);
#244=VERTEX_POINT('',#668);
#245=VERTEX_POINT('',#670);
#246=VERTEX_POINT('',#672);
#247=VERTEX_POINT('',#676);
#248=VERTEX_POINT('',#677);
#249=VERTEX_POINT('',#679);
#250=VERTEX_POINT('',#681);
#251=VERTEX_POINT('',#683);
#252=VERTEX_POINT('',#685);
#253=VERTEX_POINT('',#687);
#254=VERTEX_POINT('',#689);
#255=VERTEX_POINT('',#691);
#256=VERTEX_POINT('',#693);
#257=VERTEX_POINT('',#695);
#258=VERTEX_POINT('',#697);
#259=VERTEX_POINT('',#718);
#260=VERTEX_POINT('',#809);
#261=VERTEX_POINT('',#811);
#262=VERTEX_POINT('',#815);
#263=VERTEX_POINT('',#819);
#264=VERTEX_POINT('',#823);
#265=VERTEX_POINT('',#827);
#266=VERTEX_POINT('',#831);
#267=VERTEX_POINT('',#835);
#268=VERTEX_POINT('',#839);
#269=VERTEX_POINT('',#843);
#270=VERTEX_POINT('',#847);
#271=VERTEX_POINT('',#851);
#272=LINE('',#625,#324);
#273=LINE('',#630,#325);
#274=LINE('',#637,#326);
#275=LINE('',#641,#327);
#276=LINE('',#643,#328);
#277=LINE('',#647,#329);
#278=LINE('',#661,#330);
#279=LINE('',#665,#331);
#280=LINE('',#669,#332);
#281=LINE('',#673,#333);
#282=LINE('',#675,#334);
#283=LINE('',#678,#335);
#284=LINE('',#680,#336);
#285=LINE('',#682,#337);
#286=LINE('',#684,#338);
#287=LINE('',#686,#339);
#288=LINE('',#688,#340);
#289=LINE('',#690,#341);
#290=LINE('',#692,#342);
#291=LINE('',#694,#343);
#292=LINE('',#696,#344);
#293=LINE('',#698,#345);
#294=LINE('',#720,#346);
#295=LINE('',#721,#347);
#296=LINE('',#722,#348);
#297=LINE('',#723,#349);
#298=LINE('',#725,#350);
#299=LINE('',#726,#351);
#300=LINE('',#808,#352);
#301=LINE('',#810,#353);
#302=LINE('',#812,#354);
#303=LINE('',#814,#355);
#304=LINE('',#816,#356);
#305=LINE('',#818,#357);
#306=LINE('',#820,#358);
#307=LINE('',#822,#359);
#308=LINE('',#824,#360);
#309=LINE('',#826,#361);
#310=LINE('',#828,#362);
#311=LINE('',#830,#363);
#312=LINE('',#832,#364);
#313=LINE('',#834,#365);
#314=LINE('',#836,#366);
#315=LINE('',#838,#367);
#316=LINE('',#840,#368);
#317=LINE('',#842,#369);
#318=LINE('',#844,#370);
#319=LINE('',#846,#371);
#320=LINE('',#848,#372);
#321=LINE('',#850,#373);
#322=LINE('',#852,#374);
#323=LINE('',#854,#375);
#324=VECTOR('',#509,1.);
#325=VECTOR('',#512,1.);
#326=VECTOR('',#519,1.);
#327=VECTOR('',#522,1.);
#328=VECTOR('',#525,1.);
#329=VECTOR('',#528,1.);
#330=VECTOR('',#531,1.);
#331=VECTOR('',#534,1.);
#332=VECTOR('',#537,1.);
#333=VECTOR('',#540,1.);
#334=VECTOR('',#543,1.);
#335=VECTOR('',#544,1.);
#336=VECTOR('',#545,1.);
#337=VECTOR('',#546,1.);
#338=VECTOR('',#547,1.);
#339=VECTOR('',#548,1.);
#340=VECTOR('',#549,1.);
#341=VECTOR('',#550,1.);
#342=VECTOR('',#551,1.);
#343=VECTOR('',#552,1.);
#344=VECTOR('',#553,1.);
#345=VECTOR('',#554,1.);
#346=VECTOR('',#557,1.);
#347=VECTOR('',#558,1.);
#348=VECTOR('',#559,1.);
#349=VECTOR('',#560,1.);
#350=VECTOR('',#563,1.);
#351=VECTOR('',#564,1.);
#352=VECTOR('',#575,1.);
#353=VECTOR('',#576,1.);
#354=VECTOR('',#577,1.);
#355=VECTOR('',#580,1.);
#356=VECTOR('',#581,1.);
#357=VECTOR('',#584,1.);
#358=VECTOR('',#585,1.);
#359=VECTOR('',#588,1.);
#360=VECTOR('',#589,1.);
#361=VECTOR('',#592,1.);
#362=VECTOR('',#593,1.);
#363=VECTOR('',#596,1.);
#364=VECTOR('',#597,1.);
#365=VECTOR('',#600,1.);
#366=VECTOR('',#601,1.);
#367=VECTOR('',#604,1.);
#368=VECTOR('',#605,1.);
#369=VECTOR('',#608,1.);
#370=VECTOR('',#609,1.);
#371=VECTOR('',#612,1.);
#372=VECTOR('',#613,1.);
#373=VECTOR('',#616,1.);
#374=VECTOR('',#617,1.);
#375=VECTOR('',#620,1.);
#376=EDGE_LOOP('',(#44,#45,#46,#47));
#377=EDGE_LOOP('',(#48,#49,#50,#51));
#378=EDGE_LOOP('',(#52,#53,#54,#55));
#379=EDGE_LOOP('',(#56));
#380=EDGE_LOOP('',(#57,#58,#59,#60,#61,#62,#63,#64));
#381=EDGE_LOOP('',(#65,#66,#67,#68,#69,#70,#71,#72,#73,#74,#75,#76));
#382=EDGE_LOOP('',(#77));
#383=EDGE_LOOP('',(#78,#79,#80,#81,#82,#83,#84,#85));
#384=EDGE_LOOP('',(#86,#87,#88,#89));
#385=EDGE_LOOP('',(#90));
#386=EDGE_LOOP('',(#91));
#387=EDGE_LOOP('',(#92,#93,#94,#95));
#388=EDGE_LOOP('',(#96,#97,#98,#99));
#389=EDGE_LOOP('',(#100,#101,#102,#103));
#390=EDGE_LOOP('',(#104,#105,#106,#107));
#391=EDGE_LOOP('',(#108,#109,#110,#111));
#392=EDGE_LOOP('',(#112,#113,#114,#115));
#393=EDGE_LOOP('',(#116,#117,#118,#119));
#394=EDGE_LOOP('',(#120,#121,#122,#123));
#395=EDGE_LOOP('',(#124,#125,#126,#127));
#396=EDGE_LOOP('',(#128,#129,#130,#131));
#397=EDGE_LOOP('',(#132,#133,#134,#135));
#398=EDGE_LOOP('',(#136,#137,#138,#139));
#399=EDGE_LOOP('',(#140,#141,#142,#143));
#400=EDGE_LOOP('',(#144,#145,#146,#147));
#401=EDGE_LOOP('',(#148,#149,#150,#151));
#402=EDGE_LOOP('',(#152,#153,#154,#155));
#403=EDGE_LOOP('',(#156,#157,#158,#159,#160,#161,#162,#163,#164,#165,#166,
#167));
#404=FACE_BOUND('',#376,.T.);
#405=FACE_BOUND('',#377,.T.);
#406=FACE_BOUND('',#378,.T.);
#407=FACE_BOUND('',#379,.T.);
#408=FACE_BOUND('',#380,.T.);
#409=FACE_BOUND('',#381,.T.);
#410=FACE_BOUND('',#382,.T.);
#411=FACE_BOUND('',#383,.T.);
#412=FACE_BOUND('',#384,.T.);
#413=FACE_BOUND('',#385,.T.);
#414=FACE_BOUND('',#386,.T.);
#415=FACE_BOUND('',#387,.T.);
#416=FACE_BOUND('',#388,.T.);
#417=FACE_BOUND('',#389,.T.);
#418=FACE_BOUND('',#390,.T.);
#419=FACE_BOUND('',#391,.T.);
#420=FACE_BOUND('',#392,.T.);
#421=FACE_BOUND('',#393,.T.);
#422=FACE_BOUND('',#394,.T.);
#423=FACE_BOUND('',#395,.T.);
#424=FACE_BOUND('',#396,.T.);
#425=FACE_BOUND('',#397,.T.);
#426=FACE_BOUND('',#398,.T.);
#427=FACE_BOUND('',#399,.T.);
#428=FACE_BOUND('',#400,.T.);
#429=FACE_BOUND('',#401,.T.);
#430=FACE_BOUND('',#402,.T.);
#431=FACE_BOUND('',#403,.T.);
#432=CYLINDRICAL_SURFACE('',#473,0.00662153341332279);
#433=CYLINDRICAL_SURFACE('',#476,0.00662153341332279);
#434=CYLINDRICAL_SURFACE('',#481,0.00575);
#435=ADVANCED_FACE('',(#404),#432,.T.);
#436=ADVANCED_FACE('',(#405),#433,.T.);
#437=ADVANCED_FACE('',(#406),#15,.F.);
#438=ADVANCED_FACE('',(#407,#408),#434,.T.);
#439=ADVANCED_FACE('',(#409,#410),#16,.T.);
#440=ADVANCED_FACE('',(#411),#17,.T.);
#441=ADVANCED_FACE('',(#412),#18,.F.);
#442=ADVANCED_FACE('',(#413,#414),#12,.T.);
#443=ADVANCED_FACE('',(#415),#19,.T.);
#444=ADVANCED_FACE('',(#416),#20,.T.);
#445=ADVANCED_FACE('',(#417),#21,.T.);
#446=ADVANCED_FACE('',(#418),#22,.T.);
#447=ADVANCED_FACE('',(#419),#23,.F.);
#448=ADVANCED_FACE('',(#420),#24,.F.);
#449=ADVANCED_FACE('',(#421),#25,.F.);
#450=ADVANCED_FACE('',(#422),#26,.F.);
#451=ADVANCED_FACE('',(#423),#27,.F.);
#452=ADVANCED_FACE('',(#424),#28,.F.);
#453=ADVANCED_FACE('',(#425),#29,.F.);
#454=ADVANCED_FACE('',(#426),#30,.F.);
#455=ADVANCED_FACE('',(#427),#31,.F.);
#456=ADVANCED_FACE('',(#428),#32,.F.);
#457=ADVANCED_FACE('',(#429),#33,.F.);
#458=ADVANCED_FACE('',(#430),#34,.F.);
#459=ADVANCED_FACE('',(#431),#35,.T.);
#460=CLOSED_SHELL('',(#435,#436,#437,#438,#439,#440,#441,#442,#443,#444,
#445,#446,#447,#448,#449,#450,#451,#452,#453,#454,#455,#456,#457,#458,#459));
#461=STYLED_ITEM('',(#462),#469);
#462=PRESENTATION_STYLE_ASSIGNMENT((#463));
#463=SURFACE_STYLE_USAGE(.BOTH.,#464);
#464=SURFACE_SIDE_STYLE('',(#465));
#465=SURFACE_STYLE_FILL_AREA(#466);
#466=FILL_AREA_STYLE('',(#467));
#467=FILL_AREA_STYLE_COLOUR('',#468);
#468=COLOUR_RGB('',0.682352941176471,0.333333333333334,0.737254901960784);
#469=MANIFOLD_SOLID_BREP('Part 3',#460);
#470=SHAPE_DEFINITION_REPRESENTATION(#862,#471);
#471=SHAPE_REPRESENTATION('Part 3',(#472),#857);
#472=AXIS2_PLACEMENT_3D('',#623,#505,#506);
#473=AXIS2_PLACEMENT_3D('',#624,#507,#508);
#474=AXIS2_PLACEMENT_3D('',#628,#510,#511);
#475=AXIS2_PLACEMENT_3D('',#632,#513,#514);
#476=AXIS2_PLACEMENT_3D('',#633,#515,#516);
#477=AXIS2_PLACEMENT_3D('',#634,#517,#518);
#478=AXIS2_PLACEMENT_3D('',#639,#520,#521);
#479=AXIS2_PLACEMENT_3D('',#642,#523,#524);
#480=AXIS2_PLACEMENT_3D('',#645,#526,#527);
#481=AXIS2_PLACEMENT_3D('',#648,#529,#530);
#482=AXIS2_PLACEMENT_3D('',#663,#532,#533);
#483=AXIS2_PLACEMENT_3D('',#667,#535,#536);
#484=AXIS2_PLACEMENT_3D('',#671,#538,#539);
#485=AXIS2_PLACEMENT_3D('',#674,#541,#542);
#486=AXIS2_PLACEMENT_3D('',#719,#555,#556);
#487=AXIS2_PLACEMENT_3D('',#724,#561,#562);
#488=AXIS2_PLACEMENT_3D('',#803,#565,#566);
#489=AXIS2_PLACEMENT_3D('',#804,#567,#568);
#490=AXIS2_PLACEMENT_3D('',#805,#569,#570);
#491=AXIS2_PLACEMENT_3D('',#806,#571,#572);
#492=AXIS2_PLACEMENT_3D('',#807,#573,#574);
#493=AXIS2_PLACEMENT_3D('',#813,#578,#579);
#494=AXIS2_PLACEMENT_3D('',#817,#582,#583);
#495=AXIS2_PLACEMENT_3D('',#821,#586,#587);
#496=AXIS2_PLACEMENT_3D('',#825,#590,#591);
#497=AXIS2_PLACEMENT_3D('',#829,#594,#595);
#498=AXIS2_PLACEMENT_3D('',#833,#598,#599);
#499=AXIS2_PLACEMENT_3D('',#837,#602,#603);
#500=AXIS2_PLACEMENT_3D('',#841,#606,#607);
#501=AXIS2_PLACEMENT_3D('',#845,#610,#611);
#502=AXIS2_PLACEMENT_3D('',#849,#614,#615);
#503=AXIS2_PLACEMENT_3D('',#853,#618,#619);
#504=AXIS2_PLACEMENT_3D('',#855,#621,#622);
#505=DIRECTION('',(0.,0.,1.));
#506=DIRECTION('',(1.,0.,0.));
#507=DIRECTION('',(0.,0.,1.));
#508=DIRECTION('',(1.,0.,0.));
#509=DIRECTION('',(0.,0.,1.));
#510=DIRECTION('',(0.,0.,-1.));
#511=DIRECTION('',(-1.,0.,0.));
#512=DIRECTION('',(0.,0.,1.));
#513=DIRECTION('',(0.,0.,-1.));
#514=DIRECTION('',(-1.,0.,0.));
#515=DIRECTION('',(0.,0.,1.));
#516=DIRECTION('',(1.,0.,0.));
#517=DIRECTION('',(0.,0.,-1.));
#518=DIRECTION('',(-1.,0.,0.));
#519=DIRECTION('',(0.,0.,1.));
#520=DIRECTION('',(0.,0.,-1.));
#521=DIRECTION('',(-1.,0.,0.));
#522=DIRECTION('',(0.,0.,1.));
#523=DIRECTION('',(0.,0.,-1.));
#524=DIRECTION('',(1.,0.,0.));
#525=DIRECTION('',(1.,3.71639862219125E-16,0.));
#526=DIRECTION('',(0.,0.,1.));
#527=DIRECTION('',(1.,0.,0.));
#528=DIRECTION('',(1.,3.71639862219125E-16,0.));
#529=DIRECTION('',(0.,0.,-1.));
#530=DIRECTION('',(-1.,0.,0.));
#531=DIRECTION('',(0.,0.,1.));
#532=DIRECTION('',(0.,0.,-1.));
#533=DIRECTION('',(-1.,0.,0.));
#534=DIRECTION('',(0.,0.,1.));
#535=DIRECTION('',(0.,0.,1.));
#536=DIRECTION('',(1.,0.,0.));
#537=DIRECTION('',(0.,0.,1.));
#538=DIRECTION('',(0.,0.,-1.));
#539=DIRECTION('',(-1.,0.,0.));
#540=DIRECTION('',(0.,0.,1.));
#541=DIRECTION('',(0.,0.,1.));
#542=DIRECTION('',(1.,0.,0.));
#543=DIRECTION('',(-0.707106781186547,-0.707106781186548,0.));
#544=DIRECTION('',(-0.707106781186548,0.707106781186547,0.));
#545=DIRECTION('',(-0.707106781186547,-0.707106781186548,0.));
#546=DIRECTION('',(-0.707106781186548,0.707106781186547,0.));
#547=DIRECTION('',(0.707106781186547,0.707106781186548,0.));
#548=DIRECTION('',(-0.707106781186548,0.707106781186547,0.));
#549=DIRECTION('',(0.707106781186548,0.707106781186548,0.));
#550=DIRECTION('',(0.707106781186548,-0.707106781186548,0.));
#551=DIRECTION('',(0.707106781186548,0.707106781186547,0.));
#552=DIRECTION('',(0.707106781186548,-0.707106781186548,0.));
#553=DIRECTION('',(-0.707106781186548,-0.707106781186548,0.));
#554=DIRECTION('',(0.707106781186548,-0.707106781186547,0.));
#555=DIRECTION('',(0.,0.,-1.));
#556=DIRECTION('',(1.,0.,0.));
#557=DIRECTION('',(1.,3.71639862219125E-16,0.));
#558=DIRECTION('',(1.,3.71639862219125E-16,0.));
#559=DIRECTION('',(-1.,-1.33894854141351E-16,0.));
#560=DIRECTION('',(-1.,-1.33894854141351E-16,0.));
#561=DIRECTION('',(0.,0.,-1.));
#562=DIRECTION('',(1.,0.,0.));
#563=DIRECTION('',(-1.,-1.33894854141351E-16,0.));
#564=DIRECTION('',(-1.,-1.33894854141351E-16,0.));
#565=DIRECTION('',(3.71639862219125E-16,-1.,0.));
#566=DIRECTION('',(1.,3.71639862219125E-16,0.));
#567=DIRECTION('',(-1.33894854141351E-16,1.,0.));
#568=DIRECTION('',(-1.,-1.33894854141351E-16,0.));
#569=DIRECTION('',(-1.33894854141351E-16,1.,0.));
#570=DIRECTION('',(-1.,-1.33894854141351E-16,0.));
#571=DIRECTION('',(3.71639862219125E-16,-1.,0.));
#572=DIRECTION('',(1.,3.71639862219125E-16,0.));
#573=DIRECTION('',(-0.707106781186548,0.707106781186547,0.));
#574=DIRECTION('',(-0.707106781186547,-0.707106781186548,0.));
#575=DIRECTION('',(0.,0.,1.));
#576=DIRECTION('',(-0.707106781186547,-0.707106781186548,0.));
#577=DIRECTION('',(0.,0.,1.));
#578=DIRECTION('',(-0.707106781186547,-0.707106781186548,0.));
#579=DIRECTION('',(0.707106781186548,-0.707106781186547,0.));
#580=DIRECTION('',(0.,0.,1.));
#581=DIRECTION('',(0.707106781186548,-0.707106781186547,0.));
#582=DIRECTION('',(-0.707106781186548,0.707106781186548,0.));
#583=DIRECTION('',(-0.707106781186548,-0.707106781186548,0.));
#584=DIRECTION('',(0.,0.,1.));
#585=DIRECTION('',(-0.707106781186548,-0.707106781186548,0.));
#586=DIRECTION('',(-0.707106781186548,-0.707106781186548,0.));
#587=DIRECTION('',(0.707106781186548,-0.707106781186548,0.));
#588=DIRECTION('',(0.,0.,1.));
#589=DIRECTION('',(0.707106781186548,-0.707106781186548,0.));
#590=DIRECTION('',(0.707106781186547,-0.707106781186548,0.));
#591=DIRECTION('',(0.707106781186548,0.707106781186547,0.));
#592=DIRECTION('',(0.,0.,1.));
#593=DIRECTION('',(0.707106781186548,0.707106781186547,0.));
#594=DIRECTION('',(-0.707106781186548,-0.707106781186548,0.));
#595=DIRECTION('',(0.707106781186548,-0.707106781186548,0.));
#596=DIRECTION('',(0.,0.,1.));
#597=DIRECTION('',(0.707106781186548,-0.707106781186548,0.));
#598=DIRECTION('',(0.707106781186548,-0.707106781186548,0.));
#599=DIRECTION('',(0.707106781186548,0.707106781186548,0.));
#600=DIRECTION('',(0.,0.,1.));
#601=DIRECTION('',(0.707106781186548,0.707106781186548,0.));
#602=DIRECTION('',(0.707106781186547,0.707106781186548,0.));
#603=DIRECTION('',(-0.707106781186548,0.707106781186547,0.));
#604=DIRECTION('',(0.,0.,1.));
#605=DIRECTION('',(-0.707106781186548,0.707106781186547,0.));
#606=DIRECTION('',(0.707106781186548,-0.707106781186547,0.));
#607=DIRECTION('',(0.707106781186547,0.707106781186548,0.));
#608=DIRECTION('',(0.,0.,1.));
#609=DIRECTION('',(0.707106781186547,0.707106781186548,0.));
#610=DIRECTION('',(0.707106781186547,0.707106781186548,0.));
#611=DIRECTION('',(-0.707106781186548,0.707106781186547,0.));
#612=DIRECTION('',(0.,0.,1.));
#613=DIRECTION('',(-0.707106781186548,0.707106781186547,0.));
#614=DIRECTION('',(-0.707106781186548,0.707106781186547,0.));
#615=DIRECTION('',(-0.707106781186547,-0.707106781186548,0.));
#616=DIRECTION('',(0.,0.,1.));
#617=DIRECTION('',(-0.707106781186547,-0.707106781186548,0.));
#618=DIRECTION('',(0.707106781186547,0.707106781186548,0.));
#619=DIRECTION('',(-0.707106781186548,0.707106781186547,0.));
#620=DIRECTION('',(-0.707106781186548,0.707106781186547,0.));
#621=DIRECTION('',(0.,0.,1.));
#622=DIRECTION('',(1.,0.,0.));
#623=CARTESIAN_POINT('',(0.,0.,0.));
#624=CARTESIAN_POINT('',(0.,-0.0401284665866772,-0.0015));
#625=CARTESIAN_POINT('',(-0.00647793183353215,-0.0415,-0.001502));
#626=CARTESIAN_POINT('',(-0.00647793183353215,-0.0415,-0.0015));
#627=CARTESIAN_POINT('',(-0.00647793183353215,-0.0415,0.));
#628=CARTESIAN_POINT('',(0.,-0.0401284665866772,-0.0015));
#629=CARTESIAN_POINT('',(0.00647793183353215,-0.0415,-0.0015));
#630=CARTESIAN_POINT('',(0.00647793183353215,-0.0415,-0.001502));
#631=CARTESIAN_POINT('',(0.00647793183353215,-0.0415,0.));
#632=CARTESIAN_POINT('',(0.,-0.0401284665866772,0.));
#633=CARTESIAN_POINT('',(0.,-0.0401284665866772,-0.0015));
#634=CARTESIAN_POINT('',(0.,-0.0401284665866772,-0.0015));
#635=CARTESIAN_POINT('',(-0.00641816183340885,-0.0385,-0.0015));
#636=CARTESIAN_POINT('',(0.00641816183340884,-0.0385,-0.0015));
#637=CARTESIAN_POINT('',(-0.00641816183340885,-0.0385,-0.001502));
#638=CARTESIAN_POINT('',(-0.00641816183340885,-0.0385,0.));
#639=CARTESIAN_POINT('',(0.,-0.0401284665866772,0.));
#640=CARTESIAN_POINT('',(0.00641816183340884,-0.0385,0.));
#641=CARTESIAN_POINT('',(0.00641816183340884,-0.0385,-0.001502));
#642=CARTESIAN_POINT('',(0.,-0.0401284665866772,0.));
#643=CARTESIAN_POINT('',(-8.67361737988404E-19,-0.0385,0.));
#644=CARTESIAN_POINT('',(-0.00555090082779363,-0.0385,0.));
#645=CARTESIAN_POINT('',(0.,-0.04,0.));
#646=CARTESIAN_POINT('',(0.00555090082779363,-0.0385,0.));
#647=CARTESIAN_POINT('',(-8.67361737988404E-19,-0.0385,0.));
#648=CARTESIAN_POINT('',(0.,-0.04,0.005));
#649=CARTESIAN_POINT('',(0.00450576684312454,-0.0354942331568755,0.003));
#650=CARTESIAN_POINT('',(0.00637211657843773,-0.04,0.003));
#651=CARTESIAN_POINT('',(0.00450576684312453,-0.0445057668431245,0.003));
#652=CARTESIAN_POINT('',(-1.15196480826585E-17,-0.0463721165784377,0.003));
#653=CARTESIAN_POINT('',(-0.00450576684312454,-0.0445057668431245,0.003));
#654=CARTESIAN_POINT('',(-0.00637211657843773,-0.04,0.003));
#655=CARTESIAN_POINT('',(-0.00450576684312454,-0.0354942331568755,0.003));
#656=CARTESIAN_POINT('',(3.95733792957209E-18,-0.0336278834215623,0.003));
#657=CARTESIAN_POINT('',(0.00450576684312454,-0.0354942331568755,0.003));
#658=CARTESIAN_POINT('',(0.00637211657843773,-0.04,0.003));
#659=CARTESIAN_POINT('',(0.00450576684312453,-0.0445057668431245,0.003));
#660=CARTESIAN_POINT('',(0.00575,-0.04,0.003));
#661=CARTESIAN_POINT('',(-0.00555090082779363,-0.0385,-0.001502));
#662=CARTESIAN_POINT('',(-0.00555090082779363,-0.0385,-0.0015));
#663=CARTESIAN_POINT('',(0.,-0.04,-0.0015));
#664=CARTESIAN_POINT('',(-0.00555090082779363,-0.0415,-0.0015));
#665=CARTESIAN_POINT('',(-0.00555090082779363,-0.0415,-0.001502));
#666=CARTESIAN_POINT('',(-0.00555090082779363,-0.0415,0.));
#667=CARTESIAN_POINT('',(0.,-0.04,0.));
#668=CARTESIAN_POINT('',(0.00555090082779363,-0.0415,0.));
#669=CARTESIAN_POINT('',(0.00555090082779363,-0.0415,-0.001502));
#670=CARTESIAN_POINT('',(0.00555090082779363,-0.0415,-0.0015));
#671=CARTESIAN_POINT('',(0.,-0.04,-0.0015));
#672=CARTESIAN_POINT('',(0.00555090082779363,-0.0385,-0.0015));
#673=CARTESIAN_POINT('',(0.00555090082779363,-0.0385,-0.001502));
#674=CARTESIAN_POINT('',(0.,-0.04,0.005));
#675=CARTESIAN_POINT('',(-0.00215165042944957,-0.0378483495705505,0.005));
#676=CARTESIAN_POINT('',(-0.00165165042944957,-0.0373483495705505,0.005));
#677=CARTESIAN_POINT('',(-0.00265165042944957,-0.0383483495705504,0.005));
#678=CARTESIAN_POINT('',(-0.000825825214724786,-0.0381741747852753,0.005));
#679=CARTESIAN_POINT('',(-9.54097911787244E-18,-0.039,0.005));
#680=CARTESIAN_POINT('',(0.000825825214724773,-0.0381741747852753,0.005));
#681=CARTESIAN_POINT('',(0.00165165042944956,-0.0373483495705505,0.005));
#682=CARTESIAN_POINT('',(0.00215165042944956,-0.0378483495705505,0.005));
#683=CARTESIAN_POINT('',(0.00265165042944957,-0.0383483495705504,0.005));
#684=CARTESIAN_POINT('',(0.00182582521472477,-0.0391741747852753,0.005));
#685=CARTESIAN_POINT('',(0.000999999999999987,-0.04,0.005));
#686=CARTESIAN_POINT('',(0.00182582521472477,-0.0408258252147248,0.005));
#687=CARTESIAN_POINT('',(0.00265165042944956,-0.0416516504294495,0.005));
#688=CARTESIAN_POINT('',(0.00215165042944956,-0.0421516504294495,0.005));
#689=CARTESIAN_POINT('',(0.00165165042944956,-0.0426516504294495,0.005));
#690=CARTESIAN_POINT('',(0.000825825214724772,-0.0418258252147248,0.005));
#691=CARTESIAN_POINT('',(-7.15573433840433E-18,-0.041,0.005));
#692=CARTESIAN_POINT('',(-0.000825825214724788,-0.0418258252147248,0.005));
#693=CARTESIAN_POINT('',(-0.00165165042944957,-0.0426516504294495,0.005));
#694=CARTESIAN_POINT('',(-0.00215165042944956,-0.0421516504294495,0.005));
#695=CARTESIAN_POINT('',(-0.00265165042944957,-0.0416516504294495,0.005));
#696=CARTESIAN_POINT('',(-0.00182582521472478,-0.0408258252147248,0.005));
#697=CARTESIAN_POINT('',(-0.001,-0.04,0.005));
#698=CARTESIAN_POINT('',(-0.00182582521472478,-0.0391741747852753,0.005));
#699=CARTESIAN_POINT('',(0.00353838192560604,-0.041525295936876,0.005));
#700=CARTESIAN_POINT('',(0.00384762603355932,-0.0400497868549382,0.005));
#701=CARTESIAN_POINT('',(0.00356993380127245,-0.0385790137267273,0.005));
#702=CARTESIAN_POINT('',(0.00277590860006166,-0.0373359111535431,0.005));
#703=CARTESIAN_POINT('',(0.00154638145237862,-0.0364768243854813,0.005));
#704=CARTESIAN_POINT('',(8.04760570883354E-5,-0.0361531929609774,0.005));
#705=CARTESIAN_POINT('',(-0.00139775680955877,-0.0364152236259584,0.005));
#706=CARTESIAN_POINT('',(-0.00266319321472085,-0.037222994433578,0.005));
#707=CARTESIAN_POINT('',(-0.00352318375112304,-0.0384535419327805,0.005));
#708=CARTESIAN_POINT('',(-0.00384680124679712,-0.0399195228798451,0.005));
#709=CARTESIAN_POINT('',(-0.0035847781347386,-0.0413977561729043,0.005));
#710=CARTESIAN_POINT('',(-0.00277700526238462,-0.0426631928054749,0.005));
#711=CARTESIAN_POINT('',(-0.00154645764329362,-0.0435231858572221,0.005));
#712=CARTESIAN_POINT('',(-8.04791286736939E-5,-0.0438467932262155,0.005));
#713=CARTESIAN_POINT('',(0.00139776378254414,-0.0435848081108829,0.005));
#714=CARTESIAN_POINT('',(0.00266316437540915,-0.0427768933783949,0.005));
#715=CARTESIAN_POINT('',(0.00353838192560604,-0.041525295936876,0.005));
#716=CARTESIAN_POINT('',(0.00384762603355932,-0.0400497868549382,0.005));
#717=CARTESIAN_POINT('',(0.00356993380127245,-0.0385790137267273,0.005));
#718=CARTESIAN_POINT('',(0.00375,-0.04,0.005));
#719=CARTESIAN_POINT('',(0.,-0.0401284665866772,-0.0015));
#720=CARTESIAN_POINT('',(-8.67361737988404E-19,-0.0385,-0.0015));
#721=CARTESIAN_POINT('',(-8.67361737988404E-19,-0.0385,-0.0015));
#722=CARTESIAN_POINT('',(8.67361737988404E-19,-0.0415,-0.0015));
#723=CARTESIAN_POINT('',(8.67361737988404E-19,-0.0415,-0.0015));
#724=CARTESIAN_POINT('',(0.,-0.0401284665866772,0.));
#725=CARTESIAN_POINT('',(8.67361737988404E-19,-0.0415,0.));
#726=CARTESIAN_POINT('',(8.67361737988404E-19,-0.0415,0.));
#727=CARTESIAN_POINT('',(-0.003554742983129,-0.0385275650319544,0.005));
#728=CARTESIAN_POINT('',(-0.00384762850843551,-0.04,0.005));
#729=CARTESIAN_POINT('',(-0.00355474298312895,-0.0414724349680456,0.005));
#730=CARTESIAN_POINT('',(-0.00272067557342335,-0.0427207050598624,0.005));
#731=CARTESIAN_POINT('',(-0.00147240548160648,-0.043554772469568,0.005));
#732=CARTESIAN_POINT('',(2.94864391002658E-8,-0.0438476579948745,0.005));
#733=CARTESIAN_POINT('',(0.00147246445448467,-0.0435547724695679,0.005));
#734=CARTESIAN_POINT('',(0.00272073454630151,-0.0427207050598623,0.005));
#735=CARTESIAN_POINT('',(0.00355480195600707,-0.0414724349680454,0.005));
#736=CARTESIAN_POINT('',(0.00384768748131358,-0.0399999999999999,0.005));
#737=CARTESIAN_POINT('',(0.00355480195600703,-0.0385275650319543,0.005));
#738=CARTESIAN_POINT('',(0.00272073454630142,-0.0372792949401375,0.005));
#739=CARTESIAN_POINT('',(0.00147246445448455,-0.0364452275304319,0.005));
#740=CARTESIAN_POINT('',(2.94864389734497E-8,-0.0361523420051254,0.005));
#741=CARTESIAN_POINT('',(-0.00147240548160659,-0.036445227530432,0.005));
#742=CARTESIAN_POINT('',(-0.00272067557342344,-0.0372792949401375,0.005));
#743=CARTESIAN_POINT('',(-0.003554742983129,-0.0385275650319544,0.005));
#744=CARTESIAN_POINT('',(-0.00384762850843551,-0.04,0.005));
#745=CARTESIAN_POINT('',(-0.00355474298312895,-0.0414724349680456,0.005));
#746=CARTESIAN_POINT('',(-0.00481865214523841,-0.0380040367154012,0.005));
#747=CARTESIAN_POINT('',(-0.00521567392738081,-0.04,0.005));
#748=CARTESIAN_POINT('',(-0.00481865214523833,-0.0419959632845989,0.005));
#749=CARTESIAN_POINT('',(-0.00368802976613074,-0.0436880592525698,0.005));
#750=CARTESIAN_POINT('',(-0.00199593379815978,-0.0448186816316774,0.005));
#751=CARTESIAN_POINT('',(2.94864391240775E-8,-0.0452157034138198,0.005));
#752=CARTESIAN_POINT('',(0.00199599277103802,-0.0448186816316773,0.00500000000000001));
#753=CARTESIAN_POINT('',(0.00368808873900894,-0.0436880592525697,0.005));
#754=CARTESIAN_POINT('',(0.00481871111811647,-0.0419959632845987,0.005));
#755=CARTESIAN_POINT('',(0.00521573290025889,-0.0399999999999998,0.005));
#756=CARTESIAN_POINT('',(0.00481871111811641,-0.0380040367154009,0.005));
#757=CARTESIAN_POINT('',(0.00368808873900882,-0.03631194074743,0.005));
#758=CARTESIAN_POINT('',(0.00199599277103785,-0.0351813183683225,0.005));
#759=CARTESIAN_POINT('',(2.94864389473492E-8,-0.0347842965861801,0.005));
#760=CARTESIAN_POINT('',(-0.00199593379815994,-0.0351813183683226,0.005));
#761=CARTESIAN_POINT('',(-0.00368802976613087,-0.0363119407474301,0.00500000000000001));
#762=CARTESIAN_POINT('',(-0.00481865214523841,-0.0380040367154012,0.005));
#763=CARTESIAN_POINT('',(-0.00521567392738081,-0.04,0.005));
#764=CARTESIAN_POINT('',(-0.00481865214523833,-0.0419959632845989,0.005));
#765=CARTESIAN_POINT('',(-0.0054506067262931,-0.0377422725571245,0.00433333333333334));
#766=CARTESIAN_POINT('',(-0.00589969663685347,-0.04,0.00433333333333333));
#767=CARTESIAN_POINT('',(-0.00545060672629303,-0.0422577274428756,0.00433333333333334));
#768=CARTESIAN_POINT('',(-0.00417170686248446,-0.0441717363489235,0.00433333333333333));
#769=CARTESIAN_POINT('',(-0.00225769795643646,-0.0454506362127321,0.00433333333333334));
#770=CARTESIAN_POINT('',(2.9486439108958E-8,-0.0458997261232924,0.00433333333333333));
#771=CARTESIAN_POINT('',(0.00225775692931466,-0.045450636212732,0.00433333333333333));
#772=CARTESIAN_POINT('',(0.00417176583536264,-0.0441717363489234,0.00433333333333333));
#773=CARTESIAN_POINT('',(0.00545066569917117,-0.0422577274428754,0.00433333333333333));
#774=CARTESIAN_POINT('',(0.00589975560973154,-0.0399999999999999,0.00433333333333333));
#775=CARTESIAN_POINT('',(0.00545066569917111,-0.0377422725571243,0.00433333333333333));
#776=CARTESIAN_POINT('',(0.00417176583536253,-0.0358282636510764,0.00433333333333333));
#777=CARTESIAN_POINT('',(0.00225775692931453,-0.0345493637872678,0.00433333333333333));
#778=CARTESIAN_POINT('',(2.9486438962606E-8,-0.0341002738767075,0.00433333333333333));
#779=CARTESIAN_POINT('',(-0.00225769795643659,-0.0345493637872679,0.00433333333333333));
#780=CARTESIAN_POINT('',(-0.00417170686248457,-0.0358282636510764,0.00433333333333333));
#781=CARTESIAN_POINT('',(-0.0054506067262931,-0.0377422725571245,0.00433333333333334));
#782=CARTESIAN_POINT('',(-0.00589969663685347,-0.04,0.00433333333333333));
#783=CARTESIAN_POINT('',(-0.00545060672629303,-0.0422577274428756,0.00433333333333334));
#784=CARTESIAN_POINT('',(-0.0054506067262931,-0.0377422725571245,0.003));
#785=CARTESIAN_POINT('',(-0.00589969663685347,-0.04,0.003));
#786=CARTESIAN_POINT('',(-0.00545060672629304,-0.0422577274428756,0.003));
#787=CARTESIAN_POINT('',(-0.00417170686248446,-0.0441717363489235,0.003));
#788=CARTESIAN_POINT('',(-0.00225769795643645,-0.0454506362127321,0.003));
#789=CARTESIAN_POINT('',(2.94864391127053E-8,-0.0458997261232924,0.003));
#790=CARTESIAN_POINT('',(0.00225775692931467,-0.045450636212732,0.003));
#791=CARTESIAN_POINT('',(0.00417176583536264,-0.0441717363489234,0.003));
#792=CARTESIAN_POINT('',(0.00545066569917117,-0.0422577274428754,0.003));
#793=CARTESIAN_POINT('',(0.00589975560973154,-0.0399999999999998,0.003));
#794=CARTESIAN_POINT('',(0.00545066569917111,-0.0377422725571243,0.003));
#795=CARTESIAN_POINT('',(0.00417176583536253,-0.0358282636510763,0.003));
#796=CARTESIAN_POINT('',(0.00225775692931453,-0.0345493637872678,0.003));
#797=CARTESIAN_POINT('',(2.94864389591196E-8,-0.0341002738767074,0.003));
#798=CARTESIAN_POINT('',(-0.0022576979564366,-0.0345493637872679,0.003));
#799=CARTESIAN_POINT('',(-0.00417170686248457,-0.0358282636510764,0.003));
#800=CARTESIAN_POINT('',(-0.0054506067262931,-0.0377422725571245,0.003));
#801=CARTESIAN_POINT('',(-0.00589969663685347,-0.04,0.003));
#802=CARTESIAN_POINT('',(-0.00545060672629304,-0.0422577274428756,0.003));
#803=CARTESIAN_POINT('',(-8.67361737988404E-19,-0.0385,-0.001502));
#804=CARTESIAN_POINT('',(8.67361737988404E-19,-0.0415,-0.001502));
#805=CARTESIAN_POINT('',(8.67361737988404E-19,-0.0415,-0.001502));
#806=CARTESIAN_POINT('',(-8.67361737988404E-19,-0.0385,-0.001502));
#807=CARTESIAN_POINT('',(-0.00215165042944957,-0.0378483495705505,0.004));
#808=CARTESIAN_POINT('',(-0.00265165042944957,-0.0383483495705504,0.004));
#809=CARTESIAN_POINT('',(-0.00265165042944957,-0.0383483495705504,0.004));
#810=CARTESIAN_POINT('',(-0.00215165042944957,-0.0378483495705505,0.004));
#811=CARTESIAN_POINT('',(-0.00165165042944957,-0.0373483495705505,0.004));
#812=CARTESIAN_POINT('',(-0.00165165042944957,-0.0373483495705505,0.004));
#813=CARTESIAN_POINT('',(-0.00182582521472478,-0.0391741747852753,0.004));
#814=CARTESIAN_POINT('',(-0.001,-0.04,0.004));
#815=CARTESIAN_POINT('',(-0.001,-0.04,0.004));
#816=CARTESIAN_POINT('',(-0.00182582521472478,-0.0391741747852753,0.004));
#817=CARTESIAN_POINT('',(-0.00182582521472478,-0.0408258252147248,0.004));
#818=CARTESIAN_POINT('',(-0.00265165042944957,-0.0416516504294495,0.004));
#819=CARTESIAN_POINT('',(-0.00265165042944957,-0.0416516504294495,0.004));
#820=CARTESIAN_POINT('',(-0.00182582521472478,-0.0408258252147248,0.004));
#821=CARTESIAN_POINT('',(-0.00215165042944956,-0.0421516504294495,0.004));
#822=CARTESIAN_POINT('',(-0.00165165042944957,-0.0426516504294495,0.004));
#823=CARTESIAN_POINT('',(-0.00165165042944957,-0.0426516504294495,0.004));
#824=CARTESIAN_POINT('',(-0.00215165042944956,-0.0421516504294495,0.004));
#825=CARTESIAN_POINT('',(-0.000825825214724788,-0.0418258252147248,0.004));
#826=CARTESIAN_POINT('',(-7.15573433840433E-18,-0.041,0.004));
#827=CARTESIAN_POINT('',(-7.15573433840433E-18,-0.041,0.004));
#828=CARTESIAN_POINT('',(-0.000825825214724788,-0.0418258252147248,0.004));
#829=CARTESIAN_POINT('',(0.000825825214724772,-0.0418258252147248,0.004));
#830=CARTESIAN_POINT('',(0.00165165042944956,-0.0426516504294495,0.004));
#831=CARTESIAN_POINT('',(0.00165165042944956,-0.0426516504294495,0.004));
#832=CARTESIAN_POINT('',(0.000825825214724772,-0.0418258252147248,0.004));
#833=CARTESIAN_POINT('',(0.00215165042944956,-0.0421516504294495,0.004));
#834=CARTESIAN_POINT('',(0.00265165042944956,-0.0416516504294495,0.004));
#835=CARTESIAN_POINT('',(0.00265165042944956,-0.0416516504294495,0.004));
#836=CARTESIAN_POINT('',(0.00215165042944956,-0.0421516504294495,0.004));
#837=CARTESIAN_POINT('',(0.00182582521472477,-0.0408258252147248,0.004));
#838=CARTESIAN_POINT('',(0.000999999999999987,-0.04,0.004));
#839=CARTESIAN_POINT('',(0.000999999999999987,-0.04,0.004));
#840=CARTESIAN_POINT('',(0.00182582521472477,-0.0408258252147248,0.004));
#841=CARTESIAN_POINT('',(0.00182582521472477,-0.0391741747852753,0.004));
#842=CARTESIAN_POINT('',(0.00265165042944957,-0.0383483495705504,0.004));
#843=CARTESIAN_POINT('',(0.00265165042944957,-0.0383483495705504,0.004));
#844=CARTESIAN_POINT('',(0.00182582521472477,-0.0391741747852753,0.004));
#845=CARTESIAN_POINT('',(0.00215165042944956,-0.0378483495705505,0.004));
#846=CARTESIAN_POINT('',(0.00165165042944956,-0.0373483495705505,0.004));
#847=CARTESIAN_POINT('',(0.00165165042944956,-0.0373483495705505,0.004));
#848=CARTESIAN_POINT('',(0.00215165042944956,-0.0378483495705505,0.004));
#849=CARTESIAN_POINT('',(0.000825825214724773,-0.0381741747852753,0.004));
#850=CARTESIAN_POINT('',(-9.54097911787244E-18,-0.039,0.004));
#851=CARTESIAN_POINT('',(-9.54097911787244E-18,-0.039,0.004));
#852=CARTESIAN_POINT('',(0.000825825214724773,-0.0381741747852753,0.004));
#853=CARTESIAN_POINT('',(-0.000825825214724786,-0.0381741747852753,0.004));
#854=CARTESIAN_POINT('',(-0.000825825214724786,-0.0381741747852753,0.004));
#855=CARTESIAN_POINT('',(0.0261621644641273,-0.0279750306723765,0.004));
#856=MECHANICAL_DESIGN_GEOMETRIC_PRESENTATION_REPRESENTATION('',(#461),
#857);
#857=(
GEOMETRIC_REPRESENTATION_CONTEXT(3)
GLOBAL_UNCERTAINTY_ASSIGNED_CONTEXT((#858))
GLOBAL_UNIT_ASSIGNED_CONTEXT((#861,#860,#859))
REPRESENTATION_CONTEXT('Part 3','TOP_LEVEL_ASSEMBLY_PART')
);
#858=UNCERTAINTY_MEASURE_WITH_UNIT(LENGTH_MEASURE(2.E-5),#861,
'DISTANCE_ACCURACY_VALUE','Maximum Tolerance applied to model');
#859=(
NAMED_UNIT(*)
SI_UNIT($,.STERADIAN.)
SOLID_ANGLE_UNIT()
);
#860=(
NAMED_UNIT(*)
PLANE_ANGLE_UNIT()
SI_UNIT($,.RADIAN.)
);
#861=(
LENGTH_UNIT()
NAMED_UNIT(*)
SI_UNIT($,.METRE.)
);
#862=PRODUCT_DEFINITION_SHAPE('','',#863);
#863=PRODUCT_DEFINITION('','',#865,#864);
#864=PRODUCT_DEFINITION_CONTEXT('',#871,'design');
#865=PRODUCT_DEFINITION_FORMATION_WITH_SPECIFIED_SOURCE('','',#867,
 .NOT_KNOWN.);
#866=PRODUCT_RELATED_PRODUCT_CATEGORY('','',(#867));
#867=PRODUCT('Part 3','Part 3','Part 3',(#869));
#868=PRODUCT_CATEGORY('','');
#869=PRODUCT_CONTEXT('',#871,'mechanical');
#870=APPLICATION_PROTOCOL_DEFINITION('international standard',
'ap242_managed_model_based_3d_engineering',2020,#871);
#871=APPLICATION_CONTEXT('managed model based 3d engineering');
ENDSEC;
END-ISO-10303-21;
