ISO-10303-21;
HEADER;
/* Generated by software containing ST-Developer
 * from STEP Tools, Inc. (www.steptools.com) 
 */
/* OPTION: using custom renumber hook */

FILE_DESCRIPTION(
/* description */ ('STEP AP242 Edition 2',
'CAx-IF Rec.Pracs.---Representation and Presentation of Product Manufa
cturing Information (PMI)---4.0---2014-10-13',
'CAx-IF Rec.Pracs.---3D Tessellated Geometry---0.4---2014-09-14','2;1',
'CAx-IF Rec.Pracs.---User Defined Attributes---1.5---2016-08-15'),
/* implementation_level */ '2;1');

FILE_NAME(
/* name */ 'S_BUTTONS - Part 4',
/* time_stamp */ '2026-09-23T14:42:51Z',
/* author */ (''),
/* organization */ (''),
/* preprocessor_version */ 'ST-DEVELOPER v20',
/* originating_system */ 'ONSHAPE BY PTC INC, 1.221',
/* authorisation */ '  ');

FILE_SCHEMA (('AP242_MANAGED_MODEL_BASED_3D_ENGINEERING_MIM_LF { 1 0 10303 442 3 1 4 }'));
ENDSEC;

DATA;
#10=SHAPE_REPRESENTATION_RELATIONSHIP('','',#408,#11);
#11=ADVANCED_BREP_SHAPE_REPRESENTATION('',(#406),#758);
#12=B_SPLINE_SURFACE_WITH_KNOTS('',3,3,((#640,#641,#642,#643,#644,#645,
#646,#647,#648,#649,#650,#651,#652,#653,#654,#655,#656,#657,#658),(#659,
#660,#661,#662,#663,#664,#665,#666,#667,#668,#669,#670,#671,#672,#673,#674,
#675,#676,#677),(#678,#679,#680,#681,#682,#683,#684,#685,#686,#687,#688,
#689,#690,#691,#692,#693,#694,#695,#696),(#697,#698,#699,#700,#701,#702,
#703,#704,#705,#706,#707,#708,#709,#710,#711,#712,#713,#714,#715)),
 .UNSPECIFIED.,.F.,.T.,.F.,(4,4),(1,1,1,1,1,1,1,1,1,1,1,1,1,1,1,1,1,1,1,
1,1,1,1),(0.,1.),(-1.17809724509617,-0.785398163397448,-0.392699081698725,
0.,0.392699081698724,0.785398163397448,1.17809724509617,1.5707963267949,
1.96349540849362,2.35619449019234,2.74889357189107,3.14159265358979,3.53429173528852,
3.92699081698724,4.31968989868597,4.71238898038469,5.10508806208341,5.49778714378214,
5.89048622548086,6.28318530717959,6.67588438887831,7.06858347057703,7.46128255227576),
 .UNSPECIFIED.);
#13=B_SPLINE_CURVE_WITH_KNOTS('',3,(#568,#569,#570,#571,#572,#573,#574,
#575,#576,#577,#578),.UNSPECIFIED.,.T.,.F.,(1,1,1,1,1,1,1,1,1,1,1,1,1,1,
1),(-0.375,-0.25,-0.125,0.,0.125,0.25,0.375,0.5,0.625,0.75,0.875,1.,1.125,
1.25,1.375),.UNSPECIFIED.);
#14=B_SPLINE_CURVE_WITH_KNOTS('',3,(#612,#613,#614,#615,#616,#617,#618,
#619,#620,#621,#622,#623,#624,#625,#626,#627,#628,#629,#630),
 .UNSPECIFIED.,.T.,.F.,(1,1,1,1,1,1,1,1,1,1,1,1,1,1,1,1,1,1,1,1,1,1,1),
(-0.190789473684211,-0.128289473684211,-0.0657894736842105,0.,0.059375,
0.12171875,0.1842109375,0.246710546875,0.30921052734375,0.371710526367187,
0.434210526318359,0.496710526315918,0.559210526315796,0.62171052631579,
0.684210526315789,0.746710526315789,0.809210526315789,0.871710526315789,
0.934210526315789,1.,1.059375,1.12171875,1.1842109375),.UNSPECIFIED.);
#15=PLANE('',#416);
#16=PLANE('',#422);
#17=PLANE('',#423);
#18=PLANE('',#424);
#19=PLANE('',#425);
#20=PLANE('',#426);
#21=PLANE('',#427);
#22=PLANE('',#428);
#23=PLANE('',#429);
#24=PLANE('',#430);
#25=PLANE('',#431);
#26=PLANE('',#432);
#27=PLANE('',#433);
#28=PLANE('',#434);
#29=PLANE('',#435);
#30=PLANE('',#436);
#31=PLANE('',#437);
#32=PLANE('',#438);
#33=CIRCLE('',#411,0.00662153341332279);
#34=CIRCLE('',#412,0.00662153341332279);
#35=CIRCLE('',#414,0.00662153341332279);
#36=CIRCLE('',#415,0.00662153341332279);
#37=CIRCLE('',#417,0.00575);
#38=CIRCLE('',#419,0.00575);
#39=CIRCLE('',#420,0.00575);
#40=CIRCLE('',#421,0.00575);
#41=ORIENTED_EDGE('',*,*,#147,.F.);
#42=ORIENTED_EDGE('',*,*,#148,.F.);
#43=ORIENTED_EDGE('',*,*,#149,.T.);
#44=ORIENTED_EDGE('',*,*,#150,.T.);
#45=ORIENTED_EDGE('',*,*,#151,.F.);
#46=ORIENTED_EDGE('',*,*,#152,.T.);
#47=ORIENTED_EDGE('',*,*,#153,.T.);
#48=ORIENTED_EDGE('',*,*,#154,.F.);
#49=ORIENTED_EDGE('',*,*,#153,.F.);
#50=ORIENTED_EDGE('',*,*,#155,.T.);
#51=ORIENTED_EDGE('',*,*,#156,.F.);
#52=ORIENTED_EDGE('',*,*,#157,.T.);
#53=ORIENTED_EDGE('',*,*,#158,.T.);
#54=ORIENTED_EDGE('',*,*,#156,.T.);
#55=ORIENTED_EDGE('',*,*,#159,.F.);
#56=ORIENTED_EDGE('',*,*,#160,.T.);
#57=ORIENTED_EDGE('',*,*,#161,.T.);
#58=ORIENTED_EDGE('',*,*,#162,.T.);
#59=ORIENTED_EDGE('',*,*,#163,.F.);
#60=ORIENTED_EDGE('',*,*,#164,.T.);
#61=ORIENTED_EDGE('',*,*,#165,.T.);
#62=ORIENTED_EDGE('',*,*,#166,.F.);
#63=ORIENTED_EDGE('',*,*,#167,.F.);
#64=ORIENTED_EDGE('',*,*,#168,.F.);
#65=ORIENTED_EDGE('',*,*,#169,.F.);
#66=ORIENTED_EDGE('',*,*,#170,.F.);
#67=ORIENTED_EDGE('',*,*,#171,.F.);
#68=ORIENTED_EDGE('',*,*,#172,.F.);
#69=ORIENTED_EDGE('',*,*,#173,.F.);
#70=ORIENTED_EDGE('',*,*,#174,.F.);
#71=ORIENTED_EDGE('',*,*,#175,.T.);
#72=ORIENTED_EDGE('',*,*,#176,.F.);
#73=ORIENTED_EDGE('',*,*,#151,.T.);
#74=ORIENTED_EDGE('',*,*,#177,.F.);
#75=ORIENTED_EDGE('',*,*,#164,.F.);
#76=ORIENTED_EDGE('',*,*,#178,.F.);
#77=ORIENTED_EDGE('',*,*,#148,.T.);
#78=ORIENTED_EDGE('',*,*,#179,.F.);
#79=ORIENTED_EDGE('',*,*,#160,.F.);
#80=ORIENTED_EDGE('',*,*,#162,.F.);
#81=ORIENTED_EDGE('',*,*,#180,.T.);
#82=ORIENTED_EDGE('',*,*,#150,.F.);
#83=ORIENTED_EDGE('',*,*,#181,.T.);
#84=ORIENTED_EDGE('',*,*,#158,.F.);
#85=ORIENTED_EDGE('',*,*,#175,.F.);
#86=ORIENTED_EDGE('',*,*,#177,.T.);
#87=ORIENTED_EDGE('',*,*,#154,.T.);
#88=ORIENTED_EDGE('',*,*,#157,.F.);
#89=ORIENTED_EDGE('',*,*,#165,.F.);
#90=ORIENTED_EDGE('',*,*,#178,.T.);
#91=ORIENTED_EDGE('',*,*,#163,.T.);
#92=ORIENTED_EDGE('',*,*,#181,.F.);
#93=ORIENTED_EDGE('',*,*,#149,.F.);
#94=ORIENTED_EDGE('',*,*,#179,.T.);
#95=ORIENTED_EDGE('',*,*,#147,.T.);
#96=ORIENTED_EDGE('',*,*,#180,.F.);
#97=ORIENTED_EDGE('',*,*,#161,.F.);
#98=ORIENTED_EDGE('',*,*,#176,.T.);
#99=ORIENTED_EDGE('',*,*,#159,.T.);
#100=ORIENTED_EDGE('',*,*,#155,.F.);
#101=ORIENTED_EDGE('',*,*,#152,.F.);
#102=ORIENTED_EDGE('',*,*,#166,.T.);
#103=ORIENTED_EDGE('',*,*,#182,.F.);
#104=ORIENTED_EDGE('',*,*,#183,.F.);
#105=ORIENTED_EDGE('',*,*,#184,.T.);
#106=ORIENTED_EDGE('',*,*,#174,.T.);
#107=ORIENTED_EDGE('',*,*,#185,.F.);
#108=ORIENTED_EDGE('',*,*,#186,.F.);
#109=ORIENTED_EDGE('',*,*,#182,.T.);
#110=ORIENTED_EDGE('',*,*,#173,.T.);
#111=ORIENTED_EDGE('',*,*,#187,.F.);
#112=ORIENTED_EDGE('',*,*,#188,.F.);
#113=ORIENTED_EDGE('',*,*,#185,.T.);
#114=ORIENTED_EDGE('',*,*,#172,.T.);
#115=ORIENTED_EDGE('',*,*,#189,.F.);
#116=ORIENTED_EDGE('',*,*,#190,.F.);
#117=ORIENTED_EDGE('',*,*,#187,.T.);
#118=ORIENTED_EDGE('',*,*,#171,.T.);
#119=ORIENTED_EDGE('',*,*,#191,.F.);
#120=ORIENTED_EDGE('',*,*,#192,.F.);
#121=ORIENTED_EDGE('',*,*,#189,.T.);
#122=ORIENTED_EDGE('',*,*,#170,.T.);
#123=ORIENTED_EDGE('',*,*,#193,.F.);
#124=ORIENTED_EDGE('',*,*,#194,.F.);
#125=ORIENTED_EDGE('',*,*,#191,.T.);
#126=ORIENTED_EDGE('',*,*,#169,.T.);
#127=ORIENTED_EDGE('',*,*,#195,.F.);
#128=ORIENTED_EDGE('',*,*,#196,.F.);
#129=ORIENTED_EDGE('',*,*,#193,.T.);
#130=ORIENTED_EDGE('',*,*,#168,.T.);
#131=ORIENTED_EDGE('',*,*,#197,.F.);
#132=ORIENTED_EDGE('',*,*,#198,.F.);
#133=ORIENTED_EDGE('',*,*,#195,.T.);
#134=ORIENTED_EDGE('',*,*,#167,.T.);
#135=ORIENTED_EDGE('',*,*,#184,.F.);
#136=ORIENTED_EDGE('',*,*,#199,.F.);
#137=ORIENTED_EDGE('',*,*,#197,.T.);
#138=ORIENTED_EDGE('',*,*,#183,.T.);
#139=ORIENTED_EDGE('',*,*,#186,.T.);
#140=ORIENTED_EDGE('',*,*,#188,.T.);
#141=ORIENTED_EDGE('',*,*,#190,.T.);
#142=ORIENTED_EDGE('',*,*,#192,.T.);
#143=ORIENTED_EDGE('',*,*,#194,.T.);
#144=ORIENTED_EDGE('',*,*,#196,.T.);
#145=ORIENTED_EDGE('',*,*,#198,.T.);
#146=ORIENTED_EDGE('',*,*,#199,.T.);
#147=EDGE_CURVE('',#200,#201,#236,.T.);
#148=EDGE_CURVE('',#202,#200,#33,.T.);
#149=EDGE_CURVE('',#202,#203,#237,.T.);
#150=EDGE_CURVE('',#203,#201,#34,.T.);
#151=EDGE_CURVE('',#204,#205,#35,.T.);
#152=EDGE_CURVE('',#204,#206,#238,.T.);
#153=EDGE_CURVE('',#206,#207,#36,.T.);
#154=EDGE_CURVE('',#205,#207,#239,.T.);
#155=EDGE_CURVE('',#206,#208,#240,.T.);
#156=EDGE_CURVE('',#209,#208,#37,.T.);
#157=EDGE_CURVE('',#209,#207,#241,.T.);
#158=EDGE_CURVE('',#210,#210,#13,.T.);
#159=EDGE_CURVE('',#211,#208,#242,.T.);
#160=EDGE_CURVE('',#211,#212,#38,.F.);
#161=EDGE_CURVE('',#212,#213,#243,.T.);
#162=EDGE_CURVE('',#213,#214,#39,.T.);
#163=EDGE_CURVE('',#215,#214,#244,.T.);
#164=EDGE_CURVE('',#215,#216,#40,.F.);
#165=EDGE_CURVE('',#216,#209,#245,.T.);
#166=EDGE_CURVE('',#217,#218,#246,.T.);
#167=EDGE_CURVE('',#219,#217,#247,.T.);
#168=EDGE_CURVE('',#220,#219,#248,.T.);
#169=EDGE_CURVE('',#221,#220,#249,.T.);
#170=EDGE_CURVE('',#222,#221,#250,.T.);
#171=EDGE_CURVE('',#223,#222,#251,.T.);
#172=EDGE_CURVE('',#224,#223,#252,.T.);
#173=EDGE_CURVE('',#225,#224,#253,.T.);
#174=EDGE_CURVE('',#218,#225,#254,.T.);
#175=EDGE_CURVE('',#226,#226,#14,.T.);
#176=EDGE_CURVE('',#204,#211,#255,.T.);
#177=EDGE_CURVE('',#216,#205,#256,.T.);
#178=EDGE_CURVE('',#202,#215,#257,.T.);
#179=EDGE_CURVE('',#212,#200,#258,.T.);
#180=EDGE_CURVE('',#213,#201,#259,.T.);
#181=EDGE_CURVE('',#203,#214,#260,.T.);
#182=EDGE_CURVE('',#227,#218,#261,.T.);
#183=EDGE_CURVE('',#228,#227,#262,.T.);
#184=EDGE_CURVE('',#228,#217,#263,.T.);
#185=EDGE_CURVE('',#229,#225,#264,.T.);
#186=EDGE_CURVE('',#227,#229,#265,.T.);
#187=EDGE_CURVE('',#230,#224,#266,.T.);
#188=EDGE_CURVE('',#229,#230,#267,.T.);
#189=EDGE_CURVE('',#231,#223,#268,.T.);
#190=EDGE_CURVE('',#230,#231,#269,.T.);
#191=EDGE_CURVE('',#232,#222,#270,.T.);
#192=EDGE_CURVE('',#231,#232,#271,.T.);
#193=EDGE_CURVE('',#233,#221,#272,.T.);
#194=EDGE_CURVE('',#232,#233,#273,.T.);
#195=EDGE_CURVE('',#234,#220,#274,.T.);
#196=EDGE_CURVE('',#233,#234,#275,.T.);
#197=EDGE_CURVE('',#235,#219,#276,.T.);
#198=EDGE_CURVE('',#234,#235,#277,.T.);
#199=EDGE_CURVE('',#235,#228,#278,.T.);
#200=VERTEX_POINT('',#545);
#201=VERTEX_POINT('',#546);
#202=VERTEX_POINT('',#548);
#203=VERTEX_POINT('',#550);
#204=VERTEX_POINT('',#554);
#205=VERTEX_POINT('',#555);
#206=VERTEX_POINT('',#557);
#207=VERTEX_POINT('',#559);
#208=VERTEX_POINT('',#563);
#209=VERTEX_POINT('',#565);
#210=VERTEX_POINT('',#579);
#211=VERTEX_POINT('',#581);
#212=VERTEX_POINT('',#583);
#213=VERTEX_POINT('',#585);
#214=VERTEX_POINT('',#587);
#215=VERTEX_POINT('',#589);
#216=VERTEX_POINT('',#591);
#217=VERTEX_POINT('',#595);
#218=VERTEX_POINT('',#596);
#219=VERTEX_POINT('',#598);
#220=VERTEX_POINT('',#600);
#221=VERTEX_POINT('',#602);
#222=VERTEX_POINT('',#604);
#223=VERTEX_POINT('',#606);
#224=VERTEX_POINT('',#608);
#225=VERTEX_POINT('',#610);
#226=VERTEX_POINT('',#631);
#227=VERTEX_POINT('',#722);
#228=VERTEX_POINT('',#724);
#229=VERTEX_POINT('',#728);
#230=VERTEX_POINT('',#732);
#231=VERTEX_POINT('',#736);
#232=VERTEX_POINT('',#740);
#233=VERTEX_POINT('',#744);
#234=VERTEX_POINT('',#748);
#235=VERTEX_POINT('',#752);
#236=LINE('',#544,#279);
#237=LINE('',#549,#280);
#238=LINE('',#556,#281);
#239=LINE('',#560,#282);
#240=LINE('',#562,#283);
#241=LINE('',#566,#284);
#242=LINE('',#580,#285);
#243=LINE('',#584,#286);
#244=LINE('',#588,#287);
#245=LINE('',#592,#288);
#246=LINE('',#594,#289);
#247=LINE('',#597,#290);
#248=LINE('',#599,#291);
#249=LINE('',#601,#292);
#250=LINE('',#603,#293);
#251=LINE('',#605,#294);
#252=LINE('',#607,#295);
#253=LINE('',#609,#296);
#254=LINE('',#611,#297);
#255=LINE('',#633,#298);
#256=LINE('',#634,#299);
#257=LINE('',#635,#300);
#258=LINE('',#636,#301);
#259=LINE('',#638,#302);
#260=LINE('',#639,#303);
#261=LINE('',#721,#304);
#262=LINE('',#723,#305);
#263=LINE('',#725,#306);
#264=LINE('',#727,#307);
#265=LINE('',#729,#308);
#266=LINE('',#731,#309);
#267=LINE('',#733,#310);
#268=LINE('',#735,#311);
#269=LINE('',#737,#312);
#270=LINE('',#739,#313);
#271=LINE('',#741,#314);
#272=LINE('',#743,#315);
#273=LINE('',#745,#316);
#274=LINE('',#747,#317);
#275=LINE('',#749,#318);
#276=LINE('',#751,#319);
#277=LINE('',#753,#320);
#278=LINE('',#755,#321);
#279=VECTOR('',#443,1.);
#280=VECTOR('',#446,1.);
#281=VECTOR('',#453,1.);
#282=VECTOR('',#456,1.);
#283=VECTOR('',#459,1.);
#284=VECTOR('',#462,1.);
#285=VECTOR('',#465,1.);
#286=VECTOR('',#468,1.);
#287=VECTOR('',#471,1.);
#288=VECTOR('',#474,1.);
#289=VECTOR('',#477,1.);
#290=VECTOR('',#478,1.);
#291=VECTOR('',#479,1.);
#292=VECTOR('',#480,1.);
#293=VECTOR('',#481,1.);
#294=VECTOR('',#482,1.);
#295=VECTOR('',#483,1.);
#296=VECTOR('',#484,1.);
#297=VECTOR('',#485,1.);
#298=VECTOR('',#488,1.);
#299=VECTOR('',#489,1.);
#300=VECTOR('',#490,1.);
#301=VECTOR('',#491,1.);
#302=VECTOR('',#494,1.);
#303=VECTOR('',#495,1.);
#304=VECTOR('',#506,1.);
#305=VECTOR('',#507,1.);
#306=VECTOR('',#508,1.);
#307=VECTOR('',#511,1.);
#308=VECTOR('',#512,1.);
#309=VECTOR('',#515,1.);
#310=VECTOR('',#516,1.);
#311=VECTOR('',#519,1.);
#312=VECTOR('',#520,1.);
#313=VECTOR('',#523,1.);
#314=VECTOR('',#524,1.);
#315=VECTOR('',#527,1.);
#316=VECTOR('',#528,1.);
#317=VECTOR('',#531,1.);
#318=VECTOR('',#532,1.);
#319=VECTOR('',#535,1.);
#320=VECTOR('',#536,1.);
#321=VECTOR('',#539,1.);
#322=EDGE_LOOP('',(#41,#42,#43,#44));
#323=EDGE_LOOP('',(#45,#46,#47,#48));
#324=EDGE_LOOP('',(#49,#50,#51,#52));
#325=EDGE_LOOP('',(#53));
#326=EDGE_LOOP('',(#54,#55,#56,#57,#58,#59,#60,#61));
#327=EDGE_LOOP('',(#62,#63,#64,#65,#66,#67,#68,#69,#70));
#328=EDGE_LOOP('',(#71));
#329=EDGE_LOOP('',(#72,#73,#74,#75,#76,#77,#78,#79));
#330=EDGE_LOOP('',(#80,#81,#82,#83));
#331=EDGE_LOOP('',(#84));
#332=EDGE_LOOP('',(#85));
#333=EDGE_LOOP('',(#86,#87,#88,#89));
#334=EDGE_LOOP('',(#90,#91,#92,#93));
#335=EDGE_LOOP('',(#94,#95,#96,#97));
#336=EDGE_LOOP('',(#98,#99,#100,#101));
#337=EDGE_LOOP('',(#102,#103,#104,#105));
#338=EDGE_LOOP('',(#106,#107,#108,#109));
#339=EDGE_LOOP('',(#110,#111,#112,#113));
#340=EDGE_LOOP('',(#114,#115,#116,#117));
#341=EDGE_LOOP('',(#118,#119,#120,#121));
#342=EDGE_LOOP('',(#122,#123,#124,#125));
#343=EDGE_LOOP('',(#126,#127,#128,#129));
#344=EDGE_LOOP('',(#130,#131,#132,#133));
#345=EDGE_LOOP('',(#134,#135,#136,#137));
#346=EDGE_LOOP('',(#138,#139,#140,#141,#142,#143,#144,#145,#146));
#347=FACE_BOUND('',#322,.T.);
#348=FACE_BOUND('',#323,.T.);
#349=FACE_BOUND('',#324,.T.);
#350=FACE_BOUND('',#325,.T.);
#351=FACE_BOUND('',#326,.T.);
#352=FACE_BOUND('',#327,.T.);
#353=FACE_BOUND('',#328,.T.);
#354=FACE_BOUND('',#329,.T.);
#355=FACE_BOUND('',#330,.T.);
#356=FACE_BOUND('',#331,.T.);
#357=FACE_BOUND('',#332,.T.);
#358=FACE_BOUND('',#333,.T.);
#359=FACE_BOUND('',#334,.T.);
#360=FACE_BOUND('',#335,.T.);
#361=FACE_BOUND('',#336,.T.);
#362=FACE_BOUND('',#337,.T.);
#363=FACE_BOUND('',#338,.T.);
#364=FACE_BOUND('',#339,.T.);
#365=FACE_BOUND('',#340,.T.);
#366=FACE_BOUND('',#341,.T.);
#367=FACE_BOUND('',#342,.T.);
#368=FACE_BOUND('',#343,.T.);
#369=FACE_BOUND('',#344,.T.);
#370=FACE_BOUND('',#345,.T.);
#371=FACE_BOUND('',#346,.T.);
#372=CYLINDRICAL_SURFACE('',#410,0.00662153341332279);
#373=CYLINDRICAL_SURFACE('',#413,0.00662153341332279);
#374=CYLINDRICAL_SURFACE('',#418,0.00575);
#375=ADVANCED_FACE('',(#347),#372,.T.);
#376=ADVANCED_FACE('',(#348),#373,.T.);
#377=ADVANCED_FACE('',(#349),#15,.F.);
#378=ADVANCED_FACE('',(#350,#351),#374,.T.);
#379=ADVANCED_FACE('',(#352,#353),#16,.T.);
#380=ADVANCED_FACE('',(#354),#17,.T.);
#381=ADVANCED_FACE('',(#355),#18,.F.);
#382=ADVANCED_FACE('',(#356,#357),#12,.T.);
#383=ADVANCED_FACE('',(#358),#19,.T.);
#384=ADVANCED_FACE('',(#359),#20,.T.);
#385=ADVANCED_FACE('',(#360),#21,.T.);
#386=ADVANCED_FACE('',(#361),#22,.T.);
#387=ADVANCED_FACE('',(#362),#23,.F.);
#388=ADVANCED_FACE('',(#363),#24,.F.);
#389=ADVANCED_FACE('',(#364),#25,.F.);
#390=ADVANCED_FACE('',(#365),#26,.F.);
#391=ADVANCED_FACE('',(#366),#27,.F.);
#392=ADVANCED_FACE('',(#367),#28,.F.);
#393=ADVANCED_FACE('',(#368),#29,.F.);
#394=ADVANCED_FACE('',(#369),#30,.F.);
#395=ADVANCED_FACE('',(#370),#31,.F.);
#396=ADVANCED_FACE('',(#371),#32,.T.);
#397=CLOSED_SHELL('',(#375,#376,#377,#378,#379,#380,#381,#382,#383,#384,
#385,#386,#387,#388,#389,#390,#391,#392,#393,#394,#395,#396));
#398=STYLED_ITEM('',(#399),#406);
#399=PRESENTATION_STYLE_ASSIGNMENT((#400));
#400=SURFACE_STYLE_USAGE(.BOTH.,#401);
#401=SURFACE_SIDE_STYLE('',(#402));
#402=SURFACE_STYLE_FILL_AREA(#403);
#403=FILL_AREA_STYLE('',(#404));
#404=FILL_AREA_STYLE_COLOUR('',#405);
#405=COLOUR_RGB('',0.682352941176471,0.333333333333334,0.737254901960784);
#406=MANIFOLD_SOLID_BREP('Part 4',#397);
#407=SHAPE_DEFINITION_REPRESENTATION(#763,#408);
#408=SHAPE_REPRESENTATION('Part 4',(#409),#758);
#409=AXIS2_PLACEMENT_3D('',#542,#439,#440);
#410=AXIS2_PLACEMENT_3D('',#543,#441,#442);
#411=AXIS2_PLACEMENT_3D('',#547,#444,#445);
#412=AXIS2_PLACEMENT_3D('',#551,#447,#448);
#413=AXIS2_PLACEMENT_3D('',#552,#449,#450);
#414=AXIS2_PLACEMENT_3D('',#553,#451,#452);
#415=AXIS2_PLACEMENT_3D('',#558,#454,#455);
#416=AXIS2_PLACEMENT_3D('',#561,#457,#458);
#417=AXIS2_PLACEMENT_3D('',#564,#460,#461);
#418=AXIS2_PLACEMENT_3D('',#567,#463,#464);
#419=AXIS2_PLACEMENT_3D('',#582,#466,#467);
#420=AXIS2_PLACEMENT_3D('',#586,#469,#470);
#421=AXIS2_PLACEMENT_3D('',#590,#472,#473);
#422=AXIS2_PLACEMENT_3D('',#593,#475,#476);
#423=AXIS2_PLACEMENT_3D('',#632,#486,#487);
#424=AXIS2_PLACEMENT_3D('',#637,#492,#493);
#425=AXIS2_PLACEMENT_3D('',#716,#496,#497);
#426=AXIS2_PLACEMENT_3D('',#717,#498,#499);
#427=AXIS2_PLACEMENT_3D('',#718,#500,#501);
#428=AXIS2_PLACEMENT_3D('',#719,#502,#503);
#429=AXIS2_PLACEMENT_3D('',#720,#504,#505);
#430=AXIS2_PLACEMENT_3D('',#726,#509,#510);
#431=AXIS2_PLACEMENT_3D('',#730,#513,#514);
#432=AXIS2_PLACEMENT_3D('',#734,#517,#518);
#433=AXIS2_PLACEMENT_3D('',#738,#521,#522);
#434=AXIS2_PLACEMENT_3D('',#742,#525,#526);
#435=AXIS2_PLACEMENT_3D('',#746,#529,#530);
#436=AXIS2_PLACEMENT_3D('',#750,#533,#534);
#437=AXIS2_PLACEMENT_3D('',#754,#537,#538);
#438=AXIS2_PLACEMENT_3D('',#756,#540,#541);
#439=DIRECTION('',(0.,0.,1.));
#440=DIRECTION('',(1.,0.,0.));
#441=DIRECTION('',(0.,0.,1.));
#442=DIRECTION('',(1.,0.,0.));
#443=DIRECTION('',(0.,0.,1.));
#444=DIRECTION('',(0.,0.,-1.));
#445=DIRECTION('',(-1.,0.,0.));
#446=DIRECTION('',(0.,0.,1.));
#447=DIRECTION('',(0.,0.,-1.));
#448=DIRECTION('',(-1.,0.,0.));
#449=DIRECTION('',(0.,0.,1.));
#450=DIRECTION('',(1.,0.,0.));
#451=DIRECTION('',(0.,0.,-1.));
#452=DIRECTION('',(-1.,0.,0.));
#453=DIRECTION('',(0.,0.,1.));
#454=DIRECTION('',(0.,0.,-1.));
#455=DIRECTION('',(-1.,0.,0.));
#456=DIRECTION('',(0.,0.,1.));
#457=DIRECTION('',(0.,0.,-1.));
#458=DIRECTION('',(1.,0.,0.));
#459=DIRECTION('',(1.,3.71639862219125E-16,0.));
#460=DIRECTION('',(0.,0.,1.));
#461=DIRECTION('',(1.,0.,0.));
#462=DIRECTION('',(1.,3.71639862219125E-16,0.));
#463=DIRECTION('',(0.,0.,-1.));
#464=DIRECTION('',(-1.,0.,0.));
#465=DIRECTION('',(0.,0.,1.));
#466=DIRECTION('',(0.,0.,-1.));
#467=DIRECTION('',(-1.,0.,0.));
#468=DIRECTION('',(0.,0.,1.));
#469=DIRECTION('',(0.,0.,1.));
#470=DIRECTION('',(1.,0.,0.));
#471=DIRECTION('',(0.,0.,1.));
#472=DIRECTION('',(0.,0.,-1.));
#473=DIRECTION('',(-1.,0.,0.));
#474=DIRECTION('',(0.,0.,1.));
#475=DIRECTION('',(0.,0.,1.));
#476=DIRECTION('',(1.,0.,0.));
#477=DIRECTION('',(-1.,0.,0.));
#478=DIRECTION('',(-0.5,0.866025403784439,0.));
#479=DIRECTION('',(-0.5,-0.866025403784439,0.));
#480=DIRECTION('',(-1.,0.,0.));
#481=DIRECTION('',(0.506194854229333,0.862419137978596,0.));
#482=DIRECTION('',(0.,1.,0.));
#483=DIRECTION('',(1.,0.,0.));
#484=DIRECTION('',(4.60715496017244E-17,-1.,0.));
#485=DIRECTION('',(0.506194854229333,-0.862419137978596,0.));
#486=DIRECTION('',(0.,0.,-1.));
#487=DIRECTION('',(1.,0.,0.));
#488=DIRECTION('',(1.,3.71639862219125E-16,0.));
#489=DIRECTION('',(1.,3.71639862219125E-16,0.));
#490=DIRECTION('',(-1.,-1.33894854141351E-16,0.));
#491=DIRECTION('',(-1.,-1.33894854141351E-16,0.));
#492=DIRECTION('',(0.,0.,-1.));
#493=DIRECTION('',(1.,0.,0.));
#494=DIRECTION('',(-1.,-1.33894854141351E-16,0.));
#495=DIRECTION('',(-1.,-1.33894854141351E-16,0.));
#496=DIRECTION('',(3.71639862219125E-16,-1.,0.));
#497=DIRECTION('',(1.,3.71639862219125E-16,0.));
#498=DIRECTION('',(-1.33894854141351E-16,1.,0.));
#499=DIRECTION('',(-1.,-1.33894854141351E-16,0.));
#500=DIRECTION('',(-1.33894854141351E-16,1.,0.));
#501=DIRECTION('',(-1.,-1.33894854141351E-16,0.));
#502=DIRECTION('',(3.71639862219125E-16,-1.,0.));
#503=DIRECTION('',(1.,3.71639862219125E-16,0.));
#504=DIRECTION('',(0.,1.,0.));
#505=DIRECTION('',(0.,0.,1.));
#506=DIRECTION('',(0.,0.,1.));
#507=DIRECTION('',(-1.,0.,0.));
#508=DIRECTION('',(0.,0.,1.));
#509=DIRECTION('',(-0.862419137978596,-0.506194854229333,0.));
#510=DIRECTION('',(0.506194854229333,-0.862419137978596,0.));
#511=DIRECTION('',(0.,0.,1.));
#512=DIRECTION('',(0.506194854229333,-0.862419137978596,0.));
#513=DIRECTION('',(-1.,-4.60715496017244E-17,0.));
#514=DIRECTION('',(4.60715496017244E-17,-1.,0.));
#515=DIRECTION('',(0.,0.,1.));
#516=DIRECTION('',(4.60715496017244E-17,-1.,0.));
#517=DIRECTION('',(0.,-1.,0.));
#518=DIRECTION('',(0.,0.,-1.));
#519=DIRECTION('',(0.,0.,1.));
#520=DIRECTION('',(1.,0.,0.));
#521=DIRECTION('',(1.,0.,0.));
#522=DIRECTION('',(0.,0.,-1.));
#523=DIRECTION('',(0.,0.,1.));
#524=DIRECTION('',(0.,1.,0.));
#525=DIRECTION('',(0.862419137978596,-0.506194854229333,0.));
#526=DIRECTION('',(0.506194854229333,0.862419137978596,0.));
#527=DIRECTION('',(0.,0.,1.));
#528=DIRECTION('',(0.506194854229333,0.862419137978596,0.));
#529=DIRECTION('',(0.,1.,0.));
#530=DIRECTION('',(0.,0.,1.));
#531=DIRECTION('',(0.,0.,1.));
#532=DIRECTION('',(-1.,0.,0.));
#533=DIRECTION('',(-0.866025403784439,0.5,0.));
#534=DIRECTION('',(-0.5,-0.866025403784439,0.));
#535=DIRECTION('',(0.,0.,1.));
#536=DIRECTION('',(-0.5,-0.866025403784439,0.));
#537=DIRECTION('',(0.866025403784439,0.5,0.));
#538=DIRECTION('',(-0.5,0.866025403784439,0.));
#539=DIRECTION('',(-0.5,0.866025403784439,0.));
#540=DIRECTION('',(0.,0.,1.));
#541=DIRECTION('',(1.,0.,0.));
#542=CARTESIAN_POINT('',(0.,0.,0.));
#543=CARTESIAN_POINT('',(0.,-0.0601284665866772,-0.0015));
#544=CARTESIAN_POINT('',(-0.00647793183353215,-0.0615,-0.001502));
#545=CARTESIAN_POINT('',(-0.00647793183353215,-0.0615,-0.0015));
#546=CARTESIAN_POINT('',(-0.00647793183353215,-0.0615,0.));
#547=CARTESIAN_POINT('',(0.,-0.0601284665866772,-0.0015));
#548=CARTESIAN_POINT('',(0.00647793183353215,-0.0615,-0.0015));
#549=CARTESIAN_POINT('',(0.00647793183353215,-0.0615,-0.001502));
#550=CARTESIAN_POINT('',(0.00647793183353215,-0.0615,0.));
#551=CARTESIAN_POINT('',(0.,-0.0601284665866772,0.));
#552=CARTESIAN_POINT('',(0.,-0.0601284665866772,-0.0015));
#553=CARTESIAN_POINT('',(0.,-0.0601284665866772,-0.0015));
#554=CARTESIAN_POINT('',(-0.00641816183340885,-0.0585,-0.0015));
#555=CARTESIAN_POINT('',(0.00641816183340884,-0.0585,-0.0015));
#556=CARTESIAN_POINT('',(-0.00641816183340885,-0.0585,-0.001502));
#557=CARTESIAN_POINT('',(-0.00641816183340885,-0.0585,0.));
#558=CARTESIAN_POINT('',(0.,-0.0601284665866772,0.));
#559=CARTESIAN_POINT('',(0.00641816183340884,-0.0585,0.));
#560=CARTESIAN_POINT('',(0.00641816183340884,-0.0585,-0.001502));
#561=CARTESIAN_POINT('',(0.,-0.0601284665866772,0.));
#562=CARTESIAN_POINT('',(-8.67361737988404E-19,-0.0585,0.));
#563=CARTESIAN_POINT('',(-0.00555090082779363,-0.0585,0.));
#564=CARTESIAN_POINT('',(0.,-0.06,0.));
#565=CARTESIAN_POINT('',(0.00555090082779363,-0.0585,0.));
#566=CARTESIAN_POINT('',(-8.67361737988404E-19,-0.0585,0.));
#567=CARTESIAN_POINT('',(0.,-0.06,0.005));
#568=CARTESIAN_POINT('',(0.00450576684312454,-0.0554942331568755,0.003));
#569=CARTESIAN_POINT('',(0.00637211657843773,-0.06,0.003));
#570=CARTESIAN_POINT('',(0.00450576684312453,-0.0645057668431245,0.003));
#571=CARTESIAN_POINT('',(-1.15196480826585E-17,-0.0663721165784378,0.003));
#572=CARTESIAN_POINT('',(-0.00450576684312454,-0.0645057668431245,0.003));
#573=CARTESIAN_POINT('',(-0.00637211657843773,-0.06,0.003));
#574=CARTESIAN_POINT('',(-0.00450576684312454,-0.0554942331568755,0.003));
#575=CARTESIAN_POINT('',(3.95733792957209E-18,-0.0536278834215623,0.003));
#576=CARTESIAN_POINT('',(0.00450576684312454,-0.0554942331568755,0.003));
#577=CARTESIAN_POINT('',(0.00637211657843773,-0.06,0.003));
#578=CARTESIAN_POINT('',(0.00450576684312453,-0.0645057668431245,0.003));
#579=CARTESIAN_POINT('',(0.00575,-0.06,0.003));
#580=CARTESIAN_POINT('',(-0.00555090082779363,-0.0585,-0.001502));
#581=CARTESIAN_POINT('',(-0.00555090082779363,-0.0585,-0.0015));
#582=CARTESIAN_POINT('',(0.,-0.06,-0.0015));
#583=CARTESIAN_POINT('',(-0.00555090082779363,-0.0615,-0.0015));
#584=CARTESIAN_POINT('',(-0.00555090082779363,-0.0615,-0.001502));
#585=CARTESIAN_POINT('',(-0.00555090082779363,-0.0615,0.));
#586=CARTESIAN_POINT('',(0.,-0.06,0.));
#587=CARTESIAN_POINT('',(0.00555090082779363,-0.0615,0.));
#588=CARTESIAN_POINT('',(0.00555090082779363,-0.0615,-0.001502));
#589=CARTESIAN_POINT('',(0.00555090082779363,-0.0615,-0.0015));
#590=CARTESIAN_POINT('',(0.,-0.06,-0.0015));
#591=CARTESIAN_POINT('',(0.00555090082779363,-0.0585,-0.0015));
#592=CARTESIAN_POINT('',(0.00555090082779363,-0.0585,-0.001502));
#593=CARTESIAN_POINT('',(0.,-0.06,0.005));
#594=CARTESIAN_POINT('',(-0.00173149545762236,-0.0573483495705505,0.005));
#595=CARTESIAN_POINT('',(-0.000981495457622364,-0.0573483495705505,0.005));
#596=CARTESIAN_POINT('',(-0.00248149545762237,-0.0573483495705505,0.005));
#597=CARTESIAN_POINT('',(-0.000490747728811182,-0.0581983495705505,0.005));
#598=CARTESIAN_POINT('',(4.33680868994202E-19,-0.0590483495705505,0.005));
#599=CARTESIAN_POINT('',(0.00049074772881118,-0.0581983495705505,0.005));
#600=CARTESIAN_POINT('',(0.000981495457622362,-0.0573483495705505,0.005));
#601=CARTESIAN_POINT('',(0.00173149545762236,-0.0573483495705505,0.005));
#602=CARTESIAN_POINT('',(0.00248149545762237,-0.0573483495705505,0.005));
#603=CARTESIAN_POINT('',(0.00161574772881118,-0.0588233495705505,0.005));
#604=CARTESIAN_POINT('',(0.00075,-0.0602983495705505,0.005));
#605=CARTESIAN_POINT('',(0.00075,-0.061475,0.005));
#606=CARTESIAN_POINT('',(0.00075,-0.0626516504294496,0.005));
#607=CARTESIAN_POINT('',(3.25260651745652E-19,-0.0626516504294496,0.005));
#608=CARTESIAN_POINT('',(-0.00075,-0.0626516504294496,0.005));
#609=CARTESIAN_POINT('',(-0.00075,-0.061475,0.005));
#610=CARTESIAN_POINT('',(-0.00075,-0.0602983495705505,0.005));
#611=CARTESIAN_POINT('',(-0.00161574772881119,-0.0588233495705505,0.005));
#612=CARTESIAN_POINT('',(0.00353838192560604,-0.061525295936876,0.005));
#613=CARTESIAN_POINT('',(0.00384762603355932,-0.0600497868549382,0.005));
#614=CARTESIAN_POINT('',(0.00356993380127245,-0.0585790137267272,0.005));
#615=CARTESIAN_POINT('',(0.00277590860006166,-0.0573359111535431,0.005));
#616=CARTESIAN_POINT('',(0.00154638145237862,-0.0564768243854813,0.005));
#617=CARTESIAN_POINT('',(8.04760570883354E-5,-0.0561531929609774,0.005));
#618=CARTESIAN_POINT('',(-0.00139775680955877,-0.0564152236259584,0.005));
#619=CARTESIAN_POINT('',(-0.00266319321472085,-0.057222994433578,0.005));
#620=CARTESIAN_POINT('',(-0.00352318375112304,-0.0584535419327805,0.005));
#621=CARTESIAN_POINT('',(-0.00384680124679712,-0.0599195228798451,0.005));
#622=CARTESIAN_POINT('',(-0.0035847781347386,-0.0613977561729043,0.005));
#623=CARTESIAN_POINT('',(-0.00277700526238462,-0.0626631928054748,0.005));
#624=CARTESIAN_POINT('',(-0.00154645764329362,-0.0635231858572221,0.005));
#625=CARTESIAN_POINT('',(-8.04791286736939E-5,-0.0638467932262155,0.005));
#626=CARTESIAN_POINT('',(0.00139776378254414,-0.0635848081108829,0.005));
#627=CARTESIAN_POINT('',(0.00266316437540915,-0.0627768933783949,0.005));
#628=CARTESIAN_POINT('',(0.00353838192560604,-0.061525295936876,0.005));
#629=CARTESIAN_POINT('',(0.00384762603355932,-0.0600497868549382,0.005));
#630=CARTESIAN_POINT('',(0.00356993380127245,-0.0585790137267272,0.005));
#631=CARTESIAN_POINT('',(0.00375,-0.06,0.005));
#632=CARTESIAN_POINT('',(0.,-0.0601284665866772,-0.0015));
#633=CARTESIAN_POINT('',(-8.67361737988404E-19,-0.0585,-0.0015));
#634=CARTESIAN_POINT('',(-8.67361737988404E-19,-0.0585,-0.0015));
#635=CARTESIAN_POINT('',(8.67361737988404E-19,-0.0615,-0.0015));
#636=CARTESIAN_POINT('',(8.67361737988404E-19,-0.0615,-0.0015));
#637=CARTESIAN_POINT('',(0.,-0.0601284665866772,0.));
#638=CARTESIAN_POINT('',(8.67361737988404E-19,-0.0615,0.));
#639=CARTESIAN_POINT('',(8.67361737988404E-19,-0.0615,0.));
#640=CARTESIAN_POINT('',(-0.00355474298312897,-0.0585275650319544,0.005));
#641=CARTESIAN_POINT('',(-0.00384762850843551,-0.06,0.005));
#642=CARTESIAN_POINT('',(-0.00355474298312898,-0.0614724349680456,0.005));
#643=CARTESIAN_POINT('',(-0.0027206755734234,-0.0627207050598625,0.005));
#644=CARTESIAN_POINT('',(-0.00147240548160653,-0.063554772469568,0.005));
#645=CARTESIAN_POINT('',(2.94864390428132E-8,-0.0638476579948746,0.005));
#646=CARTESIAN_POINT('',(0.00147246445448462,-0.063554772469568,0.005));
#647=CARTESIAN_POINT('',(0.00272073454630149,-0.0627207050598625,0.005));
#648=CARTESIAN_POINT('',(0.00355480195600708,-0.0614724349680456,0.005));
#649=CARTESIAN_POINT('',(0.00384768748131363,-0.06,0.005));
#650=CARTESIAN_POINT('',(0.0035548019560071,-0.0585275650319545,0.005));
#651=CARTESIAN_POINT('',(0.00272073454630151,-0.0572792949401376,0.005));
#652=CARTESIAN_POINT('',(0.00147246445448465,-0.056445227530432,0.005));
#653=CARTESIAN_POINT('',(2.94864390725898E-8,-0.0561523420051255,0.005));
#654=CARTESIAN_POINT('',(-0.00147240548160651,-0.056445227530432,0.005));
#655=CARTESIAN_POINT('',(-0.00272067557342338,-0.0572792949401376,0.005));
#656=CARTESIAN_POINT('',(-0.00355474298312897,-0.0585275650319544,0.005));
#657=CARTESIAN_POINT('',(-0.00384762850843551,-0.06,0.005));
#658=CARTESIAN_POINT('',(-0.00355474298312898,-0.0614724349680456,0.005));
#659=CARTESIAN_POINT('',(-0.00481865214523838,-0.0580040367154011,0.005));
#660=CARTESIAN_POINT('',(-0.00521567392738081,-0.06,0.005));
#661=CARTESIAN_POINT('',(-0.00481865214523837,-0.0619959632845989,0.005));
#662=CARTESIAN_POINT('',(-0.00368802976613079,-0.0636880592525698,0.005));
#663=CARTESIAN_POINT('',(-0.00199593379815984,-0.0648186816316774,0.005));
#664=CARTESIAN_POINT('',(2.94864390657576E-8,-0.0652157034138199,0.005));
#665=CARTESIAN_POINT('',(0.00199599277103797,-0.0648186816316774,0.00500000000000001));
#666=CARTESIAN_POINT('',(0.00368808873900892,-0.0636880592525698,0.005));
#667=CARTESIAN_POINT('',(0.0048187111181165,-0.0619959632845989,0.005));
#668=CARTESIAN_POINT('',(0.00521573290025893,-0.06,0.005));
#669=CARTESIAN_POINT('',(0.00481871111811649,-0.058004036715401,0.005));
#670=CARTESIAN_POINT('',(0.00368808873900891,-0.0563119407474302,0.005));
#671=CARTESIAN_POINT('',(0.00199599277103796,-0.0551813183683225,0.005));
#672=CARTESIAN_POINT('',(2.9486439049725E-8,-0.0547842965861801,0.005));
#673=CARTESIAN_POINT('',(-0.00199593379815986,-0.0551813183683226,0.005));
#674=CARTESIAN_POINT('',(-0.00368802976613081,-0.0563119407474301,0.00500000000000001));
#675=CARTESIAN_POINT('',(-0.00481865214523838,-0.0580040367154011,0.005));
#676=CARTESIAN_POINT('',(-0.00521567392738081,-0.06,0.005));
#677=CARTESIAN_POINT('',(-0.00481865214523837,-0.0619959632845989,0.005));
#678=CARTESIAN_POINT('',(-0.00545060672629306,-0.0577422725571245,0.00433333333333334));
#679=CARTESIAN_POINT('',(-0.00589969663685347,-0.06,0.00433333333333333));
#680=CARTESIAN_POINT('',(-0.00545060672629308,-0.0622577274428755,0.00433333333333334));
#681=CARTESIAN_POINT('',(-0.00417170686248453,-0.0641717363489236,0.00433333333333333));
#682=CARTESIAN_POINT('',(-0.00225769795643654,-0.0654506362127321,0.00433333333333334));
#683=CARTESIAN_POINT('',(2.94864390266552E-8,-0.0658997261232925,0.00433333333333333));
#684=CARTESIAN_POINT('',(0.00225775692931459,-0.0654506362127322,0.00433333333333333));
#685=CARTESIAN_POINT('',(0.0041717658353626,-0.0641717363489236,0.00433333333333333));
#686=CARTESIAN_POINT('',(0.00545066569917116,-0.0622577274428756,0.00433333333333333));
#687=CARTESIAN_POINT('',(0.00589975560973158,-0.06,0.00433333333333333));
#688=CARTESIAN_POINT('',(0.00545066569917119,-0.0577422725571245,0.00433333333333333));
#689=CARTESIAN_POINT('',(0.00417176583536265,-0.0558282636510764,0.00433333333333333));
#690=CARTESIAN_POINT('',(0.00225775692931466,-0.0545493637872679,0.00433333333333333));
#691=CARTESIAN_POINT('',(2.94864390884005E-8,-0.0541002738767075,0.00433333333333333));
#692=CARTESIAN_POINT('',(-0.00225769795643648,-0.0545493637872679,0.00433333333333333));
#693=CARTESIAN_POINT('',(-0.00417170686248449,-0.0558282636510765,0.00433333333333333));
#694=CARTESIAN_POINT('',(-0.00545060672629306,-0.0577422725571245,0.00433333333333334));
#695=CARTESIAN_POINT('',(-0.00589969663685347,-0.06,0.00433333333333333));
#696=CARTESIAN_POINT('',(-0.00545060672629308,-0.0622577274428755,0.00433333333333334));
#697=CARTESIAN_POINT('',(-0.00545060672629307,-0.0577422725571245,0.003));
#698=CARTESIAN_POINT('',(-0.00589969663685347,-0.06,0.003));
#699=CARTESIAN_POINT('',(-0.00545060672629307,-0.0622577274428756,0.003));
#700=CARTESIAN_POINT('',(-0.00417170686248451,-0.0641717363489236,0.003));
#701=CARTESIAN_POINT('',(-0.00225769795643652,-0.0654506362127321,0.003));
#702=CARTESIAN_POINT('',(2.94864390494099E-8,-0.0658997261232925,0.003));
#703=CARTESIAN_POINT('',(0.00225775692931462,-0.0654506362127321,0.003));
#704=CARTESIAN_POINT('',(0.00417176583536262,-0.0641717363489236,0.003));
#705=CARTESIAN_POINT('',(0.00545066569917118,-0.0622577274428756,0.003));
#706=CARTESIAN_POINT('',(0.00589975560973158,-0.06,0.003));
#707=CARTESIAN_POINT('',(0.00545066569917119,-0.0577422725571245,0.003));
#708=CARTESIAN_POINT('',(0.00417176583536263,-0.0558282636510765,0.003));
#709=CARTESIAN_POINT('',(0.00225775692931463,-0.0545493637872679,0.003));
#710=CARTESIAN_POINT('',(2.94864390666216E-8,-0.0541002738767075,0.003));
#711=CARTESIAN_POINT('',(-0.0022576979564365,-0.0545493637872679,0.003));
#712=CARTESIAN_POINT('',(-0.00417170686248451,-0.0558282636510764,0.003));
#713=CARTESIAN_POINT('',(-0.00545060672629307,-0.0577422725571245,0.003));
#714=CARTESIAN_POINT('',(-0.00589969663685347,-0.06,0.003));
#715=CARTESIAN_POINT('',(-0.00545060672629307,-0.0622577274428756,0.003));
#716=CARTESIAN_POINT('',(-8.67361737988404E-19,-0.0585,-0.001502));
#717=CARTESIAN_POINT('',(8.67361737988404E-19,-0.0615,-0.001502));
#718=CARTESIAN_POINT('',(8.67361737988404E-19,-0.0615,-0.001502));
#719=CARTESIAN_POINT('',(-8.67361737988404E-19,-0.0585,-0.001502));
#720=CARTESIAN_POINT('',(-0.00173149545762236,-0.0573483495705505,0.004));
#721=CARTESIAN_POINT('',(-0.00248149545762237,-0.0573483495705505,0.004));
#722=CARTESIAN_POINT('',(-0.00248149545762237,-0.0573483495705505,0.004));
#723=CARTESIAN_POINT('',(-0.00173149545762236,-0.0573483495705505,0.004));
#724=CARTESIAN_POINT('',(-0.000981495457622364,-0.0573483495705505,0.004));
#725=CARTESIAN_POINT('',(-0.000981495457622364,-0.0573483495705505,0.004));
#726=CARTESIAN_POINT('',(-0.00161574772881119,-0.0588233495705505,0.004));
#727=CARTESIAN_POINT('',(-0.00075,-0.0602983495705505,0.004));
#728=CARTESIAN_POINT('',(-0.00075,-0.0602983495705505,0.004));
#729=CARTESIAN_POINT('',(-0.00161574772881119,-0.0588233495705505,0.004));
#730=CARTESIAN_POINT('',(-0.00075,-0.061475,0.004));
#731=CARTESIAN_POINT('',(-0.00075,-0.0626516504294496,0.004));
#732=CARTESIAN_POINT('',(-0.00075,-0.0626516504294496,0.004));
#733=CARTESIAN_POINT('',(-0.00075,-0.061475,0.004));
#734=CARTESIAN_POINT('',(3.25260651745652E-19,-0.0626516504294496,0.004));
#735=CARTESIAN_POINT('',(0.00075,-0.0626516504294496,0.004));
#736=CARTESIAN_POINT('',(0.00075,-0.0626516504294496,0.004));
#737=CARTESIAN_POINT('',(3.25260651745652E-19,-0.0626516504294496,0.004));
#738=CARTESIAN_POINT('',(0.00075,-0.061475,0.004));
#739=CARTESIAN_POINT('',(0.00075,-0.0602983495705505,0.004));
#740=CARTESIAN_POINT('',(0.00075,-0.0602983495705505,0.004));
#741=CARTESIAN_POINT('',(0.00075,-0.061475,0.004));
#742=CARTESIAN_POINT('',(0.00161574772881118,-0.0588233495705505,0.004));
#743=CARTESIAN_POINT('',(0.00248149545762237,-0.0573483495705505,0.004));
#744=CARTESIAN_POINT('',(0.00248149545762237,-0.0573483495705505,0.004));
#745=CARTESIAN_POINT('',(0.00161574772881118,-0.0588233495705505,0.004));
#746=CARTESIAN_POINT('',(0.00173149545762236,-0.0573483495705505,0.004));
#747=CARTESIAN_POINT('',(0.000981495457622362,-0.0573483495705505,0.004));
#748=CARTESIAN_POINT('',(0.000981495457622362,-0.0573483495705505,0.004));
#749=CARTESIAN_POINT('',(0.00173149545762236,-0.0573483495705505,0.004));
#750=CARTESIAN_POINT('',(0.00049074772881118,-0.0581983495705505,0.004));
#751=CARTESIAN_POINT('',(0.,-0.0590483495705505,0.004));
#752=CARTESIAN_POINT('',(0.,-0.0590483495705505,0.004));
#753=CARTESIAN_POINT('',(0.00049074772881118,-0.0581983495705505,0.004));
#754=CARTESIAN_POINT('',(-0.000490747728811182,-0.0581983495705505,0.004));
#755=CARTESIAN_POINT('',(-0.000490747728811182,-0.0581983495705505,0.004));
#756=CARTESIAN_POINT('',(0.0261621644641273,-0.0279750306723765,0.004));
#757=MECHANICAL_DESIGN_GEOMETRIC_PRESENTATION_REPRESENTATION('',(#398),
#758);
#758=(
GEOMETRIC_REPRESENTATION_CONTEXT(3)
GLOBAL_UNCERTAINTY_ASSIGNED_CONTEXT((#759))
GLOBAL_UNIT_ASSIGNED_CONTEXT((#762,#761,#760))
REPRESENTATION_CONTEXT('Part 4','TOP_LEVEL_ASSEMBLY_PART')
);
#759=UNCERTAINTY_MEASURE_WITH_UNIT(LENGTH_MEASURE(2.E-5),#762,
'DISTANCE_ACCURACY_VALUE','Maximum Tolerance applied to model');
#760=(
NAMED_UNIT(*)
SI_UNIT($,.STERADIAN.)
SOLID_ANGLE_UNIT()
);
#761=(
NAMED_UNIT(*)
PLANE_ANGLE_UNIT()
SI_UNIT($,.RADIAN.)
);
#762=(
LENGTH_UNIT()
NAMED_UNIT(*)
SI_UNIT($,.METRE.)
);
#763=PRODUCT_DEFINITION_SHAPE('','',#764);
#764=PRODUCT_DEFINITION('','',#766,#765);
#765=PRODUCT_DEFINITION_CONTEXT('',#772,'design');
#766=PRODUCT_DEFINITION_FORMATION_WITH_SPECIFIED_SOURCE('','',#768,
 .NOT_KNOWN.);
#767=PRODUCT_RELATED_PRODUCT_CATEGORY('','',(#768));
#768=PRODUCT('Part 4','Part 4','Part 4',(#770));
#769=PRODUCT_CATEGORY('','');
#770=PRODUCT_CONTEXT('',#772,'mechanical');
#771=APPLICATION_PROTOCOL_DEFINITION('international standard',
'ap242_managed_model_based_3d_engineering',2020,#772);
#772=APPLICATION_CONTEXT('managed model based 3d engineering');
ENDSEC;
END-ISO-10303-21;
