ISO-10303-21;
HEADER;
/* Generated by software containing ST-Developer
 * from STEP Tools, Inc. (www.steptools.com) 
 */
/* OPTION: using custom renumber hook */

FILE_DESCRIPTION(
/* description */ ('STEP AP242 Edition 2',
'CAx-IF Rec.Pracs.---Representation and Presentation of Product Manufa
cturing Information (PMI)---4.0---2014-10-13',
'CAx-IF Rec.Pracs.---3D Tessellated Geometry---0.4---2014-09-14','2;1',
'CAx-IF Rec.Pracs.---User Defined Attributes---1.5---2016-08-15'),
/* implementation_level */ '2;1');

FILE_NAME(
/* name */ 'S_TOP - JoystickDecorR',
/* time_stamp */ '2026-09-22T20:44:03Z',
/* author */ (''),
/* organization */ (''),
/* preprocessor_version */ 'ST-DEVELOPER v20',
/* originating_system */ 'ONSHAPE BY PTC INC, 1.221',
/* authorisation */ '  ');

FILE_SCHEMA (('AP242_MANAGED_MODEL_BASED_3D_ENGINEERING_MIM_LF { 1 0 10303 442 3 1 4 }'));
ENDSEC;

DATA;
#10=SHAPE_REPRESENTATION_RELATIONSHIP('','',#333,#11);
#11=ADVANCED_BREP_SHAPE_REPRESENTATION('',(#331),#539);
#12=CYLINDRICAL_SURFACE('',#349,0.00735);
#13=CYLINDRICAL_SURFACE('',#352,0.00735);
#14=CYLINDRICAL_SURFACE('',#356,0.001);
#15=CYLINDRICAL_SURFACE('',#359,0.001);
#16=CIRCLE('',#340,0.00735);
#17=CIRCLE('',#341,0.00735);
#18=CIRCLE('',#343,0.001);
#19=CIRCLE('',#344,0.001);
#20=CIRCLE('',#350,0.00735);
#21=CIRCLE('',#353,0.00735);
#22=CIRCLE('',#357,0.001);
#23=CIRCLE('',#360,0.001);
#24=ORIENTED_EDGE('',*,*,#104,.T.);
#25=ORIENTED_EDGE('',*,*,#105,.T.);
#26=ORIENTED_EDGE('',*,*,#106,.F.);
#27=ORIENTED_EDGE('',*,*,#107,.F.);
#28=ORIENTED_EDGE('',*,*,#108,.T.);
#29=ORIENTED_EDGE('',*,*,#109,.T.);
#30=ORIENTED_EDGE('',*,*,#110,.F.);
#31=ORIENTED_EDGE('',*,*,#104,.F.);
#32=ORIENTED_EDGE('',*,*,#111,.T.);
#33=ORIENTED_EDGE('',*,*,#112,.T.);
#34=ORIENTED_EDGE('',*,*,#113,.F.);
#35=ORIENTED_EDGE('',*,*,#109,.F.);
#36=ORIENTED_EDGE('',*,*,#106,.T.);
#37=ORIENTED_EDGE('',*,*,#114,.T.);
#38=ORIENTED_EDGE('',*,*,#112,.F.);
#39=ORIENTED_EDGE('',*,*,#115,.F.);
#40=ORIENTED_EDGE('',*,*,#116,.F.);
#41=ORIENTED_EDGE('',*,*,#117,.F.);
#42=ORIENTED_EDGE('',*,*,#118,.F.);
#43=ORIENTED_EDGE('',*,*,#119,.F.);
#44=ORIENTED_EDGE('',*,*,#120,.T.);
#45=ORIENTED_EDGE('',*,*,#121,.T.);
#46=ORIENTED_EDGE('',*,*,#122,.T.);
#47=ORIENTED_EDGE('',*,*,#123,.F.);
#48=ORIENTED_EDGE('',*,*,#124,.F.);
#49=ORIENTED_EDGE('',*,*,#125,.F.);
#50=ORIENTED_EDGE('',*,*,#126,.F.);
#51=ORIENTED_EDGE('',*,*,#127,.F.);
#52=ORIENTED_EDGE('',*,*,#128,.T.);
#53=ORIENTED_EDGE('',*,*,#129,.T.);
#54=ORIENTED_EDGE('',*,*,#105,.F.);
#55=ORIENTED_EDGE('',*,*,#110,.T.);
#56=ORIENTED_EDGE('',*,*,#113,.T.);
#57=ORIENTED_EDGE('',*,*,#114,.F.);
#58=ORIENTED_EDGE('',*,*,#130,.T.);
#59=ORIENTED_EDGE('',*,*,#117,.T.);
#60=ORIENTED_EDGE('',*,*,#131,.T.);
#61=ORIENTED_EDGE('',*,*,#127,.T.);
#62=ORIENTED_EDGE('',*,*,#131,.F.);
#63=ORIENTED_EDGE('',*,*,#116,.T.);
#64=ORIENTED_EDGE('',*,*,#132,.T.);
#65=ORIENTED_EDGE('',*,*,#128,.F.);
#66=ORIENTED_EDGE('',*,*,#130,.F.);
#67=ORIENTED_EDGE('',*,*,#126,.T.);
#68=ORIENTED_EDGE('',*,*,#133,.T.);
#69=ORIENTED_EDGE('',*,*,#118,.T.);
#70=ORIENTED_EDGE('',*,*,#132,.F.);
#71=ORIENTED_EDGE('',*,*,#119,.T.);
#72=ORIENTED_EDGE('',*,*,#133,.F.);
#73=ORIENTED_EDGE('',*,*,#129,.F.);
#74=ORIENTED_EDGE('',*,*,#120,.F.);
#75=ORIENTED_EDGE('',*,*,#134,.F.);
#76=ORIENTED_EDGE('',*,*,#135,.T.);
#77=ORIENTED_EDGE('',*,*,#136,.T.);
#78=ORIENTED_EDGE('',*,*,#123,.T.);
#79=ORIENTED_EDGE('',*,*,#137,.F.);
#80=ORIENTED_EDGE('',*,*,#138,.F.);
#81=ORIENTED_EDGE('',*,*,#134,.T.);
#82=ORIENTED_EDGE('',*,*,#122,.F.);
#83=ORIENTED_EDGE('',*,*,#139,.F.);
#84=ORIENTED_EDGE('',*,*,#140,.T.);
#85=ORIENTED_EDGE('',*,*,#137,.T.);
#86=ORIENTED_EDGE('',*,*,#121,.F.);
#87=ORIENTED_EDGE('',*,*,#136,.F.);
#88=ORIENTED_EDGE('',*,*,#141,.T.);
#89=ORIENTED_EDGE('',*,*,#139,.T.);
#90=ORIENTED_EDGE('',*,*,#135,.F.);
#91=ORIENTED_EDGE('',*,*,#138,.T.);
#92=ORIENTED_EDGE('',*,*,#140,.F.);
#93=ORIENTED_EDGE('',*,*,#141,.F.);
#94=ORIENTED_EDGE('',*,*,#108,.F.);
#95=ORIENTED_EDGE('',*,*,#107,.T.);
#96=ORIENTED_EDGE('',*,*,#115,.T.);
#97=ORIENTED_EDGE('',*,*,#111,.F.);
#98=ORIENTED_EDGE('',*,*,#142,.F.);
#99=ORIENTED_EDGE('',*,*,#125,.T.);
#100=ORIENTED_EDGE('',*,*,#142,.T.);
#101=ORIENTED_EDGE('',*,*,#143,.F.);
#102=ORIENTED_EDGE('',*,*,#124,.T.);
#103=ORIENTED_EDGE('',*,*,#143,.T.);
#104=EDGE_CURVE('',#144,#145,#172,.T.);
#105=EDGE_CURVE('',#145,#146,#173,.T.);
#106=EDGE_CURVE('',#147,#146,#174,.T.);
#107=EDGE_CURVE('',#144,#147,#175,.T.);
#108=EDGE_CURVE('',#144,#148,#176,.T.);
#109=EDGE_CURVE('',#148,#149,#177,.T.);
#110=EDGE_CURVE('',#145,#149,#178,.T.);
#111=EDGE_CURVE('',#148,#150,#179,.T.);
#112=EDGE_CURVE('',#150,#151,#180,.T.);
#113=EDGE_CURVE('',#149,#151,#181,.T.);
#114=EDGE_CURVE('',#146,#151,#182,.T.);
#115=EDGE_CURVE('',#147,#150,#183,.T.);
#116=EDGE_CURVE('',#152,#153,#184,.T.);
#117=EDGE_CURVE('',#154,#152,#185,.T.);
#118=EDGE_CURVE('',#155,#154,#186,.T.);
#119=EDGE_CURVE('',#153,#155,#187,.T.);
#120=EDGE_CURVE('',#156,#157,#16,.T.);
#121=EDGE_CURVE('',#157,#158,#188,.T.);
#122=EDGE_CURVE('',#158,#159,#17,.T.);
#123=EDGE_CURVE('',#156,#159,#189,.T.);
#124=EDGE_CURVE('',#160,#160,#18,.T.);
#125=EDGE_CURVE('',#161,#161,#19,.T.);
#126=EDGE_CURVE('',#162,#163,#190,.T.);
#127=EDGE_CURVE('',#164,#162,#191,.T.);
#128=EDGE_CURVE('',#164,#165,#192,.T.);
#129=EDGE_CURVE('',#165,#163,#193,.T.);
#130=EDGE_CURVE('',#162,#154,#194,.F.);
#131=EDGE_CURVE('',#152,#164,#195,.F.);
#132=EDGE_CURVE('',#153,#165,#196,.F.);
#133=EDGE_CURVE('',#163,#155,#197,.T.);
#134=EDGE_CURVE('',#166,#156,#198,.T.);
#135=EDGE_CURVE('',#166,#167,#20,.T.);
#136=EDGE_CURVE('',#167,#157,#199,.T.);
#137=EDGE_CURVE('',#168,#159,#200,.T.);
#138=EDGE_CURVE('',#166,#168,#201,.T.);
#139=EDGE_CURVE('',#169,#158,#202,.T.);
#140=EDGE_CURVE('',#169,#168,#21,.T.);
#141=EDGE_CURVE('',#167,#169,#203,.T.);
#142=EDGE_CURVE('',#170,#170,#22,.T.);
#143=EDGE_CURVE('',#171,#171,#23,.T.);
#144=VERTEX_POINT('',#453);
#145=VERTEX_POINT('',#454);
#146=VERTEX_POINT('',#456);
#147=VERTEX_POINT('',#458);
#148=VERTEX_POINT('',#462);
#149=VERTEX_POINT('',#464);
#150=VERTEX_POINT('',#468);
#151=VERTEX_POINT('',#470);
#152=VERTEX_POINT('',#477);
#153=VERTEX_POINT('',#478);
#154=VERTEX_POINT('',#480);
#155=VERTEX_POINT('',#482);
#156=VERTEX_POINT('',#485);
#157=VERTEX_POINT('',#486);
#158=VERTEX_POINT('',#488);
#159=VERTEX_POINT('',#490);
#160=VERTEX_POINT('',#494);
#161=VERTEX_POINT('',#496);
#162=VERTEX_POINT('',#498);
#163=VERTEX_POINT('',#499);
#164=VERTEX_POINT('',#501);
#165=VERTEX_POINT('',#503);
#166=VERTEX_POINT('',#515);
#167=VERTEX_POINT('',#517);
#168=VERTEX_POINT('',#521);
#169=VERTEX_POINT('',#525);
#170=VERTEX_POINT('',#532);
#171=VERTEX_POINT('',#536);
#172=LINE('',#452,#204);
#173=LINE('',#455,#205);
#174=LINE('',#457,#206);
#175=LINE('',#459,#207);
#176=LINE('',#461,#208);
#177=LINE('',#463,#209);
#178=LINE('',#465,#210);
#179=LINE('',#467,#211);
#180=LINE('',#469,#212);
#181=LINE('',#471,#213);
#182=LINE('',#473,#214);
#183=LINE('',#474,#215);
#184=LINE('',#476,#216);
#185=LINE('',#479,#217);
#186=LINE('',#481,#218);
#187=LINE('',#483,#219);
#188=LINE('',#487,#220);
#189=LINE('',#491,#221);
#190=LINE('',#497,#222);
#191=LINE('',#500,#223);
#192=LINE('',#502,#224);
#193=LINE('',#504,#225);
#194=LINE('',#506,#226);
#195=LINE('',#507,#227);
#196=LINE('',#509,#228);
#197=LINE('',#511,#229);
#198=LINE('',#514,#230);
#199=LINE('',#518,#231);
#200=LINE('',#520,#232);
#201=LINE('',#522,#233);
#202=LINE('',#524,#234);
#203=LINE('',#528,#235);
#204=VECTOR('',#366,1.);
#205=VECTOR('',#367,1.);
#206=VECTOR('',#368,1.);
#207=VECTOR('',#369,1.);
#208=VECTOR('',#372,1.);
#209=VECTOR('',#373,1.);
#210=VECTOR('',#374,1.);
#211=VECTOR('',#377,1.);
#212=VECTOR('',#378,1.);
#213=VECTOR('',#379,1.);
#214=VECTOR('',#382,1.);
#215=VECTOR('',#383,1.);
#216=VECTOR('',#386,1.);
#217=VECTOR('',#387,1.);
#218=VECTOR('',#388,1.);
#219=VECTOR('',#389,1.);
#220=VECTOR('',#392,1.);
#221=VECTOR('',#395,1.);
#222=VECTOR('',#402,1.);
#223=VECTOR('',#403,1.);
#224=VECTOR('',#404,1.);
#225=VECTOR('',#405,1.);
#226=VECTOR('',#408,1.);
#227=VECTOR('',#409,1.);
#228=VECTOR('',#412,1.);
#229=VECTOR('',#415,1.);
#230=VECTOR('',#420,1.);
#231=VECTOR('',#423,1.);
#232=VECTOR('',#426,1.);
#233=VECTOR('',#427,1.);
#234=VECTOR('',#430,1.);
#235=VECTOR('',#435,1.);
#236=EDGE_LOOP('',(#24,#25,#26,#27));
#237=EDGE_LOOP('',(#28,#29,#30,#31));
#238=EDGE_LOOP('',(#32,#33,#34,#35));
#239=EDGE_LOOP('',(#36,#37,#38,#39));
#240=EDGE_LOOP('',(#40,#41,#42,#43));
#241=EDGE_LOOP('',(#44,#45,#46,#47));
#242=EDGE_LOOP('',(#48));
#243=EDGE_LOOP('',(#49));
#244=EDGE_LOOP('',(#50,#51,#52,#53));
#245=EDGE_LOOP('',(#54,#55,#56,#57));
#246=EDGE_LOOP('',(#58,#59,#60,#61));
#247=EDGE_LOOP('',(#62,#63,#64,#65));
#248=EDGE_LOOP('',(#66,#67,#68,#69));
#249=EDGE_LOOP('',(#70,#71,#72,#73));
#250=EDGE_LOOP('',(#74,#75,#76,#77));
#251=EDGE_LOOP('',(#78,#79,#80,#81));
#252=EDGE_LOOP('',(#82,#83,#84,#85));
#253=EDGE_LOOP('',(#86,#87,#88,#89));
#254=EDGE_LOOP('',(#90,#91,#92,#93));
#255=EDGE_LOOP('',(#94,#95,#96,#97));
#256=EDGE_LOOP('',(#98));
#257=EDGE_LOOP('',(#99));
#258=EDGE_LOOP('',(#100));
#259=EDGE_LOOP('',(#101));
#260=EDGE_LOOP('',(#102));
#261=EDGE_LOOP('',(#103));
#262=FACE_BOUND('',#236,.T.);
#263=FACE_BOUND('',#237,.T.);
#264=FACE_BOUND('',#238,.T.);
#265=FACE_BOUND('',#239,.T.);
#266=FACE_BOUND('',#240,.T.);
#267=FACE_BOUND('',#241,.T.);
#268=FACE_BOUND('',#242,.T.);
#269=FACE_BOUND('',#243,.T.);
#270=FACE_BOUND('',#244,.T.);
#271=FACE_BOUND('',#245,.T.);
#272=FACE_BOUND('',#246,.T.);
#273=FACE_BOUND('',#247,.T.);
#274=FACE_BOUND('',#248,.T.);
#275=FACE_BOUND('',#249,.T.);
#276=FACE_BOUND('',#250,.T.);
#277=FACE_BOUND('',#251,.T.);
#278=FACE_BOUND('',#252,.T.);
#279=FACE_BOUND('',#253,.T.);
#280=FACE_BOUND('',#254,.T.);
#281=FACE_BOUND('',#255,.T.);
#282=FACE_BOUND('',#256,.T.);
#283=FACE_BOUND('',#257,.T.);
#284=FACE_BOUND('',#258,.T.);
#285=FACE_BOUND('',#259,.T.);
#286=FACE_BOUND('',#260,.T.);
#287=FACE_BOUND('',#261,.T.);
#288=PLANE('',#335);
#289=PLANE('',#336);
#290=PLANE('',#337);
#291=PLANE('',#338);
#292=PLANE('',#339);
#293=PLANE('',#342);
#294=PLANE('',#345);
#295=PLANE('',#346);
#296=PLANE('',#347);
#297=PLANE('',#348);
#298=PLANE('',#351);
#299=PLANE('',#354);
#300=PLANE('',#355);
#301=PLANE('',#358);
#302=PLANE('',#361);
#303=ADVANCED_FACE('',(#262),#288,.T.);
#304=ADVANCED_FACE('',(#263),#289,.F.);
#305=ADVANCED_FACE('',(#264),#290,.F.);
#306=ADVANCED_FACE('',(#265),#291,.T.);
#307=ADVANCED_FACE('',(#266,#267),#292,.T.);
#308=ADVANCED_FACE('',(#268,#269,#270,#271),#293,.F.);
#309=ADVANCED_FACE('',(#272),#294,.F.);
#310=ADVANCED_FACE('',(#273),#295,.T.);
#311=ADVANCED_FACE('',(#274),#296,.F.);
#312=ADVANCED_FACE('',(#275),#297,.T.);
#313=ADVANCED_FACE('',(#276),#12,.F.);
#314=ADVANCED_FACE('',(#277),#298,.T.);
#315=ADVANCED_FACE('',(#278),#13,.F.);
#316=ADVANCED_FACE('',(#279),#299,.F.);
#317=ADVANCED_FACE('',(#280,#281),#300,.F.);
#318=ADVANCED_FACE('',(#282,#283),#14,.T.);
#319=ADVANCED_FACE('',(#284),#301,.F.);
#320=ADVANCED_FACE('',(#285,#286),#15,.T.);
#321=ADVANCED_FACE('',(#287),#302,.F.);
#322=CLOSED_SHELL('',(#303,#304,#305,#306,#307,#308,#309,#310,#311,#312,
#313,#314,#315,#316,#317,#318,#319,#320,#321));
#323=STYLED_ITEM('',(#324),#331);
#324=PRESENTATION_STYLE_ASSIGNMENT((#325));
#325=SURFACE_STYLE_USAGE(.BOTH.,#326);
#326=SURFACE_SIDE_STYLE('',(#327));
#327=SURFACE_STYLE_FILL_AREA(#328);
#328=FILL_AREA_STYLE('',(#329));
#329=FILL_AREA_STYLE_COLOUR('',#330);
#330=COLOUR_RGB('',0.682352941176471,0.333333333333334,0.737254901960784);
#331=MANIFOLD_SOLID_BREP('JoystickDecorR',#322);
#332=SHAPE_DEFINITION_REPRESENTATION(#544,#333);
#333=SHAPE_REPRESENTATION('JoystickDecorR',(#334),#539);
#334=AXIS2_PLACEMENT_3D('',#450,#362,#363);
#335=AXIS2_PLACEMENT_3D('',#451,#364,#365);
#336=AXIS2_PLACEMENT_3D('',#460,#370,#371);
#337=AXIS2_PLACEMENT_3D('',#466,#375,#376);
#338=AXIS2_PLACEMENT_3D('',#472,#380,#381);
#339=AXIS2_PLACEMENT_3D('',#475,#384,#385);
#340=AXIS2_PLACEMENT_3D('',#484,#390,#391);
#341=AXIS2_PLACEMENT_3D('',#489,#393,#394);
#342=AXIS2_PLACEMENT_3D('',#492,#396,#397);
#343=AXIS2_PLACEMENT_3D('',#493,#398,#399);
#344=AXIS2_PLACEMENT_3D('',#495,#400,#401);
#345=AXIS2_PLACEMENT_3D('',#505,#406,#407);
#346=AXIS2_PLACEMENT_3D('',#508,#410,#411);
#347=AXIS2_PLACEMENT_3D('',#510,#413,#414);
#348=AXIS2_PLACEMENT_3D('',#512,#416,#417);
#349=AXIS2_PLACEMENT_3D('',#513,#418,#419);
#350=AXIS2_PLACEMENT_3D('',#516,#421,#422);
#351=AXIS2_PLACEMENT_3D('',#519,#424,#425);
#352=AXIS2_PLACEMENT_3D('',#523,#428,#429);
#353=AXIS2_PLACEMENT_3D('',#526,#431,#432);
#354=AXIS2_PLACEMENT_3D('',#527,#433,#434);
#355=AXIS2_PLACEMENT_3D('',#529,#436,#437);
#356=AXIS2_PLACEMENT_3D('',#530,#438,#439);
#357=AXIS2_PLACEMENT_3D('',#531,#440,#441);
#358=AXIS2_PLACEMENT_3D('',#533,#442,#443);
#359=AXIS2_PLACEMENT_3D('',#534,#444,#445);
#360=AXIS2_PLACEMENT_3D('',#535,#446,#447);
#361=AXIS2_PLACEMENT_3D('',#537,#448,#449);
#362=DIRECTION('',(0.,0.,1.));
#363=DIRECTION('',(1.,0.,0.));
#364=DIRECTION('',(1.,-2.0775131448824E-16,0.));
#365=DIRECTION('',(-2.0775131448824E-16,-1.,0.));
#366=DIRECTION('',(0.,0.,-1.));
#367=DIRECTION('',(2.0775131448824E-16,1.,0.));
#368=DIRECTION('',(0.,0.,-1.));
#369=DIRECTION('',(2.0775131448824E-16,1.,0.));
#370=DIRECTION('',(0.,-1.,0.));
#371=DIRECTION('',(0.,0.,-1.));
#372=DIRECTION('',(1.,0.,0.));
#373=DIRECTION('',(0.,0.,-1.));
#374=DIRECTION('',(1.,0.,0.));
#375=DIRECTION('',(1.,-2.0775131448824E-16,0.));
#376=DIRECTION('',(-2.0775131448824E-16,-1.,0.));
#377=DIRECTION('',(2.0775131448824E-16,1.,0.));
#378=DIRECTION('',(0.,0.,-1.));
#379=DIRECTION('',(2.0775131448824E-16,1.,0.));
#380=DIRECTION('',(-1.10491941145019E-16,-1.,0.));
#381=DIRECTION('',(-1.,1.10491941145019E-16,0.));
#382=DIRECTION('',(1.,-1.10491941145019E-16,0.));
#383=DIRECTION('',(1.,-1.10491941145019E-16,0.));
#384=DIRECTION('',(0.,0.,1.));
#385=DIRECTION('',(-1.,0.,0.));
#386=DIRECTION('',(3.05678145546574E-16,1.,0.));
#387=DIRECTION('',(-1.,0.,0.));
#388=DIRECTION('',(-2.2925860915993E-16,-1.,0.));
#389=DIRECTION('',(1.,-1.59882348016295E-16,0.));
#390=DIRECTION('',(0.,0.,-1.));
#391=DIRECTION('',(-1.,0.,0.));
#392=DIRECTION('',(0.,1.,0.));
#393=DIRECTION('',(0.,0.,-1.));
#394=DIRECTION('',(-1.,0.,0.));
#395=DIRECTION('',(0.,1.,0.));
#396=DIRECTION('',(0.,0.,1.));
#397=DIRECTION('',(-1.,0.,0.));
#398=DIRECTION('',(0.,0.,-1.));
#399=DIRECTION('',(-1.,0.,0.));
#400=DIRECTION('',(0.,0.,-1.));
#401=DIRECTION('',(-1.,0.,0.));
#402=DIRECTION('',(2.2925860915993E-16,1.,0.));
#403=DIRECTION('',(1.,0.,0.));
#404=DIRECTION('',(3.05678145546574E-16,1.,0.));
#405=DIRECTION('',(1.,-1.59882348016295E-16,0.));
#406=DIRECTION('',(0.,0.707106781186547,-0.707106781186548));
#407=DIRECTION('',(1.,0.,0.));
#408=DIRECTION('',(0.577350269189626,-0.577350269189626,-0.577350269189626));
#409=DIRECTION('',(0.577350269189626,0.577350269189626,0.577350269189625));
#410=DIRECTION('',(-0.707106781186547,2.16147089576511E-16,0.707106781186548));
#411=DIRECTION('',(-3.05678145546574E-16,-1.,0.));
#412=DIRECTION('',(0.577350269189626,-0.577350269189626,0.577350269189625));
#413=DIRECTION('',(-0.707106781186547,1.62110317182383E-16,-0.707106781186548));
#414=DIRECTION('',(2.2925860915993E-16,1.,0.));
#415=DIRECTION('',(-0.577350269189626,-0.577350269189626,0.577350269189625));
#416=DIRECTION('',(1.1305389247435E-16,0.707106781186547,0.707106781186548));
#417=DIRECTION('',(-1.,1.59882348016295E-16,0.));
#418=DIRECTION('',(0.,0.,1.));
#419=DIRECTION('',(-1.,0.,0.));
#420=DIRECTION('',(0.,0.,1.));
#421=DIRECTION('',(0.,0.,-1.));
#422=DIRECTION('',(-1.,0.,0.));
#423=DIRECTION('',(0.,0.,1.));
#424=DIRECTION('',(-1.,0.,0.));
#425=DIRECTION('',(0.,0.,-1.));
#426=DIRECTION('',(0.,0.,1.));
#427=DIRECTION('',(0.,1.,0.));
#428=DIRECTION('',(0.,0.,1.));
#429=DIRECTION('',(-1.,0.,0.));
#430=DIRECTION('',(0.,0.,1.));
#431=DIRECTION('',(0.,0.,-1.));
#432=DIRECTION('',(-1.,0.,0.));
#433=DIRECTION('',(-1.,0.,0.));
#434=DIRECTION('',(0.,0.,-1.));
#435=DIRECTION('',(0.,1.,0.));
#436=DIRECTION('',(0.,0.,1.));
#437=DIRECTION('',(-1.,0.,0.));
#438=DIRECTION('',(0.,0.,1.));
#439=DIRECTION('',(-1.,0.,0.));
#440=DIRECTION('',(0.,0.,-1.));
#441=DIRECTION('',(-1.,0.,0.));
#442=DIRECTION('',(0.,0.,1.));
#443=DIRECTION('',(-1.,0.,0.));
#444=DIRECTION('',(0.,0.,1.));
#445=DIRECTION('',(-1.,0.,0.));
#446=DIRECTION('',(0.,0.,-1.));
#447=DIRECTION('',(-1.,0.,0.));
#448=DIRECTION('',(0.,0.,1.));
#449=DIRECTION('',(-1.,0.,0.));
#450=CARTESIAN_POINT('',(0.,0.,0.));
#451=CARTESIAN_POINT('',(-0.026,-0.02185,0.004));
#452=CARTESIAN_POINT('',(-0.026,-0.0302,0.004));
#453=CARTESIAN_POINT('',(-0.026,-0.0302,0.0037));
#454=CARTESIAN_POINT('',(-0.026,-0.0302,0.003));
#455=CARTESIAN_POINT('',(-0.026,-0.02185,0.003));
#456=CARTESIAN_POINT('',(-0.026,-0.0135,0.003));
#457=CARTESIAN_POINT('',(-0.026,-0.0135,0.004));
#458=CARTESIAN_POINT('',(-0.026,-0.0135,0.0037));
#459=CARTESIAN_POINT('',(-0.026,-0.02185,0.0037));
#460=CARTESIAN_POINT('',(-0.01815,-0.0302,0.004));
#461=CARTESIAN_POINT('',(-0.01815,-0.0302,0.0037));
#462=CARTESIAN_POINT('',(-0.0103,-0.0302,0.0037));
#463=CARTESIAN_POINT('',(-0.0103,-0.0302,0.004));
#464=CARTESIAN_POINT('',(-0.0103,-0.0302,0.003));
#465=CARTESIAN_POINT('',(-0.01815,-0.0302,0.003));
#466=CARTESIAN_POINT('',(-0.0103,-0.02185,0.004));
#467=CARTESIAN_POINT('',(-0.0103,-0.02185,0.0037));
#468=CARTESIAN_POINT('',(-0.0103,-0.0135,0.0037));
#469=CARTESIAN_POINT('',(-0.0103,-0.0135,0.004));
#470=CARTESIAN_POINT('',(-0.0103,-0.0135,0.003));
#471=CARTESIAN_POINT('',(-0.0103,-0.02185,0.003));
#472=CARTESIAN_POINT('',(-0.01815,-0.0135,0.004));
#473=CARTESIAN_POINT('',(-0.01815,-0.0135,0.003));
#474=CARTESIAN_POINT('',(-0.01815,-0.0135,0.0037));
#475=CARTESIAN_POINT('',(-0.00149999999845992,1.51727241881616E-12,0.004));
#476=CARTESIAN_POINT('',(-0.028,-0.0105,0.004));
#477=CARTESIAN_POINT('',(-0.028,-0.0322,0.004));
#478=CARTESIAN_POINT('',(-0.028,-0.0115,0.004));
#479=CARTESIAN_POINT('',(-0.00149999999845992,-0.0322,0.004));
#480=CARTESIAN_POINT('',(-0.0083,-0.0322,0.004));
#481=CARTESIAN_POINT('',(-0.0083,1.5172739777747E-12,0.004));
#482=CARTESIAN_POINT('',(-0.0083,-0.0115,0.004));
#483=CARTESIAN_POINT('',(-0.0073,-0.0115,0.004));
#484=CARTESIAN_POINT('',(-0.01815,-0.02185,0.004));
#485=CARTESIAN_POINT('',(-0.0113,-0.0245145825188949,0.004));
#486=CARTESIAN_POINT('',(-0.025,-0.0245145825188949,0.004));
#487=CARTESIAN_POINT('',(-0.025,-0.02185,0.004));
#488=CARTESIAN_POINT('',(-0.025,-0.0191854174811052,0.004));
#489=CARTESIAN_POINT('',(-0.01815,-0.02185,0.004));
#490=CARTESIAN_POINT('',(-0.0113,-0.0191854174811052,0.004));
#491=CARTESIAN_POINT('',(-0.0113,-0.02185,0.004));
#492=CARTESIAN_POINT('',(-0.00149999999845992,1.51727241881616E-12,0.003));
#493=CARTESIAN_POINT('',(-0.0088,-0.012,0.003));
#494=CARTESIAN_POINT('',(-0.0098,-0.012,0.003));
#495=CARTESIAN_POINT('',(-0.0275,-0.0317,0.003));
#496=CARTESIAN_POINT('',(-0.0285,-0.0317,0.003));
#497=CARTESIAN_POINT('',(-0.0073,-0.02185,0.003));
#498=CARTESIAN_POINT('',(-0.0073,-0.0332,0.003));
#499=CARTESIAN_POINT('',(-0.0073,-0.0105,0.003));
#500=CARTESIAN_POINT('',(-0.01815,-0.0332,0.003));
#501=CARTESIAN_POINT('',(-0.029,-0.0332,0.003));
#502=CARTESIAN_POINT('',(-0.029,-0.02185,0.003));
#503=CARTESIAN_POINT('',(-0.029,-0.0105,0.003));
#504=CARTESIAN_POINT('',(-0.01815,-0.0105,0.003));
#505=CARTESIAN_POINT('',(-0.01815,-0.0332,0.003));
#506=CARTESIAN_POINT('',(-0.0109166666666667,-0.0295833333333334,0.00661666666666667));
#507=CARTESIAN_POINT('',(-0.0172666666661609,-0.0214666666661609,0.0147333333338391));
#508=CARTESIAN_POINT('',(-0.028,1.51728051928702E-12,0.004));
#509=CARTESIAN_POINT('',(-0.0318333333338391,-0.0076666666661609,0.000166666666160906));
#510=CARTESIAN_POINT('',(-0.0073,-0.02185,0.003));
#511=CARTESIAN_POINT('',(-0.0110833333333333,-0.0142833333333333,0.00678333333333333));
#512=CARTESIAN_POINT('',(-0.00149999999845993,-0.0115,0.004));
#513=CARTESIAN_POINT('',(-0.01815,-0.02185,0.0037));
#514=CARTESIAN_POINT('',(-0.0113,-0.0245145825188949,0.0037));
#515=CARTESIAN_POINT('',(-0.0113,-0.0245145825188949,0.0037));
#516=CARTESIAN_POINT('',(-0.01815,-0.02185,0.0037));
#517=CARTESIAN_POINT('',(-0.025,-0.0245145825188949,0.0037));
#518=CARTESIAN_POINT('',(-0.025,-0.0245145825188949,0.0037));
#519=CARTESIAN_POINT('',(-0.0113,-0.02185,0.0037));
#520=CARTESIAN_POINT('',(-0.0113,-0.0191854174811052,0.0037));
#521=CARTESIAN_POINT('',(-0.0113,-0.0191854174811052,0.0037));
#522=CARTESIAN_POINT('',(-0.0113,-0.02185,0.0037));
#523=CARTESIAN_POINT('',(-0.01815,-0.02185,0.0037));
#524=CARTESIAN_POINT('',(-0.025,-0.0191854174811052,0.0037));
#525=CARTESIAN_POINT('',(-0.025,-0.0191854174811052,0.0037));
#526=CARTESIAN_POINT('',(-0.01815,-0.02185,0.0037));
#527=CARTESIAN_POINT('',(-0.025,-0.02185,0.0037));
#528=CARTESIAN_POINT('',(-0.025,-0.02185,0.0037));
#529=CARTESIAN_POINT('',(-0.01815,-0.02185,0.0037));
#530=CARTESIAN_POINT('',(-0.0275,-0.0317,0.001));
#531=CARTESIAN_POINT('',(-0.0275,-0.0317,0.001));
#532=CARTESIAN_POINT('',(-0.0285,-0.0317,0.001));
#533=CARTESIAN_POINT('',(-0.00149999999845992,1.51727241881616E-12,0.001));
#534=CARTESIAN_POINT('',(-0.0088,-0.012,0.001));
#535=CARTESIAN_POINT('',(-0.0088,-0.012,0.001));
#536=CARTESIAN_POINT('',(-0.0098,-0.012,0.001));
#537=CARTESIAN_POINT('',(-0.00149999999845992,1.51727241881616E-12,0.001));
#538=MECHANICAL_DESIGN_GEOMETRIC_PRESENTATION_REPRESENTATION('',(#323),
#539);
#539=(
GEOMETRIC_REPRESENTATION_CONTEXT(3)
GLOBAL_UNCERTAINTY_ASSIGNED_CONTEXT((#540))
GLOBAL_UNIT_ASSIGNED_CONTEXT((#543,#542,#541))
REPRESENTATION_CONTEXT('JoystickDecorR','TOP_LEVEL_ASSEMBLY_PART')
);
#540=UNCERTAINTY_MEASURE_WITH_UNIT(LENGTH_MEASURE(1.E-8),#543,
'DISTANCE_ACCURACY_VALUE','Maximum Tolerance applied to model');
#541=(
NAMED_UNIT(*)
SI_UNIT($,.STERADIAN.)
SOLID_ANGLE_UNIT()
);
#542=(
NAMED_UNIT(*)
PLANE_ANGLE_UNIT()
SI_UNIT($,.RADIAN.)
);
#543=(
LENGTH_UNIT()
NAMED_UNIT(*)
SI_UNIT($,.METRE.)
);
#544=PRODUCT_DEFINITION_SHAPE('','',#545);
#545=PRODUCT_DEFINITION('','',#547,#546);
#546=PRODUCT_DEFINITION_CONTEXT('',#553,'design');
#547=PRODUCT_DEFINITION_FORMATION_WITH_SPECIFIED_SOURCE('','',#549,
 .NOT_KNOWN.);
#548=PRODUCT_RELATED_PRODUCT_CATEGORY('','',(#549));
#549=PRODUCT('JoystickDecorR','JoystickDecorR','JoystickDecorR',(#551));
#550=PRODUCT_CATEGORY('','');
#551=PRODUCT_CONTEXT('',#553,'mechanical');
#552=APPLICATION_PROTOCOL_DEFINITION('international standard',
'ap242_managed_model_based_3d_engineering',2020,#553);
#553=APPLICATION_CONTEXT('managed model based 3d engineering');
ENDSEC;
END-ISO-10303-21;
