ISO-10303-21;
HEADER;
/* Generated by software containing ST-Developer
 * from STEP Tools, Inc. (www.steptools.com) 
 */
/* OPTION: using custom renumber hook */

FILE_DESCRIPTION(
/* description */ ('STEP AP242 Edition 2',
'CAx-IF Rec.Pracs.---Representation and Presentation of Product Manufa
cturing Information (PMI)---4.0---2014-10-13',
'CAx-IF Rec.Pracs.---3D Tessellated Geometry---0.4---2014-09-14','2;1',
'CAx-IF Rec.Pracs.---User Defined Attributes---1.5---2016-08-15'),
/* implementation_level */ '2;1');

FILE_NAME(
/* name */ 'CompleteShell - BatteryCoverR',
/* time_stamp */ '2026-09-23T14:41:01Z',
/* author */ (''),
/* organization */ (''),
/* preprocessor_version */ 'ST-DEVELOPER v20',
/* originating_system */ 'ONSHAPE BY PTC INC, 1.221',
/* authorisation */ '  ');

FILE_SCHEMA (('AP242_MANAGED_MODEL_BASED_3D_ENGINEERING_MIM_LF { 1 0 10303 442 3 1 4 }'));
ENDSEC;

DATA;
#10=SHAPE_REPRESENTATION_RELATIONSHIP('','',#527,#11);
#11=ADVANCED_BREP_SHAPE_REPRESENTATION('',(#525),#845);
#12=CYLINDRICAL_SURFACE('',#546,0.0011);
#13=CYLINDRICAL_SURFACE('',#559,0.0095);
#14=CYLINDRICAL_SURFACE('',#560,0.0095);
#15=CYLINDRICAL_SURFACE('',#563,0.0095);
#16=CIRCLE('',#532,0.0011);
#17=CIRCLE('',#541,0.0095);
#18=CIRCLE('',#544,0.0095);
#19=CIRCLE('',#547,0.0011);
#20=CIRCLE('',#550,0.0095);
#21=CIRCLE('',#552,0.0095);
#22=CIRCLE('',#555,0.0095);
#23=CIRCLE('',#558,0.0095);
#24=CIRCLE('',#562,0.0095);
#25=ORIENTED_EDGE('',*,*,#167,.F.);
#26=ORIENTED_EDGE('',*,*,#168,.F.);
#27=ORIENTED_EDGE('',*,*,#169,.T.);
#28=ORIENTED_EDGE('',*,*,#170,.T.);
#29=ORIENTED_EDGE('',*,*,#171,.F.);
#30=ORIENTED_EDGE('',*,*,#172,.F.);
#31=ORIENTED_EDGE('',*,*,#173,.F.);
#32=ORIENTED_EDGE('',*,*,#174,.F.);
#33=ORIENTED_EDGE('',*,*,#175,.T.);
#34=ORIENTED_EDGE('',*,*,#176,.F.);
#35=ORIENTED_EDGE('',*,*,#177,.F.);
#36=ORIENTED_EDGE('',*,*,#178,.T.);
#37=ORIENTED_EDGE('',*,*,#179,.T.);
#38=ORIENTED_EDGE('',*,*,#180,.F.);
#39=ORIENTED_EDGE('',*,*,#172,.T.);
#40=ORIENTED_EDGE('',*,*,#181,.F.);
#41=ORIENTED_EDGE('',*,*,#182,.F.);
#42=ORIENTED_EDGE('',*,*,#183,.T.);
#43=ORIENTED_EDGE('',*,*,#184,.T.);
#44=ORIENTED_EDGE('',*,*,#185,.T.);
#45=ORIENTED_EDGE('',*,*,#186,.F.);
#46=ORIENTED_EDGE('',*,*,#187,.F.);
#47=ORIENTED_EDGE('',*,*,#188,.F.);
#48=ORIENTED_EDGE('',*,*,#189,.F.);
#49=ORIENTED_EDGE('',*,*,#190,.T.);
#50=ORIENTED_EDGE('',*,*,#191,.F.);
#51=ORIENTED_EDGE('',*,*,#192,.T.);
#52=ORIENTED_EDGE('',*,*,#186,.T.);
#53=ORIENTED_EDGE('',*,*,#193,.F.);
#54=ORIENTED_EDGE('',*,*,#194,.F.);
#55=ORIENTED_EDGE('',*,*,#195,.T.);
#56=ORIENTED_EDGE('',*,*,#196,.T.);
#57=ORIENTED_EDGE('',*,*,#175,.F.);
#58=ORIENTED_EDGE('',*,*,#197,.F.);
#59=ORIENTED_EDGE('',*,*,#198,.T.);
#60=ORIENTED_EDGE('',*,*,#199,.F.);
#61=ORIENTED_EDGE('',*,*,#200,.T.);
#62=ORIENTED_EDGE('',*,*,#201,.T.);
#63=ORIENTED_EDGE('',*,*,#202,.F.);
#64=ORIENTED_EDGE('',*,*,#203,.T.);
#65=ORIENTED_EDGE('',*,*,#204,.T.);
#66=ORIENTED_EDGE('',*,*,#205,.F.);
#67=ORIENTED_EDGE('',*,*,#206,.T.);
#68=ORIENTED_EDGE('',*,*,#207,.T.);
#69=ORIENTED_EDGE('',*,*,#208,.F.);
#70=ORIENTED_EDGE('',*,*,#183,.F.);
#71=ORIENTED_EDGE('',*,*,#209,.T.);
#72=ORIENTED_EDGE('',*,*,#210,.F.);
#73=ORIENTED_EDGE('',*,*,#209,.F.);
#74=ORIENTED_EDGE('',*,*,#182,.T.);
#75=ORIENTED_EDGE('',*,*,#211,.T.);
#76=ORIENTED_EDGE('',*,*,#212,.F.);
#77=ORIENTED_EDGE('',*,*,#211,.F.);
#78=ORIENTED_EDGE('',*,*,#181,.T.);
#79=ORIENTED_EDGE('',*,*,#171,.T.);
#80=ORIENTED_EDGE('',*,*,#213,.F.);
#81=ORIENTED_EDGE('',*,*,#178,.F.);
#82=ORIENTED_EDGE('',*,*,#214,.T.);
#83=ORIENTED_EDGE('',*,*,#215,.T.);
#84=ORIENTED_EDGE('',*,*,#169,.F.);
#85=ORIENTED_EDGE('',*,*,#216,.F.);
#86=ORIENTED_EDGE('',*,*,#214,.F.);
#87=ORIENTED_EDGE('',*,*,#177,.T.);
#88=ORIENTED_EDGE('',*,*,#217,.F.);
#89=ORIENTED_EDGE('',*,*,#202,.T.);
#90=ORIENTED_EDGE('',*,*,#218,.T.);
#91=ORIENTED_EDGE('',*,*,#219,.F.);
#92=ORIENTED_EDGE('',*,*,#220,.T.);
#93=ORIENTED_EDGE('',*,*,#174,.T.);
#94=ORIENTED_EDGE('',*,*,#221,.T.);
#95=ORIENTED_EDGE('',*,*,#187,.T.);
#96=ORIENTED_EDGE('',*,*,#192,.F.);
#97=ORIENTED_EDGE('',*,*,#222,.F.);
#98=ORIENTED_EDGE('',*,*,#223,.T.);
#99=ORIENTED_EDGE('',*,*,#224,.F.);
#100=ORIENTED_EDGE('',*,*,#220,.F.);
#101=ORIENTED_EDGE('',*,*,#225,.F.);
#102=ORIENTED_EDGE('',*,*,#197,.T.);
#103=ORIENTED_EDGE('',*,*,#226,.T.);
#104=ORIENTED_EDGE('',*,*,#223,.F.);
#105=ORIENTED_EDGE('',*,*,#227,.T.);
#106=ORIENTED_EDGE('',*,*,#228,.F.);
#107=ORIENTED_EDGE('',*,*,#206,.F.);
#108=ORIENTED_EDGE('',*,*,#229,.T.);
#109=ORIENTED_EDGE('',*,*,#184,.F.);
#110=ORIENTED_EDGE('',*,*,#208,.T.);
#111=ORIENTED_EDGE('',*,*,#179,.F.);
#112=ORIENTED_EDGE('',*,*,#230,.T.);
#113=ORIENTED_EDGE('',*,*,#207,.F.);
#114=ORIENTED_EDGE('',*,*,#210,.T.);
#115=ORIENTED_EDGE('',*,*,#212,.T.);
#116=ORIENTED_EDGE('',*,*,#170,.F.);
#117=ORIENTED_EDGE('',*,*,#215,.F.);
#118=ORIENTED_EDGE('',*,*,#216,.T.);
#119=ORIENTED_EDGE('',*,*,#224,.T.);
#120=ORIENTED_EDGE('',*,*,#226,.F.);
#121=ORIENTED_EDGE('',*,*,#230,.F.);
#122=ORIENTED_EDGE('',*,*,#205,.T.);
#123=ORIENTED_EDGE('',*,*,#231,.T.);
#124=ORIENTED_EDGE('',*,*,#193,.T.);
#125=ORIENTED_EDGE('',*,*,#185,.F.);
#126=ORIENTED_EDGE('',*,*,#229,.F.);
#127=ORIENTED_EDGE('',*,*,#232,.F.);
#128=ORIENTED_EDGE('',*,*,#199,.T.);
#129=ORIENTED_EDGE('',*,*,#217,.T.);
#130=ORIENTED_EDGE('',*,*,#176,.T.);
#131=ORIENTED_EDGE('',*,*,#196,.F.);
#132=ORIENTED_EDGE('',*,*,#198,.F.);
#133=ORIENTED_EDGE('',*,*,#225,.T.);
#134=ORIENTED_EDGE('',*,*,#219,.T.);
#135=ORIENTED_EDGE('',*,*,#233,.F.);
#136=ORIENTED_EDGE('',*,*,#234,.F.);
#137=ORIENTED_EDGE('',*,*,#194,.T.);
#138=ORIENTED_EDGE('',*,*,#233,.T.);
#139=ORIENTED_EDGE('',*,*,#218,.F.);
#140=ORIENTED_EDGE('',*,*,#201,.F.);
#141=ORIENTED_EDGE('',*,*,#227,.F.);
#142=ORIENTED_EDGE('',*,*,#222,.T.);
#143=ORIENTED_EDGE('',*,*,#191,.T.);
#144=ORIENTED_EDGE('',*,*,#235,.F.);
#145=ORIENTED_EDGE('',*,*,#236,.F.);
#146=ORIENTED_EDGE('',*,*,#203,.F.);
#147=ORIENTED_EDGE('',*,*,#228,.T.);
#148=ORIENTED_EDGE('',*,*,#235,.T.);
#149=ORIENTED_EDGE('',*,*,#190,.F.);
#150=ORIENTED_EDGE('',*,*,#189,.T.);
#151=ORIENTED_EDGE('',*,*,#231,.F.);
#152=ORIENTED_EDGE('',*,*,#204,.F.);
#153=ORIENTED_EDGE('',*,*,#236,.T.);
#154=ORIENTED_EDGE('',*,*,#232,.T.);
#155=ORIENTED_EDGE('',*,*,#195,.F.);
#156=ORIENTED_EDGE('',*,*,#234,.T.);
#157=ORIENTED_EDGE('',*,*,#200,.F.);
#158=ORIENTED_EDGE('',*,*,#167,.T.);
#159=ORIENTED_EDGE('',*,*,#180,.T.);
#160=ORIENTED_EDGE('',*,*,#237,.T.);
#161=ORIENTED_EDGE('',*,*,#168,.T.);
#162=ORIENTED_EDGE('',*,*,#237,.F.);
#163=ORIENTED_EDGE('',*,*,#188,.T.);
#164=ORIENTED_EDGE('',*,*,#221,.F.);
#165=ORIENTED_EDGE('',*,*,#173,.T.);
#166=ORIENTED_EDGE('',*,*,#213,.T.);
#167=EDGE_CURVE('',#238,#239,#286,.T.);
#168=EDGE_CURVE('',#240,#238,#287,.F.);
#169=EDGE_CURVE('',#240,#241,#288,.T.);
#170=EDGE_CURVE('',#241,#242,#289,.T.);
#171=EDGE_CURVE('',#243,#242,#290,.T.);
#172=EDGE_CURVE('',#239,#243,#291,.T.);
#173=EDGE_CURVE('',#244,#245,#292,.F.);
#174=EDGE_CURVE('',#246,#244,#293,.T.);
#175=EDGE_CURVE('',#246,#247,#294,.T.);
#176=EDGE_CURVE('',#248,#247,#295,.T.);
#177=EDGE_CURVE('',#249,#248,#296,.T.);
#178=EDGE_CURVE('',#249,#245,#297,.T.);
#179=EDGE_CURVE('',#250,#250,#16,.T.);
#180=EDGE_CURVE('',#239,#251,#298,.T.);
#181=EDGE_CURVE('',#252,#243,#299,.T.);
#182=EDGE_CURVE('',#253,#252,#300,.T.);
#183=EDGE_CURVE('',#253,#254,#301,.T.);
#184=EDGE_CURVE('',#254,#255,#302,.T.);
#185=EDGE_CURVE('',#255,#256,#303,.T.);
#186=EDGE_CURVE('',#257,#256,#304,.T.);
#187=EDGE_CURVE('',#258,#257,#305,.T.);
#188=EDGE_CURVE('',#251,#258,#306,.T.);
#189=EDGE_CURVE('',#259,#260,#307,.F.);
#190=EDGE_CURVE('',#259,#261,#308,.T.);
#191=EDGE_CURVE('',#262,#261,#309,.T.);
#192=EDGE_CURVE('',#262,#257,#310,.T.);
#193=EDGE_CURVE('',#260,#256,#311,.T.);
#194=EDGE_CURVE('',#263,#264,#312,.T.);
#195=EDGE_CURVE('',#263,#265,#313,.F.);
#196=EDGE_CURVE('',#265,#247,#314,.T.);
#197=EDGE_CURVE('',#266,#246,#315,.T.);
#198=EDGE_CURVE('',#266,#264,#316,.T.);
#199=EDGE_CURVE('',#267,#268,#317,.T.);
#200=EDGE_CURVE('',#267,#269,#318,.T.);
#201=EDGE_CURVE('',#269,#270,#319,.T.);
#202=EDGE_CURVE('',#268,#270,#320,.T.);
#203=EDGE_CURVE('',#271,#272,#321,.T.);
#204=EDGE_CURVE('',#272,#273,#322,.F.);
#205=EDGE_CURVE('',#274,#273,#323,.T.);
#206=EDGE_CURVE('',#274,#271,#324,.T.);
#207=EDGE_CURVE('',#275,#276,#325,.T.);
#208=EDGE_CURVE('',#254,#276,#326,.T.);
#209=EDGE_CURVE('',#253,#275,#327,.T.);
#210=EDGE_CURVE('',#275,#277,#328,.T.);
#211=EDGE_CURVE('',#252,#277,#329,.T.);
#212=EDGE_CURVE('',#277,#242,#330,.T.);
#213=EDGE_CURVE('',#245,#240,#17,.F.);
#214=EDGE_CURVE('',#249,#278,#331,.T.);
#215=EDGE_CURVE('',#278,#241,#332,.T.);
#216=EDGE_CURVE('',#278,#279,#333,.T.);
#217=EDGE_CURVE('',#268,#248,#334,.T.);
#218=EDGE_CURVE('',#270,#280,#335,.T.);
#219=EDGE_CURVE('',#281,#280,#336,.T.);
#220=EDGE_CURVE('',#281,#279,#337,.T.);
#221=EDGE_CURVE('',#244,#258,#18,.F.);
#222=EDGE_CURVE('',#282,#262,#338,.T.);
#223=EDGE_CURVE('',#282,#283,#339,.T.);
#224=EDGE_CURVE('',#279,#283,#340,.T.);
#225=EDGE_CURVE('',#266,#281,#341,.T.);
#226=EDGE_CURVE('',#276,#283,#342,.T.);
#227=EDGE_CURVE('',#282,#284,#343,.T.);
#228=EDGE_CURVE('',#271,#284,#344,.T.);
#229=EDGE_CURVE('',#274,#255,#345,.T.);
#230=EDGE_CURVE('',#285,#285,#19,.T.);
#231=EDGE_CURVE('',#273,#260,#20,.F.);
#232=EDGE_CURVE('',#267,#265,#21,.F.);
#233=EDGE_CURVE('',#264,#280,#346,.T.);
#234=EDGE_CURVE('',#263,#269,#22,.F.);
#235=EDGE_CURVE('',#284,#261,#347,.T.);
#236=EDGE_CURVE('',#272,#259,#23,.F.);
#237=EDGE_CURVE('',#251,#238,#24,.T.);
#238=VERTEX_POINT('',#701);
#239=VERTEX_POINT('',#702);
#240=VERTEX_POINT('',#704);
#241=VERTEX_POINT('',#706);
#242=VERTEX_POINT('',#708);
#243=VERTEX_POINT('',#710);
#244=VERTEX_POINT('',#714);
#245=VERTEX_POINT('',#715);
#246=VERTEX_POINT('',#717);
#247=VERTEX_POINT('',#719);
#248=VERTEX_POINT('',#721);
#249=VERTEX_POINT('',#723);
#250=VERTEX_POINT('',#727);
#251=VERTEX_POINT('',#729);
#252=VERTEX_POINT('',#731);
#253=VERTEX_POINT('',#733);
#254=VERTEX_POINT('',#735);
#255=VERTEX_POINT('',#737);
#256=VERTEX_POINT('',#739);
#257=VERTEX_POINT('',#741);
#258=VERTEX_POINT('',#743);
#259=VERTEX_POINT('',#747);
#260=VERTEX_POINT('',#748);
#261=VERTEX_POINT('',#750);
#262=VERTEX_POINT('',#752);
#263=VERTEX_POINT('',#757);
#264=VERTEX_POINT('',#758);
#265=VERTEX_POINT('',#760);
#266=VERTEX_POINT('',#763);
#267=VERTEX_POINT('',#767);
#268=VERTEX_POINT('',#768);
#269=VERTEX_POINT('',#770);
#270=VERTEX_POINT('',#772);
#271=VERTEX_POINT('',#776);
#272=VERTEX_POINT('',#777);
#273=VERTEX_POINT('',#779);
#274=VERTEX_POINT('',#781);
#275=VERTEX_POINT('',#785);
#276=VERTEX_POINT('',#786);
#277=VERTEX_POINT('',#791);
#278=VERTEX_POINT('',#798);
#279=VERTEX_POINT('',#802);
#280=VERTEX_POINT('',#805);
#281=VERTEX_POINT('',#807);
#282=VERTEX_POINT('',#812);
#283=VERTEX_POINT('',#814);
#284=VERTEX_POINT('',#820);
#285=VERTEX_POINT('',#825);
#286=LINE('',#700,#348);
#287=LINE('',#703,#349);
#288=LINE('',#705,#350);
#289=LINE('',#707,#351);
#290=LINE('',#709,#352);
#291=LINE('',#711,#353);
#292=LINE('',#713,#354);
#293=LINE('',#716,#355);
#294=LINE('',#718,#356);
#295=LINE('',#720,#357);
#296=LINE('',#722,#358);
#297=LINE('',#724,#359);
#298=LINE('',#728,#360);
#299=LINE('',#730,#361);
#300=LINE('',#732,#362);
#301=LINE('',#734,#363);
#302=LINE('',#736,#364);
#303=LINE('',#738,#365);
#304=LINE('',#740,#366);
#305=LINE('',#742,#367);
#306=LINE('',#744,#368);
#307=LINE('',#746,#369);
#308=LINE('',#749,#370);
#309=LINE('',#751,#371);
#310=LINE('',#753,#372);
#311=LINE('',#754,#373);
#312=LINE('',#756,#374);
#313=LINE('',#759,#375);
#314=LINE('',#761,#376);
#315=LINE('',#762,#377);
#316=LINE('',#764,#378);
#317=LINE('',#766,#379);
#318=LINE('',#769,#380);
#319=LINE('',#771,#381);
#320=LINE('',#773,#382);
#321=LINE('',#775,#383);
#322=LINE('',#778,#384);
#323=LINE('',#780,#385);
#324=LINE('',#782,#386);
#325=LINE('',#784,#387);
#326=LINE('',#787,#388);
#327=LINE('',#788,#389);
#328=LINE('',#790,#390);
#329=LINE('',#792,#391);
#330=LINE('',#794,#392);
#331=LINE('',#797,#393);
#332=LINE('',#799,#394);
#333=LINE('',#801,#395);
#334=LINE('',#803,#396);
#335=LINE('',#804,#397);
#336=LINE('',#806,#398);
#337=LINE('',#808,#399);
#338=LINE('',#811,#400);
#339=LINE('',#813,#401);
#340=LINE('',#815,#402);
#341=LINE('',#816,#403);
#342=LINE('',#818,#404);
#343=LINE('',#819,#405);
#344=LINE('',#821,#406);
#345=LINE('',#822,#407);
#346=LINE('',#832,#408);
#347=LINE('',#836,#409);
#348=VECTOR('',#568,1.);
#349=VECTOR('',#569,1.);
#350=VECTOR('',#570,1.);
#351=VECTOR('',#571,1.);
#352=VECTOR('',#572,1.);
#353=VECTOR('',#573,1.);
#354=VECTOR('',#576,1.);
#355=VECTOR('',#577,1.);
#356=VECTOR('',#578,1.);
#357=VECTOR('',#579,1.);
#358=VECTOR('',#580,1.);
#359=VECTOR('',#581,1.);
#360=VECTOR('',#586,1.);
#361=VECTOR('',#587,1.);
#362=VECTOR('',#588,1.);
#363=VECTOR('',#589,1.);
#364=VECTOR('',#590,1.);
#365=VECTOR('',#591,1.);
#366=VECTOR('',#592,1.);
#367=VECTOR('',#593,1.);
#368=VECTOR('',#594,1.);
#369=VECTOR('',#597,1.);
#370=VECTOR('',#598,1.);
#371=VECTOR('',#599,1.);
#372=VECTOR('',#600,1.);
#373=VECTOR('',#601,1.);
#374=VECTOR('',#604,1.);
#375=VECTOR('',#605,1.);
#376=VECTOR('',#606,1.);
#377=VECTOR('',#607,1.);
#378=VECTOR('',#608,1.);
#379=VECTOR('',#611,1.);
#380=VECTOR('',#612,1.);
#381=VECTOR('',#613,1.);
#382=VECTOR('',#614,1.);
#383=VECTOR('',#617,1.);
#384=VECTOR('',#618,1.);
#385=VECTOR('',#619,1.);
#386=VECTOR('',#620,1.);
#387=VECTOR('',#623,1.);
#388=VECTOR('',#624,1.);
#389=VECTOR('',#625,1.);
#390=VECTOR('',#628,1.);
#391=VECTOR('',#629,1.);
#392=VECTOR('',#632,1.);
#393=VECTOR('',#637,1.);
#394=VECTOR('',#638,1.);
#395=VECTOR('',#641,1.);
#396=VECTOR('',#642,1.);
#397=VECTOR('',#643,1.);
#398=VECTOR('',#644,1.);
#399=VECTOR('',#645,1.);
#400=VECTOR('',#650,1.);
#401=VECTOR('',#651,1.);
#402=VECTOR('',#652,1.);
#403=VECTOR('',#653,1.);
#404=VECTOR('',#656,1.);
#405=VECTOR('',#657,1.);
#406=VECTOR('',#658,1.);
#407=VECTOR('',#659,1.);
#408=VECTOR('',#676,1.);
#409=VECTOR('',#683,1.);
#410=EDGE_LOOP('',(#25,#26,#27,#28,#29,#30));
#411=EDGE_LOOP('',(#31,#32,#33,#34,#35,#36));
#412=EDGE_LOOP('',(#37));
#413=EDGE_LOOP('',(#38,#39,#40,#41,#42,#43,#44,#45,#46,#47));
#414=EDGE_LOOP('',(#48,#49,#50,#51,#52,#53));
#415=EDGE_LOOP('',(#54,#55,#56,#57,#58,#59));
#416=EDGE_LOOP('',(#60,#61,#62,#63));
#417=EDGE_LOOP('',(#64,#65,#66,#67));
#418=EDGE_LOOP('',(#68,#69,#70,#71));
#419=EDGE_LOOP('',(#72,#73,#74,#75));
#420=EDGE_LOOP('',(#76,#77,#78,#79));
#421=EDGE_LOOP('',(#80,#81,#82,#83,#84));
#422=EDGE_LOOP('',(#85,#86,#87,#88,#89,#90,#91,#92));
#423=EDGE_LOOP('',(#93,#94,#95,#96,#97,#98,#99,#100,#101,#102));
#424=EDGE_LOOP('',(#103,#104,#105,#106,#107,#108,#109,#110));
#425=EDGE_LOOP('',(#111));
#426=EDGE_LOOP('',(#112));
#427=EDGE_LOOP('',(#113,#114,#115,#116,#117,#118,#119,#120));
#428=EDGE_LOOP('',(#121));
#429=EDGE_LOOP('',(#122,#123,#124,#125,#126));
#430=EDGE_LOOP('',(#127,#128,#129,#130,#131));
#431=EDGE_LOOP('',(#132,#133,#134,#135));
#432=EDGE_LOOP('',(#136,#137,#138,#139,#140));
#433=EDGE_LOOP('',(#141,#142,#143,#144));
#434=EDGE_LOOP('',(#145,#146,#147,#148,#149));
#435=EDGE_LOOP('',(#150,#151,#152,#153));
#436=EDGE_LOOP('',(#154,#155,#156,#157));
#437=EDGE_LOOP('',(#158,#159,#160));
#438=EDGE_LOOP('',(#161,#162,#163,#164,#165,#166));
#439=FACE_BOUND('',#410,.T.);
#440=FACE_BOUND('',#411,.T.);
#441=FACE_BOUND('',#412,.T.);
#442=FACE_BOUND('',#413,.T.);
#443=FACE_BOUND('',#414,.T.);
#444=FACE_BOUND('',#415,.T.);
#445=FACE_BOUND('',#416,.T.);
#446=FACE_BOUND('',#417,.T.);
#447=FACE_BOUND('',#418,.T.);
#448=FACE_BOUND('',#419,.T.);
#449=FACE_BOUND('',#420,.T.);
#450=FACE_BOUND('',#421,.T.);
#451=FACE_BOUND('',#422,.T.);
#452=FACE_BOUND('',#423,.T.);
#453=FACE_BOUND('',#424,.T.);
#454=FACE_BOUND('',#425,.T.);
#455=FACE_BOUND('',#426,.T.);
#456=FACE_BOUND('',#427,.T.);
#457=FACE_BOUND('',#428,.T.);
#458=FACE_BOUND('',#429,.T.);
#459=FACE_BOUND('',#430,.T.);
#460=FACE_BOUND('',#431,.T.);
#461=FACE_BOUND('',#432,.T.);
#462=FACE_BOUND('',#433,.T.);
#463=FACE_BOUND('',#434,.T.);
#464=FACE_BOUND('',#435,.T.);
#465=FACE_BOUND('',#436,.T.);
#466=FACE_BOUND('',#437,.T.);
#467=FACE_BOUND('',#438,.T.);
#468=PLANE('',#529);
#469=PLANE('',#530);
#470=PLANE('',#531);
#471=PLANE('',#533);
#472=PLANE('',#534);
#473=PLANE('',#535);
#474=PLANE('',#536);
#475=PLANE('',#537);
#476=PLANE('',#538);
#477=PLANE('',#539);
#478=PLANE('',#540);
#479=PLANE('',#542);
#480=PLANE('',#543);
#481=PLANE('',#545);
#482=PLANE('',#548);
#483=PLANE('',#549);
#484=PLANE('',#551);
#485=PLANE('',#553);
#486=PLANE('',#554);
#487=PLANE('',#556);
#488=PLANE('',#557);
#489=PLANE('',#561);
#490=ADVANCED_FACE('',(#439),#468,.F.);
#491=ADVANCED_FACE('',(#440),#469,.F.);
#492=ADVANCED_FACE('',(#441,#442),#470,.F.);
#493=ADVANCED_FACE('',(#443),#471,.F.);
#494=ADVANCED_FACE('',(#444),#472,.T.);
#495=ADVANCED_FACE('',(#445),#473,.T.);
#496=ADVANCED_FACE('',(#446),#474,.T.);
#497=ADVANCED_FACE('',(#447),#475,.F.);
#498=ADVANCED_FACE('',(#448),#476,.T.);
#499=ADVANCED_FACE('',(#449),#477,.T.);
#500=ADVANCED_FACE('',(#450),#478,.F.);
#501=ADVANCED_FACE('',(#451),#479,.T.);
#502=ADVANCED_FACE('',(#452),#480,.T.);
#503=ADVANCED_FACE('',(#453),#481,.F.);
#504=ADVANCED_FACE('',(#454,#455),#12,.F.);
#505=ADVANCED_FACE('',(#456,#457),#482,.T.);
#506=ADVANCED_FACE('',(#458),#483,.T.);
#507=ADVANCED_FACE('',(#459),#484,.F.);
#508=ADVANCED_FACE('',(#460),#485,.F.);
#509=ADVANCED_FACE('',(#461),#486,.F.);
#510=ADVANCED_FACE('',(#462),#487,.F.);
#511=ADVANCED_FACE('',(#463),#488,.F.);
#512=ADVANCED_FACE('',(#464),#13,.F.);
#513=ADVANCED_FACE('',(#465),#14,.F.);
#514=ADVANCED_FACE('',(#466),#489,.T.);
#515=ADVANCED_FACE('',(#467),#15,.F.);
#516=CLOSED_SHELL('',(#490,#491,#492,#493,#494,#495,#496,#497,#498,#499,
#500,#501,#502,#503,#504,#505,#506,#507,#508,#509,#510,#511,#512,#513,#514,
#515));
#517=STYLED_ITEM('',(#518),#525);
#518=PRESENTATION_STYLE_ASSIGNMENT((#519));
#519=SURFACE_STYLE_USAGE(.BOTH.,#520);
#520=SURFACE_SIDE_STYLE('',(#521));
#521=SURFACE_STYLE_FILL_AREA(#522);
#522=FILL_AREA_STYLE('',(#523));
#523=FILL_AREA_STYLE_COLOUR('',#524);
#524=COLOUR_RGB('',0.682352941176471,0.333333333333334,0.737254901960784);
#525=MANIFOLD_SOLID_BREP('BatteryCoverR',#516);
#526=SHAPE_DEFINITION_REPRESENTATION(#850,#527);
#527=SHAPE_REPRESENTATION('BatteryCoverR',(#528),#845);
#528=AXIS2_PLACEMENT_3D('',#698,#564,#565);
#529=AXIS2_PLACEMENT_3D('',#699,#566,#567);
#530=AXIS2_PLACEMENT_3D('',#712,#574,#575);
#531=AXIS2_PLACEMENT_3D('',#725,#582,#583);
#532=AXIS2_PLACEMENT_3D('',#726,#584,#585);
#533=AXIS2_PLACEMENT_3D('',#745,#595,#596);
#534=AXIS2_PLACEMENT_3D('',#755,#602,#603);
#535=AXIS2_PLACEMENT_3D('',#765,#609,#610);
#536=AXIS2_PLACEMENT_3D('',#774,#615,#616);
#537=AXIS2_PLACEMENT_3D('',#783,#621,#622);
#538=AXIS2_PLACEMENT_3D('',#789,#626,#627);
#539=AXIS2_PLACEMENT_3D('',#793,#630,#631);
#540=AXIS2_PLACEMENT_3D('',#795,#633,#634);
#541=AXIS2_PLACEMENT_3D('',#796,#635,#636);
#542=AXIS2_PLACEMENT_3D('',#800,#639,#640);
#543=AXIS2_PLACEMENT_3D('',#809,#646,#647);
#544=AXIS2_PLACEMENT_3D('',#810,#648,#649);
#545=AXIS2_PLACEMENT_3D('',#817,#654,#655);
#546=AXIS2_PLACEMENT_3D('',#823,#660,#661);
#547=AXIS2_PLACEMENT_3D('',#824,#662,#663);
#548=AXIS2_PLACEMENT_3D('',#826,#664,#665);
#549=AXIS2_PLACEMENT_3D('',#827,#666,#667);
#550=AXIS2_PLACEMENT_3D('',#828,#668,#669);
#551=AXIS2_PLACEMENT_3D('',#829,#670,#671);
#552=AXIS2_PLACEMENT_3D('',#830,#672,#673);
#553=AXIS2_PLACEMENT_3D('',#831,#674,#675);
#554=AXIS2_PLACEMENT_3D('',#833,#677,#678);
#555=AXIS2_PLACEMENT_3D('',#834,#679,#680);
#556=AXIS2_PLACEMENT_3D('',#835,#681,#682);
#557=AXIS2_PLACEMENT_3D('',#837,#684,#685);
#558=AXIS2_PLACEMENT_3D('',#838,#686,#687);
#559=AXIS2_PLACEMENT_3D('',#839,#688,#689);
#560=AXIS2_PLACEMENT_3D('',#840,#690,#691);
#561=AXIS2_PLACEMENT_3D('',#841,#692,#693);
#562=AXIS2_PLACEMENT_3D('',#842,#694,#695);
#563=AXIS2_PLACEMENT_3D('',#843,#696,#697);
#564=DIRECTION('',(0.,0.,1.));
#565=DIRECTION('',(1.,0.,0.));
#566=DIRECTION('',(1.,-9.08232186375291E-17,1.66839545989065E-32));
#567=DIRECTION('',(-5.56131819963552E-33,1.22464679914735E-16,1.));
#568=DIRECTION('',(-5.56131819963551E-33,1.22464679914735E-16,1.));
#569=DIRECTION('',(-3.35212265889238E-16,1.,-1.22464679914735E-16));
#570=DIRECTION('',(5.56131819963552E-33,-1.22464679914735E-16,-1.));
#571=DIRECTION('',(-9.08232186375291E-17,-1.,1.22464679914735E-16));
#572=DIRECTION('',(5.56131819963552E-33,-1.22464679914735E-16,-1.));
#573=DIRECTION('',(-9.08232186375291E-17,-1.,1.22464679914735E-16));
#574=DIRECTION('',(5.56131819963552E-33,-1.22464679914735E-16,-1.));
#575=DIRECTION('',(-1.,9.08232186375291E-17,-1.66839545989065E-32));
#576=DIRECTION('',(-3.35212265889238E-16,1.,-1.22464679914735E-16));
#577=DIRECTION('',(1.,-9.08232186375291E-17,1.66839545989065E-32));
#578=DIRECTION('',(-6.81065053222356E-49,-1.,1.22464679914735E-16));
#579=DIRECTION('',(1.,6.81065053222356E-49,5.56131819963552E-33));
#580=DIRECTION('',(2.47575339960734E-16,1.,-1.22464679914735E-16));
#581=DIRECTION('',(1.,-9.08232186375291E-17,1.66839545989065E-32));
#582=DIRECTION('',(5.56131819963552E-33,-1.22464679914735E-16,-1.));
#583=DIRECTION('',(-1.,9.08232186375291E-17,-1.66839545989065E-32));
#584=DIRECTION('',(5.56131819963552E-33,-1.22464679914735E-16,-1.));
#585=DIRECTION('',(1.,-9.08232186375291E-17,1.66839545989065E-32));
#586=DIRECTION('',(1.,-9.08232186375291E-17,1.66839545989065E-32));
#587=DIRECTION('',(-1.,9.08232186375291E-17,-1.66839545989065E-32));
#588=DIRECTION('',(-9.08232186375291E-17,-1.,1.22464679914735E-16));
#589=DIRECTION('',(1.,-9.08232186375291E-17,1.66839545989065E-32));
#590=DIRECTION('',(2.73700693514602E-16,1.,-1.22464679914735E-16));
#591=DIRECTION('',(-1.,-6.81065053222356E-49,-5.56131819963552E-33));
#592=DIRECTION('',(-6.81065053222356E-49,-1.,1.22464679914735E-16));
#593=DIRECTION('',(1.,-9.08232186375291E-17,1.66839545989065E-32));
#594=DIRECTION('',(-3.35212265889238E-16,1.,-1.22464679914735E-16));
#595=DIRECTION('',(1.,-1.26486417397196E-64,5.56131819963551E-33));
#596=DIRECTION('',(5.56131819963551E-33,0.,-1.));
#597=DIRECTION('',(-3.35212265889238E-16,1.,-1.22464679914735E-16));
#598=DIRECTION('',(5.56131819963552E-33,-1.22464679914735E-16,-1.));
#599=DIRECTION('',(6.81065053222356E-49,1.,-1.22464679914735E-16));
#600=DIRECTION('',(5.56131819963551E-33,-1.22464679914735E-16,-1.));
#601=DIRECTION('',(5.56131819963551E-33,-1.22464679914735E-16,-1.));
#602=DIRECTION('',(1.,-1.26486417397196E-64,5.56131819963551E-33));
#603=DIRECTION('',(5.56131819963551E-33,0.,-1.));
#604=DIRECTION('',(5.56131819963552E-33,-1.22464679914735E-16,-1.));
#605=DIRECTION('',(-3.35212265889238E-16,1.,-1.22464679914735E-16));
#606=DIRECTION('',(5.56131819963551E-33,-1.22464679914735E-16,-1.));
#607=DIRECTION('',(5.56131819963551E-33,-1.22464679914735E-16,-1.));
#608=DIRECTION('',(6.81065053222355E-49,1.,-1.22464679914735E-16));
#609=DIRECTION('',(-5.56131819963552E-33,1.22464679914735E-16,1.));
#610=DIRECTION('',(1.,6.81065053222356E-49,5.56131819963552E-33));
#611=DIRECTION('',(-1.,-6.81065053222356E-49,-5.56131819963552E-33));
#612=DIRECTION('',(-3.35212265889238E-16,1.,-1.22464679914735E-16));
#613=DIRECTION('',(-1.,-6.81065053222356E-49,-5.56131819963552E-33));
#614=DIRECTION('',(6.81065053222355E-49,1.,-1.22464679914735E-16));
#615=DIRECTION('',(-5.56131819963552E-33,1.22464679914735E-16,1.));
#616=DIRECTION('',(1.,6.81065053222356E-49,5.56131819963552E-33));
#617=DIRECTION('',(-1.,-6.81065053222356E-49,-5.56131819963552E-33));
#618=DIRECTION('',(-3.35212265889238E-16,1.,-1.22464679914735E-16));
#619=DIRECTION('',(-1.,-6.81065053222356E-49,-5.56131819963552E-33));
#620=DIRECTION('',(6.81065053222355E-49,1.,-1.22464679914735E-16));
#621=DIRECTION('',(9.08232186375291E-17,1.,-1.22464679914735E-16));
#622=DIRECTION('',(5.56131819963552E-33,-1.22464679914735E-16,-1.));
#623=DIRECTION('',(1.,-9.08232186375291E-17,1.66839545989065E-32));
#624=DIRECTION('',(5.56131819963552E-33,-1.22464679914735E-16,-1.));
#625=DIRECTION('',(5.56131819963552E-33,-1.22464679914735E-16,-1.));
#626=DIRECTION('',(1.,-9.08232186375291E-17,1.66839545989065E-32));
#627=DIRECTION('',(-5.56131819963552E-33,1.22464679914735E-16,1.));
#628=DIRECTION('',(-9.08232186375291E-17,-1.,1.22464679914735E-16));
#629=DIRECTION('',(5.56131819963552E-33,-1.22464679914735E-16,-1.));
#630=DIRECTION('',(-9.08232186375291E-17,-1.,1.22464679914735E-16));
#631=DIRECTION('',(-5.56131819963552E-33,1.22464679914735E-16,1.));
#632=DIRECTION('',(-1.,9.08232186375291E-17,-1.66839545989065E-32));
#633=DIRECTION('',(9.08232186375291E-17,1.,-1.22464679914735E-16));
#634=DIRECTION('',(5.56131819963552E-33,-1.22464679914735E-16,-1.));
#635=DIRECTION('',(9.08232186375291E-17,1.,-1.22464679914735E-16));
#636=DIRECTION('',(0.,1.22464679914735E-16,1.));
#637=DIRECTION('',(5.56131819963552E-33,-1.22464679914735E-16,-1.));
#638=DIRECTION('',(1.,-9.08232186375291E-17,1.66839545989065E-32));
#639=DIRECTION('',(-1.,2.47575339960734E-16,-3.58805529627086E-32));
#640=DIRECTION('',(-2.47575339960734E-16,-1.,1.22464679914735E-16));
#641=DIRECTION('',(2.47575339960734E-16,1.,-1.22464679914735E-16));
#642=DIRECTION('',(5.56131819963551E-33,-1.22464679914735E-16,-1.));
#643=DIRECTION('',(5.56131819963552E-33,-1.22464679914735E-16,-1.));
#644=DIRECTION('',(6.81065053222355E-49,1.,-1.22464679914735E-16));
#645=DIRECTION('',(5.56131819963552E-33,-1.22464679914735E-16,-1.));
#646=DIRECTION('',(9.08232186375291E-17,1.,-1.22464679914735E-16));
#647=DIRECTION('',(5.56131819963552E-33,-1.22464679914735E-16,-1.));
#648=DIRECTION('',(9.08232186375291E-17,1.,-1.22464679914735E-16));
#649=DIRECTION('',(0.,1.22464679914735E-16,1.));
#650=DIRECTION('',(-1.,9.08232186375291E-17,-1.66839545989065E-32));
#651=DIRECTION('',(5.56131819963552E-33,-1.22464679914735E-16,-1.));
#652=DIRECTION('',(1.,-9.08232186375291E-17,1.66839545989065E-32));
#653=DIRECTION('',(-1.,9.08232186375291E-17,-1.66839545989065E-32));
#654=DIRECTION('',(-1.,2.73700693514602E-16,-3.90799860233422E-32));
#655=DIRECTION('',(-2.73700693514602E-16,-1.,1.22464679914735E-16));
#656=DIRECTION('',(2.73700693514602E-16,1.,-1.22464679914735E-16));
#657=DIRECTION('',(6.81065053222355E-49,1.,-1.22464679914735E-16));
#658=DIRECTION('',(5.56131819963552E-33,-1.22464679914735E-16,-1.));
#659=DIRECTION('',(5.56131819963551E-33,-1.22464679914735E-16,-1.));
#660=DIRECTION('',(5.56131819963552E-33,-1.22464679914735E-16,-1.));
#661=DIRECTION('',(1.,-9.08232186375291E-17,1.66839545989065E-32));
#662=DIRECTION('',(5.56131819963552E-33,-1.22464679914735E-16,-1.));
#663=DIRECTION('',(1.,-9.08232186375291E-17,1.66839545989065E-32));
#664=DIRECTION('',(5.56131819963552E-33,-1.22464679914735E-16,-1.));
#665=DIRECTION('',(-1.,9.08232186375291E-17,-1.66839545989065E-32));
#666=DIRECTION('',(0.,-1.,1.22464679914735E-16));
#667=DIRECTION('',(0.,-1.22464679914735E-16,-1.));
#668=DIRECTION('',(0.,-1.,1.22464679914735E-16));
#669=DIRECTION('',(0.,-1.22464679914735E-16,-1.));
#670=DIRECTION('',(0.,1.,-1.22464679914735E-16));
#671=DIRECTION('',(0.,1.22464679914735E-16,1.));
#672=DIRECTION('',(0.,1.,-1.22464679914735E-16));
#673=DIRECTION('',(0.,1.22464679914735E-16,1.));
#674=DIRECTION('',(-5.56131819963552E-33,1.22464679914735E-16,1.));
#675=DIRECTION('',(1.,6.81065053222356E-49,5.56131819963552E-33));
#676=DIRECTION('',(-1.,-6.81065053222356E-49,-5.56131819963552E-33));
#677=DIRECTION('',(1.48368246027497E-64,-1.,1.22464679914735E-16));
#678=DIRECTION('',(0.,-1.22464679914735E-16,-1.));
#679=DIRECTION('',(1.48368246027497E-64,-1.,1.22464679914735E-16));
#680=DIRECTION('',(0.,-1.22464679914735E-16,-1.));
#681=DIRECTION('',(-5.56131819963552E-33,1.22464679914735E-16,1.));
#682=DIRECTION('',(1.,6.81065053222356E-49,5.56131819963552E-33));
#683=DIRECTION('',(-1.,-6.81065053222356E-49,-5.56131819963552E-33));
#684=DIRECTION('',(1.48368246027497E-64,-1.,1.22464679914735E-16));
#685=DIRECTION('',(0.,-1.22464679914735E-16,-1.));
#686=DIRECTION('',(1.48368246027497E-64,-1.,1.22464679914735E-16));
#687=DIRECTION('',(0.,-1.22464679914735E-16,-1.));
#688=DIRECTION('',(-3.35212265889238E-16,1.,-1.22464679914735E-16));
#689=DIRECTION('',(-1.,-3.35212265889238E-16,0.));
#690=DIRECTION('',(-3.35212265889238E-16,1.,-1.22464679914735E-16));
#691=DIRECTION('',(-1.,-3.35212265889238E-16,0.));
#692=DIRECTION('',(9.08232186375291E-17,1.,-1.22464679914735E-16));
#693=DIRECTION('',(5.56131819963552E-33,-1.22464679914735E-16,-1.));
#694=DIRECTION('',(9.08232186375291E-17,1.,-1.22464679914735E-16));
#695=DIRECTION('',(0.,1.22464679914735E-16,1.));
#696=DIRECTION('',(-3.35212265889238E-16,1.,-1.22464679914735E-16));
#697=DIRECTION('',(-1.,-3.35212265889238E-16,0.));
#698=CARTESIAN_POINT('',(0.,0.,0.));
#699=CARTESIAN_POINT('',(0.0578095051497239,-0.0340999999980005,-0.0233));
#700=CARTESIAN_POINT('',(0.0578095051497239,-0.0327999999980005,-0.0233));
#701=CARTESIAN_POINT('',(0.0578095051497239,-0.0327999999980005,-0.023478973847019));
#702=CARTESIAN_POINT('',(0.0578095051497239,-0.0327999999980005,-0.0233));
#703=CARTESIAN_POINT('',(0.0578095051497239,-0.0328019999980005,-0.023478973847019));
#704=CARTESIAN_POINT('',(0.0578095051497239,-0.0324999999980005,-0.023478973847019));
#705=CARTESIAN_POINT('',(0.0578095051497239,-0.0324999999980005,-0.0233));
#706=CARTESIAN_POINT('',(0.0578095051497239,-0.0324999999980005,-0.024));
#707=CARTESIAN_POINT('',(0.0578095051497239,-0.0340999999980005,-0.024));
#708=CARTESIAN_POINT('',(0.0578095051497239,-0.0356999999980005,-0.024));
#709=CARTESIAN_POINT('',(0.0578095051497239,-0.0356999999980005,-0.0233));
#710=CARTESIAN_POINT('',(0.0578095051497239,-0.0356999999980005,-0.0233));
#711=CARTESIAN_POINT('',(0.0578095051497239,-0.0340999999980005,-0.0233));
#712=CARTESIAN_POINT('',(0.0745000000016246,-0.00099609374800102,-0.0233));
#713=CARTESIAN_POINT('',(0.0544849364905408,-0.0328019999980005,-0.0233));
#714=CARTESIAN_POINT('',(0.0544849364905408,0.0339000000019998,-0.0233));
#715=CARTESIAN_POINT('',(0.0544849364905408,-0.0324999999980005,-0.0233));
#716=CARTESIAN_POINT('',(0.0566500000000018,0.0339000000019998,-0.0233));
#717=CARTESIAN_POINT('',(0.0496000000000018,0.0339000000019998,-0.0233));
#718=CARTESIAN_POINT('',(0.0496000000000018,0.0324000000019998,-0.0233));
#719=CARTESIAN_POINT('',(0.0496000000000018,0.0309000000019998,-0.0233));
#720=CARTESIAN_POINT('',(0.0486000000000018,0.0309000000019998,-0.0233));
#721=CARTESIAN_POINT('',(0.0476000000000018,0.0309000000019998,-0.0233));
#722=CARTESIAN_POINT('',(0.0476000000000018,0.000700000001999672,-0.0233));
#723=CARTESIAN_POINT('',(0.0476000000000017,-0.0324999999980005,-0.0233));
#724=CARTESIAN_POINT('',(0.0527047525748628,-0.0324999999980005,-0.0233));
#725=CARTESIAN_POINT('',(0.0745000000016246,-0.00099609374800102,-0.0233));
#726=CARTESIAN_POINT('',(0.0603095051497239,-0.0340999999980005,-0.0233));
#727=CARTESIAN_POINT('',(0.0614095051497239,-0.0340999999980005,-0.0233));
#728=CARTESIAN_POINT('',(0.0745000000016246,-0.0327999999980005,-0.0233));
#729=CARTESIAN_POINT('',(0.0588150635094629,-0.0327999999980005,-0.0233));
#730=CARTESIAN_POINT('',(0.0603095051497239,-0.0356999999980005,-0.0233));
#731=CARTESIAN_POINT('',(0.0628095051497239,-0.0356999999980005,-0.0233));
#732=CARTESIAN_POINT('',(0.0628095051497239,-0.0340999999980005,-0.0233));
#733=CARTESIAN_POINT('',(0.0628095051497239,-0.0324999999980005,-0.0233));
#734=CARTESIAN_POINT('',(0.0642547525748628,-0.0324999999980005,-0.0233));
#735=CARTESIAN_POINT('',(0.0657000000000018,-0.0324999999980005,-0.0233));
#736=CARTESIAN_POINT('',(0.0657000000000018,0.000700000001999671,-0.0233));
#737=CARTESIAN_POINT('',(0.0657000000000018,0.0309000000019998,-0.0233));
#738=CARTESIAN_POINT('',(0.0647000000000018,0.0309000000019998,-0.0233));
#739=CARTESIAN_POINT('',(0.0637000000000018,0.0309000000019998,-0.0233));
#740=CARTESIAN_POINT('',(0.0637000000000018,0.0324000000019998,-0.0233));
#741=CARTESIAN_POINT('',(0.0637000000000018,0.0339000000019998,-0.0233));
#742=CARTESIAN_POINT('',(0.0566500000000018,0.0339000000019998,-0.0233));
#743=CARTESIAN_POINT('',(0.0588150635094628,0.0339000000019998,-0.0233));
#744=CARTESIAN_POINT('',(0.0588150635094629,-0.0328019999980005,-0.0233));
#745=CARTESIAN_POINT('',(0.0637000000000018,0.0324000000019998,0.276987349144899));
#746=CARTESIAN_POINT('',(0.0637000000000018,-0.0328019999980005,-0.0204176918895311));
#747=CARTESIAN_POINT('',(0.0637000000000018,0.0360000100067158,-0.0204176918895311));
#748=CARTESIAN_POINT('',(0.0637000000000018,0.0309000000019998,-0.0204176918895311));
#749=CARTESIAN_POINT('',(0.0637000000000018,0.0360000100067158,-0.0196999946391486));
#750=CARTESIAN_POINT('',(0.0637000000000018,0.0360000100067158,-0.0206999946391487));
#751=CARTESIAN_POINT('',(0.0637000000000018,0.0334500050043578,-0.0206999946391487));
#752=CARTESIAN_POINT('',(0.0637000000000018,0.0339000000019999,-0.0206999946391487));
#753=CARTESIAN_POINT('',(0.0637000000000018,0.0339000000019999,0.276987349144899));
#754=CARTESIAN_POINT('',(0.0637000000000018,0.0309000000019999,0.276987349144899));
#755=CARTESIAN_POINT('',(0.0496000000000018,0.0324000000019998,0.276987349144899));
#756=CARTESIAN_POINT('',(0.0496000000000018,0.0360000100067158,-0.0196999946391486));
#757=CARTESIAN_POINT('',(0.0496000000000018,0.0360000100067158,-0.020417691889531));
#758=CARTESIAN_POINT('',(0.0496000000000018,0.0360000100067158,-0.0206999946391487));
#759=CARTESIAN_POINT('',(0.0496000000000018,-0.0328019999980005,-0.020417691889531));
#760=CARTESIAN_POINT('',(0.0496000000000018,0.0309000000019998,-0.020417691889531));
#761=CARTESIAN_POINT('',(0.0496000000000018,0.0309000000019999,0.276987349144899));
#762=CARTESIAN_POINT('',(0.0496000000000018,0.0339000000019999,0.276987349144899));
#763=CARTESIAN_POINT('',(0.0496000000000018,0.0339000000019998,-0.0206999946391487));
#764=CARTESIAN_POINT('',(0.0496000000000018,0.0334500050043578,-0.0206999946391487));
#765=CARTESIAN_POINT('',(1.09557938719419E-34,0.0334500050043578,-0.0196999946391486));
#766=CARTESIAN_POINT('',(0.0486000000000018,0.0309000000019998,-0.0196999946391486));
#767=CARTESIAN_POINT('',(0.049012751766666,0.0309000000019998,-0.0196999946391486));
#768=CARTESIAN_POINT('',(0.0476000000000018,0.0309000000019998,-0.0196999946391486));
#769=CARTESIAN_POINT('',(0.049012751766666,-0.0328019999980005,-0.0196999946391486));
#770=CARTESIAN_POINT('',(0.049012751766666,0.0360000100067158,-0.0196999946391486));
#771=CARTESIAN_POINT('',(0.0486000000000018,0.0360000100067158,-0.0196999946391486));
#772=CARTESIAN_POINT('',(0.0476000000000018,0.0360000100067158,-0.0196999946391486));
#773=CARTESIAN_POINT('',(0.0476000000000018,0.0334500050043578,-0.0196999946391486));
#774=CARTESIAN_POINT('',(1.09557938719419E-34,0.0334500050043578,-0.0196999946391486));
#775=CARTESIAN_POINT('',(0.0647000000000018,0.0360000100067158,-0.0196999946391486));
#776=CARTESIAN_POINT('',(0.0657000000000018,0.0360000100067158,-0.0196999946391486));
#777=CARTESIAN_POINT('',(0.0642872482333376,0.0360000100067158,-0.0196999946391486));
#778=CARTESIAN_POINT('',(0.0642872482333377,-0.0328019999980005,-0.0196999946391486));
#779=CARTESIAN_POINT('',(0.0642872482333376,0.0309000000019998,-0.0196999946391486));
#780=CARTESIAN_POINT('',(0.0647000000000018,0.0309000000019998,-0.0196999946391486));
#781=CARTESIAN_POINT('',(0.0657000000000018,0.0309000000019998,-0.0196999946391486));
#782=CARTESIAN_POINT('',(0.0657000000000018,0.0334500050043578,-0.0196999946391486));
#783=CARTESIAN_POINT('',(0.0642547525748628,-0.0324999999980005,-0.0233));
#784=CARTESIAN_POINT('',(0.0642547525748628,-0.0324999999980005,-0.024));
#785=CARTESIAN_POINT('',(0.0628095051497239,-0.0324999999980005,-0.024));
#786=CARTESIAN_POINT('',(0.0657000000000018,-0.0324999999980005,-0.024));
#787=CARTESIAN_POINT('',(0.0657000000000018,-0.0324999999980005,-0.0233));
#788=CARTESIAN_POINT('',(0.0628095051497239,-0.0324999999980005,-0.0233));
#789=CARTESIAN_POINT('',(0.0628095051497239,-0.0340999999980005,-0.0233));
#790=CARTESIAN_POINT('',(0.0628095051497239,-0.0340999999980005,-0.024));
#791=CARTESIAN_POINT('',(0.0628095051497239,-0.0356999999980005,-0.024));
#792=CARTESIAN_POINT('',(0.0628095051497239,-0.0356999999980005,-0.0233));
#793=CARTESIAN_POINT('',(0.0603095051497239,-0.0356999999980005,-0.0233));
#794=CARTESIAN_POINT('',(0.0603095051497239,-0.0356999999980005,-0.024));
#795=CARTESIAN_POINT('',(0.0527047525748628,-0.0324999999980005,-0.0233));
#796=CARTESIAN_POINT('',(0.0566500000000018,-0.0324999999980005,-0.01405));
#797=CARTESIAN_POINT('',(0.0476000000000017,-0.0324999999980005,-0.0233));
#798=CARTESIAN_POINT('',(0.0476000000000017,-0.0324999999980005,-0.024));
#799=CARTESIAN_POINT('',(0.0527047525748628,-0.0324999999980005,-0.024));
#800=CARTESIAN_POINT('',(0.0476000000000018,0.000700000001999672,-0.0233));
#801=CARTESIAN_POINT('',(0.0476000000000018,0.000700000001999672,-0.024));
#802=CARTESIAN_POINT('',(0.0476000000000018,0.0339000000019998,-0.024));
#803=CARTESIAN_POINT('',(0.0476000000000018,0.0309000000019999,0.276987349144899));
#804=CARTESIAN_POINT('',(0.0476000000000018,0.0360000100067158,-0.0196999946391486));
#805=CARTESIAN_POINT('',(0.0476000000000018,0.0360000100067158,-0.0206999946391487));
#806=CARTESIAN_POINT('',(0.0476000000000018,0.0334500050043578,-0.0206999946391487));
#807=CARTESIAN_POINT('',(0.0476000000000018,0.0339000000019999,-0.0206999946391487));
#808=CARTESIAN_POINT('',(0.0476000000000018,0.0339000000019998,-0.0233));
#809=CARTESIAN_POINT('',(0.0566500000000018,0.0339000000019998,-0.0233));
#810=CARTESIAN_POINT('',(0.0566500000000018,0.0339000000019998,-0.01405));
#811=CARTESIAN_POINT('',(0.0566500000000018,0.0339000000019998,-0.0206999946391487));
#812=CARTESIAN_POINT('',(0.0657000000000018,0.0339000000019998,-0.0206999946391487));
#813=CARTESIAN_POINT('',(0.0657000000000018,0.0339000000019998,-0.0233));
#814=CARTESIAN_POINT('',(0.0657000000000018,0.0339000000019998,-0.024));
#815=CARTESIAN_POINT('',(0.0566500000000018,0.0339000000019998,-0.024));
#816=CARTESIAN_POINT('',(0.0566500000000018,0.0339000000019998,-0.0206999946391487));
#817=CARTESIAN_POINT('',(0.0657000000000018,0.000700000001999671,-0.0233));
#818=CARTESIAN_POINT('',(0.0657000000000018,0.00070000000199967,-0.024));
#819=CARTESIAN_POINT('',(0.0657000000000018,0.0334500050043578,-0.0206999946391487));
#820=CARTESIAN_POINT('',(0.0657000000000018,0.0360000100067158,-0.0206999946391487));
#821=CARTESIAN_POINT('',(0.0657000000000018,0.0360000100067158,-0.0196999946391486));
#822=CARTESIAN_POINT('',(0.0657000000000018,0.0309000000019999,0.276987349144899));
#823=CARTESIAN_POINT('',(0.0603095051497239,-0.0340999999980005,-0.0233));
#824=CARTESIAN_POINT('',(0.0603095051497239,-0.0340999999980005,-0.024));
#825=CARTESIAN_POINT('',(0.0614095051497239,-0.0340999999980005,-0.024));
#826=CARTESIAN_POINT('',(0.0745000000016246,-0.00099609374800102,-0.024));
#827=CARTESIAN_POINT('',(0.0647000000000018,0.0309000000019999,0.276987349144899));
#828=CARTESIAN_POINT('',(0.0566500000000018,0.0309000000019998,-0.01405));
#829=CARTESIAN_POINT('',(0.0486000000000018,0.0309000000019999,0.276987349144899));
#830=CARTESIAN_POINT('',(0.0566500000000018,0.0309000000019998,-0.01405));
#831=CARTESIAN_POINT('',(1.15119256919055E-34,0.0334500050043578,-0.0206999946391487));
#832=CARTESIAN_POINT('',(0.0486000000000018,0.0360000100067158,-0.0206999946391487));
#833=CARTESIAN_POINT('',(0.0486000000000018,0.0360000100067158,-0.0196999946391486));
#834=CARTESIAN_POINT('',(0.0566500000000018,0.0360000100067158,-0.01405));
#835=CARTESIAN_POINT('',(1.15119256919055E-34,0.0334500050043578,-0.0206999946391487));
#836=CARTESIAN_POINT('',(0.0647000000000018,0.0360000100067158,-0.0206999946391487));
#837=CARTESIAN_POINT('',(0.0647000000000018,0.0360000100067158,-0.0196999946391486));
#838=CARTESIAN_POINT('',(0.0566500000000018,0.0360000100067158,-0.01405));
#839=CARTESIAN_POINT('',(0.0566500000000018,-0.0328019999980005,-0.01405));
#840=CARTESIAN_POINT('',(0.0566500000000018,-0.0328019999980005,-0.01405));
#841=CARTESIAN_POINT('',(0.0566500000000017,-0.0327999999980005,-0.004798));
#842=CARTESIAN_POINT('',(0.0566500000000018,-0.0327999999980005,-0.01405));
#843=CARTESIAN_POINT('',(0.0566500000000018,-0.0328019999980005,-0.01405));
#844=MECHANICAL_DESIGN_GEOMETRIC_PRESENTATION_REPRESENTATION('',(#517),
#845);
#845=(
GEOMETRIC_REPRESENTATION_CONTEXT(3)
GLOBAL_UNCERTAINTY_ASSIGNED_CONTEXT((#846))
GLOBAL_UNIT_ASSIGNED_CONTEXT((#849,#848,#847))
REPRESENTATION_CONTEXT('BatteryCoverR','TOP_LEVEL_ASSEMBLY_PART')
);
#846=UNCERTAINTY_MEASURE_WITH_UNIT(LENGTH_MEASURE(1.E-8),#849,
'DISTANCE_ACCURACY_VALUE','Maximum Tolerance applied to model');
#847=(
NAMED_UNIT(*)
SI_UNIT($,.STERADIAN.)
SOLID_ANGLE_UNIT()
);
#848=(
NAMED_UNIT(*)
PLANE_ANGLE_UNIT()
SI_UNIT($,.RADIAN.)
);
#849=(
LENGTH_UNIT()
NAMED_UNIT(*)
SI_UNIT($,.METRE.)
);
#850=PRODUCT_DEFINITION_SHAPE('','',#851);
#851=PRODUCT_DEFINITION('','',#853,#852);
#852=PRODUCT_DEFINITION_CONTEXT('',#859,'design');
#853=PRODUCT_DEFINITION_FORMATION_WITH_SPECIFIED_SOURCE('','',#855,
 .NOT_KNOWN.);
#854=PRODUCT_RELATED_PRODUCT_CATEGORY('','',(#855));
#855=PRODUCT('BatteryCoverR','BatteryCoverR','BatteryCoverR',(#857));
#856=PRODUCT_CATEGORY('','');
#857=PRODUCT_CONTEXT('',#859,'mechanical');
#858=APPLICATION_PROTOCOL_DEFINITION('international standard',
'ap242_managed_model_based_3d_engineering',2020,#859);
#859=APPLICATION_CONTEXT('managed model based 3d engineering');
ENDSEC;
END-ISO-10303-21;
