ISO-10303-21;
HEADER;
/* Generated by software containing ST-Developer
 * from STEP Tools, Inc. (www.steptools.com) 
 */
/* OPTION: using custom renumber hook */

FILE_DESCRIPTION(
/* description */ ('STEP AP242 Edition 2',
'CAx-IF Rec.Pracs.---Representation and Presentation of Product Manufa
cturing Information (PMI)---4.0---2014-10-13',
'CAx-IF Rec.Pracs.---3D Tessellated Geometry---0.4---2014-09-14','2;1',
'CAx-IF Rec.Pracs.---User Defined Attributes---1.5---2016-08-15'),
/* implementation_level */ '2;1');

FILE_NAME(
/* name */ 'CompleteShell - ValinorStar2',
/* time_stamp */ '2026-09-23T14:41:02Z',
/* author */ (''),
/* organization */ (''),
/* preprocessor_version */ 'ST-DEVELOPER v20',
/* originating_system */ 'ONSHAPE BY PTC INC, 1.221',
/* authorisation */ '  ');

FILE_SCHEMA (('AP242_MANAGED_MODEL_BASED_3D_ENGINEERING_MIM_LF { 1 0 10303 442 3 1 4 }'));
ENDSEC;

DATA;
#10=SHAPE_REPRESENTATION_RELATIONSHIP('','',#411,#11);
#11=ADVANCED_BREP_SHAPE_REPRESENTATION('',(#409),#745);
#12=PLANE('',#473);
#13=PLANE('',#474);
#14=LINE('',#626,#34);
#15=LINE('',#630,#35);
#16=LINE('',#636,#36);
#17=LINE('',#642,#37);
#18=LINE('',#648,#38);
#19=LINE('',#654,#39);
#20=LINE('',#660,#40);
#21=LINE('',#666,#41);
#22=LINE('',#672,#42);
#23=LINE('',#678,#43);
#24=LINE('',#684,#44);
#25=LINE('',#690,#45);
#26=LINE('',#696,#46);
#27=LINE('',#702,#47);
#28=LINE('',#708,#48);
#29=LINE('',#714,#49);
#30=LINE('',#720,#50);
#31=LINE('',#726,#51);
#32=LINE('',#732,#52);
#33=LINE('',#738,#53);
#34=VECTOR('',#481,1.);
#35=VECTOR('',#484,1.);
#36=VECTOR('',#491,1.);
#37=VECTOR('',#498,1.);
#38=VECTOR('',#505,1.);
#39=VECTOR('',#512,1.);
#40=VECTOR('',#519,1.);
#41=VECTOR('',#526,1.);
#42=VECTOR('',#533,1.);
#43=VECTOR('',#540,1.);
#44=VECTOR('',#547,1.);
#45=VECTOR('',#554,1.);
#46=VECTOR('',#561,1.);
#47=VECTOR('',#568,1.);
#48=VECTOR('',#575,1.);
#49=VECTOR('',#582,1.);
#50=VECTOR('',#589,1.);
#51=VECTOR('',#596,1.);
#52=VECTOR('',#603,1.);
#53=VECTOR('',#610,1.);
#54=ORIENTED_EDGE('',*,*,#174,.F.);
#55=ORIENTED_EDGE('',*,*,#175,.F.);
#56=ORIENTED_EDGE('',*,*,#176,.T.);
#57=ORIENTED_EDGE('',*,*,#177,.T.);
#58=ORIENTED_EDGE('',*,*,#178,.F.);
#59=ORIENTED_EDGE('',*,*,#177,.F.);
#60=ORIENTED_EDGE('',*,*,#179,.T.);
#61=ORIENTED_EDGE('',*,*,#180,.T.);
#62=ORIENTED_EDGE('',*,*,#181,.F.);
#63=ORIENTED_EDGE('',*,*,#180,.F.);
#64=ORIENTED_EDGE('',*,*,#182,.T.);
#65=ORIENTED_EDGE('',*,*,#183,.T.);
#66=ORIENTED_EDGE('',*,*,#184,.F.);
#67=ORIENTED_EDGE('',*,*,#183,.F.);
#68=ORIENTED_EDGE('',*,*,#185,.T.);
#69=ORIENTED_EDGE('',*,*,#186,.T.);
#70=ORIENTED_EDGE('',*,*,#187,.F.);
#71=ORIENTED_EDGE('',*,*,#186,.F.);
#72=ORIENTED_EDGE('',*,*,#188,.T.);
#73=ORIENTED_EDGE('',*,*,#189,.T.);
#74=ORIENTED_EDGE('',*,*,#190,.F.);
#75=ORIENTED_EDGE('',*,*,#189,.F.);
#76=ORIENTED_EDGE('',*,*,#191,.T.);
#77=ORIENTED_EDGE('',*,*,#192,.T.);
#78=ORIENTED_EDGE('',*,*,#193,.F.);
#79=ORIENTED_EDGE('',*,*,#192,.F.);
#80=ORIENTED_EDGE('',*,*,#194,.T.);
#81=ORIENTED_EDGE('',*,*,#195,.T.);
#82=ORIENTED_EDGE('',*,*,#196,.F.);
#83=ORIENTED_EDGE('',*,*,#195,.F.);
#84=ORIENTED_EDGE('',*,*,#197,.T.);
#85=ORIENTED_EDGE('',*,*,#198,.T.);
#86=ORIENTED_EDGE('',*,*,#199,.F.);
#87=ORIENTED_EDGE('',*,*,#198,.F.);
#88=ORIENTED_EDGE('',*,*,#200,.T.);
#89=ORIENTED_EDGE('',*,*,#201,.T.);
#90=ORIENTED_EDGE('',*,*,#202,.F.);
#91=ORIENTED_EDGE('',*,*,#201,.F.);
#92=ORIENTED_EDGE('',*,*,#203,.T.);
#93=ORIENTED_EDGE('',*,*,#204,.T.);
#94=ORIENTED_EDGE('',*,*,#205,.F.);
#95=ORIENTED_EDGE('',*,*,#204,.F.);
#96=ORIENTED_EDGE('',*,*,#206,.T.);
#97=ORIENTED_EDGE('',*,*,#207,.T.);
#98=ORIENTED_EDGE('',*,*,#208,.F.);
#99=ORIENTED_EDGE('',*,*,#207,.F.);
#100=ORIENTED_EDGE('',*,*,#209,.T.);
#101=ORIENTED_EDGE('',*,*,#210,.T.);
#102=ORIENTED_EDGE('',*,*,#211,.F.);
#103=ORIENTED_EDGE('',*,*,#210,.F.);
#104=ORIENTED_EDGE('',*,*,#212,.T.);
#105=ORIENTED_EDGE('',*,*,#213,.T.);
#106=ORIENTED_EDGE('',*,*,#214,.F.);
#107=ORIENTED_EDGE('',*,*,#213,.F.);
#108=ORIENTED_EDGE('',*,*,#215,.T.);
#109=ORIENTED_EDGE('',*,*,#216,.T.);
#110=ORIENTED_EDGE('',*,*,#217,.F.);
#111=ORIENTED_EDGE('',*,*,#216,.F.);
#112=ORIENTED_EDGE('',*,*,#218,.T.);
#113=ORIENTED_EDGE('',*,*,#219,.T.);
#114=ORIENTED_EDGE('',*,*,#220,.F.);
#115=ORIENTED_EDGE('',*,*,#219,.F.);
#116=ORIENTED_EDGE('',*,*,#221,.T.);
#117=ORIENTED_EDGE('',*,*,#222,.T.);
#118=ORIENTED_EDGE('',*,*,#223,.F.);
#119=ORIENTED_EDGE('',*,*,#222,.F.);
#120=ORIENTED_EDGE('',*,*,#224,.T.);
#121=ORIENTED_EDGE('',*,*,#225,.T.);
#122=ORIENTED_EDGE('',*,*,#226,.F.);
#123=ORIENTED_EDGE('',*,*,#225,.F.);
#124=ORIENTED_EDGE('',*,*,#227,.T.);
#125=ORIENTED_EDGE('',*,*,#228,.T.);
#126=ORIENTED_EDGE('',*,*,#229,.F.);
#127=ORIENTED_EDGE('',*,*,#228,.F.);
#128=ORIENTED_EDGE('',*,*,#230,.T.);
#129=ORIENTED_EDGE('',*,*,#231,.T.);
#130=ORIENTED_EDGE('',*,*,#232,.F.);
#131=ORIENTED_EDGE('',*,*,#231,.F.);
#132=ORIENTED_EDGE('',*,*,#233,.T.);
#133=ORIENTED_EDGE('',*,*,#175,.T.);
#134=ORIENTED_EDGE('',*,*,#176,.F.);
#135=ORIENTED_EDGE('',*,*,#233,.F.);
#136=ORIENTED_EDGE('',*,*,#230,.F.);
#137=ORIENTED_EDGE('',*,*,#227,.F.);
#138=ORIENTED_EDGE('',*,*,#224,.F.);
#139=ORIENTED_EDGE('',*,*,#221,.F.);
#140=ORIENTED_EDGE('',*,*,#218,.F.);
#141=ORIENTED_EDGE('',*,*,#215,.F.);
#142=ORIENTED_EDGE('',*,*,#212,.F.);
#143=ORIENTED_EDGE('',*,*,#209,.F.);
#144=ORIENTED_EDGE('',*,*,#206,.F.);
#145=ORIENTED_EDGE('',*,*,#203,.F.);
#146=ORIENTED_EDGE('',*,*,#200,.F.);
#147=ORIENTED_EDGE('',*,*,#197,.F.);
#148=ORIENTED_EDGE('',*,*,#194,.F.);
#149=ORIENTED_EDGE('',*,*,#191,.F.);
#150=ORIENTED_EDGE('',*,*,#188,.F.);
#151=ORIENTED_EDGE('',*,*,#185,.F.);
#152=ORIENTED_EDGE('',*,*,#182,.F.);
#153=ORIENTED_EDGE('',*,*,#179,.F.);
#154=ORIENTED_EDGE('',*,*,#174,.T.);
#155=ORIENTED_EDGE('',*,*,#178,.T.);
#156=ORIENTED_EDGE('',*,*,#181,.T.);
#157=ORIENTED_EDGE('',*,*,#184,.T.);
#158=ORIENTED_EDGE('',*,*,#187,.T.);
#159=ORIENTED_EDGE('',*,*,#190,.T.);
#160=ORIENTED_EDGE('',*,*,#193,.T.);
#161=ORIENTED_EDGE('',*,*,#196,.T.);
#162=ORIENTED_EDGE('',*,*,#199,.T.);
#163=ORIENTED_EDGE('',*,*,#202,.T.);
#164=ORIENTED_EDGE('',*,*,#205,.T.);
#165=ORIENTED_EDGE('',*,*,#208,.T.);
#166=ORIENTED_EDGE('',*,*,#211,.T.);
#167=ORIENTED_EDGE('',*,*,#214,.T.);
#168=ORIENTED_EDGE('',*,*,#217,.T.);
#169=ORIENTED_EDGE('',*,*,#220,.T.);
#170=ORIENTED_EDGE('',*,*,#223,.T.);
#171=ORIENTED_EDGE('',*,*,#226,.T.);
#172=ORIENTED_EDGE('',*,*,#229,.T.);
#173=ORIENTED_EDGE('',*,*,#232,.T.);
#174=EDGE_CURVE('',#234,#235,#274,.T.);
#175=EDGE_CURVE('',#236,#234,#14,.T.);
#176=EDGE_CURVE('',#236,#237,#275,.T.);
#177=EDGE_CURVE('',#237,#235,#15,.T.);
#178=EDGE_CURVE('',#235,#238,#276,.T.);
#179=EDGE_CURVE('',#237,#239,#277,.T.);
#180=EDGE_CURVE('',#239,#238,#16,.T.);
#181=EDGE_CURVE('',#238,#240,#278,.T.);
#182=EDGE_CURVE('',#239,#241,#279,.T.);
#183=EDGE_CURVE('',#241,#240,#17,.T.);
#184=EDGE_CURVE('',#240,#242,#280,.T.);
#185=EDGE_CURVE('',#241,#243,#281,.T.);
#186=EDGE_CURVE('',#243,#242,#18,.T.);
#187=EDGE_CURVE('',#242,#244,#282,.T.);
#188=EDGE_CURVE('',#243,#245,#283,.T.);
#189=EDGE_CURVE('',#245,#244,#19,.T.);
#190=EDGE_CURVE('',#244,#246,#284,.T.);
#191=EDGE_CURVE('',#245,#247,#285,.T.);
#192=EDGE_CURVE('',#247,#246,#20,.T.);
#193=EDGE_CURVE('',#246,#248,#286,.T.);
#194=EDGE_CURVE('',#247,#249,#287,.T.);
#195=EDGE_CURVE('',#249,#248,#21,.T.);
#196=EDGE_CURVE('',#248,#250,#288,.T.);
#197=EDGE_CURVE('',#249,#251,#289,.T.);
#198=EDGE_CURVE('',#251,#250,#22,.T.);
#199=EDGE_CURVE('',#250,#252,#290,.T.);
#200=EDGE_CURVE('',#251,#253,#291,.T.);
#201=EDGE_CURVE('',#253,#252,#23,.T.);
#202=EDGE_CURVE('',#252,#254,#292,.T.);
#203=EDGE_CURVE('',#253,#255,#293,.T.);
#204=EDGE_CURVE('',#255,#254,#24,.T.);
#205=EDGE_CURVE('',#254,#256,#294,.T.);
#206=EDGE_CURVE('',#255,#257,#295,.T.);
#207=EDGE_CURVE('',#257,#256,#25,.T.);
#208=EDGE_CURVE('',#256,#258,#296,.T.);
#209=EDGE_CURVE('',#257,#259,#297,.T.);
#210=EDGE_CURVE('',#259,#258,#26,.T.);
#211=EDGE_CURVE('',#258,#260,#298,.T.);
#212=EDGE_CURVE('',#259,#261,#299,.T.);
#213=EDGE_CURVE('',#261,#260,#27,.T.);
#214=EDGE_CURVE('',#260,#262,#300,.T.);
#215=EDGE_CURVE('',#261,#263,#301,.T.);
#216=EDGE_CURVE('',#263,#262,#28,.T.);
#217=EDGE_CURVE('',#262,#264,#302,.T.);
#218=EDGE_CURVE('',#263,#265,#303,.T.);
#219=EDGE_CURVE('',#265,#264,#29,.T.);
#220=EDGE_CURVE('',#264,#266,#304,.T.);
#221=EDGE_CURVE('',#265,#267,#305,.T.);
#222=EDGE_CURVE('',#267,#266,#30,.T.);
#223=EDGE_CURVE('',#266,#268,#306,.T.);
#224=EDGE_CURVE('',#267,#269,#307,.T.);
#225=EDGE_CURVE('',#269,#268,#31,.T.);
#226=EDGE_CURVE('',#268,#270,#308,.T.);
#227=EDGE_CURVE('',#269,#271,#309,.T.);
#228=EDGE_CURVE('',#271,#270,#32,.T.);
#229=EDGE_CURVE('',#270,#272,#310,.T.);
#230=EDGE_CURVE('',#271,#273,#311,.T.);
#231=EDGE_CURVE('',#273,#272,#33,.T.);
#232=EDGE_CURVE('',#272,#234,#312,.T.);
#233=EDGE_CURVE('',#273,#236,#313,.T.);
#234=VERTEX_POINT('',#624);
#235=VERTEX_POINT('',#625);
#236=VERTEX_POINT('',#627);
#237=VERTEX_POINT('',#629);
#238=VERTEX_POINT('',#633);
#239=VERTEX_POINT('',#635);
#240=VERTEX_POINT('',#639);
#241=VERTEX_POINT('',#641);
#242=VERTEX_POINT('',#645);
#243=VERTEX_POINT('',#647);
#244=VERTEX_POINT('',#651);
#245=VERTEX_POINT('',#653);
#246=VERTEX_POINT('',#657);
#247=VERTEX_POINT('',#659);
#248=VERTEX_POINT('',#663);
#249=VERTEX_POINT('',#665);
#250=VERTEX_POINT('',#669);
#251=VERTEX_POINT('',#671);
#252=VERTEX_POINT('',#675);
#253=VERTEX_POINT('',#677);
#254=VERTEX_POINT('',#681);
#255=VERTEX_POINT('',#683);
#256=VERTEX_POINT('',#687);
#257=VERTEX_POINT('',#689);
#258=VERTEX_POINT('',#693);
#259=VERTEX_POINT('',#695);
#260=VERTEX_POINT('',#699);
#261=VERTEX_POINT('',#701);
#262=VERTEX_POINT('',#705);
#263=VERTEX_POINT('',#707);
#264=VERTEX_POINT('',#711);
#265=VERTEX_POINT('',#713);
#266=VERTEX_POINT('',#717);
#267=VERTEX_POINT('',#719);
#268=VERTEX_POINT('',#723);
#269=VERTEX_POINT('',#725);
#270=VERTEX_POINT('',#729);
#271=VERTEX_POINT('',#731);
#272=VERTEX_POINT('',#735);
#273=VERTEX_POINT('',#737);
#274=CIRCLE('',#414,0.00938844825774003);
#275=CIRCLE('',#415,0.00938844825774003);
#276=CIRCLE('',#417,0.00385150600695184);
#277=CIRCLE('',#418,0.00385150600695184);
#278=CIRCLE('',#420,0.00478928973477679);
#279=CIRCLE('',#421,0.00478928973477679);
#280=CIRCLE('',#423,0.00385150600695221);
#281=CIRCLE('',#424,0.00385150600695221);
#282=CIRCLE('',#426,0.0093884482577379);
#283=CIRCLE('',#427,0.0093884482577379);
#284=CIRCLE('',#429,0.00938844825773866);
#285=CIRCLE('',#430,0.00938844825773866);
#286=CIRCLE('',#432,0.0038515060069524);
#287=CIRCLE('',#433,0.0038515060069524);
#288=CIRCLE('',#435,0.0047892897347764);
#289=CIRCLE('',#436,0.0047892897347764);
#290=CIRCLE('',#438,0.00385150600695164);
#291=CIRCLE('',#439,0.00385150600695164);
#292=CIRCLE('',#441,0.00938844825773911);
#293=CIRCLE('',#442,0.00938844825773911);
#294=CIRCLE('',#444,0.00938844825773022);
#295=CIRCLE('',#445,0.00938844825773022);
#296=CIRCLE('',#447,0.00385150600695186);
#297=CIRCLE('',#448,0.00385150600695186);
#298=CIRCLE('',#450,0.0047892897347769);
#299=CIRCLE('',#451,0.0047892897347769);
#300=CIRCLE('',#453,0.00385150600695246);
#301=CIRCLE('',#454,0.00385150600695246);
#302=CIRCLE('',#456,0.00938844825773643);
#303=CIRCLE('',#457,0.00938844825773643);
#304=CIRCLE('',#459,0.00938844825773341);
#305=CIRCLE('',#460,0.00938844825773341);
#306=CIRCLE('',#462,0.00385150600695243);
#307=CIRCLE('',#463,0.00385150600695243);
#308=CIRCLE('',#465,0.00478928973477696);
#309=CIRCLE('',#466,0.00478928973477696);
#310=CIRCLE('',#468,0.00385150600695232);
#311=CIRCLE('',#469,0.00385150600695232);
#312=CIRCLE('',#471,0.00938844825772992);
#313=CIRCLE('',#472,0.00938844825772992);
#314=EDGE_LOOP('',(#54,#55,#56,#57));
#315=EDGE_LOOP('',(#58,#59,#60,#61));
#316=EDGE_LOOP('',(#62,#63,#64,#65));
#317=EDGE_LOOP('',(#66,#67,#68,#69));
#318=EDGE_LOOP('',(#70,#71,#72,#73));
#319=EDGE_LOOP('',(#74,#75,#76,#77));
#320=EDGE_LOOP('',(#78,#79,#80,#81));
#321=EDGE_LOOP('',(#82,#83,#84,#85));
#322=EDGE_LOOP('',(#86,#87,#88,#89));
#323=EDGE_LOOP('',(#90,#91,#92,#93));
#324=EDGE_LOOP('',(#94,#95,#96,#97));
#325=EDGE_LOOP('',(#98,#99,#100,#101));
#326=EDGE_LOOP('',(#102,#103,#104,#105));
#327=EDGE_LOOP('',(#106,#107,#108,#109));
#328=EDGE_LOOP('',(#110,#111,#112,#113));
#329=EDGE_LOOP('',(#114,#115,#116,#117));
#330=EDGE_LOOP('',(#118,#119,#120,#121));
#331=EDGE_LOOP('',(#122,#123,#124,#125));
#332=EDGE_LOOP('',(#126,#127,#128,#129));
#333=EDGE_LOOP('',(#130,#131,#132,#133));
#334=EDGE_LOOP('',(#134,#135,#136,#137,#138,#139,#140,#141,#142,#143,#144,
#145,#146,#147,#148,#149,#150,#151,#152,#153));
#335=EDGE_LOOP('',(#154,#155,#156,#157,#158,#159,#160,#161,#162,#163,#164,
#165,#166,#167,#168,#169,#170,#171,#172,#173));
#336=FACE_BOUND('',#314,.T.);
#337=FACE_BOUND('',#315,.T.);
#338=FACE_BOUND('',#316,.T.);
#339=FACE_BOUND('',#317,.T.);
#340=FACE_BOUND('',#318,.T.);
#341=FACE_BOUND('',#319,.T.);
#342=FACE_BOUND('',#320,.T.);
#343=FACE_BOUND('',#321,.T.);
#344=FACE_BOUND('',#322,.T.);
#345=FACE_BOUND('',#323,.T.);
#346=FACE_BOUND('',#324,.T.);
#347=FACE_BOUND('',#325,.T.);
#348=FACE_BOUND('',#326,.T.);
#349=FACE_BOUND('',#327,.T.);
#350=FACE_BOUND('',#328,.T.);
#351=FACE_BOUND('',#329,.T.);
#352=FACE_BOUND('',#330,.T.);
#353=FACE_BOUND('',#331,.T.);
#354=FACE_BOUND('',#332,.T.);
#355=FACE_BOUND('',#333,.T.);
#356=FACE_BOUND('',#334,.T.);
#357=FACE_BOUND('',#335,.T.);
#358=CYLINDRICAL_SURFACE('',#413,0.00938844825774003);
#359=CYLINDRICAL_SURFACE('',#416,0.00385150600695184);
#360=CYLINDRICAL_SURFACE('',#419,0.00478928973477679);
#361=CYLINDRICAL_SURFACE('',#422,0.00385150600695221);
#362=CYLINDRICAL_SURFACE('',#425,0.0093884482577379);
#363=CYLINDRICAL_SURFACE('',#428,0.00938844825773866);
#364=CYLINDRICAL_SURFACE('',#431,0.0038515060069524);
#365=CYLINDRICAL_SURFACE('',#434,0.0047892897347764);
#366=CYLINDRICAL_SURFACE('',#437,0.00385150600695164);
#367=CYLINDRICAL_SURFACE('',#440,0.00938844825773911);
#368=CYLINDRICAL_SURFACE('',#443,0.00938844825773022);
#369=CYLINDRICAL_SURFACE('',#446,0.00385150600695186);
#370=CYLINDRICAL_SURFACE('',#449,0.0047892897347769);
#371=CYLINDRICAL_SURFACE('',#452,0.00385150600695246);
#372=CYLINDRICAL_SURFACE('',#455,0.00938844825773643);
#373=CYLINDRICAL_SURFACE('',#458,0.00938844825773341);
#374=CYLINDRICAL_SURFACE('',#461,0.00385150600695243);
#375=CYLINDRICAL_SURFACE('',#464,0.00478928973477696);
#376=CYLINDRICAL_SURFACE('',#467,0.00385150600695232);
#377=CYLINDRICAL_SURFACE('',#470,0.00938844825772992);
#378=ADVANCED_FACE('',(#336),#358,.T.);
#379=ADVANCED_FACE('',(#337),#359,.F.);
#380=ADVANCED_FACE('',(#338),#360,.F.);
#381=ADVANCED_FACE('',(#339),#361,.F.);
#382=ADVANCED_FACE('',(#340),#362,.T.);
#383=ADVANCED_FACE('',(#341),#363,.T.);
#384=ADVANCED_FACE('',(#342),#364,.F.);
#385=ADVANCED_FACE('',(#343),#365,.F.);
#386=ADVANCED_FACE('',(#344),#366,.F.);
#387=ADVANCED_FACE('',(#345),#367,.T.);
#388=ADVANCED_FACE('',(#346),#368,.T.);
#389=ADVANCED_FACE('',(#347),#369,.F.);
#390=ADVANCED_FACE('',(#348),#370,.F.);
#391=ADVANCED_FACE('',(#349),#371,.F.);
#392=ADVANCED_FACE('',(#350),#372,.T.);
#393=ADVANCED_FACE('',(#351),#373,.T.);
#394=ADVANCED_FACE('',(#352),#374,.F.);
#395=ADVANCED_FACE('',(#353),#375,.F.);
#396=ADVANCED_FACE('',(#354),#376,.F.);
#397=ADVANCED_FACE('',(#355),#377,.T.);
#398=ADVANCED_FACE('',(#356),#12,.F.);
#399=ADVANCED_FACE('',(#357),#13,.T.);
#400=CLOSED_SHELL('',(#378,#379,#380,#381,#382,#383,#384,#385,#386,#387,
#388,#389,#390,#391,#392,#393,#394,#395,#396,#397,#398,#399));
#401=STYLED_ITEM('',(#402),#409);
#402=PRESENTATION_STYLE_ASSIGNMENT((#403));
#403=SURFACE_STYLE_USAGE(.BOTH.,#404);
#404=SURFACE_SIDE_STYLE('',(#405));
#405=SURFACE_STYLE_FILL_AREA(#406);
#406=FILL_AREA_STYLE('',(#407));
#407=FILL_AREA_STYLE_COLOUR('',#408);
#408=COLOUR_RGB('',0.682352941176471,0.333333333333334,0.737254901960784);
#409=MANIFOLD_SOLID_BREP('ValinorStar2',#400);
#410=SHAPE_DEFINITION_REPRESENTATION(#750,#411);
#411=SHAPE_REPRESENTATION('ValinorStar2',(#412),#745);
#412=AXIS2_PLACEMENT_3D('',#621,#475,#476);
#413=AXIS2_PLACEMENT_3D('',#622,#477,#478);
#414=AXIS2_PLACEMENT_3D('',#623,#479,#480);
#415=AXIS2_PLACEMENT_3D('',#628,#482,#483);
#416=AXIS2_PLACEMENT_3D('',#631,#485,#486);
#417=AXIS2_PLACEMENT_3D('',#632,#487,#488);
#418=AXIS2_PLACEMENT_3D('',#634,#489,#490);
#419=AXIS2_PLACEMENT_3D('',#637,#492,#493);
#420=AXIS2_PLACEMENT_3D('',#638,#494,#495);
#421=AXIS2_PLACEMENT_3D('',#640,#496,#497);
#422=AXIS2_PLACEMENT_3D('',#643,#499,#500);
#423=AXIS2_PLACEMENT_3D('',#644,#501,#502);
#424=AXIS2_PLACEMENT_3D('',#646,#503,#504);
#425=AXIS2_PLACEMENT_3D('',#649,#506,#507);
#426=AXIS2_PLACEMENT_3D('',#650,#508,#509);
#427=AXIS2_PLACEMENT_3D('',#652,#510,#511);
#428=AXIS2_PLACEMENT_3D('',#655,#513,#514);
#429=AXIS2_PLACEMENT_3D('',#656,#515,#516);
#430=AXIS2_PLACEMENT_3D('',#658,#517,#518);
#431=AXIS2_PLACEMENT_3D('',#661,#520,#521);
#432=AXIS2_PLACEMENT_3D('',#662,#522,#523);
#433=AXIS2_PLACEMENT_3D('',#664,#524,#525);
#434=AXIS2_PLACEMENT_3D('',#667,#527,#528);
#435=AXIS2_PLACEMENT_3D('',#668,#529,#530);
#436=AXIS2_PLACEMENT_3D('',#670,#531,#532);
#437=AXIS2_PLACEMENT_3D('',#673,#534,#535);
#438=AXIS2_PLACEMENT_3D('',#674,#536,#537);
#439=AXIS2_PLACEMENT_3D('',#676,#538,#539);
#440=AXIS2_PLACEMENT_3D('',#679,#541,#542);
#441=AXIS2_PLACEMENT_3D('',#680,#543,#544);
#442=AXIS2_PLACEMENT_3D('',#682,#545,#546);
#443=AXIS2_PLACEMENT_3D('',#685,#548,#549);
#444=AXIS2_PLACEMENT_3D('',#686,#550,#551);
#445=AXIS2_PLACEMENT_3D('',#688,#552,#553);
#446=AXIS2_PLACEMENT_3D('',#691,#555,#556);
#447=AXIS2_PLACEMENT_3D('',#692,#557,#558);
#448=AXIS2_PLACEMENT_3D('',#694,#559,#560);
#449=AXIS2_PLACEMENT_3D('',#697,#562,#563);
#450=AXIS2_PLACEMENT_3D('',#698,#564,#565);
#451=AXIS2_PLACEMENT_3D('',#700,#566,#567);
#452=AXIS2_PLACEMENT_3D('',#703,#569,#570);
#453=AXIS2_PLACEMENT_3D('',#704,#571,#572);
#454=AXIS2_PLACEMENT_3D('',#706,#573,#574);
#455=AXIS2_PLACEMENT_3D('',#709,#576,#577);
#456=AXIS2_PLACEMENT_3D('',#710,#578,#579);
#457=AXIS2_PLACEMENT_3D('',#712,#580,#581);
#458=AXIS2_PLACEMENT_3D('',#715,#583,#584);
#459=AXIS2_PLACEMENT_3D('',#716,#585,#586);
#460=AXIS2_PLACEMENT_3D('',#718,#587,#588);
#461=AXIS2_PLACEMENT_3D('',#721,#590,#591);
#462=AXIS2_PLACEMENT_3D('',#722,#592,#593);
#463=AXIS2_PLACEMENT_3D('',#724,#594,#595);
#464=AXIS2_PLACEMENT_3D('',#727,#597,#598);
#465=AXIS2_PLACEMENT_3D('',#728,#599,#600);
#466=AXIS2_PLACEMENT_3D('',#730,#601,#602);
#467=AXIS2_PLACEMENT_3D('',#733,#604,#605);
#468=AXIS2_PLACEMENT_3D('',#734,#606,#607);
#469=AXIS2_PLACEMENT_3D('',#736,#608,#609);
#470=AXIS2_PLACEMENT_3D('',#739,#611,#612);
#471=AXIS2_PLACEMENT_3D('',#740,#613,#614);
#472=AXIS2_PLACEMENT_3D('',#741,#615,#616);
#473=AXIS2_PLACEMENT_3D('',#742,#617,#618);
#474=AXIS2_PLACEMENT_3D('',#743,#619,#620);
#475=DIRECTION('',(0.,0.,1.));
#476=DIRECTION('',(1.,0.,0.));
#477=DIRECTION('',(5.56131819963552E-33,-1.22464679914735E-16,-1.));
#478=DIRECTION('',(1.,9.08232186375291E-17,-5.56131819963552E-33));
#479=DIRECTION('',(5.56131819963552E-33,-1.22464679914735E-16,-1.));
#480=DIRECTION('',(1.,9.08232186375291E-17,-5.56131819963552E-33));
#481=DIRECTION('',(5.56131819963552E-33,-1.22464679914735E-16,-1.));
#482=DIRECTION('',(5.56131819963552E-33,-1.22464679914735E-16,-1.));
#483=DIRECTION('',(1.,9.08232186375291E-17,-5.56131819963552E-33));
#484=DIRECTION('',(5.56131819963552E-33,-1.22464679914735E-16,-1.));
#485=DIRECTION('',(5.56131819963552E-33,-1.22464679914735E-16,-1.));
#486=DIRECTION('',(1.,9.08232186375291E-17,-5.56131819963552E-33));
#487=DIRECTION('',(-5.56131819963552E-33,1.22464679914735E-16,1.));
#488=DIRECTION('',(1.,9.08232186375291E-17,-5.56131819963552E-33));
#489=DIRECTION('',(-5.56131819963552E-33,1.22464679914735E-16,1.));
#490=DIRECTION('',(1.,9.08232186375291E-17,-5.56131819963552E-33));
#491=DIRECTION('',(5.56131819963552E-33,-1.22464679914735E-16,-1.));
#492=DIRECTION('',(5.56131819963552E-33,-1.22464679914735E-16,-1.));
#493=DIRECTION('',(1.,9.08232186375291E-17,-5.56131819963552E-33));
#494=DIRECTION('',(-5.56131819963552E-33,1.22464679914735E-16,1.));
#495=DIRECTION('',(1.,9.08232186375291E-17,-5.56131819963552E-33));
#496=DIRECTION('',(-5.56131819963552E-33,1.22464679914735E-16,1.));
#497=DIRECTION('',(1.,9.08232186375291E-17,-5.56131819963552E-33));
#498=DIRECTION('',(5.56131819963552E-33,-1.22464679914735E-16,-1.));
#499=DIRECTION('',(5.56131819963552E-33,-1.22464679914735E-16,-1.));
#500=DIRECTION('',(1.,9.08232186375291E-17,-5.56131819963552E-33));
#501=DIRECTION('',(-5.56131819963552E-33,1.22464679914735E-16,1.));
#502=DIRECTION('',(1.,9.08232186375291E-17,-5.56131819963552E-33));
#503=DIRECTION('',(-5.56131819963552E-33,1.22464679914735E-16,1.));
#504=DIRECTION('',(1.,9.08232186375291E-17,-5.56131819963552E-33));
#505=DIRECTION('',(5.56131819963552E-33,-1.22464679914735E-16,-1.));
#506=DIRECTION('',(5.56131819963552E-33,-1.22464679914735E-16,-1.));
#507=DIRECTION('',(1.,9.08232186375291E-17,-5.56131819963552E-33));
#508=DIRECTION('',(5.56131819963552E-33,-1.22464679914735E-16,-1.));
#509=DIRECTION('',(1.,9.08232186375291E-17,-5.56131819963552E-33));
#510=DIRECTION('',(5.56131819963552E-33,-1.22464679914735E-16,-1.));
#511=DIRECTION('',(1.,9.08232186375291E-17,-5.56131819963552E-33));
#512=DIRECTION('',(5.56131819963552E-33,-1.22464679914735E-16,-1.));
#513=DIRECTION('',(5.56131819963552E-33,-1.22464679914735E-16,-1.));
#514=DIRECTION('',(1.,9.08232186375291E-17,-5.56131819963552E-33));
#515=DIRECTION('',(5.56131819963552E-33,-1.22464679914735E-16,-1.));
#516=DIRECTION('',(1.,9.08232186375291E-17,-5.56131819963552E-33));
#517=DIRECTION('',(5.56131819963552E-33,-1.22464679914735E-16,-1.));
#518=DIRECTION('',(1.,9.08232186375291E-17,-5.56131819963552E-33));
#519=DIRECTION('',(5.56131819963552E-33,-1.22464679914735E-16,-1.));
#520=DIRECTION('',(5.56131819963552E-33,-1.22464679914735E-16,-1.));
#521=DIRECTION('',(1.,9.08232186375291E-17,-5.56131819963552E-33));
#522=DIRECTION('',(-5.56131819963552E-33,1.22464679914735E-16,1.));
#523=DIRECTION('',(1.,9.08232186375291E-17,-5.56131819963552E-33));
#524=DIRECTION('',(-5.56131819963552E-33,1.22464679914735E-16,1.));
#525=DIRECTION('',(1.,9.08232186375291E-17,-5.56131819963552E-33));
#526=DIRECTION('',(5.56131819963552E-33,-1.22464679914735E-16,-1.));
#527=DIRECTION('',(5.56131819963552E-33,-1.22464679914735E-16,-1.));
#528=DIRECTION('',(1.,9.08232186375291E-17,-5.56131819963552E-33));
#529=DIRECTION('',(-5.56131819963552E-33,1.22464679914735E-16,1.));
#530=DIRECTION('',(1.,9.08232186375291E-17,-5.56131819963552E-33));
#531=DIRECTION('',(-5.56131819963552E-33,1.22464679914735E-16,1.));
#532=DIRECTION('',(1.,9.08232186375291E-17,-5.56131819963552E-33));
#533=DIRECTION('',(5.56131819963552E-33,-1.22464679914735E-16,-1.));
#534=DIRECTION('',(5.56131819963552E-33,-1.22464679914735E-16,-1.));
#535=DIRECTION('',(1.,9.08232186375291E-17,-5.56131819963552E-33));
#536=DIRECTION('',(-5.56131819963552E-33,1.22464679914735E-16,1.));
#537=DIRECTION('',(1.,9.08232186375291E-17,-5.56131819963552E-33));
#538=DIRECTION('',(-5.56131819963552E-33,1.22464679914735E-16,1.));
#539=DIRECTION('',(1.,9.08232186375291E-17,-5.56131819963552E-33));
#540=DIRECTION('',(5.56131819963552E-33,-1.22464679914735E-16,-1.));
#541=DIRECTION('',(5.56131819963552E-33,-1.22464679914735E-16,-1.));
#542=DIRECTION('',(1.,9.08232186375291E-17,-5.56131819963552E-33));
#543=DIRECTION('',(5.56131819963552E-33,-1.22464679914735E-16,-1.));
#544=DIRECTION('',(1.,9.08232186375291E-17,-5.56131819963552E-33));
#545=DIRECTION('',(5.56131819963552E-33,-1.22464679914735E-16,-1.));
#546=DIRECTION('',(1.,9.08232186375291E-17,-5.56131819963552E-33));
#547=DIRECTION('',(5.56131819963552E-33,-1.22464679914735E-16,-1.));
#548=DIRECTION('',(5.56131819963552E-33,-1.22464679914735E-16,-1.));
#549=DIRECTION('',(1.,9.08232186375291E-17,-5.56131819963552E-33));
#550=DIRECTION('',(5.56131819963552E-33,-1.22464679914735E-16,-1.));
#551=DIRECTION('',(1.,9.08232186375291E-17,-5.56131819963552E-33));
#552=DIRECTION('',(5.56131819963552E-33,-1.22464679914735E-16,-1.));
#553=DIRECTION('',(1.,9.08232186375291E-17,-5.56131819963552E-33));
#554=DIRECTION('',(5.56131819963552E-33,-1.22464679914735E-16,-1.));
#555=DIRECTION('',(5.56131819963552E-33,-1.22464679914735E-16,-1.));
#556=DIRECTION('',(1.,9.08232186375291E-17,-5.56131819963552E-33));
#557=DIRECTION('',(-5.56131819963552E-33,1.22464679914735E-16,1.));
#558=DIRECTION('',(1.,9.08232186375291E-17,-5.56131819963552E-33));
#559=DIRECTION('',(-5.56131819963552E-33,1.22464679914735E-16,1.));
#560=DIRECTION('',(1.,9.08232186375291E-17,-5.56131819963552E-33));
#561=DIRECTION('',(5.56131819963552E-33,-1.22464679914735E-16,-1.));
#562=DIRECTION('',(5.56131819963552E-33,-1.22464679914735E-16,-1.));
#563=DIRECTION('',(1.,9.08232186375291E-17,-5.56131819963552E-33));
#564=DIRECTION('',(-5.56131819963552E-33,1.22464679914735E-16,1.));
#565=DIRECTION('',(1.,9.08232186375291E-17,-5.56131819963552E-33));
#566=DIRECTION('',(-5.56131819963552E-33,1.22464679914735E-16,1.));
#567=DIRECTION('',(1.,9.08232186375291E-17,-5.56131819963552E-33));
#568=DIRECTION('',(5.56131819963552E-33,-1.22464679914735E-16,-1.));
#569=DIRECTION('',(5.56131819963552E-33,-1.22464679914735E-16,-1.));
#570=DIRECTION('',(1.,9.08232186375291E-17,-5.56131819963552E-33));
#571=DIRECTION('',(-5.56131819963552E-33,1.22464679914735E-16,1.));
#572=DIRECTION('',(1.,9.08232186375291E-17,-5.56131819963552E-33));
#573=DIRECTION('',(-5.56131819963552E-33,1.22464679914735E-16,1.));
#574=DIRECTION('',(1.,9.08232186375291E-17,-5.56131819963552E-33));
#575=DIRECTION('',(5.56131819963552E-33,-1.22464679914735E-16,-1.));
#576=DIRECTION('',(5.56131819963552E-33,-1.22464679914735E-16,-1.));
#577=DIRECTION('',(1.,9.08232186375291E-17,-5.56131819963552E-33));
#578=DIRECTION('',(5.56131819963552E-33,-1.22464679914735E-16,-1.));
#579=DIRECTION('',(1.,9.08232186375291E-17,-5.56131819963552E-33));
#580=DIRECTION('',(5.56131819963552E-33,-1.22464679914735E-16,-1.));
#581=DIRECTION('',(1.,9.08232186375291E-17,-5.56131819963552E-33));
#582=DIRECTION('',(5.56131819963552E-33,-1.22464679914735E-16,-1.));
#583=DIRECTION('',(5.56131819963552E-33,-1.22464679914735E-16,-1.));
#584=DIRECTION('',(1.,9.08232186375291E-17,-5.56131819963552E-33));
#585=DIRECTION('',(5.56131819963552E-33,-1.22464679914735E-16,-1.));
#586=DIRECTION('',(1.,9.08232186375291E-17,-5.56131819963552E-33));
#587=DIRECTION('',(5.56131819963552E-33,-1.22464679914735E-16,-1.));
#588=DIRECTION('',(1.,9.08232186375291E-17,-5.56131819963552E-33));
#589=DIRECTION('',(5.56131819963552E-33,-1.22464679914735E-16,-1.));
#590=DIRECTION('',(5.56131819963552E-33,-1.22464679914735E-16,-1.));
#591=DIRECTION('',(1.,9.08232186375291E-17,-5.56131819963552E-33));
#592=DIRECTION('',(-5.56131819963552E-33,1.22464679914735E-16,1.));
#593=DIRECTION('',(1.,9.08232186375291E-17,-5.56131819963552E-33));
#594=DIRECTION('',(-5.56131819963552E-33,1.22464679914735E-16,1.));
#595=DIRECTION('',(1.,9.08232186375291E-17,-5.56131819963552E-33));
#596=DIRECTION('',(5.56131819963552E-33,-1.22464679914735E-16,-1.));
#597=DIRECTION('',(5.56131819963552E-33,-1.22464679914735E-16,-1.));
#598=DIRECTION('',(1.,9.08232186375291E-17,-5.56131819963552E-33));
#599=DIRECTION('',(-5.56131819963552E-33,1.22464679914735E-16,1.));
#600=DIRECTION('',(1.,9.08232186375291E-17,-5.56131819963552E-33));
#601=DIRECTION('',(-5.56131819963552E-33,1.22464679914735E-16,1.));
#602=DIRECTION('',(1.,9.08232186375291E-17,-5.56131819963552E-33));
#603=DIRECTION('',(5.56131819963552E-33,-1.22464679914735E-16,-1.));
#604=DIRECTION('',(5.56131819963552E-33,-1.22464679914735E-16,-1.));
#605=DIRECTION('',(1.,9.08232186375291E-17,-5.56131819963552E-33));
#606=DIRECTION('',(-5.56131819963552E-33,1.22464679914735E-16,1.));
#607=DIRECTION('',(1.,9.08232186375291E-17,-5.56131819963552E-33));
#608=DIRECTION('',(-5.56131819963552E-33,1.22464679914735E-16,1.));
#609=DIRECTION('',(1.,9.08232186375291E-17,-5.56131819963552E-33));
#610=DIRECTION('',(5.56131819963552E-33,-1.22464679914735E-16,-1.));
#611=DIRECTION('',(5.56131819963552E-33,-1.22464679914735E-16,-1.));
#612=DIRECTION('',(1.,9.08232186375291E-17,-5.56131819963552E-33));
#613=DIRECTION('',(5.56131819963552E-33,-1.22464679914735E-16,-1.));
#614=DIRECTION('',(1.,9.08232186375291E-17,-5.56131819963552E-33));
#615=DIRECTION('',(5.56131819963552E-33,-1.22464679914735E-16,-1.));
#616=DIRECTION('',(1.,9.08232186375291E-17,-5.56131819963552E-33));
#617=DIRECTION('',(5.56131819963552E-33,-1.22464679914735E-16,-1.));
#618=DIRECTION('',(1.,9.08232186375291E-17,-5.56131819963552E-33));
#619=DIRECTION('',(5.56131819963552E-33,-1.22464679914735E-16,-1.));
#620=DIRECTION('',(1.,9.08232186375291E-17,-5.56131819963552E-33));
#621=CARTESIAN_POINT('',(0.,0.,0.));
#622=CARTESIAN_POINT('',(-0.0159578381694703,0.00535313230377941,-0.0232000086266577));
#623=CARTESIAN_POINT('',(-0.0159578381694703,0.00535313230377941,-0.0240000086266577));
#624=CARTESIAN_POINT('',(-0.0239780722020332,0.000472680813273428,-0.0240000086266577));
#625=CARTESIAN_POINT('',(-0.0244320714730128,0.00131205192776685,-0.0240000086266577));
#626=CARTESIAN_POINT('',(-0.0239780722020332,0.000472680813273428,-0.0232000086266577));
#627=CARTESIAN_POINT('',(-0.0239780722020332,0.000472680813273428,-0.0232000086266577));
#628=CARTESIAN_POINT('',(-0.0159578381694703,0.00535313230377941,-0.0232000086266577));
#629=CARTESIAN_POINT('',(-0.0244320714730128,0.00131205192776685,-0.0232000086266577));
#630=CARTESIAN_POINT('',(-0.0244320714730128,0.00131205192776685,-0.0232000086266577));
#631=CARTESIAN_POINT('',(-0.0279085310089091,-0.000345756148232046,-0.0232000086266577));
#632=CARTESIAN_POINT('',(-0.0279085310089091,-0.000345756148232046,-0.0240000086266577));
#633=CARTESIAN_POINT('',(-0.0247974938519249,0.00192482666889614,-0.0240000086266577));
#634=CARTESIAN_POINT('',(-0.0279085310089091,-0.000345756148232046,-0.0232000086266577));
#635=CARTESIAN_POINT('',(-0.0247974938519249,0.00192482666889614,-0.0232000086266577));
#636=CARTESIAN_POINT('',(-0.0247974938519249,0.00192482666889614,-0.0232000086266577));
#637=CARTESIAN_POINT('',(-0.0286660217196125,-0.000898608880317316,-0.0232000086266577));
#638=CARTESIAN_POINT('',(-0.0286660217196125,-0.000898608880317317,-0.0240000086266577));
#639=CARTESIAN_POINT('',(-0.0258425942658156,0.00296992528386464,-0.0240000086266577));
#640=CARTESIAN_POINT('',(-0.0286660217196125,-0.000898608880317316,-0.0232000086266577));
#641=CARTESIAN_POINT('',(-0.0258425942658156,0.00296992528386464,-0.0232000086266577));
#642=CARTESIAN_POINT('',(-0.0258425942658156,0.00296992528386464,-0.0232000086266577));
#643=CARTESIAN_POINT('',(-0.0281131704240624,-0.000141116733079189,-0.0232000086266577));
#644=CARTESIAN_POINT('',(-0.0281131704240624,-0.000141116733079189,-0.0240000086266577));
#645=CARTESIAN_POINT('',(-0.0264553623480633,0.0033353428028174,-0.0240000086266577));
#646=CARTESIAN_POINT('',(-0.0281131704240624,-0.000141116733079189,-0.0232000086266577));
#647=CARTESIAN_POINT('',(-0.0264553623480633,0.0033353428028174,-0.0232000086266577));
#648=CARTESIAN_POINT('',(-0.0264553623480633,0.0033353428028174,-0.0232000086266577));
#649=CARTESIAN_POINT('',(-0.0224142819720516,0.0118095761063579,-0.0232000086266577));
#650=CARTESIAN_POINT('',(-0.0224142819720516,0.0118095761063579,-0.0240000086266577));
#651=CARTESIAN_POINT('',(-0.0272947334625568,0.00378934207379698,-0.0240000086266577));
#652=CARTESIAN_POINT('',(-0.0224142819720516,0.0118095761063579,-0.0232000086266577));
#653=CARTESIAN_POINT('',(-0.0272947334625568,0.00378934207379698,-0.0232000086266577));
#654=CARTESIAN_POINT('',(-0.0272947334625568,0.00378934207379698,-0.0232000086266577));
#655=CARTESIAN_POINT('',(-0.0224142819720513,-0.00423089195876463,-0.0232000086266577));
#656=CARTESIAN_POINT('',(-0.0224142819720513,-0.00423089195876463,-0.0240000086266577));
#657=CARTESIAN_POINT('',(-0.0264553623480625,0.00424334134477486,-0.0240000086266577));
#658=CARTESIAN_POINT('',(-0.0224142819720513,-0.00423089195876463,-0.0232000086266577));
#659=CARTESIAN_POINT('',(-0.0264553623480625,0.00424334134477486,-0.0232000086266577));
#660=CARTESIAN_POINT('',(-0.0264553623480625,0.00424334134477486,-0.0232000086266577));
#661=CARTESIAN_POINT('',(-0.0281131704240625,0.00771980088067333,-0.0232000086266577));
#662=CARTESIAN_POINT('',(-0.0281131704240625,0.00771980088067333,-0.0240000086266577));
#663=CARTESIAN_POINT('',(-0.0258425876069344,0.00460876372368843,-0.0240000086266577));
#664=CARTESIAN_POINT('',(-0.0281131704240625,0.00771980088067333,-0.0232000086266577));
#665=CARTESIAN_POINT('',(-0.0258425876069344,0.00460876372368843,-0.0232000086266577));
#666=CARTESIAN_POINT('',(-0.0258425876069344,0.00460876372368843,-0.0232000086266577));
#667=CARTESIAN_POINT('',(-0.0286660231561472,0.00847729159137609,-0.0232000086266577));
#668=CARTESIAN_POINT('',(-0.0286660231561472,0.00847729159137609,-0.0240000086266577));
#669=CARTESIAN_POINT('',(-0.0247974889919652,0.00565386413757975,-0.0240000086266577));
#670=CARTESIAN_POINT('',(-0.0286660231561472,0.00847729159137609,-0.0232000086266577));
#671=CARTESIAN_POINT('',(-0.0247974889919652,0.00565386413757975,-0.0232000086266577));
#672=CARTESIAN_POINT('',(-0.0247974889919652,0.00565386413757975,-0.0232000086266577));
#673=CARTESIAN_POINT('',(-0.0279085310089088,0.00792444029582593,-0.0232000086266577));
#674=CARTESIAN_POINT('',(-0.0279085310089088,0.00792444029582593,-0.0240000086266577));
#675=CARTESIAN_POINT('',(-0.0244320714730128,0.00626663221982708,-0.0240000086266577));
#676=CARTESIAN_POINT('',(-0.0279085310089088,0.00792444029582593,-0.0232000086266577));
#677=CARTESIAN_POINT('',(-0.0244320714730128,0.00626663221982708,-0.0232000086266577));
#678=CARTESIAN_POINT('',(-0.0244320714730128,0.00626663221982708,-0.0232000086266577));
#679=CARTESIAN_POINT('',(-0.0159578381694712,0.00222555184381486,-0.0232000086266577));
#680=CARTESIAN_POINT('',(-0.0159578381694712,0.00222555184381486,-0.0240000086266577));
#681=CARTESIAN_POINT('',(-0.0239780722020332,0.00710600333432054,-0.0240000086266577));
#682=CARTESIAN_POINT('',(-0.0159578381694712,0.00222555184381486,-0.0232000086266577));
#683=CARTESIAN_POINT('',(-0.0239780722020332,0.00710600333432054,-0.0232000086266577));
#684=CARTESIAN_POINT('',(-0.0239780722020332,0.00710600333432054,-0.0232000086266577));
#685=CARTESIAN_POINT('',(-0.0319983062345873,0.0022255518438191,-0.0232000086266577));
#686=CARTESIAN_POINT('',(-0.0319983062345873,0.0022255518438191,-0.0240000086266577));
#687=CARTESIAN_POINT('',(-0.0235240729310553,0.00626663221982634,-0.0240000086266577));
#688=CARTESIAN_POINT('',(-0.0319983062345873,0.0022255518438191,-0.0232000086266577));
#689=CARTESIAN_POINT('',(-0.0235240729310553,0.00626663221982634,-0.0232000086266577));
#690=CARTESIAN_POINT('',(-0.0235240729310553,0.00626663221982634,-0.0232000086266577));
#691=CARTESIAN_POINT('',(-0.0200476133951573,0.00792444029582606,-0.0232000086266577));
#692=CARTESIAN_POINT('',(-0.0200476133951573,0.00792444029582606,-0.0240000086266577));
#693=CARTESIAN_POINT('',(-0.0231586505521416,0.00565385747869801,-0.0240000086266577));
#694=CARTESIAN_POINT('',(-0.0200476133951573,0.00792444029582606,-0.0232000086266577));
#695=CARTESIAN_POINT('',(-0.0231586505521416,0.00565385747869801,-0.0232000086266577));
#696=CARTESIAN_POINT('',(-0.0231586505521416,0.00565385747869801,-0.0232000086266577));
#697=CARTESIAN_POINT('',(-0.0192901226844537,0.00847729302791131,-0.0232000086266577));
#698=CARTESIAN_POINT('',(-0.0192901226844537,0.00847729302791131,-0.0240000086266577));
#699=CARTESIAN_POINT('',(-0.0221135501382511,0.00460875886372963,-0.0240000086266577));
#700=CARTESIAN_POINT('',(-0.0192901226844537,0.00847729302791131,-0.0232000086266577));
#701=CARTESIAN_POINT('',(-0.0221135501382511,0.00460875886372963,-0.0232000086266577));
#702=CARTESIAN_POINT('',(-0.0221135501382511,0.00460875886372963,-0.0232000086266577));
#703=CARTESIAN_POINT('',(-0.0198429739800038,0.00771980088067338,-0.0232000086266577));
#704=CARTESIAN_POINT('',(-0.0198429739800038,0.00771980088067338,-0.0240000086266577));
#705=CARTESIAN_POINT('',(-0.021500782056003,0.00424334134477653,-0.0240000086266577));
#706=CARTESIAN_POINT('',(-0.0198429739800038,0.00771980088067338,-0.0232000086266577));
#707=CARTESIAN_POINT('',(-0.021500782056003,0.00424334134477653,-0.0232000086266577));
#708=CARTESIAN_POINT('',(-0.021500782056003,0.00424334134477653,-0.0232000086266577));
#709=CARTESIAN_POINT('',(-0.0255418624320141,-0.00423089195876267,-0.0232000086266577));
#710=CARTESIAN_POINT('',(-0.0255418624320141,-0.00423089195876267,-0.0240000086266577));
#711=CARTESIAN_POINT('',(-0.0206614109415096,0.00378934207379698,-0.0240000086266577));
#712=CARTESIAN_POINT('',(-0.0255418624320141,-0.00423089195876267,-0.0232000086266577));
#713=CARTESIAN_POINT('',(-0.0206614109415096,0.00378934207379698,-0.0232000086266577));
#714=CARTESIAN_POINT('',(-0.0206614109415096,0.00378934207379698,-0.0232000086266577));
#715=CARTESIAN_POINT('',(-0.0255418624320126,0.0118095761063539,-0.0232000086266577));
#716=CARTESIAN_POINT('',(-0.0255418624320126,0.0118095761063539,-0.0240000086266577));
#717=CARTESIAN_POINT('',(-0.0215007820560038,0.00333534280281914,-0.0240000086266577));
#718=CARTESIAN_POINT('',(-0.0255418624320126,0.0118095761063539,-0.0232000086266577));
#719=CARTESIAN_POINT('',(-0.0215007820560038,0.00333534280281914,-0.0232000086266577));
#720=CARTESIAN_POINT('',(-0.0215007820560038,0.00333534280281914,-0.0232000086266577));
#721=CARTESIAN_POINT('',(-0.0198429739800038,-0.000141116733079394,-0.0232000086266577));
#722=CARTESIAN_POINT('',(-0.0198429739800038,-0.000141116733079394,-0.0240000086266577));
#723=CARTESIAN_POINT('',(-0.0221135567971323,0.0029699204239053,-0.0240000086266577));
#724=CARTESIAN_POINT('',(-0.0198429739800038,-0.000141116733079394,-0.0232000086266577));
#725=CARTESIAN_POINT('',(-0.0221135567971323,0.0029699204239053,-0.0232000086266577));
#726=CARTESIAN_POINT('',(-0.0221135567971323,0.0029699204239053,-0.0232000086266577));
#727=CARTESIAN_POINT('',(-0.0192901212479187,-0.000898607443782493,-0.0232000086266577));
#728=CARTESIAN_POINT('',(-0.0192901212479187,-0.000898607443782493,-0.0240000086266577));
#729=CARTESIAN_POINT('',(-0.0231586554121007,0.00192482001001469,-0.0240000086266577));
#730=CARTESIAN_POINT('',(-0.0192901212479187,-0.000898607443782493,-0.0232000086266577));
#731=CARTESIAN_POINT('',(-0.0231586554121007,0.00192482001001469,-0.0232000086266577));
#732=CARTESIAN_POINT('',(-0.0231586554121007,0.00192482001001469,-0.0232000086266577));
#733=CARTESIAN_POINT('',(-0.0200476133951569,-0.00034575614823235,-0.0232000086266577));
#734=CARTESIAN_POINT('',(-0.0200476133951569,-0.00034575614823235,-0.0240000086266577));
#735=CARTESIAN_POINT('',(-0.0235240729310536,0.0013120519277668,-0.0240000086266577));
#736=CARTESIAN_POINT('',(-0.0200476133951569,-0.00034575614823235,-0.0232000086266577));
#737=CARTESIAN_POINT('',(-0.0235240729310536,0.0013120519277668,-0.0232000086266577));
#738=CARTESIAN_POINT('',(-0.0235240729310536,0.0013120519277668,-0.0232000086266577));
#739=CARTESIAN_POINT('',(-0.031998306234587,0.00535313230377482,-0.0232000086266577));
#740=CARTESIAN_POINT('',(-0.031998306234587,0.00535313230377482,-0.0240000086266577));
#741=CARTESIAN_POINT('',(-0.031998306234587,0.00535313230377482,-0.0232000086266577));
#742=CARTESIAN_POINT('',(1.77635683940025E-15,-0.00100021562487935,-0.0232000086266577));
#743=CARTESIAN_POINT('',(1.77635683940025E-15,-0.00100021562487935,-0.0240000086266577));
#744=MECHANICAL_DESIGN_GEOMETRIC_PRESENTATION_REPRESENTATION('',(#401),
#745);
#745=(
GEOMETRIC_REPRESENTATION_CONTEXT(3)
GLOBAL_UNCERTAINTY_ASSIGNED_CONTEXT((#746))
GLOBAL_UNIT_ASSIGNED_CONTEXT((#749,#748,#747))
REPRESENTATION_CONTEXT('ValinorStar2','TOP_LEVEL_ASSEMBLY_PART')
);
#746=UNCERTAINTY_MEASURE_WITH_UNIT(LENGTH_MEASURE(1.E-8),#749,
'DISTANCE_ACCURACY_VALUE','Maximum Tolerance applied to model');
#747=(
NAMED_UNIT(*)
SI_UNIT($,.STERADIAN.)
SOLID_ANGLE_UNIT()
);
#748=(
NAMED_UNIT(*)
PLANE_ANGLE_UNIT()
SI_UNIT($,.RADIAN.)
);
#749=(
LENGTH_UNIT()
NAMED_UNIT(*)
SI_UNIT($,.METRE.)
);
#750=PRODUCT_DEFINITION_SHAPE('','',#751);
#751=PRODUCT_DEFINITION('','',#753,#752);
#752=PRODUCT_DEFINITION_CONTEXT('',#759,'design');
#753=PRODUCT_DEFINITION_FORMATION_WITH_SPECIFIED_SOURCE('','',#755,
 .NOT_KNOWN.);
#754=PRODUCT_RELATED_PRODUCT_CATEGORY('','',(#755));
#755=PRODUCT('ValinorStar2','ValinorStar2','ValinorStar2',(#757));
#756=PRODUCT_CATEGORY('','');
#757=PRODUCT_CONTEXT('',#759,'mechanical');
#758=APPLICATION_PROTOCOL_DEFINITION('international standard',
'ap242_managed_model_based_3d_engineering',2020,#759);
#759=APPLICATION_CONTEXT('managed model based 3d engineering');
ENDSEC;
END-ISO-10303-21;
