ISO-10303-21;
HEADER;
/* Generated by software containing ST-Developer
 * from STEP Tools, Inc. (www.steptools.com) 
 */
/* OPTION: using custom renumber hook */

FILE_DESCRIPTION(
/* description */ ('STEP AP242 Edition 2',
'CAx-IF Rec.Pracs.---Representation and Presentation of Product Manufa
cturing Information (PMI)---4.0---2014-10-13',
'CAx-IF Rec.Pracs.---3D Tessellated Geometry---0.4---2014-09-14','2;1',
'CAx-IF Rec.Pracs.---User Defined Attributes---1.5---2016-08-15'),
/* implementation_level */ '2;1');

FILE_NAME(
/* name */ 'CompleteShell - GitLogo',
/* time_stamp */ '2026-09-23T14:41:02Z',
/* author */ (''),
/* organization */ (''),
/* preprocessor_version */ 'ST-DEVELOPER v20',
/* originating_system */ 'ONSHAPE BY PTC INC, 1.221',
/* authorisation */ '  ');

FILE_SCHEMA (('AP242_MANAGED_MODEL_BASED_3D_ENGINEERING_MIM_LF { 1 0 10303 442 3 1 4 }'));
ENDSEC;

DATA;
#10=SHAPE_REPRESENTATION_RELATIONSHIP('','',#524,#11);
#11=ADVANCED_BREP_SHAPE_REPRESENTATION('',(#522),#1234);
#12=LINE('',#773,#35);
#13=LINE('',#786,#36);
#14=LINE('',#809,#37);
#15=LINE('',#826,#38);
#16=LINE('',#840,#39);
#17=LINE('',#856,#40);
#18=LINE('',#871,#41);
#19=LINE('',#889,#42);
#20=LINE('',#943,#43);
#21=LINE('',#957,#44);
#22=LINE('',#971,#45);
#23=LINE('',#1009,#46);
#24=LINE('',#1033,#47);
#25=LINE('',#1049,#48);
#26=LINE('',#1065,#49);
#27=LINE('',#1080,#50);
#28=LINE('',#1100,#51);
#29=LINE('',#1117,#52);
#30=LINE('',#1143,#53);
#31=LINE('',#1165,#54);
#32=LINE('',#1182,#55);
#33=LINE('',#1197,#56);
#34=LINE('',#1213,#57);
#35=VECTOR('',#532,1.);
#36=VECTOR('',#533,1.);
#37=VECTOR('',#534,1.);
#38=VECTOR('',#535,1.);
#39=VECTOR('',#536,1.);
#40=VECTOR('',#537,1.);
#41=VECTOR('',#538,1.);
#42=VECTOR('',#539,1.);
#43=VECTOR('',#540,1.);
#44=VECTOR('',#541,1.);
#45=VECTOR('',#542,1.);
#46=VECTOR('',#543,1.);
#47=VECTOR('',#544,1.);
#48=VECTOR('',#545,1.);
#49=VECTOR('',#546,1.);
#50=VECTOR('',#547,1.);
#51=VECTOR('',#548,1.);
#52=VECTOR('',#549,1.);
#53=VECTOR('',#550,1.);
#54=VECTOR('',#551,1.);
#55=VECTOR('',#552,1.);
#56=VECTOR('',#553,1.);
#57=VECTOR('',#554,1.);
#58=B_SPLINE_SURFACE_WITH_KNOTS('',3,1,((#723,#724),(#725,#726),(#727,#728),
(#729,#730),(#731,#732),(#733,#734),(#735,#736),(#737,#738),(#739,#740)),
 .SURF_OF_LINEAR_EXTRUSION.,.F.,.F.,.F.,(4,1,1,1,1,1,4),(2,2),(-0.00540837051253679,
0.121023992042509,0.247456354597554,0.500321079707645,0.753185804817735,
0.879618167372781,1.00605052992783),(0.,1.),.UNSPECIFIED.);
#59=B_SPLINE_SURFACE_WITH_KNOTS('',3,1,((#760,#761),(#762,#763),(#764,#765),
(#766,#767)),.SURF_OF_LINEAR_EXTRUSION.,.F.,.F.,.F.,(4,4),(2,2),(0.,0.998236687143989),
(0.,1.),.PIECEWISE_BEZIER_KNOTS.);
#60=B_SPLINE_SURFACE_WITH_KNOTS('',3,1,((#774,#775),(#776,#777),(#778,#779),
(#780,#781),(#782,#783),(#784,#785)),.SURF_OF_LINEAR_EXTRUSION.,.F.,.F.,
 .F.,(4,1,1,4),(2,2),(0.00321578489056324,0.504431268611274,0.755039010471629,
1.00564675233198),(0.,1.),.UNSPECIFIED.);
#61=B_SPLINE_SURFACE_WITH_KNOTS('',3,1,((#795,#796),(#797,#798),(#799,#800),
(#801,#802),(#803,#804),(#805,#806),(#807,#808)),
 .SURF_OF_LINEAR_EXTRUSION.,.F.,.F.,.F.,(4,1,1,1,4),(2,2),(0.00231383444022699,
0.125709462253895,0.249105090067564,0.495896345694901,0.989478856949575),
(0.,1.),.UNSPECIFIED.);
#62=B_SPLINE_SURFACE_WITH_KNOTS('',3,1,((#818,#819),(#820,#821),(#822,#823),
(#824,#825)),.SURF_OF_LINEAR_EXTRUSION.,.F.,.F.,.F.,(4,4),(2,2),(0.00200037320008883,
1.00386495577101),(0.,1.),.PIECEWISE_BEZIER_KNOTS.);
#63=B_SPLINE_SURFACE_WITH_KNOTS('',3,1,((#832,#833),(#834,#835),(#836,#837),
(#838,#839)),.SURF_OF_LINEAR_EXTRUSION.,.F.,.F.,.F.,(4,4),(2,2),(0.227381192648438,
0.998516605594567),(0.,1.),.PIECEWISE_BEZIER_KNOTS.);
#64=B_SPLINE_SURFACE_WITH_KNOTS('',3,1,((#846,#847),(#848,#849),(#850,#851),
(#852,#853),(#854,#855)),.SURF_OF_LINEAR_EXTRUSION.,.F.,.F.,.F.,(4,1,4),
(2,2),(0.,0.472736292331814,0.945472584663628),(0.,1.),.UNSPECIFIED.);
#65=B_SPLINE_SURFACE_WITH_KNOTS('',3,1,((#863,#864),(#865,#866),(#867,#868),
(#869,#870)),.SURF_OF_LINEAR_EXTRUSION.,.F.,.F.,.F.,(4,4),(2,2),(0.0398520518762081,
1.),(0.,1.),.PIECEWISE_BEZIER_KNOTS.);
#66=B_SPLINE_SURFACE_WITH_KNOTS('',3,1,((#877,#878),(#879,#880),(#881,#882),
(#883,#884),(#885,#886),(#887,#888)),.SURF_OF_LINEAR_EXTRUSION.,.F.,.F.,
 .F.,(4,1,1,4),(2,2),(-0.0203199382124569,0.208468634849904,0.437257207912265,
0.894834354036987),(0.,1.),.UNSPECIFIED.);
#67=B_SPLINE_SURFACE_WITH_KNOTS('',3,1,((#897,#898),(#899,#900),(#901,#902),
(#903,#904),(#905,#906),(#907,#908),(#909,#910),(#911,#912),(#913,#914),
(#915,#916),(#917,#918),(#919,#920),(#921,#922),(#923,#924),(#925,#926),
(#927,#928)),.SURF_OF_LINEAR_EXTRUSION.,.F.,.F.,.F.,(4,1,1,1,1,1,1,1,1,
1,1,1,1,4),(2,2),(0.0128116477892705,0.303163248828167,0.593514849867064,
0.883866450905961,1.17421805194486,1.75492125402265,2.33562445610045,2.91632765817824,
3.49703086025603,4.65843726441162,5.81984366856721,6.9812500727228,8.14265647687839,
9.30406288103397),(0.,1.),.UNSPECIFIED.);
#68=B_SPLINE_SURFACE_WITH_KNOTS('',3,1,((#949,#950),(#951,#952),(#953,#954),
(#955,#956)),.SURF_OF_LINEAR_EXTRUSION.,.F.,.F.,.F.,(4,4),(2,2),(0.,0.964818837286327),
(0.,1.),.PIECEWISE_BEZIER_KNOTS.);
#69=B_SPLINE_SURFACE_WITH_KNOTS('',3,1,((#963,#964),(#965,#966),(#967,#968),
(#969,#970)),.SURF_OF_LINEAR_EXTRUSION.,.F.,.F.,.F.,(4,4),(2,2),(0.0349832475059917,
1.),(0.,1.),.PIECEWISE_BEZIER_KNOTS.);
#70=B_SPLINE_SURFACE_WITH_KNOTS('',3,1,((#977,#978),(#979,#980),(#981,#982),
(#983,#984),(#985,#986),(#987,#988),(#989,#990),(#991,#992),(#993,#994),
(#995,#996),(#997,#998),(#999,#1000),(#1001,#1002),(#1003,#1004),(#1005,
#1006),(#1007,#1008)),.SURF_OF_LINEAR_EXTRUSION.,.F.,.F.,.F.,(4,1,1,1,1,
1,1,1,1,1,1,1,1,4),(2,2),(-8.54327654525143,-7.3519640219011,-6.16065149855076,
-4.96933897520043,-3.7780264518501,-2.58671392849977,-1.9910576668246,-1.39540140514943,
-0.799745143474267,-0.204088881799101,0.0937392490384822,0.391567379876065,
0.689395510713648,0.987223641551232),(0.,1.),.UNSPECIFIED.);
#71=B_SPLINE_SURFACE_WITH_KNOTS('',3,1,((#1021,#1022),(#1023,#1024),(#1025,
#1026),(#1027,#1028),(#1029,#1030),(#1031,#1032)),
 .SURF_OF_LINEAR_EXTRUSION.,.F.,.F.,.F.,(4,1,1,4),(2,2),(0.105131502076997,
0.562904304216223,0.791790705285836,1.02067710635545),(0.,1.),
 .UNSPECIFIED.);
#72=B_SPLINE_SURFACE_WITH_KNOTS('',3,1,((#1041,#1042),(#1043,#1044),(#1045,
#1046),(#1047,#1048)),.SURF_OF_LINEAR_EXTRUSION.,.F.,.F.,.F.,(4,4),(2,2),
(0.,0.960200293598529),(0.,1.),.PIECEWISE_BEZIER_KNOTS.);
#73=B_SPLINE_SURFACE_WITH_KNOTS('',3,1,((#1055,#1056),(#1057,#1058),(#1059,
#1060),(#1061,#1062),(#1063,#1064)),.SURF_OF_LINEAR_EXTRUSION.,.F.,.F.,
 .F.,(4,1,4),(2,2),(0.054326660979215,0.527163330489609,1.),(0.,1.),
 .UNSPECIFIED.);
#74=B_SPLINE_SURFACE_WITH_KNOTS('',3,1,((#1072,#1073),(#1074,#1075),(#1076,
#1077),(#1078,#1079)),.SURF_OF_LINEAR_EXTRUSION.,.F.,.F.,.F.,(4,4),(2,2),
(0.0534445676057782,0.716670207566362),(0.,1.),.PIECEWISE_BEZIER_KNOTS.);
#75=B_SPLINE_SURFACE_WITH_KNOTS('',3,1,((#1086,#1087),(#1088,#1089),(#1090,
#1091),(#1092,#1093),(#1094,#1095),(#1096,#1097),(#1098,#1099)),
 .SURF_OF_LINEAR_EXTRUSION.,.F.,.F.,.F.,(4,1,1,1,4),(2,2),(-0.00039706170249812,
0.117854056264604,0.236105174231706,0.47260741016591,0.945611882034318),
(0.,1.),.UNSPECIFIED.);
#76=B_SPLINE_SURFACE_WITH_KNOTS('',3,1,((#1109,#1110),(#1111,#1112),(#1113,
#1114),(#1115,#1116)),.SURF_OF_LINEAR_EXTRUSION.,.F.,.F.,.F.,(4,4),(2,2),
(0.,1.00197551983372),(0.,1.),.PIECEWISE_BEZIER_KNOTS.);
#77=B_SPLINE_SURFACE_WITH_KNOTS('',3,1,((#1123,#1124),(#1125,#1126),(#1127,
#1128),(#1129,#1130),(#1131,#1132),(#1133,#1134),(#1135,#1136),(#1137,#1138),
(#1139,#1140),(#1141,#1142)),.SURF_OF_LINEAR_EXTRUSION.,.F.,.F.,.F.,(4,
1,1,1,1,1,1,4),(2,2),(0.00140867864983182,0.251056508987374,0.375880424156145,
0.500704339324916,0.625528254493687,0.750352169662458,0.875176084831229,
1.),(0.,1.),.UNSPECIFIED.);
#78=B_SPLINE_SURFACE_WITH_KNOTS('',3,1,((#1155,#1156),(#1157,#1158),(#1159,
#1160),(#1161,#1162),(#1163,#1164)),.SURF_OF_LINEAR_EXTRUSION.,.F.,.F.,
 .F.,(4,1,4),(2,2),(0.00364074897940241,0.501092922932793,0.998545096886183),
(0.,1.),.UNSPECIFIED.);
#79=B_SPLINE_SURFACE_WITH_KNOTS('',3,1,((#1172,#1173),(#1174,#1175),(#1176,
#1177),(#1178,#1179),(#1180,#1181)),.SURF_OF_LINEAR_EXTRUSION.,.F.,.F.,
 .F.,(4,1,4),(2,2),(0.0301513744934525,0.514249512816766,0.99834765114008),
(0.,1.),.UNSPECIFIED.);
#80=B_SPLINE_SURFACE_WITH_KNOTS('',3,1,((#1189,#1190),(#1191,#1192),(#1193,
#1194),(#1195,#1196)),.SURF_OF_LINEAR_EXTRUSION.,.F.,.F.,.F.,(4,4),(2,2),
(0.0289087455376528,0.908629956948157),(0.,1.),.PIECEWISE_BEZIER_KNOTS.);
#81=B_SPLINE_SURFACE_WITH_KNOTS('',3,1,((#1203,#1204),(#1205,#1206),(#1207,
#1208),(#1209,#1210),(#1211,#1212)),.SURF_OF_LINEAR_EXTRUSION.,.F.,.F.,
 .F.,(4,1,4),(2,2),(0.0138575209055352,0.407527560950398,0.801197600995261),
(0.,1.),.UNSPECIFIED.);
#82=B_SPLINE_SURFACE_WITH_KNOTS('',3,1,((#1220,#1221),(#1222,#1223),(#1224,
#1225),(#1226,#1227)),.SURF_OF_LINEAR_EXTRUSION.,.F.,.F.,.F.,(4,4),(2,2),
(0.000299836018445895,0.996660338733802),(0.,1.),
 .PIECEWISE_BEZIER_KNOTS.);
#83=ORIENTED_EDGE('',*,*,#241,.F.);
#84=ORIENTED_EDGE('',*,*,#242,.F.);
#85=ORIENTED_EDGE('',*,*,#243,.F.);
#86=ORIENTED_EDGE('',*,*,#244,.F.);
#87=ORIENTED_EDGE('',*,*,#245,.F.);
#88=ORIENTED_EDGE('',*,*,#246,.F.);
#89=ORIENTED_EDGE('',*,*,#247,.F.);
#90=ORIENTED_EDGE('',*,*,#248,.F.);
#91=ORIENTED_EDGE('',*,*,#249,.F.);
#92=ORIENTED_EDGE('',*,*,#250,.F.);
#93=ORIENTED_EDGE('',*,*,#251,.F.);
#94=ORIENTED_EDGE('',*,*,#252,.F.);
#95=ORIENTED_EDGE('',*,*,#253,.F.);
#96=ORIENTED_EDGE('',*,*,#254,.F.);
#97=ORIENTED_EDGE('',*,*,#255,.F.);
#98=ORIENTED_EDGE('',*,*,#256,.T.);
#99=ORIENTED_EDGE('',*,*,#257,.F.);
#100=ORIENTED_EDGE('',*,*,#258,.F.);
#101=ORIENTED_EDGE('',*,*,#259,.F.);
#102=ORIENTED_EDGE('',*,*,#260,.F.);
#103=ORIENTED_EDGE('',*,*,#261,.T.);
#104=ORIENTED_EDGE('',*,*,#262,.F.);
#105=ORIENTED_EDGE('',*,*,#263,.F.);
#106=ORIENTED_EDGE('',*,*,#264,.F.);
#107=ORIENTED_EDGE('',*,*,#265,.F.);
#108=ORIENTED_EDGE('',*,*,#266,.F.);
#109=ORIENTED_EDGE('',*,*,#267,.F.);
#110=ORIENTED_EDGE('',*,*,#242,.T.);
#111=ORIENTED_EDGE('',*,*,#268,.F.);
#112=ORIENTED_EDGE('',*,*,#269,.F.);
#113=ORIENTED_EDGE('',*,*,#270,.T.);
#114=ORIENTED_EDGE('',*,*,#243,.T.);
#115=ORIENTED_EDGE('',*,*,#270,.F.);
#116=ORIENTED_EDGE('',*,*,#271,.F.);
#117=ORIENTED_EDGE('',*,*,#272,.T.);
#118=ORIENTED_EDGE('',*,*,#241,.T.);
#119=ORIENTED_EDGE('',*,*,#273,.F.);
#120=ORIENTED_EDGE('',*,*,#274,.F.);
#121=ORIENTED_EDGE('',*,*,#268,.T.);
#122=ORIENTED_EDGE('',*,*,#267,.T.);
#123=ORIENTED_EDGE('',*,*,#275,.F.);
#124=ORIENTED_EDGE('',*,*,#276,.F.);
#125=ORIENTED_EDGE('',*,*,#273,.T.);
#126=ORIENTED_EDGE('',*,*,#266,.T.);
#127=ORIENTED_EDGE('',*,*,#277,.F.);
#128=ORIENTED_EDGE('',*,*,#278,.F.);
#129=ORIENTED_EDGE('',*,*,#275,.T.);
#130=ORIENTED_EDGE('',*,*,#265,.T.);
#131=ORIENTED_EDGE('',*,*,#279,.F.);
#132=ORIENTED_EDGE('',*,*,#280,.F.);
#133=ORIENTED_EDGE('',*,*,#277,.T.);
#134=ORIENTED_EDGE('',*,*,#264,.T.);
#135=ORIENTED_EDGE('',*,*,#281,.F.);
#136=ORIENTED_EDGE('',*,*,#282,.F.);
#137=ORIENTED_EDGE('',*,*,#279,.T.);
#138=ORIENTED_EDGE('',*,*,#263,.T.);
#139=ORIENTED_EDGE('',*,*,#283,.F.);
#140=ORIENTED_EDGE('',*,*,#284,.F.);
#141=ORIENTED_EDGE('',*,*,#281,.T.);
#142=ORIENTED_EDGE('',*,*,#262,.T.);
#143=ORIENTED_EDGE('',*,*,#285,.T.);
#144=ORIENTED_EDGE('',*,*,#286,.F.);
#145=ORIENTED_EDGE('',*,*,#283,.T.);
#146=ORIENTED_EDGE('',*,*,#287,.T.);
#147=ORIENTED_EDGE('',*,*,#285,.F.);
#148=ORIENTED_EDGE('',*,*,#261,.F.);
#149=ORIENTED_EDGE('',*,*,#260,.T.);
#150=ORIENTED_EDGE('',*,*,#288,.F.);
#151=ORIENTED_EDGE('',*,*,#289,.F.);
#152=ORIENTED_EDGE('',*,*,#259,.T.);
#153=ORIENTED_EDGE('',*,*,#290,.F.);
#154=ORIENTED_EDGE('',*,*,#291,.F.);
#155=ORIENTED_EDGE('',*,*,#288,.T.);
#156=ORIENTED_EDGE('',*,*,#258,.T.);
#157=ORIENTED_EDGE('',*,*,#292,.F.);
#158=ORIENTED_EDGE('',*,*,#293,.F.);
#159=ORIENTED_EDGE('',*,*,#290,.T.);
#160=ORIENTED_EDGE('',*,*,#294,.F.);
#161=ORIENTED_EDGE('',*,*,#295,.F.);
#162=ORIENTED_EDGE('',*,*,#296,.F.);
#163=ORIENTED_EDGE('',*,*,#292,.T.);
#164=ORIENTED_EDGE('',*,*,#257,.T.);
#165=ORIENTED_EDGE('',*,*,#256,.F.);
#166=ORIENTED_EDGE('',*,*,#255,.T.);
#167=ORIENTED_EDGE('',*,*,#297,.F.);
#168=ORIENTED_EDGE('',*,*,#298,.F.);
#169=ORIENTED_EDGE('',*,*,#294,.T.);
#170=ORIENTED_EDGE('',*,*,#254,.T.);
#171=ORIENTED_EDGE('',*,*,#299,.F.);
#172=ORIENTED_EDGE('',*,*,#300,.F.);
#173=ORIENTED_EDGE('',*,*,#297,.T.);
#174=ORIENTED_EDGE('',*,*,#253,.T.);
#175=ORIENTED_EDGE('',*,*,#301,.F.);
#176=ORIENTED_EDGE('',*,*,#302,.F.);
#177=ORIENTED_EDGE('',*,*,#299,.T.);
#178=ORIENTED_EDGE('',*,*,#252,.T.);
#179=ORIENTED_EDGE('',*,*,#303,.F.);
#180=ORIENTED_EDGE('',*,*,#304,.F.);
#181=ORIENTED_EDGE('',*,*,#301,.T.);
#182=ORIENTED_EDGE('',*,*,#251,.T.);
#183=ORIENTED_EDGE('',*,*,#305,.F.);
#184=ORIENTED_EDGE('',*,*,#306,.F.);
#185=ORIENTED_EDGE('',*,*,#303,.T.);
#186=ORIENTED_EDGE('',*,*,#250,.T.);
#187=ORIENTED_EDGE('',*,*,#307,.F.);
#188=ORIENTED_EDGE('',*,*,#308,.F.);
#189=ORIENTED_EDGE('',*,*,#305,.T.);
#190=ORIENTED_EDGE('',*,*,#249,.T.);
#191=ORIENTED_EDGE('',*,*,#309,.F.);
#192=ORIENTED_EDGE('',*,*,#310,.F.);
#193=ORIENTED_EDGE('',*,*,#307,.T.);
#194=ORIENTED_EDGE('',*,*,#248,.T.);
#195=ORIENTED_EDGE('',*,*,#311,.F.);
#196=ORIENTED_EDGE('',*,*,#312,.F.);
#197=ORIENTED_EDGE('',*,*,#309,.T.);
#198=ORIENTED_EDGE('',*,*,#247,.T.);
#199=ORIENTED_EDGE('',*,*,#313,.F.);
#200=ORIENTED_EDGE('',*,*,#314,.F.);
#201=ORIENTED_EDGE('',*,*,#311,.T.);
#202=ORIENTED_EDGE('',*,*,#246,.T.);
#203=ORIENTED_EDGE('',*,*,#315,.F.);
#204=ORIENTED_EDGE('',*,*,#316,.F.);
#205=ORIENTED_EDGE('',*,*,#313,.T.);
#206=ORIENTED_EDGE('',*,*,#245,.T.);
#207=ORIENTED_EDGE('',*,*,#317,.F.);
#208=ORIENTED_EDGE('',*,*,#318,.F.);
#209=ORIENTED_EDGE('',*,*,#315,.T.);
#210=ORIENTED_EDGE('',*,*,#244,.T.);
#211=ORIENTED_EDGE('',*,*,#272,.F.);
#212=ORIENTED_EDGE('',*,*,#319,.F.);
#213=ORIENTED_EDGE('',*,*,#317,.T.);
#214=ORIENTED_EDGE('',*,*,#269,.T.);
#215=ORIENTED_EDGE('',*,*,#274,.T.);
#216=ORIENTED_EDGE('',*,*,#276,.T.);
#217=ORIENTED_EDGE('',*,*,#278,.T.);
#218=ORIENTED_EDGE('',*,*,#280,.T.);
#219=ORIENTED_EDGE('',*,*,#282,.T.);
#220=ORIENTED_EDGE('',*,*,#284,.T.);
#221=ORIENTED_EDGE('',*,*,#286,.T.);
#222=ORIENTED_EDGE('',*,*,#287,.F.);
#223=ORIENTED_EDGE('',*,*,#289,.T.);
#224=ORIENTED_EDGE('',*,*,#291,.T.);
#225=ORIENTED_EDGE('',*,*,#293,.T.);
#226=ORIENTED_EDGE('',*,*,#296,.T.);
#227=ORIENTED_EDGE('',*,*,#295,.T.);
#228=ORIENTED_EDGE('',*,*,#298,.T.);
#229=ORIENTED_EDGE('',*,*,#300,.T.);
#230=ORIENTED_EDGE('',*,*,#302,.T.);
#231=ORIENTED_EDGE('',*,*,#304,.T.);
#232=ORIENTED_EDGE('',*,*,#306,.T.);
#233=ORIENTED_EDGE('',*,*,#308,.T.);
#234=ORIENTED_EDGE('',*,*,#310,.T.);
#235=ORIENTED_EDGE('',*,*,#312,.T.);
#236=ORIENTED_EDGE('',*,*,#314,.T.);
#237=ORIENTED_EDGE('',*,*,#316,.T.);
#238=ORIENTED_EDGE('',*,*,#318,.T.);
#239=ORIENTED_EDGE('',*,*,#319,.T.);
#240=ORIENTED_EDGE('',*,*,#271,.T.);
#241=EDGE_CURVE('',#320,#321,#374,.F.);
#242=EDGE_CURVE('',#322,#320,#375,.F.);
#243=EDGE_CURVE('',#323,#322,#376,.F.);
#244=EDGE_CURVE('',#324,#323,#377,.F.);
#245=EDGE_CURVE('',#325,#324,#378,.F.);
#246=EDGE_CURVE('',#326,#325,#379,.F.);
#247=EDGE_CURVE('',#327,#326,#380,.F.);
#248=EDGE_CURVE('',#328,#327,#381,.F.);
#249=EDGE_CURVE('',#329,#328,#382,.F.);
#250=EDGE_CURVE('',#330,#329,#383,.F.);
#251=EDGE_CURVE('',#331,#330,#384,.F.);
#252=EDGE_CURVE('',#332,#331,#385,.F.);
#253=EDGE_CURVE('',#333,#332,#386,.F.);
#254=EDGE_CURVE('',#334,#333,#387,.F.);
#255=EDGE_CURVE('',#335,#334,#388,.F.);
#256=EDGE_CURVE('',#335,#336,#389,.F.);
#257=EDGE_CURVE('',#337,#336,#390,.F.);
#258=EDGE_CURVE('',#338,#337,#391,.F.);
#259=EDGE_CURVE('',#339,#338,#392,.F.);
#260=EDGE_CURVE('',#340,#339,#393,.F.);
#261=EDGE_CURVE('',#340,#341,#394,.F.);
#262=EDGE_CURVE('',#342,#341,#395,.F.);
#263=EDGE_CURVE('',#343,#342,#396,.F.);
#264=EDGE_CURVE('',#344,#343,#397,.F.);
#265=EDGE_CURVE('',#345,#344,#398,.F.);
#266=EDGE_CURVE('',#346,#345,#399,.F.);
#267=EDGE_CURVE('',#321,#346,#400,.F.);
#268=EDGE_CURVE('',#347,#320,#401,.F.);
#269=EDGE_CURVE('',#348,#347,#402,.F.);
#270=EDGE_CURVE('',#348,#322,#403,.T.);
#271=EDGE_CURVE('',#349,#348,#404,.F.);
#272=EDGE_CURVE('',#349,#323,#12,.T.);
#273=EDGE_CURVE('',#350,#321,#13,.T.);
#274=EDGE_CURVE('',#347,#350,#405,.F.);
#275=EDGE_CURVE('',#351,#346,#14,.T.);
#276=EDGE_CURVE('',#350,#351,#406,.F.);
#277=EDGE_CURVE('',#352,#345,#15,.T.);
#278=EDGE_CURVE('',#351,#352,#407,.F.);
#279=EDGE_CURVE('',#353,#344,#16,.T.);
#280=EDGE_CURVE('',#352,#353,#408,.F.);
#281=EDGE_CURVE('',#354,#343,#17,.T.);
#282=EDGE_CURVE('',#353,#354,#409,.F.);
#283=EDGE_CURVE('',#355,#342,#18,.T.);
#284=EDGE_CURVE('',#354,#355,#410,.F.);
#285=EDGE_CURVE('',#341,#356,#19,.F.);
#286=EDGE_CURVE('',#355,#356,#411,.F.);
#287=EDGE_CURVE('',#357,#356,#412,.T.);
#288=EDGE_CURVE('',#358,#339,#20,.T.);
#289=EDGE_CURVE('',#357,#358,#413,.F.);
#290=EDGE_CURVE('',#359,#338,#21,.T.);
#291=EDGE_CURVE('',#358,#359,#414,.F.);
#292=EDGE_CURVE('',#360,#337,#22,.T.);
#293=EDGE_CURVE('',#359,#360,#415,.F.);
#294=EDGE_CURVE('',#361,#335,#23,.T.);
#295=EDGE_CURVE('',#362,#361,#416,.F.);
#296=EDGE_CURVE('',#360,#362,#417,.F.);
#297=EDGE_CURVE('',#363,#334,#24,.T.);
#298=EDGE_CURVE('',#361,#363,#418,.F.);
#299=EDGE_CURVE('',#364,#333,#25,.T.);
#300=EDGE_CURVE('',#363,#364,#419,.F.);
#301=EDGE_CURVE('',#365,#332,#26,.T.);
#302=EDGE_CURVE('',#364,#365,#420,.F.);
#303=EDGE_CURVE('',#366,#331,#27,.T.);
#304=EDGE_CURVE('',#365,#366,#421,.F.);
#305=EDGE_CURVE('',#367,#330,#28,.T.);
#306=EDGE_CURVE('',#366,#367,#422,.F.);
#307=EDGE_CURVE('',#368,#329,#29,.T.);
#308=EDGE_CURVE('',#367,#368,#423,.F.);
#309=EDGE_CURVE('',#369,#328,#30,.T.);
#310=EDGE_CURVE('',#368,#369,#424,.F.);
#311=EDGE_CURVE('',#370,#327,#31,.T.);
#312=EDGE_CURVE('',#369,#370,#425,.F.);
#313=EDGE_CURVE('',#371,#326,#32,.T.);
#314=EDGE_CURVE('',#370,#371,#426,.F.);
#315=EDGE_CURVE('',#372,#325,#33,.T.);
#316=EDGE_CURVE('',#371,#372,#427,.F.);
#317=EDGE_CURVE('',#373,#324,#34,.T.);
#318=EDGE_CURVE('',#372,#373,#428,.F.);
#319=EDGE_CURVE('',#373,#349,#429,.F.);
#320=VERTEX_POINT('',#566);
#321=VERTEX_POINT('',#567);
#322=VERTEX_POINT('',#575);
#323=VERTEX_POINT('',#580);
#324=VERTEX_POINT('',#585);
#325=VERTEX_POINT('',#591);
#326=VERTEX_POINT('',#596);
#327=VERTEX_POINT('',#602);
#328=VERTEX_POINT('',#608);
#329=VERTEX_POINT('',#619);
#330=VERTEX_POINT('',#624);
#331=VERTEX_POINT('',#632);
#332=VERTEX_POINT('',#637);
#333=VERTEX_POINT('',#643);
#334=VERTEX_POINT('',#648);
#335=VERTEX_POINT('',#655);
#336=VERTEX_POINT('',#661);
#337=VERTEX_POINT('',#666);
#338=VERTEX_POINT('',#671);
#339=VERTEX_POINT('',#676);
#340=VERTEX_POINT('',#681);
#341=VERTEX_POINT('',#687);
#342=VERTEX_POINT('',#694);
#343=VERTEX_POINT('',#699);
#344=VERTEX_POINT('',#705);
#345=VERTEX_POINT('',#710);
#346=VERTEX_POINT('',#715);
#347=VERTEX_POINT('',#745);
#348=VERTEX_POINT('',#755);
#349=VERTEX_POINT('',#772);
#350=VERTEX_POINT('',#787);
#351=VERTEX_POINT('',#810);
#352=VERTEX_POINT('',#827);
#353=VERTEX_POINT('',#841);
#354=VERTEX_POINT('',#857);
#355=VERTEX_POINT('',#872);
#356=VERTEX_POINT('',#890);
#357=VERTEX_POINT('',#942);
#358=VERTEX_POINT('',#944);
#359=VERTEX_POINT('',#958);
#360=VERTEX_POINT('',#972);
#361=VERTEX_POINT('',#1010);
#362=VERTEX_POINT('',#1016);
#363=VERTEX_POINT('',#1034);
#364=VERTEX_POINT('',#1050);
#365=VERTEX_POINT('',#1066);
#366=VERTEX_POINT('',#1081);
#367=VERTEX_POINT('',#1101);
#368=VERTEX_POINT('',#1118);
#369=VERTEX_POINT('',#1144);
#370=VERTEX_POINT('',#1166);
#371=VERTEX_POINT('',#1183);
#372=VERTEX_POINT('',#1198);
#373=VERTEX_POINT('',#1214);
#374=B_SPLINE_CURVE_WITH_KNOTS('',3,(#559,#560,#561,#562,#563,#564,#565),
 .UNSPECIFIED.,.F.,.F.,(4,1,1,1,4),(0.00321578489056532,0.501441911849521,
0.750554975328999,0.875111507068738,0.999668038808477),.UNSPECIFIED.);
#375=B_SPLINE_CURVE_WITH_KNOTS('',3,(#568,#569,#570,#571,#572,#573,#574),
 .UNSPECIFIED.,.F.,.F.,(4,1,1,1,4),(0.000615383268521825,0.500334560648251,
0.750194149338116,0.875123943683048,1.00005373802798),.UNSPECIFIED.);
#376=B_SPLINE_CURVE_WITH_KNOTS('',3,(#576,#577,#578,#579),.UNSPECIFIED.,
 .F.,.F.,(4,4),(0.,0.998236687143989),.UNSPECIFIED.);
#377=B_SPLINE_CURVE_WITH_KNOTS('',3,(#581,#582,#583,#584),.UNSPECIFIED.,
 .F.,.F.,(4,4),(0.000299836018445895,0.9966603387338),.UNSPECIFIED.);
#378=B_SPLINE_CURVE_WITH_KNOTS('',3,(#586,#587,#588,#589,#590),
 .UNSPECIFIED.,.F.,.F.,(4,1,4),(0.0138575209055352,0.407527560950398,0.801197600995261),
 .UNSPECIFIED.);
#379=B_SPLINE_CURVE_WITH_KNOTS('',3,(#592,#593,#594,#595),.UNSPECIFIED.,
 .F.,.F.,(4,4),(0.0289087455379682,0.908629956948113),.UNSPECIFIED.);
#380=B_SPLINE_CURVE_WITH_KNOTS('',3,(#597,#598,#599,#600,#601),
 .UNSPECIFIED.,.F.,.F.,(4,1,4),(0.0301513744934531,0.514249512816758,0.998347651140064),
 .UNSPECIFIED.);
#381=B_SPLINE_CURVE_WITH_KNOTS('',3,(#603,#604,#605,#606,#607),
 .UNSPECIFIED.,.F.,.F.,(4,1,4),(0.00364074897940324,0.501092922932639,0.998545096885876),
 .UNSPECIFIED.);
#382=B_SPLINE_CURVE_WITH_KNOTS('',3,(#609,#610,#611,#612,#613,#614,#615,
#616,#617,#618),.UNSPECIFIED.,.F.,.F.,(4,1,1,1,1,1,1,4),(0.00140867864983182,
0.251039756975171,0.375855296137841,0.50067083530051,0.62548637446318,0.75030191362585,
0.875117452788519,0.999932991951189),.UNSPECIFIED.);
#383=B_SPLINE_CURVE_WITH_KNOTS('',3,(#620,#621,#622,#623),.UNSPECIFIED.,
 .F.,.F.,(4,4),(0.,1.00197551983324),.UNSPECIFIED.);
#384=B_SPLINE_CURVE_WITH_KNOTS('',3,(#625,#626,#627,#628,#629,#630,#631),
 .UNSPECIFIED.,.F.,.F.,(4,1,1,1,4),(-0.000397061702498124,0.117854056264597,
0.236105174231692,0.472607410165882,0.945611882034261),.UNSPECIFIED.);
#385=B_SPLINE_CURVE_WITH_KNOTS('',3,(#633,#634,#635,#636),.UNSPECIFIED.,
 .F.,.F.,(4,4),(0.0534445676057782,0.716670207566102),.UNSPECIFIED.);
#386=B_SPLINE_CURVE_WITH_KNOTS('',3,(#638,#639,#640,#641,#642),
 .UNSPECIFIED.,.F.,.F.,(4,1,4),(0.054326660979216,0.527163330489608,1.),
 .UNSPECIFIED.);
#387=B_SPLINE_CURVE_WITH_KNOTS('',3,(#644,#645,#646,#647),.UNSPECIFIED.,
 .F.,.F.,(4,4),(0.,0.960200293598529),.UNSPECIFIED.);
#388=B_SPLINE_CURVE_WITH_KNOTS('',3,(#649,#650,#651,#652,#653,#654),
 .UNSPECIFIED.,.F.,.F.,(4,1,1,4),(0.105131502076997,0.562904304216221,0.791790705285832,
1.02067710635544),.UNSPECIFIED.);
#389=B_SPLINE_CURVE_WITH_KNOTS('',3,(#656,#657,#658,#659,#660),
 .UNSPECIFIED.,.F.,.F.,(4,1,4),(0.,0.5,1.),.UNSPECIFIED.);
#390=B_SPLINE_CURVE_WITH_KNOTS('',3,(#662,#663,#664,#665),.UNSPECIFIED.,
 .F.,.F.,(4,4),(0.15383336060956,0.987223641551229),.UNSPECIFIED.);
#391=B_SPLINE_CURVE_WITH_KNOTS('',3,(#667,#668,#669,#670),.UNSPECIFIED.,
 .F.,.F.,(4,4),(0.0349832475059917,1.),.UNSPECIFIED.);
#392=B_SPLINE_CURVE_WITH_KNOTS('',3,(#672,#673,#674,#675),.UNSPECIFIED.,
 .F.,.F.,(4,4),(0.,0.964818837286327),.UNSPECIFIED.);
#393=B_SPLINE_CURVE_WITH_KNOTS('',3,(#677,#678,#679,#680),.UNSPECIFIED.,
 .F.,.F.,(4,4),(0.0128116477892738,0.848391631194253),.UNSPECIFIED.);
#394=B_SPLINE_CURVE_WITH_KNOTS('',3,(#682,#683,#684,#685,#686),
 .UNSPECIFIED.,.F.,.F.,(4,1,4),(0.,0.5,1.),.UNSPECIFIED.);
#395=B_SPLINE_CURVE_WITH_KNOTS('',3,(#688,#689,#690,#691,#692,#693),
 .UNSPECIFIED.,.F.,.F.,(4,1,1,4),(-0.0203199382124519,0.208468634849907,
0.437257207912267,0.894834354036985),.UNSPECIFIED.);
#396=B_SPLINE_CURVE_WITH_KNOTS('',3,(#695,#696,#697,#698),.UNSPECIFIED.,
 .F.,.F.,(4,4),(0.0398520518762081,1.),.UNSPECIFIED.);
#397=B_SPLINE_CURVE_WITH_KNOTS('',3,(#700,#701,#702,#703,#704),
 .UNSPECIFIED.,.F.,.F.,(4,1,4),(0.,0.472736292331802,0.945472584663604),
 .UNSPECIFIED.);
#398=B_SPLINE_CURVE_WITH_KNOTS('',3,(#706,#707,#708,#709),.UNSPECIFIED.,
 .F.,.F.,(4,4),(0.227381192648495,0.998516605594565),.UNSPECIFIED.);
#399=B_SPLINE_CURVE_WITH_KNOTS('',3,(#711,#712,#713,#714),.UNSPECIFIED.,
 .F.,.F.,(4,4),(0.00200037320008882,1.0038649557708),.UNSPECIFIED.);
#400=B_SPLINE_CURVE_WITH_KNOTS('',3,(#716,#717,#718,#719,#720,#721,#722),
 .UNSPECIFIED.,.F.,.F.,(4,1,1,1,4),(0.00231383444069601,0.12570946225429,
0.249105090067885,0.495896345695074,0.989478856949451),.UNSPECIFIED.);
#401=B_SPLINE_CURVE_WITH_KNOTS('',3,(#741,#742,#743,#744),.UNSPECIFIED.,
 .F.,.F.,(4,4),(0.,1.),.UNSPECIFIED.);
#402=B_SPLINE_CURVE_WITH_KNOTS('',3,(#746,#747,#748,#749,#750,#751,#752,
#753,#754),.UNSPECIFIED.,.F.,.F.,(4,1,1,1,1,1,4),(0.000588421387307263,
0.125521585967392,0.250454750547476,0.500321079707645,0.750187408867813,
0.875120573447898,1.00005373802798),.UNSPECIFIED.);
#403=B_SPLINE_CURVE_WITH_KNOTS('',3,(#756,#757,#758,#759),.UNSPECIFIED.,
 .F.,.F.,(4,4),(0.,1.),.UNSPECIFIED.);
#404=B_SPLINE_CURVE_WITH_KNOTS('',3,(#768,#769,#770,#771),.UNSPECIFIED.,
 .F.,.F.,(4,4),(0.,0.998236687143989),.UNSPECIFIED.);
#405=B_SPLINE_CURVE_WITH_KNOTS('',3,(#788,#789,#790,#791,#792,#793,#794),
 .UNSPECIFIED.,.F.,.F.,(4,1,1,1,4),(0.00321578489056533,0.501425034158052,
0.750529658791796,0.875081971108667,0.999634283425539),.UNSPECIFIED.);
#406=B_SPLINE_CURVE_WITH_KNOTS('',3,(#811,#812,#813,#814,#815,#816,#817),
 .UNSPECIFIED.,.F.,.F.,(4,1,1,1,4),(0.00231383444064712,0.125709462254263,
0.249105090067879,0.495896345695111,0.989478856949575),.UNSPECIFIED.);
#407=B_SPLINE_CURVE_WITH_KNOTS('',3,(#828,#829,#830,#831),.UNSPECIFIED.,
 .F.,.F.,(4,4),(0.00200037320009023,1.00386495577101),.UNSPECIFIED.);
#408=B_SPLINE_CURVE_WITH_KNOTS('',3,(#842,#843,#844,#845),.UNSPECIFIED.,
 .F.,.F.,(4,4),(0.227381192648492,0.998516605594565),.UNSPECIFIED.);
#409=B_SPLINE_CURVE_WITH_KNOTS('',3,(#858,#859,#860,#861,#862),
 .UNSPECIFIED.,.F.,.F.,(4,1,4),(0.,0.472736292331814,0.945472584663628),
 .UNSPECIFIED.);
#410=B_SPLINE_CURVE_WITH_KNOTS('',3,(#873,#874,#875,#876),.UNSPECIFIED.,
 .F.,.F.,(4,4),(0.0398520518762081,1.),.UNSPECIFIED.);
#411=B_SPLINE_CURVE_WITH_KNOTS('',3,(#891,#892,#893,#894,#895,#896),
 .UNSPECIFIED.,.F.,.F.,(4,1,1,4),(-0.0203199382124519,0.208468634849907,
0.437257207912267,0.894834354036985),.UNSPECIFIED.);
#412=B_SPLINE_CURVE_WITH_KNOTS('',3,(#929,#930,#931,#932,#933,#934,#935,
#936,#937,#938,#939,#940,#941),.UNSPECIFIED.,.F.,.F.,(4,1,1,1,1,1,1,1,1,
1,4),(0.848391631194259,1.11263135660684,1.37687108201942,1.90535053284458,
2.43382998366973,2.96230943449489,4.01926833614521,5.07622723779552,6.13318613944584,
7.19014504109616,9.30406284439679),.UNSPECIFIED.);
#413=B_SPLINE_CURVE_WITH_KNOTS('',3,(#945,#946,#947,#948),.UNSPECIFIED.,
 .F.,.F.,(4,4),(0.01281164778927,0.848391631194253),.UNSPECIFIED.);
#414=B_SPLINE_CURVE_WITH_KNOTS('',3,(#959,#960,#961,#962),.UNSPECIFIED.,
 .F.,.F.,(4,4),(0.,0.964818837286314),.UNSPECIFIED.);
#415=B_SPLINE_CURVE_WITH_KNOTS('',3,(#973,#974,#975,#976),.UNSPECIFIED.,
 .F.,.F.,(4,4),(0.0349832475059917,1.),.UNSPECIFIED.);
#416=B_SPLINE_CURVE_WITH_KNOTS('',3,(#1011,#1012,#1013,#1014,#1015),
 .UNSPECIFIED.,.F.,.F.,(4,1,4),(0.,0.5,1.),.UNSPECIFIED.);
#417=B_SPLINE_CURVE_WITH_KNOTS('',3,(#1017,#1018,#1019,#1020),
 .UNSPECIFIED.,.F.,.F.,(4,4),(0.15383336060956,0.987223641551229),
 .UNSPECIFIED.);
#418=B_SPLINE_CURVE_WITH_KNOTS('',3,(#1035,#1036,#1037,#1038,#1039,#1040),
 .UNSPECIFIED.,.F.,.F.,(4,1,1,4),(0.105131502077004,0.562904304216224,0.791790705285834,
1.02067710635544),.UNSPECIFIED.);
#419=B_SPLINE_CURVE_WITH_KNOTS('',3,(#1051,#1052,#1053,#1054),
 .UNSPECIFIED.,.F.,.F.,(4,4),(0.,0.960200293598529),.UNSPECIFIED.);
#420=B_SPLINE_CURVE_WITH_KNOTS('',3,(#1067,#1068,#1069,#1070,#1071),
 .UNSPECIFIED.,.F.,.F.,(4,1,4),(0.0543266609792161,0.527163330489608,1.),
 .UNSPECIFIED.);
#421=B_SPLINE_CURVE_WITH_KNOTS('',3,(#1082,#1083,#1084,#1085),
 .UNSPECIFIED.,.F.,.F.,(4,4),(0.0534445676058764,0.716670207566269),
 .UNSPECIFIED.);
#422=B_SPLINE_CURVE_WITH_KNOTS('',3,(#1102,#1103,#1104,#1105,#1106,#1107,
#1108),.UNSPECIFIED.,.F.,.F.,(4,1,1,1,4),(-0.000397061702436791,0.117854056264658,
0.236105174231752,0.472607410165941,0.945611882034318),.UNSPECIFIED.);
#423=B_SPLINE_CURVE_WITH_KNOTS('',3,(#1119,#1120,#1121,#1122),
 .UNSPECIFIED.,.F.,.F.,(4,4),(6.70190936716528E-5,1.00197551983309),
 .UNSPECIFIED.);
#424=B_SPLINE_CURVE_WITH_KNOTS('',3,(#1145,#1146,#1147,#1148,#1149,#1150,
#1151,#1152,#1153,#1154),.UNSPECIFIED.,.F.,.F.,(4,1,1,1,1,1,1,4),(0.00140867864984057,
0.25105650898738,0.37588042415615,0.50070433932492,0.62552825449369,0.75035216966246,
0.87517608483123,1.),.UNSPECIFIED.);
#425=B_SPLINE_CURVE_WITH_KNOTS('',3,(#1167,#1168,#1169,#1170,#1171),
 .UNSPECIFIED.,.F.,.F.,(4,1,4),(0.00364074897940324,0.501092922932639,0.998545096885876),
 .UNSPECIFIED.);
#426=B_SPLINE_CURVE_WITH_KNOTS('',3,(#1184,#1185,#1186,#1187,#1188),
 .UNSPECIFIED.,.F.,.F.,(4,1,4),(0.0301513744934525,0.514249512816758,0.998347651140064),
 .UNSPECIFIED.);
#427=B_SPLINE_CURVE_WITH_KNOTS('',3,(#1199,#1200,#1201,#1202),
 .UNSPECIFIED.,.F.,.F.,(4,4),(0.0289087455379682,0.908629956948156),
 .UNSPECIFIED.);
#428=B_SPLINE_CURVE_WITH_KNOTS('',3,(#1215,#1216,#1217,#1218,#1219),
 .UNSPECIFIED.,.F.,.F.,(4,1,4),(0.0138575209055716,0.407527560950416,0.801197600995261),
 .UNSPECIFIED.);
#429=B_SPLINE_CURVE_WITH_KNOTS('',3,(#1228,#1229,#1230,#1231),
 .UNSPECIFIED.,.F.,.F.,(4,4),(0.000299836018445895,0.996660338733802),
 .UNSPECIFIED.);
#430=EDGE_LOOP('',(#83,#84,#85,#86,#87,#88,#89,#90,#91,#92,#93,#94,#95,
#96,#97,#98,#99,#100,#101,#102,#103,#104,#105,#106,#107,#108,#109));
#431=EDGE_LOOP('',(#110,#111,#112,#113));
#432=EDGE_LOOP('',(#114,#115,#116,#117));
#433=EDGE_LOOP('',(#118,#119,#120,#121));
#434=EDGE_LOOP('',(#122,#123,#124,#125));
#435=EDGE_LOOP('',(#126,#127,#128,#129));
#436=EDGE_LOOP('',(#130,#131,#132,#133));
#437=EDGE_LOOP('',(#134,#135,#136,#137));
#438=EDGE_LOOP('',(#138,#139,#140,#141));
#439=EDGE_LOOP('',(#142,#143,#144,#145));
#440=EDGE_LOOP('',(#146,#147,#148,#149,#150,#151));
#441=EDGE_LOOP('',(#152,#153,#154,#155));
#442=EDGE_LOOP('',(#156,#157,#158,#159));
#443=EDGE_LOOP('',(#160,#161,#162,#163,#164,#165));
#444=EDGE_LOOP('',(#166,#167,#168,#169));
#445=EDGE_LOOP('',(#170,#171,#172,#173));
#446=EDGE_LOOP('',(#174,#175,#176,#177));
#447=EDGE_LOOP('',(#178,#179,#180,#181));
#448=EDGE_LOOP('',(#182,#183,#184,#185));
#449=EDGE_LOOP('',(#186,#187,#188,#189));
#450=EDGE_LOOP('',(#190,#191,#192,#193));
#451=EDGE_LOOP('',(#194,#195,#196,#197));
#452=EDGE_LOOP('',(#198,#199,#200,#201));
#453=EDGE_LOOP('',(#202,#203,#204,#205));
#454=EDGE_LOOP('',(#206,#207,#208,#209));
#455=EDGE_LOOP('',(#210,#211,#212,#213));
#456=EDGE_LOOP('',(#214,#215,#216,#217,#218,#219,#220,#221,#222,#223,#224,
#225,#226,#227,#228,#229,#230,#231,#232,#233,#234,#235,#236,#237,#238,#239,
#240));
#457=FACE_BOUND('',#430,.T.);
#458=FACE_BOUND('',#431,.T.);
#459=FACE_BOUND('',#432,.T.);
#460=FACE_BOUND('',#433,.T.);
#461=FACE_BOUND('',#434,.T.);
#462=FACE_BOUND('',#435,.T.);
#463=FACE_BOUND('',#436,.T.);
#464=FACE_BOUND('',#437,.T.);
#465=FACE_BOUND('',#438,.T.);
#466=FACE_BOUND('',#439,.T.);
#467=FACE_BOUND('',#440,.T.);
#468=FACE_BOUND('',#441,.T.);
#469=FACE_BOUND('',#442,.T.);
#470=FACE_BOUND('',#443,.T.);
#471=FACE_BOUND('',#444,.T.);
#472=FACE_BOUND('',#445,.T.);
#473=FACE_BOUND('',#446,.T.);
#474=FACE_BOUND('',#447,.T.);
#475=FACE_BOUND('',#448,.T.);
#476=FACE_BOUND('',#449,.T.);
#477=FACE_BOUND('',#450,.T.);
#478=FACE_BOUND('',#451,.T.);
#479=FACE_BOUND('',#452,.T.);
#480=FACE_BOUND('',#453,.T.);
#481=FACE_BOUND('',#454,.T.);
#482=FACE_BOUND('',#455,.T.);
#483=FACE_BOUND('',#456,.T.);
#484=PLANE('',#526);
#485=PLANE('',#527);
#486=ADVANCED_FACE('',(#457),#484,.T.);
#487=ADVANCED_FACE('',(#458),#58,.T.);
#488=ADVANCED_FACE('',(#459),#59,.T.);
#489=ADVANCED_FACE('',(#460),#60,.T.);
#490=ADVANCED_FACE('',(#461),#61,.T.);
#491=ADVANCED_FACE('',(#462),#62,.T.);
#492=ADVANCED_FACE('',(#463),#63,.T.);
#493=ADVANCED_FACE('',(#464),#64,.T.);
#494=ADVANCED_FACE('',(#465),#65,.T.);
#495=ADVANCED_FACE('',(#466),#66,.T.);
#496=ADVANCED_FACE('',(#467),#67,.T.);
#497=ADVANCED_FACE('',(#468),#68,.T.);
#498=ADVANCED_FACE('',(#469),#69,.T.);
#499=ADVANCED_FACE('',(#470),#70,.T.);
#500=ADVANCED_FACE('',(#471),#71,.T.);
#501=ADVANCED_FACE('',(#472),#72,.T.);
#502=ADVANCED_FACE('',(#473),#73,.T.);
#503=ADVANCED_FACE('',(#474),#74,.T.);
#504=ADVANCED_FACE('',(#475),#75,.T.);
#505=ADVANCED_FACE('',(#476),#76,.T.);
#506=ADVANCED_FACE('',(#477),#77,.T.);
#507=ADVANCED_FACE('',(#478),#78,.T.);
#508=ADVANCED_FACE('',(#479),#79,.T.);
#509=ADVANCED_FACE('',(#480),#80,.T.);
#510=ADVANCED_FACE('',(#481),#81,.T.);
#511=ADVANCED_FACE('',(#482),#82,.T.);
#512=ADVANCED_FACE('',(#483),#485,.F.);
#513=CLOSED_SHELL('',(#486,#487,#488,#489,#490,#491,#492,#493,#494,#495,
#496,#497,#498,#499,#500,#501,#502,#503,#504,#505,#506,#507,#508,#509,#510,
#511,#512));
#514=STYLED_ITEM('',(#515),#522);
#515=PRESENTATION_STYLE_ASSIGNMENT((#516));
#516=SURFACE_STYLE_USAGE(.BOTH.,#517);
#517=SURFACE_SIDE_STYLE('',(#518));
#518=SURFACE_STYLE_FILL_AREA(#519);
#519=FILL_AREA_STYLE('',(#520));
#520=FILL_AREA_STYLE_COLOUR('',#521);
#521=COLOUR_RGB('',0.682352941176471,0.333333333333334,0.737254901960784);
#522=MANIFOLD_SOLID_BREP('GitLogo',#513);
#523=SHAPE_DEFINITION_REPRESENTATION(#1239,#524);
#524=SHAPE_REPRESENTATION('GitLogo',(#525),#1234);
#525=AXIS2_PLACEMENT_3D('',#557,#528,#529);
#526=AXIS2_PLACEMENT_3D('',#558,#530,#531);
#527=AXIS2_PLACEMENT_3D('',#1232,#555,#556);
#528=DIRECTION('',(0.,0.,1.));
#529=DIRECTION('',(1.,0.,0.));
#530=DIRECTION('',(5.56131819963552E-33,-1.22464679914735E-16,-1.));
#531=DIRECTION('',(1.,9.08232186375291E-17,-5.56131819963552E-33));
#532=DIRECTION('',(5.56131819963552E-33,-1.22464679914735E-16,-1.));
#533=DIRECTION('',(5.56131819963552E-33,-1.22464679914735E-16,-1.));
#534=DIRECTION('',(5.56131819963552E-33,-1.22464679914735E-16,-1.));
#535=DIRECTION('',(5.56131819963552E-33,-1.22464679914735E-16,-1.));
#536=DIRECTION('',(5.56131819963552E-33,-1.22464679914735E-16,-1.));
#537=DIRECTION('',(5.56131819963552E-33,-1.22464679914735E-16,-1.));
#538=DIRECTION('',(5.56131819963552E-33,-1.22464679914735E-16,-1.));
#539=DIRECTION('',(5.56131819963552E-33,-1.22464679914735E-16,-1.));
#540=DIRECTION('',(5.56131819963552E-33,-1.22464679914735E-16,-1.));
#541=DIRECTION('',(5.56131819963552E-33,-1.22464679914735E-16,-1.));
#542=DIRECTION('',(5.56131819963552E-33,-1.22464679914735E-16,-1.));
#543=DIRECTION('',(5.56131819963552E-33,-1.22464679914735E-16,-1.));
#544=DIRECTION('',(5.56131819963552E-33,-1.22464679914735E-16,-1.));
#545=DIRECTION('',(5.56131819963552E-33,-1.22464679914735E-16,-1.));
#546=DIRECTION('',(5.56131819963552E-33,-1.22464679914735E-16,-1.));
#547=DIRECTION('',(5.56131819963552E-33,-1.22464679914735E-16,-1.));
#548=DIRECTION('',(5.56131819963552E-33,-1.22464679914735E-16,-1.));
#549=DIRECTION('',(5.56131819963552E-33,-1.22464679914735E-16,-1.));
#550=DIRECTION('',(5.56131819963552E-33,-1.22464679914735E-16,-1.));
#551=DIRECTION('',(5.56131819963552E-33,-1.22464679914735E-16,-1.));
#552=DIRECTION('',(5.56131819963552E-33,-1.22464679914735E-16,-1.));
#553=DIRECTION('',(5.56131819963552E-33,-1.22464679914735E-16,-1.));
#554=DIRECTION('',(5.56131819963552E-33,-1.22464679914735E-16,-1.));
#555=DIRECTION('',(5.56131819963552E-33,-1.22464679914735E-16,-1.));
#556=DIRECTION('',(1.,9.08232186375291E-17,-5.56131819963552E-33));
#557=CARTESIAN_POINT('',(0.,0.,0.));
#558=CARTESIAN_POINT('',(0.0296103392685378,-0.0305981799359355,-0.0240000086266577));
#559=CARTESIAN_POINT('',(0.0278027826200302,-0.0126914341787677,-0.0240000086266577));
#560=CARTESIAN_POINT('',(0.0298309808143979,-0.0121166853179544,-0.0240000086266577));
#561=CARTESIAN_POINT('',(0.0330553755799463,-0.0122444355980035,-0.0240000086266577));
#562=CARTESIAN_POINT('',(0.0363137522481246,-0.0139713522032568,-0.0240000086266577));
#563=CARTESIAN_POINT('',(0.0379229211737728,-0.0153980355180972,-0.0240000086266577));
#564=CARTESIAN_POINT('',(0.0386111318961171,-0.0162359539016126,-0.0240000086266577));
#565=CARTESIAN_POINT('',(0.0389347179403186,-0.016704563219481,-0.0240000086266577));
#566=CARTESIAN_POINT('',(0.038934718381302,-0.0167045629149712,-0.0240000086266577));
#567=CARTESIAN_POINT('',(0.0278027826200302,-0.0126914341787677,-0.0240000086266577));
#568=CARTESIAN_POINT('',(0.038934718381302,-0.0167045629149712,-0.0240000086266577));
#569=CARTESIAN_POINT('',(0.0405347279284271,-0.0190102235971851,-0.0240000086266577));
#570=CARTESIAN_POINT('',(0.0413042272651636,-0.0231105750230566,-0.0240000086266577));
#571=CARTESIAN_POINT('',(0.039648929444526,-0.0274301914735741,-0.0240000086266577));
#572=CARTESIAN_POINT('',(0.0380015946623391,-0.0295466571978131,-0.0240000086266577));
#573=CARTESIAN_POINT('',(0.0369741196223506,-0.0304339080813915,-0.0240000086266577));
#574=CARTESIAN_POINT('',(0.0363868898599376,-0.0308422831207807,-0.0240000086266577));
#575=CARTESIAN_POINT('',(0.0363868910759683,-0.0308422848693924,-0.0240000086266577));
#576=CARTESIAN_POINT('',(0.0363868910759683,-0.0308422848693923,-0.0240000086266577));
#577=CARTESIAN_POINT('',(0.031798070057854,-0.034064992829248,-0.0240000086266577));
#578=CARTESIAN_POINT('',(0.0254803527753989,-0.032967163381698,-0.0240000086266577));
#579=CARTESIAN_POINT('',(0.0222467259439484,-0.0283906453179089,-0.0240000086266577));
#580=CARTESIAN_POINT('',(0.0222467259439484,-0.0283906453179089,-0.0240000086266577));
#581=CARTESIAN_POINT('',(0.0222467259439484,-0.0283906453179089,-0.0240000086266577));
#582=CARTESIAN_POINT('',(0.0197044862654742,-0.0246989693044917,-0.0240000086266577));
#583=CARTESIAN_POINT('',(0.0199361471971427,-0.0199436585018918,-0.0240000086266577));
#584=CARTESIAN_POINT('',(0.0224732473863955,-0.0165459224103182,-0.0240000086266577));
#585=CARTESIAN_POINT('',(0.0224732473863955,-0.0165459224103181,-0.0240000086266577));
#586=CARTESIAN_POINT('',(0.0224732473863955,-0.0165459224103182,-0.0240000086266577));
#587=CARTESIAN_POINT('',(0.0225994488735692,-0.0164347534096366,-0.0240000086266577));
#588=CARTESIAN_POINT('',(0.0227882873288199,-0.0163741887498488,-0.0240000086266577));
#589=CARTESIAN_POINT('',(0.0228995672993012,-0.0164247331965395,-0.0240000086266577));
#590=CARTESIAN_POINT('',(0.022952283088827,-0.0164698164528069,-0.0240000086266577));
#591=CARTESIAN_POINT('',(0.022952283088827,-0.0164698164528069,-0.0240000086266577));
#592=CARTESIAN_POINT('',(0.0229522830888271,-0.0164698164528071,-0.0240000086266577));
#593=CARTESIAN_POINT('',(0.0230897641587567,-0.0166672556787932,-0.0240000086266577));
#594=CARTESIAN_POINT('',(0.0234701890127311,-0.0172281725890593,-0.0240000086266577));
#595=CARTESIAN_POINT('',(0.0239004689021597,-0.0178459845365912,-0.0240000086266577));
#596=CARTESIAN_POINT('',(0.0239004689021597,-0.0178459845365912,-0.0240000086266577));
#597=CARTESIAN_POINT('',(0.0239004689021598,-0.0178459845365914,-0.0240000086266577));
#598=CARTESIAN_POINT('',(0.0227785430589945,-0.0183980767573605,-0.0240000086266577));
#599=CARTESIAN_POINT('',(0.0216362464763379,-0.0196254563431801,-0.0240000086266577));
#600=CARTESIAN_POINT('',(0.0217633895938294,-0.0206550161651282,-0.0240000086266577));
#601=CARTESIAN_POINT('',(0.0218501780617692,-0.0209712671999892,-0.0240000086266577));
#602=CARTESIAN_POINT('',(0.0218501780617692,-0.0209712671999892,-0.0240000086266577));
#603=CARTESIAN_POINT('',(0.0218501780617692,-0.0209712671999892,-0.0240000086266577));
#604=CARTESIAN_POINT('',(0.0218814986172035,-0.0211021631999283,-0.0240000086266577));
#605=CARTESIAN_POINT('',(0.0219823766028758,-0.0217685955415011,-0.0240000086266577));
#606=CARTESIAN_POINT('',(0.0219113321459717,-0.0224797810862438,-0.0240000086266577));
#607=CARTESIAN_POINT('',(0.0218339717574384,-0.0226410889118434,-0.0240000086266577));
#608=CARTESIAN_POINT('',(0.0218339717574382,-0.0226410889118437,-0.0240000086266577));
#609=CARTESIAN_POINT('',(0.0218339717574383,-0.0226410889118437,-0.0240000086266577));
#610=CARTESIAN_POINT('',(0.0217811942563591,-0.0227457895302706,-0.0240000086266577));
#611=CARTESIAN_POINT('',(0.0217086724970568,-0.0229280719807324,-0.0240000086266577));
#612=CARTESIAN_POINT('',(0.0216590096771894,-0.0231811893919346,-0.0240000086266577));
#613=CARTESIAN_POINT('',(0.0216549128753305,-0.0233651746617978,-0.0240000086266577));
#614=CARTESIAN_POINT('',(0.0217382516573014,-0.0235926261981314,-0.0240000086266577));
#615=CARTESIAN_POINT('',(0.0220110996172608,-0.0236965350893972,-0.0240000086266577));
#616=CARTESIAN_POINT('',(0.0222388183111134,-0.0236261412285464,-0.0240000086266577));
#617=CARTESIAN_POINT('',(0.0224112424267088,-0.0235310587201831,-0.0240000086266577));
#618=CARTESIAN_POINT('',(0.0225086178353673,-0.0234650320942986,-0.0240000086266577));
#619=CARTESIAN_POINT('',(0.0225086962318169,-0.0234649788823615,-0.0240000086266577));
#620=CARTESIAN_POINT('',(0.0225086177889829,-0.0234650320258914,-0.0240000086266577));
#621=CARTESIAN_POINT('',(0.023290728464144,-0.0229357073143921,-0.0240000086266577));
#622=CARTESIAN_POINT('',(0.0233112128334125,-0.0218696291558402,-0.0240000086266577));
#623=CARTESIAN_POINT('',(0.0232919856732369,-0.0215028271907468,-0.0240000086266577));
#624=CARTESIAN_POINT('',(0.0232919856732369,-0.021502827190746,-0.0240000086266577));
#625=CARTESIAN_POINT('',(0.0232919856732369,-0.0215028271907463,-0.0240000086266577));
#626=CARTESIAN_POINT('',(0.0232760198285087,-0.021287744346053,-0.0240000086266577));
#627=CARTESIAN_POINT('',(0.0232895097937547,-0.0209415045048797,-0.0240000086266577));
#628=CARTESIAN_POINT('',(0.0234465092113905,-0.0203445258845054,-0.0240000086266577));
#629=CARTESIAN_POINT('',(0.023984079554559,-0.0196246096769418,-0.0240000086266577));
#630=CARTESIAN_POINT('',(0.0246838424830691,-0.0193740933442888,-0.0240000086266577));
#631=CARTESIAN_POINT('',(0.025005897294284,-0.0193021308146102,-0.0240000086266577));
#632=CARTESIAN_POINT('',(0.0250058972942839,-0.0193021308146102,-0.0240000086266577));
#633=CARTESIAN_POINT('',(0.0250058972942839,-0.0193021308146102,-0.0240000086266577));
#634=CARTESIAN_POINT('',(0.0253322431100368,-0.0196333665307429,-0.0240000086266577));
#635=CARTESIAN_POINT('',(0.0256725604526722,-0.0198405070673298,-0.0240000086266577));
#636=CARTESIAN_POINT('',(0.0259928009905437,-0.0199501138334412,-0.0240000086266577));
#637=CARTESIAN_POINT('',(0.0259928009905438,-0.0199501138334413,-0.0240000086266577));
#638=CARTESIAN_POINT('',(0.0259928009905442,-0.0199501138334417,-0.0240000086266577));
#639=CARTESIAN_POINT('',(0.0251741631732848,-0.0207204557529242,-0.0240000086266577));
#640=CARTESIAN_POINT('',(0.0237053522832398,-0.0225783400144748,-0.0240000086266577));
#641=CARTESIAN_POINT('',(0.0242220853521778,-0.0252841773932065,-0.0240000086266577));
#642=CARTESIAN_POINT('',(0.0253190540670843,-0.0268508110768587,-0.0240000086266577));
#643=CARTESIAN_POINT('',(0.0253190540670843,-0.0268508110768587,-0.0240000086266577));
#644=CARTESIAN_POINT('',(0.0253190540670843,-0.0268508110768587,-0.0240000086266577));
#645=CARTESIAN_POINT('',(0.0259658574421894,-0.0277745420277691,-0.0240000086266577));
#646=CARTESIAN_POINT('',(0.0268330712234409,-0.0283328843441453,-0.0240000086266577));
#647=CARTESIAN_POINT('',(0.0277873758037168,-0.0285748424706369,-0.0240000086266577));
#648=CARTESIAN_POINT('',(0.0277873758037167,-0.028574842470637,-0.0240000086266577));
#649=CARTESIAN_POINT('',(0.0277873758037167,-0.0285748424706369,-0.0240000086266577));
#650=CARTESIAN_POINT('',(0.0278486045241849,-0.0287871126825303,-0.0240000086266577));
#651=CARTESIAN_POINT('',(0.0280520956811048,-0.029332204311479,-0.0240000086266577));
#652=CARTESIAN_POINT('',(0.0287357795191984,-0.0301947246597413,-0.0240000086266577));
#653=CARTESIAN_POINT('',(0.0292865702078888,-0.0306253369807875,-0.0240000086266577));
#654=CARTESIAN_POINT('',(0.0295804874659476,-0.0308176578045206,-0.0240000086266577));
#655=CARTESIAN_POINT('',(0.0295804874659476,-0.0308176578045206,-0.0240000086266577));
#656=CARTESIAN_POINT('',(0.0297589165101028,-0.0307510427263432,-0.0240000086266577));
#657=CARTESIAN_POINT('',(0.0297286885232279,-0.0307663207230583,-0.0240000086266577));
#658=CARTESIAN_POINT('',(0.0296202546690115,-0.030806668952659,-0.0240000086266577));
#659=CARTESIAN_POINT('',(0.0295958765881039,-0.0308127443289618,-0.0240000086266577));
#660=CARTESIAN_POINT('',(0.0295804874659476,-0.0308176578045206,-0.0240000086266577));
#661=CARTESIAN_POINT('',(0.0297589165101027,-0.0307510427263433,-0.0240000086266577));
#662=CARTESIAN_POINT('',(0.0297589165101028,-0.0307510427263433,-0.0240000086266577));
#663=CARTESIAN_POINT('',(0.0300163581836882,-0.0306209251283826,-0.0240000086266577));
#664=CARTESIAN_POINT('',(0.0307611439661635,-0.0300992909185979,-0.0240000086266577));
#665=CARTESIAN_POINT('',(0.0314886901239467,-0.0282513074447147,-0.0240000086266577));
#666=CARTESIAN_POINT('',(0.0314886901239467,-0.0282513074447147,-0.0240000086266577));
#667=CARTESIAN_POINT('',(0.0314886901239467,-0.0282513074447147,-0.0240000086266577));
#668=CARTESIAN_POINT('',(0.0322889317852201,-0.0279620136835001,-0.0240000086266577));
#669=CARTESIAN_POINT('',(0.0330627508316442,-0.0275552676798124,-0.0240000086266577));
#670=CARTESIAN_POINT('',(0.0337729548072932,-0.0270579775023965,-0.0240000086266577));
#671=CARTESIAN_POINT('',(0.0337729548072931,-0.0270579775023966,-0.0240000086266577));
#672=CARTESIAN_POINT('',(0.0337729548072931,-0.0270579775023966,-0.0240000086266577));
#673=CARTESIAN_POINT('',(0.0344830575612011,-0.0265607582012068,-0.0240000086266577));
#674=CARTESIAN_POINT('',(0.0351297332373306,-0.0259729163170129,-0.0240000086266577));
#675=CARTESIAN_POINT('',(0.0356752809280285,-0.0253199936596232,-0.0240000086266577));
#676=CARTESIAN_POINT('',(0.0356752809280286,-0.0253199936596233,-0.0240000086266577));
#677=CARTESIAN_POINT('',(0.0356752809280285,-0.0253199936596232,-0.0240000086266577));
#678=CARTESIAN_POINT('',(0.0376720950149543,-0.0252767721858581,-0.0240000086266577));
#679=CARTESIAN_POINT('',(0.0384129750031792,-0.0247461029646908,-0.0240000086266577));
#680=CARTESIAN_POINT('',(0.0386198384979149,-0.0245466744938211,-0.0240000086266577));
#681=CARTESIAN_POINT('',(0.0386198384979149,-0.0245466744938211,-0.0240000086266577));
#682=CARTESIAN_POINT('',(0.0387393894520881,-0.0244026602486845,-0.0240000086266577));
#683=CARTESIAN_POINT('',(0.0387298482689836,-0.0244153511650909,-0.0240000086266577));
#684=CARTESIAN_POINT('',(0.0387104572421492,-0.0244436440275343,-0.0240000086266577));
#685=CARTESIAN_POINT('',(0.0386426076610014,-0.0245247236929651,-0.0240000086266577));
#686=CARTESIAN_POINT('',(0.0386198384979149,-0.0245466744938211,-0.0240000086266577));
#687=CARTESIAN_POINT('',(0.0387393894520881,-0.0244026602486845,-0.0240000086266577));
#688=CARTESIAN_POINT('',(0.0387393894520881,-0.0244026602486845,-0.0240000086266577));
#689=CARTESIAN_POINT('',(0.0386592247423034,-0.0240608384409028,-0.0240000086266577));
#690=CARTESIAN_POINT('',(0.038442796865436,-0.0233965556108856,-0.0240000086266577));
#691=CARTESIAN_POINT('',(0.0378663796614475,-0.0224597678935024,-0.0240000086266577));
#692=CARTESIAN_POINT('',(0.0374239825530382,-0.0220823373282069,-0.0240000086266577));
#693=CARTESIAN_POINT('',(0.0372454986692289,-0.0219522398810125,-0.0240000086266577));
#694=CARTESIAN_POINT('',(0.0372454986692289,-0.0219522398810125,-0.0240000086266577));
#695=CARTESIAN_POINT('',(0.0372454986692288,-0.0219522398810125,-0.0240000086266577));
#696=CARTESIAN_POINT('',(0.0373449682333728,-0.0209744759832096,-0.0240000086266577));
#697=CARTESIAN_POINT('',(0.0371232407364281,-0.019976546637976,-0.0240000086266577));
#698=CARTESIAN_POINT('',(0.0364696299932766,-0.019043093757959,-0.0240000086266577));
#699=CARTESIAN_POINT('',(0.0364696299932767,-0.019043093757959,-0.0240000086266577));
#700=CARTESIAN_POINT('',(0.0364696299932766,-0.019043093757959,-0.0240000086266577));
#701=CARTESIAN_POINT('',(0.0353693328060788,-0.0174717065232384,-0.0240000086266577));
#702=CARTESIAN_POINT('',(0.0329980425336317,-0.0160632080647096,-0.0240000086266577));
#703=CARTESIAN_POINT('',(0.0307488748035435,-0.0168164127729873,-0.0240000086266577));
#704=CARTESIAN_POINT('',(0.029745249563981,-0.0173227165138005,-0.0240000086266577));
#705=CARTESIAN_POINT('',(0.029745249563981,-0.0173227165138005,-0.0240000086266577));
#706=CARTESIAN_POINT('',(0.0297452495639806,-0.0173227165138004,-0.0240000086266577));
#707=CARTESIAN_POINT('',(0.029755474956127,-0.0168320623176902,-0.0240000086266577));
#708=CARTESIAN_POINT('',(0.0295862884712665,-0.0162373526302369,-0.0240000086266577));
#709=CARTESIAN_POINT('',(0.0291380074536655,-0.0155957908314472,-0.0240000086266577));
#710=CARTESIAN_POINT('',(0.0291380074536656,-0.0155957908314472,-0.0240000086266577));
#711=CARTESIAN_POINT('',(0.0291380074536655,-0.0155957908314472,-0.0240000086266577));
#712=CARTESIAN_POINT('',(0.0283930465609922,-0.0144237518143845,-0.0240000086266577));
#713=CARTESIAN_POINT('',(0.0277887327830431,-0.0134969885073684,-0.0240000086266577));
#714=CARTESIAN_POINT('',(0.0276007731354407,-0.0132012491820756,-0.0240000086266577));
#715=CARTESIAN_POINT('',(0.0276007731354404,-0.0132012491820753,-0.0240000086266577));
#716=CARTESIAN_POINT('',(0.0276007731354406,-0.0132012491820756,-0.0240000086266577));
#717=CARTESIAN_POINT('',(0.0275815863089863,-0.0131736034709678,-0.0240000086266577));
#718=CARTESIAN_POINT('',(0.0275671219665409,-0.0131469221690909,-0.0240000086266577));
#719=CARTESIAN_POINT('',(0.0275323059148059,-0.0130546312060372,-0.0240000086266577));
#720=CARTESIAN_POINT('',(0.0275310643371174,-0.0129152778157815,-0.0240000086266577));
#721=CARTESIAN_POINT('',(0.0276108971271726,-0.0127803854556027,-0.0240000086266577));
#722=CARTESIAN_POINT('',(0.0278027826200363,-0.0126914341787649,-0.0240000086266577));
#723=CARTESIAN_POINT('',(0.0388757448745997,-0.0166195803622483,-0.0232000086266577));
#724=CARTESIAN_POINT('',(0.0388757448745997,-0.0166195803622483,-0.0240000086266577));
#725=CARTESIAN_POINT('',(0.0392883425145167,-0.0172141456619617,-0.0232000086266577));
#726=CARTESIAN_POINT('',(0.0392883425145167,-0.0172141456619617,-0.0240000086266577));
#727=CARTESIAN_POINT('',(0.0399710849026115,-0.0184134729927085,-0.0232000086266577));
#728=CARTESIAN_POINT('',(0.0399710849026115,-0.0184134729927085,-0.0240000086266577));
#729=CARTESIAN_POINT('',(0.0407964745367007,-0.0209998914821343,-0.0232000086266577));
#730=CARTESIAN_POINT('',(0.0407964745367007,-0.0209998914821343,-0.0240000086266577));
#731=CARTESIAN_POINT('',(0.0408375968340015,-0.0243452528330501,-0.0232000086266577));
#732=CARTESIAN_POINT('',(0.0408375968340015,-0.0243452528330501,-0.0240000086266577));
#733=CARTESIAN_POINT('',(0.0396316099153135,-0.0274660578281165,-0.0232000086266577));
#734=CARTESIAN_POINT('',(0.0396316099153135,-0.0274660578281165,-0.0240000086266577));
#735=CARTESIAN_POINT('',(0.0379552784039328,-0.029602031994891,-0.0232000086266577));
#736=CARTESIAN_POINT('',(0.0379552784039328,-0.029602031994891,-0.0240000086266577));
#737=CARTESIAN_POINT('',(0.0368966190443245,-0.0304878040240535,-0.0232000086266577));
#738=CARTESIAN_POINT('',(0.0368966190443245,-0.0304878040240535,-0.0240000086266577));
#739=CARTESIAN_POINT('',(0.0363023264929427,-0.0309010907128644,-0.0232000086266577));
#740=CARTESIAN_POINT('',(0.0363023264929427,-0.0309010907128644,-0.0240000086266577));
#741=CARTESIAN_POINT('',(0.038934718381302,-0.0167045629149712,-0.0240000086266577));
#742=CARTESIAN_POINT('',(0.038934718381302,-0.0167045629149712,-0.023733341959991));
#743=CARTESIAN_POINT('',(0.038934718381302,-0.0167045629149712,-0.0234666752933244));
#744=CARTESIAN_POINT('',(0.038934718381302,-0.0167045629149712,-0.0232000086266577));
#745=CARTESIAN_POINT('',(0.0389344548604779,-0.0167041822337529,-0.0232000086266577));
#746=CARTESIAN_POINT('',(0.0389344544202006,-0.0167041825392826,-0.0232000086266577));
#747=CARTESIAN_POINT('',(0.0393421595979843,-0.0172916976575771,-0.0232000086266577));
#748=CARTESIAN_POINT('',(0.0399951580228758,-0.0184815779761042,-0.0232000086266577));
#749=CARTESIAN_POINT('',(0.0408003405210517,-0.0210396382425458,-0.0232000086266577));
#750=CARTESIAN_POINT('',(0.040830476929407,-0.0243439710148756,-0.0232000086266577));
#751=CARTESIAN_POINT('',(0.039649103644746,-0.0274301565222283,-0.0232000086266577));
#752=CARTESIAN_POINT('',(0.0380016138024227,-0.0295466053394911,-0.0232000086266577));
#753=CARTESIAN_POINT('',(0.0369741354640678,-0.0304338970646444,-0.0232000086266577));
#754=CARTESIAN_POINT('',(0.0363868898599376,-0.0308422831207807,-0.0232000086266577));
#755=CARTESIAN_POINT('',(0.0363868910759683,-0.0308422848693924,-0.0232000086266577));
#756=CARTESIAN_POINT('',(0.0363876476432087,-0.0308417561383405,-0.0232000086266577));
#757=CARTESIAN_POINT('',(0.0363876476432087,-0.0308417561383405,-0.0234666752933244));
#758=CARTESIAN_POINT('',(0.0363876476432087,-0.0308417561383405,-0.023733341959991));
#759=CARTESIAN_POINT('',(0.0363876476432087,-0.0308417561383405,-0.0240000086266577));
#760=CARTESIAN_POINT('',(0.0363868910759683,-0.0308422848693923,-0.0232000086266577));
#761=CARTESIAN_POINT('',(0.0363868910759683,-0.0308422848693923,-0.0240000086266577));
#762=CARTESIAN_POINT('',(0.031798070057854,-0.034064992829248,-0.0232000086266577));
#763=CARTESIAN_POINT('',(0.031798070057854,-0.034064992829248,-0.0240000086266577));
#764=CARTESIAN_POINT('',(0.0254803527753989,-0.032967163381698,-0.0232000086266577));
#765=CARTESIAN_POINT('',(0.0254803527753989,-0.032967163381698,-0.0240000086266577));
#766=CARTESIAN_POINT('',(0.0222467259439484,-0.0283906453179089,-0.0232000086266577));
#767=CARTESIAN_POINT('',(0.0222467259439484,-0.0283906453179089,-0.0240000086266577));
#768=CARTESIAN_POINT('',(0.0363868910759683,-0.0308422848693923,-0.0232000086266577));
#769=CARTESIAN_POINT('',(0.031798070057854,-0.034064992829248,-0.0232000086266577));
#770=CARTESIAN_POINT('',(0.0254803527753989,-0.032967163381698,-0.0232000086266577));
#771=CARTESIAN_POINT('',(0.0222467259439484,-0.0283906453179089,-0.0232000086266577));
#772=CARTESIAN_POINT('',(0.0222467259439484,-0.0283906453179089,-0.0232000086266577));
#773=CARTESIAN_POINT('',(0.0222467259439484,-0.0283906453179089,-0.0236000086266577));
#774=CARTESIAN_POINT('',(0.0278027826200302,-0.0126914341787677,-0.0232000086266577));
#775=CARTESIAN_POINT('',(0.0278027826200302,-0.0126914341787677,-0.0240000086266577));
#776=CARTESIAN_POINT('',(0.0298431500035641,-0.0121132368247895,-0.0232000086266577));
#777=CARTESIAN_POINT('',(0.0298431500035641,-0.0121132368247895,-0.0240000086266577));
#778=CARTESIAN_POINT('',(0.0330820869874514,-0.0122432284759596,-0.0232000086266577));
#779=CARTESIAN_POINT('',(0.0330820869874514,-0.0122432284759596,-0.0240000086266577));
#780=CARTESIAN_POINT('',(0.0368363664180419,-0.0142585342270062,-0.0232000086266577));
#781=CARTESIAN_POINT('',(0.0368363664180419,-0.0142585342270062,-0.0240000086266577));
#782=CARTESIAN_POINT('',(0.0383302592097507,-0.0158292010137021,-0.0232000086266577));
#783=CARTESIAN_POINT('',(0.0383302592097507,-0.0158292010137021,-0.0240000086266577));
#784=CARTESIAN_POINT('',(0.0389813143306836,-0.0167720429612541,-0.0232000086266577));
#785=CARTESIAN_POINT('',(0.0389813143306836,-0.0167720429612541,-0.0240000086266577));
#786=CARTESIAN_POINT('',(0.0278027826200302,-0.0126914341787677,-0.0236000086266577));
#787=CARTESIAN_POINT('',(0.0278027826200302,-0.0126914341787677,-0.0232000086266577));
#788=CARTESIAN_POINT('',(0.0278027826200302,-0.0126914341787677,-0.0232000086266577));
#789=CARTESIAN_POINT('',(0.0298309121080384,-0.0121167047878967,-0.0232000086266577));
#790=CARTESIAN_POINT('',(0.0330551891956591,-0.0122444222312266,-0.0232000086266577));
#791=CARTESIAN_POINT('',(0.036313498279316,-0.0139711809584613,-0.0232000086266577));
#792=CARTESIAN_POINT('',(0.0379226461103302,-0.0153977716425864,-0.0232000086266577));
#793=CARTESIAN_POINT('',(0.0386108797779365,-0.01623558879029,-0.0232000086266577));
#794=CARTESIAN_POINT('',(0.0389344548604781,-0.016704182233753,-0.0232000086266577));
#795=CARTESIAN_POINT('',(0.0276007731354408,-0.0132012491820758,-0.0232000086266577));
#796=CARTESIAN_POINT('',(0.0276007731354408,-0.0132012491820758,-0.0240000086266577));
#797=CARTESIAN_POINT('',(0.0275815863089797,-0.0131736034709583,-0.0232000086266577));
#798=CARTESIAN_POINT('',(0.0275815863089797,-0.0131736034709583,-0.0240000086266577));
#799=CARTESIAN_POINT('',(0.027567121966544,-0.0131469221690954,-0.0232000086266577));
#800=CARTESIAN_POINT('',(0.027567121966544,-0.0131469221690954,-0.0240000086266577));
#801=CARTESIAN_POINT('',(0.0275323059148041,-0.0130546312060349,-0.0232000086266577));
#802=CARTESIAN_POINT('',(0.0275323059148041,-0.0130546312060349,-0.0240000086266577));
#803=CARTESIAN_POINT('',(0.0275310643371187,-0.0129152778157834,-0.0232000086266577));
#804=CARTESIAN_POINT('',(0.0275310643371187,-0.0129152778157834,-0.0240000086266577));
#805=CARTESIAN_POINT('',(0.0276108971271725,-0.0127803854556027,-0.0232000086266577));
#806=CARTESIAN_POINT('',(0.0276108971271725,-0.0127803854556027,-0.0240000086266577));
#807=CARTESIAN_POINT('',(0.0278027826200365,-0.0126914341787648,-0.0232000086266577));
#808=CARTESIAN_POINT('',(0.0278027826200365,-0.0126914341787648,-0.0240000086266577));
#809=CARTESIAN_POINT('',(0.0276007731354404,-0.0132012491820753,-0.0236000086266577));
#810=CARTESIAN_POINT('',(0.0276007731354405,-0.0132012491820755,-0.0232000086266577));
#811=CARTESIAN_POINT('',(0.0276007731354405,-0.0132012491820755,-0.0232000086266577));
#812=CARTESIAN_POINT('',(0.0275815863089794,-0.013173603470958,-0.0232000086266577));
#813=CARTESIAN_POINT('',(0.027567121966544,-0.0131469221690953,-0.0232000086266577));
#814=CARTESIAN_POINT('',(0.0275323059148041,-0.0130546312060347,-0.0232000086266577));
#815=CARTESIAN_POINT('',(0.0275310643371188,-0.0129152778157833,-0.0232000086266577));
#816=CARTESIAN_POINT('',(0.0276108971271726,-0.0127803854556027,-0.0232000086266577));
#817=CARTESIAN_POINT('',(0.0278027826200365,-0.0126914341787648,-0.0232000086266577));
#818=CARTESIAN_POINT('',(0.0291380074536655,-0.0155957908314472,-0.0232000086266577));
#819=CARTESIAN_POINT('',(0.0291380074536655,-0.0155957908314472,-0.0240000086266577));
#820=CARTESIAN_POINT('',(0.028393046560992,-0.0144237518143843,-0.0232000086266577));
#821=CARTESIAN_POINT('',(0.028393046560992,-0.0144237518143843,-0.0240000086266577));
#822=CARTESIAN_POINT('',(0.0277887327830695,-0.0134969885074107,-0.0232000086266577));
#823=CARTESIAN_POINT('',(0.0277887327830695,-0.0134969885074107,-0.0240000086266577));
#824=CARTESIAN_POINT('',(0.0276007731354407,-0.0132012491820757,-0.0232000086266577));
#825=CARTESIAN_POINT('',(0.0276007731354407,-0.0132012491820757,-0.0240000086266577));
#826=CARTESIAN_POINT('',(0.0291380074536656,-0.0155957908314472,-0.0236000086266577));
#827=CARTESIAN_POINT('',(0.0291380074536656,-0.0155957908314472,-0.0232000086266577));
#828=CARTESIAN_POINT('',(0.0291380074536655,-0.0155957908314472,-0.0232000086266577));
#829=CARTESIAN_POINT('',(0.028393046560992,-0.0144237518143843,-0.0232000086266577));
#830=CARTESIAN_POINT('',(0.0277887327830644,-0.0134969885074023,-0.0232000086266577));
#831=CARTESIAN_POINT('',(0.0276007731354406,-0.0132012491820756,-0.0232000086266577));
#832=CARTESIAN_POINT('',(0.0297452495639806,-0.0173227165138005,-0.0232000086266577));
#833=CARTESIAN_POINT('',(0.0297452495639806,-0.0173227165138005,-0.0240000086266577));
#834=CARTESIAN_POINT('',(0.029755474956127,-0.0168320623176903,-0.0232000086266577));
#835=CARTESIAN_POINT('',(0.029755474956127,-0.0168320623176903,-0.0240000086266577));
#836=CARTESIAN_POINT('',(0.0295862884712665,-0.016237352630237,-0.0232000086266577));
#837=CARTESIAN_POINT('',(0.0295862884712665,-0.016237352630237,-0.0240000086266577));
#838=CARTESIAN_POINT('',(0.0291380074536655,-0.0155957908314472,-0.0232000086266577));
#839=CARTESIAN_POINT('',(0.0291380074536655,-0.0155957908314472,-0.0240000086266577));
#840=CARTESIAN_POINT('',(0.029745249563981,-0.0173227165138005,-0.0236000086266577));
#841=CARTESIAN_POINT('',(0.0297452495639808,-0.0173227165138005,-0.0232000086266577));
#842=CARTESIAN_POINT('',(0.0297452495639806,-0.0173227165138004,-0.0232000086266577));
#843=CARTESIAN_POINT('',(0.029755474956127,-0.0168320623176902,-0.0232000086266577));
#844=CARTESIAN_POINT('',(0.0295862884712665,-0.0162373526302369,-0.0232000086266577));
#845=CARTESIAN_POINT('',(0.0291380074536655,-0.0155957908314472,-0.0232000086266577));
#846=CARTESIAN_POINT('',(0.0364696299932766,-0.019043093757959,-0.0232000086266577));
#847=CARTESIAN_POINT('',(0.0364696299932766,-0.019043093757959,-0.0240000086266577));
#848=CARTESIAN_POINT('',(0.0353693328060787,-0.0174717065232383,-0.0232000086266577));
#849=CARTESIAN_POINT('',(0.0353693328060787,-0.0174717065232383,-0.0240000086266577));
#850=CARTESIAN_POINT('',(0.0329980425336316,-0.0160632080647095,-0.0232000086266577));
#851=CARTESIAN_POINT('',(0.0329980425336316,-0.0160632080647095,-0.0240000086266577));
#852=CARTESIAN_POINT('',(0.0307488748035433,-0.0168164127729873,-0.0232000086266577));
#853=CARTESIAN_POINT('',(0.0307488748035433,-0.0168164127729873,-0.0240000086266577));
#854=CARTESIAN_POINT('',(0.0297452495639808,-0.0173227165138006,-0.0232000086266577));
#855=CARTESIAN_POINT('',(0.0297452495639808,-0.0173227165138006,-0.0240000086266577));
#856=CARTESIAN_POINT('',(0.0364696299932767,-0.019043093757959,-0.0232000086266577));
#857=CARTESIAN_POINT('',(0.0364696299932767,-0.019043093757959,-0.0232000086266577));
#858=CARTESIAN_POINT('',(0.0364696299932766,-0.019043093757959,-0.0232000086266577));
#859=CARTESIAN_POINT('',(0.0353693328060787,-0.0174717065232383,-0.0232000086266577));
#860=CARTESIAN_POINT('',(0.0329980425336316,-0.0160632080647095,-0.0232000086266577));
#861=CARTESIAN_POINT('',(0.0307488748035433,-0.0168164127729873,-0.0232000086266577));
#862=CARTESIAN_POINT('',(0.0297452495639808,-0.0173227165138006,-0.0232000086266577));
#863=CARTESIAN_POINT('',(0.0372454986692288,-0.0219522398810125,-0.0232000086266577));
#864=CARTESIAN_POINT('',(0.0372454986692288,-0.0219522398810125,-0.0240000086266577));
#865=CARTESIAN_POINT('',(0.0373449682333728,-0.0209744759832096,-0.0232000086266577));
#866=CARTESIAN_POINT('',(0.0373449682333728,-0.0209744759832096,-0.0240000086266577));
#867=CARTESIAN_POINT('',(0.0371232407364281,-0.019976546637976,-0.0232000086266577));
#868=CARTESIAN_POINT('',(0.0371232407364281,-0.019976546637976,-0.0240000086266577));
#869=CARTESIAN_POINT('',(0.0364696299932766,-0.019043093757959,-0.0232000086266577));
#870=CARTESIAN_POINT('',(0.0364696299932766,-0.019043093757959,-0.0240000086266577));
#871=CARTESIAN_POINT('',(0.0372454986692289,-0.0219522398810125,-0.0236000086266577));
#872=CARTESIAN_POINT('',(0.0372454986692289,-0.0219522398810125,-0.0232000086266577));
#873=CARTESIAN_POINT('',(0.0372454986692288,-0.0219522398810125,-0.0232000086266577));
#874=CARTESIAN_POINT('',(0.0373449682333728,-0.0209744759832096,-0.0232000086266577));
#875=CARTESIAN_POINT('',(0.0371232407364281,-0.019976546637976,-0.0232000086266577));
#876=CARTESIAN_POINT('',(0.0364696299932766,-0.019043093757959,-0.0232000086266577));
#877=CARTESIAN_POINT('',(0.0387393894520881,-0.0244026602486845,-0.0232000086266577));
#878=CARTESIAN_POINT('',(0.0387393894520881,-0.0244026602486845,-0.0240000086266577));
#879=CARTESIAN_POINT('',(0.0386592247423034,-0.0240608384409029,-0.0232000086266577));
#880=CARTESIAN_POINT('',(0.0386592247423034,-0.0240608384409029,-0.0240000086266577));
#881=CARTESIAN_POINT('',(0.038442796865436,-0.0233965556108856,-0.0232000086266577));
#882=CARTESIAN_POINT('',(0.038442796865436,-0.0233965556108856,-0.0240000086266577));
#883=CARTESIAN_POINT('',(0.0378663796614475,-0.0224597678935025,-0.0232000086266577));
#884=CARTESIAN_POINT('',(0.0378663796614475,-0.0224597678935025,-0.0240000086266577));
#885=CARTESIAN_POINT('',(0.0374239825530382,-0.0220823373282069,-0.0232000086266577));
#886=CARTESIAN_POINT('',(0.0374239825530382,-0.0220823373282069,-0.0240000086266577));
#887=CARTESIAN_POINT('',(0.0372454986692289,-0.0219522398810125,-0.0232000086266577));
#888=CARTESIAN_POINT('',(0.0372454986692289,-0.0219522398810125,-0.0240000086266577));
#889=CARTESIAN_POINT('',(0.0387393894520881,-0.0244026602486845,-0.0232800086266577));
#890=CARTESIAN_POINT('',(0.0387393894520881,-0.0244026602486845,-0.0232000086266577));
#891=CARTESIAN_POINT('',(0.0387393894520881,-0.0244026602486845,-0.0232000086266577));
#892=CARTESIAN_POINT('',(0.0386592247423034,-0.0240608384409028,-0.0232000086266577));
#893=CARTESIAN_POINT('',(0.038442796865436,-0.0233965556108856,-0.0232000086266577));
#894=CARTESIAN_POINT('',(0.0378663796614475,-0.0224597678935024,-0.0232000086266577));
#895=CARTESIAN_POINT('',(0.0374239825530382,-0.0220823373282069,-0.0232000086266577));
#896=CARTESIAN_POINT('',(0.0372454986692289,-0.0219522398810125,-0.0232000086266577));
#897=CARTESIAN_POINT('',(0.0356752809280285,-0.0253199936596232,-0.0232000086266577));
#898=CARTESIAN_POINT('',(0.0356752809280285,-0.0253199936596232,-0.0240000086266577));
#899=CARTESIAN_POINT('',(0.0363691440873078,-0.0253049748411304,-0.0232000086266577));
#900=CARTESIAN_POINT('',(0.0363691440873078,-0.0253049748411304,-0.0240000086266577));
#901=CARTESIAN_POINT('',(0.0374519190228198,-0.0251574539293298,-0.0232000086266577));
#902=CARTESIAN_POINT('',(0.0374519190228198,-0.0251574539293298,-0.0240000086266577));
#903=CARTESIAN_POINT('',(0.0383500879224381,-0.0247931123369687,-0.0232000086266577));
#904=CARTESIAN_POINT('',(0.0383500879224381,-0.0247931123369687,-0.0240000086266577));
#905=CARTESIAN_POINT('',(0.0387075234035185,-0.0244670069879437,-0.0232000086266577));
#906=CARTESIAN_POINT('',(0.0387075234035185,-0.0244670069879437,-0.0240000086266577));
#907=CARTESIAN_POINT('',(0.0386704885120754,-0.0244816275782142,-0.0232000086266577));
#908=CARTESIAN_POINT('',(0.0386704885120754,-0.0244816275782142,-0.0240000086266577));
#909=CARTESIAN_POINT('',(0.0386932106188749,-0.0244683908052981,-0.0232000086266577));
#910=CARTESIAN_POINT('',(0.0386932106188749,-0.0244683908052981,-0.0240000086266577));
#911=CARTESIAN_POINT('',(0.0386908922043777,-0.02446601513368,-0.0232000086266577));
#912=CARTESIAN_POINT('',(0.0386908922043777,-0.02446601513368,-0.0240000086266577));
#913=CARTESIAN_POINT('',(0.0386964884067417,-0.024460025655744,-0.0232000086266577));
#914=CARTESIAN_POINT('',(0.0386964884067417,-0.024460025655744,-0.0240000086266577));
#915=CARTESIAN_POINT('',(0.038701185310176,-0.0244533020443497,-0.0232000086266577));
#916=CARTESIAN_POINT('',(0.038701185310176,-0.0244533020443497,-0.0240000086266577));
#917=CARTESIAN_POINT('',(0.0387080051451986,-0.0244444643519986,-0.0232000086266577));
#918=CARTESIAN_POINT('',(0.0387080051451986,-0.0244444643519986,-0.0240000086266577));
#919=CARTESIAN_POINT('',(0.0387157822092996,-0.0244340448373165,-0.0232000086266577));
#920=CARTESIAN_POINT('',(0.0387157822092996,-0.0244340448373165,-0.0240000086266577));
#921=CARTESIAN_POINT('',(0.0387236682959375,-0.0244235755430507,-0.0232000086266577));
#922=CARTESIAN_POINT('',(0.0387236682959375,-0.0244235755430507,-0.0240000086266577));
#923=CARTESIAN_POINT('',(0.0387315250303539,-0.0244131196509805,-0.0232000086266577));
#924=CARTESIAN_POINT('',(0.0387315250303539,-0.0244131196509805,-0.0240000086266577));
#925=CARTESIAN_POINT('',(0.0387367684441975,-0.0244061465034679,-0.0232000086266577));
#926=CARTESIAN_POINT('',(0.0387367684441975,-0.0244061465034679,-0.0240000086266577));
#927=CARTESIAN_POINT('',(0.0387393894522569,-0.0244026602488114,-0.0232000086266577));
#928=CARTESIAN_POINT('',(0.0387393894522569,-0.0244026602488114,-0.0240000086266577));
#929=CARTESIAN_POINT('',(0.0386198384979149,-0.0245466744938211,-0.0232000086266577));
#930=CARTESIAN_POINT('',(0.0386852559972955,-0.0244836082100079,-0.0232000086266577));
#931=CARTESIAN_POINT('',(0.0386827929583928,-0.0244738957734947,-0.0232000086266577));
#932=CARTESIAN_POINT('',(0.0386869738136396,-0.0244747143177824,-0.0232000086266577));
#933=CARTESIAN_POINT('',(0.0386890753382177,-0.0244687920800224,-0.0232000086266577));
#934=CARTESIAN_POINT('',(0.0386929345816392,-0.0244646582757131,-0.0232000086266577));
#935=CARTESIAN_POINT('',(0.0386976130601443,-0.024458108063275,-0.0232000086266577));
#936=CARTESIAN_POINT('',(0.038703621468883,-0.0244502766454139,-0.0232000086266577));
#937=CARTESIAN_POINT('',(0.0387107628375393,-0.0244407261851233,-0.0232000086266577));
#938=CARTESIAN_POINT('',(0.0387179225965446,-0.0244312166039635,-0.0232000086266577));
#939=CARTESIAN_POINT('',(0.0387274624891309,-0.0244185228188624,-0.0232000086266577));
#940=CARTESIAN_POINT('',(0.0387346188604403,-0.0244090057073364,-0.0232000086266577));
#941=CARTESIAN_POINT('',(0.0387393894520089,-0.0244026602491414,-0.0232000086266577));
#942=CARTESIAN_POINT('',(0.0386198384979149,-0.0245466744938211,-0.0232000086266577));
#943=CARTESIAN_POINT('',(0.0356752809280286,-0.0253199936596233,-0.0236000086266577));
#944=CARTESIAN_POINT('',(0.0356752809280285,-0.0253199936596233,-0.0232000086266577));
#945=CARTESIAN_POINT('',(0.0356752809280285,-0.0253199936596232,-0.0232000086266577));
#946=CARTESIAN_POINT('',(0.0376720950149543,-0.0252767721858581,-0.0232000086266577));
#947=CARTESIAN_POINT('',(0.0384129750031792,-0.0247461029646908,-0.0232000086266577));
#948=CARTESIAN_POINT('',(0.0386198384979149,-0.0245466744938211,-0.0232000086266577));
#949=CARTESIAN_POINT('',(0.0337729548072931,-0.0270579775023966,-0.0232000086266577));
#950=CARTESIAN_POINT('',(0.0337729548072931,-0.0270579775023966,-0.0240000086266577));
#951=CARTESIAN_POINT('',(0.0344830575612011,-0.0265607582012068,-0.0232000086266577));
#952=CARTESIAN_POINT('',(0.0344830575612011,-0.0265607582012068,-0.0240000086266577));
#953=CARTESIAN_POINT('',(0.0351297332373306,-0.0259729163170129,-0.0232000086266577));
#954=CARTESIAN_POINT('',(0.0351297332373306,-0.0259729163170129,-0.0240000086266577));
#955=CARTESIAN_POINT('',(0.0356752809280285,-0.0253199936596232,-0.0232000086266577));
#956=CARTESIAN_POINT('',(0.0356752809280285,-0.0253199936596232,-0.0240000086266577));
#957=CARTESIAN_POINT('',(0.0337729548072931,-0.0270579775023966,-0.0232000086266577));
#958=CARTESIAN_POINT('',(0.0337729548072931,-0.0270579775023966,-0.0232000086266577));
#959=CARTESIAN_POINT('',(0.0337729548072931,-0.0270579775023966,-0.0232000086266577));
#960=CARTESIAN_POINT('',(0.0344830575612011,-0.0265607582012068,-0.0232000086266577));
#961=CARTESIAN_POINT('',(0.0351297332373306,-0.0259729163170129,-0.0232000086266577));
#962=CARTESIAN_POINT('',(0.0356752809280285,-0.0253199936596232,-0.0232000086266577));
#963=CARTESIAN_POINT('',(0.0314886901239467,-0.0282513074447147,-0.0232000086266577));
#964=CARTESIAN_POINT('',(0.0314886901239467,-0.0282513074447147,-0.0240000086266577));
#965=CARTESIAN_POINT('',(0.0322889317852201,-0.0279620136835001,-0.0232000086266577));
#966=CARTESIAN_POINT('',(0.0322889317852201,-0.0279620136835001,-0.0240000086266577));
#967=CARTESIAN_POINT('',(0.0330627508316442,-0.0275552676798124,-0.0232000086266577));
#968=CARTESIAN_POINT('',(0.0330627508316442,-0.0275552676798124,-0.0240000086266577));
#969=CARTESIAN_POINT('',(0.0337729548072932,-0.0270579775023965,-0.0232000086266577));
#970=CARTESIAN_POINT('',(0.0337729548072932,-0.0270579775023965,-0.0240000086266577));
#971=CARTESIAN_POINT('',(0.0314886901239467,-0.0282513074447147,-0.0236000086266577));
#972=CARTESIAN_POINT('',(0.0314886901239467,-0.0282513074447147,-0.0232000086266577));
#973=CARTESIAN_POINT('',(0.0314886901239467,-0.0282513074447147,-0.0232000086266577));
#974=CARTESIAN_POINT('',(0.0322889317852201,-0.0279620136835001,-0.0232000086266577));
#975=CARTESIAN_POINT('',(0.0330627508316442,-0.0275552676798124,-0.0232000086266577));
#976=CARTESIAN_POINT('',(0.0337729548072932,-0.0270579775023965,-0.0232000086266577));
#977=CARTESIAN_POINT('',(0.0295798800202403,-0.0308178517507935,-0.0232000086266577));
#978=CARTESIAN_POINT('',(0.0295798800202403,-0.0308178517507935,-0.0240000086266577));
#979=CARTESIAN_POINT('',(0.029584123697415,-0.0308164968194627,-0.0232000086266577));
#980=CARTESIAN_POINT('',(0.029584123697415,-0.0308164968194627,-0.0240000086266577));
#981=CARTESIAN_POINT('',(0.029592613040898,-0.0308137856352904,-0.0232000086266577));
#982=CARTESIAN_POINT('',(0.029592613040898,-0.0308137856352904,-0.0240000086266577));
#983=CARTESIAN_POINT('',(0.0296053351213202,-0.0308097267880957,-0.0232000086266577));
#984=CARTESIAN_POINT('',(0.0296053351213202,-0.0308097267880957,-0.0240000086266577));
#985=CARTESIAN_POINT('',(0.0296180989735508,-0.0308056401891783,-0.0232000086266577));
#986=CARTESIAN_POINT('',(0.0296180989735508,-0.0308056401891783,-0.0240000086266577));
#987=CARTESIAN_POINT('',(0.0296307076733502,-0.0308016566680877,-0.0232000086266577));
#988=CARTESIAN_POINT('',(0.0296307076733502,-0.0308016566680877,-0.0240000086266577));
#989=CARTESIAN_POINT('',(0.0296416972881132,-0.0307980166008586,-0.0232000086266577));
#990=CARTESIAN_POINT('',(0.0296416972881132,-0.0307980166008586,-0.0240000086266577));
#991=CARTESIAN_POINT('',(0.0296494088803068,-0.0307958221273304,-0.0232000086266577));
#992=CARTESIAN_POINT('',(0.0296494088803068,-0.0307958221273304,-0.0240000086266577));
#993=CARTESIAN_POINT('',(0.0296581434543442,-0.0307922158112113,-0.0232000086266577));
#994=CARTESIAN_POINT('',(0.0296581434543442,-0.0307922158112113,-0.0240000086266577));
#995=CARTESIAN_POINT('',(0.0296556145586213,-0.0307960925488563,-0.0232000086266577));
#996=CARTESIAN_POINT('',(0.0296556145586213,-0.0307960925488563,-0.0240000086266577));
#997=CARTESIAN_POINT('',(0.0296885929781432,-0.0307760133684911,-0.0232000086266577));
#998=CARTESIAN_POINT('',(0.0296885929781432,-0.0307760133684911,-0.0240000086266577));
#999=CARTESIAN_POINT('',(0.0296364014503425,-0.0308121520054834,-0.0232000086266577));
#1000=CARTESIAN_POINT('',(0.0296364014503425,-0.0308121520054834,-0.0240000086266577));
#1001=CARTESIAN_POINT('',(0.0300460451411723,-0.0306067560052193,-0.0232000086266577));
#1002=CARTESIAN_POINT('',(0.0300460451411723,-0.0306067560052193,-0.0240000086266577));
#1003=CARTESIAN_POINT('',(0.0307053599583867,-0.0298921722624042,-0.0232000086266577));
#1004=CARTESIAN_POINT('',(0.0307053599583867,-0.0298921722624042,-0.0240000086266577));
#1005=CARTESIAN_POINT('',(0.0312286874370593,-0.0289117200706257,-0.0232000086266577));
#1006=CARTESIAN_POINT('',(0.0312286874370593,-0.0289117200706257,-0.0240000086266577));
#1007=CARTESIAN_POINT('',(0.0314886901239467,-0.0282513074447147,-0.0232000086266577));
#1008=CARTESIAN_POINT('',(0.0314886901239467,-0.0282513074447147,-0.0240000086266577));
#1009=CARTESIAN_POINT('',(0.0295804874659476,-0.0308176578045206,-0.0232800086266577));
#1010=CARTESIAN_POINT('',(0.0295804874659476,-0.0308176578045206,-0.0232000086266577));
#1011=CARTESIAN_POINT('',(0.0295804874659476,-0.0308176578045206,-0.0232000086266577));
#1012=CARTESIAN_POINT('',(0.0296147817292018,-0.0308067082505048,-0.0232000086266577));
#1013=CARTESIAN_POINT('',(0.0296201501604347,-0.0308065866570283,-0.0232000086266577));
#1014=CARTESIAN_POINT('',(0.0297299647864269,-0.0307656756670364,-0.0232000086266577));
#1015=CARTESIAN_POINT('',(0.0297589165101028,-0.0307510427263432,-0.0232000086266577));
#1016=CARTESIAN_POINT('',(0.0297589165101027,-0.0307510427263433,-0.0232000086266577));
#1017=CARTESIAN_POINT('',(0.0297589165101028,-0.0307510427263433,-0.0232000086266577));
#1018=CARTESIAN_POINT('',(0.0300163581836882,-0.0306209251283826,-0.0232000086266577));
#1019=CARTESIAN_POINT('',(0.0307611439661635,-0.0300992909185979,-0.0232000086266577));
#1020=CARTESIAN_POINT('',(0.0314886901239467,-0.0282513074447147,-0.0232000086266577));
#1021=CARTESIAN_POINT('',(0.0277873758037167,-0.0285748424706369,-0.0232000086266577));
#1022=CARTESIAN_POINT('',(0.0277873758037167,-0.0285748424706369,-0.0240000086266577));
#1023=CARTESIAN_POINT('',(0.0278486045241849,-0.0287871126825303,-0.0232000086266577));
#1024=CARTESIAN_POINT('',(0.0278486045241849,-0.0287871126825303,-0.0240000086266577));
#1025=CARTESIAN_POINT('',(0.0280520956811048,-0.029332204311479,-0.0232000086266577));
#1026=CARTESIAN_POINT('',(0.0280520956811048,-0.029332204311479,-0.0240000086266577));
#1027=CARTESIAN_POINT('',(0.0287357795191984,-0.0301947246597413,-0.0232000086266577));
#1028=CARTESIAN_POINT('',(0.0287357795191984,-0.0301947246597413,-0.0240000086266577));
#1029=CARTESIAN_POINT('',(0.0292865702078888,-0.0306253369807875,-0.0232000086266577));
#1030=CARTESIAN_POINT('',(0.0292865702078888,-0.0306253369807875,-0.0240000086266577));
#1031=CARTESIAN_POINT('',(0.0295804874659476,-0.0308176578045206,-0.0232000086266577));
#1032=CARTESIAN_POINT('',(0.0295804874659476,-0.0308176578045206,-0.0240000086266577));
#1033=CARTESIAN_POINT('',(0.0277873758037167,-0.028574842470637,-0.0236000086266577));
#1034=CARTESIAN_POINT('',(0.0277873758037167,-0.028574842470637,-0.0232000086266577));
#1035=CARTESIAN_POINT('',(0.0277873758037167,-0.0285748424706369,-0.0232000086266577));
#1036=CARTESIAN_POINT('',(0.0278486045241849,-0.0287871126825303,-0.0232000086266577));
#1037=CARTESIAN_POINT('',(0.0280520956811048,-0.029332204311479,-0.0232000086266577));
#1038=CARTESIAN_POINT('',(0.0287357795191984,-0.0301947246597413,-0.0232000086266577));
#1039=CARTESIAN_POINT('',(0.0292865702078888,-0.0306253369807875,-0.0232000086266577));
#1040=CARTESIAN_POINT('',(0.0295804874659476,-0.0308176578045206,-0.0232000086266577));
#1041=CARTESIAN_POINT('',(0.0253190540670843,-0.0268508110768587,-0.0232000086266577));
#1042=CARTESIAN_POINT('',(0.0253190540670843,-0.0268508110768587,-0.0240000086266577));
#1043=CARTESIAN_POINT('',(0.0259658574421894,-0.0277745420277691,-0.0232000086266577));
#1044=CARTESIAN_POINT('',(0.0259658574421894,-0.0277745420277691,-0.0240000086266577));
#1045=CARTESIAN_POINT('',(0.0268330712234409,-0.0283328843441453,-0.0232000086266577));
#1046=CARTESIAN_POINT('',(0.0268330712234409,-0.0283328843441453,-0.0240000086266577));
#1047=CARTESIAN_POINT('',(0.0277873758037168,-0.0285748424706369,-0.0232000086266577));
#1048=CARTESIAN_POINT('',(0.0277873758037168,-0.0285748424706369,-0.0240000086266577));
#1049=CARTESIAN_POINT('',(0.0253190540670843,-0.0268508110768587,-0.0232000086266577));
#1050=CARTESIAN_POINT('',(0.0253190540670843,-0.0268508110768587,-0.0232000086266577));
#1051=CARTESIAN_POINT('',(0.0253190540670843,-0.0268508110768587,-0.0232000086266577));
#1052=CARTESIAN_POINT('',(0.0259658574421894,-0.0277745420277691,-0.0232000086266577));
#1053=CARTESIAN_POINT('',(0.0268330712234409,-0.0283328843441453,-0.0232000086266577));
#1054=CARTESIAN_POINT('',(0.0277873758037168,-0.0285748424706369,-0.0232000086266577));
#1055=CARTESIAN_POINT('',(0.0259928009905442,-0.0199501138334417,-0.0232000086266577));
#1056=CARTESIAN_POINT('',(0.0259928009905442,-0.0199501138334417,-0.0240000086266577));
#1057=CARTESIAN_POINT('',(0.0251741631732848,-0.0207204557529242,-0.0232000086266577));
#1058=CARTESIAN_POINT('',(0.0251741631732848,-0.0207204557529242,-0.0240000086266577));
#1059=CARTESIAN_POINT('',(0.0237053522832398,-0.0225783400144748,-0.0232000086266577));
#1060=CARTESIAN_POINT('',(0.0237053522832398,-0.0225783400144748,-0.0240000086266577));
#1061=CARTESIAN_POINT('',(0.0242220853521778,-0.0252841773932065,-0.0232000086266577));
#1062=CARTESIAN_POINT('',(0.0242220853521778,-0.0252841773932065,-0.0240000086266577));
#1063=CARTESIAN_POINT('',(0.0253190540670843,-0.0268508110768587,-0.0232000086266577));
#1064=CARTESIAN_POINT('',(0.0253190540670843,-0.0268508110768587,-0.0240000086266577));
#1065=CARTESIAN_POINT('',(0.0259928009905438,-0.0199501138334413,-0.0236000086266577));
#1066=CARTESIAN_POINT('',(0.025992800990544,-0.0199501138334415,-0.0232000086266577));
#1067=CARTESIAN_POINT('',(0.0259928009905442,-0.0199501138334417,-0.0232000086266577));
#1068=CARTESIAN_POINT('',(0.0251741631732848,-0.0207204557529242,-0.0232000086266577));
#1069=CARTESIAN_POINT('',(0.0237053522832398,-0.0225783400144748,-0.0232000086266577));
#1070=CARTESIAN_POINT('',(0.0242220853521778,-0.0252841773932065,-0.0232000086266577));
#1071=CARTESIAN_POINT('',(0.0253190540670843,-0.0268508110768587,-0.0232000086266577));
#1072=CARTESIAN_POINT('',(0.0250058972942839,-0.0193021308146102,-0.0232000086266577));
#1073=CARTESIAN_POINT('',(0.0250058972942839,-0.0193021308146102,-0.0240000086266577));
#1074=CARTESIAN_POINT('',(0.025332243110037,-0.019633366530743,-0.0232000086266577));
#1075=CARTESIAN_POINT('',(0.025332243110037,-0.019633366530743,-0.0240000086266577));
#1076=CARTESIAN_POINT('',(0.0256725604526725,-0.01984050706733,-0.0232000086266577));
#1077=CARTESIAN_POINT('',(0.0256725604526725,-0.01984050706733,-0.0240000086266577));
#1078=CARTESIAN_POINT('',(0.0259928009905441,-0.0199501138334414,-0.0232000086266577));
#1079=CARTESIAN_POINT('',(0.0259928009905441,-0.0199501138334414,-0.0240000086266577));
#1080=CARTESIAN_POINT('',(0.0250058972942839,-0.0193021308146102,-0.0236000086266577));
#1081=CARTESIAN_POINT('',(0.0250058972942841,-0.0193021308146103,-0.0232000086266577));
#1082=CARTESIAN_POINT('',(0.0250058972942841,-0.0193021308146104,-0.0232000086266577));
#1083=CARTESIAN_POINT('',(0.025332243110037,-0.019633366530743,-0.0232000086266577));
#1084=CARTESIAN_POINT('',(0.0256725604526724,-0.01984050706733,-0.0232000086266577));
#1085=CARTESIAN_POINT('',(0.0259928009905439,-0.0199501138334413,-0.0232000086266577));
#1086=CARTESIAN_POINT('',(0.0232919856732369,-0.0215028271907463,-0.0232000086266577));
#1087=CARTESIAN_POINT('',(0.0232919856732369,-0.0215028271907463,-0.0240000086266577));
#1088=CARTESIAN_POINT('',(0.0232760198285087,-0.021287744346053,-0.0232000086266577));
#1089=CARTESIAN_POINT('',(0.0232760198285087,-0.021287744346053,-0.0240000086266577));
#1090=CARTESIAN_POINT('',(0.0232895097937547,-0.0209415045048797,-0.0232000086266577));
#1091=CARTESIAN_POINT('',(0.0232895097937547,-0.0209415045048797,-0.0240000086266577));
#1092=CARTESIAN_POINT('',(0.0234465092113906,-0.0203445258845053,-0.0232000086266577));
#1093=CARTESIAN_POINT('',(0.0234465092113906,-0.0203445258845053,-0.0240000086266577));
#1094=CARTESIAN_POINT('',(0.0239840795545591,-0.0196246096769417,-0.0232000086266577));
#1095=CARTESIAN_POINT('',(0.0239840795545591,-0.0196246096769417,-0.0240000086266577));
#1096=CARTESIAN_POINT('',(0.0246838424830692,-0.0193740933442888,-0.0232000086266577));
#1097=CARTESIAN_POINT('',(0.0246838424830692,-0.0193740933442888,-0.0240000086266577));
#1098=CARTESIAN_POINT('',(0.0250058972942841,-0.0193021308146102,-0.0232000086266577));
#1099=CARTESIAN_POINT('',(0.0250058972942841,-0.0193021308146102,-0.0240000086266577));
#1100=CARTESIAN_POINT('',(0.0232919856732369,-0.021502827190746,-0.0236000086266577));
#1101=CARTESIAN_POINT('',(0.0232919856732369,-0.021502827190746,-0.0232000086266577));
#1102=CARTESIAN_POINT('',(0.0232919856732369,-0.0215028271907461,-0.0232000086266577));
#1103=CARTESIAN_POINT('',(0.0232760198285088,-0.0212877443460531,-0.0232000086266577));
#1104=CARTESIAN_POINT('',(0.0232895097937547,-0.0209415045048793,-0.0232000086266577));
#1105=CARTESIAN_POINT('',(0.0234465092113906,-0.0203445258845053,-0.0232000086266577));
#1106=CARTESIAN_POINT('',(0.0239840795545591,-0.0196246096769416,-0.0232000086266577));
#1107=CARTESIAN_POINT('',(0.0246838424830692,-0.0193740933442888,-0.0232000086266577));
#1108=CARTESIAN_POINT('',(0.0250058972942841,-0.0193021308146102,-0.0232000086266577));
#1109=CARTESIAN_POINT('',(0.0225086177889829,-0.0234650320258914,-0.0232000086266577));
#1110=CARTESIAN_POINT('',(0.0225086177889829,-0.0234650320258914,-0.0240000086266577));
#1111=CARTESIAN_POINT('',(0.0232907284641444,-0.0229357073143919,-0.0232000086266577));
#1112=CARTESIAN_POINT('',(0.0232907284641444,-0.0229357073143919,-0.0240000086266577));
#1113=CARTESIAN_POINT('',(0.0233112128334129,-0.0218696291558425,-0.0232000086266577));
#1114=CARTESIAN_POINT('',(0.0233112128334129,-0.0218696291558425,-0.0240000086266577));
#1115=CARTESIAN_POINT('',(0.0232919856732369,-0.0215028271907461,-0.0232000086266577));
#1116=CARTESIAN_POINT('',(0.0232919856732369,-0.0215028271907461,-0.0240000086266577));
#1117=CARTESIAN_POINT('',(0.0225087746746509,-0.0234649257388315,-0.0232000086266577));
#1118=CARTESIAN_POINT('',(0.0225087746746509,-0.0234649257388315,-0.0232000086266577));
#1119=CARTESIAN_POINT('',(0.0225087747182318,-0.0234649258032075,-0.0232000086266577));
#1120=CARTESIAN_POINT('',(0.0232907358008688,-0.022935557506123,-0.0232000086266577));
#1121=CARTESIAN_POINT('',(0.0233112115473658,-0.0218696046215533,-0.0232000086266577));
#1122=CARTESIAN_POINT('',(0.0232919856732369,-0.0215028271907467,-0.0232000086266577));
#1123=CARTESIAN_POINT('',(0.0218339717574383,-0.0226410889118437,-0.0232000086266577));
#1124=CARTESIAN_POINT('',(0.0218339717574383,-0.0226410889118437,-0.0240000086266577));
#1125=CARTESIAN_POINT('',(0.0217811907146152,-0.0227457965564232,-0.0232000086266577));
#1126=CARTESIAN_POINT('',(0.0217811907146152,-0.0227457965564232,-0.0240000086266577));
#1127=CARTESIAN_POINT('',(0.0217086636035878,-0.022928092742841,-0.0232000086266577));
#1128=CARTESIAN_POINT('',(0.0217086636035878,-0.022928092742841,-0.0240000086266577));
#1129=CARTESIAN_POINT('',(0.0216590057761281,-0.0231812276185764,-0.0232000086266577));
#1130=CARTESIAN_POINT('',(0.0216590057761281,-0.0231812276185764,-0.0240000086266577));
#1131=CARTESIAN_POINT('',(0.0216549126099554,-0.0233652249095249,-0.0232000086266577));
#1132=CARTESIAN_POINT('',(0.0216549126099554,-0.0233652249095249,-0.0240000086266577));
#1133=CARTESIAN_POINT('',(0.0217383165420547,-0.0235927059820095,-0.0232000086266577));
#1134=CARTESIAN_POINT('',(0.0217383165420547,-0.0235927059820095,-0.0240000086266577));
#1135=CARTESIAN_POINT('',(0.0220112060576866,-0.0236965295839425,-0.0232000086266577));
#1136=CARTESIAN_POINT('',(0.0220112060576866,-0.0236965295839425,-0.0240000086266577));
#1137=CARTESIAN_POINT('',(0.0222389245113067,-0.0236260959847368,-0.0232000086266577));
#1138=CARTESIAN_POINT('',(0.0222389245113067,-0.0236260959847368,-0.0240000086266577));
#1139=CARTESIAN_POINT('',(0.0224113810766331,-0.0235309753904905,-0.0232000086266577));
#1140=CARTESIAN_POINT('',(0.0224113810766331,-0.0235309753904905,-0.0240000086266577));
#1141=CARTESIAN_POINT('',(0.0225087746746508,-0.0234649257388316,-0.0232000086266577));
#1142=CARTESIAN_POINT('',(0.0225087746746508,-0.0234649257388316,-0.0240000086266577));
#1143=CARTESIAN_POINT('',(0.0218339717574382,-0.0226410889118437,-0.0236000086266577));
#1144=CARTESIAN_POINT('',(0.0218339717574382,-0.0226410889118437,-0.0232000086266577));
#1145=CARTESIAN_POINT('',(0.0218339717574383,-0.0226410889118437,-0.0232000086266577));
#1146=CARTESIAN_POINT('',(0.0217811907146152,-0.0227457965564232,-0.0232000086266577));
#1147=CARTESIAN_POINT('',(0.0217086636035878,-0.022928092742841,-0.0232000086266577));
#1148=CARTESIAN_POINT('',(0.0216590057761281,-0.0231812276185764,-0.0232000086266577));
#1149=CARTESIAN_POINT('',(0.0216549126099554,-0.0233652249095249,-0.0232000086266577));
#1150=CARTESIAN_POINT('',(0.0217383165420547,-0.0235927059820095,-0.0232000086266577));
#1151=CARTESIAN_POINT('',(0.0220112060576866,-0.0236965295839425,-0.0232000086266577));
#1152=CARTESIAN_POINT('',(0.0222389245113068,-0.0236260959847368,-0.0232000086266577));
#1153=CARTESIAN_POINT('',(0.0224113810766331,-0.0235309753904905,-0.0232000086266577));
#1154=CARTESIAN_POINT('',(0.0225087746746508,-0.0234649257388316,-0.0232000086266577));
#1155=CARTESIAN_POINT('',(0.0218501780617692,-0.0209712671999892,-0.0232000086266577));
#1156=CARTESIAN_POINT('',(0.0218501780617692,-0.0209712671999892,-0.0240000086266577));
#1157=CARTESIAN_POINT('',(0.0218814986172035,-0.0211021631999284,-0.0232000086266577));
#1158=CARTESIAN_POINT('',(0.0218814986172035,-0.0211021631999284,-0.0240000086266577));
#1159=CARTESIAN_POINT('',(0.0219823766028758,-0.0217685955415014,-0.0232000086266577));
#1160=CARTESIAN_POINT('',(0.0219823766028758,-0.0217685955415014,-0.0240000086266577));
#1161=CARTESIAN_POINT('',(0.0219113321459716,-0.0224797810862443,-0.0232000086266577));
#1162=CARTESIAN_POINT('',(0.0219113321459716,-0.0224797810862443,-0.0240000086266577));
#1163=CARTESIAN_POINT('',(0.0218339717574383,-0.0226410889118437,-0.0232000086266577));
#1164=CARTESIAN_POINT('',(0.0218339717574383,-0.0226410889118437,-0.0240000086266577));
#1165=CARTESIAN_POINT('',(0.0218501780617692,-0.0209712671999892,-0.0236000086266577));
#1166=CARTESIAN_POINT('',(0.0218501780617692,-0.0209712671999892,-0.0232000086266577));
#1167=CARTESIAN_POINT('',(0.0218501780617692,-0.0209712671999892,-0.0232000086266577));
#1168=CARTESIAN_POINT('',(0.0218814986172035,-0.0211021631999283,-0.0232000086266577));
#1169=CARTESIAN_POINT('',(0.0219823766028758,-0.0217685955415011,-0.0232000086266577));
#1170=CARTESIAN_POINT('',(0.0219113321459717,-0.0224797810862438,-0.0232000086266577));
#1171=CARTESIAN_POINT('',(0.0218339717574384,-0.0226410889118434,-0.0232000086266577));
#1172=CARTESIAN_POINT('',(0.0239004689021598,-0.0178459845365914,-0.0232000086266577));
#1173=CARTESIAN_POINT('',(0.0239004689021598,-0.0178459845365914,-0.0240000086266577));
#1174=CARTESIAN_POINT('',(0.0227785430589945,-0.0183980767573605,-0.0232000086266577));
#1175=CARTESIAN_POINT('',(0.0227785430589945,-0.0183980767573605,-0.0240000086266577));
#1176=CARTESIAN_POINT('',(0.0216362464763378,-0.0196254563431801,-0.0232000086266577));
#1177=CARTESIAN_POINT('',(0.0216362464763378,-0.0196254563431801,-0.0240000086266577));
#1178=CARTESIAN_POINT('',(0.0217633895938294,-0.0206550161651283,-0.0232000086266577));
#1179=CARTESIAN_POINT('',(0.0217633895938294,-0.0206550161651283,-0.0240000086266577));
#1180=CARTESIAN_POINT('',(0.0218501780617692,-0.0209712671999892,-0.0232000086266577));
#1181=CARTESIAN_POINT('',(0.0218501780617692,-0.0209712671999892,-0.0240000086266577));
#1182=CARTESIAN_POINT('',(0.0239004689021597,-0.0178459845365912,-0.0236000086266577));
#1183=CARTESIAN_POINT('',(0.0239004689021598,-0.0178459845365913,-0.0232000086266577));
#1184=CARTESIAN_POINT('',(0.0239004689021598,-0.0178459845365914,-0.0232000086266577));
#1185=CARTESIAN_POINT('',(0.0227785430589945,-0.0183980767573605,-0.0232000086266577));
#1186=CARTESIAN_POINT('',(0.0216362464763379,-0.0196254563431801,-0.0232000086266577));
#1187=CARTESIAN_POINT('',(0.0217633895938294,-0.0206550161651282,-0.0232000086266577));
#1188=CARTESIAN_POINT('',(0.0218501780617692,-0.0209712671999892,-0.0232000086266577));
#1189=CARTESIAN_POINT('',(0.022952283088827,-0.0164698164528069,-0.0232000086266577));
#1190=CARTESIAN_POINT('',(0.022952283088827,-0.0164698164528069,-0.0240000086266577));
#1191=CARTESIAN_POINT('',(0.0230897641587565,-0.0166672556787928,-0.0232000086266577));
#1192=CARTESIAN_POINT('',(0.0230897641587565,-0.0166672556787928,-0.0240000086266577));
#1193=CARTESIAN_POINT('',(0.023470189012731,-0.0172281725890591,-0.0232000086266577));
#1194=CARTESIAN_POINT('',(0.023470189012731,-0.0172281725890591,-0.0240000086266577));
#1195=CARTESIAN_POINT('',(0.0239004689021598,-0.0178459845365913,-0.0232000086266577));
#1196=CARTESIAN_POINT('',(0.0239004689021598,-0.0178459845365913,-0.0240000086266577));
#1197=CARTESIAN_POINT('',(0.022952283088827,-0.0164698164528069,-0.0236000086266577));
#1198=CARTESIAN_POINT('',(0.022952283088827,-0.0164698164528069,-0.0232000086266577));
#1199=CARTESIAN_POINT('',(0.0229522830888271,-0.0164698164528071,-0.0232000086266577));
#1200=CARTESIAN_POINT('',(0.0230897641587567,-0.0166672556787932,-0.0232000086266577));
#1201=CARTESIAN_POINT('',(0.0234701890127312,-0.0172281725890593,-0.0232000086266577));
#1202=CARTESIAN_POINT('',(0.0239004689021598,-0.0178459845365913,-0.0232000086266577));
#1203=CARTESIAN_POINT('',(0.0224732473863955,-0.0165459224103182,-0.0232000086266577));
#1204=CARTESIAN_POINT('',(0.0224732473863955,-0.0165459224103182,-0.0240000086266577));
#1205=CARTESIAN_POINT('',(0.0225994488735692,-0.0164347534096366,-0.0232000086266577));
#1206=CARTESIAN_POINT('',(0.0225994488735692,-0.0164347534096366,-0.0240000086266577));
#1207=CARTESIAN_POINT('',(0.0227882873288199,-0.0163741887498488,-0.0232000086266577));
#1208=CARTESIAN_POINT('',(0.0227882873288199,-0.0163741887498488,-0.0240000086266577));
#1209=CARTESIAN_POINT('',(0.0228995672993012,-0.0164247331965395,-0.0232000086266577));
#1210=CARTESIAN_POINT('',(0.0228995672993012,-0.0164247331965395,-0.0240000086266577));
#1211=CARTESIAN_POINT('',(0.022952283088827,-0.0164698164528069,-0.0232000086266577));
#1212=CARTESIAN_POINT('',(0.022952283088827,-0.0164698164528069,-0.0240000086266577));
#1213=CARTESIAN_POINT('',(0.0224732473863955,-0.0165459224103181,-0.0236000086266577));
#1214=CARTESIAN_POINT('',(0.0224732473863955,-0.0165459224103181,-0.0232000086266577));
#1215=CARTESIAN_POINT('',(0.0224732473863955,-0.0165459224103181,-0.0232000086266577));
#1216=CARTESIAN_POINT('',(0.0225994488735692,-0.0164347534096365,-0.0232000086266577));
#1217=CARTESIAN_POINT('',(0.0227882873288199,-0.0163741887498488,-0.0232000086266577));
#1218=CARTESIAN_POINT('',(0.0228995672993012,-0.0164247331965395,-0.0232000086266577));
#1219=CARTESIAN_POINT('',(0.022952283088827,-0.0164698164528069,-0.0232000086266577));
#1220=CARTESIAN_POINT('',(0.0222467259439484,-0.0283906453179089,-0.0232000086266577));
#1221=CARTESIAN_POINT('',(0.0222467259439484,-0.0283906453179089,-0.0240000086266577));
#1222=CARTESIAN_POINT('',(0.0197044862654742,-0.0246989693044917,-0.0232000086266577));
#1223=CARTESIAN_POINT('',(0.0197044862654742,-0.0246989693044917,-0.0240000086266577));
#1224=CARTESIAN_POINT('',(0.0199361471971427,-0.0199436585018918,-0.0232000086266577));
#1225=CARTESIAN_POINT('',(0.0199361471971427,-0.0199436585018918,-0.0240000086266577));
#1226=CARTESIAN_POINT('',(0.0224732473863955,-0.0165459224103181,-0.0232000086266577));
#1227=CARTESIAN_POINT('',(0.0224732473863955,-0.0165459224103181,-0.0240000086266577));
#1228=CARTESIAN_POINT('',(0.0222467259439484,-0.0283906453179089,-0.0232000086266577));
#1229=CARTESIAN_POINT('',(0.0197044862654742,-0.0246989693044917,-0.0232000086266577));
#1230=CARTESIAN_POINT('',(0.0199361471971427,-0.0199436585018918,-0.0232000086266577));
#1231=CARTESIAN_POINT('',(0.0224732473863955,-0.0165459224103181,-0.0232000086266577));
#1232=CARTESIAN_POINT('',(0.0296103392685378,-0.0305981799359355,-0.0232000086266577));
#1233=MECHANICAL_DESIGN_GEOMETRIC_PRESENTATION_REPRESENTATION('',(#514),
#1234);
#1234=(
GEOMETRIC_REPRESENTATION_CONTEXT(3)
GLOBAL_UNCERTAINTY_ASSIGNED_CONTEXT((#1235))
GLOBAL_UNIT_ASSIGNED_CONTEXT((#1238,#1237,#1236))
REPRESENTATION_CONTEXT('GitLogo','TOP_LEVEL_ASSEMBLY_PART')
);
#1235=UNCERTAINTY_MEASURE_WITH_UNIT(LENGTH_MEASURE(2.E-5),#1238,
'DISTANCE_ACCURACY_VALUE','Maximum Tolerance applied to model');
#1236=(
NAMED_UNIT(*)
SI_UNIT($,.STERADIAN.)
SOLID_ANGLE_UNIT()
);
#1237=(
NAMED_UNIT(*)
PLANE_ANGLE_UNIT()
SI_UNIT($,.RADIAN.)
);
#1238=(
LENGTH_UNIT()
NAMED_UNIT(*)
SI_UNIT($,.METRE.)
);
#1239=PRODUCT_DEFINITION_SHAPE('','',#1240);
#1240=PRODUCT_DEFINITION('','',#1242,#1241);
#1241=PRODUCT_DEFINITION_CONTEXT('',#1248,'design');
#1242=PRODUCT_DEFINITION_FORMATION_WITH_SPECIFIED_SOURCE('','',#1244,
 .NOT_KNOWN.);
#1243=PRODUCT_RELATED_PRODUCT_CATEGORY('','',(#1244));
#1244=PRODUCT('GitLogo','GitLogo','GitLogo',(#1246));
#1245=PRODUCT_CATEGORY('','');
#1246=PRODUCT_CONTEXT('',#1248,'mechanical');
#1247=APPLICATION_PROTOCOL_DEFINITION('international standard',
'ap242_managed_model_based_3d_engineering',2020,#1248);
#1248=APPLICATION_CONTEXT('managed model based 3d engineering');
ENDSEC;
END-ISO-10303-21;
