ISO-10303-21;
HEADER;
/* Generated by software containing ST-Developer
 * from STEP Tools, Inc. (www.steptools.com) 
 */
/* OPTION: using custom renumber hook */

FILE_DESCRIPTION(
/* description */ ('STEP AP242 Edition 2',
'CAx-IF Rec.Pracs.---Representation and Presentation of Product Manufa
cturing Information (PMI)---4.0---2014-10-13',
'CAx-IF Rec.Pracs.---3D Tessellated Geometry---0.4---2014-09-14','2;1',
'CAx-IF Rec.Pracs.---User Defined Attributes---1.5---2016-08-15'),
/* implementation_level */ '2;1');

FILE_NAME(
/* name */ 'M_BUTTONS - PowerButton',
/* time_stamp */ '2026-09-23T14:39:54Z',
/* author */ (''),
/* organization */ (''),
/* preprocessor_version */ 'ST-DEVELOPER v20',
/* originating_system */ 'ONSHAPE BY PTC INC, 1.221',
/* authorisation */ '  ');

FILE_SCHEMA (('AP242_MANAGED_MODEL_BASED_3D_ENGINEERING_MIM_LF { 1 0 10303 442 3 1 4 }'));
ENDSEC;

DATA;
#10=SHAPE_REPRESENTATION_RELATIONSHIP('','',#381,#11);
#11=ADVANCED_BREP_SHAPE_REPRESENTATION('',(#379),#732);
#12=B_SPLINE_SURFACE_WITH_KNOTS('',2,3,((#643,#644,#645,#646,#647,#648,
#649,#650,#651,#652,#653,#654,#655,#656,#657,#658,#659,#660),(#661,#662,
#663,#664,#665,#666,#667,#668,#669,#670,#671,#672,#673,#674,#675,#676,#677,
#678),(#679,#680,#681,#682,#683,#684,#685,#686,#687,#688,#689,#690,#691,
#692,#693,#694,#695,#696)),.UNSPECIFIED.,.F.,.T.,.F.,(3,3),(4,2,2,2,2,2,
2,2,4),(0.,1.),(0.,0.785398163397448,1.5707963267949,2.35619449019234,3.1415926535898,
3.92699081698724,4.71238898038469,5.49778714378214,6.28318530717959),
 .UNSPECIFIED.);
#13=B_SPLINE_CURVE_WITH_KNOTS('',3,(#623,#624,#625,#626,#627,#628,#629,
#630,#631,#632,#633,#634,#635,#636,#637,#638,#639,#640,#641),
 .UNSPECIFIED.,.T.,.F.,(1,1,1,1,1,1,1,1,1,1,1,1,1,1,1,1,1,1,1,1,1,1,1),
(-0.190789473684211,-0.128289473684211,-0.0657894736842105,0.,0.059375,
0.12171875,0.1842109375,0.246710546875,0.30921052734375,0.371710526367187,
0.434210526318359,0.496710526315918,0.559210526315796,0.62171052631579,
0.684210526315789,0.746710526315789,0.809210526315789,0.871710526315789,
0.934210526315789,1.,1.059375,1.12171875,1.1842109375),.UNSPECIFIED.);
#14=(
BOUNDED_CURVE()
B_SPLINE_CURVE(3,(#556,#557,#558,#559,#560,#561,#562,#563,#564,#565,#566,
#567,#568,#569,#570,#571,#572,#573),.UNSPECIFIED.,.T.,.F.)
B_SPLINE_CURVE_WITH_KNOTS((4,2,2,2,2,2,2,2,4),(0.,0.785398163397448,1.5707963267949,
2.35619449019234,3.1415926535898,3.92699081698724,4.71238898038469,5.49778714378214,
6.28318530717959),.UNSPECIFIED.)
CURVE()
GEOMETRIC_REPRESENTATION_ITEM()
RATIONAL_B_SPLINE_CURVE((1.,1.,1.,1.,1.,1.,1.,1.,1.,1.,1.,1.,1.,1.,1.,1.,
1.,1.))
REPRESENTATION_ITEM('')
);
#15=CYLINDRICAL_SURFACE('',#387,0.00435);
#16=CYLINDRICAL_SURFACE('',#392,0.00495);
#17=CYLINDRICAL_SURFACE('',#396,0.00495);
#18=CYLINDRICAL_SURFACE('',#413,0.0028238144481425);
#19=CYLINDRICAL_SURFACE('',#414,0.0005);
#20=CYLINDRICAL_SURFACE('',#415,0.0018238144481425);
#21=CYLINDRICAL_SURFACE('',#416,0.0005);
#22=CYLINDRICAL_SURFACE('',#421,0.0005);
#23=CYLINDRICAL_SURFACE('',#422,0.0005);
#24=LINE('',#541,#52);
#25=LINE('',#545,#53);
#26=LINE('',#547,#54);
#27=LINE('',#550,#55);
#28=LINE('',#552,#56);
#29=LINE('',#554,#57);
#30=LINE('',#575,#58);
#31=LINE('',#577,#59);
#32=LINE('',#581,#60);
#33=LINE('',#586,#61);
#34=LINE('',#588,#62);
#35=LINE('',#592,#63);
#36=LINE('',#594,#64);
#37=LINE('',#596,#65);
#38=LINE('',#598,#66);
#39=LINE('',#600,#67);
#40=LINE('',#607,#68);
#41=LINE('',#612,#69);
#42=LINE('',#707,#70);
#43=LINE('',#708,#71);
#44=LINE('',#710,#72);
#45=LINE('',#712,#73);
#46=LINE('',#718,#74);
#47=LINE('',#722,#75);
#48=LINE('',#724,#76);
#49=LINE('',#725,#77);
#50=LINE('',#727,#78);
#51=LINE('',#729,#79);
#52=VECTOR('',#430,1.);
#53=VECTOR('',#433,1.);
#54=VECTOR('',#436,1.);
#55=VECTOR('',#437,1.);
#56=VECTOR('',#438,1.);
#57=VECTOR('',#439,1.);
#58=VECTOR('',#442,1.);
#59=VECTOR('',#443,1.);
#60=VECTOR('',#446,1.);
#61=VECTOR('',#453,1.);
#62=VECTOR('',#454,1.);
#63=VECTOR('',#459,1.);
#64=VECTOR('',#462,1.);
#65=VECTOR('',#465,1.);
#66=VECTOR('',#466,1.);
#67=VECTOR('',#467,1.);
#68=VECTOR('',#480,1.);
#69=VECTOR('',#483,1.);
#70=VECTOR('',#506,1.);
#71=VECTOR('',#507,1.);
#72=VECTOR('',#510,1.);
#73=VECTOR('',#513,1.);
#74=VECTOR('',#520,1.);
#75=VECTOR('',#523,1.);
#76=VECTOR('',#526,1.);
#77=VECTOR('',#527,1.);
#78=VECTOR('',#530,1.);
#79=VECTOR('',#533,1.);
#80=ORIENTED_EDGE('',*,*,#180,.F.);
#81=ORIENTED_EDGE('',*,*,#181,.F.);
#82=ORIENTED_EDGE('',*,*,#182,.T.);
#83=ORIENTED_EDGE('',*,*,#183,.F.);
#84=ORIENTED_EDGE('',*,*,#184,.F.);
#85=ORIENTED_EDGE('',*,*,#185,.T.);
#86=ORIENTED_EDGE('',*,*,#186,.T.);
#87=ORIENTED_EDGE('',*,*,#187,.F.);
#88=ORIENTED_EDGE('',*,*,#188,.T.);
#89=ORIENTED_EDGE('',*,*,#189,.F.);
#90=ORIENTED_EDGE('',*,*,#180,.T.);
#91=ORIENTED_EDGE('',*,*,#190,.T.);
#92=ORIENTED_EDGE('',*,*,#191,.T.);
#93=ORIENTED_EDGE('',*,*,#192,.F.);
#94=ORIENTED_EDGE('',*,*,#193,.T.);
#95=ORIENTED_EDGE('',*,*,#187,.T.);
#96=ORIENTED_EDGE('',*,*,#194,.T.);
#97=ORIENTED_EDGE('',*,*,#195,.F.);
#98=ORIENTED_EDGE('',*,*,#181,.T.);
#99=ORIENTED_EDGE('',*,*,#189,.T.);
#100=ORIENTED_EDGE('',*,*,#196,.F.);
#101=ORIENTED_EDGE('',*,*,#182,.F.);
#102=ORIENTED_EDGE('',*,*,#195,.T.);
#103=ORIENTED_EDGE('',*,*,#197,.T.);
#104=ORIENTED_EDGE('',*,*,#198,.F.);
#105=ORIENTED_EDGE('',*,*,#190,.F.);
#106=ORIENTED_EDGE('',*,*,#183,.T.);
#107=ORIENTED_EDGE('',*,*,#198,.T.);
#108=ORIENTED_EDGE('',*,*,#199,.F.);
#109=ORIENTED_EDGE('',*,*,#200,.F.);
#110=ORIENTED_EDGE('',*,*,#192,.T.);
#111=ORIENTED_EDGE('',*,*,#201,.T.);
#112=ORIENTED_EDGE('',*,*,#202,.F.);
#113=ORIENTED_EDGE('',*,*,#203,.F.);
#114=ORIENTED_EDGE('',*,*,#202,.T.);
#115=ORIENTED_EDGE('',*,*,#204,.T.);
#116=ORIENTED_EDGE('',*,*,#185,.F.);
#117=ORIENTED_EDGE('',*,*,#186,.F.);
#118=ORIENTED_EDGE('',*,*,#204,.F.);
#119=ORIENTED_EDGE('',*,*,#201,.F.);
#120=ORIENTED_EDGE('',*,*,#191,.F.);
#121=ORIENTED_EDGE('',*,*,#199,.T.);
#122=ORIENTED_EDGE('',*,*,#197,.F.);
#123=ORIENTED_EDGE('',*,*,#196,.T.);
#124=ORIENTED_EDGE('',*,*,#194,.F.);
#125=ORIENTED_EDGE('',*,*,#193,.F.);
#126=ORIENTED_EDGE('',*,*,#200,.T.);
#127=ORIENTED_EDGE('',*,*,#203,.T.);
#128=ORIENTED_EDGE('',*,*,#184,.T.);
#129=ORIENTED_EDGE('',*,*,#205,.F.);
#130=ORIENTED_EDGE('',*,*,#206,.F.);
#131=ORIENTED_EDGE('',*,*,#207,.T.);
#132=ORIENTED_EDGE('',*,*,#208,.F.);
#133=ORIENTED_EDGE('',*,*,#209,.F.);
#134=ORIENTED_EDGE('',*,*,#210,.F.);
#135=ORIENTED_EDGE('',*,*,#211,.F.);
#136=ORIENTED_EDGE('',*,*,#212,.T.);
#137=ORIENTED_EDGE('',*,*,#213,.T.);
#138=ORIENTED_EDGE('',*,*,#188,.F.);
#139=ORIENTED_EDGE('',*,*,#213,.F.);
#140=ORIENTED_EDGE('',*,*,#214,.F.);
#141=ORIENTED_EDGE('',*,*,#215,.T.);
#142=ORIENTED_EDGE('',*,*,#216,.F.);
#143=ORIENTED_EDGE('',*,*,#217,.F.);
#144=ORIENTED_EDGE('',*,*,#217,.T.);
#145=ORIENTED_EDGE('',*,*,#218,.T.);
#146=ORIENTED_EDGE('',*,*,#210,.T.);
#147=ORIENTED_EDGE('',*,*,#219,.F.);
#148=ORIENTED_EDGE('',*,*,#216,.T.);
#149=ORIENTED_EDGE('',*,*,#220,.T.);
#150=ORIENTED_EDGE('',*,*,#211,.T.);
#151=ORIENTED_EDGE('',*,*,#218,.F.);
#152=ORIENTED_EDGE('',*,*,#221,.T.);
#153=ORIENTED_EDGE('',*,*,#212,.F.);
#154=ORIENTED_EDGE('',*,*,#220,.F.);
#155=ORIENTED_EDGE('',*,*,#215,.F.);
#156=ORIENTED_EDGE('',*,*,#214,.T.);
#157=ORIENTED_EDGE('',*,*,#219,.T.);
#158=ORIENTED_EDGE('',*,*,#209,.T.);
#159=ORIENTED_EDGE('',*,*,#221,.F.);
#160=ORIENTED_EDGE('',*,*,#222,.F.);
#161=ORIENTED_EDGE('',*,*,#223,.F.);
#162=ORIENTED_EDGE('',*,*,#224,.F.);
#163=ORIENTED_EDGE('',*,*,#225,.T.);
#164=ORIENTED_EDGE('',*,*,#226,.T.);
#165=ORIENTED_EDGE('',*,*,#207,.F.);
#166=ORIENTED_EDGE('',*,*,#227,.F.);
#167=ORIENTED_EDGE('',*,*,#225,.F.);
#168=ORIENTED_EDGE('',*,*,#224,.T.);
#169=ORIENTED_EDGE('',*,*,#228,.T.);
#170=ORIENTED_EDGE('',*,*,#208,.T.);
#171=ORIENTED_EDGE('',*,*,#226,.F.);
#172=ORIENTED_EDGE('',*,*,#222,.T.);
#173=ORIENTED_EDGE('',*,*,#227,.T.);
#174=ORIENTED_EDGE('',*,*,#206,.T.);
#175=ORIENTED_EDGE('',*,*,#229,.F.);
#176=ORIENTED_EDGE('',*,*,#223,.T.);
#177=ORIENTED_EDGE('',*,*,#229,.T.);
#178=ORIENTED_EDGE('',*,*,#205,.T.);
#179=ORIENTED_EDGE('',*,*,#228,.F.);
#180=EDGE_CURVE('',#230,#231,#264,.T.);
#181=EDGE_CURVE('',#232,#230,#24,.T.);
#182=EDGE_CURVE('',#232,#233,#265,.T.);
#183=EDGE_CURVE('',#231,#233,#25,.T.);
#184=EDGE_CURVE('',#234,#235,#26,.T.);
#185=EDGE_CURVE('',#234,#236,#27,.T.);
#186=EDGE_CURVE('',#236,#237,#28,.T.);
#187=EDGE_CURVE('',#235,#237,#29,.T.);
#188=EDGE_CURVE('',#238,#238,#14,.F.);
#189=EDGE_CURVE('',#230,#239,#30,.T.);
#190=EDGE_CURVE('',#231,#240,#31,.T.);
#191=EDGE_CURVE('',#240,#241,#266,.T.);
#192=EDGE_CURVE('',#242,#241,#32,.T.);
#193=EDGE_CURVE('',#242,#235,#267,.T.);
#194=EDGE_CURVE('',#237,#239,#268,.T.);
#195=EDGE_CURVE('',#232,#243,#33,.T.);
#196=EDGE_CURVE('',#243,#239,#34,.T.);
#197=EDGE_CURVE('',#243,#244,#269,.T.);
#198=EDGE_CURVE('',#233,#244,#35,.T.);
#199=EDGE_CURVE('',#240,#244,#36,.T.);
#200=EDGE_CURVE('',#242,#245,#37,.T.);
#201=EDGE_CURVE('',#241,#246,#38,.T.);
#202=EDGE_CURVE('',#245,#246,#39,.T.);
#203=EDGE_CURVE('',#245,#234,#270,.T.);
#204=EDGE_CURVE('',#246,#236,#271,.T.);
#205=EDGE_CURVE('',#247,#248,#40,.T.);
#206=EDGE_CURVE('',#249,#247,#272,.T.);
#207=EDGE_CURVE('',#249,#250,#41,.T.);
#208=EDGE_CURVE('',#248,#250,#273,.T.);
#209=EDGE_CURVE('',#251,#252,#274,.T.);
#210=EDGE_CURVE('',#253,#251,#275,.T.);
#211=EDGE_CURVE('',#254,#253,#276,.T.);
#212=EDGE_CURVE('',#254,#252,#277,.T.);
#213=EDGE_CURVE('',#255,#255,#13,.T.);
#214=EDGE_CURVE('',#256,#257,#278,.F.);
#215=EDGE_CURVE('',#256,#258,#279,.F.);
#216=EDGE_CURVE('',#259,#258,#280,.F.);
#217=EDGE_CURVE('',#257,#259,#281,.F.);
#218=EDGE_CURVE('',#259,#253,#42,.T.);
#219=EDGE_CURVE('',#257,#251,#43,.T.);
#220=EDGE_CURVE('',#258,#254,#44,.T.);
#221=EDGE_CURVE('',#256,#252,#45,.T.);
#222=EDGE_CURVE('',#260,#261,#282,.F.);
#223=EDGE_CURVE('',#262,#260,#46,.T.);
#224=EDGE_CURVE('',#263,#262,#283,.F.);
#225=EDGE_CURVE('',#263,#261,#47,.T.);
#226=EDGE_CURVE('',#263,#250,#48,.T.);
#227=EDGE_CURVE('',#261,#249,#49,.T.);
#228=EDGE_CURVE('',#262,#248,#50,.T.);
#229=EDGE_CURVE('',#260,#247,#51,.T.);
#230=VERTEX_POINT('',#539);
#231=VERTEX_POINT('',#540);
#232=VERTEX_POINT('',#542);
#233=VERTEX_POINT('',#544);
#234=VERTEX_POINT('',#548);
#235=VERTEX_POINT('',#549);
#236=VERTEX_POINT('',#551);
#237=VERTEX_POINT('',#553);
#238=VERTEX_POINT('',#574);
#239=VERTEX_POINT('',#576);
#240=VERTEX_POINT('',#578);
#241=VERTEX_POINT('',#580);
#242=VERTEX_POINT('',#582);
#243=VERTEX_POINT('',#587);
#244=VERTEX_POINT('',#591);
#245=VERTEX_POINT('',#597);
#246=VERTEX_POINT('',#599);
#247=VERTEX_POINT('',#608);
#248=VERTEX_POINT('',#609);
#249=VERTEX_POINT('',#611);
#250=VERTEX_POINT('',#613);
#251=VERTEX_POINT('',#616);
#252=VERTEX_POINT('',#617);
#253=VERTEX_POINT('',#619);
#254=VERTEX_POINT('',#621);
#255=VERTEX_POINT('',#642);
#256=VERTEX_POINT('',#699);
#257=VERTEX_POINT('',#700);
#258=VERTEX_POINT('',#702);
#259=VERTEX_POINT('',#704);
#260=VERTEX_POINT('',#716);
#261=VERTEX_POINT('',#717);
#262=VERTEX_POINT('',#719);
#263=VERTEX_POINT('',#721);
#264=CIRCLE('',#384,0.00435);
#265=CIRCLE('',#385,0.00495);
#266=CIRCLE('',#388,0.00435);
#267=CIRCLE('',#389,0.00435);
#268=CIRCLE('',#390,0.00435);
#269=CIRCLE('',#393,0.00495);
#270=CIRCLE('',#397,0.00495);
#271=CIRCLE('',#398,0.00495);
#272=CIRCLE('',#402,0.0005);
#273=CIRCLE('',#403,0.0005);
#274=CIRCLE('',#404,0.0005);
#275=CIRCLE('',#405,0.0028238144481425);
#276=CIRCLE('',#406,0.0005);
#277=CIRCLE('',#407,0.0018238144481425);
#278=CIRCLE('',#409,0.0005);
#279=CIRCLE('',#410,0.0018238144481425);
#280=CIRCLE('',#411,0.0005);
#281=CIRCLE('',#412,0.0028238144481425);
#282=CIRCLE('',#418,0.0005);
#283=CIRCLE('',#419,0.0005);
#284=EDGE_LOOP('',(#80,#81,#82,#83));
#285=EDGE_LOOP('',(#84,#85,#86,#87));
#286=EDGE_LOOP('',(#88));
#287=EDGE_LOOP('',(#89,#90,#91,#92,#93,#94,#95,#96));
#288=EDGE_LOOP('',(#97,#98,#99,#100));
#289=EDGE_LOOP('',(#101,#102,#103,#104));
#290=EDGE_LOOP('',(#105,#106,#107,#108));
#291=EDGE_LOOP('',(#109,#110,#111,#112));
#292=EDGE_LOOP('',(#113,#114,#115,#116));
#293=EDGE_LOOP('',(#117,#118,#119,#120,#121,#122,#123,#124));
#294=EDGE_LOOP('',(#125,#126,#127,#128));
#295=EDGE_LOOP('',(#129,#130,#131,#132));
#296=EDGE_LOOP('',(#133,#134,#135,#136));
#297=EDGE_LOOP('',(#137));
#298=EDGE_LOOP('',(#138));
#299=EDGE_LOOP('',(#139));
#300=EDGE_LOOP('',(#140,#141,#142,#143));
#301=EDGE_LOOP('',(#144,#145,#146,#147));
#302=EDGE_LOOP('',(#148,#149,#150,#151));
#303=EDGE_LOOP('',(#152,#153,#154,#155));
#304=EDGE_LOOP('',(#156,#157,#158,#159));
#305=EDGE_LOOP('',(#160,#161,#162,#163));
#306=EDGE_LOOP('',(#164,#165,#166,#167));
#307=EDGE_LOOP('',(#168,#169,#170,#171));
#308=EDGE_LOOP('',(#172,#173,#174,#175));
#309=EDGE_LOOP('',(#176,#177,#178,#179));
#310=FACE_BOUND('',#284,.T.);
#311=FACE_BOUND('',#285,.T.);
#312=FACE_BOUND('',#286,.T.);
#313=FACE_BOUND('',#287,.T.);
#314=FACE_BOUND('',#288,.T.);
#315=FACE_BOUND('',#289,.T.);
#316=FACE_BOUND('',#290,.T.);
#317=FACE_BOUND('',#291,.T.);
#318=FACE_BOUND('',#292,.T.);
#319=FACE_BOUND('',#293,.T.);
#320=FACE_BOUND('',#294,.T.);
#321=FACE_BOUND('',#295,.T.);
#322=FACE_BOUND('',#296,.T.);
#323=FACE_BOUND('',#297,.T.);
#324=FACE_BOUND('',#298,.T.);
#325=FACE_BOUND('',#299,.T.);
#326=FACE_BOUND('',#300,.T.);
#327=FACE_BOUND('',#301,.T.);
#328=FACE_BOUND('',#302,.T.);
#329=FACE_BOUND('',#303,.T.);
#330=FACE_BOUND('',#304,.T.);
#331=FACE_BOUND('',#305,.T.);
#332=FACE_BOUND('',#306,.T.);
#333=FACE_BOUND('',#307,.T.);
#334=FACE_BOUND('',#308,.T.);
#335=FACE_BOUND('',#309,.T.);
#336=PLANE('',#383);
#337=PLANE('',#386);
#338=PLANE('',#391);
#339=PLANE('',#394);
#340=PLANE('',#395);
#341=PLANE('',#399);
#342=PLANE('',#400);
#343=PLANE('',#401);
#344=PLANE('',#408);
#345=PLANE('',#417);
#346=PLANE('',#420);
#347=PLANE('',#423);
#348=ADVANCED_FACE('',(#310),#336,.T.);
#349=ADVANCED_FACE('',(#311),#337,.F.);
#350=ADVANCED_FACE('',(#312,#313),#15,.T.);
#351=ADVANCED_FACE('',(#314),#338,.T.);
#352=ADVANCED_FACE('',(#315),#16,.T.);
#353=ADVANCED_FACE('',(#316),#339,.T.);
#354=ADVANCED_FACE('',(#317),#340,.F.);
#355=ADVANCED_FACE('',(#318),#17,.T.);
#356=ADVANCED_FACE('',(#319),#341,.F.);
#357=ADVANCED_FACE('',(#320),#342,.T.);
#358=ADVANCED_FACE('',(#321,#322,#323),#343,.T.);
#359=ADVANCED_FACE('',(#324,#325),#12,.T.);
#360=ADVANCED_FACE('',(#326),#344,.T.);
#361=ADVANCED_FACE('',(#327),#18,.F.);
#362=ADVANCED_FACE('',(#328),#19,.F.);
#363=ADVANCED_FACE('',(#329),#20,.T.);
#364=ADVANCED_FACE('',(#330),#21,.F.);
#365=ADVANCED_FACE('',(#331),#345,.T.);
#366=ADVANCED_FACE('',(#332),#346,.T.);
#367=ADVANCED_FACE('',(#333),#22,.F.);
#368=ADVANCED_FACE('',(#334),#23,.F.);
#369=ADVANCED_FACE('',(#335),#347,.F.);
#370=CLOSED_SHELL('',(#348,#349,#350,#351,#352,#353,#354,#355,#356,#357,
#358,#359,#360,#361,#362,#363,#364,#365,#366,#367,#368,#369));
#371=STYLED_ITEM('',(#372),#379);
#372=PRESENTATION_STYLE_ASSIGNMENT((#373));
#373=SURFACE_STYLE_USAGE(.BOTH.,#374);
#374=SURFACE_SIDE_STYLE('',(#375));
#375=SURFACE_STYLE_FILL_AREA(#376);
#376=FILL_AREA_STYLE('',(#377));
#377=FILL_AREA_STYLE_COLOUR('',#378);
#378=COLOUR_RGB('',0.682352941176471,0.333333333333334,0.737254901960784);
#379=MANIFOLD_SOLID_BREP('PowerButton',#370);
#380=SHAPE_DEFINITION_REPRESENTATION(#737,#381);
#381=SHAPE_REPRESENTATION('PowerButton',(#382),#732);
#382=AXIS2_PLACEMENT_3D('',#536,#424,#425);
#383=AXIS2_PLACEMENT_3D('',#537,#426,#427);
#384=AXIS2_PLACEMENT_3D('',#538,#428,#429);
#385=AXIS2_PLACEMENT_3D('',#543,#431,#432);
#386=AXIS2_PLACEMENT_3D('',#546,#434,#435);
#387=AXIS2_PLACEMENT_3D('',#555,#440,#441);
#388=AXIS2_PLACEMENT_3D('',#579,#444,#445);
#389=AXIS2_PLACEMENT_3D('',#583,#447,#448);
#390=AXIS2_PLACEMENT_3D('',#584,#449,#450);
#391=AXIS2_PLACEMENT_3D('',#585,#451,#452);
#392=AXIS2_PLACEMENT_3D('',#589,#455,#456);
#393=AXIS2_PLACEMENT_3D('',#590,#457,#458);
#394=AXIS2_PLACEMENT_3D('',#593,#460,#461);
#395=AXIS2_PLACEMENT_3D('',#595,#463,#464);
#396=AXIS2_PLACEMENT_3D('',#601,#468,#469);
#397=AXIS2_PLACEMENT_3D('',#602,#470,#471);
#398=AXIS2_PLACEMENT_3D('',#603,#472,#473);
#399=AXIS2_PLACEMENT_3D('',#604,#474,#475);
#400=AXIS2_PLACEMENT_3D('',#605,#476,#477);
#401=AXIS2_PLACEMENT_3D('',#606,#478,#479);
#402=AXIS2_PLACEMENT_3D('',#610,#481,#482);
#403=AXIS2_PLACEMENT_3D('',#614,#484,#485);
#404=AXIS2_PLACEMENT_3D('',#615,#486,#487);
#405=AXIS2_PLACEMENT_3D('',#618,#488,#489);
#406=AXIS2_PLACEMENT_3D('',#620,#490,#491);
#407=AXIS2_PLACEMENT_3D('',#622,#492,#493);
#408=AXIS2_PLACEMENT_3D('',#697,#494,#495);
#409=AXIS2_PLACEMENT_3D('',#698,#496,#497);
#410=AXIS2_PLACEMENT_3D('',#701,#498,#499);
#411=AXIS2_PLACEMENT_3D('',#703,#500,#501);
#412=AXIS2_PLACEMENT_3D('',#705,#502,#503);
#413=AXIS2_PLACEMENT_3D('',#706,#504,#505);
#414=AXIS2_PLACEMENT_3D('',#709,#508,#509);
#415=AXIS2_PLACEMENT_3D('',#711,#511,#512);
#416=AXIS2_PLACEMENT_3D('',#713,#514,#515);
#417=AXIS2_PLACEMENT_3D('',#714,#516,#517);
#418=AXIS2_PLACEMENT_3D('',#715,#518,#519);
#419=AXIS2_PLACEMENT_3D('',#720,#521,#522);
#420=AXIS2_PLACEMENT_3D('',#723,#524,#525);
#421=AXIS2_PLACEMENT_3D('',#726,#528,#529);
#422=AXIS2_PLACEMENT_3D('',#728,#531,#532);
#423=AXIS2_PLACEMENT_3D('',#730,#534,#535);
#424=DIRECTION('',(0.,0.,1.));
#425=DIRECTION('',(1.,0.,0.));
#426=DIRECTION('',(0.,0.,1.));
#427=DIRECTION('',(1.,0.,0.));
#428=DIRECTION('',(0.,0.,1.));
#429=DIRECTION('',(1.,0.,0.));
#430=DIRECTION('',(-1.,-3.50123336568777E-16,0.));
#431=DIRECTION('',(0.,0.,1.));
#432=DIRECTION('',(1.,0.,0.));
#433=DIRECTION('',(-1.,-3.50123336568777E-16,0.));
#434=DIRECTION('',(0.,-1.,0.));
#435=DIRECTION('',(0.,0.,-1.));
#436=DIRECTION('',(-1.,0.,0.));
#437=DIRECTION('',(0.,0.,-1.));
#438=DIRECTION('',(-1.,0.,0.));
#439=DIRECTION('',(0.,0.,-1.));
#440=DIRECTION('',(0.,0.,-1.));
#441=DIRECTION('',(-1.,0.,0.));
#442=DIRECTION('',(0.,0.,-1.));
#443=DIRECTION('',(0.,0.,-1.));
#444=DIRECTION('',(0.,0.,1.));
#445=DIRECTION('',(1.,0.,0.));
#446=DIRECTION('',(0.,0.,-1.));
#447=DIRECTION('',(0.,0.,1.));
#448=DIRECTION('',(1.,0.,0.));
#449=DIRECTION('',(0.,0.,1.));
#450=DIRECTION('',(1.,0.,0.));
#451=DIRECTION('',(3.50123336568777E-16,-1.,0.));
#452=DIRECTION('',(1.,3.50123336568777E-16,0.));
#453=DIRECTION('',(0.,0.,-1.));
#454=DIRECTION('',(-1.,-3.50123336568777E-16,0.));
#455=DIRECTION('',(0.,0.,-1.));
#456=DIRECTION('',(-1.,0.,0.));
#457=DIRECTION('',(0.,0.,1.));
#458=DIRECTION('',(1.,0.,0.));
#459=DIRECTION('',(0.,0.,-1.));
#460=DIRECTION('',(3.50123336568777E-16,-1.,0.));
#461=DIRECTION('',(1.,3.50123336568777E-16,0.));
#462=DIRECTION('',(-1.,-3.50123336568777E-16,0.));
#463=DIRECTION('',(0.,-1.,0.));
#464=DIRECTION('',(0.,0.,-1.));
#465=DIRECTION('',(-1.,0.,0.));
#466=DIRECTION('',(-1.,0.,0.));
#467=DIRECTION('',(0.,0.,-1.));
#468=DIRECTION('',(0.,0.,-1.));
#469=DIRECTION('',(-1.,0.,0.));
#470=DIRECTION('',(0.,0.,1.));
#471=DIRECTION('',(1.,0.,0.));
#472=DIRECTION('',(0.,0.,1.));
#473=DIRECTION('',(1.,0.,0.));
#474=DIRECTION('',(0.,0.,1.));
#475=DIRECTION('',(1.,0.,0.));
#476=DIRECTION('',(0.,0.,1.));
#477=DIRECTION('',(1.,0.,0.));
#478=DIRECTION('',(0.,0.,1.));
#479=DIRECTION('',(1.,0.,0.));
#480=DIRECTION('',(-1.59412489345041E-16,1.,0.));
#481=DIRECTION('',(0.,0.,1.));
#482=DIRECTION('',(1.,0.,0.));
#483=DIRECTION('',(-1.5941248934504E-16,1.,0.));
#484=DIRECTION('',(0.,0.,1.));
#485=DIRECTION('',(1.,0.,0.));
#486=DIRECTION('',(0.,0.,1.));
#487=DIRECTION('',(1.,0.,0.));
#488=DIRECTION('',(0.,0.,1.));
#489=DIRECTION('',(1.,0.,0.));
#490=DIRECTION('',(0.,0.,1.));
#491=DIRECTION('',(1.,0.,0.));
#492=DIRECTION('',(0.,0.,1.));
#493=DIRECTION('',(1.,0.,0.));
#494=DIRECTION('',(0.,0.,1.));
#495=DIRECTION('',(1.,0.,0.));
#496=DIRECTION('',(0.,0.,1.));
#497=DIRECTION('',(1.,0.,0.));
#498=DIRECTION('',(0.,0.,1.));
#499=DIRECTION('',(1.,0.,0.));
#500=DIRECTION('',(0.,0.,1.));
#501=DIRECTION('',(1.,0.,0.));
#502=DIRECTION('',(0.,0.,1.));
#503=DIRECTION('',(1.,0.,0.));
#504=DIRECTION('',(0.,0.,1.));
#505=DIRECTION('',(1.,0.,0.));
#506=DIRECTION('',(0.,0.,1.));
#507=DIRECTION('',(0.,0.,1.));
#508=DIRECTION('',(0.,0.,1.));
#509=DIRECTION('',(1.,0.,0.));
#510=DIRECTION('',(0.,0.,1.));
#511=DIRECTION('',(0.,0.,1.));
#512=DIRECTION('',(1.,0.,0.));
#513=DIRECTION('',(0.,0.,1.));
#514=DIRECTION('',(0.,0.,1.));
#515=DIRECTION('',(1.,0.,0.));
#516=DIRECTION('',(0.,0.,1.));
#517=DIRECTION('',(1.,0.,0.));
#518=DIRECTION('',(0.,0.,1.));
#519=DIRECTION('',(1.,0.,0.));
#520=DIRECTION('',(1.59412489345041E-16,-1.,0.));
#521=DIRECTION('',(0.,0.,1.));
#522=DIRECTION('',(1.,0.,0.));
#523=DIRECTION('',(1.5941248934504E-16,-1.,0.));
#524=DIRECTION('',(1.,1.5941248934504E-16,0.));
#525=DIRECTION('',(-1.5941248934504E-16,1.,0.));
#526=DIRECTION('',(0.,0.,1.));
#527=DIRECTION('',(0.,0.,1.));
#528=DIRECTION('',(0.,0.,1.));
#529=DIRECTION('',(1.,0.,0.));
#530=DIRECTION('',(0.,0.,1.));
#531=DIRECTION('',(0.,0.,1.));
#532=DIRECTION('',(1.,0.,0.));
#533=DIRECTION('',(0.,0.,1.));
#534=DIRECTION('',(1.,1.59412489345041E-16,0.));
#535=DIRECTION('',(-1.59412489345041E-16,1.,0.));
#536=CARTESIAN_POINT('',(0.,0.,0.));
#537=CARTESIAN_POINT('',(-0.0175,0.,0.001));
#538=CARTESIAN_POINT('',(5.63785129692462E-18,-4.33680868994202E-19,0.001));
#539=CARTESIAN_POINT('',(0.00419523539268062,0.00115,0.001));
#540=CARTESIAN_POINT('',(-0.0041952353926806,0.00115,0.001));
#541=CARTESIAN_POINT('',(0.00450489831978245,0.00115,0.001));
#542=CARTESIAN_POINT('',(0.00481456124688429,0.00115,0.001));
#543=CARTESIAN_POINT('',(3.03576608295941E-18,0.,0.001));
#544=CARTESIAN_POINT('',(-0.00481456124688429,0.00115,0.001));
#545=CARTESIAN_POINT('',(-0.00450489831978245,0.00115,0.001));
#546=CARTESIAN_POINT('',(0.00450489831978245,-0.00115,0.001002));
#547=CARTESIAN_POINT('',(0.00450489831978245,-0.00115,0.001));
#548=CARTESIAN_POINT('',(0.00481456124688429,-0.00115,0.001));
#549=CARTESIAN_POINT('',(0.0041952353926806,-0.00115,0.001));
#550=CARTESIAN_POINT('',(0.00481456124688429,-0.00115,0.001002));
#551=CARTESIAN_POINT('',(0.00481456124688429,-0.00115,0.));
#552=CARTESIAN_POINT('',(0.00450489831978245,-0.00115,0.));
#553=CARTESIAN_POINT('',(0.0041952353926806,-0.00115,0.));
#554=CARTESIAN_POINT('',(0.0041952353926806,-0.00115,0.001002));
#555=CARTESIAN_POINT('',(8.23993651088983E-18,-1.19262238973405E-18,0.001002));
#556=CARTESIAN_POINT('',(0.00435,-1.19262238973405E-18,0.004));
#557=CARTESIAN_POINT('',(0.00435,0.00113882732001452,0.004));
#558=CARTESIAN_POINT('',(0.00388118701874342,0.00227064197757954,0.004));
#559=CARTESIAN_POINT('',(0.00227064197757955,0.00388118701874341,0.004));
#560=CARTESIAN_POINT('',(0.00113882732001345,0.00435,0.004));
#561=CARTESIAN_POINT('',(-0.00113882732001343,0.00435,0.004));
#562=CARTESIAN_POINT('',(-0.00227064197757933,0.00388118701874362,0.004));
#563=CARTESIAN_POINT('',(-0.00388118701874361,0.00227064197757934,0.004));
#564=CARTESIAN_POINT('',(-0.00435,0.00113882732001344,0.004));
#565=CARTESIAN_POINT('',(-0.00435,-0.00113882732001344,0.004));
#566=CARTESIAN_POINT('',(-0.0038811870187436,-0.00227064197757934,0.004));
#567=CARTESIAN_POINT('',(-0.00227064197757933,-0.00388118701874362,0.004));
#568=CARTESIAN_POINT('',(-0.00113882732001342,-0.00435,0.004));
#569=CARTESIAN_POINT('',(0.00113882732001345,-0.00435,0.004));
#570=CARTESIAN_POINT('',(0.00227064197757958,-0.00388118701874337,0.004));
#571=CARTESIAN_POINT('',(0.00388118701874337,-0.00227064197757959,0.004));
#572=CARTESIAN_POINT('',(0.00435,-0.00113882732001453,0.004));
#573=CARTESIAN_POINT('',(0.00435,-1.19262238973405E-18,0.004));
#574=CARTESIAN_POINT('',(0.00435,-6.59901032104957E-19,0.004));
#575=CARTESIAN_POINT('',(0.0041952353926806,0.00115,0.001002));
#576=CARTESIAN_POINT('',(0.0041952353926806,0.00115,0.));
#577=CARTESIAN_POINT('',(-0.0041952353926806,0.00115,0.001002));
#578=CARTESIAN_POINT('',(-0.0041952353926806,0.00115,0.));
#579=CARTESIAN_POINT('',(5.63785129692462E-18,-4.33680868994202E-19,0.));
#580=CARTESIAN_POINT('',(-0.0041952353926806,-0.00115,0.));
#581=CARTESIAN_POINT('',(-0.0041952353926806,-0.00115,0.001002));
#582=CARTESIAN_POINT('',(-0.0041952353926806,-0.00115,0.001));
#583=CARTESIAN_POINT('',(5.63785129692462E-18,-4.33680868994202E-19,0.001));
#584=CARTESIAN_POINT('',(8.23993651088983E-18,-1.19262238973405E-18,0.));
#585=CARTESIAN_POINT('',(0.00450489831978245,0.00115,0.001002));
#586=CARTESIAN_POINT('',(0.00481456124688429,0.00115,0.001002));
#587=CARTESIAN_POINT('',(0.00481456124688429,0.00115,0.));
#588=CARTESIAN_POINT('',(0.00450489831978245,0.00115,0.));
#589=CARTESIAN_POINT('',(3.03576608295941E-18,0.,0.001002));
#590=CARTESIAN_POINT('',(3.03576608295941E-18,0.,0.));
#591=CARTESIAN_POINT('',(-0.00481456124688429,0.00115,0.));
#592=CARTESIAN_POINT('',(-0.00481456124688429,0.00115,0.001002));
#593=CARTESIAN_POINT('',(-0.00450489831978245,0.00115,0.001002));
#594=CARTESIAN_POINT('',(-0.00450489831978245,0.00115,0.));
#595=CARTESIAN_POINT('',(-0.00450489831978245,-0.00115,0.001002));
#596=CARTESIAN_POINT('',(-0.00450489831978245,-0.00115,0.001));
#597=CARTESIAN_POINT('',(-0.00481456124688429,-0.00115,0.001));
#598=CARTESIAN_POINT('',(-0.00450489831978245,-0.00115,0.));
#599=CARTESIAN_POINT('',(-0.00481456124688429,-0.00115,0.));
#600=CARTESIAN_POINT('',(-0.00481456124688429,-0.00115,0.001002));
#601=CARTESIAN_POINT('',(-8.67361737988404E-19,-1.0842021724855E-19,0.001002));
#602=CARTESIAN_POINT('',(-8.67361737988404E-19,-1.0842021724855E-19,0.001));
#603=CARTESIAN_POINT('',(-8.67361737988404E-19,-1.0842021724855E-19,0.));
#604=CARTESIAN_POINT('',(0.,0.,0.));
#605=CARTESIAN_POINT('',(-0.0175,0.,0.001));
#606=CARTESIAN_POINT('',(-0.0175,0.,0.005));
#607=CARTESIAN_POINT('',(0.0005,0.00141387631435513,0.005));
#608=CARTESIAN_POINT('',(0.0005,0.0010738144481425,0.005));
#609=CARTESIAN_POINT('',(0.0005,0.00257381444814251,0.005));
#610=CARTESIAN_POINT('',(6.50521303491303E-19,0.0010738144481425,0.005));
#611=CARTESIAN_POINT('',(-0.0005,0.0010738144481425,0.005));
#612=CARTESIAN_POINT('',(-0.0005,0.00141387631435513,0.005));
#613=CARTESIAN_POINT('',(-0.0005,0.00257381444814251,0.005));
#614=CARTESIAN_POINT('',(3.52365706057789E-18,0.00257381444814251,0.005));
#615=CARTESIAN_POINT('',(0.0018,0.0014697324890591,0.005));
#616=CARTESIAN_POINT('',(0.00218729426126058,0.00178596524383732,0.005));
#617=CARTESIAN_POINT('',(0.00141270573873943,0.00115349973428087,0.005));
#618=CARTESIAN_POINT('',(-2.53308887167745E-19,4.33680868994202E-19,0.005));
#619=CARTESIAN_POINT('',(-0.00218729426126058,0.00178596524383732,0.005));
#620=CARTESIAN_POINT('',(-0.0018,0.0014697324890591,0.005));
#621=CARTESIAN_POINT('',(-0.00141270573873943,0.00115349973428087,0.005));
#622=CARTESIAN_POINT('',(3.80640709011058E-19,-1.0842021724855E-18,0.005));
#623=CARTESIAN_POINT('',(0.00315423061812716,-0.0013619164147094,0.005));
#624=CARTESIAN_POINT('',(0.0034400860225881,-4.35278593960732E-5,0.005));
#625=CARTESIAN_POINT('',(0.0031842440815144,0.00126543762611323,0.005));
#626=CARTESIAN_POINT('',(0.00248021964403451,0.00238348952662787,0.005));
#627=CARTESIAN_POINT('',(0.00138113490020068,0.0031407629105956,0.005));
#628=CARTESIAN_POINT('',(6.95618577043246E-5,0.00343934230469825,0.005));
#629=CARTESIAN_POINT('',(-0.00124417828019366,0.00319750542340335,0.005));
#630=CARTESIAN_POINT('',(-0.0023827965159629,0.00248117021944305,0.005));
#631=CARTESIAN_POINT('',(-0.00314074363923693,0.00138121161683705,0.005));
#632=CARTESIAN_POINT('',(-0.00343934414525639,6.95605614935085E-5,0.005));
#633=CARTESIAN_POINT('',(-0.0031975050899835,-0.00124417698582608,0.005));
#634=CARTESIAN_POINT('',(-0.00248117057488046,-0.00238279681866879,0.005));
#635=CARTESIAN_POINT('',(-0.00138121063560676,-0.00314074357239658,0.005));
#636=CARTESIAN_POINT('',(-6.95641388278287E-5,-0.00343934410510994,0.005));
#637=CARTESIAN_POINT('',(0.00124419031347691,-0.003197505317333,0.005));
#638=CARTESIAN_POINT('',(0.00238274708537823,-0.00248116970563423,0.005));
#639=CARTESIAN_POINT('',(0.00315423061812716,-0.0013619164147094,0.005));
#640=CARTESIAN_POINT('',(0.0034400860225881,-4.35278593960732E-5,0.005));
#641=CARTESIAN_POINT('',(0.0031842440815144,0.00126543762611323,0.005));
#642=CARTESIAN_POINT('',(0.00335,-1.19262238973405E-18,0.005));
#643=CARTESIAN_POINT('',(0.00335,-1.19262238973405E-18,0.005));
#644=CARTESIAN_POINT('',(0.00335,0.000877027936103139,0.005));
#645=CARTESIAN_POINT('',(0.00298896011788287,0.001748655316067,0.005));
#646=CARTESIAN_POINT('',(0.00174865531606701,0.00298896011788286,0.005));
#647=CARTESIAN_POINT('',(0.000877027936102312,0.00335,0.005));
#648=CARTESIAN_POINT('',(-0.000877027936102295,0.00335,0.005));
#649=CARTESIAN_POINT('',(-0.00174865531606695,0.00298896011788308,0.005));
#650=CARTESIAN_POINT('',(-0.00298896011788289,0.00174865531606677,0.005));
#651=CARTESIAN_POINT('',(-0.00335,0.000877027936102303,0.005));
#652=CARTESIAN_POINT('',(-0.00335,-0.000877027936102305,0.005));
#653=CARTESIAN_POINT('',(-0.00298896011788307,-0.00174865531606697,0.005));
#654=CARTESIAN_POINT('',(-0.00174865531606676,-0.0029889601178829,0.005));
#655=CARTESIAN_POINT('',(-0.00087702793610229,-0.00335,0.005));
#656=CARTESIAN_POINT('',(0.000877027936102317,-0.00335,0.005));
#657=CARTESIAN_POINT('',(0.00174865531606712,-0.00298896011788294,0.005));
#658=CARTESIAN_POINT('',(0.00298896011788273,-0.00174865531606694,0.005));
#659=CARTESIAN_POINT('',(0.00335,-0.000877027936103141,0.005));
#660=CARTESIAN_POINT('',(0.00335,-1.19262238973405E-18,0.005));
#661=CARTESIAN_POINT('',(0.00435,-1.19262238973405E-18,0.005));
#662=CARTESIAN_POINT('',(0.00435,0.00113882732001452,0.005));
#663=CARTESIAN_POINT('',(0.00388118701874342,0.00227064197757954,0.005));
#664=CARTESIAN_POINT('',(0.00227064197757955,0.00388118701874341,0.005));
#665=CARTESIAN_POINT('',(0.00113882732001345,0.00435,0.005));
#666=CARTESIAN_POINT('',(-0.00113882732001343,0.00435,0.005));
#667=CARTESIAN_POINT('',(-0.00227064197757942,0.00388118701874371,0.005));
#668=CARTESIAN_POINT('',(-0.00388118701874351,0.00227064197757924,0.005));
#669=CARTESIAN_POINT('',(-0.00435,0.00113882732001344,0.005));
#670=CARTESIAN_POINT('',(-0.00435,-0.00113882732001344,0.005));
#671=CARTESIAN_POINT('',(-0.0038811870187437,-0.00227064197757943,0.005));
#672=CARTESIAN_POINT('',(-0.00227064197757923,-0.00388118701874352,0.005));
#673=CARTESIAN_POINT('',(-0.00113882732001342,-0.00435,0.005));
#674=CARTESIAN_POINT('',(0.00113882732001345,-0.00435,0.005));
#675=CARTESIAN_POINT('',(0.00227064197757968,-0.00388118701874348,0.005));
#676=CARTESIAN_POINT('',(0.00388118701874328,-0.0022706419775795,0.005));
#677=CARTESIAN_POINT('',(0.00435,-0.00113882732001453,0.005));
#678=CARTESIAN_POINT('',(0.00435,-1.19262238973405E-18,0.005));
#679=CARTESIAN_POINT('',(0.00435,-1.19262238973405E-18,0.004));
#680=CARTESIAN_POINT('',(0.00435,0.00113882732001452,0.004));
#681=CARTESIAN_POINT('',(0.00388118701874342,0.00227064197757954,0.004));
#682=CARTESIAN_POINT('',(0.00227064197757955,0.00388118701874341,0.004));
#683=CARTESIAN_POINT('',(0.00113882732001345,0.00435,0.004));
#684=CARTESIAN_POINT('',(-0.00113882732001343,0.00435,0.004));
#685=CARTESIAN_POINT('',(-0.00227064197757933,0.00388118701874362,0.004));
#686=CARTESIAN_POINT('',(-0.00388118701874361,0.00227064197757934,0.004));
#687=CARTESIAN_POINT('',(-0.00435,0.00113882732001344,0.004));
#688=CARTESIAN_POINT('',(-0.00435,-0.00113882732001344,0.004));
#689=CARTESIAN_POINT('',(-0.0038811870187436,-0.00227064197757934,0.004));
#690=CARTESIAN_POINT('',(-0.00227064197757933,-0.00388118701874362,0.004));
#691=CARTESIAN_POINT('',(-0.00113882732001342,-0.00435,0.004));
#692=CARTESIAN_POINT('',(0.00113882732001345,-0.00435,0.004));
#693=CARTESIAN_POINT('',(0.00227064197757958,-0.00388118701874337,0.004));
#694=CARTESIAN_POINT('',(0.00388118701874337,-0.00227064197757959,0.004));
#695=CARTESIAN_POINT('',(0.00435,-0.00113882732001453,0.004));
#696=CARTESIAN_POINT('',(0.00435,-1.19262238973405E-18,0.004));
#697=CARTESIAN_POINT('',(-0.000219690912636513,-8.67361737988404E-19,0.004));
#698=CARTESIAN_POINT('',(0.0018,0.0014697324890591,0.004));
#699=CARTESIAN_POINT('',(0.00141270573873943,0.00115349973428087,0.004));
#700=CARTESIAN_POINT('',(0.00218729426126058,0.00178596524383732,0.004));
#701=CARTESIAN_POINT('',(3.80640709011058E-19,-1.0842021724855E-18,0.004));
#702=CARTESIAN_POINT('',(-0.00141270573873943,0.00115349973428087,0.004));
#703=CARTESIAN_POINT('',(-0.0018,0.0014697324890591,0.004));
#704=CARTESIAN_POINT('',(-0.00218729426126058,0.00178596524383732,0.004));
#705=CARTESIAN_POINT('',(-2.53308887167745E-19,4.33680868994202E-19,0.004));
#706=CARTESIAN_POINT('',(-2.53308887167745E-19,4.33680868994202E-19,0.003998));
#707=CARTESIAN_POINT('',(-0.00218729426126058,0.00178596524383732,0.003998));
#708=CARTESIAN_POINT('',(0.00218729426126058,0.00178596524383732,0.003998));
#709=CARTESIAN_POINT('',(-0.0018,0.0014697324890591,0.003998));
#710=CARTESIAN_POINT('',(-0.00141270573873943,0.00115349973428087,0.003998));
#711=CARTESIAN_POINT('',(3.80640709011058E-19,-1.0842021724855E-18,0.003998));
#712=CARTESIAN_POINT('',(0.00141270573873943,0.00115349973428087,0.003998));
#713=CARTESIAN_POINT('',(0.0018,0.0014697324890591,0.003998));
#714=CARTESIAN_POINT('',(-0.000219690912636513,-8.67361737988404E-19,0.004));
#715=CARTESIAN_POINT('',(6.50521303491303E-19,0.0010738144481425,0.004));
#716=CARTESIAN_POINT('',(0.0005,0.0010738144481425,0.004));
#717=CARTESIAN_POINT('',(-0.0005,0.0010738144481425,0.004));
#718=CARTESIAN_POINT('',(0.0005,0.00141387631435513,0.004));
#719=CARTESIAN_POINT('',(0.0005,0.00257381444814251,0.004));
#720=CARTESIAN_POINT('',(3.52365706057789E-18,0.00257381444814251,0.004));
#721=CARTESIAN_POINT('',(-0.0005,0.00257381444814251,0.004));
#722=CARTESIAN_POINT('',(-0.0005,0.00141387631435513,0.004));
#723=CARTESIAN_POINT('',(-0.0005,0.00141387631435513,0.003998));
#724=CARTESIAN_POINT('',(-0.0005,0.00257381444814251,0.003998));
#725=CARTESIAN_POINT('',(-0.0005,0.0010738144481425,0.003998));
#726=CARTESIAN_POINT('',(3.52365706057789E-18,0.00257381444814251,0.003998));
#727=CARTESIAN_POINT('',(0.0005,0.00257381444814251,0.003998));
#728=CARTESIAN_POINT('',(6.50521303491303E-19,0.0010738144481425,0.003998));
#729=CARTESIAN_POINT('',(0.0005,0.0010738144481425,0.003998));
#730=CARTESIAN_POINT('',(0.0005,0.00141387631435513,0.003998));
#731=MECHANICAL_DESIGN_GEOMETRIC_PRESENTATION_REPRESENTATION('',(#371),
#732);
#732=(
GEOMETRIC_REPRESENTATION_CONTEXT(3)
GLOBAL_UNCERTAINTY_ASSIGNED_CONTEXT((#733))
GLOBAL_UNIT_ASSIGNED_CONTEXT((#736,#735,#734))
REPRESENTATION_CONTEXT('PowerButton','TOP_LEVEL_ASSEMBLY_PART')
);
#733=UNCERTAINTY_MEASURE_WITH_UNIT(LENGTH_MEASURE(2.E-5),#736,
'DISTANCE_ACCURACY_VALUE','Maximum Tolerance applied to model');
#734=(
NAMED_UNIT(*)
SI_UNIT($,.STERADIAN.)
SOLID_ANGLE_UNIT()
);
#735=(
NAMED_UNIT(*)
PLANE_ANGLE_UNIT()
SI_UNIT($,.RADIAN.)
);
#736=(
LENGTH_UNIT()
NAMED_UNIT(*)
SI_UNIT($,.METRE.)
);
#737=PRODUCT_DEFINITION_SHAPE('','',#738);
#738=PRODUCT_DEFINITION('','',#740,#739);
#739=PRODUCT_DEFINITION_CONTEXT('',#746,'design');
#740=PRODUCT_DEFINITION_FORMATION_WITH_SPECIFIED_SOURCE('','',#742,
 .NOT_KNOWN.);
#741=PRODUCT_RELATED_PRODUCT_CATEGORY('','',(#742));
#742=PRODUCT('PowerButton','PowerButton','PowerButton',(#744));
#743=PRODUCT_CATEGORY('','');
#744=PRODUCT_CONTEXT('',#746,'mechanical');
#745=APPLICATION_PROTOCOL_DEFINITION('international standard',
'ap242_managed_model_based_3d_engineering',2020,#746);
#746=APPLICATION_CONTEXT('managed model based 3d engineering');
ENDSEC;
END-ISO-10303-21;
