ISO-10303-21;
HEADER;
/* Generated by software containing ST-Developer
 * from STEP Tools, Inc. (www.steptools.com) 
 */
/* OPTION: using custom renumber hook */

FILE_DESCRIPTION(
/* description */ ('STEP AP242 Edition 2',
'CAx-IF Rec.Pracs.---Representation and Presentation of Product Manufa
cturing Information (PMI)---4.0---2014-10-13',
'CAx-IF Rec.Pracs.---3D Tessellated Geometry---0.4---2014-09-14','2;1',
'CAx-IF Rec.Pracs.---User Defined Attributes---1.5---2016-08-15'),
/* implementation_level */ '2;1');

FILE_NAME(
/* name */ 'Part Studio 1 - JoystickHandle',
/* time_stamp */ '2026-09-23T14:55:23Z',
/* author */ (''),
/* organization */ (''),
/* preprocessor_version */ 'ST-DEVELOPER v20',
/* originating_system */ 'ONSHAPE BY PTC INC, 1.221',
/* authorisation */ '  ');

FILE_SCHEMA (('AP242_MANAGED_MODEL_BASED_3D_ENGINEERING_MIM_LF { 1 0 10303 442 3 1 4 }'));
ENDSEC;

DATA;
#10=SHAPE_REPRESENTATION_RELATIONSHIP('','',#711,#11);
#11=ADVANCED_BREP_SHAPE_REPRESENTATION('',(#709),#1548);
#12=(
BOUNDED_SURFACE()
B_SPLINE_SURFACE(3,3,((#1355,#1356,#1357,#1358),(#1359,#1360,#1361,#1362),
(#1363,#1364,#1365,#1366),(#1367,#1368,#1369,#1370)),
 .SURF_OF_REVOLUTION.,.F.,.F.,.F.)
B_SPLINE_SURFACE_WITH_KNOTS((4,4),(4,4),(6.90781910647097E-5,1.),(0.,1.),
 .PIECEWISE_BEZIER_KNOTS.)
GEOMETRIC_REPRESENTATION_ITEM()
RATIONAL_B_SPLINE_SURFACE(((1.,0.721707130258841,0.721707130258841,1.),
(1.,0.721707130258841,0.721707130258841,1.),(1.,0.721707130258841,0.721707130258841,
1.),(1.,0.721707130258841,0.721707130258841,1.)))
REPRESENTATION_ITEM('')
SURFACE()
);
#13=(
BOUNDED_SURFACE()
B_SPLINE_SURFACE(3,3,((#1375,#1376,#1377,#1378),(#1379,#1380,#1381,#1382),
(#1383,#1384,#1385,#1386),(#1387,#1388,#1389,#1390)),
 .SURF_OF_REVOLUTION.,.F.,.F.,.F.)
B_SPLINE_SURFACE_WITH_KNOTS((4,4),(4,4),(6.90781910778782E-5,1.),(0.,1.),
 .PIECEWISE_BEZIER_KNOTS.)
GEOMETRIC_REPRESENTATION_ITEM()
RATIONAL_B_SPLINE_SURFACE(((1.,0.721707130258848,0.721707130258848,1.),
(1.,0.721707130258848,0.721707130258848,1.),(1.,0.721707130258848,0.721707130258848,
1.),(1.,0.721707130258848,0.721707130258848,1.)))
REPRESENTATION_ITEM('')
SURFACE()
);
#14=B_SPLINE_SURFACE_WITH_KNOTS('',3,3,((#1167,#1168,#1169,#1170,#1171,
#1172,#1173,#1174,#1175,#1176,#1177,#1178,#1179,#1180,#1181,#1182,#1183,
#1184,#1185),(#1186,#1187,#1188,#1189,#1190,#1191,#1192,#1193,#1194,#1195,
#1196,#1197,#1198,#1199,#1200,#1201,#1202,#1203,#1204),(#1205,#1206,#1207,
#1208,#1209,#1210,#1211,#1212,#1213,#1214,#1215,#1216,#1217,#1218,#1219,
#1220,#1221,#1222,#1223),(#1224,#1225,#1226,#1227,#1228,#1229,#1230,#1231,
#1232,#1233,#1234,#1235,#1236,#1237,#1238,#1239,#1240,#1241,#1242)),
 .UNSPECIFIED.,.F.,.T.,.F.,(4,4),(1,1,1,1,1,1,1,1,1,1,1,1,1,1,1,1,1,1,1,
1,1,1,1),(-0.00358569692400587,0.597614304667196),(-1.17809724509617,-0.785398163397448,
-0.392699081698725,0.,0.392699081698724,0.785398163397448,1.17809724509617,
1.5707963267949,1.96349540849362,2.35619449019234,2.74889357189107,3.14159265358979,
3.53429173528852,3.92699081698724,4.31968989868597,4.71238898038469,5.10508806208341,
5.49778714378214,5.89048622548086,6.28318530717959,6.67588438887831,7.06858347057703,
7.46128255227576),.UNSPECIFIED.);
#15=B_SPLINE_SURFACE_WITH_KNOTS('',3,3,((#1243,#1244,#1245,#1246,#1247,
#1248,#1249,#1250,#1251,#1252,#1253,#1254,#1255,#1256,#1257,#1258,#1259,
#1260,#1261),(#1262,#1263,#1264,#1265,#1266,#1267,#1268,#1269,#1270,#1271,
#1272,#1273,#1274,#1275,#1276,#1277,#1278,#1279,#1280),(#1281,#1282,#1283,
#1284,#1285,#1286,#1287,#1288,#1289,#1290,#1291,#1292,#1293,#1294,#1295,
#1296,#1297,#1298,#1299),(#1300,#1301,#1302,#1303,#1304,#1305,#1306,#1307,
#1308,#1309,#1310,#1311,#1312,#1313,#1314,#1315,#1316,#1317,#1318)),
 .UNSPECIFIED.,.F.,.T.,.F.,(4,4),(1,1,1,1,1,1,1,1,1,1,1,1,1,1,1,1,1,1,1,
1,1,1,1),(-0.00600001065787299,1.),(-1.17809724509617,-0.785398163397448,
-0.392699081698725,0.,0.392699081698724,0.785398163397448,1.17809724509617,
1.5707963267949,1.96349540849362,2.35619449019234,2.74889357189107,3.14159265358979,
3.53429173528852,3.92699081698724,4.31968989868597,4.71238898038469,5.10508806208341,
5.49778714378214,5.89048622548086,6.28318530717959,6.67588438887831,7.06858347057703,
7.46128255227576),.UNSPECIFIED.);
#16=B_SPLINE_SURFACE_WITH_KNOTS('',3,1,((#1319,#1320),(#1321,#1322),(#1323,
#1324),(#1325,#1326)),.SURF_OF_LINEAR_EXTRUSION.,.F.,.F.,.F.,(4,4),(2,2),
(1.40884145623212E-16,1.00000000000002),(0.,1.),
 .PIECEWISE_BEZIER_KNOTS.);
#17=B_SPLINE_SURFACE_WITH_KNOTS('',3,1,((#1395,#1396),(#1397,#1398),(#1399,
#1400),(#1401,#1402)),.SURF_OF_LINEAR_EXTRUSION.,.F.,.F.,.F.,(4,4),(2,2),
(1.40884145533065E-16,1.00000000000013),(0.,1.),
 .PIECEWISE_BEZIER_KNOTS.);
#18=B_SPLINE_SURFACE_WITH_KNOTS('',3,3,((#1417,#1418,#1419,#1420,#1421,
#1422,#1423,#1424,#1425,#1426,#1427,#1428,#1429,#1430,#1431,#1432,#1433,
#1434,#1435),(#1436,#1437,#1438,#1439,#1440,#1441,#1442,#1443,#1444,#1445,
#1446,#1447,#1448,#1449,#1450,#1451,#1452,#1453,#1454),(#1455,#1456,#1457,
#1458,#1459,#1460,#1461,#1462,#1463,#1464,#1465,#1466,#1467,#1468,#1469,
#1470,#1471,#1472,#1473),(#1474,#1475,#1476,#1477,#1478,#1479,#1480,#1481,
#1482,#1483,#1484,#1485,#1486,#1487,#1488,#1489,#1490,#1491,#1492)),
 .UNSPECIFIED.,.F.,.T.,.F.,(4,4),(1,1,1,1,1,1,1,1,1,1,1,1,1,1,1,1,1,1,1,
1,1,1,1),(0.,1.00600001065787),(-1.17809724509617,-0.785398163397448,-0.392699081698725,
0.,0.392699081698724,0.785398163397448,1.17809724509617,1.5707963267949,
1.96349540849362,2.35619449019234,2.74889357189107,3.14159265358979,3.53429173528852,
3.92699081698724,4.31968989868597,4.71238898038469,5.10508806208341,5.49778714378214,
5.89048622548086,6.28318530717959,6.67588438887831,7.06858347057703,7.46128255227576),
 .UNSPECIFIED.);
#19=CYLINDRICAL_SURFACE('',#726,0.00215);
#20=CYLINDRICAL_SURFACE('',#729,0.00215);
#21=CYLINDRICAL_SURFACE('',#731,0.00355);
#22=CYLINDRICAL_SURFACE('',#733,0.00355);
#23=CYLINDRICAL_SURFACE('',#736,0.008);
#24=CYLINDRICAL_SURFACE('',#741,0.0010908213626019);
#25=CYLINDRICAL_SURFACE('',#743,0.0010908213626019);
#26=CYLINDRICAL_SURFACE('',#747,0.0010908213626019);
#27=CYLINDRICAL_SURFACE('',#749,0.0010908213626019);
#28=CIRCLE('',#717,0.0010908213626019);
#29=CIRCLE('',#718,0.00215);
#30=CIRCLE('',#719,0.0010908213626019);
#31=CIRCLE('',#720,0.00355);
#32=CIRCLE('',#722,0.0010908213626019);
#33=CIRCLE('',#723,0.00355);
#34=CIRCLE('',#724,0.0010908213626019);
#35=CIRCLE('',#725,0.00215);
#36=CIRCLE('',#727,0.00215);
#37=CIRCLE('',#730,0.00215);
#38=CIRCLE('',#742,0.0010908213626019);
#39=CIRCLE('',#744,0.0010908213626019);
#40=CIRCLE('',#748,0.0010908213626019);
#41=CIRCLE('',#750,0.0010908213626019);
#42=LINE('',#922,#100);
#43=LINE('',#924,#101);
#44=LINE('',#926,#102);
#45=LINE('',#928,#103);
#46=LINE('',#931,#104);
#47=LINE('',#938,#105);
#48=LINE('',#940,#106);
#49=LINE('',#943,#107);
#50=LINE('',#945,#108);
#51=LINE('',#947,#109);
#52=LINE('',#949,#110);
#53=LINE('',#951,#111);
#54=LINE('',#953,#112);
#55=LINE('',#955,#113);
#56=LINE('',#957,#114);
#57=LINE('',#960,#115);
#58=LINE('',#964,#116);
#59=LINE('',#967,#117);
#60=LINE('',#969,#118);
#61=LINE('',#973,#119);
#62=LINE('',#975,#120);
#63=LINE('',#982,#121);
#64=LINE('',#984,#122);
#65=LINE('',#988,#123);
#66=LINE('',#990,#124);
#67=LINE('',#993,#125);
#68=LINE('',#995,#126);
#69=LINE('',#999,#127);
#70=LINE('',#1002,#128);
#71=LINE('',#1003,#129);
#72=LINE('',#1005,#130);
#73=LINE('',#1006,#131);
#74=LINE('',#1010,#132);
#75=LINE('',#1018,#133);
#76=LINE('',#1020,#134);
#77=LINE('',#1038,#135);
#78=LINE('',#1494,#136);
#79=LINE('',#1496,#137);
#80=LINE('',#1498,#138);
#81=LINE('',#1500,#139);
#82=LINE('',#1504,#140);
#83=LINE('',#1509,#141);
#84=LINE('',#1510,#142);
#85=LINE('',#1512,#143);
#86=LINE('',#1513,#144);
#87=LINE('',#1514,#145);
#88=LINE('',#1515,#146);
#89=LINE('',#1517,#147);
#90=LINE('',#1519,#148);
#91=LINE('',#1521,#149);
#92=LINE('',#1526,#150);
#93=LINE('',#1527,#151);
#94=LINE('',#1529,#152);
#95=LINE('',#1533,#153);
#96=LINE('',#1535,#154);
#97=LINE('',#1536,#155);
#98=LINE('',#1537,#156);
#99=LINE('',#1538,#157);
#100=VECTOR('',#764,1.);
#101=VECTOR('',#765,1.);
#102=VECTOR('',#766,1.);
#103=VECTOR('',#769,1.);
#104=VECTOR('',#770,1.);
#105=VECTOR('',#771,1.);
#106=VECTOR('',#774,1.);
#107=VECTOR('',#775,1.);
#108=VECTOR('',#776,1.);
#109=VECTOR('',#777,1.);
#110=VECTOR('',#778,1.);
#111=VECTOR('',#779,1.);
#112=VECTOR('',#780,1.);
#113=VECTOR('',#781,1.);
#114=VECTOR('',#784,1.);
#115=VECTOR('',#785,1.);
#116=VECTOR('',#788,1.);
#117=VECTOR('',#791,1.);
#118=VECTOR('',#792,1.);
#119=VECTOR('',#795,1.);
#120=VECTOR('',#796,1.);
#121=VECTOR('',#803,1.);
#122=VECTOR('',#806,1.);
#123=VECTOR('',#809,1.);
#124=VECTOR('',#810,1.);
#125=VECTOR('',#813,1.);
#126=VECTOR('',#816,1.);
#127=VECTOR('',#821,1.);
#128=VECTOR('',#822,1.);
#129=VECTOR('',#823,1.);
#130=VECTOR('',#824,1.);
#131=VECTOR('',#825,1.);
#132=VECTOR('',#832,1.);
#133=VECTOR('',#833,1.);
#134=VECTOR('',#836,1.);
#135=VECTOR('',#841,1.);
#136=VECTOR('',#854,1.);
#137=VECTOR('',#855,1.);
#138=VECTOR('',#856,1.);
#139=VECTOR('',#859,1.);
#140=VECTOR('',#862,1.);
#141=VECTOR('',#867,1.);
#142=VECTOR('',#868,1.);
#143=VECTOR('',#871,1.);
#144=VECTOR('',#872,1.);
#145=VECTOR('',#873,1.);
#146=VECTOR('',#874,1.);
#147=VECTOR('',#877,1.);
#148=VECTOR('',#878,1.);
#149=VECTOR('',#879,1.);
#150=VECTOR('',#884,1.);
#151=VECTOR('',#885,1.);
#152=VECTOR('',#888,1.);
#153=VECTOR('',#891,1.);
#154=VECTOR('',#894,1.);
#155=VECTOR('',#895,1.);
#156=VECTOR('',#896,1.);
#157=VECTOR('',#897,1.);
#158=ORIENTED_EDGE('',*,*,#354,.T.);
#159=ORIENTED_EDGE('',*,*,#355,.T.);
#160=ORIENTED_EDGE('',*,*,#356,.F.);
#161=ORIENTED_EDGE('',*,*,#357,.F.);
#162=ORIENTED_EDGE('',*,*,#358,.T.);
#163=ORIENTED_EDGE('',*,*,#359,.T.);
#164=ORIENTED_EDGE('',*,*,#360,.T.);
#165=ORIENTED_EDGE('',*,*,#361,.T.);
#166=ORIENTED_EDGE('',*,*,#362,.F.);
#167=ORIENTED_EDGE('',*,*,#363,.T.);
#168=ORIENTED_EDGE('',*,*,#364,.F.);
#169=ORIENTED_EDGE('',*,*,#365,.T.);
#170=ORIENTED_EDGE('',*,*,#366,.F.);
#171=ORIENTED_EDGE('',*,*,#367,.F.);
#172=ORIENTED_EDGE('',*,*,#368,.T.);
#173=ORIENTED_EDGE('',*,*,#369,.T.);
#174=ORIENTED_EDGE('',*,*,#370,.F.);
#175=ORIENTED_EDGE('',*,*,#371,.T.);
#176=ORIENTED_EDGE('',*,*,#372,.T.);
#177=ORIENTED_EDGE('',*,*,#373,.T.);
#178=ORIENTED_EDGE('',*,*,#362,.T.);
#179=ORIENTED_EDGE('',*,*,#374,.T.);
#180=ORIENTED_EDGE('',*,*,#375,.F.);
#181=ORIENTED_EDGE('',*,*,#376,.T.);
#182=ORIENTED_EDGE('',*,*,#377,.F.);
#183=ORIENTED_EDGE('',*,*,#378,.T.);
#184=ORIENTED_EDGE('',*,*,#379,.T.);
#185=ORIENTED_EDGE('',*,*,#380,.F.);
#186=ORIENTED_EDGE('',*,*,#381,.T.);
#187=ORIENTED_EDGE('',*,*,#382,.T.);
#188=ORIENTED_EDGE('',*,*,#358,.F.);
#189=ORIENTED_EDGE('',*,*,#383,.F.);
#190=ORIENTED_EDGE('',*,*,#356,.T.);
#191=ORIENTED_EDGE('',*,*,#384,.T.);
#192=ORIENTED_EDGE('',*,*,#385,.F.);
#193=ORIENTED_EDGE('',*,*,#386,.T.);
#194=ORIENTED_EDGE('',*,*,#387,.F.);
#195=ORIENTED_EDGE('',*,*,#388,.T.);
#196=ORIENTED_EDGE('',*,*,#366,.T.);
#197=ORIENTED_EDGE('',*,*,#389,.T.);
#198=ORIENTED_EDGE('',*,*,#388,.F.);
#199=ORIENTED_EDGE('',*,*,#390,.F.);
#200=ORIENTED_EDGE('',*,*,#391,.T.);
#201=ORIENTED_EDGE('',*,*,#367,.T.);
#202=ORIENTED_EDGE('',*,*,#392,.T.);
#203=ORIENTED_EDGE('',*,*,#393,.T.);
#204=ORIENTED_EDGE('',*,*,#375,.T.);
#205=ORIENTED_EDGE('',*,*,#394,.F.);
#206=ORIENTED_EDGE('',*,*,#395,.F.);
#207=ORIENTED_EDGE('',*,*,#390,.T.);
#208=ORIENTED_EDGE('',*,*,#387,.T.);
#209=ORIENTED_EDGE('',*,*,#396,.T.);
#210=ORIENTED_EDGE('',*,*,#374,.F.);
#211=ORIENTED_EDGE('',*,*,#369,.F.);
#212=ORIENTED_EDGE('',*,*,#397,.T.);
#213=ORIENTED_EDGE('',*,*,#394,.T.);
#214=ORIENTED_EDGE('',*,*,#398,.F.);
#215=ORIENTED_EDGE('',*,*,#399,.T.);
#216=ORIENTED_EDGE('',*,*,#400,.T.);
#217=ORIENTED_EDGE('',*,*,#380,.T.);
#218=ORIENTED_EDGE('',*,*,#379,.F.);
#219=ORIENTED_EDGE('',*,*,#401,.T.);
#220=ORIENTED_EDGE('',*,*,#402,.T.);
#221=ORIENTED_EDGE('',*,*,#398,.T.);
#222=ORIENTED_EDGE('',*,*,#361,.F.);
#223=ORIENTED_EDGE('',*,*,#403,.T.);
#224=ORIENTED_EDGE('',*,*,#357,.T.);
#225=ORIENTED_EDGE('',*,*,#383,.T.);
#226=ORIENTED_EDGE('',*,*,#404,.T.);
#227=ORIENTED_EDGE('',*,*,#405,.T.);
#228=ORIENTED_EDGE('',*,*,#370,.T.);
#229=ORIENTED_EDGE('',*,*,#400,.F.);
#230=ORIENTED_EDGE('',*,*,#406,.T.);
#231=ORIENTED_EDGE('',*,*,#407,.T.);
#232=ORIENTED_EDGE('',*,*,#408,.T.);
#233=ORIENTED_EDGE('',*,*,#409,.T.);
#234=ORIENTED_EDGE('',*,*,#410,.T.);
#235=ORIENTED_EDGE('',*,*,#411,.T.);
#236=ORIENTED_EDGE('',*,*,#412,.T.);
#237=ORIENTED_EDGE('',*,*,#391,.F.);
#238=ORIENTED_EDGE('',*,*,#395,.T.);
#239=ORIENTED_EDGE('',*,*,#397,.F.);
#240=ORIENTED_EDGE('',*,*,#368,.F.);
#241=ORIENTED_EDGE('',*,*,#413,.T.);
#242=ORIENTED_EDGE('',*,*,#414,.T.);
#243=ORIENTED_EDGE('',*,*,#415,.T.);
#244=ORIENTED_EDGE('',*,*,#413,.F.);
#245=ORIENTED_EDGE('',*,*,#415,.F.);
#246=ORIENTED_EDGE('',*,*,#411,.F.);
#247=ORIENTED_EDGE('',*,*,#414,.F.);
#248=ORIENTED_EDGE('',*,*,#416,.F.);
#249=ORIENTED_EDGE('',*,*,#402,.F.);
#250=ORIENTED_EDGE('',*,*,#417,.F.);
#251=ORIENTED_EDGE('',*,*,#418,.F.);
#252=ORIENTED_EDGE('',*,*,#419,.F.);
#253=ORIENTED_EDGE('',*,*,#354,.F.);
#254=ORIENTED_EDGE('',*,*,#420,.F.);
#255=ORIENTED_EDGE('',*,*,#409,.F.);
#256=ORIENTED_EDGE('',*,*,#420,.T.);
#257=ORIENTED_EDGE('',*,*,#403,.F.);
#258=ORIENTED_EDGE('',*,*,#421,.F.);
#259=ORIENTED_EDGE('',*,*,#406,.F.);
#260=ORIENTED_EDGE('',*,*,#416,.T.);
#261=ORIENTED_EDGE('',*,*,#408,.F.);
#262=ORIENTED_EDGE('',*,*,#422,.F.);
#263=ORIENTED_EDGE('',*,*,#399,.F.);
#264=ORIENTED_EDGE('',*,*,#421,.T.);
#265=ORIENTED_EDGE('',*,*,#360,.F.);
#266=ORIENTED_EDGE('',*,*,#423,.F.);
#267=ORIENTED_EDGE('',*,*,#424,.F.);
#268=ORIENTED_EDGE('',*,*,#425,.F.);
#269=ORIENTED_EDGE('',*,*,#404,.F.);
#270=ORIENTED_EDGE('',*,*,#422,.T.);
#271=ORIENTED_EDGE('',*,*,#407,.F.);
#272=ORIENTED_EDGE('',*,*,#410,.F.);
#273=ORIENTED_EDGE('',*,*,#412,.F.);
#274=ORIENTED_EDGE('',*,*,#424,.T.);
#275=ORIENTED_EDGE('',*,*,#423,.T.);
#276=ORIENTED_EDGE('',*,*,#426,.T.);
#277=ORIENTED_EDGE('',*,*,#427,.T.);
#278=ORIENTED_EDGE('',*,*,#428,.T.);
#279=ORIENTED_EDGE('',*,*,#425,.T.);
#280=ORIENTED_EDGE('',*,*,#372,.F.);
#281=ORIENTED_EDGE('',*,*,#429,.T.);
#282=ORIENTED_EDGE('',*,*,#430,.T.);
#283=ORIENTED_EDGE('',*,*,#431,.T.);
#284=ORIENTED_EDGE('',*,*,#432,.T.);
#285=ORIENTED_EDGE('',*,*,#433,.T.);
#286=ORIENTED_EDGE('',*,*,#381,.F.);
#287=ORIENTED_EDGE('',*,*,#434,.T.);
#288=ORIENTED_EDGE('',*,*,#430,.F.);
#289=ORIENTED_EDGE('',*,*,#435,.T.);
#290=ORIENTED_EDGE('',*,*,#427,.F.);
#291=ORIENTED_EDGE('',*,*,#436,.T.);
#292=ORIENTED_EDGE('',*,*,#432,.F.);
#293=ORIENTED_EDGE('',*,*,#437,.T.);
#294=ORIENTED_EDGE('',*,*,#364,.T.);
#295=ORIENTED_EDGE('',*,*,#438,.T.);
#296=ORIENTED_EDGE('',*,*,#418,.T.);
#297=ORIENTED_EDGE('',*,*,#417,.T.);
#298=ORIENTED_EDGE('',*,*,#439,.T.);
#299=ORIENTED_EDGE('',*,*,#440,.F.);
#300=ORIENTED_EDGE('',*,*,#441,.T.);
#301=ORIENTED_EDGE('',*,*,#419,.T.);
#302=ORIENTED_EDGE('',*,*,#442,.F.);
#303=ORIENTED_EDGE('',*,*,#443,.T.);
#304=ORIENTED_EDGE('',*,*,#377,.T.);
#305=ORIENTED_EDGE('',*,*,#444,.T.);
#306=ORIENTED_EDGE('',*,*,#385,.T.);
#307=ORIENTED_EDGE('',*,*,#445,.T.);
#308=ORIENTED_EDGE('',*,*,#446,.F.);
#309=ORIENTED_EDGE('',*,*,#447,.T.);
#310=ORIENTED_EDGE('',*,*,#440,.T.);
#311=ORIENTED_EDGE('',*,*,#448,.T.);
#312=ORIENTED_EDGE('',*,*,#442,.T.);
#313=ORIENTED_EDGE('',*,*,#449,.T.);
#314=ORIENTED_EDGE('',*,*,#392,.F.);
#315=ORIENTED_EDGE('',*,*,#450,.T.);
#316=ORIENTED_EDGE('',*,*,#446,.T.);
#317=ORIENTED_EDGE('',*,*,#451,.T.);
#318=ORIENTED_EDGE('',*,*,#435,.F.);
#319=ORIENTED_EDGE('',*,*,#429,.F.);
#320=ORIENTED_EDGE('',*,*,#371,.F.);
#321=ORIENTED_EDGE('',*,*,#405,.F.);
#322=ORIENTED_EDGE('',*,*,#428,.F.);
#323=ORIENTED_EDGE('',*,*,#426,.F.);
#324=ORIENTED_EDGE('',*,*,#359,.F.);
#325=ORIENTED_EDGE('',*,*,#382,.F.);
#326=ORIENTED_EDGE('',*,*,#433,.F.);
#327=ORIENTED_EDGE('',*,*,#436,.F.);
#328=ORIENTED_EDGE('',*,*,#439,.F.);
#329=ORIENTED_EDGE('',*,*,#401,.F.);
#330=ORIENTED_EDGE('',*,*,#378,.F.);
#331=ORIENTED_EDGE('',*,*,#443,.F.);
#332=ORIENTED_EDGE('',*,*,#448,.F.);
#333=ORIENTED_EDGE('',*,*,#451,.F.);
#334=ORIENTED_EDGE('',*,*,#445,.F.);
#335=ORIENTED_EDGE('',*,*,#384,.F.);
#336=ORIENTED_EDGE('',*,*,#355,.F.);
#337=ORIENTED_EDGE('',*,*,#441,.F.);
#338=ORIENTED_EDGE('',*,*,#438,.F.);
#339=ORIENTED_EDGE('',*,*,#363,.F.);
#340=ORIENTED_EDGE('',*,*,#373,.F.);
#341=ORIENTED_EDGE('',*,*,#431,.F.);
#342=ORIENTED_EDGE('',*,*,#437,.F.);
#343=ORIENTED_EDGE('',*,*,#434,.F.);
#344=ORIENTED_EDGE('',*,*,#389,.F.);
#345=ORIENTED_EDGE('',*,*,#365,.F.);
#346=ORIENTED_EDGE('',*,*,#449,.F.);
#347=ORIENTED_EDGE('',*,*,#444,.F.);
#348=ORIENTED_EDGE('',*,*,#376,.F.);
#349=ORIENTED_EDGE('',*,*,#393,.F.);
#350=ORIENTED_EDGE('',*,*,#450,.F.);
#351=ORIENTED_EDGE('',*,*,#396,.F.);
#352=ORIENTED_EDGE('',*,*,#386,.F.);
#353=ORIENTED_EDGE('',*,*,#447,.F.);
#354=EDGE_CURVE('',#452,#453,#518,.T.);
#355=EDGE_CURVE('',#453,#454,#42,.T.);
#356=EDGE_CURVE('',#455,#454,#43,.T.);
#357=EDGE_CURVE('',#452,#455,#44,.T.);
#358=EDGE_CURVE('',#456,#457,#45,.T.);
#359=EDGE_CURVE('',#457,#458,#46,.T.);
#360=EDGE_CURVE('',#458,#459,#519,.T.);
#361=EDGE_CURVE('',#459,#456,#47,.T.);
#362=EDGE_CURVE('',#460,#461,#48,.T.);
#363=EDGE_CURVE('',#460,#462,#49,.T.);
#364=EDGE_CURVE('',#463,#462,#50,.T.);
#365=EDGE_CURVE('',#463,#464,#51,.T.);
#366=EDGE_CURVE('',#465,#464,#52,.T.);
#367=EDGE_CURVE('',#466,#465,#53,.T.);
#368=EDGE_CURVE('',#466,#467,#54,.T.);
#369=EDGE_CURVE('',#467,#461,#55,.T.);
#370=EDGE_CURVE('',#468,#469,#56,.T.);
#371=EDGE_CURVE('',#468,#470,#57,.F.);
#372=EDGE_CURVE('',#470,#471,#28,.T.);
#373=EDGE_CURVE('',#471,#460,#58,.F.);
#374=EDGE_CURVE('',#461,#472,#29,.T.);
#375=EDGE_CURVE('',#473,#472,#59,.T.);
#376=EDGE_CURVE('',#473,#474,#60,.F.);
#377=EDGE_CURVE('',#475,#474,#30,.T.);
#378=EDGE_CURVE('',#475,#476,#61,.F.);
#379=EDGE_CURVE('',#476,#477,#62,.T.);
#380=EDGE_CURVE('',#469,#477,#31,.T.);
#381=EDGE_CURVE('',#478,#479,#32,.T.);
#382=EDGE_CURVE('',#479,#457,#63,.F.);
#383=EDGE_CURVE('',#455,#456,#33,.T.);
#384=EDGE_CURVE('',#454,#480,#64,.F.);
#385=EDGE_CURVE('',#481,#480,#34,.T.);
#386=EDGE_CURVE('',#481,#482,#65,.F.);
#387=EDGE_CURVE('',#483,#482,#66,.T.);
#388=EDGE_CURVE('',#483,#465,#35,.T.);
#389=EDGE_CURVE('',#464,#478,#67,.F.);
#390=EDGE_CURVE('',#484,#483,#68,.T.);
#391=EDGE_CURVE('',#484,#466,#36,.T.);
#392=EDGE_CURVE('',#485,#486,#69,.T.);
#393=EDGE_CURVE('',#486,#473,#70,.T.);
#394=EDGE_CURVE('',#487,#472,#71,.T.);
#395=EDGE_CURVE('',#484,#487,#72,.T.);
#396=EDGE_CURVE('',#482,#485,#73,.T.);
#397=EDGE_CURVE('',#467,#487,#37,.T.);
#398=EDGE_CURVE('',#488,#477,#74,.T.);
#399=EDGE_CURVE('',#488,#489,#520,.T.);
#400=EDGE_CURVE('',#489,#469,#75,.T.);
#401=EDGE_CURVE('',#476,#490,#76,.T.);
#402=EDGE_CURVE('',#490,#488,#521,.T.);
#403=EDGE_CURVE('',#459,#452,#522,.T.);
#404=EDGE_CURVE('',#489,#491,#523,.T.);
#405=EDGE_CURVE('',#491,#468,#77,.T.);
#406=EDGE_CURVE('',#492,#493,#524,.T.);
#407=EDGE_CURVE('',#493,#494,#525,.T.);
#408=EDGE_CURVE('',#494,#495,#526,.T.);
#409=EDGE_CURVE('',#495,#492,#527,.T.);
#410=EDGE_CURVE('',#496,#496,#528,.T.);
#411=EDGE_CURVE('',#497,#497,#529,.T.);
#412=EDGE_CURVE('',#498,#498,#530,.T.);
#413=EDGE_CURVE('',#499,#499,#531,.T.);
#414=EDGE_CURVE('',#500,#500,#532,.T.);
#415=EDGE_CURVE('',#501,#501,#533,.T.);
#416=EDGE_CURVE('',#488,#495,#534,.F.);
#417=EDGE_CURVE('',#502,#490,#535,.T.);
#418=EDGE_CURVE('',#503,#502,#536,.T.);
#419=EDGE_CURVE('',#453,#503,#537,.T.);
#420=EDGE_CURVE('',#492,#452,#538,.F.);
#421=EDGE_CURVE('',#493,#459,#539,.T.);
#422=EDGE_CURVE('',#489,#494,#540,.T.);
#423=EDGE_CURVE('',#504,#458,#541,.T.);
#424=EDGE_CURVE('',#505,#504,#542,.T.);
#425=EDGE_CURVE('',#491,#505,#543,.T.);
#426=EDGE_CURVE('',#458,#506,#78,.F.);
#427=EDGE_CURVE('',#506,#507,#79,.T.);
#428=EDGE_CURVE('',#507,#491,#80,.F.);
#429=EDGE_CURVE('',#470,#508,#81,.F.);
#430=EDGE_CURVE('',#508,#509,#38,.T.);
#431=EDGE_CURVE('',#509,#471,#82,.T.);
#432=EDGE_CURVE('',#510,#511,#39,.T.);
#433=EDGE_CURVE('',#511,#479,#83,.T.);
#434=EDGE_CURVE('',#478,#510,#84,.F.);
#435=EDGE_CURVE('',#508,#507,#85,.F.);
#436=EDGE_CURVE('',#506,#511,#86,.F.);
#437=EDGE_CURVE('',#510,#463,#87,.F.);
#438=EDGE_CURVE('',#462,#509,#88,.F.);
#439=EDGE_CURVE('',#490,#512,#89,.F.);
#440=EDGE_CURVE('',#513,#512,#90,.T.);
#441=EDGE_CURVE('',#513,#453,#91,.F.);
#442=EDGE_CURVE('',#514,#515,#40,.T.);
#443=EDGE_CURVE('',#514,#475,#92,.T.);
#444=EDGE_CURVE('',#474,#515,#93,.F.);
#445=EDGE_CURVE('',#480,#516,#94,.F.);
#446=EDGE_CURVE('',#517,#516,#41,.T.);
#447=EDGE_CURVE('',#517,#481,#95,.T.);
#448=EDGE_CURVE('',#512,#514,#96,.F.);
#449=EDGE_CURVE('',#515,#486,#97,.F.);
#450=EDGE_CURVE('',#485,#517,#98,.F.);
#451=EDGE_CURVE('',#516,#513,#99,.F.);
#452=VERTEX_POINT('',#920);
#453=VERTEX_POINT('',#921);
#454=VERTEX_POINT('',#923);
#455=VERTEX_POINT('',#925);
#456=VERTEX_POINT('',#929);
#457=VERTEX_POINT('',#930);
#458=VERTEX_POINT('',#932);
#459=VERTEX_POINT('',#937);
#460=VERTEX_POINT('',#941);
#461=VERTEX_POINT('',#942);
#462=VERTEX_POINT('',#944);
#463=VERTEX_POINT('',#946);
#464=VERTEX_POINT('',#948);
#465=VERTEX_POINT('',#950);
#466=VERTEX_POINT('',#952);
#467=VERTEX_POINT('',#954);
#468=VERTEX_POINT('',#958);
#469=VERTEX_POINT('',#959);
#470=VERTEX_POINT('',#961);
#471=VERTEX_POINT('',#963);
#472=VERTEX_POINT('',#966);
#473=VERTEX_POINT('',#968);
#474=VERTEX_POINT('',#970);
#475=VERTEX_POINT('',#972);
#476=VERTEX_POINT('',#974);
#477=VERTEX_POINT('',#976);
#478=VERTEX_POINT('',#980);
#479=VERTEX_POINT('',#981);
#480=VERTEX_POINT('',#985);
#481=VERTEX_POINT('',#987);
#482=VERTEX_POINT('',#989);
#483=VERTEX_POINT('',#991);
#484=VERTEX_POINT('',#996);
#485=VERTEX_POINT('',#1000);
#486=VERTEX_POINT('',#1001);
#487=VERTEX_POINT('',#1004);
#488=VERTEX_POINT('',#1011);
#489=VERTEX_POINT('',#1017);
#490=VERTEX_POINT('',#1021);
#491=VERTEX_POINT('',#1037);
#492=VERTEX_POINT('',#1047);
#493=VERTEX_POINT('',#1048);
#494=VERTEX_POINT('',#1053);
#495=VERTEX_POINT('',#1061);
#496=VERTEX_POINT('',#1085);
#497=VERTEX_POINT('',#1098);
#498=VERTEX_POINT('',#1110);
#499=VERTEX_POINT('',#1125);
#500=VERTEX_POINT('',#1145);
#501=VERTEX_POINT('',#1166);
#502=VERTEX_POINT('',#1338);
#503=VERTEX_POINT('',#1343);
#504=VERTEX_POINT('',#1407);
#505=VERTEX_POINT('',#1412);
#506=VERTEX_POINT('',#1495);
#507=VERTEX_POINT('',#1497);
#508=VERTEX_POINT('',#1501);
#509=VERTEX_POINT('',#1503);
#510=VERTEX_POINT('',#1507);
#511=VERTEX_POINT('',#1508);
#512=VERTEX_POINT('',#1518);
#513=VERTEX_POINT('',#1520);
#514=VERTEX_POINT('',#1524);
#515=VERTEX_POINT('',#1525);
#516=VERTEX_POINT('',#1530);
#517=VERTEX_POINT('',#1532);
#518=B_SPLINE_CURVE_WITH_KNOTS('',3,(#916,#917,#918,#919),.UNSPECIFIED.,
 .F.,.F.,(4,4),(3.85945972783287E-5,0.344198173970921),.UNSPECIFIED.);
#519=B_SPLINE_CURVE_WITH_KNOTS('',3,(#933,#934,#935,#936),.UNSPECIFIED.,
 .F.,.F.,(4,4),(0.655801826029104,0.999961405402619),.UNSPECIFIED.);
#520=B_SPLINE_CURVE_WITH_KNOTS('',3,(#1012,#1013,#1014,#1015,#1016),
 .UNSPECIFIED.,.F.,.F.,(4,1,4),(1.76196314493302E-8,0.49999999119059,0.999999964761548),
 .UNSPECIFIED.);
#521=B_SPLINE_CURVE_WITH_KNOTS('',3,(#1022,#1023,#1024,#1025),
 .UNSPECIFIED.,.F.,.F.,(4,4),(0.655801826029147,0.999981931684358),
 .UNSPECIFIED.);
#522=B_SPLINE_CURVE_WITH_KNOTS('',3,(#1027,#1028,#1029,#1030,#1031),
 .UNSPECIFIED.,.F.,.F.,(4,1,4),(0.,0.5,1.),.UNSPECIFIED.);
#523=B_SPLINE_CURVE_WITH_KNOTS('',3,(#1033,#1034,#1035,#1036),
 .UNSPECIFIED.,.F.,.F.,(4,4),(0.,0.344198173970837),.UNSPECIFIED.);
#524=B_SPLINE_CURVE_WITH_KNOTS('',3,(#1040,#1041,#1042,#1043,#1044,#1045,
#1046),.UNSPECIFIED.,.F.,.F.,(4,1,1,1,4),(0.,0.25,0.5,0.75,1.),
 .UNSPECIFIED.);
#525=B_SPLINE_CURVE_WITH_KNOTS('',3,(#1049,#1050,#1051,#1052),
 .UNSPECIFIED.,.F.,.F.,(4,4),(0.,1.),.UNSPECIFIED.);
#526=B_SPLINE_CURVE_WITH_KNOTS('',3,(#1054,#1055,#1056,#1057,#1058,#1059,
#1060),.UNSPECIFIED.,.F.,.F.,(4,1,1,1,4),(0.,0.25,0.5,0.75,1.),
 .UNSPECIFIED.);
#527=B_SPLINE_CURVE_WITH_KNOTS('',3,(#1062,#1063,#1064,#1065),
 .UNSPECIFIED.,.F.,.F.,(4,4),(0.,1.),.UNSPECIFIED.);
#528=B_SPLINE_CURVE_WITH_KNOTS('',3,(#1066,#1067,#1068,#1069,#1070,#1071,
#1072,#1073,#1074,#1075,#1076,#1077,#1078,#1079,#1080,#1081,#1082,#1083,
#1084),.UNSPECIFIED.,.T.,.F.,(1,1,1,1,1,1,1,1,1,1,1,1,1,1,1,1,1,1,1,1,1,
1,1),(-0.190789473684211,-0.128289473684211,-0.0657894736842105,0.,0.059375,
0.12171875,0.1842109375,0.246710546875,0.30921052734375,0.371710526367187,
0.434210526318359,0.496710526315918,0.559210526315796,0.62171052631579,
0.684210526315789,0.746710526315789,0.809210526315789,0.871710526315789,
0.934210526315789,1.,1.059375,1.12171875,1.1842109375),.UNSPECIFIED.);
#529=B_SPLINE_CURVE_WITH_KNOTS('',3,(#1087,#1088,#1089,#1090,#1091,#1092,
#1093,#1094,#1095,#1096,#1097),.UNSPECIFIED.,.T.,.F.,(1,1,1,1,1,1,1,1,1,
1,1,1,1,1,1),(-0.375,-0.25,-0.125,0.,0.125,0.25,0.375,0.5,0.625,0.75,0.875,
1.,1.125,1.25,1.375),.UNSPECIFIED.);
#530=B_SPLINE_CURVE_WITH_KNOTS('',3,(#1099,#1100,#1101,#1102,#1103,#1104,
#1105,#1106,#1107,#1108,#1109),.UNSPECIFIED.,.T.,.F.,(1,1,1,1,1,1,1,1,1,
1,1,1,1,1,1),(-0.375,-0.25,-0.125,0.,0.125,0.25,0.375,0.5,0.625,0.75,0.875,
1.,1.125,1.25,1.375),.UNSPECIFIED.);
#531=B_SPLINE_CURVE_WITH_KNOTS('',3,(#1113,#1114,#1115,#1116,#1117,#1118,
#1119,#1120,#1121,#1122,#1123,#1124),.UNSPECIFIED.,.T.,.F.,(1,1,1,1,1,1,
1,1,1,1,1,1,1,1,1,1),(-0.00981904597460359,-0.0049095229873018,-0.0024547614936509,
0.,0.0049095229873018,0.00981904597460359,0.0147285689619054,0.0196380919492072,
0.024547614936509,0.0294571379238108,0.0343666609111126,0.0368214224047635,
0.0392761838984144,0.0441857068857162,0.049095229873018,0.0540047528603198),
 .UNSPECIFIED.);
#532=B_SPLINE_CURVE_WITH_KNOTS('',3,(#1126,#1127,#1128,#1129,#1130,#1131,
#1132,#1133,#1134,#1135,#1136,#1137,#1138,#1139,#1140,#1141,#1142,#1143,
#1144),.UNSPECIFIED.,.T.,.F.,(1,1,1,1,1,1,1,1,1,1,1,1,1,1,1,1,1,1,1,1,1,
1,1),(-0.190789473684211,-0.128289473684211,-0.0657894736842105,0.,0.059375,
0.12171875,0.1842109375,0.246710546875,0.30921052734375,0.371710526367187,
0.434210526318359,0.496710526315918,0.559210526315796,0.62171052631579,
0.684210526315789,0.746710526315789,0.809210526315789,0.871710526315789,
0.934210526315789,1.,1.059375,1.12171875,1.1842109375),.UNSPECIFIED.);
#533=B_SPLINE_CURVE_WITH_KNOTS('',3,(#1147,#1148,#1149,#1150,#1151,#1152,
#1153,#1154,#1155,#1156,#1157,#1158,#1159,#1160,#1161,#1162,#1163,#1164,
#1165),.UNSPECIFIED.,.T.,.F.,(1,1,1,1,1,1,1,1,1,1,1,1,1,1,1,1,1,1,1,1,1,
1,1),(-0.190789473684211,-0.128289473684211,-0.0657894736842105,0.,0.059375,
0.12171875,0.1842109375,0.246710546875,0.30921052734375,0.371710526367187,
0.434210526318359,0.496710526315918,0.559210526315796,0.62171052631579,
0.684210526315789,0.746710526315789,0.809210526315789,0.871710526315789,
0.934210526315789,1.,1.059375,1.12171875,1.1842109375),.UNSPECIFIED.);
#534=B_SPLINE_CURVE_WITH_KNOTS('',3,(#1327,#1328,#1329,#1330,#1331,#1332,
#1333),.UNSPECIFIED.,.F.,.F.,(4,1,1,1,4),(0.,0.25,0.5,0.75,1.),
 .UNSPECIFIED.);
#535=B_SPLINE_CURVE_WITH_KNOTS('',3,(#1334,#1335,#1336,#1337),
 .UNSPECIFIED.,.F.,.F.,(4,4),(0.,1.),.UNSPECIFIED.);
#536=B_SPLINE_CURVE_WITH_KNOTS('',3,(#1339,#1340,#1341,#1342),
 .UNSPECIFIED.,.F.,.F.,(4,4),(0.406003838213544,0.593996161786352),
 .UNSPECIFIED.);
#537=B_SPLINE_CURVE_WITH_KNOTS('',3,(#1344,#1345,#1346,#1347),
 .UNSPECIFIED.,.F.,.F.,(4,4),(0.,1.),.UNSPECIFIED.);
#538=B_SPLINE_CURVE_WITH_KNOTS('',3,(#1348,#1349,#1350,#1351,#1352,#1353,
#1354),.UNSPECIFIED.,.F.,.F.,(4,1,1,1,4),(0.,0.25,0.5,0.75,1.),
 .UNSPECIFIED.);
#539=B_SPLINE_CURVE_WITH_KNOTS('',3,(#1371,#1372,#1373,#1374),
 .UNSPECIFIED.,.F.,.F.,(4,4),(0.,1.),.UNSPECIFIED.);
#540=B_SPLINE_CURVE_WITH_KNOTS('',3,(#1391,#1392,#1393,#1394),
 .UNSPECIFIED.,.F.,.F.,(4,4),(0.,1.),.UNSPECIFIED.);
#541=B_SPLINE_CURVE_WITH_KNOTS('',3,(#1403,#1404,#1405,#1406),
 .UNSPECIFIED.,.F.,.F.,(4,4),(0.,1.),.UNSPECIFIED.);
#542=B_SPLINE_CURVE_WITH_KNOTS('',3,(#1408,#1409,#1410,#1411),
 .UNSPECIFIED.,.F.,.F.,(4,4),(0.406003838213468,0.5939961617863),
 .UNSPECIFIED.);
#543=B_SPLINE_CURVE_WITH_KNOTS('',3,(#1413,#1414,#1415,#1416),
 .UNSPECIFIED.,.F.,.F.,(4,4),(0.,1.),.UNSPECIFIED.);
#544=EDGE_LOOP('',(#158,#159,#160,#161));
#545=EDGE_LOOP('',(#162,#163,#164,#165));
#546=EDGE_LOOP('',(#166,#167,#168,#169,#170,#171,#172,#173));
#547=EDGE_LOOP('',(#174,#175,#176,#177,#178,#179,#180,#181,#182,#183,#184,
#185));
#548=EDGE_LOOP('',(#186,#187,#188,#189,#190,#191,#192,#193,#194,#195,#196,
#197));
#549=EDGE_LOOP('',(#198,#199,#200,#201));
#550=EDGE_LOOP('',(#202,#203,#204,#205,#206,#207,#208,#209));
#551=EDGE_LOOP('',(#210,#211,#212,#213));
#552=EDGE_LOOP('',(#214,#215,#216,#217));
#553=EDGE_LOOP('',(#218,#219,#220,#221));
#554=EDGE_LOOP('',(#222,#223,#224,#225));
#555=EDGE_LOOP('',(#226,#227,#228,#229));
#556=EDGE_LOOP('',(#230,#231,#232,#233));
#557=EDGE_LOOP('',(#234));
#558=EDGE_LOOP('',(#235));
#559=EDGE_LOOP('',(#236));
#560=EDGE_LOOP('',(#237,#238,#239,#240));
#561=EDGE_LOOP('',(#241));
#562=EDGE_LOOP('',(#242));
#563=EDGE_LOOP('',(#243));
#564=EDGE_LOOP('',(#244));
#565=EDGE_LOOP('',(#245));
#566=EDGE_LOOP('',(#246));
#567=EDGE_LOOP('',(#247));
#568=EDGE_LOOP('',(#248,#249,#250,#251,#252,#253,#254,#255));
#569=EDGE_LOOP('',(#256,#257,#258,#259));
#570=EDGE_LOOP('',(#260,#261,#262,#263));
#571=EDGE_LOOP('',(#264,#265,#266,#267,#268,#269,#270,#271));
#572=EDGE_LOOP('',(#272));
#573=EDGE_LOOP('',(#273));
#574=EDGE_LOOP('',(#274,#275,#276,#277,#278,#279));
#575=EDGE_LOOP('',(#280,#281,#282,#283));
#576=EDGE_LOOP('',(#284,#285,#286,#287));
#577=EDGE_LOOP('',(#288,#289,#290,#291,#292,#293,#294,#295));
#578=EDGE_LOOP('',(#296,#297,#298,#299,#300,#301));
#579=EDGE_LOOP('',(#302,#303,#304,#305));
#580=EDGE_LOOP('',(#306,#307,#308,#309));
#581=EDGE_LOOP('',(#310,#311,#312,#313,#314,#315,#316,#317));
#582=EDGE_LOOP('',(#318,#319,#320,#321,#322));
#583=EDGE_LOOP('',(#323,#324,#325,#326,#327));
#584=EDGE_LOOP('',(#328,#329,#330,#331,#332));
#585=EDGE_LOOP('',(#333,#334,#335,#336,#337));
#586=EDGE_LOOP('',(#338,#339,#340,#341));
#587=EDGE_LOOP('',(#342,#343,#344,#345));
#588=EDGE_LOOP('',(#346,#347,#348,#349));
#589=EDGE_LOOP('',(#350,#351,#352,#353));
#590=FACE_BOUND('',#544,.T.);
#591=FACE_BOUND('',#545,.T.);
#592=FACE_BOUND('',#546,.T.);
#593=FACE_BOUND('',#547,.T.);
#594=FACE_BOUND('',#548,.T.);
#595=FACE_BOUND('',#549,.T.);
#596=FACE_BOUND('',#550,.T.);
#597=FACE_BOUND('',#551,.T.);
#598=FACE_BOUND('',#552,.T.);
#599=FACE_BOUND('',#553,.T.);
#600=FACE_BOUND('',#554,.T.);
#601=FACE_BOUND('',#555,.T.);
#602=FACE_BOUND('',#556,.T.);
#603=FACE_BOUND('',#557,.T.);
#604=FACE_BOUND('',#558,.T.);
#605=FACE_BOUND('',#559,.T.);
#606=FACE_BOUND('',#560,.T.);
#607=FACE_BOUND('',#561,.T.);
#608=FACE_BOUND('',#562,.T.);
#609=FACE_BOUND('',#563,.T.);
#610=FACE_BOUND('',#564,.T.);
#611=FACE_BOUND('',#565,.T.);
#612=FACE_BOUND('',#566,.T.);
#613=FACE_BOUND('',#567,.T.);
#614=FACE_BOUND('',#568,.T.);
#615=FACE_BOUND('',#569,.T.);
#616=FACE_BOUND('',#570,.T.);
#617=FACE_BOUND('',#571,.T.);
#618=FACE_BOUND('',#572,.T.);
#619=FACE_BOUND('',#573,.T.);
#620=FACE_BOUND('',#574,.T.);
#621=FACE_BOUND('',#575,.T.);
#622=FACE_BOUND('',#576,.T.);
#623=FACE_BOUND('',#577,.T.);
#624=FACE_BOUND('',#578,.T.);
#625=FACE_BOUND('',#579,.T.);
#626=FACE_BOUND('',#580,.T.);
#627=FACE_BOUND('',#581,.T.);
#628=FACE_BOUND('',#582,.T.);
#629=FACE_BOUND('',#583,.T.);
#630=FACE_BOUND('',#584,.T.);
#631=FACE_BOUND('',#585,.T.);
#632=FACE_BOUND('',#586,.T.);
#633=FACE_BOUND('',#587,.T.);
#634=FACE_BOUND('',#588,.T.);
#635=FACE_BOUND('',#589,.T.);
#636=PLANE('',#713);
#637=PLANE('',#714);
#638=PLANE('',#715);
#639=PLANE('',#716);
#640=PLANE('',#721);
#641=PLANE('',#728);
#642=PLANE('',#732);
#643=PLANE('',#734);
#644=PLANE('',#735);
#645=PLANE('',#737);
#646=PLANE('',#738);
#647=PLANE('',#739);
#648=PLANE('',#740);
#649=PLANE('',#745);
#650=PLANE('',#746);
#651=PLANE('',#751);
#652=PLANE('',#752);
#653=PLANE('',#753);
#654=PLANE('',#754);
#655=PLANE('',#755);
#656=PLANE('',#756);
#657=PLANE('',#757);
#658=PLANE('',#758);
#659=PLANE('',#759);
#660=ADVANCED_FACE('',(#590),#636,.T.);
#661=ADVANCED_FACE('',(#591),#637,.F.);
#662=ADVANCED_FACE('',(#592),#638,.T.);
#663=ADVANCED_FACE('',(#593),#639,.F.);
#664=ADVANCED_FACE('',(#594),#640,.F.);
#665=ADVANCED_FACE('',(#595),#19,.F.);
#666=ADVANCED_FACE('',(#596),#641,.F.);
#667=ADVANCED_FACE('',(#597),#20,.F.);
#668=ADVANCED_FACE('',(#598),#21,.T.);
#669=ADVANCED_FACE('',(#599),#642,.T.);
#670=ADVANCED_FACE('',(#600),#22,.T.);
#671=ADVANCED_FACE('',(#601),#643,.F.);
#672=ADVANCED_FACE('',(#602,#603),#644,.F.);
#673=ADVANCED_FACE('',(#604,#605),#23,.T.);
#674=ADVANCED_FACE('',(#606),#645,.F.);
#675=ADVANCED_FACE('',(#607,#608),#646,.T.);
#676=ADVANCED_FACE('',(#609),#647,.T.);
#677=ADVANCED_FACE('',(#610,#611),#14,.T.);
#678=ADVANCED_FACE('',(#612,#613),#15,.T.);
#679=ADVANCED_FACE('',(#614),#16,.F.);
#680=ADVANCED_FACE('',(#615),#12,.T.);
#681=ADVANCED_FACE('',(#616),#13,.T.);
#682=ADVANCED_FACE('',(#617),#17,.F.);
#683=ADVANCED_FACE('',(#618,#619),#18,.T.);
#684=ADVANCED_FACE('',(#620),#648,.T.);
#685=ADVANCED_FACE('',(#621),#24,.F.);
#686=ADVANCED_FACE('',(#622),#25,.F.);
#687=ADVANCED_FACE('',(#623),#649,.T.);
#688=ADVANCED_FACE('',(#624),#650,.F.);
#689=ADVANCED_FACE('',(#625),#26,.F.);
#690=ADVANCED_FACE('',(#626),#27,.F.);
#691=ADVANCED_FACE('',(#627),#651,.T.);
#692=ADVANCED_FACE('',(#628),#652,.F.);
#693=ADVANCED_FACE('',(#629),#653,.F.);
#694=ADVANCED_FACE('',(#630),#654,.F.);
#695=ADVANCED_FACE('',(#631),#655,.F.);
#696=ADVANCED_FACE('',(#632),#656,.F.);
#697=ADVANCED_FACE('',(#633),#657,.F.);
#698=ADVANCED_FACE('',(#634),#658,.F.);
#699=ADVANCED_FACE('',(#635),#659,.F.);
#700=CLOSED_SHELL('',(#660,#661,#662,#663,#664,#665,#666,#667,#668,#669,
#670,#671,#672,#673,#674,#675,#676,#677,#678,#679,#680,#681,#682,#683,#684,
#685,#686,#687,#688,#689,#690,#691,#692,#693,#694,#695,#696,#697,#698,#699));
#701=STYLED_ITEM('',(#702),#709);
#702=PRESENTATION_STYLE_ASSIGNMENT((#703));
#703=SURFACE_STYLE_USAGE(.BOTH.,#704);
#704=SURFACE_SIDE_STYLE('',(#705));
#705=SURFACE_STYLE_FILL_AREA(#706);
#706=FILL_AREA_STYLE('',(#707));
#707=FILL_AREA_STYLE_COLOUR('',#708);
#708=COLOUR_RGB('',0.615686274509804,0.811764705882353,0.929411764705882);
#709=MANIFOLD_SOLID_BREP('JoystickHandle',#700);
#710=SHAPE_DEFINITION_REPRESENTATION(#1553,#711);
#711=SHAPE_REPRESENTATION('JoystickHandle',(#712),#1548);
#712=AXIS2_PLACEMENT_3D('',#914,#760,#761);
#713=AXIS2_PLACEMENT_3D('',#915,#762,#763);
#714=AXIS2_PLACEMENT_3D('',#927,#767,#768);
#715=AXIS2_PLACEMENT_3D('',#939,#772,#773);
#716=AXIS2_PLACEMENT_3D('',#956,#782,#783);
#717=AXIS2_PLACEMENT_3D('',#962,#786,#787);
#718=AXIS2_PLACEMENT_3D('',#965,#789,#790);
#719=AXIS2_PLACEMENT_3D('',#971,#793,#794);
#720=AXIS2_PLACEMENT_3D('',#977,#797,#798);
#721=AXIS2_PLACEMENT_3D('',#978,#799,#800);
#722=AXIS2_PLACEMENT_3D('',#979,#801,#802);
#723=AXIS2_PLACEMENT_3D('',#983,#804,#805);
#724=AXIS2_PLACEMENT_3D('',#986,#807,#808);
#725=AXIS2_PLACEMENT_3D('',#992,#811,#812);
#726=AXIS2_PLACEMENT_3D('',#994,#814,#815);
#727=AXIS2_PLACEMENT_3D('',#997,#817,#818);
#728=AXIS2_PLACEMENT_3D('',#998,#819,#820);
#729=AXIS2_PLACEMENT_3D('',#1007,#826,#827);
#730=AXIS2_PLACEMENT_3D('',#1008,#828,#829);
#731=AXIS2_PLACEMENT_3D('',#1009,#830,#831);
#732=AXIS2_PLACEMENT_3D('',#1019,#834,#835);
#733=AXIS2_PLACEMENT_3D('',#1026,#837,#838);
#734=AXIS2_PLACEMENT_3D('',#1032,#839,#840);
#735=AXIS2_PLACEMENT_3D('',#1039,#842,#843);
#736=AXIS2_PLACEMENT_3D('',#1086,#844,#845);
#737=AXIS2_PLACEMENT_3D('',#1111,#846,#847);
#738=AXIS2_PLACEMENT_3D('',#1112,#848,#849);
#739=AXIS2_PLACEMENT_3D('',#1146,#850,#851);
#740=AXIS2_PLACEMENT_3D('',#1493,#852,#853);
#741=AXIS2_PLACEMENT_3D('',#1499,#857,#858);
#742=AXIS2_PLACEMENT_3D('',#1502,#860,#861);
#743=AXIS2_PLACEMENT_3D('',#1505,#863,#864);
#744=AXIS2_PLACEMENT_3D('',#1506,#865,#866);
#745=AXIS2_PLACEMENT_3D('',#1511,#869,#870);
#746=AXIS2_PLACEMENT_3D('',#1516,#875,#876);
#747=AXIS2_PLACEMENT_3D('',#1522,#880,#881);
#748=AXIS2_PLACEMENT_3D('',#1523,#882,#883);
#749=AXIS2_PLACEMENT_3D('',#1528,#886,#887);
#750=AXIS2_PLACEMENT_3D('',#1531,#889,#890);
#751=AXIS2_PLACEMENT_3D('',#1534,#892,#893);
#752=AXIS2_PLACEMENT_3D('',#1539,#898,#899);
#753=AXIS2_PLACEMENT_3D('',#1540,#900,#901);
#754=AXIS2_PLACEMENT_3D('',#1541,#902,#903);
#755=AXIS2_PLACEMENT_3D('',#1542,#904,#905);
#756=AXIS2_PLACEMENT_3D('',#1543,#906,#907);
#757=AXIS2_PLACEMENT_3D('',#1544,#908,#909);
#758=AXIS2_PLACEMENT_3D('',#1545,#910,#911);
#759=AXIS2_PLACEMENT_3D('',#1546,#912,#913);
#760=DIRECTION('',(0.,0.,1.));
#761=DIRECTION('',(1.,0.,0.));
#762=DIRECTION('',(0.,-1.,0.));
#763=DIRECTION('',(0.,0.,-1.));
#764=DIRECTION('',(0.,0.,-1.));
#765=DIRECTION('',(-1.,0.,0.));
#766=DIRECTION('',(0.,0.,-1.));
#767=DIRECTION('',(0.,-1.,0.));
#768=DIRECTION('',(0.,0.,-1.));
#769=DIRECTION('',(-1.,0.,0.));
#770=DIRECTION('',(0.,0.,1.));
#771=DIRECTION('',(0.,0.,-1.));
#772=DIRECTION('',(1.50988298214681E-16,-1.,0.));
#773=DIRECTION('',(1.,1.50988298214681E-16,0.));
#774=DIRECTION('',(-1.,-1.50988298214681E-16,0.));
#775=DIRECTION('',(0.,0.,1.));
#776=DIRECTION('',(-1.,-1.50988298214681E-16,0.));
#777=DIRECTION('',(0.,0.,-1.));
#778=DIRECTION('',(-1.,-1.50988298214681E-16,0.));
#779=DIRECTION('',(0.,0.,-1.));
#780=DIRECTION('',(-1.,-1.50988298214681E-16,0.));
#781=DIRECTION('',(0.,0.,-1.));
#782=DIRECTION('',(0.,0.,1.));
#783=DIRECTION('',(1.,0.,0.));
#784=DIRECTION('',(-1.,0.,0.));
#785=DIRECTION('',(-0.28090809416674,0.959734673038132,0.));
#786=DIRECTION('',(0.,0.,1.));
#787=DIRECTION('',(-1.,0.,0.));
#788=DIRECTION('',(0.754158822235521,0.656692066987513,0.));
#789=DIRECTION('',(0.,0.,1.));
#790=DIRECTION('',(1.,0.,0.));
#791=DIRECTION('',(-1.,0.,0.));
#792=DIRECTION('',(-0.754158822235521,0.656692066987513,0.));
#793=DIRECTION('',(0.,0.,-1.));
#794=DIRECTION('',(-1.,0.,0.));
#795=DIRECTION('',(0.28090809416674,0.959734673038132,0.));
#796=DIRECTION('',(-1.,0.,0.));
#797=DIRECTION('',(0.,0.,1.));
#798=DIRECTION('',(1.,0.,0.));
#799=DIRECTION('',(0.,0.,1.));
#800=DIRECTION('',(1.,0.,0.));
#801=DIRECTION('',(0.,0.,1.));
#802=DIRECTION('',(-1.,0.,0.));
#803=DIRECTION('',(-0.28090809416674,-0.959734673038132,0.));
#804=DIRECTION('',(0.,0.,1.));
#805=DIRECTION('',(1.,0.,0.));
#806=DIRECTION('',(0.28090809416674,-0.959734673038132,0.));
#807=DIRECTION('',(0.,0.,-1.));
#808=DIRECTION('',(-1.,0.,0.));
#809=DIRECTION('',(-0.754158822235521,-0.656692066987513,0.));
#810=DIRECTION('',(-1.,0.,0.));
#811=DIRECTION('',(0.,0.,1.));
#812=DIRECTION('',(1.,0.,0.));
#813=DIRECTION('',(0.754158822235521,-0.656692066987513,0.));
#814=DIRECTION('',(0.,0.,-1.));
#815=DIRECTION('',(-1.,0.,0.));
#816=DIRECTION('',(0.,0.,-1.));
#817=DIRECTION('',(0.,0.,1.));
#818=DIRECTION('',(1.,0.,0.));
#819=DIRECTION('',(0.,-1.,0.));
#820=DIRECTION('',(0.,0.,-1.));
#821=DIRECTION('',(-1.,0.,0.));
#822=DIRECTION('',(0.,0.,-1.));
#823=DIRECTION('',(0.,0.,-1.));
#824=DIRECTION('',(-1.,0.,0.));
#825=DIRECTION('',(0.,0.,1.));
#826=DIRECTION('',(0.,0.,-1.));
#827=DIRECTION('',(-1.,0.,0.));
#828=DIRECTION('',(0.,0.,1.));
#829=DIRECTION('',(1.,0.,0.));
#830=DIRECTION('',(0.,0.,-1.));
#831=DIRECTION('',(-1.,0.,0.));
#832=DIRECTION('',(0.,0.,-1.));
#833=DIRECTION('',(0.,0.,-1.));
#834=DIRECTION('',(0.,-1.,0.));
#835=DIRECTION('',(0.,0.,-1.));
#836=DIRECTION('',(0.,0.,1.));
#837=DIRECTION('',(0.,0.,-1.));
#838=DIRECTION('',(-1.,0.,0.));
#839=DIRECTION('',(0.,-1.,0.));
#840=DIRECTION('',(0.,0.,-1.));
#841=DIRECTION('',(0.,0.,-1.));
#842=DIRECTION('',(0.,0.,1.));
#843=DIRECTION('',(1.,0.,0.));
#844=DIRECTION('',(0.,0.,-1.));
#845=DIRECTION('',(-1.,0.,0.));
#846=DIRECTION('',(0.,0.,1.));
#847=DIRECTION('',(1.,0.,0.));
#848=DIRECTION('',(0.,0.,1.));
#849=DIRECTION('',(1.,0.,0.));
#850=DIRECTION('',(0.,0.,1.));
#851=DIRECTION('',(1.,0.,0.));
#852=DIRECTION('',(0.,-1.,0.));
#853=DIRECTION('',(0.,0.,-1.));
#854=DIRECTION('',(0.,0.,-1.));
#855=DIRECTION('',(-1.,0.,0.));
#856=DIRECTION('',(0.,0.,1.));
#857=DIRECTION('',(0.,0.,-1.));
#858=DIRECTION('',(-1.,0.,0.));
#859=DIRECTION('',(0.,0.,-1.));
#860=DIRECTION('',(0.,0.,1.));
#861=DIRECTION('',(-1.,0.,0.));
#862=DIRECTION('',(0.,0.,-1.));
#863=DIRECTION('',(0.,0.,-1.));
#864=DIRECTION('',(-1.,0.,0.));
#865=DIRECTION('',(0.,0.,1.));
#866=DIRECTION('',(-1.,0.,0.));
#867=DIRECTION('',(0.,0.,-1.));
#868=DIRECTION('',(0.,0.,-1.));
#869=DIRECTION('',(0.,0.,-1.));
#870=DIRECTION('',(1.,0.,0.));
#871=DIRECTION('',(0.28090809416674,-0.959734673038132,0.));
#872=DIRECTION('',(0.28090809416674,0.959734673038132,0.));
#873=DIRECTION('',(-0.754158822235521,0.656692066987513,0.));
#874=DIRECTION('',(-0.754158822235521,-0.656692066987513,0.));
#875=DIRECTION('',(0.,-1.,0.));
#876=DIRECTION('',(0.,0.,-1.));
#877=DIRECTION('',(0.,0.,-1.));
#878=DIRECTION('',(-1.,0.,0.));
#879=DIRECTION('',(0.,0.,1.));
#880=DIRECTION('',(0.,0.,-1.));
#881=DIRECTION('',(-1.,0.,0.));
#882=DIRECTION('',(0.,0.,-1.));
#883=DIRECTION('',(-1.,0.,0.));
#884=DIRECTION('',(0.,0.,-1.));
#885=DIRECTION('',(0.,0.,-1.));
#886=DIRECTION('',(0.,0.,-1.));
#887=DIRECTION('',(-1.,0.,0.));
#888=DIRECTION('',(0.,0.,-1.));
#889=DIRECTION('',(0.,0.,-1.));
#890=DIRECTION('',(-1.,0.,0.));
#891=DIRECTION('',(0.,0.,-1.));
#892=DIRECTION('',(0.,0.,-1.));
#893=DIRECTION('',(1.,0.,0.));
#894=DIRECTION('',(-0.28090809416674,-0.959734673038132,0.));
#895=DIRECTION('',(0.754158822235521,-0.656692066987513,0.));
#896=DIRECTION('',(0.754158822235521,0.656692066987513,0.));
#897=DIRECTION('',(-0.28090809416674,0.959734673038132,0.));
#898=DIRECTION('',(-0.959734673038132,-0.28090809416674,0.));
#899=DIRECTION('',(0.,0.,-1.));
#900=DIRECTION('',(0.959734673038132,-0.28090809416674,0.));
#901=DIRECTION('',(0.,0.,-1.));
#902=DIRECTION('',(-0.959734673038132,0.28090809416674,0.));
#903=DIRECTION('',(0.,0.,-1.));
#904=DIRECTION('',(0.959734673038132,0.28090809416674,0.));
#905=DIRECTION('',(0.,0.,-1.));
#906=DIRECTION('',(-0.656692066987513,0.754158822235521,0.));
#907=DIRECTION('',(0.,0.,-1.));
#908=DIRECTION('',(0.656692066987513,0.754158822235521,0.));
#909=DIRECTION('',(0.,0.,-1.));
#910=DIRECTION('',(-0.656692066987513,-0.754158822235521,0.));
#911=DIRECTION('',(0.,0.,-1.));
#912=DIRECTION('',(0.656692066987513,-0.754158822235521,0.));
#913=DIRECTION('',(0.,0.,-1.));
#914=CARTESIAN_POINT('',(0.,0.,0.));
#915=CARTESIAN_POINT('',(0.,-0.00259082136260189,0.006));
#916=CARTESIAN_POINT('',(0.00242677468899278,-0.00259082136260189,0.0046));
#917=CARTESIAN_POINT('',(0.00186993320271467,-0.00259082136260189,0.0046));
#918=CARTESIAN_POINT('',(0.00131309171643655,-0.00259082136260189,0.0046));
#919=CARTESIAN_POINT('',(0.00075625023015843,-0.00259082136260189,0.0046));
#920=CARTESIAN_POINT('',(0.00242677468899278,-0.00259082136260189,0.0046));
#921=CARTESIAN_POINT('',(0.000756250230158429,-0.00259082136260189,0.0046));
#922=CARTESIAN_POINT('',(0.000756250230159263,-0.00259082136260189,0.));
#923=CARTESIAN_POINT('',(0.000756250230159263,-0.00259082136260189,0.));
#924=CARTESIAN_POINT('',(0.,-0.00259082136260189,0.));
#925=CARTESIAN_POINT('',(0.0024269620242364,-0.00259082136260189,0.));
#926=CARTESIAN_POINT('',(0.0024269620242364,-0.00259082136260189,0.006));
#927=CARTESIAN_POINT('',(0.,0.00259082136260189,0.006));
#928=CARTESIAN_POINT('',(0.,0.00259082136260189,0.));
#929=CARTESIAN_POINT('',(0.0024269620242364,0.00259082136260189,0.));
#930=CARTESIAN_POINT('',(0.000756250230159263,0.00259082136260189,0.));
#931=CARTESIAN_POINT('',(0.000756250230159263,0.00259082136260189,0.0046));
#932=CARTESIAN_POINT('',(0.000756250230159265,0.00259082136260189,0.0046));
#933=CARTESIAN_POINT('',(0.000756250230159265,0.00259082136260189,0.0046));
#934=CARTESIAN_POINT('',(0.00131309171643711,0.00259082136260189,0.0046));
#935=CARTESIAN_POINT('',(0.00186993320271494,0.00259082136260189,0.0046));
#936=CARTESIAN_POINT('',(0.00242677468899278,0.00259082136260189,0.0046));
#937=CARTESIAN_POINT('',(0.00242677468899278,0.00259082136260189,0.0046));
#938=CARTESIAN_POINT('',(0.0024269620242364,0.00259082136260189,0.006));
#939=CARTESIAN_POINT('',(0.,0.0016,0.006));
#940=CARTESIAN_POINT('',(0.,0.0016,0.));
#941=CARTESIAN_POINT('',(-0.00139082136260189,0.0016,0.));
#942=CARTESIAN_POINT('',(-0.00143614066163451,0.0016,0.));
#943=CARTESIAN_POINT('',(-0.00139082136260189,0.0016,0.006));
#944=CARTESIAN_POINT('',(-0.00139082136260189,0.0016,0.005));
#945=CARTESIAN_POINT('',(0.,0.0016,0.005));
#946=CARTESIAN_POINT('',(0.0013908213626019,0.0016,0.005));
#947=CARTESIAN_POINT('',(0.0013908213626019,0.0016,0.006));
#948=CARTESIAN_POINT('',(0.0013908213626019,0.0016,0.));
#949=CARTESIAN_POINT('',(0.,0.0016,0.));
#950=CARTESIAN_POINT('',(0.00143614066163451,0.0016,0.));
#951=CARTESIAN_POINT('',(0.00143614066163451,0.0016,0.006));
#952=CARTESIAN_POINT('',(0.00143614066163451,0.0016,0.008));
#953=CARTESIAN_POINT('',(0.,0.0016,0.008));
#954=CARTESIAN_POINT('',(-0.00143614066163451,0.0016,0.008));
#955=CARTESIAN_POINT('',(-0.00143614066163451,0.0016,0.006));
#956=CARTESIAN_POINT('',(0.,0.,0.));
#957=CARTESIAN_POINT('',(0.,0.00259082136260189,0.));
#958=CARTESIAN_POINT('',(-0.000756250230159261,0.00259082136260189,0.));
#959=CARTESIAN_POINT('',(-0.0024269620242364,0.00259082136260189,0.));
#960=CARTESIAN_POINT('',(-0.000756250230159261,0.00259082136260189,0.));
#961=CARTESIAN_POINT('',(-0.000708904615738228,0.00242906301985657,0.));
#962=CARTESIAN_POINT('',(6.50521303491303E-19,0.0016,0.));
#963=CARTESIAN_POINT('',(-0.00104956804510849,0.00189715006948643,0.));
#964=CARTESIAN_POINT('',(-0.00104956804510849,0.00189715006948643,0.));
#965=CARTESIAN_POINT('',(0.,3.25260651745652E-19,0.));
#966=CARTESIAN_POINT('',(-0.00143614066163451,-0.0016,0.));
#967=CARTESIAN_POINT('',(0.,-0.0016,0.));
#968=CARTESIAN_POINT('',(-0.00139082136260189,-0.0016,0.));
#969=CARTESIAN_POINT('',(-0.00139082136260189,-0.0016,0.));
#970=CARTESIAN_POINT('',(-0.00104956804510849,-0.00189715006948643,0.));
#971=CARTESIAN_POINT('',(6.50521303491303E-19,-0.0016,0.));
#972=CARTESIAN_POINT('',(-0.000708904615738228,-0.00242906301985657,0.));
#973=CARTESIAN_POINT('',(-0.000708904615738228,-0.00242906301985657,0.));
#974=CARTESIAN_POINT('',(-0.000756250230159261,-0.00259082136260189,0.));
#975=CARTESIAN_POINT('',(0.,-0.00259082136260189,0.));
#976=CARTESIAN_POINT('',(-0.0024269620242364,-0.00259082136260189,0.));
#977=CARTESIAN_POINT('',(6.50521303491303E-19,-2.16840434497101E-19,0.));
#978=CARTESIAN_POINT('',(0.,0.,0.));
#979=CARTESIAN_POINT('',(6.50521303491303E-19,0.0016,0.));
#980=CARTESIAN_POINT('',(0.0010495680451085,0.00189715006948643,0.));
#981=CARTESIAN_POINT('',(0.000708904615738229,0.00242906301985657,0.));
#982=CARTESIAN_POINT('',(0.000708904615738229,0.00242906301985657,0.));
#983=CARTESIAN_POINT('',(4.33680868994202E-19,-6.50521303491303E-19,0.));
#984=CARTESIAN_POINT('',(0.000756250230159263,-0.00259082136260189,0.));
#985=CARTESIAN_POINT('',(0.000708904615738229,-0.00242906301985657,0.));
#986=CARTESIAN_POINT('',(6.50521303491303E-19,-0.0016,0.));
#987=CARTESIAN_POINT('',(0.0010495680451085,-0.00189715006948643,0.));
#988=CARTESIAN_POINT('',(0.0010495680451085,-0.00189715006948643,0.));
#989=CARTESIAN_POINT('',(0.0013908213626019,-0.0016,0.));
#990=CARTESIAN_POINT('',(0.,-0.0016,0.));
#991=CARTESIAN_POINT('',(0.00143614066163451,-0.0016,0.));
#992=CARTESIAN_POINT('',(0.,0.,0.));
#993=CARTESIAN_POINT('',(0.0013908213626019,0.0016,0.));
#994=CARTESIAN_POINT('',(0.,0.,0.006));
#995=CARTESIAN_POINT('',(0.00143614066163451,-0.0016,0.006));
#996=CARTESIAN_POINT('',(0.00143614066163451,-0.0016,0.008));
#997=CARTESIAN_POINT('',(0.,0.,0.008));
#998=CARTESIAN_POINT('',(0.,-0.0016,0.006));
#999=CARTESIAN_POINT('',(0.,-0.0016,0.005));
#1000=CARTESIAN_POINT('',(0.0013908213626019,-0.0016,0.005));
#1001=CARTESIAN_POINT('',(-0.00139082136260189,-0.0016,0.005));
#1002=CARTESIAN_POINT('',(-0.00139082136260189,-0.0016,0.006));
#1003=CARTESIAN_POINT('',(-0.00143614066163451,-0.0016,0.006));
#1004=CARTESIAN_POINT('',(-0.00143614066163451,-0.0016,0.008));
#1005=CARTESIAN_POINT('',(0.,-0.0016,0.008));
#1006=CARTESIAN_POINT('',(0.0013908213626019,-0.0016,0.006));
#1007=CARTESIAN_POINT('',(0.,3.25260651745652E-19,0.006));
#1008=CARTESIAN_POINT('',(0.,3.25260651745652E-19,0.008));
#1009=CARTESIAN_POINT('',(6.50521303491303E-19,-2.16840434497101E-19,0.006));
#1010=CARTESIAN_POINT('',(-0.0024269620242364,-0.00259082136260189,0.006));
#1011=CARTESIAN_POINT('',(-0.00242687432200535,-0.00259072788872535,0.0046));
#1012=CARTESIAN_POINT('',(-0.00242696194955368,-0.00259082143256123,0.0046));
#1013=CARTESIAN_POINT('',(-0.00313342912326871,-0.00192903558824693,0.0046));
#1014=CARTESIAN_POINT('',(-0.00396657084892821,-5.7169966243692E-11,0.0046));
#1015=CARTESIAN_POINT('',(-0.00313342917887487,0.00192903549792305,0.0046));
#1016=CARTESIAN_POINT('',(-0.0024269620242364,0.0025908213626019,0.0046));
#1017=CARTESIAN_POINT('',(-0.0024269620242364,0.00259082136260189,0.0046));
#1018=CARTESIAN_POINT('',(-0.0024269620242364,0.00259082136260189,0.006));
#1019=CARTESIAN_POINT('',(0.,-0.00259082136260189,0.006));
#1020=CARTESIAN_POINT('',(-0.000756250230159261,-0.00259082136260189,0.0046));
#1021=CARTESIAN_POINT('',(-0.000756250230159262,-0.00259082136260189,0.0046));
#1022=CARTESIAN_POINT('',(-0.000756250230159262,-0.00259082136260189,0.0046));
#1023=CARTESIAN_POINT('',(-0.00131312492744129,-0.00259082136260189,0.0046));
#1024=CARTESIAN_POINT('',(-0.00186999962472332,-0.00259082136260189,0.0046));
#1025=CARTESIAN_POINT('',(-0.00242687432200535,-0.00259082136260189,0.0046));
#1026=CARTESIAN_POINT('',(4.33680868994202E-19,-6.50521303491303E-19,0.006));
#1027=CARTESIAN_POINT('',(0.00242696187486752,0.00259082150252377,0.0046));
#1028=CARTESIAN_POINT('',(0.0031334291050025,0.00192903564359421,0.0046));
#1029=CARTESIAN_POINT('',(0.0039665708949975,4.44522890719057E-18,0.0046));
#1030=CARTESIAN_POINT('',(0.00313342910500251,-0.00192903564359421,0.0046));
#1031=CARTESIAN_POINT('',(0.00242696187486753,-0.00259082150252377,0.0046));
#1032=CARTESIAN_POINT('',(0.,0.00259082136260189,0.006));
#1033=CARTESIAN_POINT('',(-0.00242696202423603,0.00259082136260189,0.0046));
#1034=CARTESIAN_POINT('',(-0.00187005809287683,0.00259082136260189,0.0046));
#1035=CARTESIAN_POINT('',(-0.00131315416151763,0.00259082136260189,0.0046));
#1036=CARTESIAN_POINT('',(-0.000756250230158426,0.00259082136260189,0.0046));
#1037=CARTESIAN_POINT('',(-0.000756250230158426,0.00259082136260189,0.0046));
#1038=CARTESIAN_POINT('',(-0.000756250230159261,0.00259082136260189,0.));
#1039=CARTESIAN_POINT('',(0.,0.,0.006));
#1040=CARTESIAN_POINT('',(0.00292845434517938,-0.00399082136260195,0.006));
#1041=CARTESIAN_POINT('',(0.00356365623595241,-0.00352471186581175,0.006));
#1042=CARTESIAN_POINT('',(0.00457473073372976,-0.00232393205741655,0.006));
#1043=CARTESIAN_POINT('',(0.00513767987189198,-3.87153212278965E-8,0.006));
#1044=CARTESIAN_POINT('',(0.00457454977870232,0.00232408698379574,0.006));
#1045=CARTESIAN_POINT('',(0.00356407842512992,0.00352440206878086,0.006));
#1046=CARTESIAN_POINT('',(0.00292845432768579,0.00399082137543869,0.006));
#1047=CARTESIAN_POINT('',(0.0029284543451794,-0.00399082136260189,0.006));
#1048=CARTESIAN_POINT('',(0.00292845432768579,0.00399082137543869,0.006));
#1049=CARTESIAN_POINT('',(0.00292845431826622,0.00399082136260189,0.006));
#1050=CARTESIAN_POINT('',(0.000976151430451038,0.00399082136260189,0.006));
#1051=CARTESIAN_POINT('',(-0.000976151457364138,0.00399082136260189,0.006));
#1052=CARTESIAN_POINT('',(-0.00292845434517931,0.00399082136260189,0.006));
#1053=CARTESIAN_POINT('',(-0.00292845434517937,0.00399082136260195,0.006));
#1054=CARTESIAN_POINT('',(-0.00292845434517937,0.00399082136260195,0.006));
#1055=CARTESIAN_POINT('',(-0.00356365623595386,0.00352471186581116,0.006));
#1056=CARTESIAN_POINT('',(-0.00457473073372903,0.00232393205741678,0.006));
#1057=CARTESIAN_POINT('',(-0.00513767987189232,3.87153213398112E-8,0.006));
#1058=CARTESIAN_POINT('',(-0.00457454977870171,-0.0023240869837964,0.006));
#1059=CARTESIAN_POINT('',(-0.00356407842513111,-0.00352440206877939,0.006));
#1060=CARTESIAN_POINT('',(-0.00292845432768579,-0.00399082137543869,0.006));
#1061=CARTESIAN_POINT('',(-0.00292845432768579,-0.00399082137543869,0.006));
#1062=CARTESIAN_POINT('',(-0.00292845431826622,-0.00399082136260189,0.006));
#1063=CARTESIAN_POINT('',(-0.00097615143045101,-0.00399082136260189,0.006));
#1064=CARTESIAN_POINT('',(0.000976151457364195,-0.00399082136260189,0.006));
#1065=CARTESIAN_POINT('',(0.0029284543451794,-0.00399082136260189,0.006));
#1066=CARTESIAN_POINT('',(0.00622759087548691,0.00268444928272864,0.006));
#1067=CARTESIAN_POINT('',(0.00677180969525628,8.76507860872638E-5,0.006));
#1068=CARTESIAN_POINT('',(0.00628309575532659,-0.00250097113665608,0.006));
#1069=CARTESIAN_POINT('',(0.0048855598096334,-0.00468885147808587,0.006));
#1070=CARTESIAN_POINT('',(0.00272158399556125,-0.0062008203070276,0.006));
#1071=CARTESIAN_POINT('',(0.000141579449049408,-0.00677039236476062,0.006));
#1072=CARTESIAN_POINT('',(-0.00246010980827698,-0.00630919479455693,0.006));
#1073=CARTESIAN_POINT('',(-0.00468726922584473,-0.00488749701948887,0.006));
#1074=CARTESIAN_POINT('',(-0.00620083623167544,-0.00272171707683981,0.006));
#1075=CARTESIAN_POINT('',(-0.00677038174154383,-0.000141581789477712,0.006));
#1076=CARTESIAN_POINT('',(-0.00630919800621885,0.00246010880613834,0.006));
#1077=CARTESIAN_POINT('',(-0.00488749646198418,0.00468726850161588,0.006));
#1078=CARTESIAN_POINT('',(-0.00272171630748928,0.00620083983586672,0.006));
#1079=CARTESIAN_POINT('',(-0.000141585439833311,0.00677036803944861,0.006));
#1080=CARTESIAN_POINT('',(0.00246012263731247,0.00630924921026201,0.006));
#1081=CARTESIAN_POINT('',(0.00468721682722805,0.00488730534791763,0.006));
#1082=CARTESIAN_POINT('',(0.00622759087548691,0.00268444928272864,0.006));
#1083=CARTESIAN_POINT('',(0.00677180969525628,8.76507860872638E-5,0.006));
#1084=CARTESIAN_POINT('',(0.00628309575532659,-0.00250097113665608,0.006));
#1085=CARTESIAN_POINT('',(0.0066,1.95575272841447E-19,0.006));
#1086=CARTESIAN_POINT('',(1.7347234759768E-18,1.95575272841447E-19,0.008));
#1087=CARTESIAN_POINT('',(0.0062688929991298,0.0062688929991298,0.0076));
#1088=CARTESIAN_POINT('',(0.00886555350043511,-2.29850860566927E-17,0.0076));
#1089=CARTESIAN_POINT('',(0.00626889299912979,-0.0062688929991298,0.0076));
#1090=CARTESIAN_POINT('',(-1.44198888940572E-17,-0.0088655535004351,0.0076));
#1091=CARTESIAN_POINT('',(-0.0062688929991298,-0.00626889299912979,0.0076));
#1092=CARTESIAN_POINT('',(-0.0088655535004351,6.07661436360235E-18,0.0076));
#1093=CARTESIAN_POINT('',(-0.00626889299912979,0.0062688929991298,0.0076));
#1094=CARTESIAN_POINT('',(6.72205346941013E-18,0.0088655535004351,0.0076));
#1095=CARTESIAN_POINT('',(0.0062688929991298,0.0062688929991298,0.0076));
#1096=CARTESIAN_POINT('',(0.00886555350043511,-2.29850860566927E-17,0.0076));
#1097=CARTESIAN_POINT('',(0.00626889299912979,-0.0062688929991298,0.0076));
#1098=CARTESIAN_POINT('',(0.008,1.17529271215933E-18,0.0076));
#1099=CARTESIAN_POINT('',(0.0062688929991298,-0.00626889299912978,0.0074));
#1100=CARTESIAN_POINT('',(0.0088655535004351,-2.87313575708659E-17,0.0074));
#1101=CARTESIAN_POINT('',(0.0062688929991298,0.00626889299912979,0.0074));
#1102=CARTESIAN_POINT('',(1.53414607406699E-17,0.0088655535004351,0.0074));
#1103=CARTESIAN_POINT('',(-0.00626889299912979,0.0062688929991298,0.0074));
#1104=CARTESIAN_POINT('',(-0.0088655535004351,1.20278678510111E-19,0.0074));
#1105=CARTESIAN_POINT('',(-0.00626889299912979,-0.0062688929991298,0.0074));
#1106=CARTESIAN_POINT('',(1.53956708492942E-17,-0.00886555350043511,0.0074));
#1107=CARTESIAN_POINT('',(0.0062688929991298,-0.00626889299912978,0.0074));
#1108=CARTESIAN_POINT('',(0.0088655535004351,-2.87313575708659E-17,0.0074));
#1109=CARTESIAN_POINT('',(0.0062688929991298,0.00626889299912979,0.0074));
#1110=CARTESIAN_POINT('',(0.008,1.17529271215933E-18,0.0074));
#1111=CARTESIAN_POINT('',(0.,0.,0.008));
#1112=CARTESIAN_POINT('',(0.,0.,0.009));
#1113=CARTESIAN_POINT('',(-0.00594162516139806,-0.00247151533374202,0.009));
#1114=CARTESIAN_POINT('',(-0.00660876947126561,0.000826742235572864,0.009));
#1115=CARTESIAN_POINT('',(-0.00491274974764143,0.00491689654854853,0.00899999999999999));
#1116=CARTESIAN_POINT('',(-3.50175528886313E-6,0.00695210767611054,0.00900000000000001));
#1117=CARTESIAN_POINT('',(0.00491864882462971,0.00491459218112147,0.00899999999999999));
#1118=CARTESIAN_POINT('',(0.00694988163506012,-5.66942668898833E-7,0.009));
#1119=CARTESIAN_POINT('',(0.00492174486368266,-0.00490973986949221,0.009));
#1120=CARTESIAN_POINT('',(-1.69173642773667E-7,-0.00695465027181672,0.00899999999999998));
#1121=CARTESIAN_POINT('',(-0.00408754117364239,-0.00525208829145935,0.009));
#1122=CARTESIAN_POINT('',(-0.00594162516139806,-0.00247151533374202,0.009));
#1123=CARTESIAN_POINT('',(-0.00660876947126561,0.000826742235572864,0.009));
#1124=CARTESIAN_POINT('',(-0.00491274974764143,0.00491689654854853,0.00899999999999999));
#1125=CARTESIAN_POINT('',(-0.00627332005306815,-3.85988774898462E-16,0.009));
#1126=CARTESIAN_POINT('',(0.006227590875487,-0.00268444928272908,0.009));
#1127=CARTESIAN_POINT('',(0.00677180969525627,-8.76507860871233E-5,0.009));
#1128=CARTESIAN_POINT('',(0.00628309575532656,0.00250097113665593,0.009));
#1129=CARTESIAN_POINT('',(0.00488555980963356,0.00468885147808577,0.009));
#1130=CARTESIAN_POINT('',(0.00272158399556116,0.00620082030702767,0.009));
#1131=CARTESIAN_POINT('',(0.000141579449049599,0.00677039236476043,0.009));
#1132=CARTESIAN_POINT('',(-0.00246010980827667,0.00630919479455714,0.009));
#1133=CARTESIAN_POINT('',(-0.0046872692258454,0.00488749701948866,0.009));
#1134=CARTESIAN_POINT('',(-0.00620083623167574,0.00272171707683912,0.009));
#1135=CARTESIAN_POINT('',(-0.00677038174154372,0.000141581789477604,0.009));
#1136=CARTESIAN_POINT('',(-0.00630919800621898,-0.00246010880613832,0.009));
#1137=CARTESIAN_POINT('',(-0.00488749646198378,-0.00468726850161688,0.009));
#1138=CARTESIAN_POINT('',(-0.0027217163074886,-0.00620083983586679,0.009));
#1139=CARTESIAN_POINT('',(-0.0001415854398332,-0.00677036803944877,0.009));
#1140=CARTESIAN_POINT('',(0.00246012263731268,-0.00630924921026176,0.009));
#1141=CARTESIAN_POINT('',(0.00468721682722718,-0.00488730534791804,0.009));
#1142=CARTESIAN_POINT('',(0.006227590875487,-0.00268444928272908,0.009));
#1143=CARTESIAN_POINT('',(0.00677180969525627,-8.76507860871233E-5,0.009));
#1144=CARTESIAN_POINT('',(0.00628309575532656,0.00250097113665593,0.009));
#1145=CARTESIAN_POINT('',(0.0066,1.95575272841447E-19,0.009));
#1146=CARTESIAN_POINT('',(0.,0.,0.0085));
#1147=CARTESIAN_POINT('',(0.00481221774496181,-0.00207436857499045,0.0085));
#1148=CARTESIAN_POINT('',(0.00523276566262409,-6.77224015714998E-5,0.0085));
#1149=CARTESIAN_POINT('',(0.00485511577927976,0.00193255805223845,0.0085));
#1150=CARTESIAN_POINT('',(0.0037752170689058,0.00362318693513066,0.0085));
#1151=CARTESIAN_POINT('',(0.00210305634178259,0.00479153362757857,0.0085));
#1152=CARTESIAN_POINT('',(0.00010941976938738,0.00523166324681049,0.0085));
#1153=CARTESIAN_POINT('',(-0.00190097665113132,0.00487529036364865,0.0085));
#1154=CARTESIAN_POINT('',(-0.00362196606251383,0.0037767120450251,0.0085));
#1155=CARTESIAN_POINT('',(-0.00479154545314606,0.00210315970396871,0.0085));
#1156=CARTESIAN_POINT('',(-0.00523165516625025,0.000109421437497005,0.0085));
#1157=CARTESIAN_POINT('',(-0.00487529281163679,-0.00190097584134644,0.0085));
#1158=CARTESIAN_POINT('',(-0.00377671162092673,-0.00362196550406738,0.0085));
#1159=CARTESIAN_POINT('',(-0.00210315911641839,-0.00479154826886732,0.0085));
#1160=CARTESIAN_POINT('',(-0.000109424223733165,-0.00523164445442563,0.0085));
#1161=CARTESIAN_POINT('',(0.00190098639804794,-0.00487533284310122,0.0085));
#1162=CARTESIAN_POINT('',(0.00362192606345993,-0.00377656220690169,0.0085));
#1163=CARTESIAN_POINT('',(0.00481221774496181,-0.00207436857499045,0.0085));
#1164=CARTESIAN_POINT('',(0.00523276566262409,-6.77224015714998E-5,0.0085));
#1165=CARTESIAN_POINT('',(0.00485511577927976,0.00193255805223845,0.0085));
#1166=CARTESIAN_POINT('',(0.0051,6.09796154927363E-19,0.0085));
#1167=CARTESIAN_POINT('',(-0.00482493355666378,0.00199856722415217,0.00850000000000001));
#1168=CARTESIAN_POINT('',(-0.00522247329458728,4.82469966756049E-18,0.0085));
#1169=CARTESIAN_POINT('',(-0.00482493355666379,-0.00199856722415219,0.0085));
#1170=CARTESIAN_POINT('',(-0.00369283616428544,-0.0036928707054842,0.0085));
#1171=CARTESIAN_POINT('',(-0.00199853268295343,-0.00482496809786256,0.0085));
#1172=CARTESIAN_POINT('',(3.4541198751995E-8,-0.00522250783578608,0.0085));
#1173=CARTESIAN_POINT('',(0.00199860176535094,-0.00482496809786258,0.0085));
#1174=CARTESIAN_POINT('',(0.00369290524668296,-0.00369287070548423,0.0085));
#1175=CARTESIAN_POINT('',(0.00482500263906132,-0.00199856722415222,0.0085));
#1176=CARTESIAN_POINT('',(0.00522254237698483,-3.8183504108395E-17,0.0085));
#1177=CARTESIAN_POINT('',(0.00482500263906133,0.00199856722415215,0.0085));
#1178=CARTESIAN_POINT('',(0.00369290524668299,0.00369287070548417,0.0085));
#1179=CARTESIAN_POINT('',(0.00199860176535097,0.00482496809786253,0.0085));
#1180=CARTESIAN_POINT('',(3.45411987921173E-8,0.00522250783578604,0.0085));
#1181=CARTESIAN_POINT('',(-0.0019985326829534,0.00482496809786255,0.0085));
#1182=CARTESIAN_POINT('',(-0.00369283616428542,0.00369287070548419,0.0085));
#1183=CARTESIAN_POINT('',(-0.00482493355666378,0.00199856722415217,0.00850000000000001));
#1184=CARTESIAN_POINT('',(-0.00522247329458728,4.82469966756049E-18,0.0085));
#1185=CARTESIAN_POINT('',(-0.00482493355666379,-0.00199856722415219,0.0085));
#1186=CARTESIAN_POINT('',(-0.00535871305277115,0.00221966593075652,0.00849802099394092));
#1187=CARTESIAN_POINT('',(-0.00580023205784991,5.74627151417317E-18,0.00849802099394091));
#1188=CARTESIAN_POINT('',(-0.00535871305277116,-0.00221966593075654,0.00849802099394092));
#1189=CARTESIAN_POINT('',(-0.0041013733036784,-0.00410140784487716,0.00849802099394092));
#1190=CARTESIAN_POINT('',(-0.00221963138955778,-0.00535874759396993,0.00849802099394092));
#1191=CARTESIAN_POINT('',(3.45411987506194E-8,-0.0058002665990487,0.00849802099394092));
#1192=CARTESIAN_POINT('',(0.00221970047195529,-0.00535874759396995,0.00849802099394092));
#1193=CARTESIAN_POINT('',(0.00410144238607591,-0.00410140784487719,0.00849802099394092));
#1194=CARTESIAN_POINT('',(0.00535878213516869,-0.00221966593075657,0.00849802099394092));
#1195=CARTESIAN_POINT('',(0.00580030114024745,-3.78544682043337E-17,0.00849802099394092));
#1196=CARTESIAN_POINT('',(0.0053587821351687,0.0022196659307565,0.00849802099394092));
#1197=CARTESIAN_POINT('',(0.00410144238607594,0.00410140784487712,0.00849802099394092));
#1198=CARTESIAN_POINT('',(0.00221970047195532,0.0053587475939699,0.00849802099394092));
#1199=CARTESIAN_POINT('',(3.45411987888375E-8,0.00580026659904866,0.00849802099394092));
#1200=CARTESIAN_POINT('',(-0.00221963138955774,0.00535874759396992,0.00849802099394092));
#1201=CARTESIAN_POINT('',(-0.00410137330367837,0.00410140784487715,0.00849802099394092));
#1202=CARTESIAN_POINT('',(-0.00535871305277115,0.00221966593075652,0.00849802099394092));
#1203=CARTESIAN_POINT('',(-0.00580023205784991,5.74627151417317E-18,0.00849802099394091));
#1204=CARTESIAN_POINT('',(-0.00535871305277116,-0.00221966593075654,0.00849802099394092));
#1205=CARTESIAN_POINT('',(-0.00573265353501633,0.00237455715002281,0.00866466066044049));
#1206=CARTESIAN_POINT('',(-0.00620498231920566,4.98732999343332E-18,0.00866466066044048));
#1207=CARTESIAN_POINT('',(-0.00573265353501634,-0.00237455715002282,0.00866466066044049));
#1208=CARTESIAN_POINT('',(-0.00438757495817008,-0.00438760949936884,0.00866466066044048));
#1209=CARTESIAN_POINT('',(-0.00237452260882407,-0.00573268807621511,0.00866466066044048));
#1210=CARTESIAN_POINT('',(3.45411987510209E-8,-0.00620501686040446,0.00866466066044048));
#1211=CARTESIAN_POINT('',(0.00237459169122157,-0.00573268807621513,0.00866466066044049));
#1212=CARTESIAN_POINT('',(0.0043876440405676,-0.00438760949936887,0.00866466066044049));
#1213=CARTESIAN_POINT('',(0.00573272261741386,-0.00237455715002286,0.00866466066044048));
#1214=CARTESIAN_POINT('',(0.00620505140160321,-3.82317552078865E-17,0.00866466066044049));
#1215=CARTESIAN_POINT('',(0.00573272261741388,0.00237455715002279,0.00866466066044049));
#1216=CARTESIAN_POINT('',(0.00438764404056762,0.0043876094993688,0.00866466066044048));
#1217=CARTESIAN_POINT('',(0.00237459169122161,0.00573268807621507,0.00866466066044049));
#1218=CARTESIAN_POINT('',(3.45411987929507E-8,0.00620501686040442,0.00866466066044049));
#1219=CARTESIAN_POINT('',(-0.00237452260882403,0.00573268807621509,0.00866466066044049));
#1220=CARTESIAN_POINT('',(-0.00438757495817006,0.00438760949936883,0.00866466066044048));
#1221=CARTESIAN_POINT('',(-0.00573265353501633,0.00237455715002281,0.00866466066044049));
#1222=CARTESIAN_POINT('',(-0.00620498231920566,4.98732999343332E-18,0.00866466066044048));
#1223=CARTESIAN_POINT('',(-0.00573265353501634,-0.00237455715002282,0.00866466066044049));
#1224=CARTESIAN_POINT('',(-0.0059466782204425,0.00246320907740896,0.009));
#1225=CARTESIAN_POINT('',(-0.00643664096938098,5.6920614055489E-18,0.009));
#1226=CARTESIAN_POINT('',(-0.0059466782204425,-0.00246320907740898,0.009));
#1227=CARTESIAN_POINT('',(-0.00455138236062957,-0.00455141690182833,0.009));
#1228=CARTESIAN_POINT('',(-0.00246317453621022,-0.00594671276164128,0.009));
#1229=CARTESIAN_POINT('',(3.45411987519306E-8,-0.00643667551057977,0.009));
#1230=CARTESIAN_POINT('',(0.00246324361860773,-0.00594671276164129,0.009));
#1231=CARTESIAN_POINT('',(0.00455145144302708,-0.00455141690182836,0.009));
#1232=CARTESIAN_POINT('',(0.00594674730284003,-0.00246320907740901,0.009));
#1233=CARTESIAN_POINT('',(0.00643671005177852,-3.8492495771853E-17,0.009));
#1234=CARTESIAN_POINT('',(0.00594674730284005,0.00246320907740894,0.009));
#1235=CARTESIAN_POINT('',(0.00455145144302711,0.00455141690182829,0.009));
#1236=CARTESIAN_POINT('',(0.00246324361860777,0.00594671276164124,0.009));
#1237=CARTESIAN_POINT('',(3.4541198793171E-8,0.00643667551057973,0.009));
#1238=CARTESIAN_POINT('',(-0.00246317453621019,0.00594671276164126,0.009));
#1239=CARTESIAN_POINT('',(-0.00455138236062954,0.00455141690182832,0.009));
#1240=CARTESIAN_POINT('',(-0.0059466782204425,0.00246320907740896,0.009));
#1241=CARTESIAN_POINT('',(-0.00643664096938098,5.6920614055489E-18,0.009));
#1242=CARTESIAN_POINT('',(-0.0059466782204425,-0.00246320907740898,0.009));
#1243=CARTESIAN_POINT('',(-0.00624042283155957,0.00258488556881117,0.00899999999999999));
#1244=CARTESIAN_POINT('',(-0.0067545885394572,-1.73472347597681E-18,0.009));
#1245=CARTESIAN_POINT('',(-0.00624042283155936,-0.00258488556881115,0.00900000000000001));
#1246=CARTESIAN_POINT('',(-0.00477620277596972,-0.00477624574181679,0.00900000000000001));
#1247=CARTESIAN_POINT('',(-0.00258484260296397,-0.00624046579740625,0.00900000000000002));
#1248=CARTESIAN_POINT('',(4.29658472155815E-8,-0.00675463150530389,0.00900000000000002));
#1249=CARTESIAN_POINT('',(0.00258492853465836,-0.00624046579740604,0.00900000000000002));
#1250=CARTESIAN_POINT('',(0.004776288707664,-0.00477624574181641,0.00900000000000002));
#1251=CARTESIAN_POINT('',(0.00624050876325346,-0.00258488556881066,0.00900000000000001));
#1252=CARTESIAN_POINT('',(0.0067546744711511,5.27984180372183E-16,0.009));
#1253=CARTESIAN_POINT('',(0.00624050876325326,0.00258488556881167,0.009));
#1254=CARTESIAN_POINT('',(0.00477628870766362,0.00477624574181731,0.00899999999999999));
#1255=CARTESIAN_POINT('',(0.00258492853465787,0.00624046579740677,0.00899999999999998));
#1256=CARTESIAN_POINT('',(4.29658466823641E-8,0.00675463150530441,0.00899999999999998));
#1257=CARTESIAN_POINT('',(-0.00258484260296446,0.00624046579740657,0.00899999999999998));
#1258=CARTESIAN_POINT('',(-0.00477620277597011,0.00477624574181693,0.00899999999999998));
#1259=CARTESIAN_POINT('',(-0.00624042283155957,0.00258488556881117,0.00899999999999999));
#1260=CARTESIAN_POINT('',(-0.0067545885394572,-1.73472347597681E-18,0.009));
#1261=CARTESIAN_POINT('',(-0.00624042283155936,-0.00258488556881115,0.00900000000000001));
#1262=CARTESIAN_POINT('',(-0.00713572036226462,0.00295572994838834,0.00900554120973845));
#1263=CARTESIAN_POINT('',(-0.00772365160363338,-1.89735380184963E-18,0.00900554120973845));
#1264=CARTESIAN_POINT('',(-0.00713572036226441,-0.00295572994838833,0.00900554120973847));
#1265=CARTESIAN_POINT('',(-0.00546143384004612,-0.00546147680589318,0.00900554120973847));
#1266=CARTESIAN_POINT('',(-0.00295568698254114,-0.0071357633281113,0.00900554120973848));
#1267=CARTESIAN_POINT('',(4.29658472156221E-8,-0.00772369456948007,0.00900554120973849));
#1268=CARTESIAN_POINT('',(0.00295577291423554,-0.00713576332811109,0.00900554120973848));
#1269=CARTESIAN_POINT('',(0.00546151977174039,-0.0054614768058928,0.00900554120973848));
#1270=CARTESIAN_POINT('',(0.00713580629395851,-0.00295572994838783,0.00900554120973847));
#1271=CARTESIAN_POINT('',(0.00772373753532728,5.2820154689355E-16,0.00900554120973845));
#1272=CARTESIAN_POINT('',(0.00713580629395831,0.00295572994838885,0.00900554120973845));
#1273=CARTESIAN_POINT('',(0.00546151977174002,0.00546147680589371,0.00900554120973843));
#1274=CARTESIAN_POINT('',(0.00295577291423504,0.00713576332811181,0.00900554120973843));
#1275=CARTESIAN_POINT('',(4.29658466816322E-8,0.0077236945694806,0.00900554120973843));
#1276=CARTESIAN_POINT('',(-0.00295568698254164,0.00713576332811162,0.00900554120973843));
#1277=CARTESIAN_POINT('',(-0.0054614338400465,0.00546147680589332,0.00900554120973843));
#1278=CARTESIAN_POINT('',(-0.00713572036226462,0.00295572994838834,0.00900554120973845));
#1279=CARTESIAN_POINT('',(-0.00772365160363338,-1.89735380184963E-18,0.00900554120973845));
#1280=CARTESIAN_POINT('',(-0.00713572036226441,-0.00295572994838833,0.00900554120973847));
#1281=CARTESIAN_POINT('',(-0.00758346866081726,0.00314119336617831,0.00853895014334036));
#1282=CARTESIAN_POINT('',(-0.00820829086968095,-1.0842021724855E-19,0.00853895014334037));
#1283=CARTESIAN_POINT('',(-0.00758346866081704,-0.00314119336617831,0.00853895014334038));
#1284=CARTESIAN_POINT('',(-0.00580412555149762,-0.00580416851734469,0.00853895014334038));
#1285=CARTESIAN_POINT('',(-0.00314115040033112,-0.00758351162666394,0.0085389501433404));
#1286=CARTESIAN_POINT('',(4.29658472105772E-8,-0.00820833383552764,0.00853895014334039));
#1287=CARTESIAN_POINT('',(0.00314123633202551,-0.00758351162666373,0.0085389501433404));
#1288=CARTESIAN_POINT('',(0.0058042114831919,-0.00580416851734432,0.00853895014334039));
#1289=CARTESIAN_POINT('',(0.00758355459251114,-0.00314119336617781,0.00853895014334038));
#1290=CARTESIAN_POINT('',(0.00820837680137485,5.24374003528255E-16,0.00853895014334037));
#1291=CARTESIAN_POINT('',(0.00758355459251094,0.00314119336617882,0.00853895014334036));
#1292=CARTESIAN_POINT('',(0.00580421148319152,0.00580416851734521,0.00853895014334036));
#1293=CARTESIAN_POINT('',(0.00314123633202502,0.00758351162666445,0.00853895014334034));
#1294=CARTESIAN_POINT('',(4.29658466846273E-8,0.00820833383552816,0.00853895014334034));
#1295=CARTESIAN_POINT('',(-0.00314115040033162,0.00758351162666425,0.00853895014334034));
#1296=CARTESIAN_POINT('',(-0.00580412555149801,0.00580416851734483,0.00853895014334035));
#1297=CARTESIAN_POINT('',(-0.00758346866081726,0.00314119336617831,0.00853895014334036));
#1298=CARTESIAN_POINT('',(-0.00820829086968095,-1.0842021724855E-19,0.00853895014334037));
#1299=CARTESIAN_POINT('',(-0.00758346866081704,-0.00314119336617831,0.00853895014334038));
#1300=CARTESIAN_POINT('',(-0.00758345273550524,0.00314118676969809,0.00759999999999999));
#1301=CARTESIAN_POINT('',(-0.00820827363224743,-9.75781955236954E-19,0.0076));
#1302=CARTESIAN_POINT('',(-0.00758345273550503,-0.00314118676969808,0.00760000000000001));
#1303=CARTESIAN_POINT('',(-0.0058041133627915,-0.00580415632863856,0.00760000000000002));
#1304=CARTESIAN_POINT('',(-0.00314114380385091,-0.00758349570135192,0.00760000000000003));
#1305=CARTESIAN_POINT('',(4.29658472088357E-8,-0.00820831659809413,0.00760000000000003));
#1306=CARTESIAN_POINT('',(0.00314122973554528,-0.00758349570135172,0.00760000000000003));
#1307=CARTESIAN_POINT('',(0.00580419929448577,-0.00580415632863819,0.00760000000000002));
#1308=CARTESIAN_POINT('',(0.00758353866719912,-0.0031411867696976,0.00760000000000001));
#1309=CARTESIAN_POINT('',(0.00820835956394133,5.18017550654703E-16,0.0076));
#1310=CARTESIAN_POINT('',(0.00758353866719893,0.00314118676969859,0.00759999999999999));
#1311=CARTESIAN_POINT('',(0.0058041992944854,0.00580415632863907,0.00759999999999998));
#1312=CARTESIAN_POINT('',(0.0031412297355448,0.00758349570135243,0.00759999999999998));
#1313=CARTESIAN_POINT('',(4.29658466870092E-8,0.00820831659809464,0.00759999999999997));
#1314=CARTESIAN_POINT('',(-0.00314114380385139,0.00758349570135223,0.00759999999999998));
#1315=CARTESIAN_POINT('',(-0.00580411336279188,0.0058041563286387,0.00759999999999998));
#1316=CARTESIAN_POINT('',(-0.00758345273550524,0.00314118676969809,0.00759999999999999));
#1317=CARTESIAN_POINT('',(-0.00820827363224743,-9.75781955236954E-19,0.0076));
#1318=CARTESIAN_POINT('',(-0.00758345273550503,-0.00314118676969808,0.00760000000000001));
#1319=CARTESIAN_POINT('',(-0.00296359579732159,-0.00259082136260189,0.0046));
#1320=CARTESIAN_POINT('',(0.00296359579732155,-0.00259082136260189,0.0046));
#1321=CARTESIAN_POINT('',(-0.00296359579732117,-0.0025908213626019,0.00553333333333335));
#1322=CARTESIAN_POINT('',(0.00296359579732197,-0.0025908213626019,0.00553333333333335));
#1323=CARTESIAN_POINT('',(-0.00296359579732117,-0.00305748802926859,0.00600000000000002));
#1324=CARTESIAN_POINT('',(0.00296359579732197,-0.00305748802926859,0.00600000000000002));
#1325=CARTESIAN_POINT('',(-0.00296359579732159,-0.00399082136260195,0.006));
#1326=CARTESIAN_POINT('',(0.00296359579732155,-0.00399082136260195,0.006));
#1327=CARTESIAN_POINT('',(-0.00292845434517944,-0.0039908213626019,0.006));
#1328=CARTESIAN_POINT('',(-0.00284863169769084,-0.00374729749983784,0.006));
#1329=CARTESIAN_POINT('',(-0.00270730412840732,-0.00333547907514646,0.00593134180120729));
#1330=CARTESIAN_POINT('',(-0.00256112112409456,-0.00293797018567492,0.00570292927621378));
#1331=CARTESIAN_POINT('',(-0.00244818095179956,-0.00264343943040623,0.00524109149389151));
#1332=CARTESIAN_POINT('',(-0.00242658735374907,-0.0025908213626019,0.00483140749294314));
#1333=CARTESIAN_POINT('',(-0.00242658735374918,-0.00259082136260189,0.0046));
#1334=CARTESIAN_POINT('',(-0.000456250230159262,-0.00259082136260189,0.0046));
#1335=CARTESIAN_POINT('',(-0.000556250230159262,-0.00259082136260189,0.0046));
#1336=CARTESIAN_POINT('',(-0.000656250230159262,-0.00259082136260189,0.0046));
#1337=CARTESIAN_POINT('',(-0.000756250230159262,-0.00259082136260189,0.0046));
#1338=CARTESIAN_POINT('',(-0.000456250230159262,-0.00259082136260189,0.0046));
#1339=CARTESIAN_POINT('',(0.000456250230159263,-0.00259082136260189,0.0046));
#1340=CARTESIAN_POINT('',(0.000152083410053088,-0.00259082136260189,0.0046));
#1341=CARTESIAN_POINT('',(-0.000152083410053086,-0.00259082136260189,0.0046));
#1342=CARTESIAN_POINT('',(-0.000456250230159261,-0.00259082136260189,0.0046));
#1343=CARTESIAN_POINT('',(0.000456250230159263,-0.00259082136260189,0.0046));
#1344=CARTESIAN_POINT('',(0.000756250230158429,-0.00259082136260189,0.0046));
#1345=CARTESIAN_POINT('',(0.000656250230158707,-0.00259082136260189,0.0046));
#1346=CARTESIAN_POINT('',(0.000556250230158985,-0.00259082136260189,0.0046));
#1347=CARTESIAN_POINT('',(0.000456250230159263,-0.00259082136260189,0.0046));
#1348=CARTESIAN_POINT('',(0.00242658735374916,-0.00259082136260189,0.0046));
#1349=CARTESIAN_POINT('',(0.00242658735374926,-0.00259082136260189,0.00483139433067116));
#1350=CARTESIAN_POINT('',(0.00244818001470713,-0.00264342821785052,0.00524106929227853));
#1351=CARTESIAN_POINT('',(0.00256112440391958,-0.00293797963742688,0.00570293805701315));
#1352=CARTESIAN_POINT('',(0.00270729194619956,-0.0033354524806959,0.00593132887962427));
#1353=CARTESIAN_POINT('',(0.00284862644997053,-0.00374728149002894,0.00600000000000001));
#1354=CARTESIAN_POINT('',(0.00292845434517936,-0.00399082136260196,0.006));
#1355=CARTESIAN_POINT('',(0.00288336506506271,-0.00402352440191466,0.00599999999331949));
#1356=CARTESIAN_POINT('',(0.00590422953563281,-0.00185833662600023,0.00599999999331949));
#1357=CARTESIAN_POINT('',(0.00590422952748735,0.00185833665188176,0.00599999999331949));
#1358=CARTESIAN_POINT('',(0.0028833650474268,0.00402352441455514,0.00599999999331949));
#1359=CARTESIAN_POINT('',(0.00233971686395631,-0.00326502781631573,0.00599993552479484));
#1360=CARTESIAN_POINT('',(0.00479110165512042,-0.00150801142726555,0.00599993552479484));
#1361=CARTESIAN_POINT('',(0.00479110164851051,0.001508011448268,0.00599993552479484));
#1362=CARTESIAN_POINT('',(0.00233971684964505,0.00326502782657328,0.00599993552479484));
#1363=CARTESIAN_POINT('',(0.00206789276340311,-0.00288577952351626,0.00553326886035501));
#1364=CARTESIAN_POINT('',(0.00423453771486423,-0.0013328488278982,0.00553326886035501));
#1365=CARTESIAN_POINT('',(0.00423453770902209,0.00133284884646112,0.00553326886035501));
#1366=CARTESIAN_POINT('',(0.00206789275075418,0.00288577953258235,0.00553326886035501));
#1367=CARTESIAN_POINT('',(0.00206789276340311,-0.00288577952351626,0.0046));
#1368=CARTESIAN_POINT('',(0.00423453771486423,-0.0013328488278982,0.0046));
#1369=CARTESIAN_POINT('',(0.00423453770902209,0.00133284884646112,0.0046));
#1370=CARTESIAN_POINT('',(0.00206789275075418,0.00288577953258235,0.0046));
#1371=CARTESIAN_POINT('',(0.00292845434517971,0.00399082136260227,0.006));
#1372=CARTESIAN_POINT('',(0.00259406138526329,0.00297065142040981,0.00600000000000014));
#1373=CARTESIAN_POINT('',(0.00242686490530492,0.0025908213626019,0.00544649672447459));
#1374=CARTESIAN_POINT('',(0.00242686490530473,0.00259082136260189,0.0046));
#1375=CARTESIAN_POINT('',(-0.00288336506506273,0.00402352440191468,0.00599999999331949));
#1376=CARTESIAN_POINT('',(-0.00590422953563276,0.00185833662600022,0.00599999999331949));
#1377=CARTESIAN_POINT('',(-0.00590422952748728,-0.00185833665188174,0.00599999999331949));
#1378=CARTESIAN_POINT('',(-0.00288336504742678,-0.00402352441455511,0.00599999999331949));
#1379=CARTESIAN_POINT('',(-0.00233971686395634,0.00326502781631577,0.00599993552479482));
#1380=CARTESIAN_POINT('',(-0.00479110165512041,0.00150801142726554,0.00599993552479482));
#1381=CARTESIAN_POINT('',(-0.00479110164851048,-0.001508011448268,0.00599993552479482));
#1382=CARTESIAN_POINT('',(-0.00233971684964503,-0.00326502782657328,0.00599993552479482));
#1383=CARTESIAN_POINT('',(-0.00206789276340315,0.00288577952351631,0.005533268860355));
#1384=CARTESIAN_POINT('',(-0.00423453771486423,0.00133284882789821,0.005533268860355));
#1385=CARTESIAN_POINT('',(-0.00423453770902207,-0.00133284884646113,0.005533268860355));
#1386=CARTESIAN_POINT('',(-0.00206789275075416,-0.00288577953258237,0.005533268860355));
#1387=CARTESIAN_POINT('',(-0.00206789276340315,0.00288577952351631,0.0046));
#1388=CARTESIAN_POINT('',(-0.00423453771486423,0.00133284882789821,0.0046));
#1389=CARTESIAN_POINT('',(-0.00423453770902207,-0.00133284884646113,0.0046));
#1390=CARTESIAN_POINT('',(-0.00206789275075416,-0.00288577953258237,0.0046));
#1391=CARTESIAN_POINT('',(-0.00242686490530476,0.00259082136260189,0.0046));
#1392=CARTESIAN_POINT('',(-0.00242686490530456,0.0025908213626019,0.00544649672440094));
#1393=CARTESIAN_POINT('',(-0.00259406138526281,0.00297065142033616,0.00600000000000014));
#1394=CARTESIAN_POINT('',(-0.00292845434517961,0.00399082136260227,0.006));
#1395=CARTESIAN_POINT('',(0.00296359579732187,0.00259082136260189,0.0046));
#1396=CARTESIAN_POINT('',(-0.00296359579732176,0.00259082136260189,0.0046));
#1397=CARTESIAN_POINT('',(0.00296359579732208,0.0025908213626019,0.00553333333333345));
#1398=CARTESIAN_POINT('',(-0.00296359579732155,0.0025908213626019,0.00553333333333345));
#1399=CARTESIAN_POINT('',(0.00296359579732208,0.00305748802926869,0.00600000000000013));
#1400=CARTESIAN_POINT('',(-0.00296359579732155,0.00305748802926869,0.00600000000000013));
#1401=CARTESIAN_POINT('',(0.00296359579732187,0.00399082136260227,0.006));
#1402=CARTESIAN_POINT('',(-0.00296359579732176,0.00399082136260227,0.006));
#1403=CARTESIAN_POINT('',(0.000456250230159264,0.00259082136260189,0.0046));
#1404=CARTESIAN_POINT('',(0.000556250230159264,0.00259082136260189,0.0046));
#1405=CARTESIAN_POINT('',(0.000656250230159265,0.00259082136260189,0.0046));
#1406=CARTESIAN_POINT('',(0.000756250230159265,0.00259082136260189,0.0046));
#1407=CARTESIAN_POINT('',(0.000456250230159263,0.00259082136260189,0.0046));
#1408=CARTESIAN_POINT('',(-0.000456250230159261,0.00259082136260189,0.0046));
#1409=CARTESIAN_POINT('',(-0.000152083410053086,0.00259082136260189,0.0046));
#1410=CARTESIAN_POINT('',(0.000152083410053088,0.00259082136260189,0.0046));
#1411=CARTESIAN_POINT('',(0.000456250230159263,0.00259082136260189,0.0046));
#1412=CARTESIAN_POINT('',(-0.000456250230159262,0.00259082136260189,0.0046));
#1413=CARTESIAN_POINT('',(-0.000756250230158426,0.00259082136260189,0.0046));
#1414=CARTESIAN_POINT('',(-0.000656250230158704,0.00259082136260189,0.0046));
#1415=CARTESIAN_POINT('',(-0.000556250230158983,0.00259082136260189,0.0046));
#1416=CARTESIAN_POINT('',(-0.000456250230159261,0.00259082136260189,0.0046));
#1417=CARTESIAN_POINT('',(-0.00758345273550518,0.00314118676969809,0.00740000000000002));
#1418=CARTESIAN_POINT('',(-0.00820827363224743,3.90312782094782E-18,0.0074));
#1419=CARTESIAN_POINT('',(-0.00758345273550509,-0.00314118676969809,0.00739999999999998));
#1420=CARTESIAN_POINT('',(-0.00580411336279161,-0.0058041563286386,0.00739999999999997));
#1421=CARTESIAN_POINT('',(-0.00314114380385105,-0.00758349570135202,0.00739999999999996));
#1422=CARTESIAN_POINT('',(4.2965847051745E-8,-0.00820831659809429,0.00739999999999996));
#1423=CARTESIAN_POINT('',(0.00314122973554514,-0.00758349570135194,0.00739999999999996));
#1424=CARTESIAN_POINT('',(0.00580419929448566,-0.00580415632863846,0.00739999999999997));
#1425=CARTESIAN_POINT('',(0.00758353866719907,-0.0031411867696979,0.00739999999999998));
#1426=CARTESIAN_POINT('',(0.00820835956394134,2.01476924430023E-16,0.0074));
#1427=CARTESIAN_POINT('',(0.00758353866719899,0.00314118676969829,0.00740000000000002));
#1428=CARTESIAN_POINT('',(0.00580419929448551,0.00580415632863881,0.00740000000000003));
#1429=CARTESIAN_POINT('',(0.00314122973554496,0.00758349570135222,0.00740000000000004));
#1430=CARTESIAN_POINT('',(4.29658468511303E-8,0.00820831659809449,0.00740000000000004));
#1431=CARTESIAN_POINT('',(-0.00314114380385124,0.00758349570135214,0.00740000000000004));
#1432=CARTESIAN_POINT('',(-0.00580411336279176,0.00580415632863866,0.00740000000000003));
#1433=CARTESIAN_POINT('',(-0.00758345273550518,0.00314118676969809,0.00740000000000002));
#1434=CARTESIAN_POINT('',(-0.00820827363224743,3.90312782094782E-18,0.0074));
#1435=CARTESIAN_POINT('',(-0.00758345273550509,-0.00314118676969809,0.00739999999999998));
#1436=CARTESIAN_POINT('',(-0.0075834686608172,0.00314119336617831,0.00646104985665965));
#1437=CARTESIAN_POINT('',(-0.00820829086968095,3.08997619158369E-18,0.00646104985665964));
#1438=CARTESIAN_POINT('',(-0.00758346866081711,-0.00314119336617832,0.00646104985665961));
#1439=CARTESIAN_POINT('',(-0.00580412555149774,-0.00580416851734474,0.00646104985665961));
#1440=CARTESIAN_POINT('',(-0.00314115040033127,-0.00758351162666404,0.00646104985665959));
#1441=CARTESIAN_POINT('',(4.29658470552212E-8,-0.0082083338355278,0.00646104985665959));
#1442=CARTESIAN_POINT('',(0.00314123633202537,-0.00758351162666396,0.00646104985665959));
#1443=CARTESIAN_POINT('',(0.00580421148319179,-0.00580416851734459,0.0064610498566596));
#1444=CARTESIAN_POINT('',(0.0075835545925111,-0.00314119336617812,0.00646104985665962));
#1445=CARTESIAN_POINT('',(0.00820837680137486,2.10970787340204E-16,0.00646104985665963));
#1446=CARTESIAN_POINT('',(0.00758355459251102,0.00314119336617853,0.00646104985665966));
#1447=CARTESIAN_POINT('',(0.00580421148319164,0.00580416851734495,0.00646104985665967));
#1448=CARTESIAN_POINT('',(0.00314123633202518,0.00758351162666424,0.00646104985665967));
#1449=CARTESIAN_POINT('',(4.29658468457703E-8,0.00820833383552801,0.00646104985665968));
#1450=CARTESIAN_POINT('',(-0.00314115040033147,0.00758351162666417,0.00646104985665968));
#1451=CARTESIAN_POINT('',(-0.00580412555149789,0.00580416851734479,0.00646104985665967));
#1452=CARTESIAN_POINT('',(-0.0075834686608172,0.00314119336617831,0.00646104985665965));
#1453=CARTESIAN_POINT('',(-0.00820829086968095,3.08997619158369E-18,0.00646104985665964));
#1454=CARTESIAN_POINT('',(-0.00758346866081711,-0.00314119336617832,0.00646104985665961));
#1455=CARTESIAN_POINT('',(-0.00713572036226455,0.00295572994838833,0.00599445879026157));
#1456=CARTESIAN_POINT('',(-0.00772365160363338,2.43945488809238E-18,0.00599445879026154));
#1457=CARTESIAN_POINT('',(-0.00713572036226446,-0.00295572994838833,0.00599445879026153));
#1458=CARTESIAN_POINT('',(-0.00546143384004623,-0.00546147680589322,0.00599445879026152));
#1459=CARTESIAN_POINT('',(-0.00295568698254128,-0.00713576332811139,0.00599445879026151));
#1460=CARTESIAN_POINT('',(4.29658470616756E-8,-0.00772369456948023,0.0059944587902615));
#1461=CARTESIAN_POINT('',(0.00295577291423539,-0.0071357633281113,0.00599445879026151));
#1462=CARTESIAN_POINT('',(0.00546151977174029,-0.00546147680589307,0.00599445879026152));
#1463=CARTESIAN_POINT('',(0.00713580629395845,-0.00295572994838813,0.00599445879026153));
#1464=CARTESIAN_POINT('',(0.00772373753532729,2.16715811466014E-16,0.00599445879026154));
#1465=CARTESIAN_POINT('',(0.00713580629395836,0.00295572994838855,0.00599445879026156));
#1466=CARTESIAN_POINT('',(0.00546151977174013,0.00546147680589344,0.00599445879026157));
#1467=CARTESIAN_POINT('',(0.00295577291423519,0.00713576332811161,0.00599445879026158));
#1468=CARTESIAN_POINT('',(4.29658468417519E-8,0.00772369456948044,0.00599445879026159));
#1469=CARTESIAN_POINT('',(-0.00295568698254149,0.00713576332811152,0.00599445879026158));
#1470=CARTESIAN_POINT('',(-0.00546143384004639,0.00546147680589328,0.00599445879026157));
#1471=CARTESIAN_POINT('',(-0.00713572036226455,0.00295572994838833,0.00599445879026157));
#1472=CARTESIAN_POINT('',(-0.00772365160363338,2.43945488809238E-18,0.00599445879026154));
#1473=CARTESIAN_POINT('',(-0.00713572036226446,-0.00295572994838833,0.00599445879026153));
#1474=CARTESIAN_POINT('',(-0.00624042283155951,0.00258488556881116,0.00600000000000002));
#1475=CARTESIAN_POINT('',(-0.0067545885394572,2.38524477946811E-18,0.006));
#1476=CARTESIAN_POINT('',(-0.00624042283155942,-0.00258488556881116,0.00599999999999998));
#1477=CARTESIAN_POINT('',(-0.00477620277596983,-0.00477624574181683,0.00599999999999998));
#1478=CARTESIAN_POINT('',(-0.00258484260296412,-0.00624046579740635,0.00599999999999997));
#1479=CARTESIAN_POINT('',(4.29658470611047E-8,-0.00675463150530405,0.00599999999999996));
#1480=CARTESIAN_POINT('',(0.00258492853465822,-0.00624046579740626,0.00599999999999997));
#1481=CARTESIAN_POINT('',(0.0047762887076639,-0.00477624574181668,0.00599999999999997));
#1482=CARTESIAN_POINT('',(0.0062405087632534,-0.00258488556881096,0.00599999999999998));
#1483=CARTESIAN_POINT('',(0.00675467447115111,2.16847015546054E-16,0.006));
#1484=CARTESIAN_POINT('',(0.00624050876325332,0.00258488556881138,0.00600000000000001));
#1485=CARTESIAN_POINT('',(0.00477628870766374,0.00477624574181705,0.00600000000000002));
#1486=CARTESIAN_POINT('',(0.00258492853465802,0.00624046579740656,0.00600000000000003));
#1487=CARTESIAN_POINT('',(4.29658468436086E-8,0.00675463150530426,0.00600000000000004));
#1488=CARTESIAN_POINT('',(-0.00258484260296432,0.00624046579740648,0.00600000000000004));
#1489=CARTESIAN_POINT('',(-0.00477620277597,0.00477624574181689,0.00600000000000003));
#1490=CARTESIAN_POINT('',(-0.00624042283155951,0.00258488556881116,0.00600000000000002));
#1491=CARTESIAN_POINT('',(-0.0067545885394572,2.38524477946811E-18,0.006));
#1492=CARTESIAN_POINT('',(-0.00624042283155942,-0.00258488556881116,0.00599999999999998));
#1493=CARTESIAN_POINT('',(0.,0.00259082136260189,0.005));
#1494=CARTESIAN_POINT('',(0.000756250230159263,0.00259082136260189,0.005));
#1495=CARTESIAN_POINT('',(0.000756250230159263,0.00259082136260189,0.005));
#1496=CARTESIAN_POINT('',(0.,0.00259082136260189,0.005));
#1497=CARTESIAN_POINT('',(-0.000756250230159261,0.00259082136260189,0.005));
#1498=CARTESIAN_POINT('',(-0.000756250230159261,0.00259082136260189,0.005));
#1499=CARTESIAN_POINT('',(6.50521303491303E-19,0.0016,0.005));
#1500=CARTESIAN_POINT('',(-0.000708904615738228,0.00242906301985657,0.005));
#1501=CARTESIAN_POINT('',(-0.000708904615738228,0.00242906301985657,0.005));
#1502=CARTESIAN_POINT('',(6.50521303491303E-19,0.0016,0.005));
#1503=CARTESIAN_POINT('',(-0.00104956804510849,0.00189715006948643,0.005));
#1504=CARTESIAN_POINT('',(-0.00104956804510849,0.00189715006948643,0.005));
#1505=CARTESIAN_POINT('',(6.50521303491303E-19,0.0016,0.005));
#1506=CARTESIAN_POINT('',(6.50521303491303E-19,0.0016,0.005));
#1507=CARTESIAN_POINT('',(0.0010495680451085,0.00189715006948643,0.005));
#1508=CARTESIAN_POINT('',(0.000708904615738229,0.00242906301985657,0.005));
#1509=CARTESIAN_POINT('',(0.000708904615738229,0.00242906301985657,0.005));
#1510=CARTESIAN_POINT('',(0.0010495680451085,0.00189715006948643,0.005));
#1511=CARTESIAN_POINT('',(0.,0.,0.005));
#1512=CARTESIAN_POINT('',(-0.000756250230159261,0.00259082136260189,0.005));
#1513=CARTESIAN_POINT('',(0.000708904615738229,0.00242906301985657,0.005));
#1514=CARTESIAN_POINT('',(0.0013908213626019,0.0016,0.005));
#1515=CARTESIAN_POINT('',(-0.00104956804510849,0.00189715006948643,0.005));
#1516=CARTESIAN_POINT('',(0.,-0.00259082136260189,0.005));
#1517=CARTESIAN_POINT('',(-0.000756250230159261,-0.00259082136260189,0.005));
#1518=CARTESIAN_POINT('',(-0.000756250230159261,-0.00259082136260189,0.005));
#1519=CARTESIAN_POINT('',(0.,-0.00259082136260189,0.005));
#1520=CARTESIAN_POINT('',(0.000756250230159263,-0.00259082136260189,0.005));
#1521=CARTESIAN_POINT('',(0.000756250230159263,-0.00259082136260189,0.005));
#1522=CARTESIAN_POINT('',(6.50521303491303E-19,-0.0016,0.005));
#1523=CARTESIAN_POINT('',(6.50521303491303E-19,-0.0016,0.005));
#1524=CARTESIAN_POINT('',(-0.000708904615738228,-0.00242906301985657,0.005));
#1525=CARTESIAN_POINT('',(-0.00104956804510849,-0.00189715006948643,0.005));
#1526=CARTESIAN_POINT('',(-0.000708904615738228,-0.00242906301985657,0.005));
#1527=CARTESIAN_POINT('',(-0.00104956804510849,-0.00189715006948643,0.005));
#1528=CARTESIAN_POINT('',(6.50521303491303E-19,-0.0016,0.005));
#1529=CARTESIAN_POINT('',(0.000708904615738229,-0.00242906301985657,0.005));
#1530=CARTESIAN_POINT('',(0.000708904615738229,-0.00242906301985657,0.005));
#1531=CARTESIAN_POINT('',(6.50521303491303E-19,-0.0016,0.005));
#1532=CARTESIAN_POINT('',(0.0010495680451085,-0.00189715006948643,0.005));
#1533=CARTESIAN_POINT('',(0.0010495680451085,-0.00189715006948643,0.005));
#1534=CARTESIAN_POINT('',(0.,0.,0.005));
#1535=CARTESIAN_POINT('',(-0.000708904615738228,-0.00242906301985657,0.005));
#1536=CARTESIAN_POINT('',(-0.00139082136260189,-0.0016,0.005));
#1537=CARTESIAN_POINT('',(0.0010495680451085,-0.00189715006948643,0.005));
#1538=CARTESIAN_POINT('',(0.000756250230159263,-0.00259082136260189,0.005));
#1539=CARTESIAN_POINT('',(-0.000756250230159261,0.00259082136260189,0.005));
#1540=CARTESIAN_POINT('',(0.000708904615738229,0.00242906301985657,0.005));
#1541=CARTESIAN_POINT('',(-0.000708904615738228,-0.00242906301985657,0.005));
#1542=CARTESIAN_POINT('',(0.000756250230159263,-0.00259082136260189,0.005));
#1543=CARTESIAN_POINT('',(-0.00104956804510849,0.00189715006948643,0.005));
#1544=CARTESIAN_POINT('',(0.0013908213626019,0.0016,0.005));
#1545=CARTESIAN_POINT('',(-0.00139082136260189,-0.0016,0.005));
#1546=CARTESIAN_POINT('',(0.0010495680451085,-0.00189715006948643,0.005));
#1547=MECHANICAL_DESIGN_GEOMETRIC_PRESENTATION_REPRESENTATION('',(#701),
#1548);
#1548=(
GEOMETRIC_REPRESENTATION_CONTEXT(3)
GLOBAL_UNCERTAINTY_ASSIGNED_CONTEXT((#1549))
GLOBAL_UNIT_ASSIGNED_CONTEXT((#1552,#1551,#1550))
REPRESENTATION_CONTEXT('JoystickHandle','TOP_LEVEL_ASSEMBLY_PART')
);
#1549=UNCERTAINTY_MEASURE_WITH_UNIT(LENGTH_MEASURE(2.0000000000002E-5),
#1552,'DISTANCE_ACCURACY_VALUE','Maximum Tolerance applied to model');
#1550=(
NAMED_UNIT(*)
SI_UNIT($,.STERADIAN.)
SOLID_ANGLE_UNIT()
);
#1551=(
NAMED_UNIT(*)
PLANE_ANGLE_UNIT()
SI_UNIT($,.RADIAN.)
);
#1552=(
LENGTH_UNIT()
NAMED_UNIT(*)
SI_UNIT($,.METRE.)
);
#1553=PRODUCT_DEFINITION_SHAPE('','',#1554);
#1554=PRODUCT_DEFINITION('','',#1556,#1555);
#1555=PRODUCT_DEFINITION_CONTEXT('',#1562,'design');
#1556=PRODUCT_DEFINITION_FORMATION_WITH_SPECIFIED_SOURCE('','',#1558,
 .NOT_KNOWN.);
#1557=PRODUCT_RELATED_PRODUCT_CATEGORY('','',(#1558));
#1558=PRODUCT('JoystickHandle','JoystickHandle','JoystickHandle',(#1560));
#1559=PRODUCT_CATEGORY('','');
#1560=PRODUCT_CONTEXT('',#1562,'mechanical');
#1561=APPLICATION_PROTOCOL_DEFINITION('international standard',
'ap242_managed_model_based_3d_engineering',2020,#1562);
#1562=APPLICATION_CONTEXT('managed model based 3d engineering');
ENDSEC;
END-ISO-10303-21;
