ISO-10303-21;
HEADER;
/* Generated by software containing ST-Developer
 * from STEP Tools, Inc. (www.steptools.com) 
 */
/* OPTION: using custom renumber hook */

FILE_DESCRIPTION(
/* description */ ('STEP AP242 Edition 2',
'CAx-IF Rec.Pracs.---Representation and Presentation of Product Manufa
cturing Information (PMI)---4.0---2014-10-13',
'CAx-IF Rec.Pracs.---3D Tessellated Geometry---0.4---2014-09-14','2;1',
'CAx-IF Rec.Pracs.---User Defined Attributes---1.5---2016-08-15'),
/* implementation_level */ '2;1');

FILE_NAME(
/* name */ 'S_BUTTONS - Part 1',
/* time_stamp */ '2026-09-23T14:42:51Z',
/* author */ (''),
/* organization */ (''),
/* preprocessor_version */ 'ST-DEVELOPER v20',
/* originating_system */ 'ONSHAPE BY PTC INC, 1.221',
/* authorisation */ '  ');

FILE_SCHEMA (('AP242_MANAGED_MODEL_BASED_3D_ENGINEERING_MIM_LF { 1 0 10303 442 3 1 4 }'));
ENDSEC;

DATA;
#10=SHAPE_REPRESENTATION_RELATIONSHIP('','',#502,#11);
#11=ADVANCED_BREP_SHAPE_REPRESENTATION('',(#500),#912);
#12=CIRCLE('',#506,0.00662153341332279);
#13=CIRCLE('',#507,0.00662153341332279);
#14=CIRCLE('',#509,0.00662153341332279);
#15=CIRCLE('',#510,0.00662153341332279);
#16=CIRCLE('',#512,0.00575);
#17=CIRCLE('',#514,0.00575);
#18=CIRCLE('',#515,0.00575);
#19=CIRCLE('',#516,0.00575);
#20=CYLINDRICAL_SURFACE('',#505,0.00662153341332279);
#21=CYLINDRICAL_SURFACE('',#508,0.00662153341332279);
#22=CYLINDRICAL_SURFACE('',#513,0.00575);
#23=B_SPLINE_SURFACE_WITH_KNOTS('',3,3,((#680,#681,#682,#683,#684,#685,
#686,#687,#688,#689,#690,#691,#692,#693,#694,#695,#696,#697,#698),(#699,
#700,#701,#702,#703,#704,#705,#706,#707,#708,#709,#710,#711,#712,#713,#714,
#715,#716,#717),(#718,#719,#720,#721,#722,#723,#724,#725,#726,#727,#728,
#729,#730,#731,#732,#733,#734,#735,#736),(#737,#738,#739,#740,#741,#742,
#743,#744,#745,#746,#747,#748,#749,#750,#751,#752,#753,#754,#755)),
 .UNSPECIFIED.,.F.,.T.,.F.,(4,4),(1,1,1,1,1,1,1,1,1,1,1,1,1,1,1,1,1,1,1,
1,1,1,1),(-0.00601266309104764,1.),(-1.17809724509617,-0.785398163397448,
-0.392699081698725,0.,0.392699081698724,0.785398163397448,1.17809724509617,
1.5707963267949,1.96349540849362,2.35619449019234,2.74889357189107,3.14159265358979,
3.53429173528852,3.92699081698724,4.31968989868597,4.71238898038469,5.10508806208341,
5.49778714378214,5.89048622548086,6.28318530717959,6.67588438887831,7.06858347057703,
7.46128255227576),.UNSPECIFIED.);
#24=B_SPLINE_CURVE_WITH_KNOTS('',3,(#667,#668,#669,#670,#671,#672,#673,
#674,#675,#676,#677),.UNSPECIFIED.,.F.,.F.,(4,1,1,1,1,1,1,1,4),(0.884951256935415,
0.976215484289571,1.06747971164373,1.15874393899788,1.25000816635204,1.34127239370619,
1.43253662106035,1.52380084841451,1.61506507576866),.UNSPECIFIED.);
#25=B_SPLINE_CURVE_WITH_KNOTS('',3,(#756,#757,#758,#759),.UNSPECIFIED.,
 .F.,.F.,(4,4),(1.42347592488661E-7,0.000179683654463364),.UNSPECIFIED.);
#26=B_SPLINE_CURVE_WITH_KNOTS('',3,(#761,#762,#763,#764),.UNSPECIFIED.,
 .F.,.F.,(4,4),(1.74517113081893E-7,0.000179683657946805),.UNSPECIFIED.);
#27=B_SPLINE_CURVE_WITH_KNOTS('',3,(#766,#767,#768,#769),.UNSPECIFIED.,
 .F.,.F.,(4,4),(0.,0.000212947709210985),.UNSPECIFIED.);
#28=B_SPLINE_CURVE_WITH_KNOTS('',3,(#771,#772,#773,#774,#775),
 .UNSPECIFIED.,.F.,.F.,(4,1,4),(0.625000245538892,0.750000122769446,0.875),
 .UNSPECIFIED.);
#29=B_SPLINE_CURVE_WITH_KNOTS('',3,(#777,#778,#779,#780),.UNSPECIFIED.,
 .F.,.F.,(4,4),(0.,0.000212947695592054),.UNSPECIFIED.);
#30=B_SPLINE_CURVE_WITH_KNOTS('',3,(#781,#782,#783,#784,#785,#786,#787,
#788,#789,#790,#791),.UNSPECIFIED.,.T.,.F.,(1,1,1,1,1,1,1,1,1,1,1,1,1,1,
1),(-0.375,-0.25,-0.125,0.,0.125,0.25,0.375,0.5,0.625,0.75,0.875,1.,1.125,
1.25,1.375),.UNSPECIFIED.);
#31=ORIENTED_EDGE('',*,*,#165,.T.);
#32=ORIENTED_EDGE('',*,*,#166,.T.);
#33=ORIENTED_EDGE('',*,*,#167,.T.);
#34=ORIENTED_EDGE('',*,*,#168,.F.);
#35=ORIENTED_EDGE('',*,*,#169,.F.);
#36=ORIENTED_EDGE('',*,*,#167,.F.);
#37=ORIENTED_EDGE('',*,*,#170,.T.);
#38=ORIENTED_EDGE('',*,*,#171,.T.);
#39=ORIENTED_EDGE('',*,*,#172,.F.);
#40=ORIENTED_EDGE('',*,*,#173,.F.);
#41=ORIENTED_EDGE('',*,*,#174,.F.);
#42=ORIENTED_EDGE('',*,*,#175,.F.);
#43=ORIENTED_EDGE('',*,*,#176,.F.);
#44=ORIENTED_EDGE('',*,*,#177,.T.);
#45=ORIENTED_EDGE('',*,*,#178,.T.);
#46=ORIENTED_EDGE('',*,*,#179,.F.);
#47=ORIENTED_EDGE('',*,*,#180,.T.);
#48=ORIENTED_EDGE('',*,*,#181,.T.);
#49=ORIENTED_EDGE('',*,*,#182,.F.);
#50=ORIENTED_EDGE('',*,*,#181,.F.);
#51=ORIENTED_EDGE('',*,*,#183,.T.);
#52=ORIENTED_EDGE('',*,*,#184,.F.);
#53=ORIENTED_EDGE('',*,*,#185,.T.);
#54=ORIENTED_EDGE('',*,*,#174,.T.);
#55=ORIENTED_EDGE('',*,*,#184,.T.);
#56=ORIENTED_EDGE('',*,*,#186,.F.);
#57=ORIENTED_EDGE('',*,*,#187,.T.);
#58=ORIENTED_EDGE('',*,*,#188,.T.);
#59=ORIENTED_EDGE('',*,*,#189,.T.);
#60=ORIENTED_EDGE('',*,*,#190,.F.);
#61=ORIENTED_EDGE('',*,*,#191,.T.);
#62=ORIENTED_EDGE('',*,*,#192,.T.);
#63=ORIENTED_EDGE('',*,*,#193,.F.);
#64=ORIENTED_EDGE('',*,*,#172,.T.);
#65=ORIENTED_EDGE('',*,*,#194,.T.);
#66=ORIENTED_EDGE('',*,*,#195,.T.);
#67=ORIENTED_EDGE('',*,*,#196,.F.);
#68=ORIENTED_EDGE('',*,*,#197,.F.);
#69=ORIENTED_EDGE('',*,*,#198,.F.);
#70=ORIENTED_EDGE('',*,*,#179,.T.);
#71=ORIENTED_EDGE('',*,*,#199,.F.);
#72=ORIENTED_EDGE('',*,*,#191,.F.);
#73=ORIENTED_EDGE('',*,*,#200,.F.);
#74=ORIENTED_EDGE('',*,*,#176,.T.);
#75=ORIENTED_EDGE('',*,*,#201,.F.);
#76=ORIENTED_EDGE('',*,*,#187,.F.);
#77=ORIENTED_EDGE('',*,*,#189,.F.);
#78=ORIENTED_EDGE('',*,*,#202,.T.);
#79=ORIENTED_EDGE('',*,*,#178,.F.);
#80=ORIENTED_EDGE('',*,*,#203,.T.);
#81=ORIENTED_EDGE('',*,*,#199,.T.);
#82=ORIENTED_EDGE('',*,*,#182,.T.);
#83=ORIENTED_EDGE('',*,*,#185,.F.);
#84=ORIENTED_EDGE('',*,*,#192,.F.);
#85=ORIENTED_EDGE('',*,*,#200,.T.);
#86=ORIENTED_EDGE('',*,*,#190,.T.);
#87=ORIENTED_EDGE('',*,*,#203,.F.);
#88=ORIENTED_EDGE('',*,*,#177,.F.);
#89=ORIENTED_EDGE('',*,*,#201,.T.);
#90=ORIENTED_EDGE('',*,*,#175,.T.);
#91=ORIENTED_EDGE('',*,*,#202,.F.);
#92=ORIENTED_EDGE('',*,*,#188,.F.);
#93=ORIENTED_EDGE('',*,*,#198,.T.);
#94=ORIENTED_EDGE('',*,*,#186,.T.);
#95=ORIENTED_EDGE('',*,*,#183,.F.);
#96=ORIENTED_EDGE('',*,*,#180,.F.);
#97=ORIENTED_EDGE('',*,*,#204,.F.);
#98=ORIENTED_EDGE('',*,*,#205,.F.);
#99=ORIENTED_EDGE('',*,*,#206,.T.);
#100=ORIENTED_EDGE('',*,*,#207,.T.);
#101=ORIENTED_EDGE('',*,*,#208,.T.);
#102=ORIENTED_EDGE('',*,*,#209,.F.);
#103=ORIENTED_EDGE('',*,*,#210,.F.);
#104=ORIENTED_EDGE('',*,*,#205,.T.);
#105=ORIENTED_EDGE('',*,*,#211,.T.);
#106=ORIENTED_EDGE('',*,*,#212,.F.);
#107=ORIENTED_EDGE('',*,*,#213,.F.);
#108=ORIENTED_EDGE('',*,*,#209,.T.);
#109=ORIENTED_EDGE('',*,*,#166,.F.);
#110=ORIENTED_EDGE('',*,*,#214,.F.);
#111=ORIENTED_EDGE('',*,*,#215,.T.);
#112=ORIENTED_EDGE('',*,*,#216,.T.);
#113=ORIENTED_EDGE('',*,*,#170,.F.);
#114=ORIENTED_EDGE('',*,*,#165,.F.);
#115=ORIENTED_EDGE('',*,*,#217,.F.);
#116=ORIENTED_EDGE('',*,*,#218,.T.);
#117=ORIENTED_EDGE('',*,*,#214,.T.);
#118=ORIENTED_EDGE('',*,*,#169,.T.);
#119=ORIENTED_EDGE('',*,*,#219,.F.);
#120=ORIENTED_EDGE('',*,*,#220,.F.);
#121=ORIENTED_EDGE('',*,*,#217,.T.);
#122=ORIENTED_EDGE('',*,*,#168,.T.);
#123=ORIENTED_EDGE('',*,*,#173,.T.);
#124=ORIENTED_EDGE('',*,*,#193,.T.);
#125=ORIENTED_EDGE('',*,*,#221,.F.);
#126=ORIENTED_EDGE('',*,*,#222,.F.);
#127=ORIENTED_EDGE('',*,*,#219,.T.);
#128=ORIENTED_EDGE('',*,*,#197,.T.);
#129=ORIENTED_EDGE('',*,*,#223,.F.);
#130=ORIENTED_EDGE('',*,*,#224,.F.);
#131=ORIENTED_EDGE('',*,*,#221,.T.);
#132=ORIENTED_EDGE('',*,*,#196,.T.);
#133=ORIENTED_EDGE('',*,*,#225,.F.);
#134=ORIENTED_EDGE('',*,*,#226,.F.);
#135=ORIENTED_EDGE('',*,*,#223,.T.);
#136=ORIENTED_EDGE('',*,*,#195,.F.);
#137=ORIENTED_EDGE('',*,*,#227,.F.);
#138=ORIENTED_EDGE('',*,*,#228,.T.);
#139=ORIENTED_EDGE('',*,*,#225,.T.);
#140=ORIENTED_EDGE('',*,*,#216,.F.);
#141=ORIENTED_EDGE('',*,*,#229,.T.);
#142=ORIENTED_EDGE('',*,*,#227,.T.);
#143=ORIENTED_EDGE('',*,*,#194,.F.);
#144=ORIENTED_EDGE('',*,*,#171,.F.);
#145=ORIENTED_EDGE('',*,*,#230,.F.);
#146=ORIENTED_EDGE('',*,*,#207,.F.);
#147=ORIENTED_EDGE('',*,*,#231,.T.);
#148=ORIENTED_EDGE('',*,*,#212,.T.);
#149=ORIENTED_EDGE('',*,*,#215,.F.);
#150=ORIENTED_EDGE('',*,*,#218,.F.);
#151=ORIENTED_EDGE('',*,*,#220,.T.);
#152=ORIENTED_EDGE('',*,*,#222,.T.);
#153=ORIENTED_EDGE('',*,*,#224,.T.);
#154=ORIENTED_EDGE('',*,*,#226,.T.);
#155=ORIENTED_EDGE('',*,*,#228,.F.);
#156=ORIENTED_EDGE('',*,*,#229,.F.);
#157=ORIENTED_EDGE('',*,*,#206,.F.);
#158=ORIENTED_EDGE('',*,*,#210,.T.);
#159=ORIENTED_EDGE('',*,*,#213,.T.);
#160=ORIENTED_EDGE('',*,*,#231,.F.);
#161=ORIENTED_EDGE('',*,*,#208,.F.);
#162=ORIENTED_EDGE('',*,*,#204,.T.);
#163=ORIENTED_EDGE('',*,*,#230,.T.);
#164=ORIENTED_EDGE('',*,*,#211,.F.);
#165=EDGE_CURVE('',#232,#233,#277,.T.);
#166=EDGE_CURVE('',#233,#234,#278,.T.);
#167=EDGE_CURVE('',#234,#235,#24,.T.);
#168=EDGE_CURVE('',#232,#235,#279,.T.);
#169=EDGE_CURVE('',#235,#236,#25,.T.);
#170=EDGE_CURVE('',#234,#237,#26,.T.);
#171=EDGE_CURVE('',#237,#238,#27,.T.);
#172=EDGE_CURVE('',#239,#238,#28,.T.);
#173=EDGE_CURVE('',#236,#239,#29,.T.);
#174=EDGE_CURVE('',#240,#240,#30,.T.);
#175=EDGE_CURVE('',#241,#242,#280,.T.);
#176=EDGE_CURVE('',#243,#241,#12,.T.);
#177=EDGE_CURVE('',#243,#244,#281,.T.);
#178=EDGE_CURVE('',#244,#242,#13,.T.);
#179=EDGE_CURVE('',#245,#246,#14,.T.);
#180=EDGE_CURVE('',#245,#247,#282,.T.);
#181=EDGE_CURVE('',#247,#248,#15,.T.);
#182=EDGE_CURVE('',#246,#248,#283,.T.);
#183=EDGE_CURVE('',#247,#249,#284,.T.);
#184=EDGE_CURVE('',#250,#249,#16,.T.);
#185=EDGE_CURVE('',#250,#248,#285,.T.);
#186=EDGE_CURVE('',#251,#249,#286,.T.);
#187=EDGE_CURVE('',#251,#252,#17,.F.);
#188=EDGE_CURVE('',#252,#253,#287,.T.);
#189=EDGE_CURVE('',#253,#254,#18,.T.);
#190=EDGE_CURVE('',#255,#254,#288,.T.);
#191=EDGE_CURVE('',#255,#256,#19,.F.);
#192=EDGE_CURVE('',#256,#250,#289,.T.);
#193=EDGE_CURVE('',#239,#257,#290,.T.);
#194=EDGE_CURVE('',#238,#258,#291,.T.);
#195=EDGE_CURVE('',#258,#259,#292,.T.);
#196=EDGE_CURVE('',#260,#259,#293,.T.);
#197=EDGE_CURVE('',#257,#260,#294,.T.);
#198=EDGE_CURVE('',#245,#251,#295,.T.);
#199=EDGE_CURVE('',#256,#246,#296,.T.);
#200=EDGE_CURVE('',#243,#255,#297,.T.);
#201=EDGE_CURVE('',#252,#241,#298,.T.);
#202=EDGE_CURVE('',#253,#242,#299,.T.);
#203=EDGE_CURVE('',#244,#254,#300,.T.);
#204=EDGE_CURVE('',#261,#262,#301,.T.);
#205=EDGE_CURVE('',#263,#261,#302,.T.);
#206=EDGE_CURVE('',#263,#264,#303,.T.);
#207=EDGE_CURVE('',#264,#262,#304,.T.);
#208=EDGE_CURVE('',#261,#265,#305,.T.);
#209=EDGE_CURVE('',#266,#265,#306,.T.);
#210=EDGE_CURVE('',#263,#266,#307,.T.);
#211=EDGE_CURVE('',#265,#267,#308,.T.);
#212=EDGE_CURVE('',#268,#267,#309,.T.);
#213=EDGE_CURVE('',#266,#268,#310,.T.);
#214=EDGE_CURVE('',#269,#233,#311,.T.);
#215=EDGE_CURVE('',#269,#270,#312,.T.);
#216=EDGE_CURVE('',#270,#237,#313,.T.);
#217=EDGE_CURVE('',#271,#232,#314,.T.);
#218=EDGE_CURVE('',#271,#269,#315,.T.);
#219=EDGE_CURVE('',#272,#236,#316,.T.);
#220=EDGE_CURVE('',#271,#272,#317,.T.);
#221=EDGE_CURVE('',#273,#257,#318,.T.);
#222=EDGE_CURVE('',#272,#273,#319,.T.);
#223=EDGE_CURVE('',#274,#260,#320,.T.);
#224=EDGE_CURVE('',#273,#274,#321,.T.);
#225=EDGE_CURVE('',#275,#259,#322,.T.);
#226=EDGE_CURVE('',#274,#275,#323,.T.);
#227=EDGE_CURVE('',#276,#258,#324,.T.);
#228=EDGE_CURVE('',#276,#275,#325,.T.);
#229=EDGE_CURVE('',#270,#276,#326,.T.);
#230=EDGE_CURVE('',#262,#267,#327,.T.);
#231=EDGE_CURVE('',#264,#268,#328,.T.);
#232=VERTEX_POINT('',#663);
#233=VERTEX_POINT('',#664);
#234=VERTEX_POINT('',#666);
#235=VERTEX_POINT('',#678);
#236=VERTEX_POINT('',#760);
#237=VERTEX_POINT('',#765);
#238=VERTEX_POINT('',#770);
#239=VERTEX_POINT('',#776);
#240=VERTEX_POINT('',#792);
#241=VERTEX_POINT('',#795);
#242=VERTEX_POINT('',#796);
#243=VERTEX_POINT('',#798);
#244=VERTEX_POINT('',#800);
#245=VERTEX_POINT('',#804);
#246=VERTEX_POINT('',#805);
#247=VERTEX_POINT('',#807);
#248=VERTEX_POINT('',#809);
#249=VERTEX_POINT('',#813);
#250=VERTEX_POINT('',#815);
#251=VERTEX_POINT('',#819);
#252=VERTEX_POINT('',#821);
#253=VERTEX_POINT('',#823);
#254=VERTEX_POINT('',#825);
#255=VERTEX_POINT('',#827);
#256=VERTEX_POINT('',#829);
#257=VERTEX_POINT('',#833);
#258=VERTEX_POINT('',#835);
#259=VERTEX_POINT('',#837);
#260=VERTEX_POINT('',#839);
#261=VERTEX_POINT('',#855);
#262=VERTEX_POINT('',#856);
#263=VERTEX_POINT('',#858);
#264=VERTEX_POINT('',#860);
#265=VERTEX_POINT('',#864);
#266=VERTEX_POINT('',#866);
#267=VERTEX_POINT('',#870);
#268=VERTEX_POINT('',#872);
#269=VERTEX_POINT('',#876);
#270=VERTEX_POINT('',#878);
#271=VERTEX_POINT('',#882);
#272=VERTEX_POINT('',#886);
#273=VERTEX_POINT('',#890);
#274=VERTEX_POINT('',#894);
#275=VERTEX_POINT('',#898);
#276=VERTEX_POINT('',#902);
#277=LINE('',#662,#329);
#278=LINE('',#665,#330);
#279=LINE('',#679,#331);
#280=LINE('',#794,#332);
#281=LINE('',#799,#333);
#282=LINE('',#806,#334);
#283=LINE('',#810,#335);
#284=LINE('',#812,#336);
#285=LINE('',#816,#337);
#286=LINE('',#818,#338);
#287=LINE('',#822,#339);
#288=LINE('',#826,#340);
#289=LINE('',#830,#341);
#290=LINE('',#832,#342);
#291=LINE('',#834,#343);
#292=LINE('',#836,#344);
#293=LINE('',#838,#345);
#294=LINE('',#840,#346);
#295=LINE('',#842,#347);
#296=LINE('',#843,#348);
#297=LINE('',#844,#349);
#298=LINE('',#845,#350);
#299=LINE('',#847,#351);
#300=LINE('',#848,#352);
#301=LINE('',#854,#353);
#302=LINE('',#857,#354);
#303=LINE('',#859,#355);
#304=LINE('',#861,#356);
#305=LINE('',#863,#357);
#306=LINE('',#865,#358);
#307=LINE('',#867,#359);
#308=LINE('',#869,#360);
#309=LINE('',#871,#361);
#310=LINE('',#873,#362);
#311=LINE('',#875,#363);
#312=LINE('',#877,#364);
#313=LINE('',#879,#365);
#314=LINE('',#881,#366);
#315=LINE('',#883,#367);
#316=LINE('',#885,#368);
#317=LINE('',#887,#369);
#318=LINE('',#889,#370);
#319=LINE('',#891,#371);
#320=LINE('',#893,#372);
#321=LINE('',#895,#373);
#322=LINE('',#897,#374);
#323=LINE('',#899,#375);
#324=LINE('',#901,#376);
#325=LINE('',#903,#377);
#326=LINE('',#905,#378);
#327=LINE('',#907,#379);
#328=LINE('',#908,#380);
#329=VECTOR('',#542,1.);
#330=VECTOR('',#543,1.);
#331=VECTOR('',#544,1.);
#332=VECTOR('',#547,1.);
#333=VECTOR('',#550,1.);
#334=VECTOR('',#557,1.);
#335=VECTOR('',#560,1.);
#336=VECTOR('',#563,1.);
#337=VECTOR('',#566,1.);
#338=VECTOR('',#569,1.);
#339=VECTOR('',#572,1.);
#340=VECTOR('',#575,1.);
#341=VECTOR('',#578,1.);
#342=VECTOR('',#581,1.);
#343=VECTOR('',#582,1.);
#344=VECTOR('',#583,1.);
#345=VECTOR('',#584,1.);
#346=VECTOR('',#585,1.);
#347=VECTOR('',#588,1.);
#348=VECTOR('',#589,1.);
#349=VECTOR('',#590,1.);
#350=VECTOR('',#591,1.);
#351=VECTOR('',#594,1.);
#352=VECTOR('',#595,1.);
#353=VECTOR('',#606,1.);
#354=VECTOR('',#607,1.);
#355=VECTOR('',#608,1.);
#356=VECTOR('',#609,1.);
#357=VECTOR('',#612,1.);
#358=VECTOR('',#613,1.);
#359=VECTOR('',#614,1.);
#360=VECTOR('',#617,1.);
#361=VECTOR('',#618,1.);
#362=VECTOR('',#619,1.);
#363=VECTOR('',#622,1.);
#364=VECTOR('',#623,1.);
#365=VECTOR('',#624,1.);
#366=VECTOR('',#627,1.);
#367=VECTOR('',#628,1.);
#368=VECTOR('',#631,1.);
#369=VECTOR('',#632,1.);
#370=VECTOR('',#635,1.);
#371=VECTOR('',#636,1.);
#372=VECTOR('',#639,1.);
#373=VECTOR('',#640,1.);
#374=VECTOR('',#643,1.);
#375=VECTOR('',#644,1.);
#376=VECTOR('',#647,1.);
#377=VECTOR('',#648,1.);
#378=VECTOR('',#651,1.);
#379=VECTOR('',#654,1.);
#380=VECTOR('',#655,1.);
#381=EDGE_LOOP('',(#31,#32,#33,#34));
#382=EDGE_LOOP('',(#35,#36,#37,#38,#39,#40));
#383=EDGE_LOOP('',(#41));
#384=EDGE_LOOP('',(#42,#43,#44,#45));
#385=EDGE_LOOP('',(#46,#47,#48,#49));
#386=EDGE_LOOP('',(#50,#51,#52,#53));
#387=EDGE_LOOP('',(#54));
#388=EDGE_LOOP('',(#55,#56,#57,#58,#59,#60,#61,#62));
#389=EDGE_LOOP('',(#63,#64,#65,#66,#67,#68));
#390=EDGE_LOOP('',(#69,#70,#71,#72,#73,#74,#75,#76));
#391=EDGE_LOOP('',(#77,#78,#79,#80));
#392=EDGE_LOOP('',(#81,#82,#83,#84));
#393=EDGE_LOOP('',(#85,#86,#87,#88));
#394=EDGE_LOOP('',(#89,#90,#91,#92));
#395=EDGE_LOOP('',(#93,#94,#95,#96));
#396=EDGE_LOOP('',(#97,#98,#99,#100));
#397=EDGE_LOOP('',(#101,#102,#103,#104));
#398=EDGE_LOOP('',(#105,#106,#107,#108));
#399=EDGE_LOOP('',(#109,#110,#111,#112,#113));
#400=EDGE_LOOP('',(#114,#115,#116,#117));
#401=EDGE_LOOP('',(#118,#119,#120,#121,#122));
#402=EDGE_LOOP('',(#123,#124,#125,#126,#127));
#403=EDGE_LOOP('',(#128,#129,#130,#131));
#404=EDGE_LOOP('',(#132,#133,#134,#135));
#405=EDGE_LOOP('',(#136,#137,#138,#139));
#406=EDGE_LOOP('',(#140,#141,#142,#143,#144));
#407=EDGE_LOOP('',(#145,#146,#147,#148));
#408=EDGE_LOOP('',(#149,#150,#151,#152,#153,#154,#155,#156));
#409=EDGE_LOOP('',(#157,#158,#159,#160));
#410=EDGE_LOOP('',(#161,#162,#163,#164));
#411=FACE_BOUND('',#381,.T.);
#412=FACE_BOUND('',#382,.T.);
#413=FACE_BOUND('',#383,.T.);
#414=FACE_BOUND('',#384,.T.);
#415=FACE_BOUND('',#385,.T.);
#416=FACE_BOUND('',#386,.T.);
#417=FACE_BOUND('',#387,.T.);
#418=FACE_BOUND('',#388,.T.);
#419=FACE_BOUND('',#389,.T.);
#420=FACE_BOUND('',#390,.T.);
#421=FACE_BOUND('',#391,.T.);
#422=FACE_BOUND('',#392,.T.);
#423=FACE_BOUND('',#393,.T.);
#424=FACE_BOUND('',#394,.T.);
#425=FACE_BOUND('',#395,.T.);
#426=FACE_BOUND('',#396,.T.);
#427=FACE_BOUND('',#397,.T.);
#428=FACE_BOUND('',#398,.T.);
#429=FACE_BOUND('',#399,.T.);
#430=FACE_BOUND('',#400,.T.);
#431=FACE_BOUND('',#401,.T.);
#432=FACE_BOUND('',#402,.T.);
#433=FACE_BOUND('',#403,.T.);
#434=FACE_BOUND('',#404,.T.);
#435=FACE_BOUND('',#405,.T.);
#436=FACE_BOUND('',#406,.T.);
#437=FACE_BOUND('',#407,.T.);
#438=FACE_BOUND('',#408,.T.);
#439=FACE_BOUND('',#409,.T.);
#440=FACE_BOUND('',#410,.T.);
#441=PLANE('',#504);
#442=PLANE('',#511);
#443=PLANE('',#517);
#444=PLANE('',#518);
#445=PLANE('',#519);
#446=PLANE('',#520);
#447=PLANE('',#521);
#448=PLANE('',#522);
#449=PLANE('',#523);
#450=PLANE('',#524);
#451=PLANE('',#525);
#452=PLANE('',#526);
#453=PLANE('',#527);
#454=PLANE('',#528);
#455=PLANE('',#529);
#456=PLANE('',#530);
#457=PLANE('',#531);
#458=PLANE('',#532);
#459=PLANE('',#533);
#460=PLANE('',#534);
#461=PLANE('',#535);
#462=PLANE('',#536);
#463=PLANE('',#537);
#464=ADVANCED_FACE('',(#411),#441,.T.);
#465=ADVANCED_FACE('',(#412,#413),#23,.T.);
#466=ADVANCED_FACE('',(#414),#20,.T.);
#467=ADVANCED_FACE('',(#415),#21,.T.);
#468=ADVANCED_FACE('',(#416),#442,.F.);
#469=ADVANCED_FACE('',(#417,#418),#22,.T.);
#470=ADVANCED_FACE('',(#419),#443,.T.);
#471=ADVANCED_FACE('',(#420),#444,.T.);
#472=ADVANCED_FACE('',(#421),#445,.F.);
#473=ADVANCED_FACE('',(#422),#446,.T.);
#474=ADVANCED_FACE('',(#423),#447,.T.);
#475=ADVANCED_FACE('',(#424),#448,.T.);
#476=ADVANCED_FACE('',(#425),#449,.T.);
#477=ADVANCED_FACE('',(#426),#450,.T.);
#478=ADVANCED_FACE('',(#427),#451,.F.);
#479=ADVANCED_FACE('',(#428),#452,.F.);
#480=ADVANCED_FACE('',(#429),#453,.T.);
#481=ADVANCED_FACE('',(#430),#454,.T.);
#482=ADVANCED_FACE('',(#431),#455,.F.);
#483=ADVANCED_FACE('',(#432),#456,.F.);
#484=ADVANCED_FACE('',(#433),#457,.F.);
#485=ADVANCED_FACE('',(#434),#458,.F.);
#486=ADVANCED_FACE('',(#435),#459,.T.);
#487=ADVANCED_FACE('',(#436),#460,.T.);
#488=ADVANCED_FACE('',(#437),#461,.T.);
#489=ADVANCED_FACE('',(#438,#439),#462,.T.);
#490=ADVANCED_FACE('',(#440),#463,.T.);
#491=CLOSED_SHELL('',(#464,#465,#466,#467,#468,#469,#470,#471,#472,#473,
#474,#475,#476,#477,#478,#479,#480,#481,#482,#483,#484,#485,#486,#487,#488,
#489,#490));
#492=STYLED_ITEM('',(#493),#500);
#493=PRESENTATION_STYLE_ASSIGNMENT((#494));
#494=SURFACE_STYLE_USAGE(.BOTH.,#495);
#495=SURFACE_SIDE_STYLE('',(#496));
#496=SURFACE_STYLE_FILL_AREA(#497);
#497=FILL_AREA_STYLE('',(#498));
#498=FILL_AREA_STYLE_COLOUR('',#499);
#499=COLOUR_RGB('',0.682352941176471,0.333333333333334,0.737254901960784);
#500=MANIFOLD_SOLID_BREP('Part 1',#491);
#501=SHAPE_DEFINITION_REPRESENTATION(#917,#502);
#502=SHAPE_REPRESENTATION('Part 1',(#503),#912);
#503=AXIS2_PLACEMENT_3D('',#660,#538,#539);
#504=AXIS2_PLACEMENT_3D('',#661,#540,#541);
#505=AXIS2_PLACEMENT_3D('',#793,#545,#546);
#506=AXIS2_PLACEMENT_3D('',#797,#548,#549);
#507=AXIS2_PLACEMENT_3D('',#801,#551,#552);
#508=AXIS2_PLACEMENT_3D('',#802,#553,#554);
#509=AXIS2_PLACEMENT_3D('',#803,#555,#556);
#510=AXIS2_PLACEMENT_3D('',#808,#558,#559);
#511=AXIS2_PLACEMENT_3D('',#811,#561,#562);
#512=AXIS2_PLACEMENT_3D('',#814,#564,#565);
#513=AXIS2_PLACEMENT_3D('',#817,#567,#568);
#514=AXIS2_PLACEMENT_3D('',#820,#570,#571);
#515=AXIS2_PLACEMENT_3D('',#824,#573,#574);
#516=AXIS2_PLACEMENT_3D('',#828,#576,#577);
#517=AXIS2_PLACEMENT_3D('',#831,#579,#580);
#518=AXIS2_PLACEMENT_3D('',#841,#586,#587);
#519=AXIS2_PLACEMENT_3D('',#846,#592,#593);
#520=AXIS2_PLACEMENT_3D('',#849,#596,#597);
#521=AXIS2_PLACEMENT_3D('',#850,#598,#599);
#522=AXIS2_PLACEMENT_3D('',#851,#600,#601);
#523=AXIS2_PLACEMENT_3D('',#852,#602,#603);
#524=AXIS2_PLACEMENT_3D('',#853,#604,#605);
#525=AXIS2_PLACEMENT_3D('',#862,#610,#611);
#526=AXIS2_PLACEMENT_3D('',#868,#615,#616);
#527=AXIS2_PLACEMENT_3D('',#874,#620,#621);
#528=AXIS2_PLACEMENT_3D('',#880,#625,#626);
#529=AXIS2_PLACEMENT_3D('',#884,#629,#630);
#530=AXIS2_PLACEMENT_3D('',#888,#633,#634);
#531=AXIS2_PLACEMENT_3D('',#892,#637,#638);
#532=AXIS2_PLACEMENT_3D('',#896,#641,#642);
#533=AXIS2_PLACEMENT_3D('',#900,#645,#646);
#534=AXIS2_PLACEMENT_3D('',#904,#649,#650);
#535=AXIS2_PLACEMENT_3D('',#906,#652,#653);
#536=AXIS2_PLACEMENT_3D('',#909,#656,#657);
#537=AXIS2_PLACEMENT_3D('',#910,#658,#659);
#538=DIRECTION('',(0.,0.,1.));
#539=DIRECTION('',(1.,0.,0.));
#540=DIRECTION('',(0.,0.,1.));
#541=DIRECTION('',(1.,0.,0.));
#542=DIRECTION('',(1.,0.,0.));
#543=DIRECTION('',(0.285957188962352,-0.958242394220142,0.));
#544=DIRECTION('',(-0.285957188962352,-0.958242394220142,0.));
#545=DIRECTION('',(0.,0.,1.));
#546=DIRECTION('',(1.,0.,0.));
#547=DIRECTION('',(0.,0.,1.));
#548=DIRECTION('',(0.,0.,-1.));
#549=DIRECTION('',(-1.,0.,0.));
#550=DIRECTION('',(0.,0.,1.));
#551=DIRECTION('',(0.,0.,-1.));
#552=DIRECTION('',(-1.,0.,0.));
#553=DIRECTION('',(0.,0.,1.));
#554=DIRECTION('',(1.,0.,0.));
#555=DIRECTION('',(0.,0.,-1.));
#556=DIRECTION('',(-1.,0.,0.));
#557=DIRECTION('',(0.,0.,1.));
#558=DIRECTION('',(0.,0.,-1.));
#559=DIRECTION('',(-1.,0.,0.));
#560=DIRECTION('',(0.,0.,1.));
#561=DIRECTION('',(0.,0.,-1.));
#562=DIRECTION('',(1.,0.,0.));
#563=DIRECTION('',(1.,3.71639862219125E-16,0.));
#564=DIRECTION('',(0.,0.,1.));
#565=DIRECTION('',(1.,0.,0.));
#566=DIRECTION('',(1.,3.71639862219125E-16,0.));
#567=DIRECTION('',(0.,0.,-1.));
#568=DIRECTION('',(-1.,0.,0.));
#569=DIRECTION('',(0.,0.,1.));
#570=DIRECTION('',(0.,0.,-1.));
#571=DIRECTION('',(-1.,0.,0.));
#572=DIRECTION('',(0.,0.,1.));
#573=DIRECTION('',(0.,0.,1.));
#574=DIRECTION('',(1.,0.,0.));
#575=DIRECTION('',(0.,0.,1.));
#576=DIRECTION('',(0.,0.,-1.));
#577=DIRECTION('',(-1.,0.,0.));
#578=DIRECTION('',(0.,0.,1.));
#579=DIRECTION('',(0.,0.,1.));
#580=DIRECTION('',(1.,0.,0.));
#581=DIRECTION('',(1.,0.,0.));
#582=DIRECTION('',(-1.,0.,0.));
#583=DIRECTION('',(-0.285957188962352,0.958242394220142,0.));
#584=DIRECTION('',(1.,0.,0.));
#585=DIRECTION('',(0.285957188962352,0.958242394220142,0.));
#586=DIRECTION('',(0.,0.,-1.));
#587=DIRECTION('',(1.,0.,0.));
#588=DIRECTION('',(1.,3.71639862219125E-16,0.));
#589=DIRECTION('',(1.,3.71639862219125E-16,0.));
#590=DIRECTION('',(-1.,-1.33894854141351E-16,0.));
#591=DIRECTION('',(-1.,-1.33894854141351E-16,0.));
#592=DIRECTION('',(0.,0.,-1.));
#593=DIRECTION('',(1.,0.,0.));
#594=DIRECTION('',(-1.,-1.33894854141351E-16,0.));
#595=DIRECTION('',(-1.,-1.33894854141351E-16,0.));
#596=DIRECTION('',(3.71639862219125E-16,-1.,0.));
#597=DIRECTION('',(1.,3.71639862219125E-16,0.));
#598=DIRECTION('',(-1.33894854141351E-16,1.,0.));
#599=DIRECTION('',(-1.,-1.33894854141351E-16,0.));
#600=DIRECTION('',(-1.33894854141351E-16,1.,0.));
#601=DIRECTION('',(-1.,-1.33894854141351E-16,0.));
#602=DIRECTION('',(3.71639862219125E-16,-1.,0.));
#603=DIRECTION('',(1.,3.71639862219125E-16,0.));
#604=DIRECTION('',(0.,-1.,0.));
#605=DIRECTION('',(0.,0.,-1.));
#606=DIRECTION('',(1.,0.,0.));
#607=DIRECTION('',(0.,0.,1.));
#608=DIRECTION('',(1.,0.,0.));
#609=DIRECTION('',(0.,0.,1.));
#610=DIRECTION('',(0.958242394220142,-0.285957188962352,0.));
#611=DIRECTION('',(0.285957188962352,0.958242394220142,0.));
#612=DIRECTION('',(0.285957188962352,0.958242394220142,0.));
#613=DIRECTION('',(0.,0.,1.));
#614=DIRECTION('',(0.285957188962352,0.958242394220142,0.));
#615=DIRECTION('',(0.,-1.,0.));
#616=DIRECTION('',(0.,0.,-1.));
#617=DIRECTION('',(1.,0.,0.));
#618=DIRECTION('',(0.,0.,1.));
#619=DIRECTION('',(1.,0.,0.));
#620=DIRECTION('',(-0.958242394220142,-0.285957188962352,0.));
#621=DIRECTION('',(0.285957188962352,-0.958242394220142,0.));
#622=DIRECTION('',(0.,0.,1.));
#623=DIRECTION('',(0.285957188962352,-0.958242394220142,0.));
#624=DIRECTION('',(0.,0.,1.));
#625=DIRECTION('',(0.,-1.,0.));
#626=DIRECTION('',(0.,0.,-1.));
#627=DIRECTION('',(0.,0.,1.));
#628=DIRECTION('',(1.,0.,0.));
#629=DIRECTION('',(-0.958242394220142,0.285957188962352,0.));
#630=DIRECTION('',(-0.285957188962352,-0.958242394220142,0.));
#631=DIRECTION('',(0.,0.,1.));
#632=DIRECTION('',(-0.285957188962352,-0.958242394220142,0.));
#633=DIRECTION('',(0.,-1.,0.));
#634=DIRECTION('',(0.,0.,-1.));
#635=DIRECTION('',(0.,0.,1.));
#636=DIRECTION('',(1.,0.,0.));
#637=DIRECTION('',(0.958242394220142,-0.285957188962352,0.));
#638=DIRECTION('',(0.285957188962352,0.958242394220142,0.));
#639=DIRECTION('',(0.,0.,1.));
#640=DIRECTION('',(0.285957188962352,0.958242394220142,0.));
#641=DIRECTION('',(0.,-1.,0.));
#642=DIRECTION('',(0.,0.,-1.));
#643=DIRECTION('',(0.,0.,1.));
#644=DIRECTION('',(1.,0.,0.));
#645=DIRECTION('',(0.958242394220142,0.285957188962352,0.));
#646=DIRECTION('',(-0.285957188962352,0.958242394220142,0.));
#647=DIRECTION('',(0.,0.,1.));
#648=DIRECTION('',(-0.285957188962352,0.958242394220142,0.));
#649=DIRECTION('',(0.,1.,0.));
#650=DIRECTION('',(0.,0.,1.));
#651=DIRECTION('',(-1.,0.,0.));
#652=DIRECTION('',(0.958242394220142,0.285957188962352,0.));
#653=DIRECTION('',(-0.285957188962352,0.958242394220142,0.));
#654=DIRECTION('',(-0.285957188962352,0.958242394220142,0.));
#655=DIRECTION('',(-0.285957188962352,0.958242394220142,0.));
#656=DIRECTION('',(0.,0.,1.));
#657=DIRECTION('',(1.,0.,0.));
#658=DIRECTION('',(0.,0.,1.));
#659=DIRECTION('',(1.,0.,0.));
#660=CARTESIAN_POINT('',(0.,0.,0.));
#661=CARTESIAN_POINT('',(0.,0.,0.005));
#662=CARTESIAN_POINT('',(0.000640986672677256,0.00265165042944955,0.005));
#663=CARTESIAN_POINT('',(-0.00128197334535451,0.00265165042944955,0.005));
#664=CARTESIAN_POINT('',(0.00128197334535451,0.00265165042944955,0.005));
#665=CARTESIAN_POINT('',(0.0020732746982166,0.,0.005));
#666=CARTESIAN_POINT('',(0.00281325159969413,-0.00247966221906309,0.005));
#667=CARTESIAN_POINT('',(0.00281336261543191,-0.00247976035445375,0.005));
#668=CARTESIAN_POINT('',(0.0032890346181275,-0.00194165602772746,0.005));
#669=CARTESIAN_POINT('',(0.00391683195011208,-0.000593672369562057,0.005));
#670=CARTESIAN_POINT('',(0.00360950148268958,0.00163223465991217,0.005));
#671=CARTESIAN_POINT('',(0.0021506838459395,0.00332728757071704,0.005));
#672=CARTESIAN_POINT('',(-4.88855701851146E-7,0.00396125451862601,0.005));
#673=CARTESIAN_POINT('',(-0.00214989680869834,0.00332769455768229,0.005));
#674=CARTESIAN_POINT('',(-0.00360983324963083,0.00163187892935725,0.005));
#675=CARTESIAN_POINT('',(-0.00391650569452641,-0.000593667085470245,0.005));
#676=CARTESIAN_POINT('',(-0.00328962685008428,-0.00194080961821543,0.005));
#677=CARTESIAN_POINT('',(-0.00281333294611453,-0.00247971141770936,0.005));
#678=CARTESIAN_POINT('',(-0.00281324240002489,-0.00247963139097617,0.005));
#679=CARTESIAN_POINT('',(-0.0020732746982166,4.33680868994202E-19,0.005));
#680=CARTESIAN_POINT('',(-0.00353194460322065,0.00146299156988739,0.005));
#681=CARTESIAN_POINT('',(-0.0038229517198434,1.30104260698261E-18,0.005));
#682=CARTESIAN_POINT('',(-0.00353194460322059,-0.00146299156988739,0.005));
#683=CARTESIAN_POINT('',(-0.00270322644887195,-0.00270325593531102,0.005));
#684=CARTESIAN_POINT('',(-0.00146296208344829,-0.00353197408965961,0.005));
#685=CARTESIAN_POINT('',(2.94864391111366E-8,-0.00382298120628237,0.005));
#686=CARTESIAN_POINT('',(0.0014630210563265,-0.00353197408965955,0.005));
#687=CARTESIAN_POINT('',(0.00270328542175013,-0.00270325593531092,0.005));
#688=CARTESIAN_POINT('',(0.00353200357609872,-0.00146299156988725,0.005));
#689=CARTESIAN_POINT('',(0.00382301069272148,1.47950480582023E-16,0.005));
#690=CARTESIAN_POINT('',(0.00353200357609867,0.00146299156988754,0.005));
#691=CARTESIAN_POINT('',(0.00270328542175003,0.00270325593531117,0.005));
#692=CARTESIAN_POINT('',(0.00146302105632636,0.00353197408965976,0.005));
#693=CARTESIAN_POINT('',(2.94864389623502E-8,0.00382298120628252,0.005));
#694=CARTESIAN_POINT('',(-0.00146296208344843,0.0035319740896597,0.005));
#695=CARTESIAN_POINT('',(-0.00270322644887206,0.00270325593531106,0.005));
#696=CARTESIAN_POINT('',(-0.00353194460322065,0.00146299156988739,0.005));
#697=CARTESIAN_POINT('',(-0.0038229517198434,1.30104260698261E-18,0.005));
#698=CARTESIAN_POINT('',(-0.00353194460322059,-0.00146299156988739,0.005));
#699=CARTESIAN_POINT('',(-0.00481097272253213,0.00199278236356276,0.00500793252918069));
#700=CARTESIAN_POINT('',(-0.00520736178014079,1.95156391047391E-18,0.00500793252918069));
#701=CARTESIAN_POINT('',(-0.00481097272253206,-0.00199278236356276,0.00500793252918069));
#702=CARTESIAN_POINT('',(-0.00368215219045112,-0.00368218167689018,0.00500793252918069));
#703=CARTESIAN_POINT('',(-0.00199275287712365,-0.00481100220897109,0.00500793252918069));
#704=CARTESIAN_POINT('',(2.94864391106114E-8,-0.00520739126657976,0.00500793252918069));
#705=CARTESIAN_POINT('',(0.00199281185000187,-0.00481100220897103,0.00500793252918069));
#706=CARTESIAN_POINT('',(0.00368221116332929,-0.00368218167689008,0.00500793252918068));
#707=CARTESIAN_POINT('',(0.0048110316954102,-0.00199278236356262,0.00500793252918069));
#708=CARTESIAN_POINT('',(0.00520742075301887,1.48594305031275E-16,0.00500793252918068));
#709=CARTESIAN_POINT('',(0.00481103169541015,0.0019927823635629,0.00500793252918068));
#710=CARTESIAN_POINT('',(0.00368221116332919,0.00368218167689033,0.00500793252918068));
#711=CARTESIAN_POINT('',(0.00199281185000173,0.00481100220897123,0.00500793252918068));
#712=CARTESIAN_POINT('',(2.94864389634394E-8,0.00520739126657991,0.00500793252918068));
#713=CARTESIAN_POINT('',(-0.0019927528771238,0.00481100220897118,0.00500793252918069));
#714=CARTESIAN_POINT('',(-0.00368215219045122,0.00368218167689022,0.00500793252918069));
#715=CARTESIAN_POINT('',(-0.00481097272253213,0.00199278236356276,0.00500793252918069));
#716=CARTESIAN_POINT('',(-0.00520736178014079,1.95156391047391E-18,0.00500793252918069));
#717=CARTESIAN_POINT('',(-0.00481097272253206,-0.00199278236356276,0.00500793252918069));
#718=CARTESIAN_POINT('',(-0.00545062957278933,0.00225773690620414,0.00434137431886636));
#719=CARTESIAN_POINT('',(-0.00589972136572279,3.08997619158369E-18,0.00434137431886636));
#720=CARTESIAN_POINT('',(-0.00545062957278927,-0.00225773690620415,0.00434137431886636));
#721=CARTESIAN_POINT('',(-0.00417172434843565,-0.00417175383487472,0.00434137431886635));
#722=CARTESIAN_POINT('',(-0.00225770741976505,-0.00545065905922829,0.00434137431886636));
#723=CARTESIAN_POINT('',(2.9486439112153E-8,-0.00589975085216175,0.00434137431886636));
#724=CARTESIAN_POINT('',(0.00225776639264325,-0.00545065905922824,0.00434137431886635));
#725=CARTESIAN_POINT('',(0.00417178332131384,-0.00417175383487461,0.00434137431886636));
#726=CARTESIAN_POINT('',(0.0054506885456674,-0.00225773690620401,0.00434137431886636));
#727=CARTESIAN_POINT('',(0.00589978033860087,1.46813610165575E-16,0.00434137431886636));
#728=CARTESIAN_POINT('',(0.00545068854566734,0.0022577369062043,0.00434137431886636));
#729=CARTESIAN_POINT('',(0.00417178332131372,0.00417175383487487,0.00434137431886636));
#730=CARTESIAN_POINT('',(0.00225776639264312,0.00545065905922844,0.00434137431886635));
#731=CARTESIAN_POINT('',(2.94864389618504E-8,0.0058997508521619,0.00434137431886636));
#732=CARTESIAN_POINT('',(-0.00225770741976518,0.00545065905922838,0.00434137431886636));
#733=CARTESIAN_POINT('',(-0.00417172434843577,0.00417175383487476,0.00434137431886636));
#734=CARTESIAN_POINT('',(-0.00545062957278933,0.00225773690620414,0.00434137431886636));
#735=CARTESIAN_POINT('',(-0.00589972136572279,3.08997619158369E-18,0.00434137431886636));
#736=CARTESIAN_POINT('',(-0.00545062957278927,-0.00225773690620415,0.00434137431886636));
#737=CARTESIAN_POINT('',(-0.0054506067262931,0.00225772744287555,0.003));
#738=CARTESIAN_POINT('',(-0.00589969663685347,2.54787510534094E-18,0.003));
#739=CARTESIAN_POINT('',(-0.00545060672629304,-0.00225772744287556,0.003));
#740=CARTESIAN_POINT('',(-0.00417170686248446,-0.00417173634892353,0.003));
#741=CARTESIAN_POINT('',(-0.00225769795643645,-0.00545063621273206,0.003));
#742=CARTESIAN_POINT('',(2.94864391101777E-8,-0.00589972612329243,0.003));
#743=CARTESIAN_POINT('',(0.00225775692931467,-0.005450636212732,0.003));
#744=CARTESIAN_POINT('',(0.00417176583536264,-0.00417173634892343,0.003));
#745=CARTESIAN_POINT('',(0.00545066569917117,-0.00225772744287542,0.003));
#746=CARTESIAN_POINT('',(0.00589975560973154,1.46850181474817E-16,0.003));
#747=CARTESIAN_POINT('',(0.00545066569917112,0.0022577274428757,0.003));
#748=CARTESIAN_POINT('',(0.00417176583536254,0.00417173634892367,0.003));
#749=CARTESIAN_POINT('',(0.00225775692931453,0.00545063621273221,0.003));
#750=CARTESIAN_POINT('',(2.94864389628669E-8,0.00589972612329258,0.003));
#751=CARTESIAN_POINT('',(-0.00225769795643659,0.00545063621273215,0.003));
#752=CARTESIAN_POINT('',(-0.00417170686248457,0.00417173634892357,0.003));
#753=CARTESIAN_POINT('',(-0.0054506067262931,0.00225772744287555,0.003));
#754=CARTESIAN_POINT('',(-0.00589969663685347,2.54787510534094E-18,0.003));
#755=CARTESIAN_POINT('',(-0.00545060672629304,-0.00225772744287556,0.003));
#756=CARTESIAN_POINT('',(-0.00281324240002489,-0.00247963139097617,0.00499999999972873));
#757=CARTESIAN_POINT('',(-0.00283035859224869,-0.00253698774237963,0.00499999940848756));
#758=CARTESIAN_POINT('',(-0.00284747008478159,-0.00259432834512127,0.0049990346288847));
#759=CARTESIAN_POINT('',(-0.00286457605879829,-0.00265165045531792,0.00499693767075955));
#760=CARTESIAN_POINT('',(-0.00286457605107869,-0.00265165042944955,0.00499693612893975));
#761=CARTESIAN_POINT('',(0.00281325159969413,-0.00247966221906309,0.00499999999989025));
#762=CARTESIAN_POINT('',(0.00283036472362764,-0.00253700828862735,0.00499999962389929));
#763=CARTESIAN_POINT('',(0.00284747315223354,-0.00259433862415118,0.00499903540025318));
#764=CARTESIAN_POINT('',(0.00286457606761081,-0.00265165048484867,0.00499693943183255));
#765=CARTESIAN_POINT('',(0.00286457605107869,-0.00265165042944955,0.00499693612893975));
#766=CARTESIAN_POINT('',(0.00286457610036612,-0.00265165047507388,0.00499693777866487));
#767=CARTESIAN_POINT('',(0.0027936166792809,-0.00265165047507388,0.00499905777240209));
#768=CARTESIAN_POINT('',(0.00272264031998316,-0.00265165042944956,0.005));
#769=CARTESIAN_POINT('',(0.00265165040990416,-0.00265165042944956,0.005));
#770=CARTESIAN_POINT('',(0.00265165042944954,-0.00265165042944956,0.005));
#771=CARTESIAN_POINT('',(-0.0026516462901373,-0.00265165457040096,0.005));
#772=CARTESIAN_POINT('',(-0.00194922689684309,-0.00335435106103531,0.005));
#773=CARTESIAN_POINT('',(8.45659187313753E-7,-0.00414508757173405,0.005));
#774=CARTESIAN_POINT('',(0.00194754728853048,-0.00335547379781913,0.005));
#775=CARTESIAN_POINT('',(0.00265165042944955,-0.00265165042944956,0.005));
#776=CARTESIAN_POINT('',(-0.00265164214755233,-0.00265165042944955,0.005));
#777=CARTESIAN_POINT('',(-0.00286457607409359,-0.00265165045075352,0.00499693689904566));
#778=CARTESIAN_POINT('',(-0.00279361667149364,-0.00265165045075352,0.00499905754639184));
#779=CARTESIAN_POINT('',(-0.00272264031966225,-0.00265165042944955,0.005));
#780=CARTESIAN_POINT('',(-0.00265165040990416,-0.00265165042944955,0.005));
#781=CARTESIAN_POINT('',(0.00450576684312454,0.00450576684312454,0.003));
#782=CARTESIAN_POINT('',(0.00637211657843773,-1.64798730217797E-17,0.003));
#783=CARTESIAN_POINT('',(0.00450576684312453,-0.00450576684312455,0.003));
#784=CARTESIAN_POINT('',(-1.15196480826585E-17,-0.00637211657843773,0.003));
#785=CARTESIAN_POINT('',(-0.00450576684312454,-0.00450576684312454,0.003));
#786=CARTESIAN_POINT('',(-0.00637211657843773,4.66206934168767E-18,0.003));
#787=CARTESIAN_POINT('',(-0.00450576684312454,0.00450576684312454,0.003));
#788=CARTESIAN_POINT('',(3.95733792957209E-18,0.00637211657843773,0.003));
#789=CARTESIAN_POINT('',(0.00450576684312454,0.00450576684312454,0.003));
#790=CARTESIAN_POINT('',(0.00637211657843773,-1.64798730217797E-17,0.003));
#791=CARTESIAN_POINT('',(0.00450576684312453,-0.00450576684312455,0.003));
#792=CARTESIAN_POINT('',(0.00575,1.05625786426459E-18,0.003));
#793=CARTESIAN_POINT('',(0.,-0.000128466586677214,-0.0015));
#794=CARTESIAN_POINT('',(-0.00647793183353215,-0.0015,-0.001502));
#795=CARTESIAN_POINT('',(-0.00647793183353215,-0.0015,-0.0015));
#796=CARTESIAN_POINT('',(-0.00647793183353215,-0.0015,0.));
#797=CARTESIAN_POINT('',(0.,-0.000128466586677214,-0.0015));
#798=CARTESIAN_POINT('',(0.00647793183353215,-0.0015,-0.0015));
#799=CARTESIAN_POINT('',(0.00647793183353215,-0.0015,-0.001502));
#800=CARTESIAN_POINT('',(0.00647793183353215,-0.0015,0.));
#801=CARTESIAN_POINT('',(0.,-0.000128466586677214,0.));
#802=CARTESIAN_POINT('',(0.,-0.000128466586677214,-0.0015));
#803=CARTESIAN_POINT('',(0.,-0.000128466586677214,-0.0015));
#804=CARTESIAN_POINT('',(-0.00641816183340885,0.0015,-0.0015));
#805=CARTESIAN_POINT('',(0.00641816183340884,0.0015,-0.0015));
#806=CARTESIAN_POINT('',(-0.00641816183340885,0.0015,-0.001502));
#807=CARTESIAN_POINT('',(-0.00641816183340885,0.0015,0.));
#808=CARTESIAN_POINT('',(0.,-0.000128466586677214,0.));
#809=CARTESIAN_POINT('',(0.00641816183340884,0.0015,0.));
#810=CARTESIAN_POINT('',(0.00641816183340884,0.0015,-0.001502));
#811=CARTESIAN_POINT('',(0.,-0.000128466586677213,0.));
#812=CARTESIAN_POINT('',(-8.67361737988404E-19,0.0015,0.));
#813=CARTESIAN_POINT('',(-0.00555090082779363,0.0015,0.));
#814=CARTESIAN_POINT('',(0.,3.52085954754864E-19,0.));
#815=CARTESIAN_POINT('',(0.00555090082779363,0.0015,0.));
#816=CARTESIAN_POINT('',(-8.67361737988404E-19,0.0015,0.));
#817=CARTESIAN_POINT('',(0.,3.52085954754864E-19,0.005));
#818=CARTESIAN_POINT('',(-0.00555090082779363,0.0015,-0.001502));
#819=CARTESIAN_POINT('',(-0.00555090082779363,0.0015,-0.0015));
#820=CARTESIAN_POINT('',(0.,3.52085954754864E-19,-0.0015));
#821=CARTESIAN_POINT('',(-0.00555090082779363,-0.0015,-0.0015));
#822=CARTESIAN_POINT('',(-0.00555090082779363,-0.0015,-0.001502));
#823=CARTESIAN_POINT('',(-0.00555090082779363,-0.0015,0.));
#824=CARTESIAN_POINT('',(0.,3.52085954754864E-19,0.));
#825=CARTESIAN_POINT('',(0.00555090082779363,-0.0015,0.));
#826=CARTESIAN_POINT('',(0.00555090082779363,-0.0015,-0.001502));
#827=CARTESIAN_POINT('',(0.00555090082779363,-0.0015,-0.0015));
#828=CARTESIAN_POINT('',(0.,3.52085954754864E-19,-0.0015));
#829=CARTESIAN_POINT('',(0.00555090082779363,0.0015,-0.0015));
#830=CARTESIAN_POINT('',(0.00555090082779363,0.0015,-0.001502));
#831=CARTESIAN_POINT('',(0.,0.,0.005));
#832=CARTESIAN_POINT('',(-0.00212665733211462,-0.00265165042944955,0.005));
#833=CARTESIAN_POINT('',(-0.00138873861315053,-0.00265165042944955,0.005));
#834=CARTESIAN_POINT('',(0.00212665733211462,-0.00265165042944955,0.005));
#835=CARTESIAN_POINT('',(0.00138873861315053,-0.00265165042944955,0.005));
#836=CARTESIAN_POINT('',(0.00123561149403466,-0.00213852153146985,0.005));
#837=CARTESIAN_POINT('',(0.00108248437491879,-0.00162539263349014,0.005));
#838=CARTESIAN_POINT('',(-0.000541242187459395,-0.00162539263349014,0.005));
#839=CARTESIAN_POINT('',(-0.00108248437491879,-0.00162539263349014,0.005));
#840=CARTESIAN_POINT('',(-0.00123561149403466,-0.00213852153146985,0.005));
#841=CARTESIAN_POINT('',(0.,-0.000128466586677213,-0.0015));
#842=CARTESIAN_POINT('',(-8.67361737988404E-19,0.0015,-0.0015));
#843=CARTESIAN_POINT('',(-8.67361737988404E-19,0.0015,-0.0015));
#844=CARTESIAN_POINT('',(8.67361737988404E-19,-0.0015,-0.0015));
#845=CARTESIAN_POINT('',(8.67361737988404E-19,-0.0015,-0.0015));
#846=CARTESIAN_POINT('',(0.,-0.000128466586677213,0.));
#847=CARTESIAN_POINT('',(8.67361737988404E-19,-0.0015,0.));
#848=CARTESIAN_POINT('',(8.67361737988404E-19,-0.0015,0.));
#849=CARTESIAN_POINT('',(-8.67361737988404E-19,0.0015,-0.001502));
#850=CARTESIAN_POINT('',(8.67361737988404E-19,-0.0015,-0.001502));
#851=CARTESIAN_POINT('',(8.67361737988404E-19,-0.0015,-0.001502));
#852=CARTESIAN_POINT('',(-8.67361737988404E-19,0.0015,-0.001502));
#853=CARTESIAN_POINT('',(0.000330229024901726,-0.00021118263349014,0.004));
#854=CARTESIAN_POINT('',(0.000330229024901726,-0.00021118263349014,0.005));
#855=CARTESIAN_POINT('',(-0.000660458049803454,-0.000211182633490142,0.005));
#856=CARTESIAN_POINT('',(0.000660458049803454,-0.000211182633490143,0.005));
#857=CARTESIAN_POINT('',(-0.000660458049803454,-0.000211182633490142,0.004));
#858=CARTESIAN_POINT('',(-0.000660458049803454,-0.000211182633490142,0.004));
#859=CARTESIAN_POINT('',(0.000330229024901726,-0.00021118263349014,0.004));
#860=CARTESIAN_POINT('',(0.000660458049803454,-0.000211182633490143,0.004));
#861=CARTESIAN_POINT('',(0.000660458049803454,-0.000211182633490143,0.004));
#862=CARTESIAN_POINT('',(-0.00044431014117257,0.000513128897979706,0.004));
#863=CARTESIAN_POINT('',(-0.00044431014117257,0.000513128897979706,0.005));
#864=CARTESIAN_POINT('',(-0.000228162232541688,0.00123744042944955,0.005));
#865=CARTESIAN_POINT('',(-0.000228162232541688,0.00123744042944955,0.004));
#866=CARTESIAN_POINT('',(-0.000228162232541688,0.00123744042944955,0.004));
#867=CARTESIAN_POINT('',(-0.00044431014117257,0.000513128897979706,0.004));
#868=CARTESIAN_POINT('',(-0.000114081116270844,0.00123744042944955,0.004));
#869=CARTESIAN_POINT('',(-0.000114081116270844,0.00123744042944955,0.005));
#870=CARTESIAN_POINT('',(0.000228162232541688,0.00123744042944955,0.005));
#871=CARTESIAN_POINT('',(0.000228162232541688,0.00123744042944955,0.004));
#872=CARTESIAN_POINT('',(0.000228162232541688,0.00123744042944955,0.004));
#873=CARTESIAN_POINT('',(-0.000114081116270844,0.00123744042944955,0.004));
#874=CARTESIAN_POINT('',(0.0020732746982166,0.,0.004));
#875=CARTESIAN_POINT('',(0.00128197334535451,0.00265165042944955,0.004));
#876=CARTESIAN_POINT('',(0.00128197334535451,0.00265165042944955,0.004));
#877=CARTESIAN_POINT('',(0.0020732746982166,0.,0.004));
#878=CARTESIAN_POINT('',(0.00286457605107869,-0.00265165042944955,0.004));
#879=CARTESIAN_POINT('',(0.00286457605107869,-0.00265165042944955,0.004));
#880=CARTESIAN_POINT('',(0.000640986672677256,0.00265165042944955,0.004));
#881=CARTESIAN_POINT('',(-0.00128197334535451,0.00265165042944955,0.004));
#882=CARTESIAN_POINT('',(-0.00128197334535451,0.00265165042944955,0.004));
#883=CARTESIAN_POINT('',(0.000640986672677256,0.00265165042944955,0.004));
#884=CARTESIAN_POINT('',(-0.0020732746982166,4.33680868994202E-19,0.004));
#885=CARTESIAN_POINT('',(-0.00286457605107869,-0.00265165042944955,0.004));
#886=CARTESIAN_POINT('',(-0.00286457605107869,-0.00265165042944955,0.004));
#887=CARTESIAN_POINT('',(-0.0020732746982166,4.33680868994202E-19,0.004));
#888=CARTESIAN_POINT('',(-0.00212665733211462,-0.00265165042944955,0.004));
#889=CARTESIAN_POINT('',(-0.00138873861315053,-0.00265165042944955,0.004));
#890=CARTESIAN_POINT('',(-0.00138873861315053,-0.00265165042944955,0.004));
#891=CARTESIAN_POINT('',(-0.00212665733211462,-0.00265165042944955,0.004));
#892=CARTESIAN_POINT('',(-0.00123561149403466,-0.00213852153146985,0.004));
#893=CARTESIAN_POINT('',(-0.00108248437491879,-0.00162539263349014,0.004));
#894=CARTESIAN_POINT('',(-0.00108248437491879,-0.00162539263349014,0.004));
#895=CARTESIAN_POINT('',(-0.00123561149403466,-0.00213852153146985,0.004));
#896=CARTESIAN_POINT('',(-0.000541242187459395,-0.00162539263349014,0.004));
#897=CARTESIAN_POINT('',(0.00108248437491879,-0.00162539263349014,0.004));
#898=CARTESIAN_POINT('',(0.00108248437491879,-0.00162539263349014,0.004));
#899=CARTESIAN_POINT('',(-0.000541242187459395,-0.00162539263349014,0.004));
#900=CARTESIAN_POINT('',(0.00123561149403466,-0.00213852153146985,0.004));
#901=CARTESIAN_POINT('',(0.00138873861315053,-0.00265165042944955,0.004));
#902=CARTESIAN_POINT('',(0.00138873861315053,-0.00265165042944955,0.004));
#903=CARTESIAN_POINT('',(0.00123561149403466,-0.00213852153146985,0.004));
#904=CARTESIAN_POINT('',(0.00212665733211462,-0.00265165042944955,0.004));
#905=CARTESIAN_POINT('',(0.00212665733211462,-0.00265165042944955,0.004));
#906=CARTESIAN_POINT('',(0.00044431014117257,0.000513128897979706,0.004));
#907=CARTESIAN_POINT('',(0.00044431014117257,0.000513128897979706,0.005));
#908=CARTESIAN_POINT('',(0.00044431014117257,0.000513128897979706,0.004));
#909=CARTESIAN_POINT('',(0.0261621644641273,-0.0279750306723765,0.004));
#910=CARTESIAN_POINT('',(0.,0.,0.005));
#911=MECHANICAL_DESIGN_GEOMETRIC_PRESENTATION_REPRESENTATION('',(#492),
#912);
#912=(
GEOMETRIC_REPRESENTATION_CONTEXT(3)
GLOBAL_UNCERTAINTY_ASSIGNED_CONTEXT((#913))
GLOBAL_UNIT_ASSIGNED_CONTEXT((#916,#915,#914))
REPRESENTATION_CONTEXT('Part 1','TOP_LEVEL_ASSEMBLY_PART')
);
#913=UNCERTAINTY_MEASURE_WITH_UNIT(LENGTH_MEASURE(2.08302541866268E-5),
#916,'DISTANCE_ACCURACY_VALUE','Maximum Tolerance applied to model');
#914=(
NAMED_UNIT(*)
SI_UNIT($,.STERADIAN.)
SOLID_ANGLE_UNIT()
);
#915=(
NAMED_UNIT(*)
PLANE_ANGLE_UNIT()
SI_UNIT($,.RADIAN.)
);
#916=(
LENGTH_UNIT()
NAMED_UNIT(*)
SI_UNIT($,.METRE.)
);
#917=PRODUCT_DEFINITION_SHAPE('','',#918);
#918=PRODUCT_DEFINITION('','',#920,#919);
#919=PRODUCT_DEFINITION_CONTEXT('',#926,'design');
#920=PRODUCT_DEFINITION_FORMATION_WITH_SPECIFIED_SOURCE('','',#922,
 .NOT_KNOWN.);
#921=PRODUCT_RELATED_PRODUCT_CATEGORY('','',(#922));
#922=PRODUCT('Part 1','Part 1','Part 1',(#924));
#923=PRODUCT_CATEGORY('','');
#924=PRODUCT_CONTEXT('',#926,'mechanical');
#925=APPLICATION_PROTOCOL_DEFINITION('international standard',
'ap242_managed_model_based_3d_engineering',2020,#926);
#926=APPLICATION_CONTEXT('managed model based 3d engineering');
ENDSEC;
END-ISO-10303-21;
