ISO-10303-21;
HEADER;
/* Generated by software containing ST-Developer
 * from STEP Tools, Inc. (www.steptools.com) 
 */
/* OPTION: using custom renumber hook */

FILE_DESCRIPTION(
/* description */ ('STEP AP242 Edition 2',
'CAx-IF Rec.Pracs.---Representation and Presentation of Product Manufa
cturing Information (PMI)---4.0---2014-10-13',
'CAx-IF Rec.Pracs.---3D Tessellated Geometry---0.4---2014-09-14','2;1',
'CAx-IF Rec.Pracs.---User Defined Attributes---1.5---2016-08-15'),
/* implementation_level */ '2;1');

FILE_NAME(
/* name */ 'S_TOP - Heart',
/* time_stamp */ '2026-09-22T20:44:03Z',
/* author */ (''),
/* organization */ (''),
/* preprocessor_version */ 'ST-DEVELOPER v20',
/* originating_system */ 'ONSHAPE BY PTC INC, 1.221',
/* authorisation */ '  ');

FILE_SCHEMA (('AP242_MANAGED_MODEL_BASED_3D_ENGINEERING_MIM_LF { 1 0 10303 442 3 1 4 }'));
ENDSEC;

DATA;
#10=SHAPE_REPRESENTATION_RELATIONSHIP('','',#1135,#11);
#11=ADVANCED_BREP_SHAPE_REPRESENTATION('',(#1133),#1773);
#12=ORIENTED_EDGE('',*,*,#324,.T.);
#13=ORIENTED_EDGE('',*,*,#325,.F.);
#14=ORIENTED_EDGE('',*,*,#326,.F.);
#15=ORIENTED_EDGE('',*,*,#327,.T.);
#16=ORIENTED_EDGE('',*,*,#328,.T.);
#17=ORIENTED_EDGE('',*,*,#329,.F.);
#18=ORIENTED_EDGE('',*,*,#330,.F.);
#19=ORIENTED_EDGE('',*,*,#325,.T.);
#20=ORIENTED_EDGE('',*,*,#331,.T.);
#21=ORIENTED_EDGE('',*,*,#332,.F.);
#22=ORIENTED_EDGE('',*,*,#333,.F.);
#23=ORIENTED_EDGE('',*,*,#329,.T.);
#24=ORIENTED_EDGE('',*,*,#334,.T.);
#25=ORIENTED_EDGE('',*,*,#335,.F.);
#26=ORIENTED_EDGE('',*,*,#336,.F.);
#27=ORIENTED_EDGE('',*,*,#332,.T.);
#28=ORIENTED_EDGE('',*,*,#337,.T.);
#29=ORIENTED_EDGE('',*,*,#338,.F.);
#30=ORIENTED_EDGE('',*,*,#339,.F.);
#31=ORIENTED_EDGE('',*,*,#335,.T.);
#32=ORIENTED_EDGE('',*,*,#340,.T.);
#33=ORIENTED_EDGE('',*,*,#341,.F.);
#34=ORIENTED_EDGE('',*,*,#342,.F.);
#35=ORIENTED_EDGE('',*,*,#338,.T.);
#36=ORIENTED_EDGE('',*,*,#343,.T.);
#37=ORIENTED_EDGE('',*,*,#344,.F.);
#38=ORIENTED_EDGE('',*,*,#345,.F.);
#39=ORIENTED_EDGE('',*,*,#341,.T.);
#40=ORIENTED_EDGE('',*,*,#346,.T.);
#41=ORIENTED_EDGE('',*,*,#347,.F.);
#42=ORIENTED_EDGE('',*,*,#348,.F.);
#43=ORIENTED_EDGE('',*,*,#344,.T.);
#44=ORIENTED_EDGE('',*,*,#349,.T.);
#45=ORIENTED_EDGE('',*,*,#350,.F.);
#46=ORIENTED_EDGE('',*,*,#351,.F.);
#47=ORIENTED_EDGE('',*,*,#347,.T.);
#48=ORIENTED_EDGE('',*,*,#352,.T.);
#49=ORIENTED_EDGE('',*,*,#353,.F.);
#50=ORIENTED_EDGE('',*,*,#354,.F.);
#51=ORIENTED_EDGE('',*,*,#350,.T.);
#52=ORIENTED_EDGE('',*,*,#355,.T.);
#53=ORIENTED_EDGE('',*,*,#356,.F.);
#54=ORIENTED_EDGE('',*,*,#357,.F.);
#55=ORIENTED_EDGE('',*,*,#353,.T.);
#56=ORIENTED_EDGE('',*,*,#358,.T.);
#57=ORIENTED_EDGE('',*,*,#359,.F.);
#58=ORIENTED_EDGE('',*,*,#360,.F.);
#59=ORIENTED_EDGE('',*,*,#356,.T.);
#60=ORIENTED_EDGE('',*,*,#361,.T.);
#61=ORIENTED_EDGE('',*,*,#362,.F.);
#62=ORIENTED_EDGE('',*,*,#363,.F.);
#63=ORIENTED_EDGE('',*,*,#359,.T.);
#64=ORIENTED_EDGE('',*,*,#364,.T.);
#65=ORIENTED_EDGE('',*,*,#365,.F.);
#66=ORIENTED_EDGE('',*,*,#366,.F.);
#67=ORIENTED_EDGE('',*,*,#362,.T.);
#68=ORIENTED_EDGE('',*,*,#367,.T.);
#69=ORIENTED_EDGE('',*,*,#368,.F.);
#70=ORIENTED_EDGE('',*,*,#369,.F.);
#71=ORIENTED_EDGE('',*,*,#365,.T.);
#72=ORIENTED_EDGE('',*,*,#370,.T.);
#73=ORIENTED_EDGE('',*,*,#371,.F.);
#74=ORIENTED_EDGE('',*,*,#372,.F.);
#75=ORIENTED_EDGE('',*,*,#368,.T.);
#76=ORIENTED_EDGE('',*,*,#373,.T.);
#77=ORIENTED_EDGE('',*,*,#374,.F.);
#78=ORIENTED_EDGE('',*,*,#375,.F.);
#79=ORIENTED_EDGE('',*,*,#371,.T.);
#80=ORIENTED_EDGE('',*,*,#376,.T.);
#81=ORIENTED_EDGE('',*,*,#377,.F.);
#82=ORIENTED_EDGE('',*,*,#378,.F.);
#83=ORIENTED_EDGE('',*,*,#374,.T.);
#84=ORIENTED_EDGE('',*,*,#379,.T.);
#85=ORIENTED_EDGE('',*,*,#380,.F.);
#86=ORIENTED_EDGE('',*,*,#381,.F.);
#87=ORIENTED_EDGE('',*,*,#377,.T.);
#88=ORIENTED_EDGE('',*,*,#382,.T.);
#89=ORIENTED_EDGE('',*,*,#383,.F.);
#90=ORIENTED_EDGE('',*,*,#384,.F.);
#91=ORIENTED_EDGE('',*,*,#380,.T.);
#92=ORIENTED_EDGE('',*,*,#385,.T.);
#93=ORIENTED_EDGE('',*,*,#386,.F.);
#94=ORIENTED_EDGE('',*,*,#387,.F.);
#95=ORIENTED_EDGE('',*,*,#383,.T.);
#96=ORIENTED_EDGE('',*,*,#388,.T.);
#97=ORIENTED_EDGE('',*,*,#389,.F.);
#98=ORIENTED_EDGE('',*,*,#390,.F.);
#99=ORIENTED_EDGE('',*,*,#386,.T.);
#100=ORIENTED_EDGE('',*,*,#391,.T.);
#101=ORIENTED_EDGE('',*,*,#392,.F.);
#102=ORIENTED_EDGE('',*,*,#393,.F.);
#103=ORIENTED_EDGE('',*,*,#389,.T.);
#104=ORIENTED_EDGE('',*,*,#394,.T.);
#105=ORIENTED_EDGE('',*,*,#395,.F.);
#106=ORIENTED_EDGE('',*,*,#396,.F.);
#107=ORIENTED_EDGE('',*,*,#392,.T.);
#108=ORIENTED_EDGE('',*,*,#397,.T.);
#109=ORIENTED_EDGE('',*,*,#398,.F.);
#110=ORIENTED_EDGE('',*,*,#399,.F.);
#111=ORIENTED_EDGE('',*,*,#395,.T.);
#112=ORIENTED_EDGE('',*,*,#400,.T.);
#113=ORIENTED_EDGE('',*,*,#401,.F.);
#114=ORIENTED_EDGE('',*,*,#402,.F.);
#115=ORIENTED_EDGE('',*,*,#398,.T.);
#116=ORIENTED_EDGE('',*,*,#403,.T.);
#117=ORIENTED_EDGE('',*,*,#404,.F.);
#118=ORIENTED_EDGE('',*,*,#405,.F.);
#119=ORIENTED_EDGE('',*,*,#401,.T.);
#120=ORIENTED_EDGE('',*,*,#406,.T.);
#121=ORIENTED_EDGE('',*,*,#407,.F.);
#122=ORIENTED_EDGE('',*,*,#408,.F.);
#123=ORIENTED_EDGE('',*,*,#404,.T.);
#124=ORIENTED_EDGE('',*,*,#409,.T.);
#125=ORIENTED_EDGE('',*,*,#410,.F.);
#126=ORIENTED_EDGE('',*,*,#411,.F.);
#127=ORIENTED_EDGE('',*,*,#407,.T.);
#128=ORIENTED_EDGE('',*,*,#412,.T.);
#129=ORIENTED_EDGE('',*,*,#413,.F.);
#130=ORIENTED_EDGE('',*,*,#414,.F.);
#131=ORIENTED_EDGE('',*,*,#410,.T.);
#132=ORIENTED_EDGE('',*,*,#415,.T.);
#133=ORIENTED_EDGE('',*,*,#416,.F.);
#134=ORIENTED_EDGE('',*,*,#417,.F.);
#135=ORIENTED_EDGE('',*,*,#413,.T.);
#136=ORIENTED_EDGE('',*,*,#418,.T.);
#137=ORIENTED_EDGE('',*,*,#419,.F.);
#138=ORIENTED_EDGE('',*,*,#420,.F.);
#139=ORIENTED_EDGE('',*,*,#416,.T.);
#140=ORIENTED_EDGE('',*,*,#421,.T.);
#141=ORIENTED_EDGE('',*,*,#422,.F.);
#142=ORIENTED_EDGE('',*,*,#423,.F.);
#143=ORIENTED_EDGE('',*,*,#419,.T.);
#144=ORIENTED_EDGE('',*,*,#424,.T.);
#145=ORIENTED_EDGE('',*,*,#425,.F.);
#146=ORIENTED_EDGE('',*,*,#426,.F.);
#147=ORIENTED_EDGE('',*,*,#422,.T.);
#148=ORIENTED_EDGE('',*,*,#427,.T.);
#149=ORIENTED_EDGE('',*,*,#428,.F.);
#150=ORIENTED_EDGE('',*,*,#429,.F.);
#151=ORIENTED_EDGE('',*,*,#425,.T.);
#152=ORIENTED_EDGE('',*,*,#430,.F.);
#153=ORIENTED_EDGE('',*,*,#431,.F.);
#154=ORIENTED_EDGE('',*,*,#432,.T.);
#155=ORIENTED_EDGE('',*,*,#433,.T.);
#156=ORIENTED_EDGE('',*,*,#434,.F.);
#157=ORIENTED_EDGE('',*,*,#435,.F.);
#158=ORIENTED_EDGE('',*,*,#436,.T.);
#159=ORIENTED_EDGE('',*,*,#431,.T.);
#160=ORIENTED_EDGE('',*,*,#437,.F.);
#161=ORIENTED_EDGE('',*,*,#438,.F.);
#162=ORIENTED_EDGE('',*,*,#439,.T.);
#163=ORIENTED_EDGE('',*,*,#435,.T.);
#164=ORIENTED_EDGE('',*,*,#440,.F.);
#165=ORIENTED_EDGE('',*,*,#441,.F.);
#166=ORIENTED_EDGE('',*,*,#442,.T.);
#167=ORIENTED_EDGE('',*,*,#443,.T.);
#168=ORIENTED_EDGE('',*,*,#444,.F.);
#169=ORIENTED_EDGE('',*,*,#445,.F.);
#170=ORIENTED_EDGE('',*,*,#446,.T.);
#171=ORIENTED_EDGE('',*,*,#441,.T.);
#172=ORIENTED_EDGE('',*,*,#447,.F.);
#173=ORIENTED_EDGE('',*,*,#448,.F.);
#174=ORIENTED_EDGE('',*,*,#449,.T.);
#175=ORIENTED_EDGE('',*,*,#445,.T.);
#176=ORIENTED_EDGE('',*,*,#450,.F.);
#177=ORIENTED_EDGE('',*,*,#451,.F.);
#178=ORIENTED_EDGE('',*,*,#452,.T.);
#179=ORIENTED_EDGE('',*,*,#453,.T.);
#180=ORIENTED_EDGE('',*,*,#454,.F.);
#181=ORIENTED_EDGE('',*,*,#455,.F.);
#182=ORIENTED_EDGE('',*,*,#456,.T.);
#183=ORIENTED_EDGE('',*,*,#451,.T.);
#184=ORIENTED_EDGE('',*,*,#457,.F.);
#185=ORIENTED_EDGE('',*,*,#458,.F.);
#186=ORIENTED_EDGE('',*,*,#459,.T.);
#187=ORIENTED_EDGE('',*,*,#455,.T.);
#188=ORIENTED_EDGE('',*,*,#460,.F.);
#189=ORIENTED_EDGE('',*,*,#461,.F.);
#190=ORIENTED_EDGE('',*,*,#462,.T.);
#191=ORIENTED_EDGE('',*,*,#458,.T.);
#192=ORIENTED_EDGE('',*,*,#463,.F.);
#193=ORIENTED_EDGE('',*,*,#464,.F.);
#194=ORIENTED_EDGE('',*,*,#465,.T.);
#195=ORIENTED_EDGE('',*,*,#461,.T.);
#196=ORIENTED_EDGE('',*,*,#466,.F.);
#197=ORIENTED_EDGE('',*,*,#467,.F.);
#198=ORIENTED_EDGE('',*,*,#468,.T.);
#199=ORIENTED_EDGE('',*,*,#464,.T.);
#200=ORIENTED_EDGE('',*,*,#469,.F.);
#201=ORIENTED_EDGE('',*,*,#470,.F.);
#202=ORIENTED_EDGE('',*,*,#471,.T.);
#203=ORIENTED_EDGE('',*,*,#467,.T.);
#204=ORIENTED_EDGE('',*,*,#472,.F.);
#205=ORIENTED_EDGE('',*,*,#433,.F.);
#206=ORIENTED_EDGE('',*,*,#473,.T.);
#207=ORIENTED_EDGE('',*,*,#438,.T.);
#208=ORIENTED_EDGE('',*,*,#474,.F.);
#209=ORIENTED_EDGE('',*,*,#443,.F.);
#210=ORIENTED_EDGE('',*,*,#475,.T.);
#211=ORIENTED_EDGE('',*,*,#448,.T.);
#212=ORIENTED_EDGE('',*,*,#476,.F.);
#213=ORIENTED_EDGE('',*,*,#453,.F.);
#214=ORIENTED_EDGE('',*,*,#477,.T.);
#215=ORIENTED_EDGE('',*,*,#470,.T.);
#216=ORIENTED_EDGE('',*,*,#478,.T.);
#217=ORIENTED_EDGE('',*,*,#327,.F.);
#218=ORIENTED_EDGE('',*,*,#479,.F.);
#219=ORIENTED_EDGE('',*,*,#428,.T.);
#220=ORIENTED_EDGE('',*,*,#452,.F.);
#221=ORIENTED_EDGE('',*,*,#456,.F.);
#222=ORIENTED_EDGE('',*,*,#459,.F.);
#223=ORIENTED_EDGE('',*,*,#462,.F.);
#224=ORIENTED_EDGE('',*,*,#465,.F.);
#225=ORIENTED_EDGE('',*,*,#468,.F.);
#226=ORIENTED_EDGE('',*,*,#471,.F.);
#227=ORIENTED_EDGE('',*,*,#477,.F.);
#228=ORIENTED_EDGE('',*,*,#442,.F.);
#229=ORIENTED_EDGE('',*,*,#446,.F.);
#230=ORIENTED_EDGE('',*,*,#449,.F.);
#231=ORIENTED_EDGE('',*,*,#475,.F.);
#232=ORIENTED_EDGE('',*,*,#432,.F.);
#233=ORIENTED_EDGE('',*,*,#436,.F.);
#234=ORIENTED_EDGE('',*,*,#439,.F.);
#235=ORIENTED_EDGE('',*,*,#473,.F.);
#236=ORIENTED_EDGE('',*,*,#326,.T.);
#237=ORIENTED_EDGE('',*,*,#330,.T.);
#238=ORIENTED_EDGE('',*,*,#333,.T.);
#239=ORIENTED_EDGE('',*,*,#336,.T.);
#240=ORIENTED_EDGE('',*,*,#339,.T.);
#241=ORIENTED_EDGE('',*,*,#342,.T.);
#242=ORIENTED_EDGE('',*,*,#345,.T.);
#243=ORIENTED_EDGE('',*,*,#348,.T.);
#244=ORIENTED_EDGE('',*,*,#351,.T.);
#245=ORIENTED_EDGE('',*,*,#354,.T.);
#246=ORIENTED_EDGE('',*,*,#357,.T.);
#247=ORIENTED_EDGE('',*,*,#360,.T.);
#248=ORIENTED_EDGE('',*,*,#363,.T.);
#249=ORIENTED_EDGE('',*,*,#366,.T.);
#250=ORIENTED_EDGE('',*,*,#369,.T.);
#251=ORIENTED_EDGE('',*,*,#372,.T.);
#252=ORIENTED_EDGE('',*,*,#375,.T.);
#253=ORIENTED_EDGE('',*,*,#378,.T.);
#254=ORIENTED_EDGE('',*,*,#381,.T.);
#255=ORIENTED_EDGE('',*,*,#384,.T.);
#256=ORIENTED_EDGE('',*,*,#387,.T.);
#257=ORIENTED_EDGE('',*,*,#390,.T.);
#258=ORIENTED_EDGE('',*,*,#393,.T.);
#259=ORIENTED_EDGE('',*,*,#396,.T.);
#260=ORIENTED_EDGE('',*,*,#399,.T.);
#261=ORIENTED_EDGE('',*,*,#402,.T.);
#262=ORIENTED_EDGE('',*,*,#405,.T.);
#263=ORIENTED_EDGE('',*,*,#408,.T.);
#264=ORIENTED_EDGE('',*,*,#411,.T.);
#265=ORIENTED_EDGE('',*,*,#414,.T.);
#266=ORIENTED_EDGE('',*,*,#417,.T.);
#267=ORIENTED_EDGE('',*,*,#420,.T.);
#268=ORIENTED_EDGE('',*,*,#423,.T.);
#269=ORIENTED_EDGE('',*,*,#426,.T.);
#270=ORIENTED_EDGE('',*,*,#429,.T.);
#271=ORIENTED_EDGE('',*,*,#479,.T.);
#272=ORIENTED_EDGE('',*,*,#450,.T.);
#273=ORIENTED_EDGE('',*,*,#476,.T.);
#274=ORIENTED_EDGE('',*,*,#469,.T.);
#275=ORIENTED_EDGE('',*,*,#466,.T.);
#276=ORIENTED_EDGE('',*,*,#463,.T.);
#277=ORIENTED_EDGE('',*,*,#460,.T.);
#278=ORIENTED_EDGE('',*,*,#457,.T.);
#279=ORIENTED_EDGE('',*,*,#454,.T.);
#280=ORIENTED_EDGE('',*,*,#440,.T.);
#281=ORIENTED_EDGE('',*,*,#474,.T.);
#282=ORIENTED_EDGE('',*,*,#447,.T.);
#283=ORIENTED_EDGE('',*,*,#444,.T.);
#284=ORIENTED_EDGE('',*,*,#430,.T.);
#285=ORIENTED_EDGE('',*,*,#472,.T.);
#286=ORIENTED_EDGE('',*,*,#437,.T.);
#287=ORIENTED_EDGE('',*,*,#434,.T.);
#288=ORIENTED_EDGE('',*,*,#324,.F.);
#289=ORIENTED_EDGE('',*,*,#478,.F.);
#290=ORIENTED_EDGE('',*,*,#427,.F.);
#291=ORIENTED_EDGE('',*,*,#424,.F.);
#292=ORIENTED_EDGE('',*,*,#421,.F.);
#293=ORIENTED_EDGE('',*,*,#418,.F.);
#294=ORIENTED_EDGE('',*,*,#415,.F.);
#295=ORIENTED_EDGE('',*,*,#412,.F.);
#296=ORIENTED_EDGE('',*,*,#409,.F.);
#297=ORIENTED_EDGE('',*,*,#406,.F.);
#298=ORIENTED_EDGE('',*,*,#403,.F.);
#299=ORIENTED_EDGE('',*,*,#400,.F.);
#300=ORIENTED_EDGE('',*,*,#397,.F.);
#301=ORIENTED_EDGE('',*,*,#394,.F.);
#302=ORIENTED_EDGE('',*,*,#391,.F.);
#303=ORIENTED_EDGE('',*,*,#388,.F.);
#304=ORIENTED_EDGE('',*,*,#385,.F.);
#305=ORIENTED_EDGE('',*,*,#382,.F.);
#306=ORIENTED_EDGE('',*,*,#379,.F.);
#307=ORIENTED_EDGE('',*,*,#376,.F.);
#308=ORIENTED_EDGE('',*,*,#373,.F.);
#309=ORIENTED_EDGE('',*,*,#370,.F.);
#310=ORIENTED_EDGE('',*,*,#367,.F.);
#311=ORIENTED_EDGE('',*,*,#364,.F.);
#312=ORIENTED_EDGE('',*,*,#361,.F.);
#313=ORIENTED_EDGE('',*,*,#358,.F.);
#314=ORIENTED_EDGE('',*,*,#355,.F.);
#315=ORIENTED_EDGE('',*,*,#352,.F.);
#316=ORIENTED_EDGE('',*,*,#349,.F.);
#317=ORIENTED_EDGE('',*,*,#346,.F.);
#318=ORIENTED_EDGE('',*,*,#343,.F.);
#319=ORIENTED_EDGE('',*,*,#340,.F.);
#320=ORIENTED_EDGE('',*,*,#337,.F.);
#321=ORIENTED_EDGE('',*,*,#334,.F.);
#322=ORIENTED_EDGE('',*,*,#331,.F.);
#323=ORIENTED_EDGE('',*,*,#328,.F.);
#324=EDGE_CURVE('',#480,#481,#584,.T.);
#325=EDGE_CURVE('',#482,#481,#585,.T.);
#326=EDGE_CURVE('',#483,#482,#586,.T.);
#327=EDGE_CURVE('',#483,#480,#587,.T.);
#328=EDGE_CURVE('',#481,#484,#588,.T.);
#329=EDGE_CURVE('',#485,#484,#589,.T.);
#330=EDGE_CURVE('',#482,#485,#590,.T.);
#331=EDGE_CURVE('',#484,#486,#591,.T.);
#332=EDGE_CURVE('',#487,#486,#592,.T.);
#333=EDGE_CURVE('',#485,#487,#593,.T.);
#334=EDGE_CURVE('',#486,#488,#594,.T.);
#335=EDGE_CURVE('',#489,#488,#595,.T.);
#336=EDGE_CURVE('',#487,#489,#596,.T.);
#337=EDGE_CURVE('',#488,#490,#597,.T.);
#338=EDGE_CURVE('',#491,#490,#598,.T.);
#339=EDGE_CURVE('',#489,#491,#599,.T.);
#340=EDGE_CURVE('',#490,#492,#600,.T.);
#341=EDGE_CURVE('',#493,#492,#601,.T.);
#342=EDGE_CURVE('',#491,#493,#602,.T.);
#343=EDGE_CURVE('',#492,#494,#603,.T.);
#344=EDGE_CURVE('',#495,#494,#604,.T.);
#345=EDGE_CURVE('',#493,#495,#605,.T.);
#346=EDGE_CURVE('',#494,#496,#606,.T.);
#347=EDGE_CURVE('',#497,#496,#607,.T.);
#348=EDGE_CURVE('',#495,#497,#608,.T.);
#349=EDGE_CURVE('',#496,#498,#609,.T.);
#350=EDGE_CURVE('',#499,#498,#610,.T.);
#351=EDGE_CURVE('',#497,#499,#611,.T.);
#352=EDGE_CURVE('',#498,#500,#612,.T.);
#353=EDGE_CURVE('',#501,#500,#613,.T.);
#354=EDGE_CURVE('',#499,#501,#614,.T.);
#355=EDGE_CURVE('',#500,#502,#615,.T.);
#356=EDGE_CURVE('',#503,#502,#616,.T.);
#357=EDGE_CURVE('',#501,#503,#617,.T.);
#358=EDGE_CURVE('',#502,#504,#618,.T.);
#359=EDGE_CURVE('',#505,#504,#619,.T.);
#360=EDGE_CURVE('',#503,#505,#620,.T.);
#361=EDGE_CURVE('',#504,#506,#621,.T.);
#362=EDGE_CURVE('',#507,#506,#622,.T.);
#363=EDGE_CURVE('',#505,#507,#623,.T.);
#364=EDGE_CURVE('',#506,#508,#624,.T.);
#365=EDGE_CURVE('',#509,#508,#625,.T.);
#366=EDGE_CURVE('',#507,#509,#626,.T.);
#367=EDGE_CURVE('',#508,#510,#627,.T.);
#368=EDGE_CURVE('',#511,#510,#628,.T.);
#369=EDGE_CURVE('',#509,#511,#629,.T.);
#370=EDGE_CURVE('',#510,#512,#630,.T.);
#371=EDGE_CURVE('',#513,#512,#631,.T.);
#372=EDGE_CURVE('',#511,#513,#632,.T.);
#373=EDGE_CURVE('',#512,#514,#633,.T.);
#374=EDGE_CURVE('',#515,#514,#634,.T.);
#375=EDGE_CURVE('',#513,#515,#635,.T.);
#376=EDGE_CURVE('',#514,#516,#636,.T.);
#377=EDGE_CURVE('',#517,#516,#637,.T.);
#378=EDGE_CURVE('',#515,#517,#638,.T.);
#379=EDGE_CURVE('',#516,#518,#639,.T.);
#380=EDGE_CURVE('',#519,#518,#640,.T.);
#381=EDGE_CURVE('',#517,#519,#641,.T.);
#382=EDGE_CURVE('',#518,#520,#642,.T.);
#383=EDGE_CURVE('',#521,#520,#643,.T.);
#384=EDGE_CURVE('',#519,#521,#644,.T.);
#385=EDGE_CURVE('',#520,#522,#645,.T.);
#386=EDGE_CURVE('',#523,#522,#646,.T.);
#387=EDGE_CURVE('',#521,#523,#647,.T.);
#388=EDGE_CURVE('',#522,#524,#648,.T.);
#389=EDGE_CURVE('',#525,#524,#649,.T.);
#390=EDGE_CURVE('',#523,#525,#650,.T.);
#391=EDGE_CURVE('',#524,#526,#651,.T.);
#392=EDGE_CURVE('',#527,#526,#652,.T.);
#393=EDGE_CURVE('',#525,#527,#653,.T.);
#394=EDGE_CURVE('',#526,#528,#654,.T.);
#395=EDGE_CURVE('',#529,#528,#655,.T.);
#396=EDGE_CURVE('',#527,#529,#656,.T.);
#397=EDGE_CURVE('',#528,#530,#657,.T.);
#398=EDGE_CURVE('',#531,#530,#658,.T.);
#399=EDGE_CURVE('',#529,#531,#659,.T.);
#400=EDGE_CURVE('',#530,#532,#660,.T.);
#401=EDGE_CURVE('',#533,#532,#661,.T.);
#402=EDGE_CURVE('',#531,#533,#662,.T.);
#403=EDGE_CURVE('',#532,#534,#663,.T.);
#404=EDGE_CURVE('',#535,#534,#664,.T.);
#405=EDGE_CURVE('',#533,#535,#665,.T.);
#406=EDGE_CURVE('',#534,#536,#666,.T.);
#407=EDGE_CURVE('',#537,#536,#667,.T.);
#408=EDGE_CURVE('',#535,#537,#668,.T.);
#409=EDGE_CURVE('',#536,#538,#669,.T.);
#410=EDGE_CURVE('',#539,#538,#670,.T.);
#411=EDGE_CURVE('',#537,#539,#671,.T.);
#412=EDGE_CURVE('',#538,#540,#672,.T.);
#413=EDGE_CURVE('',#541,#540,#673,.T.);
#414=EDGE_CURVE('',#539,#541,#674,.T.);
#415=EDGE_CURVE('',#540,#542,#675,.T.);
#416=EDGE_CURVE('',#543,#542,#676,.T.);
#417=EDGE_CURVE('',#541,#543,#677,.T.);
#418=EDGE_CURVE('',#542,#544,#678,.T.);
#419=EDGE_CURVE('',#545,#544,#679,.T.);
#420=EDGE_CURVE('',#543,#545,#680,.T.);
#421=EDGE_CURVE('',#544,#546,#681,.T.);
#422=EDGE_CURVE('',#547,#546,#682,.T.);
#423=EDGE_CURVE('',#545,#547,#683,.T.);
#424=EDGE_CURVE('',#546,#548,#684,.T.);
#425=EDGE_CURVE('',#549,#548,#685,.T.);
#426=EDGE_CURVE('',#547,#549,#686,.T.);
#427=EDGE_CURVE('',#548,#550,#687,.T.);
#428=EDGE_CURVE('',#551,#550,#688,.T.);
#429=EDGE_CURVE('',#549,#551,#689,.T.);
#430=EDGE_CURVE('',#552,#553,#690,.T.);
#431=EDGE_CURVE('',#554,#552,#691,.T.);
#432=EDGE_CURVE('',#554,#555,#692,.T.);
#433=EDGE_CURVE('',#555,#553,#693,.T.);
#434=EDGE_CURVE('',#556,#552,#694,.T.);
#435=EDGE_CURVE('',#557,#556,#695,.T.);
#436=EDGE_CURVE('',#557,#554,#696,.T.);
#437=EDGE_CURVE('',#558,#556,#697,.T.);
#438=EDGE_CURVE('',#559,#558,#698,.T.);
#439=EDGE_CURVE('',#559,#557,#699,.T.);
#440=EDGE_CURVE('',#560,#561,#700,.T.);
#441=EDGE_CURVE('',#562,#560,#701,.T.);
#442=EDGE_CURVE('',#562,#563,#702,.T.);
#443=EDGE_CURVE('',#563,#561,#703,.T.);
#444=EDGE_CURVE('',#564,#560,#704,.T.);
#445=EDGE_CURVE('',#565,#564,#705,.T.);
#446=EDGE_CURVE('',#565,#562,#706,.T.);
#447=EDGE_CURVE('',#566,#564,#707,.T.);
#448=EDGE_CURVE('',#567,#566,#708,.T.);
#449=EDGE_CURVE('',#567,#565,#709,.T.);
#450=EDGE_CURVE('',#568,#569,#710,.T.);
#451=EDGE_CURVE('',#570,#568,#711,.T.);
#452=EDGE_CURVE('',#570,#571,#712,.T.);
#453=EDGE_CURVE('',#571,#569,#713,.T.);
#454=EDGE_CURVE('',#572,#568,#714,.T.);
#455=EDGE_CURVE('',#573,#572,#715,.T.);
#456=EDGE_CURVE('',#573,#570,#716,.T.);
#457=EDGE_CURVE('',#574,#572,#717,.T.);
#458=EDGE_CURVE('',#575,#574,#718,.T.);
#459=EDGE_CURVE('',#575,#573,#719,.T.);
#460=EDGE_CURVE('',#576,#574,#720,.T.);
#461=EDGE_CURVE('',#577,#576,#721,.T.);
#462=EDGE_CURVE('',#577,#575,#722,.T.);
#463=EDGE_CURVE('',#578,#576,#723,.T.);
#464=EDGE_CURVE('',#579,#578,#724,.T.);
#465=EDGE_CURVE('',#579,#577,#725,.T.);
#466=EDGE_CURVE('',#580,#578,#726,.T.);
#467=EDGE_CURVE('',#581,#580,#727,.T.);
#468=EDGE_CURVE('',#581,#579,#728,.T.);
#469=EDGE_CURVE('',#582,#580,#729,.T.);
#470=EDGE_CURVE('',#583,#582,#730,.T.);
#471=EDGE_CURVE('',#583,#581,#731,.T.);
#472=EDGE_CURVE('',#553,#558,#732,.T.);
#473=EDGE_CURVE('',#555,#559,#733,.T.);
#474=EDGE_CURVE('',#561,#566,#734,.T.);
#475=EDGE_CURVE('',#563,#567,#735,.T.);
#476=EDGE_CURVE('',#569,#582,#736,.T.);
#477=EDGE_CURVE('',#571,#583,#737,.T.);
#478=EDGE_CURVE('',#550,#480,#738,.T.);
#479=EDGE_CURVE('',#551,#483,#739,.T.);
#480=VERTEX_POINT('',#1460);
#481=VERTEX_POINT('',#1461);
#482=VERTEX_POINT('',#1463);
#483=VERTEX_POINT('',#1465);
#484=VERTEX_POINT('',#1469);
#485=VERTEX_POINT('',#1471);
#486=VERTEX_POINT('',#1475);
#487=VERTEX_POINT('',#1477);
#488=VERTEX_POINT('',#1481);
#489=VERTEX_POINT('',#1483);
#490=VERTEX_POINT('',#1487);
#491=VERTEX_POINT('',#1489);
#492=VERTEX_POINT('',#1493);
#493=VERTEX_POINT('',#1495);
#494=VERTEX_POINT('',#1499);
#495=VERTEX_POINT('',#1501);
#496=VERTEX_POINT('',#1505);
#497=VERTEX_POINT('',#1507);
#498=VERTEX_POINT('',#1511);
#499=VERTEX_POINT('',#1513);
#500=VERTEX_POINT('',#1517);
#501=VERTEX_POINT('',#1519);
#502=VERTEX_POINT('',#1523);
#503=VERTEX_POINT('',#1525);
#504=VERTEX_POINT('',#1529);
#505=VERTEX_POINT('',#1531);
#506=VERTEX_POINT('',#1535);
#507=VERTEX_POINT('',#1537);
#508=VERTEX_POINT('',#1541);
#509=VERTEX_POINT('',#1543);
#510=VERTEX_POINT('',#1547);
#511=VERTEX_POINT('',#1549);
#512=VERTEX_POINT('',#1553);
#513=VERTEX_POINT('',#1555);
#514=VERTEX_POINT('',#1559);
#515=VERTEX_POINT('',#1561);
#516=VERTEX_POINT('',#1565);
#517=VERTEX_POINT('',#1567);
#518=VERTEX_POINT('',#1571);
#519=VERTEX_POINT('',#1573);
#520=VERTEX_POINT('',#1577);
#521=VERTEX_POINT('',#1579);
#522=VERTEX_POINT('',#1583);
#523=VERTEX_POINT('',#1585);
#524=VERTEX_POINT('',#1589);
#525=VERTEX_POINT('',#1591);
#526=VERTEX_POINT('',#1595);
#527=VERTEX_POINT('',#1597);
#528=VERTEX_POINT('',#1601);
#529=VERTEX_POINT('',#1603);
#530=VERTEX_POINT('',#1607);
#531=VERTEX_POINT('',#1609);
#532=VERTEX_POINT('',#1613);
#533=VERTEX_POINT('',#1615);
#534=VERTEX_POINT('',#1619);
#535=VERTEX_POINT('',#1621);
#536=VERTEX_POINT('',#1625);
#537=VERTEX_POINT('',#1627);
#538=VERTEX_POINT('',#1631);
#539=VERTEX_POINT('',#1633);
#540=VERTEX_POINT('',#1637);
#541=VERTEX_POINT('',#1639);
#542=VERTEX_POINT('',#1643);
#543=VERTEX_POINT('',#1645);
#544=VERTEX_POINT('',#1649);
#545=VERTEX_POINT('',#1651);
#546=VERTEX_POINT('',#1655);
#547=VERTEX_POINT('',#1657);
#548=VERTEX_POINT('',#1661);
#549=VERTEX_POINT('',#1663);
#550=VERTEX_POINT('',#1667);
#551=VERTEX_POINT('',#1669);
#552=VERTEX_POINT('',#1673);
#553=VERTEX_POINT('',#1674);
#554=VERTEX_POINT('',#1676);
#555=VERTEX_POINT('',#1678);
#556=VERTEX_POINT('',#1682);
#557=VERTEX_POINT('',#1684);
#558=VERTEX_POINT('',#1688);
#559=VERTEX_POINT('',#1690);
#560=VERTEX_POINT('',#1694);
#561=VERTEX_POINT('',#1695);
#562=VERTEX_POINT('',#1697);
#563=VERTEX_POINT('',#1699);
#564=VERTEX_POINT('',#1703);
#565=VERTEX_POINT('',#1705);
#566=VERTEX_POINT('',#1709);
#567=VERTEX_POINT('',#1711);
#568=VERTEX_POINT('',#1715);
#569=VERTEX_POINT('',#1716);
#570=VERTEX_POINT('',#1718);
#571=VERTEX_POINT('',#1720);
#572=VERTEX_POINT('',#1724);
#573=VERTEX_POINT('',#1726);
#574=VERTEX_POINT('',#1730);
#575=VERTEX_POINT('',#1732);
#576=VERTEX_POINT('',#1736);
#577=VERTEX_POINT('',#1738);
#578=VERTEX_POINT('',#1742);
#579=VERTEX_POINT('',#1744);
#580=VERTEX_POINT('',#1748);
#581=VERTEX_POINT('',#1750);
#582=VERTEX_POINT('',#1754);
#583=VERTEX_POINT('',#1756);
#584=LINE('',#1459,#740);
#585=LINE('',#1462,#741);
#586=LINE('',#1464,#742);
#587=LINE('',#1466,#743);
#588=LINE('',#1468,#744);
#589=LINE('',#1470,#745);
#590=LINE('',#1472,#746);
#591=LINE('',#1474,#747);
#592=LINE('',#1476,#748);
#593=LINE('',#1478,#749);
#594=LINE('',#1480,#750);
#595=LINE('',#1482,#751);
#596=LINE('',#1484,#752);
#597=LINE('',#1486,#753);
#598=LINE('',#1488,#754);
#599=LINE('',#1490,#755);
#600=LINE('',#1492,#756);
#601=LINE('',#1494,#757);
#602=LINE('',#1496,#758);
#603=LINE('',#1498,#759);
#604=LINE('',#1500,#760);
#605=LINE('',#1502,#761);
#606=LINE('',#1504,#762);
#607=LINE('',#1506,#763);
#608=LINE('',#1508,#764);
#609=LINE('',#1510,#765);
#610=LINE('',#1512,#766);
#611=LINE('',#1514,#767);
#612=LINE('',#1516,#768);
#613=LINE('',#1518,#769);
#614=LINE('',#1520,#770);
#615=LINE('',#1522,#771);
#616=LINE('',#1524,#772);
#617=LINE('',#1526,#773);
#618=LINE('',#1528,#774);
#619=LINE('',#1530,#775);
#620=LINE('',#1532,#776);
#621=LINE('',#1534,#777);
#622=LINE('',#1536,#778);
#623=LINE('',#1538,#779);
#624=LINE('',#1540,#780);
#625=LINE('',#1542,#781);
#626=LINE('',#1544,#782);
#627=LINE('',#1546,#783);
#628=LINE('',#1548,#784);
#629=LINE('',#1550,#785);
#630=LINE('',#1552,#786);
#631=LINE('',#1554,#787);
#632=LINE('',#1556,#788);
#633=LINE('',#1558,#789);
#634=LINE('',#1560,#790);
#635=LINE('',#1562,#791);
#636=LINE('',#1564,#792);
#637=LINE('',#1566,#793);
#638=LINE('',#1568,#794);
#639=LINE('',#1570,#795);
#640=LINE('',#1572,#796);
#641=LINE('',#1574,#797);
#642=LINE('',#1576,#798);
#643=LINE('',#1578,#799);
#644=LINE('',#1580,#800);
#645=LINE('',#1582,#801);
#646=LINE('',#1584,#802);
#647=LINE('',#1586,#803);
#648=LINE('',#1588,#804);
#649=LINE('',#1590,#805);
#650=LINE('',#1592,#806);
#651=LINE('',#1594,#807);
#652=LINE('',#1596,#808);
#653=LINE('',#1598,#809);
#654=LINE('',#1600,#810);
#655=LINE('',#1602,#811);
#656=LINE('',#1604,#812);
#657=LINE('',#1606,#813);
#658=LINE('',#1608,#814);
#659=LINE('',#1610,#815);
#660=LINE('',#1612,#816);
#661=LINE('',#1614,#817);
#662=LINE('',#1616,#818);
#663=LINE('',#1618,#819);
#664=LINE('',#1620,#820);
#665=LINE('',#1622,#821);
#666=LINE('',#1624,#822);
#667=LINE('',#1626,#823);
#668=LINE('',#1628,#824);
#669=LINE('',#1630,#825);
#670=LINE('',#1632,#826);
#671=LINE('',#1634,#827);
#672=LINE('',#1636,#828);
#673=LINE('',#1638,#829);
#674=LINE('',#1640,#830);
#675=LINE('',#1642,#831);
#676=LINE('',#1644,#832);
#677=LINE('',#1646,#833);
#678=LINE('',#1648,#834);
#679=LINE('',#1650,#835);
#680=LINE('',#1652,#836);
#681=LINE('',#1654,#837);
#682=LINE('',#1656,#838);
#683=LINE('',#1658,#839);
#684=LINE('',#1660,#840);
#685=LINE('',#1662,#841);
#686=LINE('',#1664,#842);
#687=LINE('',#1666,#843);
#688=LINE('',#1668,#844);
#689=LINE('',#1670,#845);
#690=LINE('',#1672,#846);
#691=LINE('',#1675,#847);
#692=LINE('',#1677,#848);
#693=LINE('',#1679,#849);
#694=LINE('',#1681,#850);
#695=LINE('',#1683,#851);
#696=LINE('',#1685,#852);
#697=LINE('',#1687,#853);
#698=LINE('',#1689,#854);
#699=LINE('',#1691,#855);
#700=LINE('',#1693,#856);
#701=LINE('',#1696,#857);
#702=LINE('',#1698,#858);
#703=LINE('',#1700,#859);
#704=LINE('',#1702,#860);
#705=LINE('',#1704,#861);
#706=LINE('',#1706,#862);
#707=LINE('',#1708,#863);
#708=LINE('',#1710,#864);
#709=LINE('',#1712,#865);
#710=LINE('',#1714,#866);
#711=LINE('',#1717,#867);
#712=LINE('',#1719,#868);
#713=LINE('',#1721,#869);
#714=LINE('',#1723,#870);
#715=LINE('',#1725,#871);
#716=LINE('',#1727,#872);
#717=LINE('',#1729,#873);
#718=LINE('',#1731,#874);
#719=LINE('',#1733,#875);
#720=LINE('',#1735,#876);
#721=LINE('',#1737,#877);
#722=LINE('',#1739,#878);
#723=LINE('',#1741,#879);
#724=LINE('',#1743,#880);
#725=LINE('',#1745,#881);
#726=LINE('',#1747,#882);
#727=LINE('',#1749,#883);
#728=LINE('',#1751,#884);
#729=LINE('',#1753,#885);
#730=LINE('',#1755,#886);
#731=LINE('',#1757,#887);
#732=LINE('',#1759,#888);
#733=LINE('',#1760,#889);
#734=LINE('',#1762,#890);
#735=LINE('',#1763,#891);
#736=LINE('',#1765,#892);
#737=LINE('',#1766,#893);
#738=LINE('',#1768,#894);
#739=LINE('',#1769,#895);
#740=VECTOR('',#1195,1.);
#741=VECTOR('',#1196,1.);
#742=VECTOR('',#1197,1.);
#743=VECTOR('',#1198,1.);
#744=VECTOR('',#1201,1.);
#745=VECTOR('',#1202,1.);
#746=VECTOR('',#1203,1.);
#747=VECTOR('',#1206,1.);
#748=VECTOR('',#1207,1.);
#749=VECTOR('',#1208,1.);
#750=VECTOR('',#1211,1.);
#751=VECTOR('',#1212,1.);
#752=VECTOR('',#1213,1.);
#753=VECTOR('',#1216,1.);
#754=VECTOR('',#1217,1.);
#755=VECTOR('',#1218,1.);
#756=VECTOR('',#1221,1.);
#757=VECTOR('',#1222,1.);
#758=VECTOR('',#1223,1.);
#759=VECTOR('',#1226,1.);
#760=VECTOR('',#1227,1.);
#761=VECTOR('',#1228,1.);
#762=VECTOR('',#1231,1.);
#763=VECTOR('',#1232,1.);
#764=VECTOR('',#1233,1.);
#765=VECTOR('',#1236,1.);
#766=VECTOR('',#1237,1.);
#767=VECTOR('',#1238,1.);
#768=VECTOR('',#1241,1.);
#769=VECTOR('',#1242,1.);
#770=VECTOR('',#1243,1.);
#771=VECTOR('',#1246,1.);
#772=VECTOR('',#1247,1.);
#773=VECTOR('',#1248,1.);
#774=VECTOR('',#1251,1.);
#775=VECTOR('',#1252,1.);
#776=VECTOR('',#1253,1.);
#777=VECTOR('',#1256,1.);
#778=VECTOR('',#1257,1.);
#779=VECTOR('',#1258,1.);
#780=VECTOR('',#1261,1.);
#781=VECTOR('',#1262,1.);
#782=VECTOR('',#1263,1.);
#783=VECTOR('',#1266,1.);
#784=VECTOR('',#1267,1.);
#785=VECTOR('',#1268,1.);
#786=VECTOR('',#1271,1.);
#787=VECTOR('',#1272,1.);
#788=VECTOR('',#1273,1.);
#789=VECTOR('',#1276,1.);
#790=VECTOR('',#1277,1.);
#791=VECTOR('',#1278,1.);
#792=VECTOR('',#1281,1.);
#793=VECTOR('',#1282,1.);
#794=VECTOR('',#1283,1.);
#795=VECTOR('',#1286,1.);
#796=VECTOR('',#1287,1.);
#797=VECTOR('',#1288,1.);
#798=VECTOR('',#1291,1.);
#799=VECTOR('',#1292,1.);
#800=VECTOR('',#1293,1.);
#801=VECTOR('',#1296,1.);
#802=VECTOR('',#1297,1.);
#803=VECTOR('',#1298,1.);
#804=VECTOR('',#1301,1.);
#805=VECTOR('',#1302,1.);
#806=VECTOR('',#1303,1.);
#807=VECTOR('',#1306,1.);
#808=VECTOR('',#1307,1.);
#809=VECTOR('',#1308,1.);
#810=VECTOR('',#1311,1.);
#811=VECTOR('',#1312,1.);
#812=VECTOR('',#1313,1.);
#813=VECTOR('',#1316,1.);
#814=VECTOR('',#1317,1.);
#815=VECTOR('',#1318,1.);
#816=VECTOR('',#1321,1.);
#817=VECTOR('',#1322,1.);
#818=VECTOR('',#1323,1.);
#819=VECTOR('',#1326,1.);
#820=VECTOR('',#1327,1.);
#821=VECTOR('',#1328,1.);
#822=VECTOR('',#1331,1.);
#823=VECTOR('',#1332,1.);
#824=VECTOR('',#1333,1.);
#825=VECTOR('',#1336,1.);
#826=VECTOR('',#1337,1.);
#827=VECTOR('',#1338,1.);
#828=VECTOR('',#1341,1.);
#829=VECTOR('',#1342,1.);
#830=VECTOR('',#1343,1.);
#831=VECTOR('',#1346,1.);
#832=VECTOR('',#1347,1.);
#833=VECTOR('',#1348,1.);
#834=VECTOR('',#1351,1.);
#835=VECTOR('',#1352,1.);
#836=VECTOR('',#1353,1.);
#837=VECTOR('',#1356,1.);
#838=VECTOR('',#1357,1.);
#839=VECTOR('',#1358,1.);
#840=VECTOR('',#1361,1.);
#841=VECTOR('',#1362,1.);
#842=VECTOR('',#1363,1.);
#843=VECTOR('',#1366,1.);
#844=VECTOR('',#1367,1.);
#845=VECTOR('',#1368,1.);
#846=VECTOR('',#1371,1.);
#847=VECTOR('',#1372,1.);
#848=VECTOR('',#1373,1.);
#849=VECTOR('',#1374,1.);
#850=VECTOR('',#1377,1.);
#851=VECTOR('',#1378,1.);
#852=VECTOR('',#1379,1.);
#853=VECTOR('',#1382,1.);
#854=VECTOR('',#1383,1.);
#855=VECTOR('',#1384,1.);
#856=VECTOR('',#1387,1.);
#857=VECTOR('',#1388,1.);
#858=VECTOR('',#1389,1.);
#859=VECTOR('',#1390,1.);
#860=VECTOR('',#1393,1.);
#861=VECTOR('',#1394,1.);
#862=VECTOR('',#1395,1.);
#863=VECTOR('',#1398,1.);
#864=VECTOR('',#1399,1.);
#865=VECTOR('',#1400,1.);
#866=VECTOR('',#1403,1.);
#867=VECTOR('',#1404,1.);
#868=VECTOR('',#1405,1.);
#869=VECTOR('',#1406,1.);
#870=VECTOR('',#1409,1.);
#871=VECTOR('',#1410,1.);
#872=VECTOR('',#1411,1.);
#873=VECTOR('',#1414,1.);
#874=VECTOR('',#1415,1.);
#875=VECTOR('',#1416,1.);
#876=VECTOR('',#1419,1.);
#877=VECTOR('',#1420,1.);
#878=VECTOR('',#1421,1.);
#879=VECTOR('',#1424,1.);
#880=VECTOR('',#1425,1.);
#881=VECTOR('',#1426,1.);
#882=VECTOR('',#1429,1.);
#883=VECTOR('',#1430,1.);
#884=VECTOR('',#1431,1.);
#885=VECTOR('',#1434,1.);
#886=VECTOR('',#1435,1.);
#887=VECTOR('',#1436,1.);
#888=VECTOR('',#1439,1.);
#889=VECTOR('',#1440,1.);
#890=VECTOR('',#1443,1.);
#891=VECTOR('',#1444,1.);
#892=VECTOR('',#1447,1.);
#893=VECTOR('',#1448,1.);
#894=VECTOR('',#1451,1.);
#895=VECTOR('',#1452,1.);
#896=EDGE_LOOP('',(#12,#13,#14,#15));
#897=EDGE_LOOP('',(#16,#17,#18,#19));
#898=EDGE_LOOP('',(#20,#21,#22,#23));
#899=EDGE_LOOP('',(#24,#25,#26,#27));
#900=EDGE_LOOP('',(#28,#29,#30,#31));
#901=EDGE_LOOP('',(#32,#33,#34,#35));
#902=EDGE_LOOP('',(#36,#37,#38,#39));
#903=EDGE_LOOP('',(#40,#41,#42,#43));
#904=EDGE_LOOP('',(#44,#45,#46,#47));
#905=EDGE_LOOP('',(#48,#49,#50,#51));
#906=EDGE_LOOP('',(#52,#53,#54,#55));
#907=EDGE_LOOP('',(#56,#57,#58,#59));
#908=EDGE_LOOP('',(#60,#61,#62,#63));
#909=EDGE_LOOP('',(#64,#65,#66,#67));
#910=EDGE_LOOP('',(#68,#69,#70,#71));
#911=EDGE_LOOP('',(#72,#73,#74,#75));
#912=EDGE_LOOP('',(#76,#77,#78,#79));
#913=EDGE_LOOP('',(#80,#81,#82,#83));
#914=EDGE_LOOP('',(#84,#85,#86,#87));
#915=EDGE_LOOP('',(#88,#89,#90,#91));
#916=EDGE_LOOP('',(#92,#93,#94,#95));
#917=EDGE_LOOP('',(#96,#97,#98,#99));
#918=EDGE_LOOP('',(#100,#101,#102,#103));
#919=EDGE_LOOP('',(#104,#105,#106,#107));
#920=EDGE_LOOP('',(#108,#109,#110,#111));
#921=EDGE_LOOP('',(#112,#113,#114,#115));
#922=EDGE_LOOP('',(#116,#117,#118,#119));
#923=EDGE_LOOP('',(#120,#121,#122,#123));
#924=EDGE_LOOP('',(#124,#125,#126,#127));
#925=EDGE_LOOP('',(#128,#129,#130,#131));
#926=EDGE_LOOP('',(#132,#133,#134,#135));
#927=EDGE_LOOP('',(#136,#137,#138,#139));
#928=EDGE_LOOP('',(#140,#141,#142,#143));
#929=EDGE_LOOP('',(#144,#145,#146,#147));
#930=EDGE_LOOP('',(#148,#149,#150,#151));
#931=EDGE_LOOP('',(#152,#153,#154,#155));
#932=EDGE_LOOP('',(#156,#157,#158,#159));
#933=EDGE_LOOP('',(#160,#161,#162,#163));
#934=EDGE_LOOP('',(#164,#165,#166,#167));
#935=EDGE_LOOP('',(#168,#169,#170,#171));
#936=EDGE_LOOP('',(#172,#173,#174,#175));
#937=EDGE_LOOP('',(#176,#177,#178,#179));
#938=EDGE_LOOP('',(#180,#181,#182,#183));
#939=EDGE_LOOP('',(#184,#185,#186,#187));
#940=EDGE_LOOP('',(#188,#189,#190,#191));
#941=EDGE_LOOP('',(#192,#193,#194,#195));
#942=EDGE_LOOP('',(#196,#197,#198,#199));
#943=EDGE_LOOP('',(#200,#201,#202,#203));
#944=EDGE_LOOP('',(#204,#205,#206,#207));
#945=EDGE_LOOP('',(#208,#209,#210,#211));
#946=EDGE_LOOP('',(#212,#213,#214,#215));
#947=EDGE_LOOP('',(#216,#217,#218,#219));
#948=EDGE_LOOP('',(#220,#221,#222,#223,#224,#225,#226,#227));
#949=EDGE_LOOP('',(#228,#229,#230,#231));
#950=EDGE_LOOP('',(#232,#233,#234,#235));
#951=EDGE_LOOP('',(#236,#237,#238,#239,#240,#241,#242,#243,#244,#245,#246,
#247,#248,#249,#250,#251,#252,#253,#254,#255,#256,#257,#258,#259,#260,#261,
#262,#263,#264,#265,#266,#267,#268,#269,#270,#271));
#952=EDGE_LOOP('',(#272,#273,#274,#275,#276,#277,#278,#279));
#953=EDGE_LOOP('',(#280,#281,#282,#283));
#954=EDGE_LOOP('',(#284,#285,#286,#287));
#955=EDGE_LOOP('',(#288,#289,#290,#291,#292,#293,#294,#295,#296,#297,#298,
#299,#300,#301,#302,#303,#304,#305,#306,#307,#308,#309,#310,#311,#312,#313,
#314,#315,#316,#317,#318,#319,#320,#321,#322,#323));
#956=FACE_BOUND('',#896,.T.);
#957=FACE_BOUND('',#897,.T.);
#958=FACE_BOUND('',#898,.T.);
#959=FACE_BOUND('',#899,.T.);
#960=FACE_BOUND('',#900,.T.);
#961=FACE_BOUND('',#901,.T.);
#962=FACE_BOUND('',#902,.T.);
#963=FACE_BOUND('',#903,.T.);
#964=FACE_BOUND('',#904,.T.);
#965=FACE_BOUND('',#905,.T.);
#966=FACE_BOUND('',#906,.T.);
#967=FACE_BOUND('',#907,.T.);
#968=FACE_BOUND('',#908,.T.);
#969=FACE_BOUND('',#909,.T.);
#970=FACE_BOUND('',#910,.T.);
#971=FACE_BOUND('',#911,.T.);
#972=FACE_BOUND('',#912,.T.);
#973=FACE_BOUND('',#913,.T.);
#974=FACE_BOUND('',#914,.T.);
#975=FACE_BOUND('',#915,.T.);
#976=FACE_BOUND('',#916,.T.);
#977=FACE_BOUND('',#917,.T.);
#978=FACE_BOUND('',#918,.T.);
#979=FACE_BOUND('',#919,.T.);
#980=FACE_BOUND('',#920,.T.);
#981=FACE_BOUND('',#921,.T.);
#982=FACE_BOUND('',#922,.T.);
#983=FACE_BOUND('',#923,.T.);
#984=FACE_BOUND('',#924,.T.);
#985=FACE_BOUND('',#925,.T.);
#986=FACE_BOUND('',#926,.T.);
#987=FACE_BOUND('',#927,.T.);
#988=FACE_BOUND('',#928,.T.);
#989=FACE_BOUND('',#929,.T.);
#990=FACE_BOUND('',#930,.T.);
#991=FACE_BOUND('',#931,.T.);
#992=FACE_BOUND('',#932,.T.);
#993=FACE_BOUND('',#933,.T.);
#994=FACE_BOUND('',#934,.T.);
#995=FACE_BOUND('',#935,.T.);
#996=FACE_BOUND('',#936,.T.);
#997=FACE_BOUND('',#937,.T.);
#998=FACE_BOUND('',#938,.T.);
#999=FACE_BOUND('',#939,.T.);
#1000=FACE_BOUND('',#940,.T.);
#1001=FACE_BOUND('',#941,.T.);
#1002=FACE_BOUND('',#942,.T.);
#1003=FACE_BOUND('',#943,.T.);
#1004=FACE_BOUND('',#944,.T.);
#1005=FACE_BOUND('',#945,.T.);
#1006=FACE_BOUND('',#946,.T.);
#1007=FACE_BOUND('',#947,.T.);
#1008=FACE_BOUND('',#948,.T.);
#1009=FACE_BOUND('',#949,.T.);
#1010=FACE_BOUND('',#950,.T.);
#1011=FACE_BOUND('',#951,.T.);
#1012=FACE_BOUND('',#952,.T.);
#1013=FACE_BOUND('',#953,.T.);
#1014=FACE_BOUND('',#954,.T.);
#1015=FACE_BOUND('',#955,.T.);
#1016=PLANE('',#1137);
#1017=PLANE('',#1138);
#1018=PLANE('',#1139);
#1019=PLANE('',#1140);
#1020=PLANE('',#1141);
#1021=PLANE('',#1142);
#1022=PLANE('',#1143);
#1023=PLANE('',#1144);
#1024=PLANE('',#1145);
#1025=PLANE('',#1146);
#1026=PLANE('',#1147);
#1027=PLANE('',#1148);
#1028=PLANE('',#1149);
#1029=PLANE('',#1150);
#1030=PLANE('',#1151);
#1031=PLANE('',#1152);
#1032=PLANE('',#1153);
#1033=PLANE('',#1154);
#1034=PLANE('',#1155);
#1035=PLANE('',#1156);
#1036=PLANE('',#1157);
#1037=PLANE('',#1158);
#1038=PLANE('',#1159);
#1039=PLANE('',#1160);
#1040=PLANE('',#1161);
#1041=PLANE('',#1162);
#1042=PLANE('',#1163);
#1043=PLANE('',#1164);
#1044=PLANE('',#1165);
#1045=PLANE('',#1166);
#1046=PLANE('',#1167);
#1047=PLANE('',#1168);
#1048=PLANE('',#1169);
#1049=PLANE('',#1170);
#1050=PLANE('',#1171);
#1051=PLANE('',#1172);
#1052=PLANE('',#1173);
#1053=PLANE('',#1174);
#1054=PLANE('',#1175);
#1055=PLANE('',#1176);
#1056=PLANE('',#1177);
#1057=PLANE('',#1178);
#1058=PLANE('',#1179);
#1059=PLANE('',#1180);
#1060=PLANE('',#1181);
#1061=PLANE('',#1182);
#1062=PLANE('',#1183);
#1063=PLANE('',#1184);
#1064=PLANE('',#1185);
#1065=PLANE('',#1186);
#1066=PLANE('',#1187);
#1067=PLANE('',#1188);
#1068=PLANE('',#1189);
#1069=PLANE('',#1190);
#1070=ADVANCED_FACE('',(#956),#1016,.F.);
#1071=ADVANCED_FACE('',(#957),#1017,.F.);
#1072=ADVANCED_FACE('',(#958),#1018,.F.);
#1073=ADVANCED_FACE('',(#959),#1019,.F.);
#1074=ADVANCED_FACE('',(#960),#1020,.F.);
#1075=ADVANCED_FACE('',(#961),#1021,.F.);
#1076=ADVANCED_FACE('',(#962),#1022,.F.);
#1077=ADVANCED_FACE('',(#963),#1023,.F.);
#1078=ADVANCED_FACE('',(#964),#1024,.F.);
#1079=ADVANCED_FACE('',(#965),#1025,.F.);
#1080=ADVANCED_FACE('',(#966),#1026,.F.);
#1081=ADVANCED_FACE('',(#967),#1027,.F.);
#1082=ADVANCED_FACE('',(#968),#1028,.F.);
#1083=ADVANCED_FACE('',(#969),#1029,.F.);
#1084=ADVANCED_FACE('',(#970),#1030,.F.);
#1085=ADVANCED_FACE('',(#971),#1031,.F.);
#1086=ADVANCED_FACE('',(#972),#1032,.F.);
#1087=ADVANCED_FACE('',(#973),#1033,.F.);
#1088=ADVANCED_FACE('',(#974),#1034,.F.);
#1089=ADVANCED_FACE('',(#975),#1035,.F.);
#1090=ADVANCED_FACE('',(#976),#1036,.F.);
#1091=ADVANCED_FACE('',(#977),#1037,.F.);
#1092=ADVANCED_FACE('',(#978),#1038,.F.);
#1093=ADVANCED_FACE('',(#979),#1039,.F.);
#1094=ADVANCED_FACE('',(#980),#1040,.F.);
#1095=ADVANCED_FACE('',(#981),#1041,.F.);
#1096=ADVANCED_FACE('',(#982),#1042,.F.);
#1097=ADVANCED_FACE('',(#983),#1043,.F.);
#1098=ADVANCED_FACE('',(#984),#1044,.F.);
#1099=ADVANCED_FACE('',(#985),#1045,.F.);
#1100=ADVANCED_FACE('',(#986),#1046,.F.);
#1101=ADVANCED_FACE('',(#987),#1047,.F.);
#1102=ADVANCED_FACE('',(#988),#1048,.F.);
#1103=ADVANCED_FACE('',(#989),#1049,.F.);
#1104=ADVANCED_FACE('',(#990),#1050,.F.);
#1105=ADVANCED_FACE('',(#991),#1051,.T.);
#1106=ADVANCED_FACE('',(#992),#1052,.T.);
#1107=ADVANCED_FACE('',(#993),#1053,.T.);
#1108=ADVANCED_FACE('',(#994),#1054,.T.);
#1109=ADVANCED_FACE('',(#995),#1055,.T.);
#1110=ADVANCED_FACE('',(#996),#1056,.T.);
#1111=ADVANCED_FACE('',(#997),#1057,.T.);
#1112=ADVANCED_FACE('',(#998),#1058,.T.);
#1113=ADVANCED_FACE('',(#999),#1059,.T.);
#1114=ADVANCED_FACE('',(#1000),#1060,.T.);
#1115=ADVANCED_FACE('',(#1001),#1061,.T.);
#1116=ADVANCED_FACE('',(#1002),#1062,.T.);
#1117=ADVANCED_FACE('',(#1003),#1063,.T.);
#1118=ADVANCED_FACE('',(#1004),#1064,.T.);
#1119=ADVANCED_FACE('',(#1005),#1065,.T.);
#1120=ADVANCED_FACE('',(#1006),#1066,.T.);
#1121=ADVANCED_FACE('',(#1007),#1067,.F.);
#1122=ADVANCED_FACE('',(#1008,#1009,#1010,#1011),#1068,.T.);
#1123=ADVANCED_FACE('',(#1012,#1013,#1014,#1015),#1069,.F.);
#1124=CLOSED_SHELL('',(#1070,#1071,#1072,#1073,#1074,#1075,#1076,#1077,
#1078,#1079,#1080,#1081,#1082,#1083,#1084,#1085,#1086,#1087,#1088,#1089,
#1090,#1091,#1092,#1093,#1094,#1095,#1096,#1097,#1098,#1099,#1100,#1101,
#1102,#1103,#1104,#1105,#1106,#1107,#1108,#1109,#1110,#1111,#1112,#1113,
#1114,#1115,#1116,#1117,#1118,#1119,#1120,#1121,#1122,#1123));
#1125=STYLED_ITEM('',(#1126),#1133);
#1126=PRESENTATION_STYLE_ASSIGNMENT((#1127));
#1127=SURFACE_STYLE_USAGE(.BOTH.,#1128);
#1128=SURFACE_SIDE_STYLE('',(#1129));
#1129=SURFACE_STYLE_FILL_AREA(#1130);
#1130=FILL_AREA_STYLE('',(#1131));
#1131=FILL_AREA_STYLE_COLOUR('',#1132);
#1132=COLOUR_RGB('',0.682352941176471,0.333333333333334,0.737254901960784);
#1133=MANIFOLD_SOLID_BREP('Heart',#1124);
#1134=SHAPE_DEFINITION_REPRESENTATION(#1778,#1135);
#1135=SHAPE_REPRESENTATION('Heart',(#1136),#1773);
#1136=AXIS2_PLACEMENT_3D('',#1457,#1191,#1192);
#1137=AXIS2_PLACEMENT_3D('',#1458,#1193,#1194);
#1138=AXIS2_PLACEMENT_3D('',#1467,#1199,#1200);
#1139=AXIS2_PLACEMENT_3D('',#1473,#1204,#1205);
#1140=AXIS2_PLACEMENT_3D('',#1479,#1209,#1210);
#1141=AXIS2_PLACEMENT_3D('',#1485,#1214,#1215);
#1142=AXIS2_PLACEMENT_3D('',#1491,#1219,#1220);
#1143=AXIS2_PLACEMENT_3D('',#1497,#1224,#1225);
#1144=AXIS2_PLACEMENT_3D('',#1503,#1229,#1230);
#1145=AXIS2_PLACEMENT_3D('',#1509,#1234,#1235);
#1146=AXIS2_PLACEMENT_3D('',#1515,#1239,#1240);
#1147=AXIS2_PLACEMENT_3D('',#1521,#1244,#1245);
#1148=AXIS2_PLACEMENT_3D('',#1527,#1249,#1250);
#1149=AXIS2_PLACEMENT_3D('',#1533,#1254,#1255);
#1150=AXIS2_PLACEMENT_3D('',#1539,#1259,#1260);
#1151=AXIS2_PLACEMENT_3D('',#1545,#1264,#1265);
#1152=AXIS2_PLACEMENT_3D('',#1551,#1269,#1270);
#1153=AXIS2_PLACEMENT_3D('',#1557,#1274,#1275);
#1154=AXIS2_PLACEMENT_3D('',#1563,#1279,#1280);
#1155=AXIS2_PLACEMENT_3D('',#1569,#1284,#1285);
#1156=AXIS2_PLACEMENT_3D('',#1575,#1289,#1290);
#1157=AXIS2_PLACEMENT_3D('',#1581,#1294,#1295);
#1158=AXIS2_PLACEMENT_3D('',#1587,#1299,#1300);
#1159=AXIS2_PLACEMENT_3D('',#1593,#1304,#1305);
#1160=AXIS2_PLACEMENT_3D('',#1599,#1309,#1310);
#1161=AXIS2_PLACEMENT_3D('',#1605,#1314,#1315);
#1162=AXIS2_PLACEMENT_3D('',#1611,#1319,#1320);
#1163=AXIS2_PLACEMENT_3D('',#1617,#1324,#1325);
#1164=AXIS2_PLACEMENT_3D('',#1623,#1329,#1330);
#1165=AXIS2_PLACEMENT_3D('',#1629,#1334,#1335);
#1166=AXIS2_PLACEMENT_3D('',#1635,#1339,#1340);
#1167=AXIS2_PLACEMENT_3D('',#1641,#1344,#1345);
#1168=AXIS2_PLACEMENT_3D('',#1647,#1349,#1350);
#1169=AXIS2_PLACEMENT_3D('',#1653,#1354,#1355);
#1170=AXIS2_PLACEMENT_3D('',#1659,#1359,#1360);
#1171=AXIS2_PLACEMENT_3D('',#1665,#1364,#1365);
#1172=AXIS2_PLACEMENT_3D('',#1671,#1369,#1370);
#1173=AXIS2_PLACEMENT_3D('',#1680,#1375,#1376);
#1174=AXIS2_PLACEMENT_3D('',#1686,#1380,#1381);
#1175=AXIS2_PLACEMENT_3D('',#1692,#1385,#1386);
#1176=AXIS2_PLACEMENT_3D('',#1701,#1391,#1392);
#1177=AXIS2_PLACEMENT_3D('',#1707,#1396,#1397);
#1178=AXIS2_PLACEMENT_3D('',#1713,#1401,#1402);
#1179=AXIS2_PLACEMENT_3D('',#1722,#1407,#1408);
#1180=AXIS2_PLACEMENT_3D('',#1728,#1412,#1413);
#1181=AXIS2_PLACEMENT_3D('',#1734,#1417,#1418);
#1182=AXIS2_PLACEMENT_3D('',#1740,#1422,#1423);
#1183=AXIS2_PLACEMENT_3D('',#1746,#1427,#1428);
#1184=AXIS2_PLACEMENT_3D('',#1752,#1432,#1433);
#1185=AXIS2_PLACEMENT_3D('',#1758,#1437,#1438);
#1186=AXIS2_PLACEMENT_3D('',#1761,#1441,#1442);
#1187=AXIS2_PLACEMENT_3D('',#1764,#1445,#1446);
#1188=AXIS2_PLACEMENT_3D('',#1767,#1449,#1450);
#1189=AXIS2_PLACEMENT_3D('',#1770,#1453,#1454);
#1190=AXIS2_PLACEMENT_3D('',#1771,#1455,#1456);
#1191=DIRECTION('',(0.,0.,1.));
#1192=DIRECTION('',(1.,0.,0.));
#1193=DIRECTION('',(0.996194698091745,-0.0871557427476588,0.));
#1194=DIRECTION('',(0.0871557427476588,0.996194698091746,0.));
#1195=DIRECTION('',(-0.0871557427476589,-0.996194698091746,0.));
#1196=DIRECTION('',(0.,0.,-1.));
#1197=DIRECTION('',(-0.0871557427476589,-0.996194698091746,0.));
#1198=DIRECTION('',(0.,0.,-1.));
#1199=DIRECTION('',(-0.0871557427476572,-0.996194698091746,0.));
#1200=DIRECTION('',(0.996194698091746,-0.0871557427476572,0.));
#1201=DIRECTION('',(-0.996194698091746,0.0871557427476572,0.));
#1202=DIRECTION('',(0.,0.,-1.));
#1203=DIRECTION('',(-0.996194698091746,0.0871557427476572,0.));
#1204=DIRECTION('',(0.996194698091746,-0.0871557427476568,0.));
#1205=DIRECTION('',(0.0871557427476568,0.996194698091746,0.));
#1206=DIRECTION('',(-0.0871557427476568,-0.996194698091746,0.));
#1207=DIRECTION('',(0.,0.,-1.));
#1208=DIRECTION('',(-0.0871557427476568,-0.996194698091746,0.));
#1209=DIRECTION('',(-0.0871557427476589,-0.996194698091745,0.));
#1210=DIRECTION('',(0.996194698091746,-0.0871557427476589,0.));
#1211=DIRECTION('',(-0.996194698091746,0.0871557427476589,0.));
#1212=DIRECTION('',(0.,0.,-1.));
#1213=DIRECTION('',(-0.996194698091746,0.0871557427476589,0.));
#1214=DIRECTION('',(0.996194698091746,-0.0871557427476581,0.));
#1215=DIRECTION('',(0.0871557427476581,0.996194698091746,0.));
#1216=DIRECTION('',(-0.0871557427476581,-0.996194698091746,0.));
#1217=DIRECTION('',(0.,0.,-1.));
#1218=DIRECTION('',(-0.0871557427476581,-0.996194698091746,0.));
#1219=DIRECTION('',(0.0871557427476604,0.996194698091745,0.));
#1220=DIRECTION('',(-0.996194698091745,0.0871557427476604,0.));
#1221=DIRECTION('',(0.996194698091745,-0.0871557427476604,0.));
#1222=DIRECTION('',(0.,0.,-1.));
#1223=DIRECTION('',(0.996194698091745,-0.0871557427476604,0.));
#1224=DIRECTION('',(0.996194698091746,-0.0871557427476583,0.));
#1225=DIRECTION('',(0.0871557427476583,0.996194698091746,0.));
#1226=DIRECTION('',(-0.0871557427476583,-0.996194698091746,0.));
#1227=DIRECTION('',(0.,0.,-1.));
#1228=DIRECTION('',(-0.0871557427476583,-0.996194698091746,0.));
#1229=DIRECTION('',(0.0871557427476605,0.996194698091745,0.));
#1230=DIRECTION('',(-0.996194698091745,0.0871557427476605,0.));
#1231=DIRECTION('',(0.996194698091745,-0.0871557427476605,0.));
#1232=DIRECTION('',(0.,0.,-1.));
#1233=DIRECTION('',(0.996194698091745,-0.0871557427476605,0.));
#1234=DIRECTION('',(0.996194698091746,-0.0871557427476582,0.));
#1235=DIRECTION('',(0.0871557427476582,0.996194698091746,0.));
#1236=DIRECTION('',(-0.0871557427476582,-0.996194698091746,0.));
#1237=DIRECTION('',(0.,0.,-1.));
#1238=DIRECTION('',(-0.0871557427476582,-0.996194698091746,0.));
#1239=DIRECTION('',(0.0871557427476606,0.996194698091745,0.));
#1240=DIRECTION('',(-0.996194698091745,0.0871557427476606,0.));
#1241=DIRECTION('',(0.996194698091745,-0.0871557427476606,0.));
#1242=DIRECTION('',(0.,0.,-1.));
#1243=DIRECTION('',(0.996194698091745,-0.0871557427476606,0.));
#1244=DIRECTION('',(0.996194698091746,-0.087155742747658,0.));
#1245=DIRECTION('',(0.087155742747658,0.996194698091746,0.));
#1246=DIRECTION('',(-0.087155742747658,-0.996194698091746,0.));
#1247=DIRECTION('',(0.,0.,-1.));
#1248=DIRECTION('',(-0.087155742747658,-0.996194698091746,0.));
#1249=DIRECTION('',(0.0871557427476606,0.996194698091745,0.));
#1250=DIRECTION('',(-0.996194698091745,0.0871557427476606,0.));
#1251=DIRECTION('',(0.996194698091745,-0.0871557427476606,0.));
#1252=DIRECTION('',(0.,0.,-1.));
#1253=DIRECTION('',(0.996194698091745,-0.0871557427476606,0.));
#1254=DIRECTION('',(0.996194698091746,-0.087155742747658,0.));
#1255=DIRECTION('',(0.087155742747658,0.996194698091746,0.));
#1256=DIRECTION('',(-0.087155742747658,-0.996194698091746,0.));
#1257=DIRECTION('',(0.,0.,-1.));
#1258=DIRECTION('',(-0.087155742747658,-0.996194698091746,0.));
#1259=DIRECTION('',(0.0871557427476604,0.996194698091745,0.));
#1260=DIRECTION('',(-0.996194698091745,0.0871557427476604,0.));
#1261=DIRECTION('',(0.996194698091745,-0.0871557427476604,0.));
#1262=DIRECTION('',(0.,0.,-1.));
#1263=DIRECTION('',(0.996194698091745,-0.0871557427476604,0.));
#1264=DIRECTION('',(0.996194698091746,-0.087155742747658,0.));
#1265=DIRECTION('',(0.087155742747658,0.996194698091746,0.));
#1266=DIRECTION('',(-0.087155742747658,-0.996194698091746,0.));
#1267=DIRECTION('',(0.,0.,-1.));
#1268=DIRECTION('',(-0.087155742747658,-0.996194698091746,0.));
#1269=DIRECTION('',(0.0871557427476583,0.996194698091746,0.));
#1270=DIRECTION('',(-0.996194698091746,0.0871557427476583,0.));
#1271=DIRECTION('',(0.996194698091746,-0.0871557427476583,0.));
#1272=DIRECTION('',(0.,0.,-1.));
#1273=DIRECTION('',(0.996194698091746,-0.0871557427476583,0.));
#1274=DIRECTION('',(-0.996194698091746,0.0871557427476578,0.));
#1275=DIRECTION('',(-0.0871557427476578,-0.996194698091746,0.));
#1276=DIRECTION('',(0.0871557427476578,0.996194698091746,0.));
#1277=DIRECTION('',(0.,0.,-1.));
#1278=DIRECTION('',(0.0871557427476578,0.996194698091746,0.));
#1279=DIRECTION('',(0.087155742747655,0.996194698091746,0.));
#1280=DIRECTION('',(-0.996194698091746,0.087155742747655,0.));
#1281=DIRECTION('',(0.996194698091746,-0.087155742747655,0.));
#1282=DIRECTION('',(0.,0.,-1.));
#1283=DIRECTION('',(0.996194698091746,-0.087155742747655,0.));
#1284=DIRECTION('',(-0.996194698091746,0.0871557427476584,0.));
#1285=DIRECTION('',(-0.0871557427476584,-0.996194698091746,0.));
#1286=DIRECTION('',(0.0871557427476584,0.996194698091746,0.));
#1287=DIRECTION('',(0.,0.,-1.));
#1288=DIRECTION('',(0.0871557427476584,0.996194698091746,0.));
#1289=DIRECTION('',(0.0871557427476606,0.996194698091745,0.));
#1290=DIRECTION('',(-0.996194698091745,0.0871557427476606,0.));
#1291=DIRECTION('',(0.996194698091745,-0.0871557427476606,0.));
#1292=DIRECTION('',(0.,0.,-1.));
#1293=DIRECTION('',(0.996194698091745,-0.0871557427476606,0.));
#1294=DIRECTION('',(-0.996194698091745,0.0871557427476602,0.));
#1295=DIRECTION('',(-0.0871557427476602,-0.996194698091746,0.));
#1296=DIRECTION('',(0.0871557427476602,0.996194698091745,0.));
#1297=DIRECTION('',(0.,0.,-1.));
#1298=DIRECTION('',(0.0871557427476602,0.996194698091745,0.));
#1299=DIRECTION('',(0.0871557427476606,0.996194698091745,0.));
#1300=DIRECTION('',(-0.996194698091745,0.0871557427476606,0.));
#1301=DIRECTION('',(0.996194698091745,-0.0871557427476606,0.));
#1302=DIRECTION('',(0.,0.,-1.));
#1303=DIRECTION('',(0.996194698091745,-0.0871557427476606,0.));
#1304=DIRECTION('',(-0.996194698091745,0.0871557427476602,0.));
#1305=DIRECTION('',(-0.0871557427476602,-0.996194698091746,0.));
#1306=DIRECTION('',(0.0871557427476602,0.996194698091745,0.));
#1307=DIRECTION('',(0.,0.,-1.));
#1308=DIRECTION('',(0.0871557427476602,0.996194698091745,0.));
#1309=DIRECTION('',(0.0871557427476606,0.996194698091745,0.));
#1310=DIRECTION('',(-0.996194698091745,0.0871557427476606,0.));
#1311=DIRECTION('',(0.996194698091745,-0.0871557427476606,0.));
#1312=DIRECTION('',(0.,0.,-1.));
#1313=DIRECTION('',(0.996194698091745,-0.0871557427476606,0.));
#1314=DIRECTION('',(-0.996194698091746,0.0871557427476576,0.));
#1315=DIRECTION('',(-0.0871557427476576,-0.996194698091746,0.));
#1316=DIRECTION('',(0.0871557427476576,0.996194698091746,0.));
#1317=DIRECTION('',(0.,0.,-1.));
#1318=DIRECTION('',(0.0871557427476576,0.996194698091746,0.));
#1319=DIRECTION('',(0.0871557427476604,0.996194698091745,0.));
#1320=DIRECTION('',(-0.996194698091745,0.0871557427476604,0.));
#1321=DIRECTION('',(0.996194698091745,-0.0871557427476604,0.));
#1322=DIRECTION('',(0.,0.,-1.));
#1323=DIRECTION('',(0.996194698091745,-0.0871557427476604,0.));
#1324=DIRECTION('',(-0.996194698091745,0.0871557427476588,0.));
#1325=DIRECTION('',(-0.0871557427476589,-0.996194698091746,0.));
#1326=DIRECTION('',(0.0871557427476589,0.996194698091746,0.));
#1327=DIRECTION('',(0.,0.,-1.));
#1328=DIRECTION('',(0.0871557427476589,0.996194698091746,0.));
#1329=DIRECTION('',(-0.0871557427476604,-0.996194698091745,0.));
#1330=DIRECTION('',(0.996194698091745,-0.0871557427476604,0.));
#1331=DIRECTION('',(-0.996194698091745,0.0871557427476604,0.));
#1332=DIRECTION('',(0.,0.,-1.));
#1333=DIRECTION('',(-0.996194698091745,0.0871557427476604,0.));
#1334=DIRECTION('',(-0.996194698091746,0.0871557427476575,0.));
#1335=DIRECTION('',(-0.0871557427476575,-0.996194698091746,0.));
#1336=DIRECTION('',(0.0871557427476575,0.996194698091746,0.));
#1337=DIRECTION('',(0.,0.,-1.));
#1338=DIRECTION('',(0.0871557427476575,0.996194698091746,0.));
#1339=DIRECTION('',(-0.0871557427476555,-0.996194698091746,0.));
#1340=DIRECTION('',(0.996194698091746,-0.0871557427476555,0.));
#1341=DIRECTION('',(-0.996194698091746,0.0871557427476555,0.));
#1342=DIRECTION('',(0.,0.,-1.));
#1343=DIRECTION('',(-0.996194698091746,0.0871557427476555,0.));
#1344=DIRECTION('',(-0.996194698091746,0.0871557427476562,0.));
#1345=DIRECTION('',(-0.0871557427476562,-0.996194698091746,0.));
#1346=DIRECTION('',(0.0871557427476562,0.996194698091746,0.));
#1347=DIRECTION('',(0.,0.,-1.));
#1348=DIRECTION('',(0.0871557427476562,0.996194698091746,0.));
#1349=DIRECTION('',(-0.0871557427476578,-0.996194698091746,0.));
#1350=DIRECTION('',(0.996194698091746,-0.0871557427476578,0.));
#1351=DIRECTION('',(-0.996194698091746,0.0871557427476578,0.));
#1352=DIRECTION('',(0.,0.,-1.));
#1353=DIRECTION('',(-0.996194698091746,0.0871557427476578,0.));
#1354=DIRECTION('',(0.996194698091745,-0.0871557427476593,0.));
#1355=DIRECTION('',(0.0871557427476594,0.996194698091746,0.));
#1356=DIRECTION('',(-0.0871557427476594,-0.996194698091746,0.));
#1357=DIRECTION('',(0.,0.,-1.));
#1358=DIRECTION('',(-0.0871557427476594,-0.996194698091746,0.));
#1359=DIRECTION('',(-0.087155742747657,-0.996194698091746,0.));
#1360=DIRECTION('',(0.996194698091746,-0.087155742747657,0.));
#1361=DIRECTION('',(-0.996194698091746,0.087155742747657,0.));
#1362=DIRECTION('',(0.,0.,-1.));
#1363=DIRECTION('',(-0.996194698091746,0.087155742747657,0.));
#1364=DIRECTION('',(-0.996194698091746,0.0871557427476578,0.));
#1365=DIRECTION('',(-0.0871557427476578,-0.996194698091746,0.));
#1366=DIRECTION('',(0.0871557427476578,0.996194698091746,0.));
#1367=DIRECTION('',(0.,0.,-1.));
#1368=DIRECTION('',(0.0871557427476578,0.996194698091746,0.));
#1369=DIRECTION('',(0.996194698091746,-0.0871557427476584,0.));
#1370=DIRECTION('',(0.0871557427476584,0.996194698091746,0.));
#1371=DIRECTION('',(-0.0871557427476584,-0.996194698091746,0.));
#1372=DIRECTION('',(0.,0.,-1.));
#1373=DIRECTION('',(-0.0871557427476584,-0.996194698091746,0.));
#1374=DIRECTION('',(0.,0.,-1.));
#1375=DIRECTION('',(-0.0871557427476564,-0.996194698091746,0.));
#1376=DIRECTION('',(0.996194698091746,-0.0871557427476564,0.));
#1377=DIRECTION('',(-0.996194698091746,0.0871557427476564,0.));
#1378=DIRECTION('',(0.,0.,-1.));
#1379=DIRECTION('',(-0.996194698091746,0.0871557427476564,0.));
#1380=DIRECTION('',(-0.996194698091746,0.0871557427476575,0.));
#1381=DIRECTION('',(-0.0871557427476575,-0.996194698091746,0.));
#1382=DIRECTION('',(0.0871557427476575,0.996194698091746,0.));
#1383=DIRECTION('',(0.,0.,-1.));
#1384=DIRECTION('',(0.0871557427476575,0.996194698091746,0.));
#1385=DIRECTION('',(0.996194698091746,-0.0871557427476581,0.));
#1386=DIRECTION('',(0.0871557427476581,0.996194698091746,0.));
#1387=DIRECTION('',(-0.0871557427476581,-0.996194698091746,0.));
#1388=DIRECTION('',(0.,0.,-1.));
#1389=DIRECTION('',(-0.0871557427476581,-0.996194698091746,0.));
#1390=DIRECTION('',(0.,0.,-1.));
#1391=DIRECTION('',(-0.0871557427476563,-0.996194698091746,0.));
#1392=DIRECTION('',(0.996194698091746,-0.0871557427476563,0.));
#1393=DIRECTION('',(-0.996194698091746,0.0871557427476563,0.));
#1394=DIRECTION('',(0.,0.,-1.));
#1395=DIRECTION('',(-0.996194698091746,0.0871557427476563,0.));
#1396=DIRECTION('',(-0.996194698091746,0.0871557427476569,0.));
#1397=DIRECTION('',(-0.0871557427476569,-0.996194698091746,0.));
#1398=DIRECTION('',(0.0871557427476569,0.996194698091746,0.));
#1399=DIRECTION('',(0.,0.,-1.));
#1400=DIRECTION('',(0.0871557427476569,0.996194698091746,0.));
#1401=DIRECTION('',(0.996194698091746,-0.0871557427476577,0.));
#1402=DIRECTION('',(0.0871557427476577,0.996194698091746,0.));
#1403=DIRECTION('',(-0.0871557427476577,-0.996194698091746,0.));
#1404=DIRECTION('',(0.,0.,-1.));
#1405=DIRECTION('',(-0.0871557427476577,-0.996194698091746,0.));
#1406=DIRECTION('',(0.,0.,-1.));
#1407=DIRECTION('',(-0.0871557427476524,-0.996194698091746,0.));
#1408=DIRECTION('',(0.996194698091746,-0.0871557427476524,0.));
#1409=DIRECTION('',(-0.996194698091746,0.0871557427476524,0.));
#1410=DIRECTION('',(0.,0.,-1.));
#1411=DIRECTION('',(-0.996194698091746,0.0871557427476524,0.));
#1412=DIRECTION('',(-0.996194698091746,0.0871557427476524,0.));
#1413=DIRECTION('',(-0.0871557427476524,-0.996194698091746,0.));
#1414=DIRECTION('',(0.0871557427476524,0.996194698091746,0.));
#1415=DIRECTION('',(0.,0.,-1.));
#1416=DIRECTION('',(0.0871557427476524,0.996194698091746,0.));
#1417=DIRECTION('',(0.0871557427476551,0.996194698091746,0.));
#1418=DIRECTION('',(-0.996194698091746,0.0871557427476551,0.));
#1419=DIRECTION('',(0.996194698091746,-0.0871557427476551,0.));
#1420=DIRECTION('',(0.,0.,-1.));
#1421=DIRECTION('',(0.996194698091746,-0.0871557427476551,0.));
#1422=DIRECTION('',(-0.996194698091746,0.0871557427476584,0.));
#1423=DIRECTION('',(-0.0871557427476584,-0.996194698091746,0.));
#1424=DIRECTION('',(0.0871557427476584,0.996194698091746,0.));
#1425=DIRECTION('',(0.,0.,-1.));
#1426=DIRECTION('',(0.0871557427476584,0.996194698091746,0.));
#1427=DIRECTION('',(0.0871557427476588,0.996194698091745,0.));
#1428=DIRECTION('',(-0.996194698091746,0.0871557427476588,0.));
#1429=DIRECTION('',(0.996194698091746,-0.0871557427476588,0.));
#1430=DIRECTION('',(0.,0.,-1.));
#1431=DIRECTION('',(0.996194698091746,-0.0871557427476588,0.));
#1432=DIRECTION('',(0.996194698091746,-0.0871557427476582,0.));
#1433=DIRECTION('',(0.0871557427476582,0.996194698091746,0.));
#1434=DIRECTION('',(-0.0871557427476582,-0.996194698091746,0.));
#1435=DIRECTION('',(0.,0.,-1.));
#1436=DIRECTION('',(-0.0871557427476582,-0.996194698091746,0.));
#1437=DIRECTION('',(0.0871557427476623,0.996194698091745,0.));
#1438=DIRECTION('',(-0.996194698091745,0.0871557427476623,0.));
#1439=DIRECTION('',(0.996194698091745,-0.0871557427476623,0.));
#1440=DIRECTION('',(0.996194698091745,-0.0871557427476623,0.));
#1441=DIRECTION('',(0.0871557427476561,0.996194698091746,0.));
#1442=DIRECTION('',(-0.996194698091746,0.0871557427476561,0.));
#1443=DIRECTION('',(0.996194698091746,-0.0871557427476561,0.));
#1444=DIRECTION('',(0.996194698091746,-0.0871557427476561,0.));
#1445=DIRECTION('',(0.0871557427476579,0.996194698091746,0.));
#1446=DIRECTION('',(-0.996194698091746,0.0871557427476579,0.));
#1447=DIRECTION('',(0.996194698091746,-0.0871557427476579,0.));
#1448=DIRECTION('',(0.996194698091746,-0.0871557427476579,0.));
#1449=DIRECTION('',(-0.087155742747658,-0.996194698091746,0.));
#1450=DIRECTION('',(0.996194698091746,-0.087155742747658,0.));
#1451=DIRECTION('',(-0.996194698091746,0.087155742747658,0.));
#1452=DIRECTION('',(-0.996194698091746,0.087155742747658,0.));
#1453=DIRECTION('',(0.,0.,1.));
#1454=DIRECTION('',(1.,0.,0.));
#1455=DIRECTION('',(0.,0.,1.));
#1456=DIRECTION('',(1.,0.,0.));
#1457=CARTESIAN_POINT('',(0.,0.,0.));
#1458=CARTESIAN_POINT('',(0.00700579993862964,-0.0151789083617047,0.0028));
#1459=CARTESIAN_POINT('',(0.00700579993862964,-0.0151789083617047,0.0018));
#1460=CARTESIAN_POINT('',(0.00706197807400916,-0.0145367893360451,0.0018));
#1461=CARTESIAN_POINT('',(0.00694962180325012,-0.0158210273873642,0.0018));
#1462=CARTESIAN_POINT('',(0.00694962180325012,-0.0158210273873642,0.0028));
#1463=CARTESIAN_POINT('',(0.00694962180325012,-0.0158210273873642,0.0028));
#1464=CARTESIAN_POINT('',(0.00700579993862964,-0.0151789083617047,0.0028));
#1465=CARTESIAN_POINT('',(0.00706197807400916,-0.0145367893360451,0.0028));
#1466=CARTESIAN_POINT('',(0.00706197807400916,-0.0145367893360451,0.0028));
#1467=CARTESIAN_POINT('',(0.0063075027775906,-0.0157648492519846,0.0028));
#1468=CARTESIAN_POINT('',(0.0063075027775906,-0.0157648492519846,0.0018));
#1469=CARTESIAN_POINT('',(0.00566538375193109,-0.0157086711166051,0.0018));
#1470=CARTESIAN_POINT('',(0.00566538375193109,-0.0157086711166051,0.0028));
#1471=CARTESIAN_POINT('',(0.00566538375193109,-0.0157086711166051,0.0028));
#1472=CARTESIAN_POINT('',(0.0063075027775906,-0.0157648492519846,0.0028));
#1473=CARTESIAN_POINT('',(0.00558030041281756,-0.0166811781327663,0.0028));
#1474=CARTESIAN_POINT('',(0.00558030041281756,-0.0166811781327663,0.0018));
#1475=CARTESIAN_POINT('',(0.00549521707370404,-0.0176536851489274,0.0018));
#1476=CARTESIAN_POINT('',(0.00549521707370404,-0.0176536851489274,0.0028));
#1477=CARTESIAN_POINT('',(0.00549521707370404,-0.0176536851489274,0.0028));
#1478=CARTESIAN_POINT('',(0.00558030041281756,-0.0166811781327663,0.0028));
#1479=CARTESIAN_POINT('',(0.00480828924364158,-0.0175935867511365,0.0028));
#1480=CARTESIAN_POINT('',(0.00480828924364158,-0.0175935867511365,0.0018));
#1481=CARTESIAN_POINT('',(0.00412136141357912,-0.0175334883533456,0.0018));
#1482=CARTESIAN_POINT('',(0.00412136141357912,-0.0175334883533456,0.0028));
#1483=CARTESIAN_POINT('',(0.00412136141357912,-0.0175334883533456,0.0028));
#1484=CARTESIAN_POINT('',(0.00480828924364158,-0.0175935867511365,0.0028));
#1485=CARTESIAN_POINT('',(0.00385790188523106,-0.0205448445420247,0.0028));
#1486=CARTESIAN_POINT('',(0.00385790188523106,-0.0205448445420247,0.0018));
#1487=CARTESIAN_POINT('',(0.00359444235688299,-0.0235562007307039,0.0018));
#1488=CARTESIAN_POINT('',(0.00359444235688299,-0.0235562007307039,0.0028));
#1489=CARTESIAN_POINT('',(0.00359444235688299,-0.0235562007307039,0.0028));
#1490=CARTESIAN_POINT('',(0.00385790188523106,-0.0205448445420247,0.0028));
#1491=CARTESIAN_POINT('',(0.0042365613825425,-0.0236123788660835,0.0028));
#1492=CARTESIAN_POINT('',(0.0042365613825425,-0.0236123788660835,0.0018));
#1493=CARTESIAN_POINT('',(0.00487868040820201,-0.023668557001463,0.0018));
#1494=CARTESIAN_POINT('',(0.00487868040820201,-0.023668557001463,0.0028));
#1495=CARTESIAN_POINT('',(0.00487868040820201,-0.023668557001463,0.0028));
#1496=CARTESIAN_POINT('',(0.0042365613825425,-0.0236123788660835,0.0028));
#1497=CARTESIAN_POINT('',(0.00476632413744297,-0.024952795052782,0.0028));
#1498=CARTESIAN_POINT('',(0.00476632413744297,-0.024952795052782,0.0018));
#1499=CARTESIAN_POINT('',(0.00465396786668394,-0.0262370331041011,0.0018));
#1500=CARTESIAN_POINT('',(0.00465396786668394,-0.0262370331041011,0.0028));
#1501=CARTESIAN_POINT('',(0.00465396786668394,-0.0262370331041011,0.0028));
#1502=CARTESIAN_POINT('',(0.00476632413744297,-0.024952795052782,0.0028));
#1503=CARTESIAN_POINT('',(0.00529608689234345,-0.0262932112394806,0.0028));
#1504=CARTESIAN_POINT('',(0.00529608689234345,-0.0262932112394806,0.0018));
#1505=CARTESIAN_POINT('',(0.00593820591800296,-0.0263493893748601,0.0018));
#1506=CARTESIAN_POINT('',(0.00593820591800296,-0.0263493893748601,0.0028));
#1507=CARTESIAN_POINT('',(0.00593820591800296,-0.0263493893748601,0.0028));
#1508=CARTESIAN_POINT('',(0.00529608689234345,-0.0262932112394806,0.0028));
#1509=CARTESIAN_POINT('',(0.00588202778262344,-0.0269915084005196,0.0028));
#1510=CARTESIAN_POINT('',(0.00588202778262344,-0.0269915084005196,0.0018));
#1511=CARTESIAN_POINT('',(0.00582584964724392,-0.0276336274261791,0.0018));
#1512=CARTESIAN_POINT('',(0.00582584964724392,-0.0276336274261791,0.0028));
#1513=CARTESIAN_POINT('',(0.00582584964724392,-0.0276336274261791,0.0028));
#1514=CARTESIAN_POINT('',(0.00588202778262344,-0.0269915084005196,0.0028));
#1515=CARTESIAN_POINT('',(0.00646796867290343,-0.0276898055615586,0.0028));
#1516=CARTESIAN_POINT('',(0.00646796867290343,-0.0276898055615586,0.0018));
#1517=CARTESIAN_POINT('',(0.00711008769856294,-0.0277459836969381,0.0018));
#1518=CARTESIAN_POINT('',(0.00711008769856294,-0.0277459836969381,0.0028));
#1519=CARTESIAN_POINT('',(0.00711008769856294,-0.0277459836969381,0.0028));
#1520=CARTESIAN_POINT('',(0.00646796867290343,-0.0276898055615586,0.0028));
#1521=CARTESIAN_POINT('',(0.00705390956318342,-0.0283881027225977,0.0028));
#1522=CARTESIAN_POINT('',(0.00705390956318342,-0.0283881027225977,0.0018));
#1523=CARTESIAN_POINT('',(0.0069977314278039,-0.0290302217482571,0.0018));
#1524=CARTESIAN_POINT('',(0.0069977314278039,-0.0290302217482571,0.0028));
#1525=CARTESIAN_POINT('',(0.0069977314278039,-0.0290302217482571,0.0028));
#1526=CARTESIAN_POINT('',(0.00705390956318342,-0.0283881027225977,0.0028));
#1527=CARTESIAN_POINT('',(0.00763985045346341,-0.0290863998836367,0.0028));
#1528=CARTESIAN_POINT('',(0.00763985045346341,-0.0290863998836367,0.0018));
#1529=CARTESIAN_POINT('',(0.00828196947912292,-0.0291425780190162,0.0018));
#1530=CARTESIAN_POINT('',(0.00828196947912292,-0.0291425780190162,0.0028));
#1531=CARTESIAN_POINT('',(0.00828196947912292,-0.0291425780190162,0.0028));
#1532=CARTESIAN_POINT('',(0.00763985045346341,-0.0290863998836367,0.0028));
#1533=CARTESIAN_POINT('',(0.0082257913437434,-0.0297846970446757,0.0028));
#1534=CARTESIAN_POINT('',(0.0082257913437434,-0.0297846970446757,0.0018));
#1535=CARTESIAN_POINT('',(0.00816961320836388,-0.0304268160703352,0.0018));
#1536=CARTESIAN_POINT('',(0.00816961320836388,-0.0304268160703352,0.0028));
#1537=CARTESIAN_POINT('',(0.00816961320836388,-0.0304268160703352,0.0028));
#1538=CARTESIAN_POINT('',(0.0082257913437434,-0.0297846970446757,0.0028));
#1539=CARTESIAN_POINT('',(0.00881173223402339,-0.0304829942057148,0.0028));
#1540=CARTESIAN_POINT('',(0.00881173223402339,-0.0304829942057148,0.0018));
#1541=CARTESIAN_POINT('',(0.0094538512596829,-0.0305391723410942,0.0018));
#1542=CARTESIAN_POINT('',(0.0094538512596829,-0.0305391723410942,0.0028));
#1543=CARTESIAN_POINT('',(0.0094538512596829,-0.0305391723410942,0.0028));
#1544=CARTESIAN_POINT('',(0.00881173223402339,-0.0304829942057148,0.0028));
#1545=CARTESIAN_POINT('',(0.00939767312430338,-0.0311812913667537,0.0028));
#1546=CARTESIAN_POINT('',(0.00939767312430338,-0.0311812913667537,0.0018));
#1547=CARTESIAN_POINT('',(0.00934149498892387,-0.0318234103924133,0.0018));
#1548=CARTESIAN_POINT('',(0.00934149498892387,-0.0318234103924133,0.0028));
#1549=CARTESIAN_POINT('',(0.00934149498892387,-0.0318234103924133,0.0028));
#1550=CARTESIAN_POINT('',(0.00939767312430338,-0.0311812913667537,0.0028));
#1551=CARTESIAN_POINT('',(0.0123528511776031,-0.0320868699207614,0.0028));
#1552=CARTESIAN_POINT('',(0.0123528511776031,-0.0320868699207614,0.0018));
#1553=CARTESIAN_POINT('',(0.0153642073662823,-0.0323503294491094,0.0018));
#1554=CARTESIAN_POINT('',(0.0153642073662823,-0.0323503294491094,0.0028));
#1555=CARTESIAN_POINT('',(0.0153642073662823,-0.0323503294491094,0.0028));
#1556=CARTESIAN_POINT('',(0.0123528511776031,-0.0320868699207614,0.0028));
#1557=CARTESIAN_POINT('',(0.0154203855016618,-0.0317082104234499,0.0028));
#1558=CARTESIAN_POINT('',(0.0154203855016618,-0.0317082104234499,0.0018));
#1559=CARTESIAN_POINT('',(0.0154765636370413,-0.0310660913977904,0.0018));
#1560=CARTESIAN_POINT('',(0.0154765636370413,-0.0310660913977904,0.0028));
#1561=CARTESIAN_POINT('',(0.0154765636370413,-0.0310660913977904,0.0028));
#1562=CARTESIAN_POINT('',(0.0154203855016618,-0.0317082104234499,0.0028));
#1563=CARTESIAN_POINT('',(0.0161186826627008,-0.0311222695331699,0.0028));
#1564=CARTESIAN_POINT('',(0.0161186826627008,-0.0311222695331699,0.0018));
#1565=CARTESIAN_POINT('',(0.0167608016883604,-0.0311784476685494,0.0018));
#1566=CARTESIAN_POINT('',(0.0167608016883604,-0.0311784476685494,0.0028));
#1567=CARTESIAN_POINT('',(0.0167608016883604,-0.0311784476685494,0.0028));
#1568=CARTESIAN_POINT('',(0.0161186826627008,-0.0311222695331699,0.0028));
#1569=CARTESIAN_POINT('',(0.0168169798237398,-0.0305363286428899,0.0028));
#1570=CARTESIAN_POINT('',(0.0168169798237398,-0.0305363286428899,0.0018));
#1571=CARTESIAN_POINT('',(0.0168731579591193,-0.0298942096172304,0.0018));
#1572=CARTESIAN_POINT('',(0.0168731579591193,-0.0298942096172304,0.0028));
#1573=CARTESIAN_POINT('',(0.0168731579591193,-0.0298942096172304,0.0028));
#1574=CARTESIAN_POINT('',(0.0168169798237398,-0.0305363286428899,0.0028));
#1575=CARTESIAN_POINT('',(0.0175152769847789,-0.02995038775261,0.0028));
#1576=CARTESIAN_POINT('',(0.0175152769847789,-0.02995038775261,0.0018));
#1577=CARTESIAN_POINT('',(0.0181573960104384,-0.0300065658879894,0.0018));
#1578=CARTESIAN_POINT('',(0.0181573960104384,-0.0300065658879894,0.0028));
#1579=CARTESIAN_POINT('',(0.0181573960104384,-0.0300065658879894,0.0028));
#1580=CARTESIAN_POINT('',(0.0175152769847789,-0.02995038775261,0.0028));
#1581=CARTESIAN_POINT('',(0.0182135741458179,-0.0293644468623299,0.0028));
#1582=CARTESIAN_POINT('',(0.0182135741458179,-0.0293644468623299,0.0018));
#1583=CARTESIAN_POINT('',(0.0182697522811974,-0.0287223278366705,0.0018));
#1584=CARTESIAN_POINT('',(0.0182697522811974,-0.0287223278366705,0.0028));
#1585=CARTESIAN_POINT('',(0.0182697522811974,-0.0287223278366705,0.0028));
#1586=CARTESIAN_POINT('',(0.0182135741458179,-0.0293644468623299,0.0028));
#1587=CARTESIAN_POINT('',(0.0189118713068569,-0.02877850597205,0.0028));
#1588=CARTESIAN_POINT('',(0.0189118713068569,-0.02877850597205,0.0018));
#1589=CARTESIAN_POINT('',(0.0195539903325164,-0.0288346841074295,0.0018));
#1590=CARTESIAN_POINT('',(0.0195539903325164,-0.0288346841074295,0.0028));
#1591=CARTESIAN_POINT('',(0.0195539903325164,-0.0288346841074295,0.0028));
#1592=CARTESIAN_POINT('',(0.0189118713068569,-0.02877850597205,0.0028));
#1593=CARTESIAN_POINT('',(0.019610168467896,-0.0281925650817699,0.0028));
#1594=CARTESIAN_POINT('',(0.019610168467896,-0.0281925650817699,0.0018));
#1595=CARTESIAN_POINT('',(0.0196663466032755,-0.0275504460561104,0.0018));
#1596=CARTESIAN_POINT('',(0.0196663466032755,-0.0275504460561104,0.0028));
#1597=CARTESIAN_POINT('',(0.0196663466032755,-0.0275504460561104,0.0028));
#1598=CARTESIAN_POINT('',(0.019610168467896,-0.0281925650817699,0.0028));
#1599=CARTESIAN_POINT('',(0.020308465628935,-0.02760662419149,0.0028));
#1600=CARTESIAN_POINT('',(0.020308465628935,-0.02760662419149,0.0018));
#1601=CARTESIAN_POINT('',(0.0209505846545945,-0.0276628023268695,0.0018));
#1602=CARTESIAN_POINT('',(0.0209505846545945,-0.0276628023268695,0.0028));
#1603=CARTESIAN_POINT('',(0.0209505846545945,-0.0276628023268695,0.0028));
#1604=CARTESIAN_POINT('',(0.020308465628935,-0.02760662419149,0.0028));
#1605=CARTESIAN_POINT('',(0.0210629409253535,-0.0263785642755505,0.0028));
#1606=CARTESIAN_POINT('',(0.0210629409253535,-0.0263785642755505,0.0018));
#1607=CARTESIAN_POINT('',(0.0211752971961126,-0.0250943262242314,0.0018));
#1608=CARTESIAN_POINT('',(0.0211752971961126,-0.0250943262242314,0.0028));
#1609=CARTESIAN_POINT('',(0.0211752971961126,-0.0250943262242314,0.0028));
#1610=CARTESIAN_POINT('',(0.0210629409253535,-0.0263785642755505,0.0028));
#1611=CARTESIAN_POINT('',(0.0218174162217721,-0.025150504359611,0.0028));
#1612=CARTESIAN_POINT('',(0.0218174162217721,-0.025150504359611,0.0018));
#1613=CARTESIAN_POINT('',(0.0224595352474316,-0.0252066824949905,0.0018));
#1614=CARTESIAN_POINT('',(0.0224595352474316,-0.0252066824949905,0.0028));
#1615=CARTESIAN_POINT('',(0.0224595352474316,-0.0252066824949905,0.0028));
#1616=CARTESIAN_POINT('',(0.0218174162217721,-0.025150504359611,0.0028));
#1617=CARTESIAN_POINT('',(0.0227229947757796,-0.0221953263063112,0.0028));
#1618=CARTESIAN_POINT('',(0.0227229947757796,-0.0221953263063112,0.0018));
#1619=CARTESIAN_POINT('',(0.0229864543041278,-0.0191839701176321,0.0018));
#1620=CARTESIAN_POINT('',(0.0229864543041278,-0.0191839701176321,0.0028));
#1621=CARTESIAN_POINT('',(0.0229864543041278,-0.0191839701176321,0.0028));
#1622=CARTESIAN_POINT('',(0.0227229947757796,-0.0221953263063112,0.0028));
#1623=CARTESIAN_POINT('',(0.0223443352784682,-0.0191277919822525,0.0028));
#1624=CARTESIAN_POINT('',(0.0223443352784682,-0.0191277919822525,0.0018));
#1625=CARTESIAN_POINT('',(0.0217022162528087,-0.0190716138468731,0.0018));
#1626=CARTESIAN_POINT('',(0.0217022162528087,-0.0190716138468731,0.0028));
#1627=CARTESIAN_POINT('',(0.0217022162528087,-0.0190716138468731,0.0028));
#1628=CARTESIAN_POINT('',(0.0223443352784682,-0.0191277919822525,0.0028));
#1629=CARTESIAN_POINT('',(0.0217872995919223,-0.0180991068307119,0.0028));
#1630=CARTESIAN_POINT('',(0.0217872995919223,-0.0180991068307119,0.0018));
#1631=CARTESIAN_POINT('',(0.0218723829310358,-0.0171265998145507,0.0018));
#1632=CARTESIAN_POINT('',(0.0218723829310358,-0.0171265998145507,0.0028));
#1633=CARTESIAN_POINT('',(0.0218723829310358,-0.0171265998145507,0.0028));
#1634=CARTESIAN_POINT('',(0.0217872995919223,-0.0180991068307119,0.0028));
#1635=CARTESIAN_POINT('',(0.0212750727097792,-0.0170743419415826,0.0028));
#1636=CARTESIAN_POINT('',(0.0212750727097792,-0.0170743419415826,0.0018));
#1637=CARTESIAN_POINT('',(0.0206777624885227,-0.0170220840686145,0.0018));
#1638=CARTESIAN_POINT('',(0.0206777624885227,-0.0170220840686145,0.0028));
#1639=CARTESIAN_POINT('',(0.0206777624885227,-0.0170220840686145,0.0028));
#1640=CARTESIAN_POINT('',(0.0212750727097792,-0.0170743419415826,0.0028));
#1641=CARTESIAN_POINT('',(0.0207339406239021,-0.016379965042955,0.0028));
#1642=CARTESIAN_POINT('',(0.0207339406239021,-0.016379965042955,0.0018));
#1643=CARTESIAN_POINT('',(0.0207901187592816,-0.0157378460172955,0.0018));
#1644=CARTESIAN_POINT('',(0.0207901187592816,-0.0157378460172955,0.0028));
#1645=CARTESIAN_POINT('',(0.0207901187592816,-0.0157378460172955,0.0028));
#1646=CARTESIAN_POINT('',(0.0207339406239021,-0.016379965042955,0.0028));
#1647=CARTESIAN_POINT('',(0.018420881596262,-0.0155305646243269,0.0028));
#1648=CARTESIAN_POINT('',(0.018420881596262,-0.0155305646243269,0.0018));
#1649=CARTESIAN_POINT('',(0.0160516444332423,-0.0153232832313584,0.0018));
#1650=CARTESIAN_POINT('',(0.0160516444332423,-0.0153232832313584,0.0028));
#1651=CARTESIAN_POINT('',(0.0160516444332423,-0.0153232832313584,0.0028));
#1652=CARTESIAN_POINT('',(0.018420881596262,-0.0155305646243269,0.0028));
#1653=CARTESIAN_POINT('',(0.0159954662978628,-0.0159654022570179,0.0028));
#1654=CARTESIAN_POINT('',(0.0159954662978628,-0.0159654022570179,0.0018));
#1655=CARTESIAN_POINT('',(0.0159392881624832,-0.0166075212826774,0.0018));
#1656=CARTESIAN_POINT('',(0.0159392881624832,-0.0166075212826774,0.0028));
#1657=CARTESIAN_POINT('',(0.0159392881624832,-0.0166075212826774,0.0028));
#1658=CARTESIAN_POINT('',(0.0159954662978628,-0.0159654022570179,0.0028));
#1659=CARTESIAN_POINT('',(0.0138136921458864,-0.0164215557279894,0.0028));
#1660=CARTESIAN_POINT('',(0.0138136921458864,-0.0164215557279894,0.0018));
#1661=CARTESIAN_POINT('',(0.0116880961292895,-0.0162355901733013,0.0018));
#1662=CARTESIAN_POINT('',(0.0116880961292895,-0.0162355901733013,0.0028));
#1663=CARTESIAN_POINT('',(0.0116880961292895,-0.0162355901733013,0.0028));
#1664=CARTESIAN_POINT('',(0.0138136921458864,-0.0164215557279894,0.0028));
#1665=CARTESIAN_POINT('',(0.011744274264669,-0.0155934711476418,0.0028));
#1666=CARTESIAN_POINT('',(0.011744274264669,-0.0155934711476418,0.0018));
#1667=CARTESIAN_POINT('',(0.0118004524000485,-0.0149513521219822,0.0018));
#1668=CARTESIAN_POINT('',(0.0118004524000485,-0.0149513521219822,0.0028));
#1669=CARTESIAN_POINT('',(0.0118004524000485,-0.0149513521219822,0.0028));
#1670=CARTESIAN_POINT('',(0.011744274264669,-0.0155934711476418,0.0028));
#1671=CARTESIAN_POINT('',(0.0102006868593976,-0.0213152242620153,0.0028));
#1672=CARTESIAN_POINT('',(0.0102006868593976,-0.0213152242620153,0.0018));
#1673=CARTESIAN_POINT('',(0.0103866524140857,-0.0191896282454184,0.0018));
#1674=CARTESIAN_POINT('',(0.0100147213047095,-0.0234408202786122,0.0018));
#1675=CARTESIAN_POINT('',(0.0103866524140857,-0.0191896282454184,0.0028));
#1676=CARTESIAN_POINT('',(0.0103866524140857,-0.0191896282454184,0.0028));
#1677=CARTESIAN_POINT('',(0.0102006868593976,-0.0213152242620153,0.0028));
#1678=CARTESIAN_POINT('',(0.0100147213047095,-0.0234408202786122,0.0028));
#1679=CARTESIAN_POINT('',(0.0100147213047095,-0.0234408202786122,0.0028));
#1680=CARTESIAN_POINT('',(0.0112280103793636,-0.0192632375293475,0.0028));
#1681=CARTESIAN_POINT('',(0.0112280103793636,-0.0192632375293475,0.0018));
#1682=CARTESIAN_POINT('',(0.0120693683446415,-0.0193368468132765,0.0018));
#1683=CARTESIAN_POINT('',(0.0120693683446415,-0.0193368468132765,0.0028));
#1684=CARTESIAN_POINT('',(0.0120693683446415,-0.0193368468132765,0.0028));
#1685=CARTESIAN_POINT('',(0.0112280103793636,-0.0192632375293475,0.0028));
#1686=CARTESIAN_POINT('',(0.0118834027899534,-0.0214624428298733,0.0028));
#1687=CARTESIAN_POINT('',(0.0118834027899534,-0.0214624428298733,0.0018));
#1688=CARTESIAN_POINT('',(0.0116974372352653,-0.0235880388464703,0.0018));
#1689=CARTESIAN_POINT('',(0.0116974372352653,-0.0235880388464703,0.0028));
#1690=CARTESIAN_POINT('',(0.0116974372352653,-0.0235880388464703,0.0028));
#1691=CARTESIAN_POINT('',(0.0118834027899534,-0.0214624428298733,0.0028));
#1692=CARTESIAN_POINT('',(0.0151430756645216,-0.0218069272019805,0.0028));
#1693=CARTESIAN_POINT('',(0.0151430756645216,-0.0218069272019805,0.0018));
#1694=CARTESIAN_POINT('',(0.0153290412192097,-0.0196813311853836,0.0018));
#1695=CARTESIAN_POINT('',(0.0149571101098335,-0.0239325232185774,0.0018));
#1696=CARTESIAN_POINT('',(0.0153290412192097,-0.0196813311853836,0.0028));
#1697=CARTESIAN_POINT('',(0.0153290412192097,-0.0196813311853836,0.0028));
#1698=CARTESIAN_POINT('',(0.0151430756645216,-0.0218069272019805,0.0028));
#1699=CARTESIAN_POINT('',(0.0149571101098335,-0.0239325232185774,0.0028));
#1700=CARTESIAN_POINT('',(0.0149571101098335,-0.0239325232185774,0.0028));
#1701=CARTESIAN_POINT('',(0.0161703991844876,-0.0197549404693127,0.0028));
#1702=CARTESIAN_POINT('',(0.0161703991844876,-0.0197549404693127,0.0018));
#1703=CARTESIAN_POINT('',(0.0170117571497655,-0.0198285497532418,0.0018));
#1704=CARTESIAN_POINT('',(0.0170117571497655,-0.0198285497532418,0.0028));
#1705=CARTESIAN_POINT('',(0.0170117571497655,-0.0198285497532418,0.0028));
#1706=CARTESIAN_POINT('',(0.0161703991844876,-0.0197549404693127,0.0028));
#1707=CARTESIAN_POINT('',(0.0168257915950774,-0.0219541457698386,0.0028));
#1708=CARTESIAN_POINT('',(0.0168257915950774,-0.0219541457698386,0.0018));
#1709=CARTESIAN_POINT('',(0.0166398260403893,-0.0240797417864355,0.0018));
#1710=CARTESIAN_POINT('',(0.0166398260403893,-0.0240797417864355,0.0028));
#1711=CARTESIAN_POINT('',(0.0166398260403893,-0.0240797417864355,0.0028));
#1712=CARTESIAN_POINT('',(0.0168257915950774,-0.0219541457698386,0.0028));
#1713=CARTESIAN_POINT('',(0.00818104288955876,-0.025706688918206,0.0028));
#1714=CARTESIAN_POINT('',(0.00818104288955876,-0.025706688918206,0.0018));
#1715=CARTESIAN_POINT('',(0.00828874393481228,-0.0244756603378961,0.0018));
#1716=CARTESIAN_POINT('',(0.00807334184430524,-0.0269377174985158,0.0018));
#1717=CARTESIAN_POINT('',(0.00828874393481228,-0.0244756603378961,0.0028));
#1718=CARTESIAN_POINT('',(0.00828874393481228,-0.0244756603378961,0.0028));
#1719=CARTESIAN_POINT('',(0.00818104288955876,-0.025706688918206,0.0028));
#1720=CARTESIAN_POINT('',(0.00807334184430524,-0.0269377174985158,0.0028));
#1721=CARTESIAN_POINT('',(0.00807334184430524,-0.0269377174985158,0.0028));
#1722=CARTESIAN_POINT('',(0.0127587917489639,-0.0248667388470531,0.0028));
#1723=CARTESIAN_POINT('',(0.0127587917489639,-0.0248667388470531,0.0018));
#1724=CARTESIAN_POINT('',(0.0172288395631156,-0.0252578173562102,0.0018));
#1725=CARTESIAN_POINT('',(0.0172288395631156,-0.0252578173562102,0.0028));
#1726=CARTESIAN_POINT('',(0.0172288395631156,-0.0252578173562102,0.0028));
#1727=CARTESIAN_POINT('',(0.0127587917489639,-0.0248667388470531,0.0028));
#1728=CARTESIAN_POINT('',(0.0171211385178621,-0.0264888459365201,0.0028));
#1729=CARTESIAN_POINT('',(0.0171211385178621,-0.0264888459365201,0.0018));
#1730=CARTESIAN_POINT('',(0.0170134374726085,-0.02771987451683,0.0018));
#1731=CARTESIAN_POINT('',(0.0170134374726085,-0.02771987451683,0.0028));
#1732=CARTESIAN_POINT('',(0.0170134374726085,-0.02771987451683,0.0028));
#1733=CARTESIAN_POINT('',(0.0171211385178621,-0.0264888459365201,0.0028));
#1734=CARTESIAN_POINT('',(0.0159532237263728,-0.02762711783312,0.0028));
#1735=CARTESIAN_POINT('',(0.0159532237263728,-0.02762711783312,0.0018));
#1736=CARTESIAN_POINT('',(0.014893009980137,-0.0275343611494101,0.0018));
#1737=CARTESIAN_POINT('',(0.014893009980137,-0.0275343611494101,0.0028));
#1738=CARTESIAN_POINT('',(0.014893009980137,-0.0275343611494101,0.0028));
#1739=CARTESIAN_POINT('',(0.0159532237263728,-0.02762711783312,0.0028));
#1740=CARTESIAN_POINT('',(0.0148368318447575,-0.0281764801750696,0.0028));
#1741=CARTESIAN_POINT('',(0.0148368318447575,-0.0281764801750696,0.0018));
#1742=CARTESIAN_POINT('',(0.014780653709378,-0.028818599200729,0.0018));
#1743=CARTESIAN_POINT('',(0.014780653709378,-0.028818599200729,0.0028));
#1744=CARTESIAN_POINT('',(0.014780653709378,-0.028818599200729,0.0028));
#1745=CARTESIAN_POINT('',(0.0148368318447575,-0.0281764801750696,0.0028));
#1746=CARTESIAN_POINT('',(0.0126550576927811,-0.028632633646041,0.0028));
#1747=CARTESIAN_POINT('',(0.0126550576927811,-0.028632633646041,0.0018));
#1748=CARTESIAN_POINT('',(0.0105294616761842,-0.0284466680913529,0.0018));
#1749=CARTESIAN_POINT('',(0.0105294616761842,-0.0284466680913529,0.0028));
#1750=CARTESIAN_POINT('',(0.0105294616761842,-0.0284466680913529,0.0028));
#1751=CARTESIAN_POINT('',(0.0126550576927811,-0.028632633646041,0.0028));
#1752=CARTESIAN_POINT('',(0.0105856398115638,-0.0278045490656934,0.0028));
#1753=CARTESIAN_POINT('',(0.0105856398115638,-0.0278045490656934,0.0018));
#1754=CARTESIAN_POINT('',(0.0106418179469433,-0.0271624300400339,0.0018));
#1755=CARTESIAN_POINT('',(0.0106418179469433,-0.0271624300400339,0.0028));
#1756=CARTESIAN_POINT('',(0.0106418179469433,-0.0271624300400339,0.0028));
#1757=CARTESIAN_POINT('',(0.0105856398115638,-0.0278045490656934,0.0028));
#1758=CARTESIAN_POINT('',(0.0108560792699874,-0.0235144295625412,0.0028));
#1759=CARTESIAN_POINT('',(0.0108560792699874,-0.0235144295625412,0.0018));
#1760=CARTESIAN_POINT('',(0.0108560792699874,-0.0235144295625412,0.0028));
#1761=CARTESIAN_POINT('',(0.0157984680751114,-0.0240061325025064,0.0028));
#1762=CARTESIAN_POINT('',(0.0157984680751114,-0.0240061325025064,0.0018));
#1763=CARTESIAN_POINT('',(0.0157984680751114,-0.0240061325025064,0.0028));
#1764=CARTESIAN_POINT('',(0.00935757989562425,-0.0270500737692748,0.0028));
#1765=CARTESIAN_POINT('',(0.00935757989562425,-0.0270500737692748,0.0018));
#1766=CARTESIAN_POINT('',(0.00935757989562425,-0.0270500737692748,0.0028));
#1767=CARTESIAN_POINT('',(0.00943121523702884,-0.0147440707290137,0.0028));
#1768=CARTESIAN_POINT('',(0.00943121523702884,-0.0147440707290137,0.0018));
#1769=CARTESIAN_POINT('',(0.00943121523702884,-0.0147440707290137,0.0028));
#1770=CARTESIAN_POINT('',(0.0132904483305054,-0.0234435593925773,0.0028));
#1771=CARTESIAN_POINT('',(0.0132904483305054,-0.0234435593925773,0.0018));
#1772=MECHANICAL_DESIGN_GEOMETRIC_PRESENTATION_REPRESENTATION('',(#1125),
#1773);
#1773=(
GEOMETRIC_REPRESENTATION_CONTEXT(3)
GLOBAL_UNCERTAINTY_ASSIGNED_CONTEXT((#1774))
GLOBAL_UNIT_ASSIGNED_CONTEXT((#1777,#1776,#1775))
REPRESENTATION_CONTEXT('Heart','TOP_LEVEL_ASSEMBLY_PART')
);
#1774=UNCERTAINTY_MEASURE_WITH_UNIT(LENGTH_MEASURE(1.E-8),#1777,
'DISTANCE_ACCURACY_VALUE','Maximum Tolerance applied to model');
#1775=(
NAMED_UNIT(*)
SI_UNIT($,.STERADIAN.)
SOLID_ANGLE_UNIT()
);
#1776=(
NAMED_UNIT(*)
PLANE_ANGLE_UNIT()
SI_UNIT($,.RADIAN.)
);
#1777=(
LENGTH_UNIT()
NAMED_UNIT(*)
SI_UNIT($,.METRE.)
);
#1778=PRODUCT_DEFINITION_SHAPE('','',#1779);
#1779=PRODUCT_DEFINITION('','',#1781,#1780);
#1780=PRODUCT_DEFINITION_CONTEXT('',#1787,'design');
#1781=PRODUCT_DEFINITION_FORMATION_WITH_SPECIFIED_SOURCE('','',#1783,
 .NOT_KNOWN.);
#1782=PRODUCT_RELATED_PRODUCT_CATEGORY('','',(#1783));
#1783=PRODUCT('Heart','Heart','Heart',(#1785));
#1784=PRODUCT_CATEGORY('','');
#1785=PRODUCT_CONTEXT('',#1787,'mechanical');
#1786=APPLICATION_PROTOCOL_DEFINITION('international standard',
'ap242_managed_model_based_3d_engineering',2020,#1787);
#1787=APPLICATION_CONTEXT('managed model based 3d engineering');
ENDSEC;
END-ISO-10303-21;
