ISO-10303-21;
HEADER;
/* Generated by software containing ST-Developer
 * from STEP Tools, Inc. (www.steptools.com) 
 */
/* OPTION: using custom renumber hook */

FILE_DESCRIPTION(
/* description */ ('STEP AP242 Edition 2',
'CAx-IF Rec.Pracs.---Representation and Presentation of Product Manufa
cturing Information (PMI)---4.0---2014-10-13',
'CAx-IF Rec.Pracs.---3D Tessellated Geometry---0.4---2014-09-14','2;1',
'CAx-IF Rec.Pracs.---User Defined Attributes---1.5---2016-08-15'),
/* implementation_level */ '2;1');

FILE_NAME(
/* name */ 'S_TOP - Volume',
/* time_stamp */ '2026-09-22T20:44:03Z',
/* author */ (''),
/* organization */ (''),
/* preprocessor_version */ 'ST-DEVELOPER v20',
/* originating_system */ 'ONSHAPE BY PTC INC, 1.221',
/* authorisation */ '  ');

FILE_SCHEMA (('AP242_MANAGED_MODEL_BASED_3D_ENGINEERING_MIM_LF { 1 0 10303 442 3 1 4 }'));
ENDSEC;

DATA;
#10=SHAPE_REPRESENTATION_RELATIONSHIP('','',#145,#11);
#11=ADVANCED_BREP_SHAPE_REPRESENTATION('',(#143),#267);
#12=B_SPLINE_SURFACE_WITH_KNOTS('',3,1,((#242,#243),(#244,#245),(#246,#247),
(#248,#249)),.SURF_OF_LINEAR_EXTRUSION.,.F.,.F.,.F.,(4,4),(2,2),(-4.95712249293135E-15,
0.99999999999999),(0.,1.),.PIECEWISE_BEZIER_KNOTS.);
#13=B_SPLINE_SURFACE_WITH_KNOTS('',3,1,((#250,#251),(#252,#253),(#254,#255),
(#256,#257)),.SURF_OF_LINEAR_EXTRUSION.,.F.,.F.,.F.,(4,4),(2,2),(-1.90089574165898E-10,
1.00000000034395),(0.,1.),.PIECEWISE_BEZIER_KNOTS.);
#14=B_SPLINE_SURFACE_WITH_KNOTS('',3,1,((#258,#259),(#260,#261),(#262,#263),
(#264,#265)),.SURF_OF_LINEAR_EXTRUSION.,.F.,.F.,.F.,(4,4),(2,2),(-4.83011444409102E-11,
1.00000000005907),(0.,1.),.PIECEWISE_BEZIER_KNOTS.);
#15=B_SPLINE_CURVE_WITH_KNOTS('',3,(#175,#176,#177,#178),.UNSPECIFIED.,
 .F.,.F.,(4,4),(0.,1.),.UNSPECIFIED.);
#16=B_SPLINE_CURVE_WITH_KNOTS('',3,(#182,#183,#184,#185),.UNSPECIFIED.,
 .F.,.F.,(4,4),(0.,1.),.UNSPECIFIED.);
#17=B_SPLINE_CURVE_WITH_KNOTS('',3,(#190,#191,#192,#193),.UNSPECIFIED.,
 .F.,.F.,(4,4),(0.,1.),.UNSPECIFIED.);
#18=B_SPLINE_CURVE_WITH_KNOTS('',3,(#197,#198,#199,#200),.UNSPECIFIED.,
 .F.,.F.,(4,4),(0.,1.),.UNSPECIFIED.);
#19=B_SPLINE_CURVE_WITH_KNOTS('',3,(#205,#206,#207,#208),.UNSPECIFIED.,
 .F.,.F.,(4,4),(0.,1.),.UNSPECIFIED.);
#20=B_SPLINE_CURVE_WITH_KNOTS('',3,(#212,#213,#214,#215),.UNSPECIFIED.,
 .F.,.F.,(4,4),(0.,1.),.UNSPECIFIED.);
#21=B_SPLINE_CURVE_WITH_KNOTS('',3,(#217,#218,#219,#220),.UNSPECIFIED.,
 .F.,.F.,(4,4),(0.,1.),.UNSPECIFIED.);
#22=B_SPLINE_CURVE_WITH_KNOTS('',3,(#221,#222,#223,#224),.UNSPECIFIED.,
 .F.,.F.,(4,4),(0.,1.),.UNSPECIFIED.);
#23=B_SPLINE_CURVE_WITH_KNOTS('',3,(#225,#226,#227,#228),.UNSPECIFIED.,
 .F.,.F.,(4,4),(0.,1.),.UNSPECIFIED.);
#24=B_SPLINE_CURVE_WITH_KNOTS('',3,(#230,#231,#232,#233),.UNSPECIFIED.,
 .F.,.F.,(4,4),(0.,1.),.UNSPECIFIED.);
#25=B_SPLINE_CURVE_WITH_KNOTS('',3,(#234,#235,#236,#237),.UNSPECIFIED.,
 .F.,.F.,(4,4),(0.,1.),.UNSPECIFIED.);
#26=B_SPLINE_CURVE_WITH_KNOTS('',3,(#238,#239,#240,#241),.UNSPECIFIED.,
 .F.,.F.,(4,4),(0.,1.),.UNSPECIFIED.);
#27=ORIENTED_EDGE('',*,*,#63,.F.);
#28=ORIENTED_EDGE('',*,*,#64,.T.);
#29=ORIENTED_EDGE('',*,*,#65,.T.);
#30=ORIENTED_EDGE('',*,*,#66,.T.);
#31=ORIENTED_EDGE('',*,*,#67,.T.);
#32=ORIENTED_EDGE('',*,*,#68,.T.);
#33=ORIENTED_EDGE('',*,*,#69,.F.);
#34=ORIENTED_EDGE('',*,*,#70,.T.);
#35=ORIENTED_EDGE('',*,*,#71,.T.);
#36=ORIENTED_EDGE('',*,*,#72,.T.);
#37=ORIENTED_EDGE('',*,*,#73,.F.);
#38=ORIENTED_EDGE('',*,*,#74,.T.);
#39=ORIENTED_EDGE('',*,*,#73,.T.);
#40=ORIENTED_EDGE('',*,*,#75,.T.);
#41=ORIENTED_EDGE('',*,*,#63,.T.);
#42=ORIENTED_EDGE('',*,*,#76,.T.);
#43=ORIENTED_EDGE('',*,*,#69,.T.);
#44=ORIENTED_EDGE('',*,*,#77,.T.);
#45=ORIENTED_EDGE('',*,*,#65,.F.);
#46=ORIENTED_EDGE('',*,*,#78,.T.);
#47=ORIENTED_EDGE('',*,*,#71,.F.);
#48=ORIENTED_EDGE('',*,*,#79,.T.);
#49=ORIENTED_EDGE('',*,*,#67,.F.);
#50=ORIENTED_EDGE('',*,*,#80,.T.);
#51=ORIENTED_EDGE('',*,*,#75,.F.);
#52=ORIENTED_EDGE('',*,*,#72,.F.);
#53=ORIENTED_EDGE('',*,*,#78,.F.);
#54=ORIENTED_EDGE('',*,*,#64,.F.);
#55=ORIENTED_EDGE('',*,*,#77,.F.);
#56=ORIENTED_EDGE('',*,*,#68,.F.);
#57=ORIENTED_EDGE('',*,*,#79,.F.);
#58=ORIENTED_EDGE('',*,*,#74,.F.);
#59=ORIENTED_EDGE('',*,*,#76,.F.);
#60=ORIENTED_EDGE('',*,*,#66,.F.);
#61=ORIENTED_EDGE('',*,*,#80,.F.);
#62=ORIENTED_EDGE('',*,*,#70,.F.);
#63=EDGE_CURVE('',#81,#82,#93,.T.);
#64=EDGE_CURVE('',#81,#83,#15,.T.);
#65=EDGE_CURVE('',#83,#84,#94,.T.);
#66=EDGE_CURVE('',#84,#82,#16,.T.);
#67=EDGE_CURVE('',#85,#86,#95,.T.);
#68=EDGE_CURVE('',#86,#87,#17,.T.);
#69=EDGE_CURVE('',#88,#87,#96,.T.);
#70=EDGE_CURVE('',#88,#85,#18,.T.);
#71=EDGE_CURVE('',#89,#90,#97,.T.);
#72=EDGE_CURVE('',#90,#91,#19,.T.);
#73=EDGE_CURVE('',#92,#91,#98,.T.);
#74=EDGE_CURVE('',#92,#89,#20,.T.);
#75=EDGE_CURVE('',#91,#81,#21,.T.);
#76=EDGE_CURVE('',#82,#88,#22,.T.);
#77=EDGE_CURVE('',#87,#92,#23,.T.);
#78=EDGE_CURVE('',#83,#90,#24,.T.);
#79=EDGE_CURVE('',#89,#86,#25,.T.);
#80=EDGE_CURVE('',#85,#84,#26,.T.);
#81=VERTEX_POINT('',#173);
#82=VERTEX_POINT('',#174);
#83=VERTEX_POINT('',#179);
#84=VERTEX_POINT('',#181);
#85=VERTEX_POINT('',#188);
#86=VERTEX_POINT('',#189);
#87=VERTEX_POINT('',#194);
#88=VERTEX_POINT('',#196);
#89=VERTEX_POINT('',#203);
#90=VERTEX_POINT('',#204);
#91=VERTEX_POINT('',#209);
#92=VERTEX_POINT('',#211);
#93=LINE('',#172,#99);
#94=LINE('',#180,#100);
#95=LINE('',#187,#101);
#96=LINE('',#195,#102);
#97=LINE('',#202,#103);
#98=LINE('',#210,#104);
#99=VECTOR('',#156,1.);
#100=VECTOR('',#157,1.);
#101=VECTOR('',#160,1.);
#102=VECTOR('',#161,1.);
#103=VECTOR('',#164,1.);
#104=VECTOR('',#165,1.);
#105=EDGE_LOOP('',(#27,#28,#29,#30));
#106=EDGE_LOOP('',(#31,#32,#33,#34));
#107=EDGE_LOOP('',(#35,#36,#37,#38));
#108=EDGE_LOOP('',(#39,#40,#41,#42,#43,#44));
#109=EDGE_LOOP('',(#45,#46,#47,#48,#49,#50));
#110=EDGE_LOOP('',(#51,#52,#53,#54));
#111=EDGE_LOOP('',(#55,#56,#57,#58));
#112=EDGE_LOOP('',(#59,#60,#61,#62));
#113=FACE_BOUND('',#105,.T.);
#114=FACE_BOUND('',#106,.T.);
#115=FACE_BOUND('',#107,.T.);
#116=FACE_BOUND('',#108,.T.);
#117=FACE_BOUND('',#109,.T.);
#118=FACE_BOUND('',#110,.T.);
#119=FACE_BOUND('',#111,.T.);
#120=FACE_BOUND('',#112,.T.);
#121=PLANE('',#147);
#122=PLANE('',#148);
#123=PLANE('',#149);
#124=PLANE('',#150);
#125=PLANE('',#151);
#126=ADVANCED_FACE('',(#113),#121,.F.);
#127=ADVANCED_FACE('',(#114),#122,.F.);
#128=ADVANCED_FACE('',(#115),#123,.F.);
#129=ADVANCED_FACE('',(#116),#124,.T.);
#130=ADVANCED_FACE('',(#117),#125,.F.);
#131=ADVANCED_FACE('',(#118),#12,.T.);
#132=ADVANCED_FACE('',(#119),#13,.T.);
#133=ADVANCED_FACE('',(#120),#14,.T.);
#134=CLOSED_SHELL('',(#126,#127,#128,#129,#130,#131,#132,#133));
#135=STYLED_ITEM('',(#136),#143);
#136=PRESENTATION_STYLE_ASSIGNMENT((#137));
#137=SURFACE_STYLE_USAGE(.BOTH.,#138);
#138=SURFACE_SIDE_STYLE('',(#139));
#139=SURFACE_STYLE_FILL_AREA(#140);
#140=FILL_AREA_STYLE('',(#141));
#141=FILL_AREA_STYLE_COLOUR('',#142);
#142=COLOUR_RGB('',0.682352941176471,0.333333333333334,0.737254901960784);
#143=MANIFOLD_SOLID_BREP('Volume',#134);
#144=SHAPE_DEFINITION_REPRESENTATION(#272,#145);
#145=SHAPE_REPRESENTATION('Volume',(#146),#267);
#146=AXIS2_PLACEMENT_3D('',#170,#152,#153);
#147=AXIS2_PLACEMENT_3D('',#171,#154,#155);
#148=AXIS2_PLACEMENT_3D('',#186,#158,#159);
#149=AXIS2_PLACEMENT_3D('',#201,#162,#163);
#150=AXIS2_PLACEMENT_3D('',#216,#166,#167);
#151=AXIS2_PLACEMENT_3D('',#229,#168,#169);
#152=DIRECTION('',(0.,0.,1.));
#153=DIRECTION('',(1.,0.,0.));
#154=DIRECTION('',(1.02112320698142E-17,0.224859506698759,-0.97439119569462));
#155=DIRECTION('',(0.,0.97439119569462,0.224859506698759));
#156=DIRECTION('',(4.42486723025279E-17,0.97439119569462,0.224859506698759));
#157=DIRECTION('',(4.42486723025279E-17,0.97439119569462,0.224859506698759));
#158=DIRECTION('',(-4.54116093187646E-17,-1.,-1.36132027768455E-15));
#159=DIRECTION('',(0.,1.36132027768455E-15,-1.));
#160=DIRECTION('',(6.18197446079229E-32,1.36132027768455E-15,-1.));
#161=DIRECTION('',(6.18197446079229E-32,1.36132027768455E-15,-1.));
#162=DIRECTION('',(0.,0.,1.));
#163=DIRECTION('',(1.,0.,0.));
#164=DIRECTION('',(-4.54116093187646E-17,-1.,0.));
#165=DIRECTION('',(-4.54116093187646E-17,-1.,0.));
#166=DIRECTION('',(-1.,4.54116093187646E-17,0.));
#167=DIRECTION('',(-4.54116093187646E-17,-1.,0.));
#168=DIRECTION('',(-1.,4.54116093187646E-17,0.));
#169=DIRECTION('',(-4.54116093187646E-17,-1.,0.));
#170=CARTESIAN_POINT('',(0.,0.,0.));
#171=CARTESIAN_POINT('',(-0.0298,-0.0174219445311958,-0.0104257051081856));
#172=CARTESIAN_POINT('',(-0.0298,-0.0174219445311958,-0.0104257051081856));
#173=CARTESIAN_POINT('',(-0.0298,-0.0220883195442572,-0.0115025608804305));
#174=CARTESIAN_POINT('',(-0.0298,-0.0120224859506699,-0.0091796762049873));
#175=CARTESIAN_POINT('',(-0.0298,-0.0220883195442572,-0.0115025608804306));
#176=CARTESIAN_POINT('',(-0.0295333333333333,-0.0220883195442572,-0.0115025608804306));
#177=CARTESIAN_POINT('',(-0.0292666666666667,-0.0220883195442572,-0.0115025608804306));
#178=CARTESIAN_POINT('',(-0.029,-0.0220883195442572,-0.0115025608804306));
#179=CARTESIAN_POINT('',(-0.029,-0.0220883195442572,-0.0115025608804305));
#180=CARTESIAN_POINT('',(-0.029,-0.0174219445311958,-0.0104257051081856));
#181=CARTESIAN_POINT('',(-0.029,-0.0120224859506699,-0.0091796762049873));
#182=CARTESIAN_POINT('',(-0.029,-0.0120224859506699,-0.0091796762049873));
#183=CARTESIAN_POINT('',(-0.0292666666666667,-0.0120224859506699,-0.0091796762049873));
#184=CARTESIAN_POINT('',(-0.0295333333333333,-0.0120224859506699,-0.0091796762049873));
#185=CARTESIAN_POINT('',(-0.0298,-0.0120224859506699,-0.0091796762049873));
#186=CARTESIAN_POINT('',(-0.0298,-0.0119,-0.0104257051081856));
#187=CARTESIAN_POINT('',(-0.029,-0.0119,-0.0104257051081856));
#188=CARTESIAN_POINT('',(-0.029,-0.0119,-0.00927711532455676));
#189=CARTESIAN_POINT('',(-0.029,-0.0119,-0.0116));
#190=CARTESIAN_POINT('',(-0.029,-0.0119,-0.0116));
#191=CARTESIAN_POINT('',(-0.0292666666666667,-0.0119,-0.0116));
#192=CARTESIAN_POINT('',(-0.0295333333333333,-0.0119,-0.0116));
#193=CARTESIAN_POINT('',(-0.0298,-0.0119,-0.0116));
#194=CARTESIAN_POINT('',(-0.0298,-0.0119,-0.0116));
#195=CARTESIAN_POINT('',(-0.0298,-0.0119,-0.0104257051081856));
#196=CARTESIAN_POINT('',(-0.0298,-0.0119,-0.00927711532455676));
#197=CARTESIAN_POINT('',(-0.0298,-0.0119,-0.00927711532455677));
#198=CARTESIAN_POINT('',(-0.0295333333333333,-0.0119,-0.00927711532455677));
#199=CARTESIAN_POINT('',(-0.0292666666666667,-0.0119,-0.00927711532455677));
#200=CARTESIAN_POINT('',(-0.029,-0.0119,-0.00927711532455677));
#201=CARTESIAN_POINT('',(-0.0298,-0.0174219445311958,-0.0117));
#202=CARTESIAN_POINT('',(-0.029,-0.0174219445311958,-0.0117));
#203=CARTESIAN_POINT('',(-0.029,-0.012,-0.0117));
#204=CARTESIAN_POINT('',(-0.029,-0.0220658335935873,-0.0117));
#205=CARTESIAN_POINT('',(-0.029,-0.0220658335935874,-0.0117));
#206=CARTESIAN_POINT('',(-0.0292666666666667,-0.0220658335935874,-0.0117));
#207=CARTESIAN_POINT('',(-0.0295333333333333,-0.0220658335935874,-0.0117));
#208=CARTESIAN_POINT('',(-0.0298,-0.0220658335935874,-0.0117));
#209=CARTESIAN_POINT('',(-0.0298,-0.0220658335935873,-0.0117));
#210=CARTESIAN_POINT('',(-0.0298,-0.0174219445311958,-0.0117));
#211=CARTESIAN_POINT('',(-0.0298,-0.012,-0.0117));
#212=CARTESIAN_POINT('',(-0.0298,-0.012,-0.0117));
#213=CARTESIAN_POINT('',(-0.0295333333333333,-0.012,-0.0117));
#214=CARTESIAN_POINT('',(-0.0292666666666667,-0.012,-0.0117));
#215=CARTESIAN_POINT('',(-0.029,-0.012,-0.0117));
#216=CARTESIAN_POINT('',(-0.0298,-0.0182,-0.0104));
#217=CARTESIAN_POINT('',(-0.0298,-0.0220658335935874,-0.0117));
#218=CARTESIAN_POINT('',(-0.0298,-0.0226512039061234,-0.0117));
#219=CARTESIAN_POINT('',(-0.0298,-0.0226586992230134,-0.0116341869601435));
#220=CARTESIAN_POINT('',(-0.0298,-0.0220883195442572,-0.0115025608804305));
#221=CARTESIAN_POINT('',(-0.0298,-0.0120224859506699,-0.0091796762049873));
#222=CARTESIAN_POINT('',(-0.0298,-0.0119408286502233,-0.00916083221257655));
#223=CARTESIAN_POINT('',(-0.0298,-0.0119,-0.0091933119190997));
#224=CARTESIAN_POINT('',(-0.0298,-0.0119,-0.00927711532455676));
#225=CARTESIAN_POINT('',(-0.0298,-0.0119,-0.0116));
#226=CARTESIAN_POINT('',(-0.0298,-0.0119,-0.0116666666666667));
#227=CARTESIAN_POINT('',(-0.0298,-0.0119333333333333,-0.0117));
#228=CARTESIAN_POINT('',(-0.0298,-0.012,-0.0117));
#229=CARTESIAN_POINT('',(-0.029,-0.0182,-0.0104));
#230=CARTESIAN_POINT('',(-0.029,-0.0220883195442572,-0.0115025608804305));
#231=CARTESIAN_POINT('',(-0.029,-0.0226586992230134,-0.0116341869601435));
#232=CARTESIAN_POINT('',(-0.029,-0.0226512039061234,-0.0117));
#233=CARTESIAN_POINT('',(-0.029,-0.0220658335935874,-0.0117));
#234=CARTESIAN_POINT('',(-0.029,-0.012,-0.0117));
#235=CARTESIAN_POINT('',(-0.029,-0.0119333333333333,-0.0117));
#236=CARTESIAN_POINT('',(-0.029,-0.0119,-0.0116666666666667));
#237=CARTESIAN_POINT('',(-0.029,-0.0119,-0.0116));
#238=CARTESIAN_POINT('',(-0.029,-0.0119,-0.00927711532455676));
#239=CARTESIAN_POINT('',(-0.029,-0.0119,-0.0091933119190997));
#240=CARTESIAN_POINT('',(-0.029,-0.0119408286502233,-0.00916083221257655));
#241=CARTESIAN_POINT('',(-0.029,-0.0120224859506699,-0.0091796762049873));
#242=CARTESIAN_POINT('',(-0.0298,-0.0220883195442572,-0.0115025608804305));
#243=CARTESIAN_POINT('',(-0.029,-0.0220883195442572,-0.0115025608804305));
#244=CARTESIAN_POINT('',(-0.0298,-0.0226586992230133,-0.0116341869601435));
#245=CARTESIAN_POINT('',(-0.029,-0.0226586992230133,-0.0116341869601435));
#246=CARTESIAN_POINT('',(-0.0298,-0.0226512039061234,-0.0117));
#247=CARTESIAN_POINT('',(-0.029,-0.0226512039061234,-0.0117));
#248=CARTESIAN_POINT('',(-0.0298,-0.0220658335935874,-0.0117));
#249=CARTESIAN_POINT('',(-0.029,-0.0220658335935874,-0.0117));
#250=CARTESIAN_POINT('',(-0.0298,-0.012000000000038,-0.0117));
#251=CARTESIAN_POINT('',(-0.029,-0.012000000000038,-0.0117));
#252=CARTESIAN_POINT('',(-0.0298,-0.0119333333333231,-0.0117000000000127));
#253=CARTESIAN_POINT('',(-0.029,-0.0119333333333231,-0.0117000000000127));
#254=CARTESIAN_POINT('',(-0.0298,-0.0118999999999771,-0.0116666666666564));
#255=CARTESIAN_POINT('',(-0.029,-0.0118999999999771,-0.0116666666666564));
#256=CARTESIAN_POINT('',(-0.0298,-0.0119,-0.0115999999999312));
#257=CARTESIAN_POINT('',(-0.029,-0.0119,-0.0115999999999312));
#258=CARTESIAN_POINT('',(-0.0298,-0.0119,-0.0092771153245689));
#259=CARTESIAN_POINT('',(-0.029,-0.0119,-0.0092771153245689));
#260=CARTESIAN_POINT('',(-0.0298,-0.011899999999996,-0.0091933119190979));
#261=CARTESIAN_POINT('',(-0.029,-0.011899999999996,-0.0091933119190979));
#262=CARTESIAN_POINT('',(-0.0298,-0.0119408286502241,-0.00916083221257182));
#263=CARTESIAN_POINT('',(-0.029,-0.0119408286502241,-0.00916083221257182));
#264=CARTESIAN_POINT('',(-0.0298,-0.0120224859506843,-0.00917967620499064));
#265=CARTESIAN_POINT('',(-0.029,-0.0120224859506843,-0.00917967620499064));
#266=MECHANICAL_DESIGN_GEOMETRIC_PRESENTATION_REPRESENTATION('',(#135),
#267);
#267=(
GEOMETRIC_REPRESENTATION_CONTEXT(3)
GLOBAL_UNCERTAINTY_ASSIGNED_CONTEXT((#268))
GLOBAL_UNIT_ASSIGNED_CONTEXT((#271,#270,#269))
REPRESENTATION_CONTEXT('Volume','TOP_LEVEL_ASSEMBLY_PART')
);
#268=UNCERTAINTY_MEASURE_WITH_UNIT(LENGTH_MEASURE(2.E-5),#271,
'DISTANCE_ACCURACY_VALUE','Maximum Tolerance applied to model');
#269=(
NAMED_UNIT(*)
SI_UNIT($,.STERADIAN.)
SOLID_ANGLE_UNIT()
);
#270=(
NAMED_UNIT(*)
PLANE_ANGLE_UNIT()
SI_UNIT($,.RADIAN.)
);
#271=(
LENGTH_UNIT()
NAMED_UNIT(*)
SI_UNIT($,.METRE.)
);
#272=PRODUCT_DEFINITION_SHAPE('','',#273);
#273=PRODUCT_DEFINITION('','',#275,#274);
#274=PRODUCT_DEFINITION_CONTEXT('',#281,'design');
#275=PRODUCT_DEFINITION_FORMATION_WITH_SPECIFIED_SOURCE('','',#277,
 .NOT_KNOWN.);
#276=PRODUCT_RELATED_PRODUCT_CATEGORY('','',(#277));
#277=PRODUCT('Volume','Volume','Volume',(#279));
#278=PRODUCT_CATEGORY('','');
#279=PRODUCT_CONTEXT('',#281,'mechanical');
#280=APPLICATION_PROTOCOL_DEFINITION('international standard',
'ap242_managed_model_based_3d_engineering',2020,#281);
#281=APPLICATION_CONTEXT('managed model based 3d engineering');
ENDSEC;
END-ISO-10303-21;
