ISO-10303-21;
HEADER;
/* Generated by software containing ST-Developer
 * from STEP Tools, Inc. (www.steptools.com) 
 */
/* OPTION: using custom renumber hook */

FILE_DESCRIPTION(
/* description */ ('STEP AP242 Edition 2',
'CAx-IF Rec.Pracs.---Representation and Presentation of Product Manufa
cturing Information (PMI)---4.0---2014-10-13',
'CAx-IF Rec.Pracs.---3D Tessellated Geometry---0.4---2014-09-14','2;1',
'CAx-IF Rec.Pracs.---User Defined Attributes---1.5---2016-08-15'),
/* implementation_level */ '2;1');

FILE_NAME(
/* name */ 'S_TOP - Lighting',
/* time_stamp */ '2026-09-22T20:44:03Z',
/* author */ (''),
/* organization */ (''),
/* preprocessor_version */ 'ST-DEVELOPER v20',
/* originating_system */ 'ONSHAPE BY PTC INC, 1.221',
/* authorisation */ '  ');

FILE_SCHEMA (('AP242_MANAGED_MODEL_BASED_3D_ENGINEERING_MIM_LF { 1 0 10303 442 3 1 4 }'));
ENDSEC;

DATA;
#10=SHAPE_REPRESENTATION_RELATIONSHIP('','',#178,#11);
#11=ADVANCED_BREP_SHAPE_REPRESENTATION('',(#176),#276);
#12=ORIENTED_EDGE('',*,*,#54,.T.);
#13=ORIENTED_EDGE('',*,*,#55,.F.);
#14=ORIENTED_EDGE('',*,*,#56,.F.);
#15=ORIENTED_EDGE('',*,*,#57,.T.);
#16=ORIENTED_EDGE('',*,*,#58,.T.);
#17=ORIENTED_EDGE('',*,*,#59,.F.);
#18=ORIENTED_EDGE('',*,*,#60,.F.);
#19=ORIENTED_EDGE('',*,*,#55,.T.);
#20=ORIENTED_EDGE('',*,*,#61,.T.);
#21=ORIENTED_EDGE('',*,*,#62,.F.);
#22=ORIENTED_EDGE('',*,*,#63,.F.);
#23=ORIENTED_EDGE('',*,*,#59,.T.);
#24=ORIENTED_EDGE('',*,*,#64,.T.);
#25=ORIENTED_EDGE('',*,*,#65,.F.);
#26=ORIENTED_EDGE('',*,*,#66,.F.);
#27=ORIENTED_EDGE('',*,*,#62,.T.);
#28=ORIENTED_EDGE('',*,*,#67,.T.);
#29=ORIENTED_EDGE('',*,*,#68,.F.);
#30=ORIENTED_EDGE('',*,*,#69,.F.);
#31=ORIENTED_EDGE('',*,*,#65,.T.);
#32=ORIENTED_EDGE('',*,*,#70,.T.);
#33=ORIENTED_EDGE('',*,*,#71,.F.);
#34=ORIENTED_EDGE('',*,*,#72,.F.);
#35=ORIENTED_EDGE('',*,*,#68,.T.);
#36=ORIENTED_EDGE('',*,*,#73,.T.);
#37=ORIENTED_EDGE('',*,*,#57,.F.);
#38=ORIENTED_EDGE('',*,*,#74,.F.);
#39=ORIENTED_EDGE('',*,*,#71,.T.);
#40=ORIENTED_EDGE('',*,*,#56,.T.);
#41=ORIENTED_EDGE('',*,*,#60,.T.);
#42=ORIENTED_EDGE('',*,*,#63,.T.);
#43=ORIENTED_EDGE('',*,*,#66,.T.);
#44=ORIENTED_EDGE('',*,*,#69,.T.);
#45=ORIENTED_EDGE('',*,*,#72,.T.);
#46=ORIENTED_EDGE('',*,*,#74,.T.);
#47=ORIENTED_EDGE('',*,*,#54,.F.);
#48=ORIENTED_EDGE('',*,*,#73,.F.);
#49=ORIENTED_EDGE('',*,*,#70,.F.);
#50=ORIENTED_EDGE('',*,*,#67,.F.);
#51=ORIENTED_EDGE('',*,*,#64,.F.);
#52=ORIENTED_EDGE('',*,*,#61,.F.);
#53=ORIENTED_EDGE('',*,*,#58,.F.);
#54=EDGE_CURVE('',#75,#76,#89,.T.);
#55=EDGE_CURVE('',#77,#76,#90,.T.);
#56=EDGE_CURVE('',#78,#77,#91,.T.);
#57=EDGE_CURVE('',#78,#75,#92,.T.);
#58=EDGE_CURVE('',#76,#79,#93,.T.);
#59=EDGE_CURVE('',#80,#79,#94,.T.);
#60=EDGE_CURVE('',#77,#80,#95,.T.);
#61=EDGE_CURVE('',#79,#81,#96,.T.);
#62=EDGE_CURVE('',#82,#81,#97,.T.);
#63=EDGE_CURVE('',#80,#82,#98,.T.);
#64=EDGE_CURVE('',#81,#83,#99,.T.);
#65=EDGE_CURVE('',#84,#83,#100,.T.);
#66=EDGE_CURVE('',#82,#84,#101,.T.);
#67=EDGE_CURVE('',#83,#85,#102,.T.);
#68=EDGE_CURVE('',#86,#85,#103,.T.);
#69=EDGE_CURVE('',#84,#86,#104,.T.);
#70=EDGE_CURVE('',#85,#87,#105,.T.);
#71=EDGE_CURVE('',#88,#87,#106,.T.);
#72=EDGE_CURVE('',#86,#88,#107,.T.);
#73=EDGE_CURVE('',#87,#75,#108,.T.);
#74=EDGE_CURVE('',#88,#78,#109,.T.);
#75=VERTEX_POINT('',#233);
#76=VERTEX_POINT('',#234);
#77=VERTEX_POINT('',#236);
#78=VERTEX_POINT('',#238);
#79=VERTEX_POINT('',#242);
#80=VERTEX_POINT('',#244);
#81=VERTEX_POINT('',#248);
#82=VERTEX_POINT('',#250);
#83=VERTEX_POINT('',#254);
#84=VERTEX_POINT('',#256);
#85=VERTEX_POINT('',#260);
#86=VERTEX_POINT('',#262);
#87=VERTEX_POINT('',#266);
#88=VERTEX_POINT('',#268);
#89=LINE('',#232,#110);
#90=LINE('',#235,#111);
#91=LINE('',#237,#112);
#92=LINE('',#239,#113);
#93=LINE('',#241,#114);
#94=LINE('',#243,#115);
#95=LINE('',#245,#116);
#96=LINE('',#247,#117);
#97=LINE('',#249,#118);
#98=LINE('',#251,#119);
#99=LINE('',#253,#120);
#100=LINE('',#255,#121);
#101=LINE('',#257,#122);
#102=LINE('',#259,#123);
#103=LINE('',#261,#124);
#104=LINE('',#263,#125);
#105=LINE('',#265,#126);
#106=LINE('',#267,#127);
#107=LINE('',#269,#128);
#108=LINE('',#271,#129);
#109=LINE('',#272,#130);
#110=VECTOR('',#193,1.);
#111=VECTOR('',#194,1.);
#112=VECTOR('',#195,1.);
#113=VECTOR('',#196,1.);
#114=VECTOR('',#199,1.);
#115=VECTOR('',#200,1.);
#116=VECTOR('',#201,1.);
#117=VECTOR('',#204,1.);
#118=VECTOR('',#205,1.);
#119=VECTOR('',#206,1.);
#120=VECTOR('',#209,1.);
#121=VECTOR('',#210,1.);
#122=VECTOR('',#211,1.);
#123=VECTOR('',#214,1.);
#124=VECTOR('',#215,1.);
#125=VECTOR('',#216,1.);
#126=VECTOR('',#219,1.);
#127=VECTOR('',#220,1.);
#128=VECTOR('',#221,1.);
#129=VECTOR('',#224,1.);
#130=VECTOR('',#225,1.);
#131=EDGE_LOOP('',(#12,#13,#14,#15));
#132=EDGE_LOOP('',(#16,#17,#18,#19));
#133=EDGE_LOOP('',(#20,#21,#22,#23));
#134=EDGE_LOOP('',(#24,#25,#26,#27));
#135=EDGE_LOOP('',(#28,#29,#30,#31));
#136=EDGE_LOOP('',(#32,#33,#34,#35));
#137=EDGE_LOOP('',(#36,#37,#38,#39));
#138=EDGE_LOOP('',(#40,#41,#42,#43,#44,#45,#46));
#139=EDGE_LOOP('',(#47,#48,#49,#50,#51,#52,#53));
#140=FACE_BOUND('',#131,.T.);
#141=FACE_BOUND('',#132,.T.);
#142=FACE_BOUND('',#133,.T.);
#143=FACE_BOUND('',#134,.T.);
#144=FACE_BOUND('',#135,.T.);
#145=FACE_BOUND('',#136,.T.);
#146=FACE_BOUND('',#137,.T.);
#147=FACE_BOUND('',#138,.T.);
#148=FACE_BOUND('',#139,.T.);
#149=PLANE('',#180);
#150=PLANE('',#181);
#151=PLANE('',#182);
#152=PLANE('',#183);
#153=PLANE('',#184);
#154=PLANE('',#185);
#155=PLANE('',#186);
#156=PLANE('',#187);
#157=PLANE('',#188);
#158=ADVANCED_FACE('',(#140),#149,.F.);
#159=ADVANCED_FACE('',(#141),#150,.F.);
#160=ADVANCED_FACE('',(#142),#151,.F.);
#161=ADVANCED_FACE('',(#143),#152,.F.);
#162=ADVANCED_FACE('',(#144),#153,.F.);
#163=ADVANCED_FACE('',(#145),#154,.F.);
#164=ADVANCED_FACE('',(#146),#155,.F.);
#165=ADVANCED_FACE('',(#147),#156,.T.);
#166=ADVANCED_FACE('',(#148),#157,.F.);
#167=CLOSED_SHELL('',(#158,#159,#160,#161,#162,#163,#164,#165,#166));
#168=STYLED_ITEM('',(#169),#176);
#169=PRESENTATION_STYLE_ASSIGNMENT((#170));
#170=SURFACE_STYLE_USAGE(.BOTH.,#171);
#171=SURFACE_SIDE_STYLE('',(#172));
#172=SURFACE_STYLE_FILL_AREA(#173);
#173=FILL_AREA_STYLE('',(#174));
#174=FILL_AREA_STYLE_COLOUR('',#175);
#175=COLOUR_RGB('',0.682352941176471,0.333333333333334,0.737254901960784);
#176=MANIFOLD_SOLID_BREP('Lighting',#167);
#177=SHAPE_DEFINITION_REPRESENTATION(#281,#178);
#178=SHAPE_REPRESENTATION('Lighting',(#179),#276);
#179=AXIS2_PLACEMENT_3D('',#230,#189,#190);
#180=AXIS2_PLACEMENT_3D('',#231,#191,#192);
#181=AXIS2_PLACEMENT_3D('',#240,#197,#198);
#182=AXIS2_PLACEMENT_3D('',#246,#202,#203);
#183=AXIS2_PLACEMENT_3D('',#252,#207,#208);
#184=AXIS2_PLACEMENT_3D('',#258,#212,#213);
#185=AXIS2_PLACEMENT_3D('',#264,#217,#218);
#186=AXIS2_PLACEMENT_3D('',#270,#222,#223);
#187=AXIS2_PLACEMENT_3D('',#273,#226,#227);
#188=AXIS2_PLACEMENT_3D('',#274,#228,#229);
#189=DIRECTION('',(0.,0.,1.));
#190=DIRECTION('',(1.,0.,0.));
#191=DIRECTION('',(0.,0.,-1.));
#192=DIRECTION('',(-1.,0.,0.));
#193=DIRECTION('',(-1.,1.15648231731787E-16,0.));
#194=DIRECTION('',(1.15648231731787E-16,1.,0.));
#195=DIRECTION('',(-1.,1.15648231731787E-16,0.));
#196=DIRECTION('',(1.15648231731787E-16,1.,0.));
#197=DIRECTION('',(0.906254372324748,-1.04806715658558E-16,-0.422732791065795));
#198=DIRECTION('',(-0.422732791065795,0.,-0.906254372324748));
#199=DIRECTION('',(-0.422732791065795,4.88882997818023E-17,-0.906254372324748));
#200=DIRECTION('',(1.15648231731787E-16,1.,0.));
#201=DIRECTION('',(-0.422732791065795,4.88882997818023E-17,-0.906254372324748));
#202=DIRECTION('',(0.,0.,1.));
#203=DIRECTION('',(1.,0.,0.));
#204=DIRECTION('',(1.,-1.15648231731787E-16,0.));
#205=DIRECTION('',(1.15648231731787E-16,1.,0.));
#206=DIRECTION('',(1.,-1.15648231731787E-16,0.));
#207=DIRECTION('',(0.965925826289068,-1.11707613794396E-16,-0.258819045102521));
#208=DIRECTION('',(-0.258819045102521,0.,-0.965925826289068));
#209=DIRECTION('',(-0.258819045102521,2.99319649046161E-17,-0.965925826289068));
#210=DIRECTION('',(1.15648231731787E-16,1.,0.));
#211=DIRECTION('',(-0.258819045102521,2.99319649046161E-17,-0.965925826289068));
#212=DIRECTION('',(-0.747900978412058,8.6493425663828E-17,0.663810309117211));
#213=DIRECTION('',(0.663810309117211,0.,0.747900978412058));
#214=DIRECTION('',(0.66381030911721,-7.67684884547364E-17,0.747900978412058));
#215=DIRECTION('',(1.15648231731787E-16,1.,0.));
#216=DIRECTION('',(0.66381030911721,-7.67684884547364E-17,0.747900978412058));
#217=DIRECTION('',(0.,0.,-1.));
#218=DIRECTION('',(-1.,0.,0.));
#219=DIRECTION('',(-1.,1.15648231731787E-16,0.));
#220=DIRECTION('',(1.15648231731787E-16,1.,0.));
#221=DIRECTION('',(-1.,1.15648231731787E-16,0.));
#222=DIRECTION('',(-0.90630778703665,1.04812892975538E-16,0.422618261740699));
#223=DIRECTION('',(0.422618261740699,0.,0.90630778703665));
#224=DIRECTION('',(0.422618261740699,-4.88750546678735E-17,0.90630778703665));
#225=DIRECTION('',(0.422618261740699,-4.88750546678735E-17,0.90630778703665));
#226=DIRECTION('',(-1.15648231731787E-16,-1.,0.));
#227=DIRECTION('',(1.,-1.15648231731787E-16,0.));
#228=DIRECTION('',(-1.15648231731787E-16,-1.,0.));
#229=DIRECTION('',(1.,-1.15648231731787E-16,0.));
#230=CARTESIAN_POINT('',(0.,0.,0.));
#231=CARTESIAN_POINT('',(-0.0104399436165946,-0.039,-0.00838534863740206));
#232=CARTESIAN_POINT('',(-0.0104399436165946,-0.0382,-0.00838534863740206));
#233=CARTESIAN_POINT('',(-0.00946061031762717,-0.0382,-0.00838534863740206));
#234=CARTESIAN_POINT('',(-0.0114192769155621,-0.0382,-0.00838534863740206));
#235=CARTESIAN_POINT('',(-0.0114192769155621,-0.039,-0.00838534863740206));
#236=CARTESIAN_POINT('',(-0.0114192769155621,-0.039,-0.00838534863740206));
#237=CARTESIAN_POINT('',(-0.0104399436165946,-0.039,-0.00838534863740206));
#238=CARTESIAN_POINT('',(-0.00946061031762717,-0.039,-0.00838534863740206));
#239=CARTESIAN_POINT('',(-0.00946061031762717,-0.039,-0.00838534863740206));
#240=CARTESIAN_POINT('',(-0.012142292269928,-0.039,-0.00993534863740206));
#241=CARTESIAN_POINT('',(-0.012142292269928,-0.0382,-0.00993534863740206));
#242=CARTESIAN_POINT('',(-0.0128653076242938,-0.0382,-0.0114853486374021));
#243=CARTESIAN_POINT('',(-0.0128653076242938,-0.039,-0.0114853486374021));
#244=CARTESIAN_POINT('',(-0.0128653076242938,-0.039,-0.0114853486374021));
#245=CARTESIAN_POINT('',(-0.012142292269928,-0.039,-0.00993534863740206));
#246=CARTESIAN_POINT('',(-0.0122419755341196,-0.039,-0.0114853486374021));
#247=CARTESIAN_POINT('',(-0.0122419755341196,-0.0382,-0.0114853486374021));
#248=CARTESIAN_POINT('',(-0.0116186434439454,-0.0382,-0.0114853486374021));
#249=CARTESIAN_POINT('',(-0.0116186434439454,-0.039,-0.0114853486374021));
#250=CARTESIAN_POINT('',(-0.0116186434439454,-0.039,-0.0114853486374021));
#251=CARTESIAN_POINT('',(-0.0122419755341196,-0.039,-0.0114853486374021));
#252=CARTESIAN_POINT('',(-0.0120117584149242,-0.039,-0.0129524736823107));
#253=CARTESIAN_POINT('',(-0.0120117584149242,-0.0382,-0.0129524736823107));
#254=CARTESIAN_POINT('',(-0.0124048733859029,-0.0382,-0.0144195987272194));
#255=CARTESIAN_POINT('',(-0.0124048733859029,-0.039,-0.0144195987272194));
#256=CARTESIAN_POINT('',(-0.0124048733859029,-0.039,-0.0144195987272194));
#257=CARTESIAN_POINT('',(-0.0120117584149242,-0.039,-0.0129524736823107));
#258=CARTESIAN_POINT('',(-0.0106145449356958,-0.039,-0.0124024736823107));
#259=CARTESIAN_POINT('',(-0.0106145449356958,-0.0382,-0.0124024736823107));
#260=CARTESIAN_POINT('',(-0.0088242164854886,-0.0382,-0.0103853486374021));
#261=CARTESIAN_POINT('',(-0.0088242164854886,-0.039,-0.0103853486374021));
#262=CARTESIAN_POINT('',(-0.0088242164854886,-0.039,-0.0103853486374021));
#263=CARTESIAN_POINT('',(-0.0106145449356958,-0.039,-0.0124024736823107));
#264=CARTESIAN_POINT('',(-0.00960872105971288,-0.039,-0.0103853486374021));
#265=CARTESIAN_POINT('',(-0.00960872105971288,-0.0382,-0.0103853486374021));
#266=CARTESIAN_POINT('',(-0.0103932256339372,-0.0382,-0.0103853486374021));
#267=CARTESIAN_POINT('',(-0.0103932256339372,-0.039,-0.0103853486374021));
#268=CARTESIAN_POINT('',(-0.0103932256339372,-0.039,-0.0103853486374021));
#269=CARTESIAN_POINT('',(-0.00960872105971288,-0.039,-0.0103853486374021));
#270=CARTESIAN_POINT('',(-0.00992691797578217,-0.039,-0.00938534863740206));
#271=CARTESIAN_POINT('',(-0.00992691797578217,-0.0382,-0.00938534863740206));
#272=CARTESIAN_POINT('',(-0.00992691797578217,-0.039,-0.00938534863740206));
#273=CARTESIAN_POINT('',(-0.0015,-0.039,-0.009));
#274=CARTESIAN_POINT('',(-0.0015,-0.0382,-0.009));
#275=MECHANICAL_DESIGN_GEOMETRIC_PRESENTATION_REPRESENTATION('',(#168),
#276);
#276=(
GEOMETRIC_REPRESENTATION_CONTEXT(3)
GLOBAL_UNCERTAINTY_ASSIGNED_CONTEXT((#277))
GLOBAL_UNIT_ASSIGNED_CONTEXT((#280,#279,#278))
REPRESENTATION_CONTEXT('Lighting','TOP_LEVEL_ASSEMBLY_PART')
);
#277=UNCERTAINTY_MEASURE_WITH_UNIT(LENGTH_MEASURE(1.E-8),#280,
'DISTANCE_ACCURACY_VALUE','Maximum Tolerance applied to model');
#278=(
NAMED_UNIT(*)
SI_UNIT($,.STERADIAN.)
SOLID_ANGLE_UNIT()
);
#279=(
NAMED_UNIT(*)
PLANE_ANGLE_UNIT()
SI_UNIT($,.RADIAN.)
);
#280=(
LENGTH_UNIT()
NAMED_UNIT(*)
SI_UNIT($,.METRE.)
);
#281=PRODUCT_DEFINITION_SHAPE('','',#282);
#282=PRODUCT_DEFINITION('','',#284,#283);
#283=PRODUCT_DEFINITION_CONTEXT('',#290,'design');
#284=PRODUCT_DEFINITION_FORMATION_WITH_SPECIFIED_SOURCE('','',#286,
 .NOT_KNOWN.);
#285=PRODUCT_RELATED_PRODUCT_CATEGORY('','',(#286));
#286=PRODUCT('Lighting','Lighting','Lighting',(#288));
#287=PRODUCT_CATEGORY('','');
#288=PRODUCT_CONTEXT('',#290,'mechanical');
#289=APPLICATION_PROTOCOL_DEFINITION('international standard',
'ap242_managed_model_based_3d_engineering',2020,#290);
#290=APPLICATION_CONTEXT('managed model based 3d engineering');
ENDSEC;
END-ISO-10303-21;
