ISO-10303-21;
HEADER;
/* Generated by software containing ST-Developer
 * from STEP Tools, Inc. (www.steptools.com) 
 */
/* OPTION: using custom renumber hook */

FILE_DESCRIPTION(
/* description */ ('STEP AP242 Edition 2',
'CAx-IF Rec.Pracs.---Representation and Presentation of Product Manufa
cturing Information (PMI)---4.0---2014-10-13',
'CAx-IF Rec.Pracs.---3D Tessellated Geometry---0.4---2014-09-14','2;1',
'CAx-IF Rec.Pracs.---User Defined Attributes---1.5---2016-08-15'),
/* implementation_level */ '2;1');

FILE_NAME(
/* name */ 'Spring - Part 1',
/* time_stamp */ '2026-09-23T14:43:15Z',
/* author */ (''),
/* organization */ (''),
/* preprocessor_version */ 'ST-DEVELOPER v20',
/* originating_system */ 'ONSHAPE BY PTC INC, 1.221',
/* authorisation */ '  ');

FILE_SCHEMA (('AP242_MANAGED_MODEL_BASED_3D_ENGINEERING_MIM_LF { 1 0 10303 442 3 1 4 }'));
ENDSEC;

DATA;
#10=SHAPE_REPRESENTATION_RELATIONSHIP('','',#677,#11);
#11=ADVANCED_BREP_SHAPE_REPRESENTATION('',(#675),#1323);
#12=B_SPLINE_SURFACE_WITH_KNOTS('',3,1,((#1146,#1147),(#1148,#1149),(#1150,
#1151),(#1152,#1153)),.SURF_OF_LINEAR_EXTRUSION.,.F.,.F.,.F.,(4,4),(2,2),
(-3.60556560539211E-15,1.),(0.,1.),.PIECEWISE_BEZIER_KNOTS.);
#13=B_SPLINE_SURFACE_WITH_KNOTS('',3,1,((#1158,#1159),(#1160,#1161),(#1162,
#1163),(#1164,#1165)),.SURF_OF_LINEAR_EXTRUSION.,.F.,.F.,.F.,(4,4),(2,2),
(3.23048477138567E-17,1.),(0.,1.),.PIECEWISE_BEZIER_KNOTS.);
#14=B_SPLINE_SURFACE_WITH_KNOTS('',3,1,((#1166,#1167),(#1168,#1169),(#1170,
#1171),(#1172,#1173)),.SURF_OF_LINEAR_EXTRUSION.,.F.,.F.,.F.,(4,4),(2,2),
(-4.43880137520358E-16,1.),(0.,1.),.PIECEWISE_BEZIER_KNOTS.);
#15=B_SPLINE_SURFACE_WITH_KNOTS('',3,1,((#1178,#1179),(#1180,#1181),(#1182,
#1183),(#1184,#1185)),.SURF_OF_LINEAR_EXTRUSION.,.F.,.F.,.F.,(4,4),(2,2),
(-4.45828864646478E-15,1.),(0.,1.),.PIECEWISE_BEZIER_KNOTS.);
#16=B_SPLINE_SURFACE_WITH_KNOTS('',3,1,((#1186,#1187),(#1188,#1189),(#1190,
#1191),(#1192,#1193)),.SURF_OF_LINEAR_EXTRUSION.,.F.,.F.,.F.,(4,4),(2,2),
(-6.43279992355913E-15,1.),(0.,1.),.PIECEWISE_BEZIER_KNOTS.);
#17=B_SPLINE_SURFACE_WITH_KNOTS('',3,1,((#1194,#1195),(#1196,#1197),(#1198,
#1199),(#1200,#1201)),.SURF_OF_LINEAR_EXTRUSION.,.F.,.F.,.F.,(4,4),(2,2),
(-8.11460247024473E-16,1.),(0.,1.),.PIECEWISE_BEZIER_KNOTS.);
#18=B_SPLINE_SURFACE_WITH_KNOTS('',3,1,((#1206,#1207),(#1208,#1209),(#1210,
#1211),(#1212,#1213)),.SURF_OF_LINEAR_EXTRUSION.,.F.,.F.,.F.,(4,4),(2,2),
(1.76308472812191E-17,1.),(0.,1.),.PIECEWISE_BEZIER_KNOTS.);
#19=B_SPLINE_SURFACE_WITH_KNOTS('',3,1,((#1214,#1215),(#1216,#1217),(#1218,
#1219),(#1220,#1221)),.SURF_OF_LINEAR_EXTRUSION.,.F.,.F.,.F.,(4,4),(2,2),
(-4.47511085894845E-16,1.),(0.,1.),.PIECEWISE_BEZIER_KNOTS.);
#20=B_SPLINE_SURFACE_WITH_KNOTS('',3,1,((#1226,#1227),(#1228,#1229),(#1230,
#1231),(#1232,#1233)),.SURF_OF_LINEAR_EXTRUSION.,.F.,.F.,.F.,(4,4),(2,2),
(-3.52957596804283E-16,1.),(0.,1.),.PIECEWISE_BEZIER_KNOTS.);
#21=B_SPLINE_SURFACE_WITH_KNOTS('',3,1,((#1234,#1235),(#1236,#1237),(#1238,
#1239),(#1240,#1241)),.SURF_OF_LINEAR_EXTRUSION.,.F.,.F.,.F.,(4,4),(2,2),
(-8.04801169433631E-15,1.),(0.,1.),.PIECEWISE_BEZIER_KNOTS.);
#22=B_SPLINE_SURFACE_WITH_KNOTS('',3,1,((#1242,#1243),(#1244,#1245),(#1246,
#1247),(#1248,#1249)),.SURF_OF_LINEAR_EXTRUSION.,.F.,.F.,.F.,(4,4),(2,2),
(-1.51424159394998E-16,1.),(0.,1.),.PIECEWISE_BEZIER_KNOTS.);
#23=B_SPLINE_SURFACE_WITH_KNOTS('',3,1,((#1254,#1255),(#1256,#1257),(#1258,
#1259),(#1260,#1261)),.SURF_OF_LINEAR_EXTRUSION.,.F.,.F.,.F.,(4,4),(2,2),
(-2.20035304669441E-16,1.),(0.,1.),.PIECEWISE_BEZIER_KNOTS.);
#24=B_SPLINE_SURFACE_WITH_KNOTS('',3,1,((#1262,#1263),(#1264,#1265),(#1266,
#1267),(#1268,#1269)),.SURF_OF_LINEAR_EXTRUSION.,.F.,.F.,.F.,(4,4),(2,2),
(1.23506013212259E-16,0.836660026534077),(0.,1.),
 .PIECEWISE_BEZIER_KNOTS.);
#25=B_SPLINE_SURFACE_WITH_KNOTS('',3,1,((#1274,#1275),(#1276,#1277),(#1278,
#1279),(#1280,#1281)),.SURF_OF_LINEAR_EXTRUSION.,.F.,.F.,.F.,(4,4),(2,2),
(-1.57508856742485E-15,1.),(0.,1.),.PIECEWISE_BEZIER_KNOTS.);
#26=B_SPLINE_SURFACE_WITH_KNOTS('',3,1,((#1282,#1283),(#1284,#1285),(#1286,
#1287),(#1288,#1289)),.SURF_OF_LINEAR_EXTRUSION.,.F.,.F.,.F.,(4,4),(2,2),
(-1.43364140107955E-16,0.836660026534077),(0.,1.),
 .PIECEWISE_BEZIER_KNOTS.);
#27=B_SPLINE_SURFACE_WITH_KNOTS('',3,1,((#1294,#1295),(#1296,#1297),(#1298,
#1299),(#1300,#1301)),.SURF_OF_LINEAR_EXTRUSION.,.F.,.F.,.F.,(4,4),(2,2),
(-1.07464625402048E-16,1.),(0.,1.),.PIECEWISE_BEZIER_KNOTS.);
#28=B_SPLINE_SURFACE_WITH_KNOTS('',3,1,((#1302,#1303),(#1304,#1305),(#1306,
#1307),(#1308,#1309)),.SURF_OF_LINEAR_EXTRUSION.,.F.,.F.,.F.,(4,4),(2,2),
(-4.68937629820725E-16,1.),(0.,1.),.PIECEWISE_BEZIER_KNOTS.);
#29=B_SPLINE_SURFACE_WITH_KNOTS('',3,1,((#1314,#1315),(#1316,#1317),(#1318,
#1319),(#1320,#1321)),.SURF_OF_LINEAR_EXTRUSION.,.F.,.F.,.F.,(4,4),(2,2),
(-3.74579169311986E-17,1.),(0.,1.),.PIECEWISE_BEZIER_KNOTS.);
#30=CIRCLE('',#681,0.00195);
#31=CIRCLE('',#682,0.00195);
#32=CIRCLE('',#690,0.00195);
#33=CIRCLE('',#691,0.00195);
#34=CIRCLE('',#698,0.00115);
#35=CIRCLE('',#699,0.00115);
#36=CIRCLE('',#701,0.00115);
#37=CIRCLE('',#702,0.00115);
#38=CYLINDRICAL_SURFACE('',#680,0.00195);
#39=CYLINDRICAL_SURFACE('',#689,0.00195);
#40=CYLINDRICAL_SURFACE('',#697,0.00115);
#41=CYLINDRICAL_SURFACE('',#700,0.00115);
#42=B_SPLINE_CURVE_WITH_KNOTS('',3,(#794,#795,#796,#797),.UNSPECIFIED.,
 .F.,.F.,(4,4),(0.,1.),.UNSPECIFIED.);
#43=B_SPLINE_CURVE_WITH_KNOTS('',3,(#818,#819,#820,#821),.UNSPECIFIED.,
 .F.,.F.,(4,4),(0.,1.),.UNSPECIFIED.);
#44=B_SPLINE_CURVE_WITH_KNOTS('',3,(#825,#826,#827,#828),.UNSPECIFIED.,
 .F.,.F.,(4,4),(0.,1.),.UNSPECIFIED.);
#45=B_SPLINE_CURVE_WITH_KNOTS('',3,(#833,#834,#835,#836),.UNSPECIFIED.,
 .F.,.F.,(4,4),(0.,1.),.UNSPECIFIED.);
#46=B_SPLINE_CURVE_WITH_KNOTS('',3,(#840,#841,#842,#843),.UNSPECIFIED.,
 .F.,.F.,(4,4),(0.,1.),.UNSPECIFIED.);
#47=B_SPLINE_CURVE_WITH_KNOTS('',3,(#848,#849,#850,#851),.UNSPECIFIED.,
 .F.,.F.,(4,4),(0.,1.),.UNSPECIFIED.);
#48=B_SPLINE_CURVE_WITH_KNOTS('',3,(#855,#856,#857,#858),.UNSPECIFIED.,
 .F.,.F.,(4,4),(0.,1.),.UNSPECIFIED.);
#49=B_SPLINE_CURVE_WITH_KNOTS('',3,(#863,#864,#865,#866),.UNSPECIFIED.,
 .F.,.F.,(4,4),(0.,1.),.UNSPECIFIED.);
#50=B_SPLINE_CURVE_WITH_KNOTS('',3,(#870,#871,#872,#873),.UNSPECIFIED.,
 .F.,.F.,(4,4),(0.,1.),.UNSPECIFIED.);
#51=B_SPLINE_CURVE_WITH_KNOTS('',3,(#878,#879,#880,#881),.UNSPECIFIED.,
 .F.,.F.,(4,4),(0.,1.),.UNSPECIFIED.);
#52=B_SPLINE_CURVE_WITH_KNOTS('',3,(#902,#903,#904,#905),.UNSPECIFIED.,
 .F.,.F.,(4,4),(0.,1.),.UNSPECIFIED.);
#53=B_SPLINE_CURVE_WITH_KNOTS('',3,(#909,#910,#911,#912),.UNSPECIFIED.,
 .F.,.F.,(4,4),(0.,1.),.UNSPECIFIED.);
#54=B_SPLINE_CURVE_WITH_KNOTS('',3,(#917,#918,#919,#920),.UNSPECIFIED.,
 .F.,.F.,(4,4),(0.,1.),.UNSPECIFIED.);
#55=B_SPLINE_CURVE_WITH_KNOTS('',3,(#924,#925,#926,#927),.UNSPECIFIED.,
 .F.,.F.,(4,4),(0.,1.),.UNSPECIFIED.);
#56=B_SPLINE_CURVE_WITH_KNOTS('',3,(#932,#933,#934,#935),.UNSPECIFIED.,
 .F.,.F.,(4,4),(0.,1.),.UNSPECIFIED.);
#57=B_SPLINE_CURVE_WITH_KNOTS('',3,(#939,#940,#941,#942),.UNSPECIFIED.,
 .F.,.F.,(4,4),(0.,1.),.UNSPECIFIED.);
#58=B_SPLINE_CURVE_WITH_KNOTS('',3,(#947,#948,#949,#950),.UNSPECIFIED.,
 .F.,.F.,(4,4),(0.,1.),.UNSPECIFIED.);
#59=B_SPLINE_CURVE_WITH_KNOTS('',3,(#954,#955,#956,#957),.UNSPECIFIED.,
 .F.,.F.,(4,4),(0.,1.),.UNSPECIFIED.);
#60=B_SPLINE_CURVE_WITH_KNOTS('',3,(#969,#970,#971,#972),.UNSPECIFIED.,
 .F.,.F.,(4,4),(0.,1.),.UNSPECIFIED.);
#61=B_SPLINE_CURVE_WITH_KNOTS('',3,(#974,#975,#976,#977),.UNSPECIFIED.,
 .F.,.F.,(4,4),(0.,1.),.UNSPECIFIED.);
#62=B_SPLINE_CURVE_WITH_KNOTS('',3,(#978,#979,#980,#981,#982),
 .UNSPECIFIED.,.F.,.F.,(4,1,4),(0.,0.00060095099733222,0.00120190199466444),
 .UNSPECIFIED.);
#63=B_SPLINE_CURVE_WITH_KNOTS('',3,(#984,#985,#986,#987,#988),
 .UNSPECIFIED.,.F.,.F.,(4,1,4),(0.,0.00060095099733222,0.00120190199466444),
 .UNSPECIFIED.);
#64=B_SPLINE_CURVE_WITH_KNOTS('',3,(#989,#990,#991,#992),.UNSPECIFIED.,
 .F.,.F.,(4,4),(0.,1.),.UNSPECIFIED.);
#65=B_SPLINE_CURVE_WITH_KNOTS('',3,(#994,#995,#996,#997),.UNSPECIFIED.,
 .F.,.F.,(4,4),(0.,1.),.UNSPECIFIED.);
#66=B_SPLINE_CURVE_WITH_KNOTS('',3,(#998,#999,#1000,#1001,#1002),
 .UNSPECIFIED.,.F.,.F.,(4,1,4),(0.,0.00060095099733222,0.00120190199466444),
 .UNSPECIFIED.);
#67=B_SPLINE_CURVE_WITH_KNOTS('',3,(#1004,#1005,#1006,#1007,#1008),
 .UNSPECIFIED.,.F.,.F.,(4,1,4),(0.,0.00060095099733222,0.00120190199466444),
 .UNSPECIFIED.);
#68=B_SPLINE_CURVE_WITH_KNOTS('',3,(#1009,#1010,#1011,#1012),
 .UNSPECIFIED.,.F.,.F.,(4,4),(0.,1.),.UNSPECIFIED.);
#69=B_SPLINE_CURVE_WITH_KNOTS('',3,(#1013,#1014,#1015,#1016),
 .UNSPECIFIED.,.F.,.F.,(4,4),(0.,1.),.UNSPECIFIED.);
#70=B_SPLINE_CURVE_WITH_KNOTS('',3,(#1018,#1019,#1020,#1021),
 .UNSPECIFIED.,.F.,.F.,(4,4),(0.,1.),.UNSPECIFIED.);
#71=B_SPLINE_CURVE_WITH_KNOTS('',3,(#1022,#1023,#1024,#1025,#1026),
 .UNSPECIFIED.,.F.,.F.,(4,1,4),(0.,0.00060095099733222,0.00120190199466444),
 .UNSPECIFIED.);
#72=B_SPLINE_CURVE_WITH_KNOTS('',3,(#1028,#1029,#1030,#1031,#1032),
 .UNSPECIFIED.,.F.,.F.,(4,1,4),(0.,0.00060095099733222,0.00120190199466444),
 .UNSPECIFIED.);
#73=B_SPLINE_CURVE_WITH_KNOTS('',3,(#1033,#1034,#1035,#1036),
 .UNSPECIFIED.,.F.,.F.,(4,4),(0.,1.),.UNSPECIFIED.);
#74=B_SPLINE_CURVE_WITH_KNOTS('',3,(#1038,#1039,#1040,#1041),
 .UNSPECIFIED.,.F.,.F.,(4,4),(0.,1.),.UNSPECIFIED.);
#75=B_SPLINE_CURVE_WITH_KNOTS('',3,(#1042,#1043,#1044,#1045,#1046),
 .UNSPECIFIED.,.F.,.F.,(4,1,4),(0.,0.00060095099733222,0.00120190199466444),
 .UNSPECIFIED.);
#76=B_SPLINE_CURVE_WITH_KNOTS('',3,(#1048,#1049,#1050,#1051,#1052),
 .UNSPECIFIED.,.F.,.F.,(4,1,4),(0.,0.00060095099733222,0.00120190199466444),
 .UNSPECIFIED.);
#77=B_SPLINE_CURVE_WITH_KNOTS('',3,(#1053,#1054,#1055,#1056),
 .UNSPECIFIED.,.F.,.F.,(4,4),(0.,1.),.UNSPECIFIED.);
#78=B_SPLINE_CURVE_WITH_KNOTS('',3,(#1058,#1059,#1060,#1061),
 .UNSPECIFIED.,.F.,.F.,(4,4),(0.,1.),.UNSPECIFIED.);
#79=B_SPLINE_CURVE_WITH_KNOTS('',3,(#1063,#1064,#1065,#1066),
 .UNSPECIFIED.,.F.,.F.,(4,4),(0.,1.),.UNSPECIFIED.);
#80=B_SPLINE_CURVE_WITH_KNOTS('',3,(#1067,#1068,#1069,#1070),
 .UNSPECIFIED.,.F.,.F.,(4,4),(0.,1.),.UNSPECIFIED.);
#81=B_SPLINE_CURVE_WITH_KNOTS('',3,(#1071,#1072,#1073,#1074,#1075),
 .UNSPECIFIED.,.F.,.F.,(4,1,4),(0.,0.00060095099733222,0.00120190199466444),
 .UNSPECIFIED.);
#82=B_SPLINE_CURVE_WITH_KNOTS('',3,(#1077,#1078,#1079,#1080,#1081),
 .UNSPECIFIED.,.F.,.F.,(4,1,4),(0.,0.00060095099733222,0.00120190199466444),
 .UNSPECIFIED.);
#83=B_SPLINE_CURVE_WITH_KNOTS('',3,(#1082,#1083,#1084,#1085),
 .UNSPECIFIED.,.F.,.F.,(4,4),(0.,1.),.UNSPECIFIED.);
#84=B_SPLINE_CURVE_WITH_KNOTS('',3,(#1087,#1088,#1089,#1090),
 .UNSPECIFIED.,.F.,.F.,(4,4),(0.,1.),.UNSPECIFIED.);
#85=B_SPLINE_CURVE_WITH_KNOTS('',3,(#1091,#1092,#1093,#1094,#1095),
 .UNSPECIFIED.,.F.,.F.,(4,1,4),(0.,0.00060095099733222,0.00120190199466444),
 .UNSPECIFIED.);
#86=B_SPLINE_CURVE_WITH_KNOTS('',3,(#1097,#1098,#1099,#1100,#1101),
 .UNSPECIFIED.,.F.,.F.,(4,1,4),(0.,0.00060095099733222,0.00120190199466444),
 .UNSPECIFIED.);
#87=B_SPLINE_CURVE_WITH_KNOTS('',3,(#1102,#1103,#1104,#1105),
 .UNSPECIFIED.,.F.,.F.,(4,4),(0.,1.),.UNSPECIFIED.);
#88=B_SPLINE_CURVE_WITH_KNOTS('',3,(#1107,#1108,#1109,#1110),
 .UNSPECIFIED.,.F.,.F.,(4,4),(0.,1.),.UNSPECIFIED.);
#89=B_SPLINE_CURVE_WITH_KNOTS('',3,(#1111,#1112,#1113,#1114),
 .UNSPECIFIED.,.F.,.F.,(4,4),(0.,1.),.UNSPECIFIED.);
#90=B_SPLINE_CURVE_WITH_KNOTS('',3,(#1115,#1116,#1117,#1118,#1119),
 .UNSPECIFIED.,.F.,.F.,(4,1,4),(0.,0.00060095099733222,0.00120190199466444),
 .UNSPECIFIED.);
#91=B_SPLINE_CURVE_WITH_KNOTS('',3,(#1121,#1122,#1123,#1124,#1125),
 .UNSPECIFIED.,.F.,.F.,(4,1,4),(0.,0.00060095099733222,0.00120190199466444),
 .UNSPECIFIED.);
#92=B_SPLINE_CURVE_WITH_KNOTS('',3,(#1126,#1127,#1128,#1129),
 .UNSPECIFIED.,.F.,.F.,(4,4),(0.,1.),.UNSPECIFIED.);
#93=B_SPLINE_CURVE_WITH_KNOTS('',3,(#1131,#1132,#1133,#1134),
 .UNSPECIFIED.,.F.,.F.,(4,4),(0.,1.),.UNSPECIFIED.);
#94=B_SPLINE_CURVE_WITH_KNOTS('',3,(#1135,#1136,#1137,#1138,#1139),
 .UNSPECIFIED.,.F.,.F.,(4,1,4),(0.,0.00060095099733222,0.00120190199466444),
 .UNSPECIFIED.);
#95=B_SPLINE_CURVE_WITH_KNOTS('',3,(#1141,#1142,#1143,#1144,#1145),
 .UNSPECIFIED.,.F.,.F.,(4,1,4),(0.,0.00060095099733222,0.00120190199466444),
 .UNSPECIFIED.);
#96=B_SPLINE_CURVE_WITH_KNOTS('',3,(#1154,#1155,#1156,#1157),
 .UNSPECIFIED.,.F.,.F.,(4,4),(0.,1.),.UNSPECIFIED.);
#97=B_SPLINE_CURVE_WITH_KNOTS('',3,(#1174,#1175,#1176,#1177),
 .UNSPECIFIED.,.F.,.F.,(4,4),(0.,1.),.UNSPECIFIED.);
#98=B_SPLINE_CURVE_WITH_KNOTS('',3,(#1202,#1203,#1204,#1205),
 .UNSPECIFIED.,.F.,.F.,(4,4),(0.,1.),.UNSPECIFIED.);
#99=B_SPLINE_CURVE_WITH_KNOTS('',3,(#1222,#1223,#1224,#1225),
 .UNSPECIFIED.,.F.,.F.,(4,4),(0.,1.),.UNSPECIFIED.);
#100=B_SPLINE_CURVE_WITH_KNOTS('',3,(#1250,#1251,#1252,#1253),
 .UNSPECIFIED.,.F.,.F.,(4,4),(0.,1.),.UNSPECIFIED.);
#101=B_SPLINE_CURVE_WITH_KNOTS('',3,(#1270,#1271,#1272,#1273),
 .UNSPECIFIED.,.F.,.F.,(4,4),(0.,1.),.UNSPECIFIED.);
#102=B_SPLINE_CURVE_WITH_KNOTS('',3,(#1290,#1291,#1292,#1293),
 .UNSPECIFIED.,.F.,.F.,(4,4),(0.,1.),.UNSPECIFIED.);
#103=B_SPLINE_CURVE_WITH_KNOTS('',3,(#1310,#1311,#1312,#1313),
 .UNSPECIFIED.,.F.,.F.,(4,4),(0.,1.),.UNSPECIFIED.);
#104=ORIENTED_EDGE('',*,*,#304,.T.);
#105=ORIENTED_EDGE('',*,*,#305,.T.);
#106=ORIENTED_EDGE('',*,*,#306,.F.);
#107=ORIENTED_EDGE('',*,*,#307,.F.);
#108=ORIENTED_EDGE('',*,*,#308,.T.);
#109=ORIENTED_EDGE('',*,*,#309,.F.);
#110=ORIENTED_EDGE('',*,*,#310,.F.);
#111=ORIENTED_EDGE('',*,*,#307,.T.);
#112=ORIENTED_EDGE('',*,*,#311,.T.);
#113=ORIENTED_EDGE('',*,*,#312,.T.);
#114=ORIENTED_EDGE('',*,*,#313,.F.);
#115=ORIENTED_EDGE('',*,*,#309,.T.);
#116=ORIENTED_EDGE('',*,*,#314,.F.);
#117=ORIENTED_EDGE('',*,*,#315,.T.);
#118=ORIENTED_EDGE('',*,*,#316,.T.);
#119=ORIENTED_EDGE('',*,*,#317,.T.);
#120=ORIENTED_EDGE('',*,*,#318,.T.);
#121=ORIENTED_EDGE('',*,*,#319,.T.);
#122=ORIENTED_EDGE('',*,*,#320,.F.);
#123=ORIENTED_EDGE('',*,*,#321,.T.);
#124=ORIENTED_EDGE('',*,*,#322,.F.);
#125=ORIENTED_EDGE('',*,*,#323,.T.);
#126=ORIENTED_EDGE('',*,*,#324,.T.);
#127=ORIENTED_EDGE('',*,*,#325,.T.);
#128=ORIENTED_EDGE('',*,*,#326,.T.);
#129=ORIENTED_EDGE('',*,*,#327,.T.);
#130=ORIENTED_EDGE('',*,*,#328,.F.);
#131=ORIENTED_EDGE('',*,*,#329,.T.);
#132=ORIENTED_EDGE('',*,*,#330,.T.);
#133=ORIENTED_EDGE('',*,*,#331,.T.);
#134=ORIENTED_EDGE('',*,*,#332,.F.);
#135=ORIENTED_EDGE('',*,*,#333,.F.);
#136=ORIENTED_EDGE('',*,*,#334,.T.);
#137=ORIENTED_EDGE('',*,*,#335,.F.);
#138=ORIENTED_EDGE('',*,*,#336,.F.);
#139=ORIENTED_EDGE('',*,*,#333,.T.);
#140=ORIENTED_EDGE('',*,*,#337,.T.);
#141=ORIENTED_EDGE('',*,*,#338,.T.);
#142=ORIENTED_EDGE('',*,*,#339,.F.);
#143=ORIENTED_EDGE('',*,*,#335,.T.);
#144=ORIENTED_EDGE('',*,*,#340,.T.);
#145=ORIENTED_EDGE('',*,*,#341,.T.);
#146=ORIENTED_EDGE('',*,*,#342,.F.);
#147=ORIENTED_EDGE('',*,*,#343,.T.);
#148=ORIENTED_EDGE('',*,*,#344,.F.);
#149=ORIENTED_EDGE('',*,*,#345,.T.);
#150=ORIENTED_EDGE('',*,*,#346,.T.);
#151=ORIENTED_EDGE('',*,*,#347,.T.);
#152=ORIENTED_EDGE('',*,*,#348,.T.);
#153=ORIENTED_EDGE('',*,*,#349,.T.);
#154=ORIENTED_EDGE('',*,*,#350,.F.);
#155=ORIENTED_EDGE('',*,*,#351,.T.);
#156=ORIENTED_EDGE('',*,*,#352,.T.);
#157=ORIENTED_EDGE('',*,*,#353,.T.);
#158=ORIENTED_EDGE('',*,*,#354,.F.);
#159=ORIENTED_EDGE('',*,*,#355,.T.);
#160=ORIENTED_EDGE('',*,*,#356,.T.);
#161=ORIENTED_EDGE('',*,*,#357,.F.);
#162=ORIENTED_EDGE('',*,*,#358,.T.);
#163=ORIENTED_EDGE('',*,*,#359,.F.);
#164=ORIENTED_EDGE('',*,*,#356,.F.);
#165=ORIENTED_EDGE('',*,*,#360,.T.);
#166=ORIENTED_EDGE('',*,*,#361,.T.);
#167=ORIENTED_EDGE('',*,*,#340,.F.);
#168=ORIENTED_EDGE('',*,*,#362,.T.);
#169=ORIENTED_EDGE('',*,*,#363,.T.);
#170=ORIENTED_EDGE('',*,*,#346,.F.);
#171=ORIENTED_EDGE('',*,*,#364,.T.);
#172=ORIENTED_EDGE('',*,*,#365,.T.);
#173=ORIENTED_EDGE('',*,*,#348,.F.);
#174=ORIENTED_EDGE('',*,*,#366,.T.);
#175=ORIENTED_EDGE('',*,*,#367,.T.);
#176=ORIENTED_EDGE('',*,*,#352,.F.);
#177=ORIENTED_EDGE('',*,*,#368,.T.);
#178=ORIENTED_EDGE('',*,*,#304,.F.);
#179=ORIENTED_EDGE('',*,*,#310,.T.);
#180=ORIENTED_EDGE('',*,*,#313,.T.);
#181=ORIENTED_EDGE('',*,*,#369,.T.);
#182=ORIENTED_EDGE('',*,*,#370,.T.);
#183=ORIENTED_EDGE('',*,*,#314,.T.);
#184=ORIENTED_EDGE('',*,*,#371,.T.);
#185=ORIENTED_EDGE('',*,*,#372,.T.);
#186=ORIENTED_EDGE('',*,*,#320,.T.);
#187=ORIENTED_EDGE('',*,*,#373,.T.);
#188=ORIENTED_EDGE('',*,*,#374,.T.);
#189=ORIENTED_EDGE('',*,*,#322,.T.);
#190=ORIENTED_EDGE('',*,*,#375,.T.);
#191=ORIENTED_EDGE('',*,*,#376,.T.);
#192=ORIENTED_EDGE('',*,*,#326,.F.);
#193=ORIENTED_EDGE('',*,*,#377,.T.);
#194=ORIENTED_EDGE('',*,*,#330,.F.);
#195=ORIENTED_EDGE('',*,*,#336,.T.);
#196=ORIENTED_EDGE('',*,*,#339,.T.);
#197=ORIENTED_EDGE('',*,*,#358,.F.);
#198=ORIENTED_EDGE('',*,*,#357,.T.);
#199=ORIENTED_EDGE('',*,*,#342,.T.);
#200=ORIENTED_EDGE('',*,*,#378,.T.);
#201=ORIENTED_EDGE('',*,*,#379,.T.);
#202=ORIENTED_EDGE('',*,*,#337,.F.);
#203=ORIENTED_EDGE('',*,*,#334,.F.);
#204=ORIENTED_EDGE('',*,*,#332,.T.);
#205=ORIENTED_EDGE('',*,*,#380,.T.);
#206=ORIENTED_EDGE('',*,*,#328,.T.);
#207=ORIENTED_EDGE('',*,*,#381,.T.);
#208=ORIENTED_EDGE('',*,*,#382,.T.);
#209=ORIENTED_EDGE('',*,*,#324,.F.);
#210=ORIENTED_EDGE('',*,*,#383,.T.);
#211=ORIENTED_EDGE('',*,*,#384,.T.);
#212=ORIENTED_EDGE('',*,*,#318,.F.);
#213=ORIENTED_EDGE('',*,*,#385,.T.);
#214=ORIENTED_EDGE('',*,*,#386,.T.);
#215=ORIENTED_EDGE('',*,*,#316,.F.);
#216=ORIENTED_EDGE('',*,*,#387,.T.);
#217=ORIENTED_EDGE('',*,*,#388,.T.);
#218=ORIENTED_EDGE('',*,*,#311,.F.);
#219=ORIENTED_EDGE('',*,*,#308,.F.);
#220=ORIENTED_EDGE('',*,*,#306,.T.);
#221=ORIENTED_EDGE('',*,*,#389,.T.);
#222=ORIENTED_EDGE('',*,*,#354,.T.);
#223=ORIENTED_EDGE('',*,*,#390,.T.);
#224=ORIENTED_EDGE('',*,*,#391,.T.);
#225=ORIENTED_EDGE('',*,*,#350,.T.);
#226=ORIENTED_EDGE('',*,*,#392,.T.);
#227=ORIENTED_EDGE('',*,*,#393,.T.);
#228=ORIENTED_EDGE('',*,*,#344,.T.);
#229=ORIENTED_EDGE('',*,*,#394,.T.);
#230=ORIENTED_EDGE('',*,*,#395,.T.);
#231=ORIENTED_EDGE('',*,*,#359,.T.);
#232=ORIENTED_EDGE('',*,*,#347,.F.);
#233=ORIENTED_EDGE('',*,*,#363,.F.);
#234=ORIENTED_EDGE('',*,*,#396,.F.);
#235=ORIENTED_EDGE('',*,*,#394,.F.);
#236=ORIENTED_EDGE('',*,*,#362,.F.);
#237=ORIENTED_EDGE('',*,*,#343,.F.);
#238=ORIENTED_EDGE('',*,*,#395,.F.);
#239=ORIENTED_EDGE('',*,*,#396,.T.);
#240=ORIENTED_EDGE('',*,*,#327,.F.);
#241=ORIENTED_EDGE('',*,*,#376,.F.);
#242=ORIENTED_EDGE('',*,*,#397,.F.);
#243=ORIENTED_EDGE('',*,*,#381,.F.);
#244=ORIENTED_EDGE('',*,*,#375,.F.);
#245=ORIENTED_EDGE('',*,*,#325,.F.);
#246=ORIENTED_EDGE('',*,*,#382,.F.);
#247=ORIENTED_EDGE('',*,*,#397,.T.);
#248=ORIENTED_EDGE('',*,*,#377,.F.);
#249=ORIENTED_EDGE('',*,*,#329,.F.);
#250=ORIENTED_EDGE('',*,*,#380,.F.);
#251=ORIENTED_EDGE('',*,*,#331,.F.);
#252=ORIENTED_EDGE('',*,*,#398,.F.);
#253=ORIENTED_EDGE('',*,*,#371,.F.);
#254=ORIENTED_EDGE('',*,*,#317,.F.);
#255=ORIENTED_EDGE('',*,*,#386,.F.);
#256=ORIENTED_EDGE('',*,*,#372,.F.);
#257=ORIENTED_EDGE('',*,*,#398,.T.);
#258=ORIENTED_EDGE('',*,*,#385,.F.);
#259=ORIENTED_EDGE('',*,*,#321,.F.);
#260=ORIENTED_EDGE('',*,*,#353,.F.);
#261=ORIENTED_EDGE('',*,*,#367,.F.);
#262=ORIENTED_EDGE('',*,*,#399,.F.);
#263=ORIENTED_EDGE('',*,*,#390,.F.);
#264=ORIENTED_EDGE('',*,*,#366,.F.);
#265=ORIENTED_EDGE('',*,*,#351,.F.);
#266=ORIENTED_EDGE('',*,*,#391,.F.);
#267=ORIENTED_EDGE('',*,*,#399,.T.);
#268=ORIENTED_EDGE('',*,*,#368,.F.);
#269=ORIENTED_EDGE('',*,*,#355,.F.);
#270=ORIENTED_EDGE('',*,*,#389,.F.);
#271=ORIENTED_EDGE('',*,*,#305,.F.);
#272=ORIENTED_EDGE('',*,*,#400,.F.);
#273=ORIENTED_EDGE('',*,*,#373,.F.);
#274=ORIENTED_EDGE('',*,*,#319,.F.);
#275=ORIENTED_EDGE('',*,*,#384,.F.);
#276=ORIENTED_EDGE('',*,*,#374,.F.);
#277=ORIENTED_EDGE('',*,*,#400,.T.);
#278=ORIENTED_EDGE('',*,*,#383,.F.);
#279=ORIENTED_EDGE('',*,*,#323,.F.);
#280=ORIENTED_EDGE('',*,*,#401,.F.);
#281=ORIENTED_EDGE('',*,*,#360,.F.);
#282=ORIENTED_EDGE('',*,*,#338,.F.);
#283=ORIENTED_EDGE('',*,*,#379,.F.);
#284=ORIENTED_EDGE('',*,*,#361,.F.);
#285=ORIENTED_EDGE('',*,*,#401,.T.);
#286=ORIENTED_EDGE('',*,*,#378,.F.);
#287=ORIENTED_EDGE('',*,*,#341,.F.);
#288=ORIENTED_EDGE('',*,*,#402,.F.);
#289=ORIENTED_EDGE('',*,*,#369,.F.);
#290=ORIENTED_EDGE('',*,*,#312,.F.);
#291=ORIENTED_EDGE('',*,*,#388,.F.);
#292=ORIENTED_EDGE('',*,*,#370,.F.);
#293=ORIENTED_EDGE('',*,*,#402,.T.);
#294=ORIENTED_EDGE('',*,*,#387,.F.);
#295=ORIENTED_EDGE('',*,*,#315,.F.);
#296=ORIENTED_EDGE('',*,*,#349,.F.);
#297=ORIENTED_EDGE('',*,*,#365,.F.);
#298=ORIENTED_EDGE('',*,*,#403,.F.);
#299=ORIENTED_EDGE('',*,*,#392,.F.);
#300=ORIENTED_EDGE('',*,*,#364,.F.);
#301=ORIENTED_EDGE('',*,*,#345,.F.);
#302=ORIENTED_EDGE('',*,*,#393,.F.);
#303=ORIENTED_EDGE('',*,*,#403,.T.);
#304=EDGE_CURVE('',#404,#405,#472,.T.);
#305=EDGE_CURVE('',#405,#406,#42,.T.);
#306=EDGE_CURVE('',#407,#406,#473,.T.);
#307=EDGE_CURVE('',#404,#407,#474,.T.);
#308=EDGE_CURVE('',#407,#408,#30,.T.);
#309=EDGE_CURVE('',#409,#408,#475,.T.);
#310=EDGE_CURVE('',#404,#409,#31,.T.);
#311=EDGE_CURVE('',#408,#410,#476,.T.);
#312=EDGE_CURVE('',#410,#411,#477,.F.);
#313=EDGE_CURVE('',#409,#411,#478,.T.);
#314=EDGE_CURVE('',#412,#413,#479,.T.);
#315=EDGE_CURVE('',#412,#414,#43,.T.);
#316=EDGE_CURVE('',#414,#415,#480,.T.);
#317=EDGE_CURVE('',#415,#413,#44,.T.);
#318=EDGE_CURVE('',#416,#417,#481,.T.);
#319=EDGE_CURVE('',#417,#418,#45,.T.);
#320=EDGE_CURVE('',#419,#418,#482,.T.);
#321=EDGE_CURVE('',#419,#416,#46,.T.);
#322=EDGE_CURVE('',#420,#421,#483,.T.);
#323=EDGE_CURVE('',#420,#422,#47,.T.);
#324=EDGE_CURVE('',#422,#423,#484,.T.);
#325=EDGE_CURVE('',#423,#421,#48,.T.);
#326=EDGE_CURVE('',#424,#425,#485,.T.);
#327=EDGE_CURVE('',#425,#426,#49,.T.);
#328=EDGE_CURVE('',#427,#426,#486,.T.);
#329=EDGE_CURVE('',#427,#424,#50,.T.);
#330=EDGE_CURVE('',#428,#429,#487,.T.);
#331=EDGE_CURVE('',#429,#430,#51,.T.);
#332=EDGE_CURVE('',#431,#430,#488,.T.);
#333=EDGE_CURVE('',#428,#431,#489,.T.);
#334=EDGE_CURVE('',#431,#432,#32,.T.);
#335=EDGE_CURVE('',#433,#432,#490,.T.);
#336=EDGE_CURVE('',#428,#433,#33,.T.);
#337=EDGE_CURVE('',#432,#434,#491,.T.);
#338=EDGE_CURVE('',#434,#435,#492,.F.);
#339=EDGE_CURVE('',#433,#435,#493,.T.);
#340=EDGE_CURVE('',#436,#437,#494,.T.);
#341=EDGE_CURVE('',#437,#438,#52,.T.);
#342=EDGE_CURVE('',#439,#438,#495,.T.);
#343=EDGE_CURVE('',#439,#436,#53,.T.);
#344=EDGE_CURVE('',#440,#441,#496,.T.);
#345=EDGE_CURVE('',#440,#442,#54,.T.);
#346=EDGE_CURVE('',#442,#443,#497,.T.);
#347=EDGE_CURVE('',#443,#441,#55,.T.);
#348=EDGE_CURVE('',#444,#445,#498,.T.);
#349=EDGE_CURVE('',#445,#446,#56,.T.);
#350=EDGE_CURVE('',#447,#446,#499,.T.);
#351=EDGE_CURVE('',#447,#444,#57,.T.);
#352=EDGE_CURVE('',#448,#449,#500,.T.);
#353=EDGE_CURVE('',#449,#450,#58,.T.);
#354=EDGE_CURVE('',#451,#450,#501,.T.);
#355=EDGE_CURVE('',#451,#448,#59,.T.);
#356=EDGE_CURVE('',#452,#452,#34,.T.);
#357=EDGE_CURVE('',#453,#453,#35,.T.);
#358=EDGE_CURVE('',#454,#454,#36,.T.);
#359=EDGE_CURVE('',#455,#455,#37,.T.);
#360=EDGE_CURVE('',#435,#456,#60,.T.);
#361=EDGE_CURVE('',#456,#437,#61,.T.);
#362=EDGE_CURVE('',#436,#457,#62,.T.);
#363=EDGE_CURVE('',#457,#443,#63,.T.);
#364=EDGE_CURVE('',#442,#458,#64,.T.);
#365=EDGE_CURVE('',#458,#445,#65,.T.);
#366=EDGE_CURVE('',#444,#459,#66,.T.);
#367=EDGE_CURVE('',#459,#449,#67,.T.);
#368=EDGE_CURVE('',#448,#405,#68,.T.);
#369=EDGE_CURVE('',#411,#460,#69,.T.);
#370=EDGE_CURVE('',#460,#412,#70,.T.);
#371=EDGE_CURVE('',#413,#461,#71,.T.);
#372=EDGE_CURVE('',#461,#419,#72,.T.);
#373=EDGE_CURVE('',#418,#462,#73,.T.);
#374=EDGE_CURVE('',#462,#420,#74,.T.);
#375=EDGE_CURVE('',#421,#463,#75,.T.);
#376=EDGE_CURVE('',#463,#425,#76,.T.);
#377=EDGE_CURVE('',#424,#429,#77,.T.);
#378=EDGE_CURVE('',#438,#464,#78,.T.);
#379=EDGE_CURVE('',#464,#434,#79,.T.);
#380=EDGE_CURVE('',#430,#427,#80,.T.);
#381=EDGE_CURVE('',#426,#465,#81,.T.);
#382=EDGE_CURVE('',#465,#423,#82,.T.);
#383=EDGE_CURVE('',#422,#466,#83,.T.);
#384=EDGE_CURVE('',#466,#417,#84,.T.);
#385=EDGE_CURVE('',#416,#467,#85,.T.);
#386=EDGE_CURVE('',#467,#415,#86,.T.);
#387=EDGE_CURVE('',#414,#468,#87,.T.);
#388=EDGE_CURVE('',#468,#410,#88,.T.);
#389=EDGE_CURVE('',#406,#451,#89,.T.);
#390=EDGE_CURVE('',#450,#469,#90,.T.);
#391=EDGE_CURVE('',#469,#447,#91,.T.);
#392=EDGE_CURVE('',#446,#470,#92,.T.);
#393=EDGE_CURVE('',#470,#440,#93,.T.);
#394=EDGE_CURVE('',#441,#471,#94,.T.);
#395=EDGE_CURVE('',#471,#439,#95,.T.);
#396=EDGE_CURVE('',#471,#457,#96,.F.);
#397=EDGE_CURVE('',#465,#463,#97,.F.);
#398=EDGE_CURVE('',#461,#467,#98,.F.);
#399=EDGE_CURVE('',#469,#459,#99,.F.);
#400=EDGE_CURVE('',#462,#466,#100,.F.);
#401=EDGE_CURVE('',#456,#464,#101,.F.);
#402=EDGE_CURVE('',#460,#468,#102,.F.);
#403=EDGE_CURVE('',#470,#458,#103,.F.);
#404=VERTEX_POINT('',#792);
#405=VERTEX_POINT('',#793);
#406=VERTEX_POINT('',#798);
#407=VERTEX_POINT('',#800);
#408=VERTEX_POINT('',#804);
#409=VERTEX_POINT('',#806);
#410=VERTEX_POINT('',#810);
#411=VERTEX_POINT('',#812);
#412=VERTEX_POINT('',#816);
#413=VERTEX_POINT('',#817);
#414=VERTEX_POINT('',#822);
#415=VERTEX_POINT('',#824);
#416=VERTEX_POINT('',#831);
#417=VERTEX_POINT('',#832);
#418=VERTEX_POINT('',#837);
#419=VERTEX_POINT('',#839);
#420=VERTEX_POINT('',#846);
#421=VERTEX_POINT('',#847);
#422=VERTEX_POINT('',#852);
#423=VERTEX_POINT('',#854);
#424=VERTEX_POINT('',#861);
#425=VERTEX_POINT('',#862);
#426=VERTEX_POINT('',#867);
#427=VERTEX_POINT('',#869);
#428=VERTEX_POINT('',#876);
#429=VERTEX_POINT('',#877);
#430=VERTEX_POINT('',#882);
#431=VERTEX_POINT('',#884);
#432=VERTEX_POINT('',#888);
#433=VERTEX_POINT('',#890);
#434=VERTEX_POINT('',#894);
#435=VERTEX_POINT('',#896);
#436=VERTEX_POINT('',#900);
#437=VERTEX_POINT('',#901);
#438=VERTEX_POINT('',#906);
#439=VERTEX_POINT('',#908);
#440=VERTEX_POINT('',#915);
#441=VERTEX_POINT('',#916);
#442=VERTEX_POINT('',#921);
#443=VERTEX_POINT('',#923);
#444=VERTEX_POINT('',#930);
#445=VERTEX_POINT('',#931);
#446=VERTEX_POINT('',#936);
#447=VERTEX_POINT('',#938);
#448=VERTEX_POINT('',#945);
#449=VERTEX_POINT('',#946);
#450=VERTEX_POINT('',#951);
#451=VERTEX_POINT('',#953);
#452=VERTEX_POINT('',#960);
#453=VERTEX_POINT('',#962);
#454=VERTEX_POINT('',#965);
#455=VERTEX_POINT('',#967);
#456=VERTEX_POINT('',#973);
#457=VERTEX_POINT('',#983);
#458=VERTEX_POINT('',#993);
#459=VERTEX_POINT('',#1003);
#460=VERTEX_POINT('',#1017);
#461=VERTEX_POINT('',#1027);
#462=VERTEX_POINT('',#1037);
#463=VERTEX_POINT('',#1047);
#464=VERTEX_POINT('',#1062);
#465=VERTEX_POINT('',#1076);
#466=VERTEX_POINT('',#1086);
#467=VERTEX_POINT('',#1096);
#468=VERTEX_POINT('',#1106);
#469=VERTEX_POINT('',#1120);
#470=VERTEX_POINT('',#1130);
#471=VERTEX_POINT('',#1140);
#472=LINE('',#791,#502);
#473=LINE('',#799,#503);
#474=LINE('',#801,#504);
#475=LINE('',#805,#505);
#476=LINE('',#809,#506);
#477=LINE('',#811,#507);
#478=LINE('',#813,#508);
#479=LINE('',#815,#509);
#480=LINE('',#823,#510);
#481=LINE('',#830,#511);
#482=LINE('',#838,#512);
#483=LINE('',#845,#513);
#484=LINE('',#853,#514);
#485=LINE('',#860,#515);
#486=LINE('',#868,#516);
#487=LINE('',#875,#517);
#488=LINE('',#883,#518);
#489=LINE('',#885,#519);
#490=LINE('',#889,#520);
#491=LINE('',#893,#521);
#492=LINE('',#895,#522);
#493=LINE('',#897,#523);
#494=LINE('',#899,#524);
#495=LINE('',#907,#525);
#496=LINE('',#914,#526);
#497=LINE('',#922,#527);
#498=LINE('',#929,#528);
#499=LINE('',#937,#529);
#500=LINE('',#944,#530);
#501=LINE('',#952,#531);
#502=VECTOR('',#709,1.);
#503=VECTOR('',#710,1.);
#504=VECTOR('',#711,1.);
#505=VECTOR('',#716,1.);
#506=VECTOR('',#721,1.);
#507=VECTOR('',#722,1.);
#508=VECTOR('',#723,1.);
#509=VECTOR('',#726,1.);
#510=VECTOR('',#727,1.);
#511=VECTOR('',#730,1.);
#512=VECTOR('',#731,1.);
#513=VECTOR('',#734,1.);
#514=VECTOR('',#735,1.);
#515=VECTOR('',#738,1.);
#516=VECTOR('',#739,1.);
#517=VECTOR('',#742,1.);
#518=VECTOR('',#743,1.);
#519=VECTOR('',#744,1.);
#520=VECTOR('',#749,1.);
#521=VECTOR('',#754,1.);
#522=VECTOR('',#755,1.);
#523=VECTOR('',#756,1.);
#524=VECTOR('',#759,1.);
#525=VECTOR('',#760,1.);
#526=VECTOR('',#763,1.);
#527=VECTOR('',#764,1.);
#528=VECTOR('',#767,1.);
#529=VECTOR('',#768,1.);
#530=VECTOR('',#771,1.);
#531=VECTOR('',#772,1.);
#532=EDGE_LOOP('',(#104,#105,#106,#107));
#533=EDGE_LOOP('',(#108,#109,#110,#111));
#534=EDGE_LOOP('',(#112,#113,#114,#115));
#535=EDGE_LOOP('',(#116,#117,#118,#119));
#536=EDGE_LOOP('',(#120,#121,#122,#123));
#537=EDGE_LOOP('',(#124,#125,#126,#127));
#538=EDGE_LOOP('',(#128,#129,#130,#131));
#539=EDGE_LOOP('',(#132,#133,#134,#135));
#540=EDGE_LOOP('',(#136,#137,#138,#139));
#541=EDGE_LOOP('',(#140,#141,#142,#143));
#542=EDGE_LOOP('',(#144,#145,#146,#147));
#543=EDGE_LOOP('',(#148,#149,#150,#151));
#544=EDGE_LOOP('',(#152,#153,#154,#155));
#545=EDGE_LOOP('',(#156,#157,#158,#159));
#546=EDGE_LOOP('',(#160));
#547=EDGE_LOOP('',(#161));
#548=EDGE_LOOP('',(#162));
#549=EDGE_LOOP('',(#163));
#550=EDGE_LOOP('',(#164));
#551=EDGE_LOOP('',(#165,#166,#167,#168,#169,#170,#171,#172,#173,#174,#175,
#176,#177,#178,#179,#180,#181,#182,#183,#184,#185,#186,#187,#188,#189,#190,
#191,#192,#193,#194,#195,#196));
#552=EDGE_LOOP('',(#197));
#553=EDGE_LOOP('',(#198));
#554=EDGE_LOOP('',(#199,#200,#201,#202,#203,#204,#205,#206,#207,#208,#209,
#210,#211,#212,#213,#214,#215,#216,#217,#218,#219,#220,#221,#222,#223,#224,
#225,#226,#227,#228,#229,#230));
#555=EDGE_LOOP('',(#231));
#556=EDGE_LOOP('',(#232,#233,#234,#235));
#557=EDGE_LOOP('',(#236,#237,#238,#239));
#558=EDGE_LOOP('',(#240,#241,#242,#243));
#559=EDGE_LOOP('',(#244,#245,#246,#247));
#560=EDGE_LOOP('',(#248,#249,#250,#251));
#561=EDGE_LOOP('',(#252,#253,#254,#255));
#562=EDGE_LOOP('',(#256,#257,#258,#259));
#563=EDGE_LOOP('',(#260,#261,#262,#263));
#564=EDGE_LOOP('',(#264,#265,#266,#267));
#565=EDGE_LOOP('',(#268,#269,#270,#271));
#566=EDGE_LOOP('',(#272,#273,#274,#275));
#567=EDGE_LOOP('',(#276,#277,#278,#279));
#568=EDGE_LOOP('',(#280,#281,#282,#283));
#569=EDGE_LOOP('',(#284,#285,#286,#287));
#570=EDGE_LOOP('',(#288,#289,#290,#291));
#571=EDGE_LOOP('',(#292,#293,#294,#295));
#572=EDGE_LOOP('',(#296,#297,#298,#299));
#573=EDGE_LOOP('',(#300,#301,#302,#303));
#574=FACE_BOUND('',#532,.T.);
#575=FACE_BOUND('',#533,.T.);
#576=FACE_BOUND('',#534,.T.);
#577=FACE_BOUND('',#535,.T.);
#578=FACE_BOUND('',#536,.T.);
#579=FACE_BOUND('',#537,.T.);
#580=FACE_BOUND('',#538,.T.);
#581=FACE_BOUND('',#539,.T.);
#582=FACE_BOUND('',#540,.T.);
#583=FACE_BOUND('',#541,.T.);
#584=FACE_BOUND('',#542,.T.);
#585=FACE_BOUND('',#543,.T.);
#586=FACE_BOUND('',#544,.T.);
#587=FACE_BOUND('',#545,.T.);
#588=FACE_BOUND('',#546,.T.);
#589=FACE_BOUND('',#547,.T.);
#590=FACE_BOUND('',#548,.T.);
#591=FACE_BOUND('',#549,.T.);
#592=FACE_BOUND('',#550,.T.);
#593=FACE_BOUND('',#551,.T.);
#594=FACE_BOUND('',#552,.T.);
#595=FACE_BOUND('',#553,.T.);
#596=FACE_BOUND('',#554,.T.);
#597=FACE_BOUND('',#555,.T.);
#598=FACE_BOUND('',#556,.T.);
#599=FACE_BOUND('',#557,.T.);
#600=FACE_BOUND('',#558,.T.);
#601=FACE_BOUND('',#559,.T.);
#602=FACE_BOUND('',#560,.T.);
#603=FACE_BOUND('',#561,.T.);
#604=FACE_BOUND('',#562,.T.);
#605=FACE_BOUND('',#563,.T.);
#606=FACE_BOUND('',#564,.T.);
#607=FACE_BOUND('',#565,.T.);
#608=FACE_BOUND('',#566,.T.);
#609=FACE_BOUND('',#567,.T.);
#610=FACE_BOUND('',#568,.T.);
#611=FACE_BOUND('',#569,.T.);
#612=FACE_BOUND('',#570,.T.);
#613=FACE_BOUND('',#571,.T.);
#614=FACE_BOUND('',#572,.T.);
#615=FACE_BOUND('',#573,.T.);
#616=PLANE('',#679);
#617=PLANE('',#683);
#618=PLANE('',#684);
#619=PLANE('',#685);
#620=PLANE('',#686);
#621=PLANE('',#687);
#622=PLANE('',#688);
#623=PLANE('',#692);
#624=PLANE('',#693);
#625=PLANE('',#694);
#626=PLANE('',#695);
#627=PLANE('',#696);
#628=PLANE('',#703);
#629=PLANE('',#704);
#630=ADVANCED_FACE('',(#574),#616,.T.);
#631=ADVANCED_FACE('',(#575),#38,.T.);
#632=ADVANCED_FACE('',(#576),#617,.F.);
#633=ADVANCED_FACE('',(#577),#618,.F.);
#634=ADVANCED_FACE('',(#578),#619,.F.);
#635=ADVANCED_FACE('',(#579),#620,.F.);
#636=ADVANCED_FACE('',(#580),#621,.T.);
#637=ADVANCED_FACE('',(#581),#622,.T.);
#638=ADVANCED_FACE('',(#582),#39,.T.);
#639=ADVANCED_FACE('',(#583),#623,.F.);
#640=ADVANCED_FACE('',(#584),#624,.T.);
#641=ADVANCED_FACE('',(#585),#625,.T.);
#642=ADVANCED_FACE('',(#586),#626,.T.);
#643=ADVANCED_FACE('',(#587),#627,.T.);
#644=ADVANCED_FACE('',(#588,#589),#40,.F.);
#645=ADVANCED_FACE('',(#590,#591),#41,.F.);
#646=ADVANCED_FACE('',(#592,#593,#594),#628,.T.);
#647=ADVANCED_FACE('',(#595,#596,#597),#629,.F.);
#648=ADVANCED_FACE('',(#598),#12,.F.);
#649=ADVANCED_FACE('',(#599),#13,.F.);
#650=ADVANCED_FACE('',(#600),#14,.F.);
#651=ADVANCED_FACE('',(#601),#15,.F.);
#652=ADVANCED_FACE('',(#602),#16,.T.);
#653=ADVANCED_FACE('',(#603),#17,.F.);
#654=ADVANCED_FACE('',(#604),#18,.F.);
#655=ADVANCED_FACE('',(#605),#19,.F.);
#656=ADVANCED_FACE('',(#606),#20,.F.);
#657=ADVANCED_FACE('',(#607),#21,.T.);
#658=ADVANCED_FACE('',(#608),#22,.T.);
#659=ADVANCED_FACE('',(#609),#23,.T.);
#660=ADVANCED_FACE('',(#610),#24,.T.);
#661=ADVANCED_FACE('',(#611),#25,.T.);
#662=ADVANCED_FACE('',(#612),#26,.T.);
#663=ADVANCED_FACE('',(#613),#27,.T.);
#664=ADVANCED_FACE('',(#614),#28,.T.);
#665=ADVANCED_FACE('',(#615),#29,.T.);
#666=CLOSED_SHELL('',(#630,#631,#632,#633,#634,#635,#636,#637,#638,#639,
#640,#641,#642,#643,#644,#645,#646,#647,#648,#649,#650,#651,#652,#653,#654,
#655,#656,#657,#658,#659,#660,#661,#662,#663,#664,#665));
#667=STYLED_ITEM('',(#668),#675);
#668=PRESENTATION_STYLE_ASSIGNMENT((#669));
#669=SURFACE_STYLE_USAGE(.BOTH.,#670);
#670=SURFACE_SIDE_STYLE('',(#671));
#671=SURFACE_STYLE_FILL_AREA(#672);
#672=FILL_AREA_STYLE('',(#673));
#673=FILL_AREA_STYLE_COLOUR('',#674);
#674=COLOUR_RGB('',0.615686274509804,0.811764705882353,0.929411764705882);
#675=MANIFOLD_SOLID_BREP('Part 1',#666);
#676=SHAPE_DEFINITION_REPRESENTATION(#1328,#677);
#677=SHAPE_REPRESENTATION('Part 1',(#678),#1323);
#678=AXIS2_PLACEMENT_3D('',#789,#705,#706);
#679=AXIS2_PLACEMENT_3D('',#790,#707,#708);
#680=AXIS2_PLACEMENT_3D('',#802,#712,#713);
#681=AXIS2_PLACEMENT_3D('',#803,#714,#715);
#682=AXIS2_PLACEMENT_3D('',#807,#717,#718);
#683=AXIS2_PLACEMENT_3D('',#808,#719,#720);
#684=AXIS2_PLACEMENT_3D('',#814,#724,#725);
#685=AXIS2_PLACEMENT_3D('',#829,#728,#729);
#686=AXIS2_PLACEMENT_3D('',#844,#732,#733);
#687=AXIS2_PLACEMENT_3D('',#859,#736,#737);
#688=AXIS2_PLACEMENT_3D('',#874,#740,#741);
#689=AXIS2_PLACEMENT_3D('',#886,#745,#746);
#690=AXIS2_PLACEMENT_3D('',#887,#747,#748);
#691=AXIS2_PLACEMENT_3D('',#891,#750,#751);
#692=AXIS2_PLACEMENT_3D('',#892,#752,#753);
#693=AXIS2_PLACEMENT_3D('',#898,#757,#758);
#694=AXIS2_PLACEMENT_3D('',#913,#761,#762);
#695=AXIS2_PLACEMENT_3D('',#928,#765,#766);
#696=AXIS2_PLACEMENT_3D('',#943,#769,#770);
#697=AXIS2_PLACEMENT_3D('',#958,#773,#774);
#698=AXIS2_PLACEMENT_3D('',#959,#775,#776);
#699=AXIS2_PLACEMENT_3D('',#961,#777,#778);
#700=AXIS2_PLACEMENT_3D('',#963,#779,#780);
#701=AXIS2_PLACEMENT_3D('',#964,#781,#782);
#702=AXIS2_PLACEMENT_3D('',#966,#783,#784);
#703=AXIS2_PLACEMENT_3D('',#968,#785,#786);
#704=AXIS2_PLACEMENT_3D('',#1057,#787,#788);
#705=DIRECTION('',(0.,0.,1.));
#706=DIRECTION('',(1.,0.,0.));
#707=DIRECTION('',(-1.,0.,0.));
#708=DIRECTION('',(0.,0.,1.));
#709=DIRECTION('',(0.,1.,0.));
#710=DIRECTION('',(0.,1.,0.));
#711=DIRECTION('',(0.,0.,-1.));
#712=DIRECTION('',(0.,0.,-1.));
#713=DIRECTION('',(-1.,0.,0.));
#714=DIRECTION('',(0.,0.,1.));
#715=DIRECTION('',(1.,0.,0.));
#716=DIRECTION('',(0.,0.,-1.));
#717=DIRECTION('',(0.,0.,1.));
#718=DIRECTION('',(1.,0.,0.));
#719=DIRECTION('',(-1.,0.,0.));
#720=DIRECTION('',(0.,0.,1.));
#721=DIRECTION('',(0.,1.,0.));
#722=DIRECTION('',(0.,0.,-1.));
#723=DIRECTION('',(0.,1.,0.));
#724=DIRECTION('',(0.,-1.,0.));
#725=DIRECTION('',(0.,0.,-1.));
#726=DIRECTION('',(-1.,0.,0.));
#727=DIRECTION('',(-1.,0.,0.));
#728=DIRECTION('',(0.,1.,0.));
#729=DIRECTION('',(0.,0.,1.));
#730=DIRECTION('',(1.,0.,0.));
#731=DIRECTION('',(1.,0.,0.));
#732=DIRECTION('',(0.,-1.,0.));
#733=DIRECTION('',(0.,0.,-1.));
#734=DIRECTION('',(-1.,0.,0.));
#735=DIRECTION('',(-1.,0.,0.));
#736=DIRECTION('',(0.,-1.,0.));
#737=DIRECTION('',(0.,0.,-1.));
#738=DIRECTION('',(-1.,0.,0.));
#739=DIRECTION('',(-1.,0.,0.));
#740=DIRECTION('',(1.,0.,0.));
#741=DIRECTION('',(0.,0.,-1.));
#742=DIRECTION('',(0.,-1.,0.));
#743=DIRECTION('',(0.,-1.,0.));
#744=DIRECTION('',(0.,0.,-1.));
#745=DIRECTION('',(0.,0.,-1.));
#746=DIRECTION('',(-1.,0.,0.));
#747=DIRECTION('',(0.,0.,1.));
#748=DIRECTION('',(1.,0.,0.));
#749=DIRECTION('',(0.,0.,-1.));
#750=DIRECTION('',(0.,0.,1.));
#751=DIRECTION('',(1.,0.,0.));
#752=DIRECTION('',(1.,0.,0.));
#753=DIRECTION('',(0.,0.,-1.));
#754=DIRECTION('',(0.,-1.,0.));
#755=DIRECTION('',(0.,0.,-1.));
#756=DIRECTION('',(0.,-1.,0.));
#757=DIRECTION('',(0.,-1.,0.));
#758=DIRECTION('',(0.,0.,-1.));
#759=DIRECTION('',(-1.,0.,0.));
#760=DIRECTION('',(-1.,0.,0.));
#761=DIRECTION('',(0.,1.,0.));
#762=DIRECTION('',(0.,0.,1.));
#763=DIRECTION('',(1.,0.,0.));
#764=DIRECTION('',(1.,0.,0.));
#765=DIRECTION('',(0.,-1.,0.));
#766=DIRECTION('',(0.,0.,-1.));
#767=DIRECTION('',(-1.,0.,0.));
#768=DIRECTION('',(-1.,0.,0.));
#769=DIRECTION('',(0.,1.,0.));
#770=DIRECTION('',(0.,0.,1.));
#771=DIRECTION('',(1.,0.,0.));
#772=DIRECTION('',(1.,0.,0.));
#773=DIRECTION('',(0.,0.,-1.));
#774=DIRECTION('',(-1.,0.,0.));
#775=DIRECTION('',(0.,0.,1.));
#776=DIRECTION('',(1.,0.,0.));
#777=DIRECTION('',(0.,0.,1.));
#778=DIRECTION('',(1.,0.,0.));
#779=DIRECTION('',(0.,0.,-1.));
#780=DIRECTION('',(-1.,0.,0.));
#781=DIRECTION('',(0.,0.,1.));
#782=DIRECTION('',(1.,0.,0.));
#783=DIRECTION('',(0.,0.,1.));
#784=DIRECTION('',(1.,0.,0.));
#785=DIRECTION('',(0.,0.,1.));
#786=DIRECTION('',(1.,0.,0.));
#787=DIRECTION('',(0.,0.,1.));
#788=DIRECTION('',(1.,0.,0.));
#789=CARTESIAN_POINT('',(0.,0.,0.));
#790=CARTESIAN_POINT('',(-0.00195,-0.005625,0.003));
#791=CARTESIAN_POINT('',(-0.00195,-0.005625,0.003));
#792=CARTESIAN_POINT('',(-0.00195,-0.006375,0.003));
#793=CARTESIAN_POINT('',(-0.00195,-0.004875,0.003));
#794=CARTESIAN_POINT('',(-0.00195,-0.00487500000000001,0.003));
#795=CARTESIAN_POINT('',(-0.00195,-0.00487500000000001,0.002));
#796=CARTESIAN_POINT('',(-0.00195,-0.00487500000000001,0.001));
#797=CARTESIAN_POINT('',(-0.00195,-0.00487500000000001,0.));
#798=CARTESIAN_POINT('',(-0.00195,-0.004875,0.));
#799=CARTESIAN_POINT('',(-0.00195,-0.005625,0.));
#800=CARTESIAN_POINT('',(-0.00195,-0.006375,0.));
#801=CARTESIAN_POINT('',(-0.00195,-0.006375,0.003));
#802=CARTESIAN_POINT('',(0.,-0.006375,0.003));
#803=CARTESIAN_POINT('',(0.,-0.006375,0.));
#804=CARTESIAN_POINT('',(0.00195,-0.006375,0.));
#805=CARTESIAN_POINT('',(0.00195,-0.006375,0.003));
#806=CARTESIAN_POINT('',(0.00195,-0.006375,0.003));
#807=CARTESIAN_POINT('',(0.,-0.006375,0.003));
#808=CARTESIAN_POINT('',(0.00195,-0.005625,0.003));
#809=CARTESIAN_POINT('',(0.00195,-0.005625,0.));
#810=CARTESIAN_POINT('',(0.00195,-0.00483498007960224,-1.62630325872826E-19));
#811=CARTESIAN_POINT('',(0.00195,-0.00483498007960223,0.0015));
#812=CARTESIAN_POINT('',(0.00195,-0.00483498007960223,0.003));
#813=CARTESIAN_POINT('',(0.00195,-0.005625,0.003));
#814=CARTESIAN_POINT('',(0.000375,-0.001875,0.003));
#815=CARTESIAN_POINT('',(0.000375,-0.001875,0.003));
#816=CARTESIAN_POINT('',(0.0015,-0.001875,0.003));
#817=CARTESIAN_POINT('',(-0.0015,-0.001875,0.003));
#818=CARTESIAN_POINT('',(0.0015,-0.001875,0.003));
#819=CARTESIAN_POINT('',(0.0015,-0.001875,0.002));
#820=CARTESIAN_POINT('',(0.0015,-0.001875,0.001));
#821=CARTESIAN_POINT('',(0.0015,-0.001875,0.));
#822=CARTESIAN_POINT('',(0.0015,-0.001875,0.));
#823=CARTESIAN_POINT('',(0.000375,-0.001875,0.));
#824=CARTESIAN_POINT('',(-0.0015,-0.001875,0.));
#825=CARTESIAN_POINT('',(-0.0015,-0.001875,0.));
#826=CARTESIAN_POINT('',(-0.0015,-0.001875,0.001));
#827=CARTESIAN_POINT('',(-0.0015,-0.001875,0.002));
#828=CARTESIAN_POINT('',(-0.0015,-0.001875,0.003));
#829=CARTESIAN_POINT('',(0.000375,-0.000375,0.003));
#830=CARTESIAN_POINT('',(0.000375,-0.000375,0.));
#831=CARTESIAN_POINT('',(-0.0015,-0.000375,0.));
#832=CARTESIAN_POINT('',(0.0015,-0.000375,0.));
#833=CARTESIAN_POINT('',(0.0015,-0.000375,0.));
#834=CARTESIAN_POINT('',(0.0015,-0.000375,0.001));
#835=CARTESIAN_POINT('',(0.0015,-0.000375,0.002));
#836=CARTESIAN_POINT('',(0.0015,-0.000375,0.003));
#837=CARTESIAN_POINT('',(0.0015,-0.000375,0.003));
#838=CARTESIAN_POINT('',(0.000375,-0.000375,0.003));
#839=CARTESIAN_POINT('',(-0.0015,-0.000375,0.003));
#840=CARTESIAN_POINT('',(-0.0015,-0.000375,0.003));
#841=CARTESIAN_POINT('',(-0.0015,-0.000375,0.002));
#842=CARTESIAN_POINT('',(-0.0015,-0.000375,0.001));
#843=CARTESIAN_POINT('',(-0.0015,-0.000375,0.));
#844=CARTESIAN_POINT('',(0.000375,0.002625,0.003));
#845=CARTESIAN_POINT('',(0.000375,0.002625,0.003));
#846=CARTESIAN_POINT('',(0.0015,0.002625,0.003));
#847=CARTESIAN_POINT('',(-0.0015,0.002625,0.003));
#848=CARTESIAN_POINT('',(0.0015,0.002625,0.003));
#849=CARTESIAN_POINT('',(0.0015,0.002625,0.002));
#850=CARTESIAN_POINT('',(0.0015,0.002625,0.001));
#851=CARTESIAN_POINT('',(0.0015,0.002625,0.));
#852=CARTESIAN_POINT('',(0.0015,0.002625,0.));
#853=CARTESIAN_POINT('',(0.000375,0.002625,0.));
#854=CARTESIAN_POINT('',(-0.0015,0.002625,0.));
#855=CARTESIAN_POINT('',(-0.0015,0.002625,0.));
#856=CARTESIAN_POINT('',(-0.0015,0.002625,0.001));
#857=CARTESIAN_POINT('',(-0.0015,0.002625,0.002));
#858=CARTESIAN_POINT('',(-0.0015,0.002625,0.003));
#859=CARTESIAN_POINT('',(-0.00015,0.004125,0.003));
#860=CARTESIAN_POINT('',(-0.00015,0.004125,0.003));
#861=CARTESIAN_POINT('',(0.0012,0.004125,0.003));
#862=CARTESIAN_POINT('',(-0.0015,0.004125,0.003));
#863=CARTESIAN_POINT('',(-0.0015,0.004125,0.003));
#864=CARTESIAN_POINT('',(-0.0015,0.004125,0.002));
#865=CARTESIAN_POINT('',(-0.0015,0.004125,0.001));
#866=CARTESIAN_POINT('',(-0.0015,0.004125,0.));
#867=CARTESIAN_POINT('',(-0.0015,0.004125,0.));
#868=CARTESIAN_POINT('',(-0.00015,0.004125,0.));
#869=CARTESIAN_POINT('',(0.0012,0.004125,0.));
#870=CARTESIAN_POINT('',(0.0012,0.004125,0.));
#871=CARTESIAN_POINT('',(0.0012,0.004125,0.001));
#872=CARTESIAN_POINT('',(0.0012,0.004125,0.002));
#873=CARTESIAN_POINT('',(0.0012,0.004125,0.003));
#874=CARTESIAN_POINT('',(0.00195,0.005625,0.003));
#875=CARTESIAN_POINT('',(0.00195,0.005625,0.003));
#876=CARTESIAN_POINT('',(0.00195,0.006375,0.003));
#877=CARTESIAN_POINT('',(0.00195,0.004875,0.003));
#878=CARTESIAN_POINT('',(0.00195,0.004875,0.003));
#879=CARTESIAN_POINT('',(0.00195,0.004875,0.002));
#880=CARTESIAN_POINT('',(0.00195,0.004875,0.001));
#881=CARTESIAN_POINT('',(0.00195,0.004875,0.));
#882=CARTESIAN_POINT('',(0.00195,0.004875,0.));
#883=CARTESIAN_POINT('',(0.00195,0.005625,0.));
#884=CARTESIAN_POINT('',(0.00195,0.006375,0.));
#885=CARTESIAN_POINT('',(0.00195,0.006375,0.003));
#886=CARTESIAN_POINT('',(0.,0.006375,0.003));
#887=CARTESIAN_POINT('',(0.,0.006375,0.));
#888=CARTESIAN_POINT('',(-0.00195,0.006375,0.));
#889=CARTESIAN_POINT('',(-0.00195,0.006375,0.003));
#890=CARTESIAN_POINT('',(-0.00195,0.006375,0.003));
#891=CARTESIAN_POINT('',(0.,0.006375,0.003));
#892=CARTESIAN_POINT('',(-0.00195,0.005625,0.003));
#893=CARTESIAN_POINT('',(-0.00195,0.005625,0.));
#894=CARTESIAN_POINT('',(-0.00195,0.00483498007960224,-1.62630325872826E-19));
#895=CARTESIAN_POINT('',(-0.00195,0.00483498007960223,0.0015));
#896=CARTESIAN_POINT('',(-0.00195,0.00483498007960223,0.003));
#897=CARTESIAN_POINT('',(-0.00195,0.005625,0.003));
#898=CARTESIAN_POINT('',(-0.000375,0.001875,0.003));
#899=CARTESIAN_POINT('',(-0.000375,0.001875,0.003));
#900=CARTESIAN_POINT('',(0.0015,0.001875,0.003));
#901=CARTESIAN_POINT('',(-0.0015,0.001875,0.003));
#902=CARTESIAN_POINT('',(-0.0015,0.001875,0.003));
#903=CARTESIAN_POINT('',(-0.0015,0.001875,0.002));
#904=CARTESIAN_POINT('',(-0.0015,0.001875,0.001));
#905=CARTESIAN_POINT('',(-0.0015,0.001875,0.));
#906=CARTESIAN_POINT('',(-0.0015,0.001875,0.));
#907=CARTESIAN_POINT('',(-0.000375,0.001875,0.));
#908=CARTESIAN_POINT('',(0.0015,0.001875,0.));
#909=CARTESIAN_POINT('',(0.0015,0.001875,0.));
#910=CARTESIAN_POINT('',(0.0015,0.001875,0.001));
#911=CARTESIAN_POINT('',(0.0015,0.001875,0.002));
#912=CARTESIAN_POINT('',(0.0015,0.001875,0.003));
#913=CARTESIAN_POINT('',(-0.000375,0.000375,0.003));
#914=CARTESIAN_POINT('',(-0.000375,0.000375,0.));
#915=CARTESIAN_POINT('',(-0.0015,0.000375,0.));
#916=CARTESIAN_POINT('',(0.0015,0.000375,0.));
#917=CARTESIAN_POINT('',(-0.0015,0.000375,0.));
#918=CARTESIAN_POINT('',(-0.0015,0.000375,0.001));
#919=CARTESIAN_POINT('',(-0.0015,0.000375,0.002));
#920=CARTESIAN_POINT('',(-0.0015,0.000375,0.003));
#921=CARTESIAN_POINT('',(-0.0015,0.000375,0.003));
#922=CARTESIAN_POINT('',(-0.000375,0.000375,0.003));
#923=CARTESIAN_POINT('',(0.0015,0.000375,0.003));
#924=CARTESIAN_POINT('',(0.0015,0.000375,0.003));
#925=CARTESIAN_POINT('',(0.0015,0.000375,0.002));
#926=CARTESIAN_POINT('',(0.0015,0.000375,0.001));
#927=CARTESIAN_POINT('',(0.0015,0.000375,0.));
#928=CARTESIAN_POINT('',(-0.000375,-0.002625,0.003));
#929=CARTESIAN_POINT('',(-0.000375,-0.002625,0.003));
#930=CARTESIAN_POINT('',(0.0015,-0.002625,0.003));
#931=CARTESIAN_POINT('',(-0.0015,-0.002625,0.003));
#932=CARTESIAN_POINT('',(-0.0015,-0.002625,0.003));
#933=CARTESIAN_POINT('',(-0.0015,-0.002625,0.002));
#934=CARTESIAN_POINT('',(-0.0015,-0.002625,0.001));
#935=CARTESIAN_POINT('',(-0.0015,-0.002625,0.));
#936=CARTESIAN_POINT('',(-0.0015,-0.002625,0.));
#937=CARTESIAN_POINT('',(-0.000375,-0.002625,0.));
#938=CARTESIAN_POINT('',(0.0015,-0.002625,0.));
#939=CARTESIAN_POINT('',(0.0015,-0.002625,0.));
#940=CARTESIAN_POINT('',(0.0015,-0.002625,0.001));
#941=CARTESIAN_POINT('',(0.0015,-0.002625,0.002));
#942=CARTESIAN_POINT('',(0.0015,-0.002625,0.003));
#943=CARTESIAN_POINT('',(0.00015,-0.004125,0.003));
#944=CARTESIAN_POINT('',(0.00015,-0.004125,0.003));
#945=CARTESIAN_POINT('',(-0.0012,-0.004125,0.003));
#946=CARTESIAN_POINT('',(0.0015,-0.004125,0.003));
#947=CARTESIAN_POINT('',(0.0015,-0.004125,0.003));
#948=CARTESIAN_POINT('',(0.0015,-0.004125,0.002));
#949=CARTESIAN_POINT('',(0.0015,-0.004125,0.001));
#950=CARTESIAN_POINT('',(0.0015,-0.004125,0.));
#951=CARTESIAN_POINT('',(0.0015,-0.004125,0.));
#952=CARTESIAN_POINT('',(0.00015,-0.004125,0.));
#953=CARTESIAN_POINT('',(-0.0012,-0.004125,0.));
#954=CARTESIAN_POINT('',(-0.0012,-0.004125,0.));
#955=CARTESIAN_POINT('',(-0.0012,-0.004125,0.001));
#956=CARTESIAN_POINT('',(-0.0012,-0.004125,0.002));
#957=CARTESIAN_POINT('',(-0.0012,-0.004125,0.003));
#958=CARTESIAN_POINT('',(0.,-0.006375,0.003));
#959=CARTESIAN_POINT('',(0.,-0.006375,0.003));
#960=CARTESIAN_POINT('',(0.00115,-0.006375,0.003));
#961=CARTESIAN_POINT('',(0.,-0.006375,0.));
#962=CARTESIAN_POINT('',(0.00115,-0.006375,0.));
#963=CARTESIAN_POINT('',(0.,0.006375,0.003));
#964=CARTESIAN_POINT('',(0.,0.006375,0.003));
#965=CARTESIAN_POINT('',(0.00115,0.006375,0.003));
#966=CARTESIAN_POINT('',(0.,0.006375,0.));
#967=CARTESIAN_POINT('',(0.00115,0.006375,0.));
#968=CARTESIAN_POINT('',(0.00672414543265665,0.003840253208425,0.003));
#969=CARTESIAN_POINT('',(-0.00195,0.00483498007960224,0.003));
#970=CARTESIAN_POINT('',(-0.00265,0.00469832005306816,0.003));
#971=CARTESIAN_POINT('',(-0.003,0.00421166002653408,0.003));
#972=CARTESIAN_POINT('',(-0.003,0.00337500000000001,0.003));
#973=CARTESIAN_POINT('',(-0.003,0.003375,0.003));
#974=CARTESIAN_POINT('',(-0.003,0.003375,0.003));
#975=CARTESIAN_POINT('',(-0.003,0.002375,0.003));
#976=CARTESIAN_POINT('',(-0.0025,0.00187500000000001,0.003));
#977=CARTESIAN_POINT('',(-0.0015,0.00187500000000001,0.003));
#978=CARTESIAN_POINT('',(0.0015,0.001875,0.003));
#979=CARTESIAN_POINT('',(0.00170314942626027,0.001875,0.003));
#980=CARTESIAN_POINT('',(0.00214619261197039,0.00177507384171969,0.003));
#981=CARTESIAN_POINT('',(0.00225,0.00132930441288534,0.003));
#982=CARTESIAN_POINT('',(0.00225,0.001125,0.003));
#983=CARTESIAN_POINT('',(0.00225,0.001125,0.003));
#984=CARTESIAN_POINT('',(0.00225,0.001125,0.003));
#985=CARTESIAN_POINT('',(0.00225,0.000921850573739725,0.003));
#986=CARTESIAN_POINT('',(0.00215007384171969,0.000478807388029609,0.003));
#987=CARTESIAN_POINT('',(0.00170430441288534,0.000375,0.003));
#988=CARTESIAN_POINT('',(0.0015,0.000375,0.003));
#989=CARTESIAN_POINT('',(-0.0015,0.000375,0.003));
#990=CARTESIAN_POINT('',(-0.0025,0.000375,0.003));
#991=CARTESIAN_POINT('',(-0.003,-0.000124999999999998,0.003));
#992=CARTESIAN_POINT('',(-0.003,-0.00112499999999999,0.003));
#993=CARTESIAN_POINT('',(-0.003,-0.001125,0.003));
#994=CARTESIAN_POINT('',(-0.003,-0.00112500000000001,0.003));
#995=CARTESIAN_POINT('',(-0.003,-0.002125,0.003));
#996=CARTESIAN_POINT('',(-0.0025,-0.002625,0.003));
#997=CARTESIAN_POINT('',(-0.0015,-0.002625,0.003));
#998=CARTESIAN_POINT('',(0.0015,-0.002625,0.003));
#999=CARTESIAN_POINT('',(0.00170314942626028,-0.002625,0.003));
#1000=CARTESIAN_POINT('',(0.00214619261197039,-0.00272492615828032,0.003));
#1001=CARTESIAN_POINT('',(0.00225,-0.00317069558711466,0.003));
#1002=CARTESIAN_POINT('',(0.00225,-0.003375,0.003));
#1003=CARTESIAN_POINT('',(0.00225,-0.003375,0.003));
#1004=CARTESIAN_POINT('',(0.00225,-0.003375,0.003));
#1005=CARTESIAN_POINT('',(0.00225,-0.00357814942626027,0.003));
#1006=CARTESIAN_POINT('',(0.00215007384171969,-0.00402119261197039,0.003));
#1007=CARTESIAN_POINT('',(0.00170430441288534,-0.004125,0.003));
#1008=CARTESIAN_POINT('',(0.0015,-0.004125,0.003));
#1009=CARTESIAN_POINT('',(-0.0012,-0.004125,0.003));
#1010=CARTESIAN_POINT('',(-0.0017,-0.004125,0.003));
#1011=CARTESIAN_POINT('',(-0.00195,-0.004375,0.003));
#1012=CARTESIAN_POINT('',(-0.00195,-0.00487500000000001,0.003));
#1013=CARTESIAN_POINT('',(0.00195,-0.00483498007960223,0.003));
#1014=CARTESIAN_POINT('',(0.00265,-0.00469832005306816,0.003));
#1015=CARTESIAN_POINT('',(0.003,-0.00421166002653408,0.003));
#1016=CARTESIAN_POINT('',(0.003,-0.003375,0.003));
#1017=CARTESIAN_POINT('',(0.003,-0.003375,0.003));
#1018=CARTESIAN_POINT('',(0.003,-0.003375,0.003));
#1019=CARTESIAN_POINT('',(0.003,-0.002375,0.003));
#1020=CARTESIAN_POINT('',(0.0025,-0.00187499999999999,0.003));
#1021=CARTESIAN_POINT('',(0.0015,-0.00187499999999999,0.003));
#1022=CARTESIAN_POINT('',(-0.0015,-0.001875,0.003));
#1023=CARTESIAN_POINT('',(-0.00170314942626027,-0.001875,0.003));
#1024=CARTESIAN_POINT('',(-0.00214619261197039,-0.00177507384171969,0.003));
#1025=CARTESIAN_POINT('',(-0.00225,-0.00132930441288534,0.003));
#1026=CARTESIAN_POINT('',(-0.00225,-0.001125,0.003));
#1027=CARTESIAN_POINT('',(-0.00225,-0.001125,0.003));
#1028=CARTESIAN_POINT('',(-0.00225,-0.001125,0.003));
#1029=CARTESIAN_POINT('',(-0.00225,-0.000921850573739725,0.003));
#1030=CARTESIAN_POINT('',(-0.00215007384171969,-0.000478807388029609,0.003));
#1031=CARTESIAN_POINT('',(-0.00170430441288534,-0.000375,0.003));
#1032=CARTESIAN_POINT('',(-0.0015,-0.000375,0.003));
#1033=CARTESIAN_POINT('',(0.0015,-0.000374999999999999,0.003));
#1034=CARTESIAN_POINT('',(0.0025,-0.000374999999999999,0.003));
#1035=CARTESIAN_POINT('',(0.003,0.000125,0.003));
#1036=CARTESIAN_POINT('',(0.003,0.001125,0.003));
#1037=CARTESIAN_POINT('',(0.003,0.001125,0.003));
#1038=CARTESIAN_POINT('',(0.003,0.00112500000000001,0.003));
#1039=CARTESIAN_POINT('',(0.003,0.00212500000000001,0.003));
#1040=CARTESIAN_POINT('',(0.0025,0.00262500000000001,0.003));
#1041=CARTESIAN_POINT('',(0.0015,0.00262500000000001,0.003));
#1042=CARTESIAN_POINT('',(-0.0015,0.002625,0.003));
#1043=CARTESIAN_POINT('',(-0.00170314942626027,0.002625,0.003));
#1044=CARTESIAN_POINT('',(-0.00214619261197039,0.00272492615828031,0.003));
#1045=CARTESIAN_POINT('',(-0.00225,0.00317069558711466,0.003));
#1046=CARTESIAN_POINT('',(-0.00225,0.003375,0.003));
#1047=CARTESIAN_POINT('',(-0.00225,0.003375,0.003));
#1048=CARTESIAN_POINT('',(-0.00225,0.003375,0.003));
#1049=CARTESIAN_POINT('',(-0.00225,0.00357814942626027,0.003));
#1050=CARTESIAN_POINT('',(-0.00215007384171969,0.00402119261197039,0.003));
#1051=CARTESIAN_POINT('',(-0.00170430441288534,0.004125,0.003));
#1052=CARTESIAN_POINT('',(-0.0015,0.004125,0.003));
#1053=CARTESIAN_POINT('',(0.0012,0.00412500000000001,0.003));
#1054=CARTESIAN_POINT('',(0.0017,0.00412500000000001,0.003));
#1055=CARTESIAN_POINT('',(0.00195,0.00437500000000001,0.003));
#1056=CARTESIAN_POINT('',(0.00195,0.00487500000000001,0.003));
#1057=CARTESIAN_POINT('',(0.00672414543265665,0.003840253208425,0.));
#1058=CARTESIAN_POINT('',(-0.0015,0.00187500000000001,0.));
#1059=CARTESIAN_POINT('',(-0.0025,0.00187500000000001,0.));
#1060=CARTESIAN_POINT('',(-0.003,0.002375,0.));
#1061=CARTESIAN_POINT('',(-0.003,0.003375,0.));
#1062=CARTESIAN_POINT('',(-0.003,0.003375,0.));
#1063=CARTESIAN_POINT('',(-0.003,0.00337500000000001,0.));
#1064=CARTESIAN_POINT('',(-0.003,0.00421166002653409,0.));
#1065=CARTESIAN_POINT('',(-0.00265,0.00469832005306816,0.));
#1066=CARTESIAN_POINT('',(-0.00195,0.00483498007960224,0.));
#1067=CARTESIAN_POINT('',(0.00195,0.00487500000000001,0.));
#1068=CARTESIAN_POINT('',(0.00195,0.00437500000000001,0.));
#1069=CARTESIAN_POINT('',(0.0017,0.00412500000000001,0.));
#1070=CARTESIAN_POINT('',(0.0012,0.00412500000000001,0.));
#1071=CARTESIAN_POINT('',(-0.0015,0.004125,1.42936809849163E-19));
#1072=CARTESIAN_POINT('',(-0.00170314942626027,0.004125,1.42936809849163E-19));
#1073=CARTESIAN_POINT('',(-0.00214619261197039,0.00402507384171969,-1.30072496962738E-19));
#1074=CARTESIAN_POINT('',(-0.00225,0.00357930441288534,1.90582413132218E-19));
#1075=CARTESIAN_POINT('',(-0.00225,0.003375,1.90582413132218E-19));
#1076=CARTESIAN_POINT('',(-0.00225,0.003375,-2.43945488809238E-19));
#1077=CARTESIAN_POINT('',(-0.00225,0.003375,-2.43945488809238E-19));
#1078=CARTESIAN_POINT('',(-0.00225,0.00317185057373972,-2.43945488809238E-19));
#1079=CARTESIAN_POINT('',(-0.00215007384171968,0.00272880738802961,-1.09775469964157E-18));
#1080=CARTESIAN_POINT('',(-0.00170430441288534,0.002625,-3.25260651745652E-19));
#1081=CARTESIAN_POINT('',(-0.0015,0.002625,-3.25260651745652E-19));
#1082=CARTESIAN_POINT('',(0.0015,0.00262500000000001,0.));
#1083=CARTESIAN_POINT('',(0.0025,0.00262500000000001,0.));
#1084=CARTESIAN_POINT('',(0.003,0.00212500000000001,0.));
#1085=CARTESIAN_POINT('',(0.003,0.00112500000000001,0.));
#1086=CARTESIAN_POINT('',(0.003,0.001125,0.));
#1087=CARTESIAN_POINT('',(0.003,0.001125,0.));
#1088=CARTESIAN_POINT('',(0.003,0.000125,0.));
#1089=CARTESIAN_POINT('',(0.0025,-0.000374999999999999,0.));
#1090=CARTESIAN_POINT('',(0.0015,-0.000374999999999999,0.));
#1091=CARTESIAN_POINT('',(-0.0015,-0.000375,1.42936809849163E-19));
#1092=CARTESIAN_POINT('',(-0.00170314942626027,-0.000375,1.42936809849163E-19));
#1093=CARTESIAN_POINT('',(-0.00214619261197039,-0.000474926158280313,-1.65647880747419E-19));
#1094=CARTESIAN_POINT('',(-0.00225,-0.00092069558711466,1.90582413132218E-19));
#1095=CARTESIAN_POINT('',(-0.00225,-0.001125,1.90582413132218E-19));
#1096=CARTESIAN_POINT('',(-0.00225,-0.001125,1.42936809849163E-19));
#1097=CARTESIAN_POINT('',(-0.00225,-0.001125,1.42936809849163E-19));
#1098=CARTESIAN_POINT('',(-0.00225,-0.00132814942626027,1.42936809849163E-19));
#1099=CARTESIAN_POINT('',(-0.00215007384171969,-0.00177119261197039,-1.30072496962738E-19));
#1100=CARTESIAN_POINT('',(-0.00170430441288534,-0.001875,1.90582413132218E-19));
#1101=CARTESIAN_POINT('',(-0.0015,-0.001875,1.90582413132218E-19));
#1102=CARTESIAN_POINT('',(0.0015,-0.00187500000000001,0.));
#1103=CARTESIAN_POINT('',(0.0025,-0.00187500000000001,0.));
#1104=CARTESIAN_POINT('',(0.003,-0.00237500000000001,0.));
#1105=CARTESIAN_POINT('',(0.003,-0.003375,0.));
#1106=CARTESIAN_POINT('',(0.003,-0.003375,0.));
#1107=CARTESIAN_POINT('',(0.003,-0.003375,0.));
#1108=CARTESIAN_POINT('',(0.003,-0.00421166002653408,0.));
#1109=CARTESIAN_POINT('',(0.00265,-0.00469832005306816,0.));
#1110=CARTESIAN_POINT('',(0.00195,-0.00483498007960223,0.));
#1111=CARTESIAN_POINT('',(-0.00195,-0.00487500000000001,0.));
#1112=CARTESIAN_POINT('',(-0.00195,-0.004375,0.));
#1113=CARTESIAN_POINT('',(-0.0017,-0.004125,0.));
#1114=CARTESIAN_POINT('',(-0.0012,-0.004125,0.));
#1115=CARTESIAN_POINT('',(0.0015,-0.004125,1.42936809849163E-19));
#1116=CARTESIAN_POINT('',(0.00170314942626027,-0.004125,1.42936809849163E-19));
#1117=CARTESIAN_POINT('',(0.00214619261197039,-0.00402507384171969,-1.30072496962738E-19));
#1118=CARTESIAN_POINT('',(0.00225,-0.00357930441288534,1.90582413132218E-19));
#1119=CARTESIAN_POINT('',(0.00225,-0.003375,1.90582413132218E-19));
#1120=CARTESIAN_POINT('',(0.00225,-0.003375,1.42936809849163E-19));
#1121=CARTESIAN_POINT('',(0.00225,-0.003375,1.42936809849163E-19));
#1122=CARTESIAN_POINT('',(0.00225,-0.00317185057373973,1.42936809849163E-19));
#1123=CARTESIAN_POINT('',(0.00215007384171969,-0.00272880738802961,-1.30072496962738E-19));
#1124=CARTESIAN_POINT('',(0.00170430441288534,-0.002625,1.90582413132218E-19));
#1125=CARTESIAN_POINT('',(0.0015,-0.002625,1.90582413132218E-19));
#1126=CARTESIAN_POINT('',(-0.0015,-0.002625,0.));
#1127=CARTESIAN_POINT('',(-0.0025,-0.002625,0.));
#1128=CARTESIAN_POINT('',(-0.003,-0.002125,0.));
#1129=CARTESIAN_POINT('',(-0.003,-0.00112500000000001,0.));
#1130=CARTESIAN_POINT('',(-0.003,-0.001125,0.));
#1131=CARTESIAN_POINT('',(-0.003,-0.00112499999999999,0.));
#1132=CARTESIAN_POINT('',(-0.003,-0.000124999999999998,0.));
#1133=CARTESIAN_POINT('',(-0.0025,0.000375,0.));
#1134=CARTESIAN_POINT('',(-0.0015,0.000375,0.));
#1135=CARTESIAN_POINT('',(0.0015,0.000375,1.42936809849163E-19));
#1136=CARTESIAN_POINT('',(0.00170314942626027,0.000375,1.42936809849163E-19));
#1137=CARTESIAN_POINT('',(0.00214619261197039,0.000474926158280312,-1.65647880747419E-19));
#1138=CARTESIAN_POINT('',(0.00225,0.00092069558711466,1.90582413132218E-19));
#1139=CARTESIAN_POINT('',(0.00225,0.001125,1.90582413132218E-19));
#1140=CARTESIAN_POINT('',(0.00225,0.001125,1.42936809849163E-19));
#1141=CARTESIAN_POINT('',(0.00225,0.001125,1.42936809849163E-19));
#1142=CARTESIAN_POINT('',(0.00225,0.00132814942626027,1.42936809849163E-19));
#1143=CARTESIAN_POINT('',(0.00215007384171969,0.00177119261197039,-1.70730078430945E-19));
#1144=CARTESIAN_POINT('',(0.00170430441288534,0.001875,1.90582413132218E-19));
#1145=CARTESIAN_POINT('',(0.0015,0.001875,1.90582413132218E-19));
#1146=CARTESIAN_POINT('',(0.00225,0.00112500000000001,0.003));
#1147=CARTESIAN_POINT('',(0.00225,0.00112500000000001,-4.33680868994202E-19));
#1148=CARTESIAN_POINT('',(0.00225,0.000625000000000001,0.003));
#1149=CARTESIAN_POINT('',(0.00225,0.000625000000000001,-4.33680868994202E-19));
#1150=CARTESIAN_POINT('',(0.002,0.000375,0.003));
#1151=CARTESIAN_POINT('',(0.002,0.000375,-4.33680868994202E-19));
#1152=CARTESIAN_POINT('',(0.0015,0.000375,0.003));
#1153=CARTESIAN_POINT('',(0.0015,0.000375,-4.33680868994202E-19));
#1154=CARTESIAN_POINT('',(0.00225,0.001125,0.003));
#1155=CARTESIAN_POINT('',(0.00225,0.001125,0.002));
#1156=CARTESIAN_POINT('',(0.00225,0.001125,0.001));
#1157=CARTESIAN_POINT('',(0.00225,0.001125,0.));
#1158=CARTESIAN_POINT('',(0.0015,0.001875,0.003));
#1159=CARTESIAN_POINT('',(0.0015,0.001875,0.));
#1160=CARTESIAN_POINT('',(0.002,0.001875,0.003));
#1161=CARTESIAN_POINT('',(0.002,0.001875,4.33680868994202E-19));
#1162=CARTESIAN_POINT('',(0.00225,0.001625,0.003));
#1163=CARTESIAN_POINT('',(0.00225,0.001625,4.33680868994202E-19));
#1164=CARTESIAN_POINT('',(0.00225,0.001125,0.003));
#1165=CARTESIAN_POINT('',(0.00225,0.001125,0.));
#1166=CARTESIAN_POINT('',(-0.00225,0.003375,0.003));
#1167=CARTESIAN_POINT('',(-0.00225,0.003375,-4.33680868994202E-19));
#1168=CARTESIAN_POINT('',(-0.00225,0.00387500000000001,0.003));
#1169=CARTESIAN_POINT('',(-0.00225,0.00387500000000001,-8.67361737988404E-19));
#1170=CARTESIAN_POINT('',(-0.002,0.00412500000000001,0.003));
#1171=CARTESIAN_POINT('',(-0.002,0.00412500000000001,0.));
#1172=CARTESIAN_POINT('',(-0.0015,0.004125,0.003));
#1173=CARTESIAN_POINT('',(-0.0015,0.004125,-4.33680868994202E-19));
#1174=CARTESIAN_POINT('',(-0.00225,0.003375,0.003));
#1175=CARTESIAN_POINT('',(-0.00225,0.003375,0.002));
#1176=CARTESIAN_POINT('',(-0.00225,0.003375,0.001));
#1177=CARTESIAN_POINT('',(-0.00225,0.003375,-4.33680868994202E-19));
#1178=CARTESIAN_POINT('',(-0.00225,0.00337500000000001,-4.69671602268167E-19));
#1179=CARTESIAN_POINT('',(-0.00225,0.00337500000000001,0.003));
#1180=CARTESIAN_POINT('',(-0.00225,0.002875,-6.32451267283213E-19));
#1181=CARTESIAN_POINT('',(-0.00225,0.002875,0.003));
#1182=CARTESIAN_POINT('',(-0.002,0.002625,-4.51750905202293E-19));
#1183=CARTESIAN_POINT('',(-0.002,0.002625,0.003));
#1184=CARTESIAN_POINT('',(-0.0015,0.002625,-4.35323599558574E-19));
#1185=CARTESIAN_POINT('',(-0.0015,0.002625,0.003));
#1186=CARTESIAN_POINT('',(0.00195,0.00487500000000001,0.003));
#1187=CARTESIAN_POINT('',(0.00195,0.00487500000000001,0.));
#1188=CARTESIAN_POINT('',(0.00195,0.004375,0.003));
#1189=CARTESIAN_POINT('',(0.00195,0.004375,-8.67361737988404E-19));
#1190=CARTESIAN_POINT('',(0.0017,0.00412499999999999,0.003));
#1191=CARTESIAN_POINT('',(0.0017,0.00412499999999999,-1.30104260698261E-18));
#1192=CARTESIAN_POINT('',(0.0012,0.004125,0.003));
#1193=CARTESIAN_POINT('',(0.0012,0.004125,-4.33680868994202E-19));
#1194=CARTESIAN_POINT('',(-0.0015,-0.001875,0.003));
#1195=CARTESIAN_POINT('',(-0.0015,-0.001875,0.));
#1196=CARTESIAN_POINT('',(-0.002,-0.001875,0.003));
#1197=CARTESIAN_POINT('',(-0.002,-0.001875,0.));
#1198=CARTESIAN_POINT('',(-0.00225,-0.001625,0.003));
#1199=CARTESIAN_POINT('',(-0.00225,-0.001625,0.));
#1200=CARTESIAN_POINT('',(-0.00225,-0.00112499999999999,0.003));
#1201=CARTESIAN_POINT('',(-0.00225,-0.00112499999999999,0.));
#1202=CARTESIAN_POINT('',(-0.00225,-0.001125,0.));
#1203=CARTESIAN_POINT('',(-0.00225,-0.001125,0.001));
#1204=CARTESIAN_POINT('',(-0.00225,-0.001125,0.002));
#1205=CARTESIAN_POINT('',(-0.00225,-0.001125,0.003));
#1206=CARTESIAN_POINT('',(-0.00225,-0.001125,0.003));
#1207=CARTESIAN_POINT('',(-0.00225,-0.001125,-4.33680868994202E-19));
#1208=CARTESIAN_POINT('',(-0.00225,-0.000624999999999999,0.003));
#1209=CARTESIAN_POINT('',(-0.00225,-0.000624999999999999,-8.67361737988404E-19));
#1210=CARTESIAN_POINT('',(-0.002,-0.000374999999999999,0.003));
#1211=CARTESIAN_POINT('',(-0.002,-0.000374999999999999,-8.67361737988404E-19));
#1212=CARTESIAN_POINT('',(-0.0015,-0.000375,0.003));
#1213=CARTESIAN_POINT('',(-0.0015,-0.000375,-4.33680868994202E-19));
#1214=CARTESIAN_POINT('',(0.00225,-0.003375,0.003));
#1215=CARTESIAN_POINT('',(0.00225,-0.003375,-4.33680868994202E-19));
#1216=CARTESIAN_POINT('',(0.00225,-0.00387500000000001,0.003));
#1217=CARTESIAN_POINT('',(0.00225,-0.00387500000000001,-8.67361737988404E-19));
#1218=CARTESIAN_POINT('',(0.002,-0.00412500000000001,0.003));
#1219=CARTESIAN_POINT('',(0.002,-0.00412500000000001,0.));
#1220=CARTESIAN_POINT('',(0.0015,-0.004125,0.003));
#1221=CARTESIAN_POINT('',(0.0015,-0.004125,-4.33680868994202E-19));
#1222=CARTESIAN_POINT('',(0.00225,-0.003375,0.003));
#1223=CARTESIAN_POINT('',(0.00225,-0.003375,0.002));
#1224=CARTESIAN_POINT('',(0.00225,-0.003375,0.001));
#1225=CARTESIAN_POINT('',(0.00225,-0.003375,0.));
#1226=CARTESIAN_POINT('',(0.0015,-0.002625,0.003));
#1227=CARTESIAN_POINT('',(0.0015,-0.002625,-4.33680868994202E-19));
#1228=CARTESIAN_POINT('',(0.002,-0.002625,0.003));
#1229=CARTESIAN_POINT('',(0.002,-0.002625,-1.30104260698261E-18));
#1230=CARTESIAN_POINT('',(0.00225,-0.002875,0.003));
#1231=CARTESIAN_POINT('',(0.00225,-0.002875,-4.33680868994202E-19));
#1232=CARTESIAN_POINT('',(0.00225,-0.003375,0.003));
#1233=CARTESIAN_POINT('',(0.00225,-0.003375,-8.67361737988404E-19));
#1234=CARTESIAN_POINT('',(-0.00195,-0.00487500000000001,0.003));
#1235=CARTESIAN_POINT('',(-0.00195,-0.00487500000000001,0.));
#1236=CARTESIAN_POINT('',(-0.00195,-0.00437500000000001,0.003));
#1237=CARTESIAN_POINT('',(-0.00195,-0.00437500000000001,4.33680868994202E-19));
#1238=CARTESIAN_POINT('',(-0.0017,-0.00412499999999999,0.003));
#1239=CARTESIAN_POINT('',(-0.0017,-0.00412499999999999,4.33680868994202E-19));
#1240=CARTESIAN_POINT('',(-0.0012,-0.004125,0.003));
#1241=CARTESIAN_POINT('',(-0.0012,-0.004125,4.33680868994202E-19));
#1242=CARTESIAN_POINT('',(0.003,0.001125,0.003));
#1243=CARTESIAN_POINT('',(0.003,0.001125,-4.33680868994202E-19));
#1244=CARTESIAN_POINT('',(0.003,0.000124999999999998,0.003));
#1245=CARTESIAN_POINT('',(0.003,0.000124999999999998,-1.30104260698261E-18));
#1246=CARTESIAN_POINT('',(0.0025,-0.000375,0.003));
#1247=CARTESIAN_POINT('',(0.0025,-0.000375,-8.67361737988404E-19));
#1248=CARTESIAN_POINT('',(0.0015,-0.000375,0.003));
#1249=CARTESIAN_POINT('',(0.0015,-0.000375,-8.67361737988404E-19));
#1250=CARTESIAN_POINT('',(0.003,0.001125,-4.33680868994202E-19));
#1251=CARTESIAN_POINT('',(0.003,0.001125,0.001));
#1252=CARTESIAN_POINT('',(0.003,0.001125,0.002));
#1253=CARTESIAN_POINT('',(0.003,0.001125,0.003));
#1254=CARTESIAN_POINT('',(0.0015,0.002625,0.003));
#1255=CARTESIAN_POINT('',(0.0015,0.002625,-4.33680868994202E-19));
#1256=CARTESIAN_POINT('',(0.0025,0.002625,0.003));
#1257=CARTESIAN_POINT('',(0.0025,0.002625,-4.33680868994202E-19));
#1258=CARTESIAN_POINT('',(0.003,0.002125,0.003));
#1259=CARTESIAN_POINT('',(0.003,0.002125,-1.30104260698261E-18));
#1260=CARTESIAN_POINT('',(0.003,0.001125,0.003));
#1261=CARTESIAN_POINT('',(0.003,0.001125,-4.33680868994202E-19));
#1262=CARTESIAN_POINT('',(-0.003,0.003375,0.003));
#1263=CARTESIAN_POINT('',(-0.003,0.003375,-4.33680868994202E-19));
#1264=CARTESIAN_POINT('',(-0.003,0.00421166002653408,0.003));
#1265=CARTESIAN_POINT('',(-0.003,0.00421166002653408,-8.67361737988404E-19));
#1266=CARTESIAN_POINT('',(-0.00265,0.00469832005306815,0.003));
#1267=CARTESIAN_POINT('',(-0.00265,0.00469832005306815,-8.67361737988404E-19));
#1268=CARTESIAN_POINT('',(-0.00195,0.00483498007960223,0.003));
#1269=CARTESIAN_POINT('',(-0.00195,0.00483498007960223,-4.33680868994202E-19));
#1270=CARTESIAN_POINT('',(-0.003,0.003375,-2.16840434497101E-19));
#1271=CARTESIAN_POINT('',(-0.003,0.003375,0.001));
#1272=CARTESIAN_POINT('',(-0.003,0.003375,0.002));
#1273=CARTESIAN_POINT('',(-0.003,0.003375,0.003));
#1274=CARTESIAN_POINT('',(-0.003,0.003375,-3.59907332739671E-20));
#1275=CARTESIAN_POINT('',(-0.003,0.003375,0.003));
#1276=CARTESIAN_POINT('',(-0.003,0.002375,-1.9877039828901E-19));
#1277=CARTESIAN_POINT('',(-0.003,0.002375,0.003));
#1278=CARTESIAN_POINT('',(-0.0025,0.001875,-1.80700362080916E-20));
#1279=CARTESIAN_POINT('',(-0.0025,0.001875,0.003));
#1280=CARTESIAN_POINT('',(-0.0015,0.001875,-1.64273056437196E-21));
#1281=CARTESIAN_POINT('',(-0.0015,0.001875,0.003));
#1282=CARTESIAN_POINT('',(0.003,-0.003375,0.003));
#1283=CARTESIAN_POINT('',(0.003,-0.003375,-4.33680868994202E-19));
#1284=CARTESIAN_POINT('',(0.003,-0.00421166002653408,0.003));
#1285=CARTESIAN_POINT('',(0.003,-0.00421166002653408,-4.33680868994202E-19));
#1286=CARTESIAN_POINT('',(0.00265,-0.00469832005306815,0.003));
#1287=CARTESIAN_POINT('',(0.00265,-0.00469832005306815,-1.30104260698261E-18));
#1288=CARTESIAN_POINT('',(0.00195,-0.00483498007960223,0.003));
#1289=CARTESIAN_POINT('',(0.00195,-0.00483498007960223,-4.33680868994202E-19));
#1290=CARTESIAN_POINT('',(0.003,-0.003375,-2.16840434497101E-19));
#1291=CARTESIAN_POINT('',(0.003,-0.003375,0.001));
#1292=CARTESIAN_POINT('',(0.003,-0.003375,0.002));
#1293=CARTESIAN_POINT('',(0.003,-0.003375,0.003));
#1294=CARTESIAN_POINT('',(0.0015,-0.001875,0.003));
#1295=CARTESIAN_POINT('',(0.0015,-0.001875,-4.33680868994202E-19));
#1296=CARTESIAN_POINT('',(0.0025,-0.001875,0.003));
#1297=CARTESIAN_POINT('',(0.0025,-0.001875,-8.67361737988404E-19));
#1298=CARTESIAN_POINT('',(0.00300000000000001,-0.00237499999999999,0.003));
#1299=CARTESIAN_POINT('',(0.00300000000000001,-0.00237499999999999,-4.33680868994202E-19));
#1300=CARTESIAN_POINT('',(0.003,-0.003375,0.003));
#1301=CARTESIAN_POINT('',(0.003,-0.003375,0.));
#1302=CARTESIAN_POINT('',(-0.0015,-0.002625,0.003));
#1303=CARTESIAN_POINT('',(-0.0015,-0.002625,-4.33680868994202E-19));
#1304=CARTESIAN_POINT('',(-0.0025,-0.002625,0.003));
#1305=CARTESIAN_POINT('',(-0.0025,-0.002625,0.));
#1306=CARTESIAN_POINT('',(-0.003,-0.002125,0.003));
#1307=CARTESIAN_POINT('',(-0.003,-0.002125,0.));
#1308=CARTESIAN_POINT('',(-0.003,-0.001125,0.003));
#1309=CARTESIAN_POINT('',(-0.003,-0.001125,4.33680868994202E-19));
#1310=CARTESIAN_POINT('',(-0.003,-0.001125,0.003));
#1311=CARTESIAN_POINT('',(-0.003,-0.001125,0.002));
#1312=CARTESIAN_POINT('',(-0.003,-0.001125,0.001));
#1313=CARTESIAN_POINT('',(-0.003,-0.001125,-4.33680868994202E-19));
#1314=CARTESIAN_POINT('',(-0.003,-0.001125,0.003));
#1315=CARTESIAN_POINT('',(-0.003,-0.001125,-4.33680868994202E-19));
#1316=CARTESIAN_POINT('',(-0.003,-0.000124999999999998,0.003));
#1317=CARTESIAN_POINT('',(-0.003,-0.000124999999999998,-4.33680868994202E-19));
#1318=CARTESIAN_POINT('',(-0.0025,0.000375000000000001,0.003));
#1319=CARTESIAN_POINT('',(-0.0025,0.000375000000000001,0.));
#1320=CARTESIAN_POINT('',(-0.0015,0.000375,0.003));
#1321=CARTESIAN_POINT('',(-0.0015,0.000375,-4.33680868994202E-19));
#1322=MECHANICAL_DESIGN_GEOMETRIC_PRESENTATION_REPRESENTATION('',(#667),
#1323);
#1323=(
GEOMETRIC_REPRESENTATION_CONTEXT(3)
GLOBAL_UNCERTAINTY_ASSIGNED_CONTEXT((#1324))
GLOBAL_UNIT_ASSIGNED_CONTEXT((#1327,#1326,#1325))
REPRESENTATION_CONTEXT('Part 1','TOP_LEVEL_ASSEMBLY_PART')
);
#1324=UNCERTAINTY_MEASURE_WITH_UNIT(LENGTH_MEASURE(4.E-5),#1327,
'DISTANCE_ACCURACY_VALUE','Maximum Tolerance applied to model');
#1325=(
NAMED_UNIT(*)
SI_UNIT($,.STERADIAN.)
SOLID_ANGLE_UNIT()
);
#1326=(
NAMED_UNIT(*)
PLANE_ANGLE_UNIT()
SI_UNIT($,.RADIAN.)
);
#1327=(
LENGTH_UNIT()
NAMED_UNIT(*)
SI_UNIT($,.METRE.)
);
#1328=PRODUCT_DEFINITION_SHAPE('','',#1329);
#1329=PRODUCT_DEFINITION('','',#1331,#1330);
#1330=PRODUCT_DEFINITION_CONTEXT('',#1337,'design');
#1331=PRODUCT_DEFINITION_FORMATION_WITH_SPECIFIED_SOURCE('','',#1333,
 .NOT_KNOWN.);
#1332=PRODUCT_RELATED_PRODUCT_CATEGORY('','',(#1333));
#1333=PRODUCT('Part 1','Part 1','Part 1',(#1335));
#1334=PRODUCT_CATEGORY('','');
#1335=PRODUCT_CONTEXT('',#1337,'mechanical');
#1336=APPLICATION_PROTOCOL_DEFINITION('international standard',
'ap242_managed_model_based_3d_engineering',2020,#1337);
#1337=APPLICATION_CONTEXT('managed model based 3d engineering');
ENDSEC;
END-ISO-10303-21;
