ISO-10303-21;
HEADER;
/* Generated by software containing ST-Developer
 * from STEP Tools, Inc. (www.steptools.com) 
 */
/* OPTION: using custom renumber hook */

FILE_DESCRIPTION(
/* description */ ('STEP AP242 Edition 2',
'CAx-IF Rec.Pracs.---Representation and Presentation of Product Manufa
cturing Information (PMI)---4.0---2014-10-13',
'CAx-IF Rec.Pracs.---3D Tessellated Geometry---0.4---2014-09-14','2;1',
'CAx-IF Rec.Pracs.---User Defined Attributes---1.5---2016-08-15'),
/* implementation_level */ '2;1');

FILE_NAME(
/* name */ 'CompleteShell - Part 19',
/* time_stamp */ '2026-09-23T14:59:39Z',
/* author */ (''),
/* organization */ (''),
/* preprocessor_version */ 'ST-DEVELOPER v20',
/* originating_system */ 'ONSHAPE BY PTC INC, 1.221',
/* authorisation */ '  ');

FILE_SCHEMA (('AP242_MANAGED_MODEL_BASED_3D_ENGINEERING_MIM_LF { 1 0 10303 442 3 1 4 }'));
ENDSEC;

DATA;
#10=SHAPE_REPRESENTATION_RELATIONSHIP('','',#242,#11);
#11=ADVANCED_BREP_SHAPE_REPRESENTATION('',(#240),#428);
#12=CIRCLE('',#246,0.0886693533585793);
#13=CIRCLE('',#247,0.0886693533585793);
#14=CIRCLE('',#249,0.0830685656586942);
#15=CIRCLE('',#250,0.0830685656586942);
#16=CIRCLE('',#252,0.00132308133037574);
#17=CIRCLE('',#253,0.00132308133037574);
#18=CIRCLE('',#255,0.000906259168886518);
#19=CIRCLE('',#256,0.000906259168886518);
#20=CIRCLE('',#258,0.00106836817754246);
#21=CIRCLE('',#259,0.00106836817754246);
#22=CIRCLE('',#261,0.000285684719084878);
#23=CIRCLE('',#262,0.000285684719084878);
#24=CIRCLE('',#264,0.00051858341812991);
#25=CIRCLE('',#265,0.00051858341812991);
#26=CIRCLE('',#267,0.00127459444798081);
#27=CIRCLE('',#268,0.00127459444798081);
#28=CIRCLE('',#270,0.00211560526396701);
#29=CIRCLE('',#271,0.00211560526396701);
#30=CIRCLE('',#273,0.00568434870118304);
#31=CIRCLE('',#274,0.00568434870118304);
#32=CYLINDRICAL_SURFACE('',#245,0.0886693533585793);
#33=CYLINDRICAL_SURFACE('',#248,0.0830685656586942);
#34=CYLINDRICAL_SURFACE('',#251,0.00132308133037574);
#35=CYLINDRICAL_SURFACE('',#254,0.000906259168886518);
#36=CYLINDRICAL_SURFACE('',#257,0.00106836817754246);
#37=CYLINDRICAL_SURFACE('',#260,0.000285684719084878);
#38=CYLINDRICAL_SURFACE('',#263,0.00051858341812991);
#39=CYLINDRICAL_SURFACE('',#266,0.00127459444798081);
#40=CYLINDRICAL_SURFACE('',#269,0.00211560526396701);
#41=CYLINDRICAL_SURFACE('',#272,0.00568434870118304);
#42=ORIENTED_EDGE('',*,*,#108,.T.);
#43=ORIENTED_EDGE('',*,*,#109,.F.);
#44=ORIENTED_EDGE('',*,*,#110,.F.);
#45=ORIENTED_EDGE('',*,*,#111,.T.);
#46=ORIENTED_EDGE('',*,*,#112,.T.);
#47=ORIENTED_EDGE('',*,*,#113,.F.);
#48=ORIENTED_EDGE('',*,*,#114,.F.);
#49=ORIENTED_EDGE('',*,*,#109,.T.);
#50=ORIENTED_EDGE('',*,*,#115,.T.);
#51=ORIENTED_EDGE('',*,*,#116,.F.);
#52=ORIENTED_EDGE('',*,*,#117,.F.);
#53=ORIENTED_EDGE('',*,*,#113,.T.);
#54=ORIENTED_EDGE('',*,*,#118,.T.);
#55=ORIENTED_EDGE('',*,*,#119,.F.);
#56=ORIENTED_EDGE('',*,*,#120,.F.);
#57=ORIENTED_EDGE('',*,*,#116,.T.);
#58=ORIENTED_EDGE('',*,*,#121,.T.);
#59=ORIENTED_EDGE('',*,*,#122,.F.);
#60=ORIENTED_EDGE('',*,*,#123,.F.);
#61=ORIENTED_EDGE('',*,*,#119,.T.);
#62=ORIENTED_EDGE('',*,*,#124,.T.);
#63=ORIENTED_EDGE('',*,*,#125,.F.);
#64=ORIENTED_EDGE('',*,*,#126,.F.);
#65=ORIENTED_EDGE('',*,*,#122,.T.);
#66=ORIENTED_EDGE('',*,*,#127,.T.);
#67=ORIENTED_EDGE('',*,*,#128,.F.);
#68=ORIENTED_EDGE('',*,*,#129,.F.);
#69=ORIENTED_EDGE('',*,*,#125,.T.);
#70=ORIENTED_EDGE('',*,*,#130,.T.);
#71=ORIENTED_EDGE('',*,*,#131,.F.);
#72=ORIENTED_EDGE('',*,*,#132,.F.);
#73=ORIENTED_EDGE('',*,*,#128,.T.);
#74=ORIENTED_EDGE('',*,*,#133,.T.);
#75=ORIENTED_EDGE('',*,*,#134,.F.);
#76=ORIENTED_EDGE('',*,*,#135,.F.);
#77=ORIENTED_EDGE('',*,*,#131,.T.);
#78=ORIENTED_EDGE('',*,*,#136,.T.);
#79=ORIENTED_EDGE('',*,*,#137,.F.);
#80=ORIENTED_EDGE('',*,*,#138,.F.);
#81=ORIENTED_EDGE('',*,*,#134,.T.);
#82=ORIENTED_EDGE('',*,*,#139,.T.);
#83=ORIENTED_EDGE('',*,*,#111,.F.);
#84=ORIENTED_EDGE('',*,*,#140,.F.);
#85=ORIENTED_EDGE('',*,*,#137,.T.);
#86=ORIENTED_EDGE('',*,*,#110,.T.);
#87=ORIENTED_EDGE('',*,*,#114,.T.);
#88=ORIENTED_EDGE('',*,*,#117,.T.);
#89=ORIENTED_EDGE('',*,*,#120,.T.);
#90=ORIENTED_EDGE('',*,*,#123,.T.);
#91=ORIENTED_EDGE('',*,*,#126,.T.);
#92=ORIENTED_EDGE('',*,*,#129,.T.);
#93=ORIENTED_EDGE('',*,*,#132,.T.);
#94=ORIENTED_EDGE('',*,*,#135,.T.);
#95=ORIENTED_EDGE('',*,*,#138,.T.);
#96=ORIENTED_EDGE('',*,*,#140,.T.);
#97=ORIENTED_EDGE('',*,*,#108,.F.);
#98=ORIENTED_EDGE('',*,*,#139,.F.);
#99=ORIENTED_EDGE('',*,*,#136,.F.);
#100=ORIENTED_EDGE('',*,*,#133,.F.);
#101=ORIENTED_EDGE('',*,*,#130,.F.);
#102=ORIENTED_EDGE('',*,*,#127,.F.);
#103=ORIENTED_EDGE('',*,*,#124,.F.);
#104=ORIENTED_EDGE('',*,*,#121,.F.);
#105=ORIENTED_EDGE('',*,*,#118,.F.);
#106=ORIENTED_EDGE('',*,*,#115,.F.);
#107=ORIENTED_EDGE('',*,*,#112,.F.);
#108=EDGE_CURVE('',#141,#142,#163,.T.);
#109=EDGE_CURVE('',#143,#142,#164,.T.);
#110=EDGE_CURVE('',#144,#143,#165,.T.);
#111=EDGE_CURVE('',#144,#141,#166,.T.);
#112=EDGE_CURVE('',#142,#145,#12,.T.);
#113=EDGE_CURVE('',#146,#145,#167,.T.);
#114=EDGE_CURVE('',#143,#146,#13,.T.);
#115=EDGE_CURVE('',#145,#147,#14,.T.);
#116=EDGE_CURVE('',#148,#147,#168,.T.);
#117=EDGE_CURVE('',#146,#148,#15,.T.);
#118=EDGE_CURVE('',#147,#149,#16,.T.);
#119=EDGE_CURVE('',#150,#149,#169,.T.);
#120=EDGE_CURVE('',#148,#150,#17,.T.);
#121=EDGE_CURVE('',#149,#151,#18,.T.);
#122=EDGE_CURVE('',#152,#151,#170,.T.);
#123=EDGE_CURVE('',#150,#152,#19,.T.);
#124=EDGE_CURVE('',#151,#153,#20,.T.);
#125=EDGE_CURVE('',#154,#153,#171,.T.);
#126=EDGE_CURVE('',#152,#154,#21,.T.);
#127=EDGE_CURVE('',#153,#155,#22,.T.);
#128=EDGE_CURVE('',#156,#155,#172,.T.);
#129=EDGE_CURVE('',#154,#156,#23,.T.);
#130=EDGE_CURVE('',#155,#157,#24,.T.);
#131=EDGE_CURVE('',#158,#157,#173,.T.);
#132=EDGE_CURVE('',#156,#158,#25,.T.);
#133=EDGE_CURVE('',#157,#159,#26,.T.);
#134=EDGE_CURVE('',#160,#159,#174,.T.);
#135=EDGE_CURVE('',#158,#160,#27,.T.);
#136=EDGE_CURVE('',#159,#161,#28,.T.);
#137=EDGE_CURVE('',#162,#161,#175,.T.);
#138=EDGE_CURVE('',#160,#162,#29,.T.);
#139=EDGE_CURVE('',#161,#141,#30,.T.);
#140=EDGE_CURVE('',#162,#144,#31,.T.);
#141=VERTEX_POINT('',#361);
#142=VERTEX_POINT('',#362);
#143=VERTEX_POINT('',#364);
#144=VERTEX_POINT('',#366);
#145=VERTEX_POINT('',#370);
#146=VERTEX_POINT('',#372);
#147=VERTEX_POINT('',#376);
#148=VERTEX_POINT('',#378);
#149=VERTEX_POINT('',#382);
#150=VERTEX_POINT('',#384);
#151=VERTEX_POINT('',#388);
#152=VERTEX_POINT('',#390);
#153=VERTEX_POINT('',#394);
#154=VERTEX_POINT('',#396);
#155=VERTEX_POINT('',#400);
#156=VERTEX_POINT('',#402);
#157=VERTEX_POINT('',#406);
#158=VERTEX_POINT('',#408);
#159=VERTEX_POINT('',#412);
#160=VERTEX_POINT('',#414);
#161=VERTEX_POINT('',#418);
#162=VERTEX_POINT('',#420);
#163=LINE('',#360,#176);
#164=LINE('',#363,#177);
#165=LINE('',#365,#178);
#166=LINE('',#367,#179);
#167=LINE('',#371,#180);
#168=LINE('',#377,#181);
#169=LINE('',#383,#182);
#170=LINE('',#389,#183);
#171=LINE('',#395,#184);
#172=LINE('',#401,#185);
#173=LINE('',#407,#186);
#174=LINE('',#413,#187);
#175=LINE('',#419,#188);
#176=VECTOR('',#281,1.);
#177=VECTOR('',#282,1.);
#178=VECTOR('',#283,1.);
#179=VECTOR('',#284,1.);
#180=VECTOR('',#289,1.);
#181=VECTOR('',#296,1.);
#182=VECTOR('',#303,1.);
#183=VECTOR('',#310,1.);
#184=VECTOR('',#317,1.);
#185=VECTOR('',#324,1.);
#186=VECTOR('',#331,1.);
#187=VECTOR('',#338,1.);
#188=VECTOR('',#345,1.);
#189=EDGE_LOOP('',(#42,#43,#44,#45));
#190=EDGE_LOOP('',(#46,#47,#48,#49));
#191=EDGE_LOOP('',(#50,#51,#52,#53));
#192=EDGE_LOOP('',(#54,#55,#56,#57));
#193=EDGE_LOOP('',(#58,#59,#60,#61));
#194=EDGE_LOOP('',(#62,#63,#64,#65));
#195=EDGE_LOOP('',(#66,#67,#68,#69));
#196=EDGE_LOOP('',(#70,#71,#72,#73));
#197=EDGE_LOOP('',(#74,#75,#76,#77));
#198=EDGE_LOOP('',(#78,#79,#80,#81));
#199=EDGE_LOOP('',(#82,#83,#84,#85));
#200=EDGE_LOOP('',(#86,#87,#88,#89,#90,#91,#92,#93,#94,#95,#96));
#201=EDGE_LOOP('',(#97,#98,#99,#100,#101,#102,#103,#104,#105,#106,#107));
#202=FACE_BOUND('',#189,.T.);
#203=FACE_BOUND('',#190,.T.);
#204=FACE_BOUND('',#191,.T.);
#205=FACE_BOUND('',#192,.T.);
#206=FACE_BOUND('',#193,.T.);
#207=FACE_BOUND('',#194,.T.);
#208=FACE_BOUND('',#195,.T.);
#209=FACE_BOUND('',#196,.T.);
#210=FACE_BOUND('',#197,.T.);
#211=FACE_BOUND('',#198,.T.);
#212=FACE_BOUND('',#199,.T.);
#213=FACE_BOUND('',#200,.T.);
#214=FACE_BOUND('',#201,.T.);
#215=PLANE('',#244);
#216=PLANE('',#275);
#217=PLANE('',#276);
#218=ADVANCED_FACE('',(#202),#215,.F.);
#219=ADVANCED_FACE('',(#203),#32,.T.);
#220=ADVANCED_FACE('',(#204),#33,.T.);
#221=ADVANCED_FACE('',(#205),#34,.T.);
#222=ADVANCED_FACE('',(#206),#35,.T.);
#223=ADVANCED_FACE('',(#207),#36,.T.);
#224=ADVANCED_FACE('',(#208),#37,.T.);
#225=ADVANCED_FACE('',(#209),#38,.F.);
#226=ADVANCED_FACE('',(#210),#39,.F.);
#227=ADVANCED_FACE('',(#211),#40,.F.);
#228=ADVANCED_FACE('',(#212),#41,.F.);
#229=ADVANCED_FACE('',(#213),#216,.T.);
#230=ADVANCED_FACE('',(#214),#217,.F.);
#231=CLOSED_SHELL('',(#218,#219,#220,#221,#222,#223,#224,#225,#226,#227,
#228,#229,#230));
#232=STYLED_ITEM('',(#233),#240);
#233=PRESENTATION_STYLE_ASSIGNMENT((#234));
#234=SURFACE_STYLE_USAGE(.BOTH.,#235);
#235=SURFACE_SIDE_STYLE('',(#236));
#236=SURFACE_STYLE_FILL_AREA(#237);
#237=FILL_AREA_STYLE('',(#238));
#238=FILL_AREA_STYLE_COLOUR('',#239);
#239=COLOUR_RGB('',0.917647058823529,0.917647058823529,0.917647058823529);
#240=MANIFOLD_SOLID_BREP('Part 19',#231);
#241=SHAPE_DEFINITION_REPRESENTATION(#433,#242);
#242=SHAPE_REPRESENTATION('Part 19',(#243),#428);
#243=AXIS2_PLACEMENT_3D('',#358,#277,#278);
#244=AXIS2_PLACEMENT_3D('',#359,#279,#280);
#245=AXIS2_PLACEMENT_3D('',#368,#285,#286);
#246=AXIS2_PLACEMENT_3D('',#369,#287,#288);
#247=AXIS2_PLACEMENT_3D('',#373,#290,#291);
#248=AXIS2_PLACEMENT_3D('',#374,#292,#293);
#249=AXIS2_PLACEMENT_3D('',#375,#294,#295);
#250=AXIS2_PLACEMENT_3D('',#379,#297,#298);
#251=AXIS2_PLACEMENT_3D('',#380,#299,#300);
#252=AXIS2_PLACEMENT_3D('',#381,#301,#302);
#253=AXIS2_PLACEMENT_3D('',#385,#304,#305);
#254=AXIS2_PLACEMENT_3D('',#386,#306,#307);
#255=AXIS2_PLACEMENT_3D('',#387,#308,#309);
#256=AXIS2_PLACEMENT_3D('',#391,#311,#312);
#257=AXIS2_PLACEMENT_3D('',#392,#313,#314);
#258=AXIS2_PLACEMENT_3D('',#393,#315,#316);
#259=AXIS2_PLACEMENT_3D('',#397,#318,#319);
#260=AXIS2_PLACEMENT_3D('',#398,#320,#321);
#261=AXIS2_PLACEMENT_3D('',#399,#322,#323);
#262=AXIS2_PLACEMENT_3D('',#403,#325,#326);
#263=AXIS2_PLACEMENT_3D('',#404,#327,#328);
#264=AXIS2_PLACEMENT_3D('',#405,#329,#330);
#265=AXIS2_PLACEMENT_3D('',#409,#332,#333);
#266=AXIS2_PLACEMENT_3D('',#410,#334,#335);
#267=AXIS2_PLACEMENT_3D('',#411,#336,#337);
#268=AXIS2_PLACEMENT_3D('',#415,#339,#340);
#269=AXIS2_PLACEMENT_3D('',#416,#341,#342);
#270=AXIS2_PLACEMENT_3D('',#417,#343,#344);
#271=AXIS2_PLACEMENT_3D('',#421,#346,#347);
#272=AXIS2_PLACEMENT_3D('',#422,#348,#349);
#273=AXIS2_PLACEMENT_3D('',#423,#350,#351);
#274=AXIS2_PLACEMENT_3D('',#424,#352,#353);
#275=AXIS2_PLACEMENT_3D('',#425,#354,#355);
#276=AXIS2_PLACEMENT_3D('',#426,#356,#357);
#277=DIRECTION('',(0.,0.,1.));
#278=DIRECTION('',(1.,0.,0.));
#279=DIRECTION('',(-1.,-9.08232186375291E-17,5.56131819963552E-33));
#280=DIRECTION('',(5.56131819963552E-33,-1.22464679914735E-16,-1.));
#281=DIRECTION('',(9.08232186375291E-17,-1.,1.22464679914735E-16));
#282=DIRECTION('',(-5.56131819963552E-33,1.22464679914735E-16,1.));
#283=DIRECTION('',(9.08232186375291E-17,-1.,1.22464679914735E-16));
#284=DIRECTION('',(-5.56131819963552E-33,1.22464679914735E-16,1.));
#285=DIRECTION('',(-5.56131819963552E-33,1.22464679914735E-16,1.));
#286=DIRECTION('',(-1.,-9.08232186375291E-17,5.56131819963552E-33));
#287=DIRECTION('',(5.56131819963552E-33,-1.22464679914735E-16,-1.));
#288=DIRECTION('',(1.,9.08232186375291E-17,-5.56131819963552E-33));
#289=DIRECTION('',(-5.56131819963552E-33,1.22464679914735E-16,1.));
#290=DIRECTION('',(5.56131819963552E-33,-1.22464679914735E-16,-1.));
#291=DIRECTION('',(1.,9.08232186375291E-17,-5.56131819963552E-33));
#292=DIRECTION('',(-5.56131819963552E-33,1.22464679914735E-16,1.));
#293=DIRECTION('',(-1.,-9.08232186375291E-17,5.56131819963552E-33));
#294=DIRECTION('',(5.56131819963552E-33,-1.22464679914735E-16,-1.));
#295=DIRECTION('',(1.,9.08232186375291E-17,-5.56131819963552E-33));
#296=DIRECTION('',(-5.56131819963552E-33,1.22464679914735E-16,1.));
#297=DIRECTION('',(5.56131819963552E-33,-1.22464679914735E-16,-1.));
#298=DIRECTION('',(1.,9.08232186375291E-17,-5.56131819963552E-33));
#299=DIRECTION('',(-5.56131819963552E-33,1.22464679914735E-16,1.));
#300=DIRECTION('',(-1.,-9.08232186375291E-17,5.56131819963552E-33));
#301=DIRECTION('',(5.56131819963552E-33,-1.22464679914735E-16,-1.));
#302=DIRECTION('',(1.,9.08232186375291E-17,-5.56131819963552E-33));
#303=DIRECTION('',(-5.56131819963552E-33,1.22464679914735E-16,1.));
#304=DIRECTION('',(5.56131819963552E-33,-1.22464679914735E-16,-1.));
#305=DIRECTION('',(1.,9.08232186375291E-17,-5.56131819963552E-33));
#306=DIRECTION('',(-5.56131819963552E-33,1.22464679914735E-16,1.));
#307=DIRECTION('',(-1.,-9.08232186375291E-17,5.56131819963552E-33));
#308=DIRECTION('',(5.56131819963552E-33,-1.22464679914735E-16,-1.));
#309=DIRECTION('',(1.,9.08232186375291E-17,-5.56131819963552E-33));
#310=DIRECTION('',(-5.56131819963552E-33,1.22464679914735E-16,1.));
#311=DIRECTION('',(5.56131819963552E-33,-1.22464679914735E-16,-1.));
#312=DIRECTION('',(1.,9.08232186375291E-17,-5.56131819963552E-33));
#313=DIRECTION('',(-5.56131819963552E-33,1.22464679914735E-16,1.));
#314=DIRECTION('',(-1.,-9.08232186375291E-17,5.56131819963552E-33));
#315=DIRECTION('',(5.56131819963552E-33,-1.22464679914735E-16,-1.));
#316=DIRECTION('',(1.,9.08232186375291E-17,-5.56131819963552E-33));
#317=DIRECTION('',(-5.56131819963552E-33,1.22464679914735E-16,1.));
#318=DIRECTION('',(5.56131819963552E-33,-1.22464679914735E-16,-1.));
#319=DIRECTION('',(1.,9.08232186375291E-17,-5.56131819963552E-33));
#320=DIRECTION('',(-5.56131819963552E-33,1.22464679914735E-16,1.));
#321=DIRECTION('',(-1.,-9.08232186375291E-17,5.56131819963552E-33));
#322=DIRECTION('',(5.56131819963552E-33,-1.22464679914735E-16,-1.));
#323=DIRECTION('',(1.,9.08232186375291E-17,-5.56131819963552E-33));
#324=DIRECTION('',(-5.56131819963552E-33,1.22464679914735E-16,1.));
#325=DIRECTION('',(5.56131819963552E-33,-1.22464679914735E-16,-1.));
#326=DIRECTION('',(1.,9.08232186375291E-17,-5.56131819963552E-33));
#327=DIRECTION('',(-5.56131819963552E-33,1.22464679914735E-16,1.));
#328=DIRECTION('',(-1.,-9.08232186375291E-17,5.56131819963552E-33));
#329=DIRECTION('',(-5.56131819963552E-33,1.22464679914735E-16,1.));
#330=DIRECTION('',(1.,9.08232186375291E-17,-5.56131819963552E-33));
#331=DIRECTION('',(-5.56131819963552E-33,1.22464679914735E-16,1.));
#332=DIRECTION('',(-5.56131819963552E-33,1.22464679914735E-16,1.));
#333=DIRECTION('',(1.,9.08232186375291E-17,-5.56131819963552E-33));
#334=DIRECTION('',(-5.56131819963552E-33,1.22464679914735E-16,1.));
#335=DIRECTION('',(-1.,-9.08232186375291E-17,5.56131819963552E-33));
#336=DIRECTION('',(-5.56131819963552E-33,1.22464679914735E-16,1.));
#337=DIRECTION('',(1.,9.08232186375291E-17,-5.56131819963552E-33));
#338=DIRECTION('',(-5.56131819963552E-33,1.22464679914735E-16,1.));
#339=DIRECTION('',(-5.56131819963552E-33,1.22464679914735E-16,1.));
#340=DIRECTION('',(1.,9.08232186375291E-17,-5.56131819963552E-33));
#341=DIRECTION('',(-5.56131819963552E-33,1.22464679914735E-16,1.));
#342=DIRECTION('',(-1.,-9.08232186375291E-17,5.56131819963552E-33));
#343=DIRECTION('',(-5.56131819963552E-33,1.22464679914735E-16,1.));
#344=DIRECTION('',(1.,9.08232186375291E-17,-5.56131819963552E-33));
#345=DIRECTION('',(-5.56131819963552E-33,1.22464679914735E-16,1.));
#346=DIRECTION('',(-5.56131819963552E-33,1.22464679914735E-16,1.));
#347=DIRECTION('',(1.,9.08232186375291E-17,-5.56131819963552E-33));
#348=DIRECTION('',(-5.56131819963552E-33,1.22464679914735E-16,1.));
#349=DIRECTION('',(-1.,-9.08232186375291E-17,5.56131819963552E-33));
#350=DIRECTION('',(-5.56131819963552E-33,1.22464679914735E-16,1.));
#351=DIRECTION('',(1.,9.08232186375291E-17,-5.56131819963552E-33));
#352=DIRECTION('',(-5.56131819963552E-33,1.22464679914735E-16,1.));
#353=DIRECTION('',(1.,9.08232186375291E-17,-5.56131819963552E-33));
#354=DIRECTION('',(5.56131819963552E-33,-1.22464679914735E-16,-1.));
#355=DIRECTION('',(1.,9.08232186375291E-17,-5.56131819963552E-33));
#356=DIRECTION('',(5.56131819963552E-33,-1.22464679914735E-16,-1.));
#357=DIRECTION('',(1.,9.08232186375291E-17,-5.56131819963552E-33));
#358=CARTESIAN_POINT('',(0.,0.,0.));
#359=CARTESIAN_POINT('',(-0.0480999999999982,-0.0100331831083255,-0.0237999946391486));
#360=CARTESIAN_POINT('',(-0.0480999999999982,-0.0100331831083255,-0.0229999946391486));
#361=CARTESIAN_POINT('',(-0.0480999999999982,-0.00871253629178916,-0.0229999946391486));
#362=CARTESIAN_POINT('',(-0.0480999999999982,-0.0113538299248618,-0.0229999946391486));
#363=CARTESIAN_POINT('',(-0.0480999999999982,-0.0113538299248618,-0.0237999946391486));
#364=CARTESIAN_POINT('',(-0.0480999999999982,-0.0113538299248618,-0.0237999946391486));
#365=CARTESIAN_POINT('',(-0.0480999999999982,-0.0100331831083255,-0.0237999946391486));
#366=CARTESIAN_POINT('',(-0.0480999999999982,-0.00871253629178916,-0.0237999946391486));
#367=CARTESIAN_POINT('',(-0.0480999999999982,-0.00871253629178916,-0.0237999946391486));
#368=CARTESIAN_POINT('',(0.0117762310715599,0.0540456439086024,-0.0237999946391486));
#369=CARTESIAN_POINT('',(0.0117762310715599,0.0540456439086024,-0.0229999946391486));
#370=CARTESIAN_POINT('',(-0.048472349376424,-0.0110109681999361,-0.0229999946391486));
#371=CARTESIAN_POINT('',(-0.048472349376424,-0.0110109681999361,-0.0237999946391486));
#372=CARTESIAN_POINT('',(-0.048472349376424,-0.0110109681999361,-0.0237999946391486));
#373=CARTESIAN_POINT('',(0.0117762310715599,0.0540456439086024,-0.0237999946391486));
#374=CARTESIAN_POINT('',(0.00797063764462818,0.049936351812794,-0.0237999946391486));
#375=CARTESIAN_POINT('',(0.00797063764462818,0.049936351812794,-0.0229999946391486));
#376=CARTESIAN_POINT('',(-0.0493832658718784,-0.0101545489294319,-0.0229999946391486));
#377=CARTESIAN_POINT('',(-0.0493832658718784,-0.0101545489294319,-0.0237999946391486));
#378=CARTESIAN_POINT('',(-0.0493832658718784,-0.0101545489294319,-0.0237999946391486));
#379=CARTESIAN_POINT('',(0.00797063764462818,0.049936351812794,-0.0237999946391486));
#380=CARTESIAN_POINT('',(-0.048469756912561,-0.00919744622437059,-0.0237999946391486));
#381=CARTESIAN_POINT('',(-0.048469756912561,-0.00919744622437059,-0.0229999946391486));
#382=CARTESIAN_POINT('',(-0.0496174918511718,-0.00985566253948366,-0.0229999946391486));
#383=CARTESIAN_POINT('',(-0.0496174918511718,-0.00985566253948366,-0.0237999946391486));
#384=CARTESIAN_POINT('',(-0.0496174918511718,-0.00985566253948366,-0.0237999946391486));
#385=CARTESIAN_POINT('',(-0.048469756912561,-0.00919744622437059,-0.0237999946391486));
#386=CARTESIAN_POINT('',(-0.048770710837523,-0.0101785674730396,-0.0237999946391486));
#387=CARTESIAN_POINT('',(-0.048770710837523,-0.0101785674730396,-0.0229999946391486));
#388=CARTESIAN_POINT('',(-0.0494546616646534,-0.00958399456140329,-0.0229999946391486));
#389=CARTESIAN_POINT('',(-0.0494546616646534,-0.00958399456140329,-0.0237999946391486));
#390=CARTESIAN_POINT('',(-0.0494546616646534,-0.00958399456140329,-0.0237999946391486));
#391=CARTESIAN_POINT('',(-0.048770710837523,-0.0101785674730396,-0.0237999946391486));
#392=CARTESIAN_POINT('',(-0.0486483676995277,-0.0102849229490346,-0.0237999946391486));
#393=CARTESIAN_POINT('',(-0.0486483676995277,-0.0102849229490346,-0.0229999946391486));
#394=CARTESIAN_POINT('',(-0.0492133313070967,-0.00937815578768158,-0.0229999946391486));
#395=CARTESIAN_POINT('',(-0.0492133313070967,-0.00937815578768158,-0.0237999946391486));
#396=CARTESIAN_POINT('',(-0.0492133313070967,-0.00937815578768158,-0.0237999946391486));
#397=CARTESIAN_POINT('',(-0.0486483676995277,-0.0102849229490346,-0.0237999946391486));
#398=CARTESIAN_POINT('',(-0.0490622584158273,-0.00962062793091072,-0.0237999946391486));
#399=CARTESIAN_POINT('',(-0.0490622584158273,-0.00962062793091072,-0.0229999946391486));
#400=CARTESIAN_POINT('',(-0.0490472000267779,-0.00933534035032257,-0.0229999946391486));
#401=CARTESIAN_POINT('',(-0.0490472000267779,-0.00933534035032257,-0.0237999946391486));
#402=CARTESIAN_POINT('',(-0.0490472000267779,-0.00933534035032257,-0.0237999946391486));
#403=CARTESIAN_POINT('',(-0.0490622584158273,-0.00962062793091072,-0.0237999946391486));
#404=CARTESIAN_POINT('',(-0.0490198655900962,-0.00881747782983031,-0.0237999946391486));
#405=CARTESIAN_POINT('',(-0.0490198655900962,-0.00881747782983031,-0.0229999946391486));
#406=CARTESIAN_POINT('',(-0.0488066784474697,-0.00929021454701841,-0.0229999946391486));
#407=CARTESIAN_POINT('',(-0.0488066784474697,-0.00929021454701841,-0.0237999946391486));
#408=CARTESIAN_POINT('',(-0.0488066784474697,-0.00929021454701841,-0.0237999946391486));
#409=CARTESIAN_POINT('',(-0.0490198655900962,-0.00881747782983031,-0.0237999946391486));
#410=CARTESIAN_POINT('',(-0.0493306580790451,-0.0081283038996287,-0.0237999946391486));
#411=CARTESIAN_POINT('',(-0.0493306580790451,-0.0081283038996287,-0.0229999946391486));
#412=CARTESIAN_POINT('',(-0.048593899136267,-0.00916838912068483,-0.0229999946391486));
#413=CARTESIAN_POINT('',(-0.048593899136267,-0.00916838912068483,-0.0237999946391486));
#414=CARTESIAN_POINT('',(-0.048593899136267,-0.00916838912068483,-0.0237999946391486));
#415=CARTESIAN_POINT('',(-0.0493306580790451,-0.0081283038996287,-0.0237999946391486));
#416=CARTESIAN_POINT('',(-0.0498167909353689,-0.00744202841659822,-0.0237999946391486));
#417=CARTESIAN_POINT('',(-0.0498167909353689,-0.00744202841659822,-0.0229999946391486));
#418=CARTESIAN_POINT('',(-0.0483595390262598,-0.00897571759838208,-0.0229999946391486));
#419=CARTESIAN_POINT('',(-0.0483595390262598,-0.00897571759838208,-0.0237999946391486));
#420=CARTESIAN_POINT('',(-0.0483595390262598,-0.00897571759838208,-0.0237999946391486));
#421=CARTESIAN_POINT('',(-0.0498167909353689,-0.00744202841659822,-0.0237999946391486));
#422=CARTESIAN_POINT('',(-0.0522749802183988,-0.00485489966652163,-0.0237999946391486));
#423=CARTESIAN_POINT('',(-0.0522749802183988,-0.00485489966652163,-0.0229999946391486));
#424=CARTESIAN_POINT('',(-0.0522749802183988,-0.00485489966652163,-0.0237999946391486));
#425=CARTESIAN_POINT('',(-0.0697228288706337,0.00606633418553786,-0.0237999946391486));
#426=CARTESIAN_POINT('',(-0.0697228288706337,0.00606633418553786,-0.0229999946391486));
#427=MECHANICAL_DESIGN_GEOMETRIC_PRESENTATION_REPRESENTATION('',(#232),
#428);
#428=(
GEOMETRIC_REPRESENTATION_CONTEXT(3)
GLOBAL_UNCERTAINTY_ASSIGNED_CONTEXT((#429))
GLOBAL_UNIT_ASSIGNED_CONTEXT((#432,#431,#430))
REPRESENTATION_CONTEXT('Part 19','TOP_LEVEL_ASSEMBLY_PART')
);
#429=UNCERTAINTY_MEASURE_WITH_UNIT(LENGTH_MEASURE(1.E-8),#432,
'DISTANCE_ACCURACY_VALUE','Maximum Tolerance applied to model');
#430=(
NAMED_UNIT(*)
SI_UNIT($,.STERADIAN.)
SOLID_ANGLE_UNIT()
);
#431=(
NAMED_UNIT(*)
PLANE_ANGLE_UNIT()
SI_UNIT($,.RADIAN.)
);
#432=(
LENGTH_UNIT()
NAMED_UNIT(*)
SI_UNIT($,.METRE.)
);
#433=PRODUCT_DEFINITION_SHAPE('','',#434);
#434=PRODUCT_DEFINITION('','',#436,#435);
#435=PRODUCT_DEFINITION_CONTEXT('',#442,'design');
#436=PRODUCT_DEFINITION_FORMATION_WITH_SPECIFIED_SOURCE('','',#438,
 .NOT_KNOWN.);
#437=PRODUCT_RELATED_PRODUCT_CATEGORY('','',(#438));
#438=PRODUCT('Part 19','Part 19','Part 19',(#440));
#439=PRODUCT_CATEGORY('','');
#440=PRODUCT_CONTEXT('',#442,'mechanical');
#441=APPLICATION_PROTOCOL_DEFINITION('international standard',
'ap242_managed_model_based_3d_engineering',2020,#442);
#442=APPLICATION_CONTEXT('managed model based 3d engineering');
ENDSEC;
END-ISO-10303-21;
