ISO-10303-21;
HEADER;
/* Generated by software containing ST-Developer
 * from STEP Tools, Inc. (www.steptools.com) 
 */
/* OPTION: using custom renumber hook */

FILE_DESCRIPTION(
/* description */ ('STEP AP242 Edition 2',
'CAx-IF Rec.Pracs.---Representation and Presentation of Product Manufa
cturing Information (PMI)---4.0---2014-10-13',
'CAx-IF Rec.Pracs.---3D Tessellated Geometry---0.4---2014-09-14','2;1',
'CAx-IF Rec.Pracs.---User Defined Attributes---1.5---2016-08-15'),
/* implementation_level */ '2;1');

FILE_NAME(
/* name */ 'CompleteShell - Part 15',
/* time_stamp */ '2026-09-23T14:59:39Z',
/* author */ (''),
/* organization */ (''),
/* preprocessor_version */ 'ST-DEVELOPER v20',
/* originating_system */ 'ONSHAPE BY PTC INC, 1.221',
/* authorisation */ '  ');

FILE_SCHEMA (('AP242_MANAGED_MODEL_BASED_3D_ENGINEERING_MIM_LF { 1 0 10303 442 3 1 4 }'));
ENDSEC;

DATA;
#10=SHAPE_REPRESENTATION_RELATIONSHIP('','',#928,#11);
#11=ADVANCED_BREP_SHAPE_REPRESENTATION('',(#926),#1686);
#12=CIRCLE('',#932,0.001962190481619);
#13=CIRCLE('',#933,0.001962190481619);
#14=CIRCLE('',#935,0.00101760394549486);
#15=CIRCLE('',#936,0.00101760394549486);
#16=CIRCLE('',#938,0.00411048234755989);
#17=CIRCLE('',#939,0.00411048234755989);
#18=CIRCLE('',#941,0.0058810160848963);
#19=CIRCLE('',#942,0.0058810160848963);
#20=CIRCLE('',#944,0.00988468165071289);
#21=CIRCLE('',#945,0.00988468165071289);
#22=CIRCLE('',#947,0.00624035664304207);
#23=CIRCLE('',#948,0.00624035664304207);
#24=CIRCLE('',#950,0.00393449884740005);
#25=CIRCLE('',#951,0.00393449884740005);
#26=CIRCLE('',#953,0.00394830699232328);
#27=CIRCLE('',#954,0.00394830699232328);
#28=CIRCLE('',#956,0.00632532482577037);
#29=CIRCLE('',#957,0.00632532482577037);
#30=CIRCLE('',#959,0.00489011264956928);
#31=CIRCLE('',#960,0.00489011264956928);
#32=CIRCLE('',#962,0.00398385990986717);
#33=CIRCLE('',#963,0.00398385990986717);
#34=CIRCLE('',#965,0.00370616018722838);
#35=CIRCLE('',#966,0.00370616018722838);
#36=CIRCLE('',#968,0.000565646365277651);
#37=CIRCLE('',#969,0.000565646365277651);
#38=CIRCLE('',#971,9.54271954662591E-5);
#39=CIRCLE('',#972,9.54271954662591E-5);
#40=CIRCLE('',#974,0.0286399365840478);
#41=CIRCLE('',#975,0.0286399365840478);
#42=CIRCLE('',#977,0.0165581616068987);
#43=CIRCLE('',#978,0.0165581616068987);
#44=CIRCLE('',#980,0.00483045039117234);
#45=CIRCLE('',#981,0.00483045039117234);
#46=CIRCLE('',#983,0.0117650069964762);
#47=CIRCLE('',#984,0.0117650069964762);
#48=CIRCLE('',#986,0.00133082020870386);
#49=CIRCLE('',#987,0.00133082020870386);
#50=CIRCLE('',#989,0.00153076094876313);
#51=CIRCLE('',#990,0.00153076094876313);
#52=CIRCLE('',#992,0.0171527263540856);
#53=CIRCLE('',#993,0.0171527263540856);
#54=CIRCLE('',#995,0.00841139781738394);
#55=CIRCLE('',#996,0.00841139781738394);
#56=CIRCLE('',#998,0.00913663945082737);
#57=CIRCLE('',#999,0.00913663945082737);
#58=CIRCLE('',#1001,0.00801989524935189);
#59=CIRCLE('',#1002,0.00801989524935189);
#60=CIRCLE('',#1004,0.00135493599651385);
#61=CIRCLE('',#1005,0.00135493599651385);
#62=CIRCLE('',#1007,0.00561834557419545);
#63=CIRCLE('',#1008,0.00561834557419545);
#64=CIRCLE('',#1010,0.00599264439544963);
#65=CIRCLE('',#1011,0.00599264439544963);
#66=CIRCLE('',#1013,0.00508054355098365);
#67=CIRCLE('',#1014,0.00508054355098365);
#68=CIRCLE('',#1016,0.00100948274778385);
#69=CIRCLE('',#1017,0.00100948274778385);
#70=CIRCLE('',#1020,0.00227272743242691);
#71=CIRCLE('',#1021,0.00227272743242691);
#72=CIRCLE('',#1023,0.00547389779156167);
#73=CIRCLE('',#1024,0.00547389779156167);
#74=CIRCLE('',#1026,0.0111392722950151);
#75=CIRCLE('',#1027,0.0111392722950151);
#76=CIRCLE('',#1029,0.0110832873020962);
#77=CIRCLE('',#1030,0.0110832873020962);
#78=CIRCLE('',#1032,0.00518717202565109);
#79=CIRCLE('',#1033,0.00518717202565109);
#80=CIRCLE('',#1035,0.00256202460071052);
#81=CIRCLE('',#1036,0.00256202460071052);
#82=CIRCLE('',#1038,0.00558056230699962);
#83=CIRCLE('',#1039,0.00558056230699962);
#84=CIRCLE('',#1041,0.00555110626284977);
#85=CIRCLE('',#1042,0.00555110626284977);
#86=CIRCLE('',#1044,0.00247511953914039);
#87=CIRCLE('',#1045,0.00247511953914039);
#88=CIRCLE('',#1047,0.00212313903592592);
#89=CIRCLE('',#1048,0.00212313903592592);
#90=CIRCLE('',#1050,0.00561073252884673);
#91=CIRCLE('',#1051,0.00561073252884673);
#92=CIRCLE('',#1053,0.00557695522311631);
#93=CIRCLE('',#1054,0.00557695522311631);
#94=CIRCLE('',#1056,0.00191235188747897);
#95=CIRCLE('',#1057,0.00191235188747897);
#96=CIRCLE('',#1059,0.00334708905416991);
#97=CIRCLE('',#1060,0.00334708905416991);
#98=CIRCLE('',#1062,0.00347079948934222);
#99=CIRCLE('',#1063,0.00347079948934222);
#100=CIRCLE('',#1065,0.00328572165552092);
#101=CIRCLE('',#1066,0.00328572165552092);
#102=CYLINDRICAL_SURFACE('',#931,0.001962190481619);
#103=CYLINDRICAL_SURFACE('',#934,0.00101760394549486);
#104=CYLINDRICAL_SURFACE('',#937,0.00411048234755989);
#105=CYLINDRICAL_SURFACE('',#940,0.0058810160848963);
#106=CYLINDRICAL_SURFACE('',#943,0.00988468165071289);
#107=CYLINDRICAL_SURFACE('',#946,0.00624035664304207);
#108=CYLINDRICAL_SURFACE('',#949,0.00393449884740005);
#109=CYLINDRICAL_SURFACE('',#952,0.00394830699232328);
#110=CYLINDRICAL_SURFACE('',#955,0.00632532482577037);
#111=CYLINDRICAL_SURFACE('',#958,0.00489011264956928);
#112=CYLINDRICAL_SURFACE('',#961,0.00398385990986717);
#113=CYLINDRICAL_SURFACE('',#964,0.00370616018722838);
#114=CYLINDRICAL_SURFACE('',#967,0.000565646365277651);
#115=CYLINDRICAL_SURFACE('',#970,9.54271954662591E-5);
#116=CYLINDRICAL_SURFACE('',#973,0.0286399365840478);
#117=CYLINDRICAL_SURFACE('',#976,0.0165581616068987);
#118=CYLINDRICAL_SURFACE('',#979,0.00483045039117234);
#119=CYLINDRICAL_SURFACE('',#982,0.0117650069964762);
#120=CYLINDRICAL_SURFACE('',#985,0.00133082020870386);
#121=CYLINDRICAL_SURFACE('',#988,0.00153076094876313);
#122=CYLINDRICAL_SURFACE('',#991,0.0171527263540856);
#123=CYLINDRICAL_SURFACE('',#994,0.00841139781738394);
#124=CYLINDRICAL_SURFACE('',#997,0.00913663945082737);
#125=CYLINDRICAL_SURFACE('',#1000,0.00801989524935189);
#126=CYLINDRICAL_SURFACE('',#1003,0.00135493599651385);
#127=CYLINDRICAL_SURFACE('',#1006,0.00561834557419545);
#128=CYLINDRICAL_SURFACE('',#1009,0.00599264439544963);
#129=CYLINDRICAL_SURFACE('',#1012,0.00508054355098365);
#130=CYLINDRICAL_SURFACE('',#1015,0.00100948274778385);
#131=CYLINDRICAL_SURFACE('',#1019,0.00227272743242691);
#132=CYLINDRICAL_SURFACE('',#1022,0.00547389779156167);
#133=CYLINDRICAL_SURFACE('',#1025,0.0111392722950151);
#134=CYLINDRICAL_SURFACE('',#1028,0.0110832873020962);
#135=CYLINDRICAL_SURFACE('',#1031,0.00518717202565109);
#136=CYLINDRICAL_SURFACE('',#1034,0.00256202460071052);
#137=CYLINDRICAL_SURFACE('',#1037,0.00558056230699962);
#138=CYLINDRICAL_SURFACE('',#1040,0.00555110626284977);
#139=CYLINDRICAL_SURFACE('',#1043,0.00247511953914039);
#140=CYLINDRICAL_SURFACE('',#1046,0.00212313903592592);
#141=CYLINDRICAL_SURFACE('',#1049,0.00561073252884673);
#142=CYLINDRICAL_SURFACE('',#1052,0.00557695522311631);
#143=CYLINDRICAL_SURFACE('',#1055,0.00191235188747897);
#144=CYLINDRICAL_SURFACE('',#1058,0.00334708905416991);
#145=CYLINDRICAL_SURFACE('',#1061,0.00347079948934222);
#146=CYLINDRICAL_SURFACE('',#1064,0.00328572165552092);
#147=ORIENTED_EDGE('',*,*,#429,.T.);
#148=ORIENTED_EDGE('',*,*,#430,.F.);
#149=ORIENTED_EDGE('',*,*,#431,.F.);
#150=ORIENTED_EDGE('',*,*,#432,.T.);
#151=ORIENTED_EDGE('',*,*,#433,.T.);
#152=ORIENTED_EDGE('',*,*,#434,.F.);
#153=ORIENTED_EDGE('',*,*,#435,.F.);
#154=ORIENTED_EDGE('',*,*,#430,.T.);
#155=ORIENTED_EDGE('',*,*,#436,.T.);
#156=ORIENTED_EDGE('',*,*,#437,.F.);
#157=ORIENTED_EDGE('',*,*,#438,.F.);
#158=ORIENTED_EDGE('',*,*,#434,.T.);
#159=ORIENTED_EDGE('',*,*,#439,.T.);
#160=ORIENTED_EDGE('',*,*,#440,.F.);
#161=ORIENTED_EDGE('',*,*,#441,.F.);
#162=ORIENTED_EDGE('',*,*,#437,.T.);
#163=ORIENTED_EDGE('',*,*,#442,.T.);
#164=ORIENTED_EDGE('',*,*,#443,.F.);
#165=ORIENTED_EDGE('',*,*,#444,.F.);
#166=ORIENTED_EDGE('',*,*,#440,.T.);
#167=ORIENTED_EDGE('',*,*,#445,.T.);
#168=ORIENTED_EDGE('',*,*,#446,.F.);
#169=ORIENTED_EDGE('',*,*,#447,.F.);
#170=ORIENTED_EDGE('',*,*,#443,.T.);
#171=ORIENTED_EDGE('',*,*,#448,.T.);
#172=ORIENTED_EDGE('',*,*,#449,.F.);
#173=ORIENTED_EDGE('',*,*,#450,.F.);
#174=ORIENTED_EDGE('',*,*,#446,.T.);
#175=ORIENTED_EDGE('',*,*,#451,.T.);
#176=ORIENTED_EDGE('',*,*,#452,.F.);
#177=ORIENTED_EDGE('',*,*,#453,.F.);
#178=ORIENTED_EDGE('',*,*,#449,.T.);
#179=ORIENTED_EDGE('',*,*,#454,.T.);
#180=ORIENTED_EDGE('',*,*,#455,.F.);
#181=ORIENTED_EDGE('',*,*,#456,.F.);
#182=ORIENTED_EDGE('',*,*,#452,.T.);
#183=ORIENTED_EDGE('',*,*,#457,.T.);
#184=ORIENTED_EDGE('',*,*,#458,.F.);
#185=ORIENTED_EDGE('',*,*,#459,.F.);
#186=ORIENTED_EDGE('',*,*,#455,.T.);
#187=ORIENTED_EDGE('',*,*,#460,.T.);
#188=ORIENTED_EDGE('',*,*,#461,.F.);
#189=ORIENTED_EDGE('',*,*,#462,.F.);
#190=ORIENTED_EDGE('',*,*,#458,.T.);
#191=ORIENTED_EDGE('',*,*,#463,.T.);
#192=ORIENTED_EDGE('',*,*,#464,.F.);
#193=ORIENTED_EDGE('',*,*,#465,.F.);
#194=ORIENTED_EDGE('',*,*,#461,.T.);
#195=ORIENTED_EDGE('',*,*,#466,.T.);
#196=ORIENTED_EDGE('',*,*,#467,.F.);
#197=ORIENTED_EDGE('',*,*,#468,.F.);
#198=ORIENTED_EDGE('',*,*,#464,.T.);
#199=ORIENTED_EDGE('',*,*,#469,.T.);
#200=ORIENTED_EDGE('',*,*,#470,.F.);
#201=ORIENTED_EDGE('',*,*,#471,.F.);
#202=ORIENTED_EDGE('',*,*,#467,.T.);
#203=ORIENTED_EDGE('',*,*,#472,.T.);
#204=ORIENTED_EDGE('',*,*,#473,.F.);
#205=ORIENTED_EDGE('',*,*,#474,.F.);
#206=ORIENTED_EDGE('',*,*,#470,.T.);
#207=ORIENTED_EDGE('',*,*,#475,.T.);
#208=ORIENTED_EDGE('',*,*,#476,.F.);
#209=ORIENTED_EDGE('',*,*,#477,.F.);
#210=ORIENTED_EDGE('',*,*,#473,.T.);
#211=ORIENTED_EDGE('',*,*,#478,.T.);
#212=ORIENTED_EDGE('',*,*,#479,.F.);
#213=ORIENTED_EDGE('',*,*,#480,.F.);
#214=ORIENTED_EDGE('',*,*,#476,.T.);
#215=ORIENTED_EDGE('',*,*,#481,.T.);
#216=ORIENTED_EDGE('',*,*,#482,.F.);
#217=ORIENTED_EDGE('',*,*,#483,.F.);
#218=ORIENTED_EDGE('',*,*,#479,.T.);
#219=ORIENTED_EDGE('',*,*,#484,.T.);
#220=ORIENTED_EDGE('',*,*,#485,.F.);
#221=ORIENTED_EDGE('',*,*,#486,.F.);
#222=ORIENTED_EDGE('',*,*,#482,.T.);
#223=ORIENTED_EDGE('',*,*,#487,.T.);
#224=ORIENTED_EDGE('',*,*,#488,.F.);
#225=ORIENTED_EDGE('',*,*,#489,.F.);
#226=ORIENTED_EDGE('',*,*,#485,.T.);
#227=ORIENTED_EDGE('',*,*,#490,.T.);
#228=ORIENTED_EDGE('',*,*,#491,.F.);
#229=ORIENTED_EDGE('',*,*,#492,.F.);
#230=ORIENTED_EDGE('',*,*,#488,.T.);
#231=ORIENTED_EDGE('',*,*,#493,.T.);
#232=ORIENTED_EDGE('',*,*,#494,.F.);
#233=ORIENTED_EDGE('',*,*,#495,.F.);
#234=ORIENTED_EDGE('',*,*,#491,.T.);
#235=ORIENTED_EDGE('',*,*,#496,.T.);
#236=ORIENTED_EDGE('',*,*,#497,.F.);
#237=ORIENTED_EDGE('',*,*,#498,.F.);
#238=ORIENTED_EDGE('',*,*,#494,.T.);
#239=ORIENTED_EDGE('',*,*,#499,.T.);
#240=ORIENTED_EDGE('',*,*,#500,.F.);
#241=ORIENTED_EDGE('',*,*,#501,.F.);
#242=ORIENTED_EDGE('',*,*,#497,.T.);
#243=ORIENTED_EDGE('',*,*,#502,.T.);
#244=ORIENTED_EDGE('',*,*,#503,.F.);
#245=ORIENTED_EDGE('',*,*,#504,.F.);
#246=ORIENTED_EDGE('',*,*,#500,.T.);
#247=ORIENTED_EDGE('',*,*,#505,.T.);
#248=ORIENTED_EDGE('',*,*,#506,.F.);
#249=ORIENTED_EDGE('',*,*,#507,.F.);
#250=ORIENTED_EDGE('',*,*,#503,.T.);
#251=ORIENTED_EDGE('',*,*,#508,.T.);
#252=ORIENTED_EDGE('',*,*,#509,.F.);
#253=ORIENTED_EDGE('',*,*,#510,.F.);
#254=ORIENTED_EDGE('',*,*,#506,.T.);
#255=ORIENTED_EDGE('',*,*,#511,.T.);
#256=ORIENTED_EDGE('',*,*,#512,.F.);
#257=ORIENTED_EDGE('',*,*,#513,.F.);
#258=ORIENTED_EDGE('',*,*,#509,.T.);
#259=ORIENTED_EDGE('',*,*,#514,.T.);
#260=ORIENTED_EDGE('',*,*,#515,.F.);
#261=ORIENTED_EDGE('',*,*,#516,.F.);
#262=ORIENTED_EDGE('',*,*,#512,.T.);
#263=ORIENTED_EDGE('',*,*,#517,.T.);
#264=ORIENTED_EDGE('',*,*,#518,.F.);
#265=ORIENTED_EDGE('',*,*,#519,.F.);
#266=ORIENTED_EDGE('',*,*,#515,.T.);
#267=ORIENTED_EDGE('',*,*,#520,.T.);
#268=ORIENTED_EDGE('',*,*,#521,.F.);
#269=ORIENTED_EDGE('',*,*,#522,.F.);
#270=ORIENTED_EDGE('',*,*,#518,.T.);
#271=ORIENTED_EDGE('',*,*,#523,.T.);
#272=ORIENTED_EDGE('',*,*,#524,.F.);
#273=ORIENTED_EDGE('',*,*,#525,.F.);
#274=ORIENTED_EDGE('',*,*,#521,.T.);
#275=ORIENTED_EDGE('',*,*,#526,.T.);
#276=ORIENTED_EDGE('',*,*,#527,.F.);
#277=ORIENTED_EDGE('',*,*,#528,.F.);
#278=ORIENTED_EDGE('',*,*,#524,.T.);
#279=ORIENTED_EDGE('',*,*,#529,.T.);
#280=ORIENTED_EDGE('',*,*,#530,.F.);
#281=ORIENTED_EDGE('',*,*,#531,.F.);
#282=ORIENTED_EDGE('',*,*,#527,.T.);
#283=ORIENTED_EDGE('',*,*,#532,.T.);
#284=ORIENTED_EDGE('',*,*,#533,.F.);
#285=ORIENTED_EDGE('',*,*,#534,.F.);
#286=ORIENTED_EDGE('',*,*,#530,.T.);
#287=ORIENTED_EDGE('',*,*,#535,.T.);
#288=ORIENTED_EDGE('',*,*,#536,.F.);
#289=ORIENTED_EDGE('',*,*,#537,.F.);
#290=ORIENTED_EDGE('',*,*,#533,.T.);
#291=ORIENTED_EDGE('',*,*,#538,.T.);
#292=ORIENTED_EDGE('',*,*,#539,.F.);
#293=ORIENTED_EDGE('',*,*,#540,.F.);
#294=ORIENTED_EDGE('',*,*,#536,.T.);
#295=ORIENTED_EDGE('',*,*,#541,.T.);
#296=ORIENTED_EDGE('',*,*,#542,.F.);
#297=ORIENTED_EDGE('',*,*,#543,.F.);
#298=ORIENTED_EDGE('',*,*,#539,.T.);
#299=ORIENTED_EDGE('',*,*,#544,.T.);
#300=ORIENTED_EDGE('',*,*,#545,.F.);
#301=ORIENTED_EDGE('',*,*,#546,.F.);
#302=ORIENTED_EDGE('',*,*,#542,.T.);
#303=ORIENTED_EDGE('',*,*,#547,.T.);
#304=ORIENTED_EDGE('',*,*,#548,.F.);
#305=ORIENTED_EDGE('',*,*,#549,.F.);
#306=ORIENTED_EDGE('',*,*,#545,.T.);
#307=ORIENTED_EDGE('',*,*,#550,.T.);
#308=ORIENTED_EDGE('',*,*,#551,.F.);
#309=ORIENTED_EDGE('',*,*,#552,.F.);
#310=ORIENTED_EDGE('',*,*,#548,.T.);
#311=ORIENTED_EDGE('',*,*,#553,.T.);
#312=ORIENTED_EDGE('',*,*,#554,.F.);
#313=ORIENTED_EDGE('',*,*,#555,.F.);
#314=ORIENTED_EDGE('',*,*,#551,.T.);
#315=ORIENTED_EDGE('',*,*,#556,.T.);
#316=ORIENTED_EDGE('',*,*,#557,.F.);
#317=ORIENTED_EDGE('',*,*,#558,.F.);
#318=ORIENTED_EDGE('',*,*,#554,.T.);
#319=ORIENTED_EDGE('',*,*,#559,.T.);
#320=ORIENTED_EDGE('',*,*,#560,.F.);
#321=ORIENTED_EDGE('',*,*,#561,.F.);
#322=ORIENTED_EDGE('',*,*,#557,.T.);
#323=ORIENTED_EDGE('',*,*,#562,.T.);
#324=ORIENTED_EDGE('',*,*,#563,.F.);
#325=ORIENTED_EDGE('',*,*,#564,.F.);
#326=ORIENTED_EDGE('',*,*,#560,.T.);
#327=ORIENTED_EDGE('',*,*,#565,.T.);
#328=ORIENTED_EDGE('',*,*,#566,.F.);
#329=ORIENTED_EDGE('',*,*,#567,.F.);
#330=ORIENTED_EDGE('',*,*,#563,.T.);
#331=ORIENTED_EDGE('',*,*,#568,.T.);
#332=ORIENTED_EDGE('',*,*,#432,.F.);
#333=ORIENTED_EDGE('',*,*,#569,.F.);
#334=ORIENTED_EDGE('',*,*,#566,.T.);
#335=ORIENTED_EDGE('',*,*,#431,.T.);
#336=ORIENTED_EDGE('',*,*,#435,.T.);
#337=ORIENTED_EDGE('',*,*,#438,.T.);
#338=ORIENTED_EDGE('',*,*,#441,.T.);
#339=ORIENTED_EDGE('',*,*,#444,.T.);
#340=ORIENTED_EDGE('',*,*,#447,.T.);
#341=ORIENTED_EDGE('',*,*,#450,.T.);
#342=ORIENTED_EDGE('',*,*,#453,.T.);
#343=ORIENTED_EDGE('',*,*,#456,.T.);
#344=ORIENTED_EDGE('',*,*,#459,.T.);
#345=ORIENTED_EDGE('',*,*,#462,.T.);
#346=ORIENTED_EDGE('',*,*,#465,.T.);
#347=ORIENTED_EDGE('',*,*,#468,.T.);
#348=ORIENTED_EDGE('',*,*,#471,.T.);
#349=ORIENTED_EDGE('',*,*,#474,.T.);
#350=ORIENTED_EDGE('',*,*,#477,.T.);
#351=ORIENTED_EDGE('',*,*,#480,.T.);
#352=ORIENTED_EDGE('',*,*,#483,.T.);
#353=ORIENTED_EDGE('',*,*,#486,.T.);
#354=ORIENTED_EDGE('',*,*,#489,.T.);
#355=ORIENTED_EDGE('',*,*,#492,.T.);
#356=ORIENTED_EDGE('',*,*,#495,.T.);
#357=ORIENTED_EDGE('',*,*,#498,.T.);
#358=ORIENTED_EDGE('',*,*,#501,.T.);
#359=ORIENTED_EDGE('',*,*,#504,.T.);
#360=ORIENTED_EDGE('',*,*,#507,.T.);
#361=ORIENTED_EDGE('',*,*,#510,.T.);
#362=ORIENTED_EDGE('',*,*,#513,.T.);
#363=ORIENTED_EDGE('',*,*,#516,.T.);
#364=ORIENTED_EDGE('',*,*,#519,.T.);
#365=ORIENTED_EDGE('',*,*,#522,.T.);
#366=ORIENTED_EDGE('',*,*,#525,.T.);
#367=ORIENTED_EDGE('',*,*,#528,.T.);
#368=ORIENTED_EDGE('',*,*,#531,.T.);
#369=ORIENTED_EDGE('',*,*,#534,.T.);
#370=ORIENTED_EDGE('',*,*,#537,.T.);
#371=ORIENTED_EDGE('',*,*,#540,.T.);
#372=ORIENTED_EDGE('',*,*,#543,.T.);
#373=ORIENTED_EDGE('',*,*,#546,.T.);
#374=ORIENTED_EDGE('',*,*,#549,.T.);
#375=ORIENTED_EDGE('',*,*,#552,.T.);
#376=ORIENTED_EDGE('',*,*,#555,.T.);
#377=ORIENTED_EDGE('',*,*,#558,.T.);
#378=ORIENTED_EDGE('',*,*,#561,.T.);
#379=ORIENTED_EDGE('',*,*,#564,.T.);
#380=ORIENTED_EDGE('',*,*,#567,.T.);
#381=ORIENTED_EDGE('',*,*,#569,.T.);
#382=ORIENTED_EDGE('',*,*,#429,.F.);
#383=ORIENTED_EDGE('',*,*,#568,.F.);
#384=ORIENTED_EDGE('',*,*,#565,.F.);
#385=ORIENTED_EDGE('',*,*,#562,.F.);
#386=ORIENTED_EDGE('',*,*,#559,.F.);
#387=ORIENTED_EDGE('',*,*,#556,.F.);
#388=ORIENTED_EDGE('',*,*,#553,.F.);
#389=ORIENTED_EDGE('',*,*,#550,.F.);
#390=ORIENTED_EDGE('',*,*,#547,.F.);
#391=ORIENTED_EDGE('',*,*,#544,.F.);
#392=ORIENTED_EDGE('',*,*,#541,.F.);
#393=ORIENTED_EDGE('',*,*,#538,.F.);
#394=ORIENTED_EDGE('',*,*,#535,.F.);
#395=ORIENTED_EDGE('',*,*,#532,.F.);
#396=ORIENTED_EDGE('',*,*,#529,.F.);
#397=ORIENTED_EDGE('',*,*,#526,.F.);
#398=ORIENTED_EDGE('',*,*,#523,.F.);
#399=ORIENTED_EDGE('',*,*,#520,.F.);
#400=ORIENTED_EDGE('',*,*,#517,.F.);
#401=ORIENTED_EDGE('',*,*,#514,.F.);
#402=ORIENTED_EDGE('',*,*,#511,.F.);
#403=ORIENTED_EDGE('',*,*,#508,.F.);
#404=ORIENTED_EDGE('',*,*,#505,.F.);
#405=ORIENTED_EDGE('',*,*,#502,.F.);
#406=ORIENTED_EDGE('',*,*,#499,.F.);
#407=ORIENTED_EDGE('',*,*,#496,.F.);
#408=ORIENTED_EDGE('',*,*,#493,.F.);
#409=ORIENTED_EDGE('',*,*,#490,.F.);
#410=ORIENTED_EDGE('',*,*,#487,.F.);
#411=ORIENTED_EDGE('',*,*,#484,.F.);
#412=ORIENTED_EDGE('',*,*,#481,.F.);
#413=ORIENTED_EDGE('',*,*,#478,.F.);
#414=ORIENTED_EDGE('',*,*,#475,.F.);
#415=ORIENTED_EDGE('',*,*,#472,.F.);
#416=ORIENTED_EDGE('',*,*,#469,.F.);
#417=ORIENTED_EDGE('',*,*,#466,.F.);
#418=ORIENTED_EDGE('',*,*,#463,.F.);
#419=ORIENTED_EDGE('',*,*,#460,.F.);
#420=ORIENTED_EDGE('',*,*,#457,.F.);
#421=ORIENTED_EDGE('',*,*,#454,.F.);
#422=ORIENTED_EDGE('',*,*,#451,.F.);
#423=ORIENTED_EDGE('',*,*,#448,.F.);
#424=ORIENTED_EDGE('',*,*,#445,.F.);
#425=ORIENTED_EDGE('',*,*,#442,.F.);
#426=ORIENTED_EDGE('',*,*,#439,.F.);
#427=ORIENTED_EDGE('',*,*,#436,.F.);
#428=ORIENTED_EDGE('',*,*,#433,.F.);
#429=EDGE_CURVE('',#570,#571,#664,.T.);
#430=EDGE_CURVE('',#572,#571,#665,.T.);
#431=EDGE_CURVE('',#573,#572,#666,.T.);
#432=EDGE_CURVE('',#573,#570,#667,.T.);
#433=EDGE_CURVE('',#571,#574,#12,.T.);
#434=EDGE_CURVE('',#575,#574,#668,.T.);
#435=EDGE_CURVE('',#572,#575,#13,.T.);
#436=EDGE_CURVE('',#574,#576,#14,.T.);
#437=EDGE_CURVE('',#577,#576,#669,.T.);
#438=EDGE_CURVE('',#575,#577,#15,.T.);
#439=EDGE_CURVE('',#576,#578,#16,.T.);
#440=EDGE_CURVE('',#579,#578,#670,.T.);
#441=EDGE_CURVE('',#577,#579,#17,.T.);
#442=EDGE_CURVE('',#578,#580,#18,.T.);
#443=EDGE_CURVE('',#581,#580,#671,.T.);
#444=EDGE_CURVE('',#579,#581,#19,.T.);
#445=EDGE_CURVE('',#580,#582,#20,.T.);
#446=EDGE_CURVE('',#583,#582,#672,.T.);
#447=EDGE_CURVE('',#581,#583,#21,.T.);
#448=EDGE_CURVE('',#582,#584,#22,.T.);
#449=EDGE_CURVE('',#585,#584,#673,.T.);
#450=EDGE_CURVE('',#583,#585,#23,.T.);
#451=EDGE_CURVE('',#584,#586,#24,.T.);
#452=EDGE_CURVE('',#587,#586,#674,.T.);
#453=EDGE_CURVE('',#585,#587,#25,.T.);
#454=EDGE_CURVE('',#586,#588,#26,.T.);
#455=EDGE_CURVE('',#589,#588,#675,.T.);
#456=EDGE_CURVE('',#587,#589,#27,.T.);
#457=EDGE_CURVE('',#588,#590,#28,.T.);
#458=EDGE_CURVE('',#591,#590,#676,.T.);
#459=EDGE_CURVE('',#589,#591,#29,.T.);
#460=EDGE_CURVE('',#590,#592,#30,.T.);
#461=EDGE_CURVE('',#593,#592,#677,.T.);
#462=EDGE_CURVE('',#591,#593,#31,.T.);
#463=EDGE_CURVE('',#592,#594,#32,.T.);
#464=EDGE_CURVE('',#595,#594,#678,.T.);
#465=EDGE_CURVE('',#593,#595,#33,.T.);
#466=EDGE_CURVE('',#594,#596,#34,.T.);
#467=EDGE_CURVE('',#597,#596,#679,.T.);
#468=EDGE_CURVE('',#595,#597,#35,.T.);
#469=EDGE_CURVE('',#596,#598,#36,.T.);
#470=EDGE_CURVE('',#599,#598,#680,.T.);
#471=EDGE_CURVE('',#597,#599,#37,.T.);
#472=EDGE_CURVE('',#598,#600,#38,.T.);
#473=EDGE_CURVE('',#601,#600,#681,.T.);
#474=EDGE_CURVE('',#599,#601,#39,.T.);
#475=EDGE_CURVE('',#600,#602,#40,.T.);
#476=EDGE_CURVE('',#603,#602,#682,.T.);
#477=EDGE_CURVE('',#601,#603,#41,.T.);
#478=EDGE_CURVE('',#602,#604,#42,.T.);
#479=EDGE_CURVE('',#605,#604,#683,.T.);
#480=EDGE_CURVE('',#603,#605,#43,.T.);
#481=EDGE_CURVE('',#604,#606,#44,.T.);
#482=EDGE_CURVE('',#607,#606,#684,.T.);
#483=EDGE_CURVE('',#605,#607,#45,.T.);
#484=EDGE_CURVE('',#606,#608,#46,.T.);
#485=EDGE_CURVE('',#609,#608,#685,.T.);
#486=EDGE_CURVE('',#607,#609,#47,.T.);
#487=EDGE_CURVE('',#608,#610,#48,.T.);
#488=EDGE_CURVE('',#611,#610,#686,.T.);
#489=EDGE_CURVE('',#609,#611,#49,.T.);
#490=EDGE_CURVE('',#610,#612,#50,.T.);
#491=EDGE_CURVE('',#613,#612,#687,.T.);
#492=EDGE_CURVE('',#611,#613,#51,.T.);
#493=EDGE_CURVE('',#612,#614,#52,.T.);
#494=EDGE_CURVE('',#615,#614,#688,.T.);
#495=EDGE_CURVE('',#613,#615,#53,.T.);
#496=EDGE_CURVE('',#614,#616,#54,.T.);
#497=EDGE_CURVE('',#617,#616,#689,.T.);
#498=EDGE_CURVE('',#615,#617,#55,.T.);
#499=EDGE_CURVE('',#616,#618,#56,.T.);
#500=EDGE_CURVE('',#619,#618,#690,.T.);
#501=EDGE_CURVE('',#617,#619,#57,.T.);
#502=EDGE_CURVE('',#618,#620,#58,.T.);
#503=EDGE_CURVE('',#621,#620,#691,.T.);
#504=EDGE_CURVE('',#619,#621,#59,.T.);
#505=EDGE_CURVE('',#620,#622,#60,.T.);
#506=EDGE_CURVE('',#623,#622,#692,.T.);
#507=EDGE_CURVE('',#621,#623,#61,.T.);
#508=EDGE_CURVE('',#622,#624,#62,.T.);
#509=EDGE_CURVE('',#625,#624,#693,.T.);
#510=EDGE_CURVE('',#623,#625,#63,.T.);
#511=EDGE_CURVE('',#624,#626,#64,.T.);
#512=EDGE_CURVE('',#627,#626,#694,.T.);
#513=EDGE_CURVE('',#625,#627,#65,.T.);
#514=EDGE_CURVE('',#626,#628,#66,.T.);
#515=EDGE_CURVE('',#629,#628,#695,.T.);
#516=EDGE_CURVE('',#627,#629,#67,.T.);
#517=EDGE_CURVE('',#628,#630,#68,.T.);
#518=EDGE_CURVE('',#631,#630,#696,.T.);
#519=EDGE_CURVE('',#629,#631,#69,.T.);
#520=EDGE_CURVE('',#630,#632,#697,.T.);
#521=EDGE_CURVE('',#633,#632,#698,.T.);
#522=EDGE_CURVE('',#631,#633,#699,.T.);
#523=EDGE_CURVE('',#632,#634,#70,.T.);
#524=EDGE_CURVE('',#635,#634,#700,.T.);
#525=EDGE_CURVE('',#633,#635,#71,.T.);
#526=EDGE_CURVE('',#634,#636,#72,.T.);
#527=EDGE_CURVE('',#637,#636,#701,.T.);
#528=EDGE_CURVE('',#635,#637,#73,.T.);
#529=EDGE_CURVE('',#636,#638,#74,.T.);
#530=EDGE_CURVE('',#639,#638,#702,.T.);
#531=EDGE_CURVE('',#637,#639,#75,.T.);
#532=EDGE_CURVE('',#638,#640,#76,.T.);
#533=EDGE_CURVE('',#641,#640,#703,.T.);
#534=EDGE_CURVE('',#639,#641,#77,.T.);
#535=EDGE_CURVE('',#640,#642,#78,.T.);
#536=EDGE_CURVE('',#643,#642,#704,.T.);
#537=EDGE_CURVE('',#641,#643,#79,.T.);
#538=EDGE_CURVE('',#642,#644,#80,.T.);
#539=EDGE_CURVE('',#645,#644,#705,.T.);
#540=EDGE_CURVE('',#643,#645,#81,.T.);
#541=EDGE_CURVE('',#644,#646,#82,.T.);
#542=EDGE_CURVE('',#647,#646,#706,.T.);
#543=EDGE_CURVE('',#645,#647,#83,.T.);
#544=EDGE_CURVE('',#646,#648,#84,.T.);
#545=EDGE_CURVE('',#649,#648,#707,.T.);
#546=EDGE_CURVE('',#647,#649,#85,.T.);
#547=EDGE_CURVE('',#648,#650,#86,.T.);
#548=EDGE_CURVE('',#651,#650,#708,.T.);
#549=EDGE_CURVE('',#649,#651,#87,.T.);
#550=EDGE_CURVE('',#650,#652,#88,.T.);
#551=EDGE_CURVE('',#653,#652,#709,.T.);
#552=EDGE_CURVE('',#651,#653,#89,.T.);
#553=EDGE_CURVE('',#652,#654,#90,.T.);
#554=EDGE_CURVE('',#655,#654,#710,.T.);
#555=EDGE_CURVE('',#653,#655,#91,.T.);
#556=EDGE_CURVE('',#654,#656,#92,.T.);
#557=EDGE_CURVE('',#657,#656,#711,.T.);
#558=EDGE_CURVE('',#655,#657,#93,.T.);
#559=EDGE_CURVE('',#656,#658,#94,.T.);
#560=EDGE_CURVE('',#659,#658,#712,.T.);
#561=EDGE_CURVE('',#657,#659,#95,.T.);
#562=EDGE_CURVE('',#658,#660,#96,.T.);
#563=EDGE_CURVE('',#661,#660,#713,.T.);
#564=EDGE_CURVE('',#659,#661,#97,.T.);
#565=EDGE_CURVE('',#660,#662,#98,.T.);
#566=EDGE_CURVE('',#663,#662,#714,.T.);
#567=EDGE_CURVE('',#661,#663,#99,.T.);
#568=EDGE_CURVE('',#662,#570,#100,.T.);
#569=EDGE_CURVE('',#663,#573,#101,.T.);
#570=VERTEX_POINT('',#1403);
#571=VERTEX_POINT('',#1404);
#572=VERTEX_POINT('',#1406);
#573=VERTEX_POINT('',#1408);
#574=VERTEX_POINT('',#1412);
#575=VERTEX_POINT('',#1414);
#576=VERTEX_POINT('',#1418);
#577=VERTEX_POINT('',#1420);
#578=VERTEX_POINT('',#1424);
#579=VERTEX_POINT('',#1426);
#580=VERTEX_POINT('',#1430);
#581=VERTEX_POINT('',#1432);
#582=VERTEX_POINT('',#1436);
#583=VERTEX_POINT('',#1438);
#584=VERTEX_POINT('',#1442);
#585=VERTEX_POINT('',#1444);
#586=VERTEX_POINT('',#1448);
#587=VERTEX_POINT('',#1450);
#588=VERTEX_POINT('',#1454);
#589=VERTEX_POINT('',#1456);
#590=VERTEX_POINT('',#1460);
#591=VERTEX_POINT('',#1462);
#592=VERTEX_POINT('',#1466);
#593=VERTEX_POINT('',#1468);
#594=VERTEX_POINT('',#1472);
#595=VERTEX_POINT('',#1474);
#596=VERTEX_POINT('',#1478);
#597=VERTEX_POINT('',#1480);
#598=VERTEX_POINT('',#1484);
#599=VERTEX_POINT('',#1486);
#600=VERTEX_POINT('',#1490);
#601=VERTEX_POINT('',#1492);
#602=VERTEX_POINT('',#1496);
#603=VERTEX_POINT('',#1498);
#604=VERTEX_POINT('',#1502);
#605=VERTEX_POINT('',#1504);
#606=VERTEX_POINT('',#1508);
#607=VERTEX_POINT('',#1510);
#608=VERTEX_POINT('',#1514);
#609=VERTEX_POINT('',#1516);
#610=VERTEX_POINT('',#1520);
#611=VERTEX_POINT('',#1522);
#612=VERTEX_POINT('',#1526);
#613=VERTEX_POINT('',#1528);
#614=VERTEX_POINT('',#1532);
#615=VERTEX_POINT('',#1534);
#616=VERTEX_POINT('',#1538);
#617=VERTEX_POINT('',#1540);
#618=VERTEX_POINT('',#1544);
#619=VERTEX_POINT('',#1546);
#620=VERTEX_POINT('',#1550);
#621=VERTEX_POINT('',#1552);
#622=VERTEX_POINT('',#1556);
#623=VERTEX_POINT('',#1558);
#624=VERTEX_POINT('',#1562);
#625=VERTEX_POINT('',#1564);
#626=VERTEX_POINT('',#1568);
#627=VERTEX_POINT('',#1570);
#628=VERTEX_POINT('',#1574);
#629=VERTEX_POINT('',#1576);
#630=VERTEX_POINT('',#1580);
#631=VERTEX_POINT('',#1582);
#632=VERTEX_POINT('',#1586);
#633=VERTEX_POINT('',#1588);
#634=VERTEX_POINT('',#1592);
#635=VERTEX_POINT('',#1594);
#636=VERTEX_POINT('',#1598);
#637=VERTEX_POINT('',#1600);
#638=VERTEX_POINT('',#1604);
#639=VERTEX_POINT('',#1606);
#640=VERTEX_POINT('',#1610);
#641=VERTEX_POINT('',#1612);
#642=VERTEX_POINT('',#1616);
#643=VERTEX_POINT('',#1618);
#644=VERTEX_POINT('',#1622);
#645=VERTEX_POINT('',#1624);
#646=VERTEX_POINT('',#1628);
#647=VERTEX_POINT('',#1630);
#648=VERTEX_POINT('',#1634);
#649=VERTEX_POINT('',#1636);
#650=VERTEX_POINT('',#1640);
#651=VERTEX_POINT('',#1642);
#652=VERTEX_POINT('',#1646);
#653=VERTEX_POINT('',#1648);
#654=VERTEX_POINT('',#1652);
#655=VERTEX_POINT('',#1654);
#656=VERTEX_POINT('',#1658);
#657=VERTEX_POINT('',#1660);
#658=VERTEX_POINT('',#1664);
#659=VERTEX_POINT('',#1666);
#660=VERTEX_POINT('',#1670);
#661=VERTEX_POINT('',#1672);
#662=VERTEX_POINT('',#1676);
#663=VERTEX_POINT('',#1678);
#664=LINE('',#1402,#715);
#665=LINE('',#1405,#716);
#666=LINE('',#1407,#717);
#667=LINE('',#1409,#718);
#668=LINE('',#1413,#719);
#669=LINE('',#1419,#720);
#670=LINE('',#1425,#721);
#671=LINE('',#1431,#722);
#672=LINE('',#1437,#723);
#673=LINE('',#1443,#724);
#674=LINE('',#1449,#725);
#675=LINE('',#1455,#726);
#676=LINE('',#1461,#727);
#677=LINE('',#1467,#728);
#678=LINE('',#1473,#729);
#679=LINE('',#1479,#730);
#680=LINE('',#1485,#731);
#681=LINE('',#1491,#732);
#682=LINE('',#1497,#733);
#683=LINE('',#1503,#734);
#684=LINE('',#1509,#735);
#685=LINE('',#1515,#736);
#686=LINE('',#1521,#737);
#687=LINE('',#1527,#738);
#688=LINE('',#1533,#739);
#689=LINE('',#1539,#740);
#690=LINE('',#1545,#741);
#691=LINE('',#1551,#742);
#692=LINE('',#1557,#743);
#693=LINE('',#1563,#744);
#694=LINE('',#1569,#745);
#695=LINE('',#1575,#746);
#696=LINE('',#1581,#747);
#697=LINE('',#1585,#748);
#698=LINE('',#1587,#749);
#699=LINE('',#1589,#750);
#700=LINE('',#1593,#751);
#701=LINE('',#1599,#752);
#702=LINE('',#1605,#753);
#703=LINE('',#1611,#754);
#704=LINE('',#1617,#755);
#705=LINE('',#1623,#756);
#706=LINE('',#1629,#757);
#707=LINE('',#1635,#758);
#708=LINE('',#1641,#759);
#709=LINE('',#1647,#760);
#710=LINE('',#1653,#761);
#711=LINE('',#1659,#762);
#712=LINE('',#1665,#763);
#713=LINE('',#1671,#764);
#714=LINE('',#1677,#765);
#715=VECTOR('',#1073,1.);
#716=VECTOR('',#1074,1.);
#717=VECTOR('',#1075,1.);
#718=VECTOR('',#1076,1.);
#719=VECTOR('',#1081,1.);
#720=VECTOR('',#1088,1.);
#721=VECTOR('',#1095,1.);
#722=VECTOR('',#1102,1.);
#723=VECTOR('',#1109,1.);
#724=VECTOR('',#1116,1.);
#725=VECTOR('',#1123,1.);
#726=VECTOR('',#1130,1.);
#727=VECTOR('',#1137,1.);
#728=VECTOR('',#1144,1.);
#729=VECTOR('',#1151,1.);
#730=VECTOR('',#1158,1.);
#731=VECTOR('',#1165,1.);
#732=VECTOR('',#1172,1.);
#733=VECTOR('',#1179,1.);
#734=VECTOR('',#1186,1.);
#735=VECTOR('',#1193,1.);
#736=VECTOR('',#1200,1.);
#737=VECTOR('',#1207,1.);
#738=VECTOR('',#1214,1.);
#739=VECTOR('',#1221,1.);
#740=VECTOR('',#1228,1.);
#741=VECTOR('',#1235,1.);
#742=VECTOR('',#1242,1.);
#743=VECTOR('',#1249,1.);
#744=VECTOR('',#1256,1.);
#745=VECTOR('',#1263,1.);
#746=VECTOR('',#1270,1.);
#747=VECTOR('',#1277,1.);
#748=VECTOR('',#1282,1.);
#749=VECTOR('',#1283,1.);
#750=VECTOR('',#1284,1.);
#751=VECTOR('',#1289,1.);
#752=VECTOR('',#1296,1.);
#753=VECTOR('',#1303,1.);
#754=VECTOR('',#1310,1.);
#755=VECTOR('',#1317,1.);
#756=VECTOR('',#1324,1.);
#757=VECTOR('',#1331,1.);
#758=VECTOR('',#1338,1.);
#759=VECTOR('',#1345,1.);
#760=VECTOR('',#1352,1.);
#761=VECTOR('',#1359,1.);
#762=VECTOR('',#1366,1.);
#763=VECTOR('',#1373,1.);
#764=VECTOR('',#1380,1.);
#765=VECTOR('',#1387,1.);
#766=EDGE_LOOP('',(#147,#148,#149,#150));
#767=EDGE_LOOP('',(#151,#152,#153,#154));
#768=EDGE_LOOP('',(#155,#156,#157,#158));
#769=EDGE_LOOP('',(#159,#160,#161,#162));
#770=EDGE_LOOP('',(#163,#164,#165,#166));
#771=EDGE_LOOP('',(#167,#168,#169,#170));
#772=EDGE_LOOP('',(#171,#172,#173,#174));
#773=EDGE_LOOP('',(#175,#176,#177,#178));
#774=EDGE_LOOP('',(#179,#180,#181,#182));
#775=EDGE_LOOP('',(#183,#184,#185,#186));
#776=EDGE_LOOP('',(#187,#188,#189,#190));
#777=EDGE_LOOP('',(#191,#192,#193,#194));
#778=EDGE_LOOP('',(#195,#196,#197,#198));
#779=EDGE_LOOP('',(#199,#200,#201,#202));
#780=EDGE_LOOP('',(#203,#204,#205,#206));
#781=EDGE_LOOP('',(#207,#208,#209,#210));
#782=EDGE_LOOP('',(#211,#212,#213,#214));
#783=EDGE_LOOP('',(#215,#216,#217,#218));
#784=EDGE_LOOP('',(#219,#220,#221,#222));
#785=EDGE_LOOP('',(#223,#224,#225,#226));
#786=EDGE_LOOP('',(#227,#228,#229,#230));
#787=EDGE_LOOP('',(#231,#232,#233,#234));
#788=EDGE_LOOP('',(#235,#236,#237,#238));
#789=EDGE_LOOP('',(#239,#240,#241,#242));
#790=EDGE_LOOP('',(#243,#244,#245,#246));
#791=EDGE_LOOP('',(#247,#248,#249,#250));
#792=EDGE_LOOP('',(#251,#252,#253,#254));
#793=EDGE_LOOP('',(#255,#256,#257,#258));
#794=EDGE_LOOP('',(#259,#260,#261,#262));
#795=EDGE_LOOP('',(#263,#264,#265,#266));
#796=EDGE_LOOP('',(#267,#268,#269,#270));
#797=EDGE_LOOP('',(#271,#272,#273,#274));
#798=EDGE_LOOP('',(#275,#276,#277,#278));
#799=EDGE_LOOP('',(#279,#280,#281,#282));
#800=EDGE_LOOP('',(#283,#284,#285,#286));
#801=EDGE_LOOP('',(#287,#288,#289,#290));
#802=EDGE_LOOP('',(#291,#292,#293,#294));
#803=EDGE_LOOP('',(#295,#296,#297,#298));
#804=EDGE_LOOP('',(#299,#300,#301,#302));
#805=EDGE_LOOP('',(#303,#304,#305,#306));
#806=EDGE_LOOP('',(#307,#308,#309,#310));
#807=EDGE_LOOP('',(#311,#312,#313,#314));
#808=EDGE_LOOP('',(#315,#316,#317,#318));
#809=EDGE_LOOP('',(#319,#320,#321,#322));
#810=EDGE_LOOP('',(#323,#324,#325,#326));
#811=EDGE_LOOP('',(#327,#328,#329,#330));
#812=EDGE_LOOP('',(#331,#332,#333,#334));
#813=EDGE_LOOP('',(#335,#336,#337,#338,#339,#340,#341,#342,#343,#344,#345,
#346,#347,#348,#349,#350,#351,#352,#353,#354,#355,#356,#357,#358,#359,#360,
#361,#362,#363,#364,#365,#366,#367,#368,#369,#370,#371,#372,#373,#374,#375,
#376,#377,#378,#379,#380,#381));
#814=EDGE_LOOP('',(#382,#383,#384,#385,#386,#387,#388,#389,#390,#391,#392,
#393,#394,#395,#396,#397,#398,#399,#400,#401,#402,#403,#404,#405,#406,#407,
#408,#409,#410,#411,#412,#413,#414,#415,#416,#417,#418,#419,#420,#421,#422,
#423,#424,#425,#426,#427,#428));
#815=FACE_BOUND('',#766,.T.);
#816=FACE_BOUND('',#767,.T.);
#817=FACE_BOUND('',#768,.T.);
#818=FACE_BOUND('',#769,.T.);
#819=FACE_BOUND('',#770,.T.);
#820=FACE_BOUND('',#771,.T.);
#821=FACE_BOUND('',#772,.T.);
#822=FACE_BOUND('',#773,.T.);
#823=FACE_BOUND('',#774,.T.);
#824=FACE_BOUND('',#775,.T.);
#825=FACE_BOUND('',#776,.T.);
#826=FACE_BOUND('',#777,.T.);
#827=FACE_BOUND('',#778,.T.);
#828=FACE_BOUND('',#779,.T.);
#829=FACE_BOUND('',#780,.T.);
#830=FACE_BOUND('',#781,.T.);
#831=FACE_BOUND('',#782,.T.);
#832=FACE_BOUND('',#783,.T.);
#833=FACE_BOUND('',#784,.T.);
#834=FACE_BOUND('',#785,.T.);
#835=FACE_BOUND('',#786,.T.);
#836=FACE_BOUND('',#787,.T.);
#837=FACE_BOUND('',#788,.T.);
#838=FACE_BOUND('',#789,.T.);
#839=FACE_BOUND('',#790,.T.);
#840=FACE_BOUND('',#791,.T.);
#841=FACE_BOUND('',#792,.T.);
#842=FACE_BOUND('',#793,.T.);
#843=FACE_BOUND('',#794,.T.);
#844=FACE_BOUND('',#795,.T.);
#845=FACE_BOUND('',#796,.T.);
#846=FACE_BOUND('',#797,.T.);
#847=FACE_BOUND('',#798,.T.);
#848=FACE_BOUND('',#799,.T.);
#849=FACE_BOUND('',#800,.T.);
#850=FACE_BOUND('',#801,.T.);
#851=FACE_BOUND('',#802,.T.);
#852=FACE_BOUND('',#803,.T.);
#853=FACE_BOUND('',#804,.T.);
#854=FACE_BOUND('',#805,.T.);
#855=FACE_BOUND('',#806,.T.);
#856=FACE_BOUND('',#807,.T.);
#857=FACE_BOUND('',#808,.T.);
#858=FACE_BOUND('',#809,.T.);
#859=FACE_BOUND('',#810,.T.);
#860=FACE_BOUND('',#811,.T.);
#861=FACE_BOUND('',#812,.T.);
#862=FACE_BOUND('',#813,.T.);
#863=FACE_BOUND('',#814,.T.);
#864=PLANE('',#930);
#865=PLANE('',#1018);
#866=PLANE('',#1067);
#867=PLANE('',#1068);
#868=ADVANCED_FACE('',(#815),#864,.F.);
#869=ADVANCED_FACE('',(#816),#102,.F.);
#870=ADVANCED_FACE('',(#817),#103,.T.);
#871=ADVANCED_FACE('',(#818),#104,.T.);
#872=ADVANCED_FACE('',(#819),#105,.T.);
#873=ADVANCED_FACE('',(#820),#106,.T.);
#874=ADVANCED_FACE('',(#821),#107,.T.);
#875=ADVANCED_FACE('',(#822),#108,.T.);
#876=ADVANCED_FACE('',(#823),#109,.T.);
#877=ADVANCED_FACE('',(#824),#110,.T.);
#878=ADVANCED_FACE('',(#825),#111,.F.);
#879=ADVANCED_FACE('',(#826),#112,.F.);
#880=ADVANCED_FACE('',(#827),#113,.F.);
#881=ADVANCED_FACE('',(#828),#114,.F.);
#882=ADVANCED_FACE('',(#829),#115,.T.);
#883=ADVANCED_FACE('',(#830),#116,.T.);
#884=ADVANCED_FACE('',(#831),#117,.T.);
#885=ADVANCED_FACE('',(#832),#118,.T.);
#886=ADVANCED_FACE('',(#833),#119,.T.);
#887=ADVANCED_FACE('',(#834),#120,.T.);
#888=ADVANCED_FACE('',(#835),#121,.T.);
#889=ADVANCED_FACE('',(#836),#122,.T.);
#890=ADVANCED_FACE('',(#837),#123,.T.);
#891=ADVANCED_FACE('',(#838),#124,.T.);
#892=ADVANCED_FACE('',(#839),#125,.T.);
#893=ADVANCED_FACE('',(#840),#126,.T.);
#894=ADVANCED_FACE('',(#841),#127,.T.);
#895=ADVANCED_FACE('',(#842),#128,.T.);
#896=ADVANCED_FACE('',(#843),#129,.T.);
#897=ADVANCED_FACE('',(#844),#130,.T.);
#898=ADVANCED_FACE('',(#845),#865,.F.);
#899=ADVANCED_FACE('',(#846),#131,.F.);
#900=ADVANCED_FACE('',(#847),#132,.T.);
#901=ADVANCED_FACE('',(#848),#133,.T.);
#902=ADVANCED_FACE('',(#849),#134,.T.);
#903=ADVANCED_FACE('',(#850),#135,.T.);
#904=ADVANCED_FACE('',(#851),#136,.F.);
#905=ADVANCED_FACE('',(#852),#137,.F.);
#906=ADVANCED_FACE('',(#853),#138,.F.);
#907=ADVANCED_FACE('',(#854),#139,.F.);
#908=ADVANCED_FACE('',(#855),#140,.F.);
#909=ADVANCED_FACE('',(#856),#141,.F.);
#910=ADVANCED_FACE('',(#857),#142,.F.);
#911=ADVANCED_FACE('',(#858),#143,.F.);
#912=ADVANCED_FACE('',(#859),#144,.F.);
#913=ADVANCED_FACE('',(#860),#145,.F.);
#914=ADVANCED_FACE('',(#861),#146,.F.);
#915=ADVANCED_FACE('',(#862),#866,.T.);
#916=ADVANCED_FACE('',(#863),#867,.F.);
#917=CLOSED_SHELL('',(#868,#869,#870,#871,#872,#873,#874,#875,#876,#877,
#878,#879,#880,#881,#882,#883,#884,#885,#886,#887,#888,#889,#890,#891,#892,
#893,#894,#895,#896,#897,#898,#899,#900,#901,#902,#903,#904,#905,#906,#907,
#908,#909,#910,#911,#912,#913,#914,#915,#916));
#918=STYLED_ITEM('',(#919),#926);
#919=PRESENTATION_STYLE_ASSIGNMENT((#920));
#920=SURFACE_STYLE_USAGE(.BOTH.,#921);
#921=SURFACE_SIDE_STYLE('',(#922));
#922=SURFACE_STYLE_FILL_AREA(#923);
#923=FILL_AREA_STYLE('',(#924));
#924=FILL_AREA_STYLE_COLOUR('',#925);
#925=COLOUR_RGB('',0.980392156862745,0.713725490196078,0.00392156862745098);
#926=MANIFOLD_SOLID_BREP('Part 15',#917);
#927=SHAPE_DEFINITION_REPRESENTATION(#1691,#928);
#928=SHAPE_REPRESENTATION('Part 15',(#929),#1686);
#929=AXIS2_PLACEMENT_3D('',#1400,#1069,#1070);
#930=AXIS2_PLACEMENT_3D('',#1401,#1071,#1072);
#931=AXIS2_PLACEMENT_3D('',#1410,#1077,#1078);
#932=AXIS2_PLACEMENT_3D('',#1411,#1079,#1080);
#933=AXIS2_PLACEMENT_3D('',#1415,#1082,#1083);
#934=AXIS2_PLACEMENT_3D('',#1416,#1084,#1085);
#935=AXIS2_PLACEMENT_3D('',#1417,#1086,#1087);
#936=AXIS2_PLACEMENT_3D('',#1421,#1089,#1090);
#937=AXIS2_PLACEMENT_3D('',#1422,#1091,#1092);
#938=AXIS2_PLACEMENT_3D('',#1423,#1093,#1094);
#939=AXIS2_PLACEMENT_3D('',#1427,#1096,#1097);
#940=AXIS2_PLACEMENT_3D('',#1428,#1098,#1099);
#941=AXIS2_PLACEMENT_3D('',#1429,#1100,#1101);
#942=AXIS2_PLACEMENT_3D('',#1433,#1103,#1104);
#943=AXIS2_PLACEMENT_3D('',#1434,#1105,#1106);
#944=AXIS2_PLACEMENT_3D('',#1435,#1107,#1108);
#945=AXIS2_PLACEMENT_3D('',#1439,#1110,#1111);
#946=AXIS2_PLACEMENT_3D('',#1440,#1112,#1113);
#947=AXIS2_PLACEMENT_3D('',#1441,#1114,#1115);
#948=AXIS2_PLACEMENT_3D('',#1445,#1117,#1118);
#949=AXIS2_PLACEMENT_3D('',#1446,#1119,#1120);
#950=AXIS2_PLACEMENT_3D('',#1447,#1121,#1122);
#951=AXIS2_PLACEMENT_3D('',#1451,#1124,#1125);
#952=AXIS2_PLACEMENT_3D('',#1452,#1126,#1127);
#953=AXIS2_PLACEMENT_3D('',#1453,#1128,#1129);
#954=AXIS2_PLACEMENT_3D('',#1457,#1131,#1132);
#955=AXIS2_PLACEMENT_3D('',#1458,#1133,#1134);
#956=AXIS2_PLACEMENT_3D('',#1459,#1135,#1136);
#957=AXIS2_PLACEMENT_3D('',#1463,#1138,#1139);
#958=AXIS2_PLACEMENT_3D('',#1464,#1140,#1141);
#959=AXIS2_PLACEMENT_3D('',#1465,#1142,#1143);
#960=AXIS2_PLACEMENT_3D('',#1469,#1145,#1146);
#961=AXIS2_PLACEMENT_3D('',#1470,#1147,#1148);
#962=AXIS2_PLACEMENT_3D('',#1471,#1149,#1150);
#963=AXIS2_PLACEMENT_3D('',#1475,#1152,#1153);
#964=AXIS2_PLACEMENT_3D('',#1476,#1154,#1155);
#965=AXIS2_PLACEMENT_3D('',#1477,#1156,#1157);
#966=AXIS2_PLACEMENT_3D('',#1481,#1159,#1160);
#967=AXIS2_PLACEMENT_3D('',#1482,#1161,#1162);
#968=AXIS2_PLACEMENT_3D('',#1483,#1163,#1164);
#969=AXIS2_PLACEMENT_3D('',#1487,#1166,#1167);
#970=AXIS2_PLACEMENT_3D('',#1488,#1168,#1169);
#971=AXIS2_PLACEMENT_3D('',#1489,#1170,#1171);
#972=AXIS2_PLACEMENT_3D('',#1493,#1173,#1174);
#973=AXIS2_PLACEMENT_3D('',#1494,#1175,#1176);
#974=AXIS2_PLACEMENT_3D('',#1495,#1177,#1178);
#975=AXIS2_PLACEMENT_3D('',#1499,#1180,#1181);
#976=AXIS2_PLACEMENT_3D('',#1500,#1182,#1183);
#977=AXIS2_PLACEMENT_3D('',#1501,#1184,#1185);
#978=AXIS2_PLACEMENT_3D('',#1505,#1187,#1188);
#979=AXIS2_PLACEMENT_3D('',#1506,#1189,#1190);
#980=AXIS2_PLACEMENT_3D('',#1507,#1191,#1192);
#981=AXIS2_PLACEMENT_3D('',#1511,#1194,#1195);
#982=AXIS2_PLACEMENT_3D('',#1512,#1196,#1197);
#983=AXIS2_PLACEMENT_3D('',#1513,#1198,#1199);
#984=AXIS2_PLACEMENT_3D('',#1517,#1201,#1202);
#985=AXIS2_PLACEMENT_3D('',#1518,#1203,#1204);
#986=AXIS2_PLACEMENT_3D('',#1519,#1205,#1206);
#987=AXIS2_PLACEMENT_3D('',#1523,#1208,#1209);
#988=AXIS2_PLACEMENT_3D('',#1524,#1210,#1211);
#989=AXIS2_PLACEMENT_3D('',#1525,#1212,#1213);
#990=AXIS2_PLACEMENT_3D('',#1529,#1215,#1216);
#991=AXIS2_PLACEMENT_3D('',#1530,#1217,#1218);
#992=AXIS2_PLACEMENT_3D('',#1531,#1219,#1220);
#993=AXIS2_PLACEMENT_3D('',#1535,#1222,#1223);
#994=AXIS2_PLACEMENT_3D('',#1536,#1224,#1225);
#995=AXIS2_PLACEMENT_3D('',#1537,#1226,#1227);
#996=AXIS2_PLACEMENT_3D('',#1541,#1229,#1230);
#997=AXIS2_PLACEMENT_3D('',#1542,#1231,#1232);
#998=AXIS2_PLACEMENT_3D('',#1543,#1233,#1234);
#999=AXIS2_PLACEMENT_3D('',#1547,#1236,#1237);
#1000=AXIS2_PLACEMENT_3D('',#1548,#1238,#1239);
#1001=AXIS2_PLACEMENT_3D('',#1549,#1240,#1241);
#1002=AXIS2_PLACEMENT_3D('',#1553,#1243,#1244);
#1003=AXIS2_PLACEMENT_3D('',#1554,#1245,#1246);
#1004=AXIS2_PLACEMENT_3D('',#1555,#1247,#1248);
#1005=AXIS2_PLACEMENT_3D('',#1559,#1250,#1251);
#1006=AXIS2_PLACEMENT_3D('',#1560,#1252,#1253);
#1007=AXIS2_PLACEMENT_3D('',#1561,#1254,#1255);
#1008=AXIS2_PLACEMENT_3D('',#1565,#1257,#1258);
#1009=AXIS2_PLACEMENT_3D('',#1566,#1259,#1260);
#1010=AXIS2_PLACEMENT_3D('',#1567,#1261,#1262);
#1011=AXIS2_PLACEMENT_3D('',#1571,#1264,#1265);
#1012=AXIS2_PLACEMENT_3D('',#1572,#1266,#1267);
#1013=AXIS2_PLACEMENT_3D('',#1573,#1268,#1269);
#1014=AXIS2_PLACEMENT_3D('',#1577,#1271,#1272);
#1015=AXIS2_PLACEMENT_3D('',#1578,#1273,#1274);
#1016=AXIS2_PLACEMENT_3D('',#1579,#1275,#1276);
#1017=AXIS2_PLACEMENT_3D('',#1583,#1278,#1279);
#1018=AXIS2_PLACEMENT_3D('',#1584,#1280,#1281);
#1019=AXIS2_PLACEMENT_3D('',#1590,#1285,#1286);
#1020=AXIS2_PLACEMENT_3D('',#1591,#1287,#1288);
#1021=AXIS2_PLACEMENT_3D('',#1595,#1290,#1291);
#1022=AXIS2_PLACEMENT_3D('',#1596,#1292,#1293);
#1023=AXIS2_PLACEMENT_3D('',#1597,#1294,#1295);
#1024=AXIS2_PLACEMENT_3D('',#1601,#1297,#1298);
#1025=AXIS2_PLACEMENT_3D('',#1602,#1299,#1300);
#1026=AXIS2_PLACEMENT_3D('',#1603,#1301,#1302);
#1027=AXIS2_PLACEMENT_3D('',#1607,#1304,#1305);
#1028=AXIS2_PLACEMENT_3D('',#1608,#1306,#1307);
#1029=AXIS2_PLACEMENT_3D('',#1609,#1308,#1309);
#1030=AXIS2_PLACEMENT_3D('',#1613,#1311,#1312);
#1031=AXIS2_PLACEMENT_3D('',#1614,#1313,#1314);
#1032=AXIS2_PLACEMENT_3D('',#1615,#1315,#1316);
#1033=AXIS2_PLACEMENT_3D('',#1619,#1318,#1319);
#1034=AXIS2_PLACEMENT_3D('',#1620,#1320,#1321);
#1035=AXIS2_PLACEMENT_3D('',#1621,#1322,#1323);
#1036=AXIS2_PLACEMENT_3D('',#1625,#1325,#1326);
#1037=AXIS2_PLACEMENT_3D('',#1626,#1327,#1328);
#1038=AXIS2_PLACEMENT_3D('',#1627,#1329,#1330);
#1039=AXIS2_PLACEMENT_3D('',#1631,#1332,#1333);
#1040=AXIS2_PLACEMENT_3D('',#1632,#1334,#1335);
#1041=AXIS2_PLACEMENT_3D('',#1633,#1336,#1337);
#1042=AXIS2_PLACEMENT_3D('',#1637,#1339,#1340);
#1043=AXIS2_PLACEMENT_3D('',#1638,#1341,#1342);
#1044=AXIS2_PLACEMENT_3D('',#1639,#1343,#1344);
#1045=AXIS2_PLACEMENT_3D('',#1643,#1346,#1347);
#1046=AXIS2_PLACEMENT_3D('',#1644,#1348,#1349);
#1047=AXIS2_PLACEMENT_3D('',#1645,#1350,#1351);
#1048=AXIS2_PLACEMENT_3D('',#1649,#1353,#1354);
#1049=AXIS2_PLACEMENT_3D('',#1650,#1355,#1356);
#1050=AXIS2_PLACEMENT_3D('',#1651,#1357,#1358);
#1051=AXIS2_PLACEMENT_3D('',#1655,#1360,#1361);
#1052=AXIS2_PLACEMENT_3D('',#1656,#1362,#1363);
#1053=AXIS2_PLACEMENT_3D('',#1657,#1364,#1365);
#1054=AXIS2_PLACEMENT_3D('',#1661,#1367,#1368);
#1055=AXIS2_PLACEMENT_3D('',#1662,#1369,#1370);
#1056=AXIS2_PLACEMENT_3D('',#1663,#1371,#1372);
#1057=AXIS2_PLACEMENT_3D('',#1667,#1374,#1375);
#1058=AXIS2_PLACEMENT_3D('',#1668,#1376,#1377);
#1059=AXIS2_PLACEMENT_3D('',#1669,#1378,#1379);
#1060=AXIS2_PLACEMENT_3D('',#1673,#1381,#1382);
#1061=AXIS2_PLACEMENT_3D('',#1674,#1383,#1384);
#1062=AXIS2_PLACEMENT_3D('',#1675,#1385,#1386);
#1063=AXIS2_PLACEMENT_3D('',#1679,#1388,#1389);
#1064=AXIS2_PLACEMENT_3D('',#1680,#1390,#1391);
#1065=AXIS2_PLACEMENT_3D('',#1681,#1392,#1393);
#1066=AXIS2_PLACEMENT_3D('',#1682,#1394,#1395);
#1067=AXIS2_PLACEMENT_3D('',#1683,#1396,#1397);
#1068=AXIS2_PLACEMENT_3D('',#1684,#1398,#1399);
#1069=DIRECTION('',(0.,0.,1.));
#1070=DIRECTION('',(1.,0.,0.));
#1071=DIRECTION('',(1.,9.08232186375291E-17,-5.56131819963552E-33));
#1072=DIRECTION('',(-5.56131819963552E-33,1.22464679914735E-16,1.));
#1073=DIRECTION('',(-9.08232186375291E-17,1.,-1.22464679914735E-16));
#1074=DIRECTION('',(-5.56131819963552E-33,1.22464679914735E-16,1.));
#1075=DIRECTION('',(-9.08232186375291E-17,1.,-1.22464679914735E-16));
#1076=DIRECTION('',(-5.56131819963552E-33,1.22464679914735E-16,1.));
#1077=DIRECTION('',(-5.56131819963552E-33,1.22464679914735E-16,1.));
#1078=DIRECTION('',(-1.,-9.08232186375291E-17,5.56131819963552E-33));
#1079=DIRECTION('',(-5.56131819963552E-33,1.22464679914735E-16,1.));
#1080=DIRECTION('',(1.,9.08232186375291E-17,-5.56131819963552E-33));
#1081=DIRECTION('',(-5.56131819963552E-33,1.22464679914735E-16,1.));
#1082=DIRECTION('',(-5.56131819963552E-33,1.22464679914735E-16,1.));
#1083=DIRECTION('',(1.,9.08232186375291E-17,-5.56131819963552E-33));
#1084=DIRECTION('',(-5.56131819963552E-33,1.22464679914735E-16,1.));
#1085=DIRECTION('',(-1.,-9.08232186375291E-17,5.56131819963552E-33));
#1086=DIRECTION('',(5.56131819963552E-33,-1.22464679914735E-16,-1.));
#1087=DIRECTION('',(1.,9.08232186375291E-17,-5.56131819963552E-33));
#1088=DIRECTION('',(-5.56131819963552E-33,1.22464679914735E-16,1.));
#1089=DIRECTION('',(5.56131819963552E-33,-1.22464679914735E-16,-1.));
#1090=DIRECTION('',(1.,9.08232186375291E-17,-5.56131819963552E-33));
#1091=DIRECTION('',(-5.56131819963552E-33,1.22464679914735E-16,1.));
#1092=DIRECTION('',(-1.,-9.08232186375291E-17,5.56131819963552E-33));
#1093=DIRECTION('',(5.56131819963552E-33,-1.22464679914735E-16,-1.));
#1094=DIRECTION('',(1.,9.08232186375291E-17,-5.56131819963552E-33));
#1095=DIRECTION('',(-5.56131819963552E-33,1.22464679914735E-16,1.));
#1096=DIRECTION('',(5.56131819963552E-33,-1.22464679914735E-16,-1.));
#1097=DIRECTION('',(1.,9.08232186375291E-17,-5.56131819963552E-33));
#1098=DIRECTION('',(-5.56131819963552E-33,1.22464679914735E-16,1.));
#1099=DIRECTION('',(-1.,-9.08232186375291E-17,5.56131819963552E-33));
#1100=DIRECTION('',(5.56131819963552E-33,-1.22464679914735E-16,-1.));
#1101=DIRECTION('',(1.,9.08232186375291E-17,-5.56131819963552E-33));
#1102=DIRECTION('',(-5.56131819963552E-33,1.22464679914735E-16,1.));
#1103=DIRECTION('',(5.56131819963552E-33,-1.22464679914735E-16,-1.));
#1104=DIRECTION('',(1.,9.08232186375291E-17,-5.56131819963552E-33));
#1105=DIRECTION('',(-5.56131819963552E-33,1.22464679914735E-16,1.));
#1106=DIRECTION('',(-1.,-9.08232186375291E-17,5.56131819963552E-33));
#1107=DIRECTION('',(5.56131819963552E-33,-1.22464679914735E-16,-1.));
#1108=DIRECTION('',(1.,9.08232186375291E-17,-5.56131819963552E-33));
#1109=DIRECTION('',(-5.56131819963552E-33,1.22464679914735E-16,1.));
#1110=DIRECTION('',(5.56131819963552E-33,-1.22464679914735E-16,-1.));
#1111=DIRECTION('',(1.,9.08232186375291E-17,-5.56131819963552E-33));
#1112=DIRECTION('',(-5.56131819963552E-33,1.22464679914735E-16,1.));
#1113=DIRECTION('',(-1.,-9.08232186375291E-17,5.56131819963552E-33));
#1114=DIRECTION('',(5.56131819963552E-33,-1.22464679914735E-16,-1.));
#1115=DIRECTION('',(1.,9.08232186375291E-17,-5.56131819963552E-33));
#1116=DIRECTION('',(-5.56131819963552E-33,1.22464679914735E-16,1.));
#1117=DIRECTION('',(5.56131819963552E-33,-1.22464679914735E-16,-1.));
#1118=DIRECTION('',(1.,9.08232186375291E-17,-5.56131819963552E-33));
#1119=DIRECTION('',(-5.56131819963552E-33,1.22464679914735E-16,1.));
#1120=DIRECTION('',(-1.,-9.08232186375291E-17,5.56131819963552E-33));
#1121=DIRECTION('',(5.56131819963552E-33,-1.22464679914735E-16,-1.));
#1122=DIRECTION('',(1.,9.08232186375291E-17,-5.56131819963552E-33));
#1123=DIRECTION('',(-5.56131819963552E-33,1.22464679914735E-16,1.));
#1124=DIRECTION('',(5.56131819963552E-33,-1.22464679914735E-16,-1.));
#1125=DIRECTION('',(1.,9.08232186375291E-17,-5.56131819963552E-33));
#1126=DIRECTION('',(-5.56131819963552E-33,1.22464679914735E-16,1.));
#1127=DIRECTION('',(-1.,-9.08232186375291E-17,5.56131819963552E-33));
#1128=DIRECTION('',(5.56131819963552E-33,-1.22464679914735E-16,-1.));
#1129=DIRECTION('',(1.,9.08232186375291E-17,-5.56131819963552E-33));
#1130=DIRECTION('',(-5.56131819963552E-33,1.22464679914735E-16,1.));
#1131=DIRECTION('',(5.56131819963552E-33,-1.22464679914735E-16,-1.));
#1132=DIRECTION('',(1.,9.08232186375291E-17,-5.56131819963552E-33));
#1133=DIRECTION('',(-5.56131819963552E-33,1.22464679914735E-16,1.));
#1134=DIRECTION('',(-1.,-9.08232186375291E-17,5.56131819963552E-33));
#1135=DIRECTION('',(5.56131819963552E-33,-1.22464679914735E-16,-1.));
#1136=DIRECTION('',(1.,9.08232186375291E-17,-5.56131819963552E-33));
#1137=DIRECTION('',(-5.56131819963552E-33,1.22464679914735E-16,1.));
#1138=DIRECTION('',(5.56131819963552E-33,-1.22464679914735E-16,-1.));
#1139=DIRECTION('',(1.,9.08232186375291E-17,-5.56131819963552E-33));
#1140=DIRECTION('',(-5.56131819963552E-33,1.22464679914735E-16,1.));
#1141=DIRECTION('',(-1.,-9.08232186375291E-17,5.56131819963552E-33));
#1142=DIRECTION('',(-5.56131819963552E-33,1.22464679914735E-16,1.));
#1143=DIRECTION('',(1.,9.08232186375291E-17,-5.56131819963552E-33));
#1144=DIRECTION('',(-5.56131819963552E-33,1.22464679914735E-16,1.));
#1145=DIRECTION('',(-5.56131819963552E-33,1.22464679914735E-16,1.));
#1146=DIRECTION('',(1.,9.08232186375291E-17,-5.56131819963552E-33));
#1147=DIRECTION('',(-5.56131819963552E-33,1.22464679914735E-16,1.));
#1148=DIRECTION('',(-1.,-9.08232186375291E-17,5.56131819963552E-33));
#1149=DIRECTION('',(-5.56131819963552E-33,1.22464679914735E-16,1.));
#1150=DIRECTION('',(1.,9.08232186375291E-17,-5.56131819963552E-33));
#1151=DIRECTION('',(-5.56131819963552E-33,1.22464679914735E-16,1.));
#1152=DIRECTION('',(-5.56131819963552E-33,1.22464679914735E-16,1.));
#1153=DIRECTION('',(1.,9.08232186375291E-17,-5.56131819963552E-33));
#1154=DIRECTION('',(-5.56131819963552E-33,1.22464679914735E-16,1.));
#1155=DIRECTION('',(-1.,-9.08232186375291E-17,5.56131819963552E-33));
#1156=DIRECTION('',(-5.56131819963552E-33,1.22464679914735E-16,1.));
#1157=DIRECTION('',(1.,9.08232186375291E-17,-5.56131819963552E-33));
#1158=DIRECTION('',(-5.56131819963552E-33,1.22464679914735E-16,1.));
#1159=DIRECTION('',(-5.56131819963552E-33,1.22464679914735E-16,1.));
#1160=DIRECTION('',(1.,9.08232186375291E-17,-5.56131819963552E-33));
#1161=DIRECTION('',(-5.56131819963552E-33,1.22464679914735E-16,1.));
#1162=DIRECTION('',(-1.,-9.08232186375291E-17,5.56131819963552E-33));
#1163=DIRECTION('',(-5.56131819963552E-33,1.22464679914735E-16,1.));
#1164=DIRECTION('',(1.,9.08232186375291E-17,-5.56131819963552E-33));
#1165=DIRECTION('',(-5.56131819963552E-33,1.22464679914735E-16,1.));
#1166=DIRECTION('',(-5.56131819963552E-33,1.22464679914735E-16,1.));
#1167=DIRECTION('',(1.,9.08232186375291E-17,-5.56131819963552E-33));
#1168=DIRECTION('',(-5.56131819963552E-33,1.22464679914735E-16,1.));
#1169=DIRECTION('',(-1.,-9.08232186375291E-17,5.56131819963552E-33));
#1170=DIRECTION('',(5.56131819963552E-33,-1.22464679914735E-16,-1.));
#1171=DIRECTION('',(1.,9.08232186375291E-17,-5.56131819963552E-33));
#1172=DIRECTION('',(-5.56131819963552E-33,1.22464679914735E-16,1.));
#1173=DIRECTION('',(5.56131819963552E-33,-1.22464679914735E-16,-1.));
#1174=DIRECTION('',(1.,9.08232186375291E-17,-5.56131819963552E-33));
#1175=DIRECTION('',(-5.56131819963552E-33,1.22464679914735E-16,1.));
#1176=DIRECTION('',(-1.,-9.08232186375291E-17,5.56131819963552E-33));
#1177=DIRECTION('',(5.56131819963552E-33,-1.22464679914735E-16,-1.));
#1178=DIRECTION('',(1.,9.08232186375291E-17,-5.56131819963552E-33));
#1179=DIRECTION('',(-5.56131819963552E-33,1.22464679914735E-16,1.));
#1180=DIRECTION('',(5.56131819963552E-33,-1.22464679914735E-16,-1.));
#1181=DIRECTION('',(1.,9.08232186375291E-17,-5.56131819963552E-33));
#1182=DIRECTION('',(-5.56131819963552E-33,1.22464679914735E-16,1.));
#1183=DIRECTION('',(-1.,-9.08232186375291E-17,5.56131819963552E-33));
#1184=DIRECTION('',(5.56131819963552E-33,-1.22464679914735E-16,-1.));
#1185=DIRECTION('',(1.,9.08232186375291E-17,-5.56131819963552E-33));
#1186=DIRECTION('',(-5.56131819963552E-33,1.22464679914735E-16,1.));
#1187=DIRECTION('',(5.56131819963552E-33,-1.22464679914735E-16,-1.));
#1188=DIRECTION('',(1.,9.08232186375291E-17,-5.56131819963552E-33));
#1189=DIRECTION('',(-5.56131819963552E-33,1.22464679914735E-16,1.));
#1190=DIRECTION('',(-1.,-9.08232186375291E-17,5.56131819963552E-33));
#1191=DIRECTION('',(5.56131819963552E-33,-1.22464679914735E-16,-1.));
#1192=DIRECTION('',(1.,9.08232186375291E-17,-5.56131819963552E-33));
#1193=DIRECTION('',(-5.56131819963552E-33,1.22464679914735E-16,1.));
#1194=DIRECTION('',(5.56131819963552E-33,-1.22464679914735E-16,-1.));
#1195=DIRECTION('',(1.,9.08232186375291E-17,-5.56131819963552E-33));
#1196=DIRECTION('',(-5.56131819963552E-33,1.22464679914735E-16,1.));
#1197=DIRECTION('',(-1.,-9.08232186375291E-17,5.56131819963552E-33));
#1198=DIRECTION('',(5.56131819963552E-33,-1.22464679914735E-16,-1.));
#1199=DIRECTION('',(1.,9.08232186375291E-17,-5.56131819963552E-33));
#1200=DIRECTION('',(-5.56131819963552E-33,1.22464679914735E-16,1.));
#1201=DIRECTION('',(5.56131819963552E-33,-1.22464679914735E-16,-1.));
#1202=DIRECTION('',(1.,9.08232186375291E-17,-5.56131819963552E-33));
#1203=DIRECTION('',(-5.56131819963552E-33,1.22464679914735E-16,1.));
#1204=DIRECTION('',(-1.,-9.08232186375291E-17,5.56131819963552E-33));
#1205=DIRECTION('',(5.56131819963552E-33,-1.22464679914735E-16,-1.));
#1206=DIRECTION('',(1.,9.08232186375291E-17,-5.56131819963552E-33));
#1207=DIRECTION('',(-5.56131819963552E-33,1.22464679914735E-16,1.));
#1208=DIRECTION('',(5.56131819963552E-33,-1.22464679914735E-16,-1.));
#1209=DIRECTION('',(1.,9.08232186375291E-17,-5.56131819963552E-33));
#1210=DIRECTION('',(-5.56131819963552E-33,1.22464679914735E-16,1.));
#1211=DIRECTION('',(-1.,-9.08232186375291E-17,5.56131819963552E-33));
#1212=DIRECTION('',(5.56131819963552E-33,-1.22464679914735E-16,-1.));
#1213=DIRECTION('',(1.,9.08232186375291E-17,-5.56131819963552E-33));
#1214=DIRECTION('',(-5.56131819963552E-33,1.22464679914735E-16,1.));
#1215=DIRECTION('',(5.56131819963552E-33,-1.22464679914735E-16,-1.));
#1216=DIRECTION('',(1.,9.08232186375291E-17,-5.56131819963552E-33));
#1217=DIRECTION('',(-5.56131819963552E-33,1.22464679914735E-16,1.));
#1218=DIRECTION('',(-1.,-9.08232186375291E-17,5.56131819963552E-33));
#1219=DIRECTION('',(5.56131819963552E-33,-1.22464679914735E-16,-1.));
#1220=DIRECTION('',(1.,9.08232186375291E-17,-5.56131819963552E-33));
#1221=DIRECTION('',(-5.56131819963552E-33,1.22464679914735E-16,1.));
#1222=DIRECTION('',(5.56131819963552E-33,-1.22464679914735E-16,-1.));
#1223=DIRECTION('',(1.,9.08232186375291E-17,-5.56131819963552E-33));
#1224=DIRECTION('',(-5.56131819963552E-33,1.22464679914735E-16,1.));
#1225=DIRECTION('',(-1.,-9.08232186375291E-17,5.56131819963552E-33));
#1226=DIRECTION('',(5.56131819963552E-33,-1.22464679914735E-16,-1.));
#1227=DIRECTION('',(1.,9.08232186375291E-17,-5.56131819963552E-33));
#1228=DIRECTION('',(-5.56131819963552E-33,1.22464679914735E-16,1.));
#1229=DIRECTION('',(5.56131819963552E-33,-1.22464679914735E-16,-1.));
#1230=DIRECTION('',(1.,9.08232186375291E-17,-5.56131819963552E-33));
#1231=DIRECTION('',(-5.56131819963552E-33,1.22464679914735E-16,1.));
#1232=DIRECTION('',(-1.,-9.08232186375291E-17,5.56131819963552E-33));
#1233=DIRECTION('',(5.56131819963552E-33,-1.22464679914735E-16,-1.));
#1234=DIRECTION('',(1.,9.08232186375291E-17,-5.56131819963552E-33));
#1235=DIRECTION('',(-5.56131819963552E-33,1.22464679914735E-16,1.));
#1236=DIRECTION('',(5.56131819963552E-33,-1.22464679914735E-16,-1.));
#1237=DIRECTION('',(1.,9.08232186375291E-17,-5.56131819963552E-33));
#1238=DIRECTION('',(-5.56131819963552E-33,1.22464679914735E-16,1.));
#1239=DIRECTION('',(-1.,-9.08232186375291E-17,5.56131819963552E-33));
#1240=DIRECTION('',(5.56131819963552E-33,-1.22464679914735E-16,-1.));
#1241=DIRECTION('',(1.,9.08232186375291E-17,-5.56131819963552E-33));
#1242=DIRECTION('',(-5.56131819963552E-33,1.22464679914735E-16,1.));
#1243=DIRECTION('',(5.56131819963552E-33,-1.22464679914735E-16,-1.));
#1244=DIRECTION('',(1.,9.08232186375291E-17,-5.56131819963552E-33));
#1245=DIRECTION('',(-5.56131819963552E-33,1.22464679914735E-16,1.));
#1246=DIRECTION('',(-1.,-9.08232186375291E-17,5.56131819963552E-33));
#1247=DIRECTION('',(5.56131819963552E-33,-1.22464679914735E-16,-1.));
#1248=DIRECTION('',(1.,9.08232186375291E-17,-5.56131819963552E-33));
#1249=DIRECTION('',(-5.56131819963552E-33,1.22464679914735E-16,1.));
#1250=DIRECTION('',(5.56131819963552E-33,-1.22464679914735E-16,-1.));
#1251=DIRECTION('',(1.,9.08232186375291E-17,-5.56131819963552E-33));
#1252=DIRECTION('',(-5.56131819963552E-33,1.22464679914735E-16,1.));
#1253=DIRECTION('',(-1.,-9.08232186375291E-17,5.56131819963552E-33));
#1254=DIRECTION('',(5.56131819963552E-33,-1.22464679914735E-16,-1.));
#1255=DIRECTION('',(1.,9.08232186375291E-17,-5.56131819963552E-33));
#1256=DIRECTION('',(-5.56131819963552E-33,1.22464679914735E-16,1.));
#1257=DIRECTION('',(5.56131819963552E-33,-1.22464679914735E-16,-1.));
#1258=DIRECTION('',(1.,9.08232186375291E-17,-5.56131819963552E-33));
#1259=DIRECTION('',(-5.56131819963552E-33,1.22464679914735E-16,1.));
#1260=DIRECTION('',(-1.,-9.08232186375291E-17,5.56131819963552E-33));
#1261=DIRECTION('',(5.56131819963552E-33,-1.22464679914735E-16,-1.));
#1262=DIRECTION('',(1.,9.08232186375291E-17,-5.56131819963552E-33));
#1263=DIRECTION('',(-5.56131819963552E-33,1.22464679914735E-16,1.));
#1264=DIRECTION('',(5.56131819963552E-33,-1.22464679914735E-16,-1.));
#1265=DIRECTION('',(1.,9.08232186375291E-17,-5.56131819963552E-33));
#1266=DIRECTION('',(-5.56131819963552E-33,1.22464679914735E-16,1.));
#1267=DIRECTION('',(-1.,-9.08232186375291E-17,5.56131819963552E-33));
#1268=DIRECTION('',(5.56131819963552E-33,-1.22464679914735E-16,-1.));
#1269=DIRECTION('',(1.,9.08232186375291E-17,-5.56131819963552E-33));
#1270=DIRECTION('',(-5.56131819963552E-33,1.22464679914735E-16,1.));
#1271=DIRECTION('',(5.56131819963552E-33,-1.22464679914735E-16,-1.));
#1272=DIRECTION('',(1.,9.08232186375291E-17,-5.56131819963552E-33));
#1273=DIRECTION('',(-5.56131819963552E-33,1.22464679914735E-16,1.));
#1274=DIRECTION('',(-1.,-9.08232186375291E-17,5.56131819963552E-33));
#1275=DIRECTION('',(5.56131819963552E-33,-1.22464679914735E-16,-1.));
#1276=DIRECTION('',(1.,9.08232186375291E-17,-5.56131819963552E-33));
#1277=DIRECTION('',(-5.56131819963552E-33,1.22464679914735E-16,1.));
#1278=DIRECTION('',(5.56131819963552E-33,-1.22464679914735E-16,-1.));
#1279=DIRECTION('',(1.,9.08232186375291E-17,-5.56131819963552E-33));
#1280=DIRECTION('',(1.,9.08232186375291E-17,-5.56131819963552E-33));
#1281=DIRECTION('',(-5.56131819963552E-33,1.22464679914735E-16,1.));
#1282=DIRECTION('',(-9.08232186375291E-17,1.,-1.22464679914735E-16));
#1283=DIRECTION('',(-5.56131819963552E-33,1.22464679914735E-16,1.));
#1284=DIRECTION('',(-9.08232186375291E-17,1.,-1.22464679914735E-16));
#1285=DIRECTION('',(-5.56131819963552E-33,1.22464679914735E-16,1.));
#1286=DIRECTION('',(-1.,-9.08232186375291E-17,5.56131819963552E-33));
#1287=DIRECTION('',(-5.56131819963552E-33,1.22464679914735E-16,1.));
#1288=DIRECTION('',(1.,9.08232186375291E-17,-5.56131819963552E-33));
#1289=DIRECTION('',(-5.56131819963552E-33,1.22464679914735E-16,1.));
#1290=DIRECTION('',(-5.56131819963552E-33,1.22464679914735E-16,1.));
#1291=DIRECTION('',(1.,9.08232186375291E-17,-5.56131819963552E-33));
#1292=DIRECTION('',(-5.56131819963552E-33,1.22464679914735E-16,1.));
#1293=DIRECTION('',(-1.,-9.08232186375291E-17,5.56131819963552E-33));
#1294=DIRECTION('',(5.56131819963552E-33,-1.22464679914735E-16,-1.));
#1295=DIRECTION('',(1.,9.08232186375291E-17,-5.56131819963552E-33));
#1296=DIRECTION('',(-5.56131819963552E-33,1.22464679914735E-16,1.));
#1297=DIRECTION('',(5.56131819963552E-33,-1.22464679914735E-16,-1.));
#1298=DIRECTION('',(1.,9.08232186375291E-17,-5.56131819963552E-33));
#1299=DIRECTION('',(-5.56131819963552E-33,1.22464679914735E-16,1.));
#1300=DIRECTION('',(-1.,-9.08232186375291E-17,5.56131819963552E-33));
#1301=DIRECTION('',(5.56131819963552E-33,-1.22464679914735E-16,-1.));
#1302=DIRECTION('',(1.,9.08232186375291E-17,-5.56131819963552E-33));
#1303=DIRECTION('',(-5.56131819963552E-33,1.22464679914735E-16,1.));
#1304=DIRECTION('',(5.56131819963552E-33,-1.22464679914735E-16,-1.));
#1305=DIRECTION('',(1.,9.08232186375291E-17,-5.56131819963552E-33));
#1306=DIRECTION('',(-5.56131819963552E-33,1.22464679914735E-16,1.));
#1307=DIRECTION('',(-1.,-9.08232186375291E-17,5.56131819963552E-33));
#1308=DIRECTION('',(5.56131819963552E-33,-1.22464679914735E-16,-1.));
#1309=DIRECTION('',(1.,9.08232186375291E-17,-5.56131819963552E-33));
#1310=DIRECTION('',(-5.56131819963552E-33,1.22464679914735E-16,1.));
#1311=DIRECTION('',(5.56131819963552E-33,-1.22464679914735E-16,-1.));
#1312=DIRECTION('',(1.,9.08232186375291E-17,-5.56131819963552E-33));
#1313=DIRECTION('',(-5.56131819963552E-33,1.22464679914735E-16,1.));
#1314=DIRECTION('',(-1.,-9.08232186375291E-17,5.56131819963552E-33));
#1315=DIRECTION('',(5.56131819963552E-33,-1.22464679914735E-16,-1.));
#1316=DIRECTION('',(1.,9.08232186375291E-17,-5.56131819963552E-33));
#1317=DIRECTION('',(-5.56131819963552E-33,1.22464679914735E-16,1.));
#1318=DIRECTION('',(5.56131819963552E-33,-1.22464679914735E-16,-1.));
#1319=DIRECTION('',(1.,9.08232186375291E-17,-5.56131819963552E-33));
#1320=DIRECTION('',(-5.56131819963552E-33,1.22464679914735E-16,1.));
#1321=DIRECTION('',(-1.,-9.08232186375291E-17,5.56131819963552E-33));
#1322=DIRECTION('',(-5.56131819963552E-33,1.22464679914735E-16,1.));
#1323=DIRECTION('',(1.,9.08232186375291E-17,-5.56131819963552E-33));
#1324=DIRECTION('',(-5.56131819963552E-33,1.22464679914735E-16,1.));
#1325=DIRECTION('',(-5.56131819963552E-33,1.22464679914735E-16,1.));
#1326=DIRECTION('',(1.,9.08232186375291E-17,-5.56131819963552E-33));
#1327=DIRECTION('',(-5.56131819963552E-33,1.22464679914735E-16,1.));
#1328=DIRECTION('',(-1.,-9.08232186375291E-17,5.56131819963552E-33));
#1329=DIRECTION('',(-5.56131819963552E-33,1.22464679914735E-16,1.));
#1330=DIRECTION('',(1.,9.08232186375291E-17,-5.56131819963552E-33));
#1331=DIRECTION('',(-5.56131819963552E-33,1.22464679914735E-16,1.));
#1332=DIRECTION('',(-5.56131819963552E-33,1.22464679914735E-16,1.));
#1333=DIRECTION('',(1.,9.08232186375291E-17,-5.56131819963552E-33));
#1334=DIRECTION('',(-5.56131819963552E-33,1.22464679914735E-16,1.));
#1335=DIRECTION('',(-1.,-9.08232186375291E-17,5.56131819963552E-33));
#1336=DIRECTION('',(-5.56131819963552E-33,1.22464679914735E-16,1.));
#1337=DIRECTION('',(1.,9.08232186375291E-17,-5.56131819963552E-33));
#1338=DIRECTION('',(-5.56131819963552E-33,1.22464679914735E-16,1.));
#1339=DIRECTION('',(-5.56131819963552E-33,1.22464679914735E-16,1.));
#1340=DIRECTION('',(1.,9.08232186375291E-17,-5.56131819963552E-33));
#1341=DIRECTION('',(-5.56131819963552E-33,1.22464679914735E-16,1.));
#1342=DIRECTION('',(-1.,-9.08232186375291E-17,5.56131819963552E-33));
#1343=DIRECTION('',(-5.56131819963552E-33,1.22464679914735E-16,1.));
#1344=DIRECTION('',(1.,9.08232186375291E-17,-5.56131819963552E-33));
#1345=DIRECTION('',(-5.56131819963552E-33,1.22464679914735E-16,1.));
#1346=DIRECTION('',(-5.56131819963552E-33,1.22464679914735E-16,1.));
#1347=DIRECTION('',(1.,9.08232186375291E-17,-5.56131819963552E-33));
#1348=DIRECTION('',(-5.56131819963552E-33,1.22464679914735E-16,1.));
#1349=DIRECTION('',(-1.,-9.08232186375291E-17,5.56131819963552E-33));
#1350=DIRECTION('',(-5.56131819963552E-33,1.22464679914735E-16,1.));
#1351=DIRECTION('',(1.,9.08232186375291E-17,-5.56131819963552E-33));
#1352=DIRECTION('',(-5.56131819963552E-33,1.22464679914735E-16,1.));
#1353=DIRECTION('',(-5.56131819963552E-33,1.22464679914735E-16,1.));
#1354=DIRECTION('',(1.,9.08232186375291E-17,-5.56131819963552E-33));
#1355=DIRECTION('',(-5.56131819963552E-33,1.22464679914735E-16,1.));
#1356=DIRECTION('',(-1.,-9.08232186375291E-17,5.56131819963552E-33));
#1357=DIRECTION('',(-5.56131819963552E-33,1.22464679914735E-16,1.));
#1358=DIRECTION('',(1.,9.08232186375291E-17,-5.56131819963552E-33));
#1359=DIRECTION('',(-5.56131819963552E-33,1.22464679914735E-16,1.));
#1360=DIRECTION('',(-5.56131819963552E-33,1.22464679914735E-16,1.));
#1361=DIRECTION('',(1.,9.08232186375291E-17,-5.56131819963552E-33));
#1362=DIRECTION('',(-5.56131819963552E-33,1.22464679914735E-16,1.));
#1363=DIRECTION('',(-1.,-9.08232186375291E-17,5.56131819963552E-33));
#1364=DIRECTION('',(-5.56131819963552E-33,1.22464679914735E-16,1.));
#1365=DIRECTION('',(1.,9.08232186375291E-17,-5.56131819963552E-33));
#1366=DIRECTION('',(-5.56131819963552E-33,1.22464679914735E-16,1.));
#1367=DIRECTION('',(-5.56131819963552E-33,1.22464679914735E-16,1.));
#1368=DIRECTION('',(1.,9.08232186375291E-17,-5.56131819963552E-33));
#1369=DIRECTION('',(-5.56131819963552E-33,1.22464679914735E-16,1.));
#1370=DIRECTION('',(-1.,-9.08232186375291E-17,5.56131819963552E-33));
#1371=DIRECTION('',(-5.56131819963552E-33,1.22464679914735E-16,1.));
#1372=DIRECTION('',(1.,9.08232186375291E-17,-5.56131819963552E-33));
#1373=DIRECTION('',(-5.56131819963552E-33,1.22464679914735E-16,1.));
#1374=DIRECTION('',(-5.56131819963552E-33,1.22464679914735E-16,1.));
#1375=DIRECTION('',(1.,9.08232186375291E-17,-5.56131819963552E-33));
#1376=DIRECTION('',(-5.56131819963552E-33,1.22464679914735E-16,1.));
#1377=DIRECTION('',(-1.,-9.08232186375291E-17,5.56131819963552E-33));
#1378=DIRECTION('',(-5.56131819963552E-33,1.22464679914735E-16,1.));
#1379=DIRECTION('',(1.,9.08232186375291E-17,-5.56131819963552E-33));
#1380=DIRECTION('',(-5.56131819963552E-33,1.22464679914735E-16,1.));
#1381=DIRECTION('',(-5.56131819963552E-33,1.22464679914735E-16,1.));
#1382=DIRECTION('',(1.,9.08232186375291E-17,-5.56131819963552E-33));
#1383=DIRECTION('',(-5.56131819963552E-33,1.22464679914735E-16,1.));
#1384=DIRECTION('',(-1.,-9.08232186375291E-17,5.56131819963552E-33));
#1385=DIRECTION('',(-5.56131819963552E-33,1.22464679914735E-16,1.));
#1386=DIRECTION('',(1.,9.08232186375291E-17,-5.56131819963552E-33));
#1387=DIRECTION('',(-5.56131819963552E-33,1.22464679914735E-16,1.));
#1388=DIRECTION('',(-5.56131819963552E-33,1.22464679914735E-16,1.));
#1389=DIRECTION('',(1.,9.08232186375291E-17,-5.56131819963552E-33));
#1390=DIRECTION('',(-5.56131819963552E-33,1.22464679914735E-16,1.));
#1391=DIRECTION('',(-1.,-9.08232186375291E-17,5.56131819963552E-33));
#1392=DIRECTION('',(-5.56131819963552E-33,1.22464679914735E-16,1.));
#1393=DIRECTION('',(1.,9.08232186375291E-17,-5.56131819963552E-33));
#1394=DIRECTION('',(-5.56131819963552E-33,1.22464679914735E-16,1.));
#1395=DIRECTION('',(1.,9.08232186375291E-17,-5.56131819963552E-33));
#1396=DIRECTION('',(5.56131819963552E-33,-1.22464679914735E-16,-1.));
#1397=DIRECTION('',(1.,9.08232186375291E-17,-5.56131819963552E-33));
#1398=DIRECTION('',(5.56131819963552E-33,-1.22464679914735E-16,-1.));
#1399=DIRECTION('',(1.,9.08232186375291E-17,-5.56131819963552E-33));
#1400=CARTESIAN_POINT('',(0.,0.,0.));
#1401=CARTESIAN_POINT('',(-0.0650999999999982,0.00845019740235051,-0.0237999946391486));
#1402=CARTESIAN_POINT('',(-0.0650999999999982,0.00845019740235051,-0.0229999946391486));
#1403=CARTESIAN_POINT('',(-0.0650999999999982,0.00791949326028803,-0.0229999946391486));
#1404=CARTESIAN_POINT('',(-0.0650999999999982,0.008980901544413,-0.0229999946391486));
#1405=CARTESIAN_POINT('',(-0.0650999999999982,0.008980901544413,-0.0237999946391486));
#1406=CARTESIAN_POINT('',(-0.0650999999999982,0.008980901544413,-0.0237999946391486));
#1407=CARTESIAN_POINT('',(-0.0650999999999982,0.00845019740235051,-0.0237999946391486));
#1408=CARTESIAN_POINT('',(-0.0650999999999982,0.00791949326028803,-0.0237999946391486));
#1409=CARTESIAN_POINT('',(-0.0650999999999982,0.00791949326028803,-0.0237999946391486));
#1410=CARTESIAN_POINT('',(-0.0650394578407195,0.0109421578084198,-0.0237999946391486));
#1411=CARTESIAN_POINT('',(-0.0650394578407195,0.0109421578084198,-0.0229999946391486));
#1412=CARTESIAN_POINT('',(-0.0649239338733519,0.00898337101575459,-0.0229999946391486));
#1413=CARTESIAN_POINT('',(-0.0649239338733519,0.00898337101575459,-0.0237999946391486));
#1414=CARTESIAN_POINT('',(-0.0649239338733519,0.00898337101575459,-0.0237999946391486));
#1415=CARTESIAN_POINT('',(-0.0650394578407195,0.0109421578084198,-0.0237999946391486));
#1416=CARTESIAN_POINT('',(-0.0648640224396283,0.00796753224410039,-0.0237999946391486));
#1417=CARTESIAN_POINT('',(-0.0648640224396283,0.00796753224410039,-0.0229999946391486));
#1418=CARTESIAN_POINT('',(-0.064563900553984,0.00893987202197832,-0.0229999946391486));
#1419=CARTESIAN_POINT('',(-0.064563900553984,0.00893987202197832,-0.0237999946391486));
#1420=CARTESIAN_POINT('',(-0.064563900553984,0.00893987202197832,-0.0237999946391486));
#1421=CARTESIAN_POINT('',(-0.0648640224396283,0.00796753224410039,-0.0237999946391486));
#1422=CARTESIAN_POINT('',(-0.0657762049269369,0.0050122285507706,-0.0237999946391486));
#1423=CARTESIAN_POINT('',(-0.0657762049269369,0.0050122285507706,-0.0229999946391486));
#1424=CARTESIAN_POINT('',(-0.0640064946990199,0.00872224079317674,-0.0229999946391486));
#1425=CARTESIAN_POINT('',(-0.0640064946990199,0.00872224079317674,-0.0237999946391486));
#1426=CARTESIAN_POINT('',(-0.0640064946990199,0.00872224079317674,-0.0237999946391486));
#1427=CARTESIAN_POINT('',(-0.0657762049269369,0.0050122285507706,-0.0237999946391486));
#1428=CARTESIAN_POINT('',(-0.0665384832677494,0.00341419180332819,-0.0237999946391486));
#1429=CARTESIAN_POINT('',(-0.0665384832677494,0.00341419180332819,-0.0229999946391486));
#1430=CARTESIAN_POINT('',(-0.0633613295092403,0.00836313554774744,-0.0229999946391486));
#1431=CARTESIAN_POINT('',(-0.0633613295092403,0.00836313554774744,-0.0237999946391486));
#1432=CARTESIAN_POINT('',(-0.0633613295092403,0.00836313554774744,-0.0237999946391486));
#1433=CARTESIAN_POINT('',(-0.0665384832677494,0.00341419180332819,-0.0237999946391486));
#1434=CARTESIAN_POINT('',(-0.0687014192156711,4.5060454120808E-5,-0.0237999946391486));
#1435=CARTESIAN_POINT('',(-0.0687014192156711,4.50604541208082E-5,-0.0229999946391486));
#1436=CARTESIAN_POINT('',(-0.0626631942557042,0.0078710920582537,-0.0229999946391486));
#1437=CARTESIAN_POINT('',(-0.0626631942557042,0.0078710920582537,-0.0237999946391486));
#1438=CARTESIAN_POINT('',(-0.0626631942557042,0.0078710920582537,-0.0237999946391486));
#1439=CARTESIAN_POINT('',(-0.0687014192156711,4.5060454120808E-5,-0.0237999946391486));
#1440=CARTESIAN_POINT('',(-0.0664752216504734,0.00293039391184885,-0.0237999946391486));
#1441=CARTESIAN_POINT('',(-0.0664752216504734,0.00293039391184885,-0.0229999946391486));
#1442=CARTESIAN_POINT('',(-0.0621664345858763,0.00744441706911366,-0.0229999946391486));
#1443=CARTESIAN_POINT('',(-0.0621664345858763,0.00744441706911366,-0.0237999946391486));
#1444=CARTESIAN_POINT('',(-0.0621664345858763,0.00744441706911366,-0.0237999946391486));
#1445=CARTESIAN_POINT('',(-0.0664752216504734,0.00293039391184885,-0.0237999946391486));
#1446=CARTESIAN_POINT('',(-0.0648830930573517,0.00459835875461039,-0.0237999946391486));
#1447=CARTESIAN_POINT('',(-0.0648830930573517,0.00459835875461039,-0.0229999946391486));
#1448=CARTESIAN_POINT('',(-0.0617827289482684,0.00702075912847442,-0.0229999946391486));
#1449=CARTESIAN_POINT('',(-0.0617827289482684,0.00702075912847442,-0.0237999946391486));
#1450=CARTESIAN_POINT('',(-0.0617827289482684,0.00702075912847442,-0.0237999946391486));
#1451=CARTESIAN_POINT('',(-0.0648830930573517,0.00459835875461039,-0.0237999946391486));
#1452=CARTESIAN_POINT('',(-0.0648939738019127,0.00458985732743426,-0.0237999946391486));
#1453=CARTESIAN_POINT('',(-0.0648939738019127,0.00458985732743426,-0.0229999946391486));
#1454=CARTESIAN_POINT('',(-0.0614638337042094,0.00654517495272071,-0.0229999946391486));
#1455=CARTESIAN_POINT('',(-0.0614638337042094,0.00654517495272071,-0.0237999946391486));
#1456=CARTESIAN_POINT('',(-0.0614638337042094,0.00654517495272071,-0.0237999946391486));
#1457=CARTESIAN_POINT('',(-0.0648939738019127,0.00458985732743426,-0.0237999946391486));
#1458=CARTESIAN_POINT('',(-0.0669590371820694,0.00341268825866723,-0.0237999946391486));
#1459=CARTESIAN_POINT('',(-0.0669590371820694,0.00341268825866723,-0.0229999946391486));
#1460=CARTESIAN_POINT('',(-0.0611682309883031,0.0059575453819149,-0.0229999946391486));
#1461=CARTESIAN_POINT('',(-0.0611682309883031,0.0059575453819149,-0.0237999946391486));
#1462=CARTESIAN_POINT('',(-0.0611682309883031,0.0059575453819149,-0.0237999946391486));
#1463=CARTESIAN_POINT('',(-0.0669590371820694,0.00341268825866723,-0.0237999946391486));
#1464=CARTESIAN_POINT('',(-0.0566913550334163,0.00792497604397984,-0.0237999946391486));
#1465=CARTESIAN_POINT('',(-0.0566913550334163,0.00792497604397984,-0.0229999946391486));
#1466=CARTESIAN_POINT('',(-0.0610852212219325,0.00577855072664621,-0.0229999946391486));
#1467=CARTESIAN_POINT('',(-0.0610852212219325,0.00577855072664621,-0.0237999946391486));
#1468=CARTESIAN_POINT('',(-0.0610852212219325,0.00577855072664621,-0.0237999946391486));
#1469=CARTESIAN_POINT('',(-0.0566913550334163,0.00792497604397984,-0.0237999946391486));
#1470=CARTESIAN_POINT('',(-0.0575056416473614,0.0075271930144684,-0.0237999946391486));
#1471=CARTESIAN_POINT('',(-0.0575056416473614,0.0075271930144684,-0.0229999946391486));
#1472=CARTESIAN_POINT('',(-0.0609979884821251,0.00561025447420071,-0.0229999946391486));
#1473=CARTESIAN_POINT('',(-0.0609979884821251,0.00561025447420071,-0.0237999946391486));
#1474=CARTESIAN_POINT('',(-0.0609979884821251,0.00561025447420071,-0.0237999946391486));
#1475=CARTESIAN_POINT('',(-0.0575056416473614,0.0075271930144684,-0.0237999946391486));
#1476=CARTESIAN_POINT('',(-0.0577490798628896,0.00739357051945297,-0.0237999946391486));
#1477=CARTESIAN_POINT('',(-0.0577490798628896,0.00739357051945297,-0.0229999946391486));
#1478=CARTESIAN_POINT('',(-0.0609177546478559,0.00547130013251036,-0.0229999946391486));
#1479=CARTESIAN_POINT('',(-0.0609177546478559,0.00547130013251036,-0.0237999946391486));
#1480=CARTESIAN_POINT('',(-0.0609177546478559,0.00547130013251036,-0.0237999946391486));
#1481=CARTESIAN_POINT('',(-0.0577490798628896,0.00739357051945297,-0.0237999946391486));
#1482=CARTESIAN_POINT('',(-0.0604341410736128,0.00576468336543211,-0.0237999946391486));
#1483=CARTESIAN_POINT('',(-0.0604341410736128,0.00576468336543211,-0.0229999946391486));
#1484=CARTESIAN_POINT('',(-0.0608178237163552,0.00534905920803748,-0.0229999946391486));
#1485=CARTESIAN_POINT('',(-0.0608178237163552,0.00534905920803748,-0.0237999946391486));
#1486=CARTESIAN_POINT('',(-0.0608178237163552,0.00534905920803748,-0.0237999946391486));
#1487=CARTESIAN_POINT('',(-0.0604341410736128,0.00576468336543211,-0.0237999946391486));
#1488=CARTESIAN_POINT('',(-0.0608825527781746,0.00527894146284748,-0.0237999946391486));
#1489=CARTESIAN_POINT('',(-0.0608825527781746,0.00527894146284748,-0.0229999946391486));
#1490=CARTESIAN_POINT('',(-0.0607871293868039,0.00527808939840741,-0.0229999946391486));
#1491=CARTESIAN_POINT('',(-0.0607871293868039,0.00527808939840741,-0.0237999946391486));
#1492=CARTESIAN_POINT('',(-0.0607871293868039,0.00527808939840741,-0.0237999946391486));
#1493=CARTESIAN_POINT('',(-0.0608825527781746,0.00527894146284748,-0.0237999946391486));
#1494=CARTESIAN_POINT('',(-0.0894259242727638,0.00553381389507539,-0.0237999946391486));
#1495=CARTESIAN_POINT('',(-0.0894259242727638,0.00553381389507539,-0.0229999946391486));
#1496=CARTESIAN_POINT('',(-0.0608184881289168,0.0041697886700833,-0.0229999946391486));
#1497=CARTESIAN_POINT('',(-0.0608184881289168,0.0041697886700833,-0.0237999946391486));
#1498=CARTESIAN_POINT('',(-0.0608184881289168,0.0041697886700833,-0.0237999946391486));
#1499=CARTESIAN_POINT('',(-0.0894259242727638,0.00553381389507539,-0.0237999946391486));
#1500=CARTESIAN_POINT('',(-0.0773578596264282,0.00495839900953076,-0.0237999946391486));
#1501=CARTESIAN_POINT('',(-0.0773578596264282,0.00495839900953076,-0.0229999946391486));
#1502=CARTESIAN_POINT('',(-0.060909131837599,0.00305785436933524,-0.0229999946391486));
#1503=CARTESIAN_POINT('',(-0.060909131837599,0.00305785436933524,-0.0237999946391486));
#1504=CARTESIAN_POINT('',(-0.060909131837599,0.00305785436933524,-0.0237999946391486));
#1505=CARTESIAN_POINT('',(-0.0773578596264282,0.00495839900953076,-0.0237999946391486));
#1506=CARTESIAN_POINT('',(-0.0657076575114095,0.00361229313002751,-0.0237999946391486));
#1507=CARTESIAN_POINT('',(-0.0657076575114095,0.00361229313002751,-0.0229999946391486));
#1508=CARTESIAN_POINT('',(-0.0610633385955179,0.00228430488120155,-0.0229999946391486));
#1509=CARTESIAN_POINT('',(-0.0610633385955179,0.00228430488120155,-0.0237999946391486));
#1510=CARTESIAN_POINT('',(-0.0610633385955179,0.00228430488120155,-0.0237999946391486));
#1511=CARTESIAN_POINT('',(-0.0657076575114095,0.00361229313002751,-0.0237999946391486));
#1512=CARTESIAN_POINT('',(-0.0723750052341493,0.00551874261960514,-0.0237999946391486));
#1513=CARTESIAN_POINT('',(-0.0723750052341493,0.00551874261960514,-0.0229999946391486));
#1514=CARTESIAN_POINT('',(-0.0612497782299448,0.00169190139842916,-0.0229999946391486));
#1515=CARTESIAN_POINT('',(-0.0612497782299448,0.00169190139842916,-0.0237999946391486));
#1516=CARTESIAN_POINT('',(-0.0612497782299448,0.00169190139842916,-0.0237999946391486));
#1517=CARTESIAN_POINT('',(-0.0723750052341493,0.00551874261960514,-0.0237999946391486));
#1518=CARTESIAN_POINT('',(-0.0625082285587924,0.00212478151776675,-0.0237999946391486));
#1519=CARTESIAN_POINT('',(-0.0625082285587924,0.00212478151776675,-0.0229999946391486));
#1520=CARTESIAN_POINT('',(-0.0613822665677872,0.00141535074404306,-0.0229999946391486));
#1521=CARTESIAN_POINT('',(-0.0613822665677872,0.00141535074404306,-0.0237999946391486));
#1522=CARTESIAN_POINT('',(-0.0613822665677872,0.00141535074404306,-0.0237999946391486));
#1523=CARTESIAN_POINT('',(-0.0625082285587924,0.00212478151776675,-0.0237999946391486));
#1524=CARTESIAN_POINT('',(-0.0626773916600798,0.00223136549732421,-0.0237999946391486));
#1525=CARTESIAN_POINT('',(-0.0626773916600798,0.00223136549732421,-0.0229999946391486));
#1526=CARTESIAN_POINT('',(-0.0615840812374171,0.00115996389103826,-0.0229999946391486));
#1527=CARTESIAN_POINT('',(-0.0615840812374171,0.00115996389103826,-0.0237999946391486));
#1528=CARTESIAN_POINT('',(-0.0615840812374171,0.00115996389103826,-0.0237999946391486));
#1529=CARTESIAN_POINT('',(-0.0626773916600798,0.00223136549732421,-0.0237999946391486));
#1530=CARTESIAN_POINT('',(-0.0738350172932196,0.0131654037886339,-0.0237999946391486));
#1531=CARTESIAN_POINT('',(-0.0738350172932196,0.0131654037886339,-0.0229999946391486));
#1532=CARTESIAN_POINT('',(-0.0620818963331557,0.000672198872510253,-0.0229999946391486));
#1533=CARTESIAN_POINT('',(-0.0620818963331557,0.000672198872510253,-0.0237999946391486));
#1534=CARTESIAN_POINT('',(-0.0620818963331557,0.000672198872510253,-0.0237999946391486));
#1535=CARTESIAN_POINT('',(-0.0738350172932196,0.0131654037886339,-0.0237999946391486));
#1536=CARTESIAN_POINT('',(-0.0678454218480013,0.00679864865048246,-0.0237999946391486));
#1537=CARTESIAN_POINT('',(-0.0678454218480013,0.00679864865048246,-0.0229999946391486));
#1538=CARTESIAN_POINT('',(-0.0624208921269655,0.000370111449256236,-0.0229999946391486));
#1539=CARTESIAN_POINT('',(-0.0624208921269655,0.000370111449256236,-0.0237999946391486));
#1540=CARTESIAN_POINT('',(-0.0624208921269655,0.000370111449256236,-0.0237999946391486));
#1541=CARTESIAN_POINT('',(-0.0678454218480013,0.00679864865048246,-0.0237999946391486));
#1542=CARTESIAN_POINT('',(-0.0683131318387874,0.00735292546889361,-0.0237999946391486));
#1543=CARTESIAN_POINT('',(-0.0683131318387874,0.00735292546889361,-0.0229999946391486));
#1544=CARTESIAN_POINT('',(-0.062783523353209,7.95761406480169E-5,-0.0229999946391486));
#1545=CARTESIAN_POINT('',(-0.062783523353209,7.95761406480167E-5,-0.0237999946391486));
#1546=CARTESIAN_POINT('',(-0.062783523353209,7.95761406480167E-5,-0.0237999946391486));
#1547=CARTESIAN_POINT('',(-0.0683131318387874,0.00735292546889361,-0.0237999946391486));
#1548=CARTESIAN_POINT('',(-0.0676372642787345,0.00646392566416688,-0.0237999946391486));
#1549=CARTESIAN_POINT('',(-0.0676372642787345,0.00646392566416688,-0.0229999946391486));
#1550=CARTESIAN_POINT('',(-0.0631162929430695,-0.000160237527714255,-0.0229999946391486));
#1551=CARTESIAN_POINT('',(-0.0631162929430695,-0.000160237527714256,-0.0237999946391486));
#1552=CARTESIAN_POINT('',(-0.0631162929430695,-0.000160237527714256,-0.0237999946391486));
#1553=CARTESIAN_POINT('',(-0.0676372642787345,0.00646392566416688,-0.0237999946391486));
#1554=CARTESIAN_POINT('',(-0.0638800967848211,0.000958893941763092,-0.0237999946391486));
#1555=CARTESIAN_POINT('',(-0.0638800967848211,0.000958893941763092,-0.0229999946391486));
#1556=CARTESIAN_POINT('',(-0.063315806691589,-0.000272945433045595,-0.0229999946391486));
#1557=CARTESIAN_POINT('',(-0.063315806691589,-0.000272945433045595,-0.0237999946391486));
#1558=CARTESIAN_POINT('',(-0.063315806691589,-0.000272945433045595,-0.0237999946391486));
#1559=CARTESIAN_POINT('',(-0.0638800967848211,0.000958893941763092,-0.0237999946391486));
#1560=CARTESIAN_POINT('',(-0.0656556786530913,0.00483497059943348,-0.0237999946391486));
#1561=CARTESIAN_POINT('',(-0.0656556786530913,0.00483497059943348,-0.0229999946391486));
#1562=CARTESIAN_POINT('',(-0.0638892739315226,-0.00049847306769932,-0.0229999946391486));
#1563=CARTESIAN_POINT('',(-0.0638892739315226,-0.00049847306769932,-0.0237999946391486));
#1564=CARTESIAN_POINT('',(-0.0638892739315226,-0.00049847306769932,-0.0237999946391486));
#1565=CARTESIAN_POINT('',(-0.0656556786530913,0.00483497059943348,-0.0237999946391486));
#1566=CARTESIAN_POINT('',(-0.0657733579941797,0.005190289020414,-0.0237999946391486));
#1567=CARTESIAN_POINT('',(-0.0657733579941797,0.005190289020414,-0.0229999946391486));
#1568=CARTESIAN_POINT('',(-0.0644945663631357,-0.000664322735703139,-0.0229999946391486));
#1569=CARTESIAN_POINT('',(-0.0644945663631357,-0.000664322735703139,-0.0237999946391486));
#1570=CARTESIAN_POINT('',(-0.0644945663631357,-0.000664322735703139,-0.0237999946391486));
#1571=CARTESIAN_POINT('',(-0.0657733579941797,0.005190289020414,-0.0237999946391486));
#1572=CARTESIAN_POINT('',(-0.0655787215616436,0.00429919721277997,-0.0237999946391486));
#1573=CARTESIAN_POINT('',(-0.0655787215616436,0.00429919721277997,-0.0229999946391486));
#1574=CARTESIAN_POINT('',(-0.0650399195106043,-0.000752695019170096,-0.0229999946391486));
#1575=CARTESIAN_POINT('',(-0.0650399195106043,-0.000752695019170096,-0.0237999946391486));
#1576=CARTESIAN_POINT('',(-0.0650399195106043,-0.000752695019170096,-0.0237999946391486));
#1577=CARTESIAN_POINT('',(-0.0655787215616436,0.00429919721277997,-0.0237999946391486));
#1578=CARTESIAN_POINT('',(-0.065146977223925,0.000251094831392143,-0.0237999946391486));
#1579=CARTESIAN_POINT('',(-0.065146977223925,0.000251094831392144,-0.0229999946391486));
#1580=CARTESIAN_POINT('',(-0.0650999999999982,-0.000757294259438058,-0.0229999946391486));
#1581=CARTESIAN_POINT('',(-0.0650999999999982,-0.000757294259438058,-0.0237999946391486));
#1582=CARTESIAN_POINT('',(-0.0650999999999982,-0.000757294259438058,-0.0237999946391486));
#1583=CARTESIAN_POINT('',(-0.065146977223925,0.000251094831392143,-0.0237999946391486));
#1584=CARTESIAN_POINT('',(-0.0650999999999982,-7.99398057573225E-5,-0.0237999946391486));
#1585=CARTESIAN_POINT('',(-0.0650999999999982,-7.99398057573224E-5,-0.0229999946391486));
#1586=CARTESIAN_POINT('',(-0.0650999999999982,0.000597414647923413,-0.0229999946391486));
#1587=CARTESIAN_POINT('',(-0.0650999999999982,0.000597414647923413,-0.0237999946391486));
#1588=CARTESIAN_POINT('',(-0.0650999999999982,0.000597414647923413,-0.0237999946391486));
#1589=CARTESIAN_POINT('',(-0.0650999999999982,-7.99398057573225E-5,-0.0237999946391486));
#1590=CARTESIAN_POINT('',(-0.0660230372789794,0.00267426133550454,-0.0237999946391486));
#1591=CARTESIAN_POINT('',(-0.0660230372789794,0.00267426133550454,-0.0229999946391486));
#1592=CARTESIAN_POINT('',(-0.0648076287862396,0.000753825921885883,-0.0229999946391486));
#1593=CARTESIAN_POINT('',(-0.0648076287862396,0.000753825921885883,-0.0237999946391486));
#1594=CARTESIAN_POINT('',(-0.0648076287862396,0.000753825921885883,-0.0237999946391486));
#1595=CARTESIAN_POINT('',(-0.0660230372789794,0.00267426133550454,-0.0237999946391486));
#1596=CARTESIAN_POINT('',(-0.061880299371665,-0.00387157130765345,-0.0237999946391486));
#1597=CARTESIAN_POINT('',(-0.061880299371665,-0.00387157130765345,-0.0229999946391486));
#1598=CARTESIAN_POINT('',(-0.0645776591656127,0.000891600658001439,-0.0229999946391486));
#1599=CARTESIAN_POINT('',(-0.0645776591656127,0.000891600658001439,-0.0237999946391486));
#1600=CARTESIAN_POINT('',(-0.0645776591656127,0.000891600658001439,-0.0237999946391486));
#1601=CARTESIAN_POINT('',(-0.061880299371665,-0.00387157130765345,-0.0237999946391486));
#1602=CARTESIAN_POINT('',(-0.0590885860468644,-0.0088013588260532,-0.0237999946391486));
#1603=CARTESIAN_POINT('',(-0.0590885860468644,-0.0088013588260532,-0.0229999946391486));
#1604=CARTESIAN_POINT('',(-0.0642885548701323,0.00104971784242915,-0.0229999946391486));
#1605=CARTESIAN_POINT('',(-0.0642885548701323,0.00104971784242915,-0.0237999946391486));
#1606=CARTESIAN_POINT('',(-0.0642885548701323,0.00104971784242915,-0.0237999946391486));
#1607=CARTESIAN_POINT('',(-0.0590885860468644,-0.0088013588260532,-0.0237999946391486));
#1608=CARTESIAN_POINT('',(-0.0591147206287937,-0.00875184818877009,-0.0237999946391486));
#1609=CARTESIAN_POINT('',(-0.0591147206287937,-0.00875184818877009,-0.0229999946391486));
#1610=CARTESIAN_POINT('',(-0.064000382364859,0.00119649673998835,-0.0229999946391486));
#1611=CARTESIAN_POINT('',(-0.064000382364859,0.00119649673998835,-0.0237999946391486));
#1612=CARTESIAN_POINT('',(-0.064000382364859,0.00119649673998835,-0.0237999946391486));
#1613=CARTESIAN_POINT('',(-0.0591147206287937,-0.00875184818877009,-0.0237999946391486));
#1614=CARTESIAN_POINT('',(-0.0617138073448898,-0.00345950243330947,-0.0237999946391486));
#1615=CARTESIAN_POINT('',(-0.0617138073448898,-0.00345950243330947,-0.0229999946391486));
#1616=CARTESIAN_POINT('',(-0.063761308937017,0.00130646975019433,-0.0229999946391486));
#1617=CARTESIAN_POINT('',(-0.063761308937017,0.00130646975019433,-0.0237999946391486));
#1618=CARTESIAN_POINT('',(-0.063761308937017,0.00130646975019433,-0.0237999946391486));
#1619=CARTESIAN_POINT('',(-0.0617138073448898,-0.00345950243330947,-0.0237999946391486));
#1620=CARTESIAN_POINT('',(-0.0647726016844105,0.00366045722546158,-0.0237999946391486));
#1621=CARTESIAN_POINT('',(-0.0647726016844105,0.00366045722546158,-0.0229999946391486));
#1622=CARTESIAN_POINT('',(-0.06282980629443,0.00199027276639285,-0.0229999946391486));
#1623=CARTESIAN_POINT('',(-0.06282980629443,0.00199027276639285,-0.0237999946391486));
#1624=CARTESIAN_POINT('',(-0.06282980629443,0.00199027276639285,-0.0237999946391486));
#1625=CARTESIAN_POINT('',(-0.0647726016844105,0.00366045722546158,-0.0237999946391486));
#1626=CARTESIAN_POINT('',(-0.0670615731246675,0.00562824268886423,-0.0237999946391486));
#1627=CARTESIAN_POINT('',(-0.0670615731246675,0.00562824268886423,-0.0229999946391486));
#1628=CARTESIAN_POINT('',(-0.0620829774658168,0.00310708007393725,-0.0229999946391486));
#1629=CARTESIAN_POINT('',(-0.0620829774658168,0.00310708007393725,-0.0237999946391486));
#1630=CARTESIAN_POINT('',(-0.0620829774658168,0.00310708007393725,-0.0237999946391486));
#1631=CARTESIAN_POINT('',(-0.0670615731246675,0.00562824268886423,-0.0237999946391486));
#1632=CARTESIAN_POINT('',(-0.0670352944583319,0.00561493516287201,-0.0237999946391486));
#1633=CARTESIAN_POINT('',(-0.0670352944583319,0.00561493516287201,-0.0229999946391486));
#1634=CARTESIAN_POINT('',(-0.0616261632031692,0.00436750588396444,-0.0229999946391486));
#1635=CARTESIAN_POINT('',(-0.0616261632031692,0.00436750588396444,-0.0237999946391486));
#1636=CARTESIAN_POINT('',(-0.0616261632031692,0.00436750588396444,-0.0237999946391486));
#1637=CARTESIAN_POINT('',(-0.0670352944583319,0.00561493516287201,-0.0237999946391486));
#1638=CARTESIAN_POINT('',(-0.0640379791233628,0.00492370791572571,-0.0237999946391486));
#1639=CARTESIAN_POINT('',(-0.0640379791233628,0.00492370791572571,-0.0229999946391486));
#1640=CARTESIAN_POINT('',(-0.0616342300657099,0.00551379875692834,-0.0229999946391486));
#1641=CARTESIAN_POINT('',(-0.0616342300657099,0.00551379875692834,-0.0237999946391486));
#1642=CARTESIAN_POINT('',(-0.0616342300657099,0.00551379875692834,-0.0237999946391486));
#1643=CARTESIAN_POINT('',(-0.0640379791233628,0.00492370791572571,-0.0237999946391486));
#1644=CARTESIAN_POINT('',(-0.0636961480362027,0.00500762324504397,-0.0237999946391486));
#1645=CARTESIAN_POINT('',(-0.0636961480362027,0.00500762324504397,-0.0229999946391486));
#1646=CARTESIAN_POINT('',(-0.0619019445451385,0.00614276781668327,-0.0229999946391486));
#1647=CARTESIAN_POINT('',(-0.0619019445451385,0.00614276781668327,-0.0237999946391486));
#1648=CARTESIAN_POINT('',(-0.0619019445451385,0.00614276781668327,-0.0237999946391486));
#1649=CARTESIAN_POINT('',(-0.0636961480362027,0.00500762324504397,-0.0237999946391486));
#1650=CARTESIAN_POINT('',(-0.0666434125886093,0.00314296777284642,-0.0237999946391486));
#1651=CARTESIAN_POINT('',(-0.0666434125886093,0.00314296777284642,-0.0229999946391486));
#1652=CARTESIAN_POINT('',(-0.0623881534484587,0.00679989122901151,-0.0229999946391486));
#1653=CARTESIAN_POINT('',(-0.0623881534484587,0.00679989122901151,-0.0237999946391486));
#1654=CARTESIAN_POINT('',(-0.0623881534484587,0.00679989122901151,-0.0237999946391486));
#1655=CARTESIAN_POINT('',(-0.0666434125886093,0.00314296777284642,-0.0237999946391486));
#1656=CARTESIAN_POINT('',(-0.066617795400543,0.00316498290584671,-0.0237999946391486));
#1657=CARTESIAN_POINT('',(-0.066617795400543,0.00316498290584671,-0.0229999946391486));
#1658=CARTESIAN_POINT('',(-0.0629589051029857,0.00737389622772641,-0.0229999946391486));
#1659=CARTESIAN_POINT('',(-0.0629589051029857,0.00737389622772641,-0.0237999946391486));
#1660=CARTESIAN_POINT('',(-0.0629589051029857,0.00737389622772641,-0.0237999946391486));
#1661=CARTESIAN_POINT('',(-0.066617795400543,0.00316498290584671,-0.0237999946391486));
#1662=CARTESIAN_POINT('',(-0.0642135477326429,0.00593064932806187,-0.0237999946391486));
#1663=CARTESIAN_POINT('',(-0.0642135477326429,0.00593064932806187,-0.0229999946391486));
#1664=CARTESIAN_POINT('',(-0.06353292070972,0.00771778015628897,-0.0229999946391486));
#1665=CARTESIAN_POINT('',(-0.06353292070972,0.00771778015628897,-0.0237999946391486));
#1666=CARTESIAN_POINT('',(-0.06353292070972,0.00771778015628897,-0.0237999946391486));
#1667=CARTESIAN_POINT('',(-0.0642135477326429,0.00593064932806187,-0.0237999946391486));
#1668=CARTESIAN_POINT('',(-0.0647241864350905,0.00458985894434939,-0.0237999946391486));
#1669=CARTESIAN_POINT('',(-0.0647241864350905,0.00458985894434939,-0.0229999946391486));
#1670=CARTESIAN_POINT('',(-0.0642616878246874,0.00790484011652877,-0.0229999946391486));
#1671=CARTESIAN_POINT('',(-0.0642616878246874,0.00790484011652877,-0.0237999946391486));
#1672=CARTESIAN_POINT('',(-0.0642616878246874,0.00790484011652877,-0.0237999946391486));
#1673=CARTESIAN_POINT('',(-0.0647241864350905,0.00458985894434939,-0.0237999946391486));
#1674=CARTESIAN_POINT('',(-0.064741280663369,0.00446733523590627,-0.0237999946391486));
#1675=CARTESIAN_POINT('',(-0.064741280663369,0.00446733523590627,-0.0229999946391486));
#1676=CARTESIAN_POINT('',(-0.0650188086659771,0.0079270212481198,-0.0229999946391486));
#1677=CARTESIAN_POINT('',(-0.0650188086659771,0.0079270212481198,-0.0237999946391486));
#1678=CARTESIAN_POINT('',(-0.0650188086659771,0.0079270212481198,-0.0237999946391486));
#1679=CARTESIAN_POINT('',(-0.064741280663369,0.00446733523590627,-0.0237999946391486));
#1680=CARTESIAN_POINT('',(-0.0647560796402934,0.00465182045173763,-0.0237999946391486));
#1681=CARTESIAN_POINT('',(-0.0647560796402934,0.00465182045173763,-0.0229999946391486));
#1682=CARTESIAN_POINT('',(-0.0647560796402934,0.00465182045173763,-0.0237999946391486));
#1683=CARTESIAN_POINT('',(-0.0697228288706337,0.00606633418553786,-0.0237999946391486));
#1684=CARTESIAN_POINT('',(-0.0697228288706337,0.00606633418553786,-0.0229999946391486));
#1685=MECHANICAL_DESIGN_GEOMETRIC_PRESENTATION_REPRESENTATION('',(#918),
#1686);
#1686=(
GEOMETRIC_REPRESENTATION_CONTEXT(3)
GLOBAL_UNCERTAINTY_ASSIGNED_CONTEXT((#1687))
GLOBAL_UNIT_ASSIGNED_CONTEXT((#1690,#1689,#1688))
REPRESENTATION_CONTEXT('Part 15','TOP_LEVEL_ASSEMBLY_PART')
);
#1687=UNCERTAINTY_MEASURE_WITH_UNIT(LENGTH_MEASURE(1.E-8),#1690,
'DISTANCE_ACCURACY_VALUE','Maximum Tolerance applied to model');
#1688=(
NAMED_UNIT(*)
SI_UNIT($,.STERADIAN.)
SOLID_ANGLE_UNIT()
);
#1689=(
NAMED_UNIT(*)
PLANE_ANGLE_UNIT()
SI_UNIT($,.RADIAN.)
);
#1690=(
LENGTH_UNIT()
NAMED_UNIT(*)
SI_UNIT($,.METRE.)
);
#1691=PRODUCT_DEFINITION_SHAPE('','',#1692);
#1692=PRODUCT_DEFINITION('','',#1694,#1693);
#1693=PRODUCT_DEFINITION_CONTEXT('',#1700,'design');
#1694=PRODUCT_DEFINITION_FORMATION_WITH_SPECIFIED_SOURCE('','',#1696,
 .NOT_KNOWN.);
#1695=PRODUCT_RELATED_PRODUCT_CATEGORY('','',(#1696));
#1696=PRODUCT('Part 15','Part 15','Part 15',(#1698));
#1697=PRODUCT_CATEGORY('','');
#1698=PRODUCT_CONTEXT('',#1700,'mechanical');
#1699=APPLICATION_PROTOCOL_DEFINITION('international standard',
'ap242_managed_model_based_3d_engineering',2020,#1700);
#1700=APPLICATION_CONTEXT('managed model based 3d engineering');
ENDSEC;
END-ISO-10303-21;
