ISO-10303-21;
HEADER;
/* Generated by software containing ST-Developer
 * from STEP Tools, Inc. (www.steptools.com) 
 */
/* OPTION: using custom renumber hook */

FILE_DESCRIPTION(
/* description */ ('STEP AP242 Edition 2',
'CAx-IF Rec.Pracs.---Representation and Presentation of Product Manufa
cturing Information (PMI)---4.0---2014-10-13',
'CAx-IF Rec.Pracs.---3D Tessellated Geometry---0.4---2014-09-14','2;1',
'CAx-IF Rec.Pracs.---User Defined Attributes---1.5---2016-08-15'),
/* implementation_level */ '2;1');

FILE_NAME(
/* name */ 'S_BUTTONS - Part 16',
/* time_stamp */ '2026-09-23T15:01:02Z',
/* author */ (''),
/* organization */ (''),
/* preprocessor_version */ 'ST-DEVELOPER v20',
/* originating_system */ 'ONSHAPE BY PTC INC, 1.221',
/* authorisation */ '  ');

FILE_SCHEMA (('AP242_MANAGED_MODEL_BASED_3D_ENGINEERING_MIM_LF { 1 0 10303 442 3 1 4 }'));
ENDSEC;

DATA;
#10=SHAPE_REPRESENTATION_RELATIONSHIP('','',#513,#11);
#11=ADVANCED_BREP_SHAPE_REPRESENTATION('',(#511),#989);
#12=PLANE('',#518);
#13=PLANE('',#519);
#14=PLANE('',#520);
#15=PLANE('',#521);
#16=PLANE('',#522);
#17=PLANE('',#523);
#18=PLANE('',#524);
#19=PLANE('',#525);
#20=PLANE('',#526);
#21=PLANE('',#530);
#22=PLANE('',#531);
#23=B_SPLINE_CURVE_WITH_KNOTS('',3,(#628,#629,#630,#631,#632,#633,#634),
 .UNSPECIFIED.,.F.,.F.,(4,3,4),(-0.266731816384919,0.,1.),
 .PIECEWISE_BEZIER_KNOTS.);
#24=B_SPLINE_CURVE_WITH_KNOTS('',3,(#636,#637,#638,#639,#640,#641,#642),
 .UNSPECIFIED.,.F.,.F.,(4,3,4),(-0.266731816384919,0.,1.),
 .PIECEWISE_BEZIER_KNOTS.);
#25=B_SPLINE_CURVE_WITH_KNOTS('',3,(#653,#654,#655,#656,#657),
 .UNSPECIFIED.,.F.,.F.,(4,1,4),(0.,0.5,1.),.QUASI_UNIFORM_KNOTS.);
#26=B_SPLINE_CURVE_WITH_KNOTS('',3,(#659,#660,#661,#662,#663),
 .UNSPECIFIED.,.F.,.F.,(4,1,4),(0.,0.5,1.),.QUASI_UNIFORM_KNOTS.);
#27=B_SPLINE_CURVE_WITH_KNOTS('',3,(#674,#675,#676,#677,#678),
 .UNSPECIFIED.,.F.,.F.,(4,1,4),(0.,0.5,1.),.QUASI_UNIFORM_KNOTS.);
#28=B_SPLINE_CURVE_WITH_KNOTS('',3,(#680,#681,#682,#683,#684),
 .UNSPECIFIED.,.F.,.F.,(4,1,4),(0.,0.5,1.),.QUASI_UNIFORM_KNOTS.);
#29=B_SPLINE_CURVE_WITH_KNOTS('',3,(#713,#714,#715,#716,#717),
 .UNSPECIFIED.,.F.,.F.,(4,1,4),(0.000429552929032608,0.5,1.),
 .UNSPECIFIED.);
#30=B_SPLINE_CURVE_WITH_KNOTS('',3,(#719,#720,#721,#722,#723),
 .UNSPECIFIED.,.F.,.F.,(4,1,4),(0.000429552929032608,0.5,1.),
 .UNSPECIFIED.);
#31=B_SPLINE_CURVE_WITH_KNOTS('',3,(#734,#735,#736,#737,#738),
 .UNSPECIFIED.,.F.,.F.,(4,1,4),(0.,0.5,1.),.QUASI_UNIFORM_KNOTS.);
#32=B_SPLINE_CURVE_WITH_KNOTS('',3,(#740,#741,#742,#743,#744),
 .UNSPECIFIED.,.F.,.F.,(4,1,4),(0.,0.5,1.),.QUASI_UNIFORM_KNOTS.);
#33=B_SPLINE_CURVE_WITH_KNOTS('',3,(#755,#756,#757,#758,#759,#760,#761),
 .UNSPECIFIED.,.F.,.F.,(4,3,4),(0.,1.,1.00702114398721),
 .PIECEWISE_BEZIER_KNOTS.);
#34=B_SPLINE_CURVE_WITH_KNOTS('',3,(#763,#764,#765,#766,#767,#768,#769),
 .UNSPECIFIED.,.F.,.F.,(4,3,4),(0.,1.,1.00702114398721),
 .PIECEWISE_BEZIER_KNOTS.);
#35=B_SPLINE_CURVE_WITH_KNOTS('',3,(#780,#781,#782,#783,#784,#785,#786),
 .UNSPECIFIED.,.F.,.F.,(4,3,4),(0.0348485779059499,0.727792724313027,1.07660006776733),
 .PIECEWISE_BEZIER_KNOTS.);
#36=B_SPLINE_CURVE_WITH_KNOTS('',3,(#788,#789,#790,#791,#792,#793,#794),
 .UNSPECIFIED.,.F.,.F.,(4,3,4),(0.0348485779059499,0.727792724313027,1.07660006776733),
 .PIECEWISE_BEZIER_KNOTS.);
#37=B_SPLINE_CURVE_WITH_KNOTS('',3,(#826,#827,#828,#829,#830),
 .UNSPECIFIED.,.F.,.F.,(4,1,4),(0.,0.5,1.),.QUASI_UNIFORM_KNOTS.);
#38=B_SPLINE_CURVE_WITH_KNOTS('',3,(#832,#833,#834,#835,#836),
 .UNSPECIFIED.,.F.,.F.,(4,1,4),(0.,0.5,1.),.QUASI_UNIFORM_KNOTS.);
#39=B_SPLINE_CURVE_WITH_KNOTS('',3,(#847,#848,#849,#850,#851),
 .UNSPECIFIED.,.F.,.F.,(4,1,4),(0.,0.5,1.),.QUASI_UNIFORM_KNOTS.);
#40=B_SPLINE_CURVE_WITH_KNOTS('',3,(#853,#854,#855,#856,#857),
 .UNSPECIFIED.,.F.,.F.,(4,1,4),(0.,0.5,1.),.QUASI_UNIFORM_KNOTS.);
#41=B_SPLINE_CURVE_WITH_KNOTS('',3,(#885,#886,#887,#888,#889,#890,#891,
#892,#893,#894),.UNSPECIFIED.,.F.,.F.,(4,1,1,1,3,4),(0.,0.25,0.5,0.75,1.,
1.00079380536036),.UNSPECIFIED.);
#42=B_SPLINE_CURVE_WITH_KNOTS('',3,(#896,#897,#898,#899,#900,#901,#902,
#903,#904,#905),.UNSPECIFIED.,.F.,.F.,(4,1,1,1,3,4),(0.,0.25,0.5,0.75,1.,
1.00079380536036),.UNSPECIFIED.);
#43=B_SPLINE_CURVE_WITH_KNOTS('',3,(#916,#917,#918,#919,#920),
 .UNSPECIFIED.,.F.,.F.,(4,1,4),(0.,0.5,1.),.QUASI_UNIFORM_KNOTS.);
#44=B_SPLINE_CURVE_WITH_KNOTS('',3,(#922,#923,#924,#925,#926),
 .UNSPECIFIED.,.F.,.F.,(4,1,4),(0.,0.5,1.),.QUASI_UNIFORM_KNOTS.);
#45=B_SPLINE_CURVE_WITH_KNOTS('',3,(#937,#938,#939,#940,#941),
 .UNSPECIFIED.,.F.,.F.,(4,1,4),(0.,0.5,1.),.QUASI_UNIFORM_KNOTS.);
#46=B_SPLINE_CURVE_WITH_KNOTS('',3,(#943,#944,#945,#946,#947),
 .UNSPECIFIED.,.F.,.F.,(4,1,4),(0.,0.5,1.),.QUASI_UNIFORM_KNOTS.);
#47=B_SPLINE_CURVE_WITH_KNOTS('',3,(#960,#961,#962,#963,#964,#965,#966,
#967,#968,#969),.UNSPECIFIED.,.F.,.F.,(4,3,1,1,1,4),(-0.000907673406936017,
0.,0.25,0.5,0.75,1.),.UNSPECIFIED.);
#48=B_SPLINE_CURVE_WITH_KNOTS('',3,(#970,#971,#972,#973,#974,#975,#976,
#977,#978,#979),.UNSPECIFIED.,.F.,.F.,(4,3,1,1,1,4),(-0.000907673406936017,
0.,0.25,0.5,0.75,1.),.UNSPECIFIED.);
#49=B_SPLINE_SURFACE_WITH_KNOTS('',3,1,((#620,#621),(#622,#623),(#624,#625),
(#626,#627)),.SURF_OF_LINEAR_EXTRUSION.,.F.,.F.,.F.,(4,4),(2,2),(-0.266731732655079,
1.),(0.,1.),.PIECEWISE_BEZIER_KNOTS.);
#50=B_SPLINE_SURFACE_WITH_KNOTS('',3,1,((#645,#646),(#647,#648),(#649,#650),
(#651,#652)),.SURF_OF_LINEAR_EXTRUSION.,.F.,.F.,.F.,(4,4),(2,2),(0.,1.),
(0.,1.),.PIECEWISE_BEZIER_KNOTS.);
#51=B_SPLINE_SURFACE_WITH_KNOTS('',3,1,((#666,#667),(#668,#669),(#670,#671),
(#672,#673)),.SURF_OF_LINEAR_EXTRUSION.,.F.,.F.,.F.,(4,4),(2,2),(0.,1.),
(0.,1.),.PIECEWISE_BEZIER_KNOTS.);
#52=B_SPLINE_SURFACE_WITH_KNOTS('',3,1,((#705,#706),(#707,#708),(#709,#710),
(#711,#712)),.SURF_OF_LINEAR_EXTRUSION.,.F.,.F.,.F.,(4,4),(2,2),(0.000429552929032608,
1.),(0.,1.),.PIECEWISE_BEZIER_KNOTS.);
#53=B_SPLINE_SURFACE_WITH_KNOTS('',3,1,((#726,#727),(#728,#729),(#730,#731),
(#732,#733)),.SURF_OF_LINEAR_EXTRUSION.,.F.,.F.,.F.,(4,4),(2,2),(0.,1.),
(0.,1.),.PIECEWISE_BEZIER_KNOTS.);
#54=B_SPLINE_SURFACE_WITH_KNOTS('',3,1,((#747,#748),(#749,#750),(#751,#752),
(#753,#754)),.SURF_OF_LINEAR_EXTRUSION.,.F.,.F.,.F.,(4,4),(2,2),(0.,1.00702114398721),
(0.,1.),.PIECEWISE_BEZIER_KNOTS.);
#55=B_SPLINE_SURFACE_WITH_KNOTS('',3,1,((#772,#773),(#774,#775),(#776,#777),
(#778,#779)),.SURF_OF_LINEAR_EXTRUSION.,.F.,.F.,.F.,(4,4),(2,2),(0.0348485779059499,
1.07660006776733),(0.,1.),.PIECEWISE_BEZIER_KNOTS.);
#56=B_SPLINE_SURFACE_WITH_KNOTS('',3,1,((#818,#819),(#820,#821),(#822,#823),
(#824,#825)),.SURF_OF_LINEAR_EXTRUSION.,.F.,.F.,.F.,(4,4),(2,2),(0.,1.),
(0.,1.),.PIECEWISE_BEZIER_KNOTS.);
#57=B_SPLINE_SURFACE_WITH_KNOTS('',3,1,((#839,#840),(#841,#842),(#843,#844),
(#845,#846)),.SURF_OF_LINEAR_EXTRUSION.,.F.,.F.,.F.,(4,4),(2,2),(0.,1.),
(0.,1.),.PIECEWISE_BEZIER_KNOTS.);
#58=B_SPLINE_SURFACE_WITH_KNOTS('',3,1,((#875,#876),(#877,#878),(#879,#880),
(#881,#882),(#883,#884)),.SURF_OF_LINEAR_EXTRUSION.,.F.,.F.,.F.,(4,1,4),
(2,2),(0.,0.50039690268018,1.00079380536036),(0.,1.),.UNSPECIFIED.);
#59=B_SPLINE_SURFACE_WITH_KNOTS('',3,1,((#908,#909),(#910,#911),(#912,#913),
(#914,#915)),.SURF_OF_LINEAR_EXTRUSION.,.F.,.F.,.F.,(4,4),(2,2),(0.,1.),
(0.,1.),.PIECEWISE_BEZIER_KNOTS.);
#60=B_SPLINE_SURFACE_WITH_KNOTS('',3,1,((#929,#930),(#931,#932),(#933,#934),
(#935,#936)),.SURF_OF_LINEAR_EXTRUSION.,.F.,.F.,.F.,(4,4),(2,2),(0.,1.),
(0.,1.),.PIECEWISE_BEZIER_KNOTS.);
#61=B_SPLINE_SURFACE_WITH_KNOTS('',3,1,((#950,#951),(#952,#953),(#954,#955),
(#956,#957),(#958,#959)),.SURF_OF_LINEAR_EXTRUSION.,.F.,.F.,.F.,(4,1,4),
(2,2),(-0.000907673406936017,0.499546163296532,1.),(0.,1.),
 .UNSPECIFIED.);
#62=LINE('',#615,#104);
#63=LINE('',#619,#105);
#64=LINE('',#644,#106);
#65=LINE('',#665,#107);
#66=LINE('',#686,#108);
#67=LINE('',#688,#109);
#68=LINE('',#690,#110);
#69=LINE('',#692,#111);
#70=LINE('',#694,#112);
#71=LINE('',#696,#113);
#72=LINE('',#698,#114);
#73=LINE('',#700,#115);
#74=LINE('',#702,#116);
#75=LINE('',#704,#117);
#76=LINE('',#725,#118);
#77=LINE('',#746,#119);
#78=LINE('',#771,#120);
#79=LINE('',#796,#121);
#80=LINE('',#798,#122);
#81=LINE('',#801,#123);
#82=LINE('',#803,#124);
#83=LINE('',#805,#125);
#84=LINE('',#807,#126);
#85=LINE('',#809,#127);
#86=LINE('',#811,#128);
#87=LINE('',#813,#129);
#88=LINE('',#815,#130);
#89=LINE('',#817,#131);
#90=LINE('',#838,#132);
#91=LINE('',#859,#133);
#92=LINE('',#861,#134);
#93=LINE('',#864,#135);
#94=LINE('',#866,#136);
#95=LINE('',#868,#137);
#96=LINE('',#870,#138);
#97=LINE('',#872,#139);
#98=LINE('',#874,#140);
#99=LINE('',#907,#141);
#100=LINE('',#928,#142);
#101=LINE('',#949,#143);
#102=LINE('',#981,#144);
#103=LINE('',#982,#145);
#104=VECTOR('',#538,1.);
#105=VECTOR('',#541,1.);
#106=VECTOR('',#542,1.);
#107=VECTOR('',#543,1.);
#108=VECTOR('',#544,1.);
#109=VECTOR('',#547,1.);
#110=VECTOR('',#548,1.);
#111=VECTOR('',#549,1.);
#112=VECTOR('',#552,1.);
#113=VECTOR('',#553,1.);
#114=VECTOR('',#554,1.);
#115=VECTOR('',#557,1.);
#116=VECTOR('',#558,1.);
#117=VECTOR('',#559,1.);
#118=VECTOR('',#560,1.);
#119=VECTOR('',#561,1.);
#120=VECTOR('',#562,1.);
#121=VECTOR('',#563,1.);
#122=VECTOR('',#566,1.);
#123=VECTOR('',#567,1.);
#124=VECTOR('',#568,1.);
#125=VECTOR('',#569,1.);
#126=VECTOR('',#572,1.);
#127=VECTOR('',#573,1.);
#128=VECTOR('',#574,1.);
#129=VECTOR('',#577,1.);
#130=VECTOR('',#578,1.);
#131=VECTOR('',#579,1.);
#132=VECTOR('',#580,1.);
#133=VECTOR('',#581,1.);
#134=VECTOR('',#584,1.);
#135=VECTOR('',#585,1.);
#136=VECTOR('',#586,1.);
#137=VECTOR('',#587,1.);
#138=VECTOR('',#590,1.);
#139=VECTOR('',#591,1.);
#140=VECTOR('',#592,1.);
#141=VECTOR('',#593,1.);
#142=VECTOR('',#594,1.);
#143=VECTOR('',#595,1.);
#144=VECTOR('',#598,1.);
#145=VECTOR('',#599,1.);
#146=ORIENTED_EDGE('',*,*,#290,.F.);
#147=ORIENTED_EDGE('',*,*,#291,.F.);
#148=ORIENTED_EDGE('',*,*,#292,.T.);
#149=ORIENTED_EDGE('',*,*,#293,.T.);
#150=ORIENTED_EDGE('',*,*,#294,.F.);
#151=ORIENTED_EDGE('',*,*,#293,.F.);
#152=ORIENTED_EDGE('',*,*,#295,.T.);
#153=ORIENTED_EDGE('',*,*,#296,.T.);
#154=ORIENTED_EDGE('',*,*,#297,.F.);
#155=ORIENTED_EDGE('',*,*,#296,.F.);
#156=ORIENTED_EDGE('',*,*,#298,.T.);
#157=ORIENTED_EDGE('',*,*,#299,.T.);
#158=ORIENTED_EDGE('',*,*,#300,.F.);
#159=ORIENTED_EDGE('',*,*,#299,.F.);
#160=ORIENTED_EDGE('',*,*,#301,.T.);
#161=ORIENTED_EDGE('',*,*,#302,.T.);
#162=ORIENTED_EDGE('',*,*,#303,.F.);
#163=ORIENTED_EDGE('',*,*,#302,.F.);
#164=ORIENTED_EDGE('',*,*,#304,.T.);
#165=ORIENTED_EDGE('',*,*,#305,.T.);
#166=ORIENTED_EDGE('',*,*,#306,.F.);
#167=ORIENTED_EDGE('',*,*,#305,.F.);
#168=ORIENTED_EDGE('',*,*,#307,.T.);
#169=ORIENTED_EDGE('',*,*,#308,.T.);
#170=ORIENTED_EDGE('',*,*,#309,.F.);
#171=ORIENTED_EDGE('',*,*,#308,.F.);
#172=ORIENTED_EDGE('',*,*,#310,.T.);
#173=ORIENTED_EDGE('',*,*,#311,.T.);
#174=ORIENTED_EDGE('',*,*,#312,.F.);
#175=ORIENTED_EDGE('',*,*,#311,.F.);
#176=ORIENTED_EDGE('',*,*,#313,.T.);
#177=ORIENTED_EDGE('',*,*,#314,.T.);
#178=ORIENTED_EDGE('',*,*,#315,.F.);
#179=ORIENTED_EDGE('',*,*,#314,.F.);
#180=ORIENTED_EDGE('',*,*,#316,.T.);
#181=ORIENTED_EDGE('',*,*,#317,.T.);
#182=ORIENTED_EDGE('',*,*,#318,.F.);
#183=ORIENTED_EDGE('',*,*,#317,.F.);
#184=ORIENTED_EDGE('',*,*,#319,.T.);
#185=ORIENTED_EDGE('',*,*,#320,.T.);
#186=ORIENTED_EDGE('',*,*,#321,.F.);
#187=ORIENTED_EDGE('',*,*,#320,.F.);
#188=ORIENTED_EDGE('',*,*,#322,.T.);
#189=ORIENTED_EDGE('',*,*,#323,.T.);
#190=ORIENTED_EDGE('',*,*,#324,.T.);
#191=ORIENTED_EDGE('',*,*,#325,.F.);
#192=ORIENTED_EDGE('',*,*,#326,.F.);
#193=ORIENTED_EDGE('',*,*,#327,.T.);
#194=ORIENTED_EDGE('',*,*,#328,.T.);
#195=ORIENTED_EDGE('',*,*,#327,.F.);
#196=ORIENTED_EDGE('',*,*,#329,.F.);
#197=ORIENTED_EDGE('',*,*,#330,.T.);
#198=ORIENTED_EDGE('',*,*,#331,.T.);
#199=ORIENTED_EDGE('',*,*,#330,.F.);
#200=ORIENTED_EDGE('',*,*,#332,.F.);
#201=ORIENTED_EDGE('',*,*,#333,.T.);
#202=ORIENTED_EDGE('',*,*,#334,.T.);
#203=ORIENTED_EDGE('',*,*,#333,.F.);
#204=ORIENTED_EDGE('',*,*,#335,.F.);
#205=ORIENTED_EDGE('',*,*,#336,.T.);
#206=ORIENTED_EDGE('',*,*,#337,.T.);
#207=ORIENTED_EDGE('',*,*,#336,.F.);
#208=ORIENTED_EDGE('',*,*,#338,.F.);
#209=ORIENTED_EDGE('',*,*,#339,.T.);
#210=ORIENTED_EDGE('',*,*,#340,.T.);
#211=ORIENTED_EDGE('',*,*,#341,.F.);
#212=ORIENTED_EDGE('',*,*,#342,.F.);
#213=ORIENTED_EDGE('',*,*,#343,.T.);
#214=ORIENTED_EDGE('',*,*,#344,.T.);
#215=ORIENTED_EDGE('',*,*,#343,.F.);
#216=ORIENTED_EDGE('',*,*,#345,.F.);
#217=ORIENTED_EDGE('',*,*,#346,.T.);
#218=ORIENTED_EDGE('',*,*,#347,.T.);
#219=ORIENTED_EDGE('',*,*,#346,.F.);
#220=ORIENTED_EDGE('',*,*,#348,.F.);
#221=ORIENTED_EDGE('',*,*,#349,.T.);
#222=ORIENTED_EDGE('',*,*,#350,.T.);
#223=ORIENTED_EDGE('',*,*,#349,.F.);
#224=ORIENTED_EDGE('',*,*,#351,.F.);
#225=ORIENTED_EDGE('',*,*,#352,.T.);
#226=ORIENTED_EDGE('',*,*,#353,.T.);
#227=ORIENTED_EDGE('',*,*,#352,.F.);
#228=ORIENTED_EDGE('',*,*,#354,.F.);
#229=ORIENTED_EDGE('',*,*,#355,.T.);
#230=ORIENTED_EDGE('',*,*,#356,.T.);
#231=ORIENTED_EDGE('',*,*,#339,.F.);
#232=ORIENTED_EDGE('',*,*,#357,.F.);
#233=ORIENTED_EDGE('',*,*,#325,.T.);
#234=ORIENTED_EDGE('',*,*,#358,.T.);
#235=ORIENTED_EDGE('',*,*,#355,.F.);
#236=ORIENTED_EDGE('',*,*,#359,.F.);
#237=ORIENTED_EDGE('',*,*,#341,.T.);
#238=ORIENTED_EDGE('',*,*,#360,.T.);
#239=ORIENTED_EDGE('',*,*,#323,.F.);
#240=ORIENTED_EDGE('',*,*,#361,.F.);
#241=ORIENTED_EDGE('',*,*,#291,.T.);
#242=ORIENTED_EDGE('',*,*,#342,.T.);
#243=ORIENTED_EDGE('',*,*,#359,.T.);
#244=ORIENTED_EDGE('',*,*,#354,.T.);
#245=ORIENTED_EDGE('',*,*,#351,.T.);
#246=ORIENTED_EDGE('',*,*,#348,.T.);
#247=ORIENTED_EDGE('',*,*,#345,.T.);
#248=ORIENTED_EDGE('',*,*,#326,.T.);
#249=ORIENTED_EDGE('',*,*,#357,.T.);
#250=ORIENTED_EDGE('',*,*,#338,.T.);
#251=ORIENTED_EDGE('',*,*,#335,.T.);
#252=ORIENTED_EDGE('',*,*,#332,.T.);
#253=ORIENTED_EDGE('',*,*,#329,.T.);
#254=ORIENTED_EDGE('',*,*,#292,.F.);
#255=ORIENTED_EDGE('',*,*,#361,.T.);
#256=ORIENTED_EDGE('',*,*,#322,.F.);
#257=ORIENTED_EDGE('',*,*,#319,.F.);
#258=ORIENTED_EDGE('',*,*,#316,.F.);
#259=ORIENTED_EDGE('',*,*,#313,.F.);
#260=ORIENTED_EDGE('',*,*,#310,.F.);
#261=ORIENTED_EDGE('',*,*,#307,.F.);
#262=ORIENTED_EDGE('',*,*,#304,.F.);
#263=ORIENTED_EDGE('',*,*,#301,.F.);
#264=ORIENTED_EDGE('',*,*,#298,.F.);
#265=ORIENTED_EDGE('',*,*,#295,.F.);
#266=ORIENTED_EDGE('',*,*,#340,.F.);
#267=ORIENTED_EDGE('',*,*,#344,.F.);
#268=ORIENTED_EDGE('',*,*,#347,.F.);
#269=ORIENTED_EDGE('',*,*,#350,.F.);
#270=ORIENTED_EDGE('',*,*,#353,.F.);
#271=ORIENTED_EDGE('',*,*,#358,.F.);
#272=ORIENTED_EDGE('',*,*,#324,.F.);
#273=ORIENTED_EDGE('',*,*,#328,.F.);
#274=ORIENTED_EDGE('',*,*,#331,.F.);
#275=ORIENTED_EDGE('',*,*,#334,.F.);
#276=ORIENTED_EDGE('',*,*,#337,.F.);
#277=ORIENTED_EDGE('',*,*,#356,.F.);
#278=ORIENTED_EDGE('',*,*,#290,.T.);
#279=ORIENTED_EDGE('',*,*,#294,.T.);
#280=ORIENTED_EDGE('',*,*,#297,.T.);
#281=ORIENTED_EDGE('',*,*,#300,.T.);
#282=ORIENTED_EDGE('',*,*,#303,.T.);
#283=ORIENTED_EDGE('',*,*,#306,.T.);
#284=ORIENTED_EDGE('',*,*,#309,.T.);
#285=ORIENTED_EDGE('',*,*,#312,.T.);
#286=ORIENTED_EDGE('',*,*,#315,.T.);
#287=ORIENTED_EDGE('',*,*,#318,.T.);
#288=ORIENTED_EDGE('',*,*,#321,.T.);
#289=ORIENTED_EDGE('',*,*,#360,.F.);
#290=EDGE_CURVE('',#362,#363,#410,.T.);
#291=EDGE_CURVE('',#364,#362,#62,.T.);
#292=EDGE_CURVE('',#364,#365,#411,.T.);
#293=EDGE_CURVE('',#365,#363,#63,.T.);
#294=EDGE_CURVE('',#363,#366,#23,.T.);
#295=EDGE_CURVE('',#365,#367,#24,.T.);
#296=EDGE_CURVE('',#367,#366,#64,.T.);
#297=EDGE_CURVE('',#366,#368,#25,.T.);
#298=EDGE_CURVE('',#367,#369,#26,.T.);
#299=EDGE_CURVE('',#369,#368,#65,.T.);
#300=EDGE_CURVE('',#368,#370,#27,.T.);
#301=EDGE_CURVE('',#369,#371,#28,.T.);
#302=EDGE_CURVE('',#371,#370,#66,.T.);
#303=EDGE_CURVE('',#370,#372,#67,.T.);
#304=EDGE_CURVE('',#371,#373,#68,.T.);
#305=EDGE_CURVE('',#373,#372,#69,.T.);
#306=EDGE_CURVE('',#372,#374,#70,.T.);
#307=EDGE_CURVE('',#373,#375,#71,.T.);
#308=EDGE_CURVE('',#375,#374,#72,.T.);
#309=EDGE_CURVE('',#374,#376,#73,.T.);
#310=EDGE_CURVE('',#375,#377,#74,.T.);
#311=EDGE_CURVE('',#377,#376,#75,.T.);
#312=EDGE_CURVE('',#376,#378,#29,.T.);
#313=EDGE_CURVE('',#377,#379,#30,.T.);
#314=EDGE_CURVE('',#379,#378,#76,.T.);
#315=EDGE_CURVE('',#378,#380,#31,.T.);
#316=EDGE_CURVE('',#379,#381,#32,.T.);
#317=EDGE_CURVE('',#381,#380,#77,.T.);
#318=EDGE_CURVE('',#380,#382,#33,.T.);
#319=EDGE_CURVE('',#381,#383,#34,.T.);
#320=EDGE_CURVE('',#383,#382,#78,.T.);
#321=EDGE_CURVE('',#382,#384,#35,.T.);
#322=EDGE_CURVE('',#383,#385,#36,.T.);
#323=EDGE_CURVE('',#385,#384,#79,.T.);
#324=EDGE_CURVE('',#386,#387,#80,.T.);
#325=EDGE_CURVE('',#388,#387,#81,.T.);
#326=EDGE_CURVE('',#389,#388,#82,.T.);
#327=EDGE_CURVE('',#389,#386,#83,.T.);
#328=EDGE_CURVE('',#390,#386,#84,.T.);
#329=EDGE_CURVE('',#391,#389,#85,.T.);
#330=EDGE_CURVE('',#391,#390,#86,.T.);
#331=EDGE_CURVE('',#392,#390,#87,.T.);
#332=EDGE_CURVE('',#393,#391,#88,.T.);
#333=EDGE_CURVE('',#393,#392,#89,.T.);
#334=EDGE_CURVE('',#394,#392,#37,.T.);
#335=EDGE_CURVE('',#395,#393,#38,.T.);
#336=EDGE_CURVE('',#395,#394,#90,.T.);
#337=EDGE_CURVE('',#396,#394,#39,.T.);
#338=EDGE_CURVE('',#397,#395,#40,.T.);
#339=EDGE_CURVE('',#397,#396,#91,.T.);
#340=EDGE_CURVE('',#398,#399,#92,.T.);
#341=EDGE_CURVE('',#400,#399,#93,.T.);
#342=EDGE_CURVE('',#401,#400,#94,.T.);
#343=EDGE_CURVE('',#401,#398,#95,.T.);
#344=EDGE_CURVE('',#402,#398,#96,.T.);
#345=EDGE_CURVE('',#403,#401,#97,.T.);
#346=EDGE_CURVE('',#403,#402,#98,.T.);
#347=EDGE_CURVE('',#404,#402,#41,.T.);
#348=EDGE_CURVE('',#405,#403,#42,.T.);
#349=EDGE_CURVE('',#405,#404,#99,.T.);
#350=EDGE_CURVE('',#406,#404,#43,.T.);
#351=EDGE_CURVE('',#407,#405,#44,.T.);
#352=EDGE_CURVE('',#407,#406,#100,.T.);
#353=EDGE_CURVE('',#408,#406,#45,.T.);
#354=EDGE_CURVE('',#409,#407,#46,.T.);
#355=EDGE_CURVE('',#409,#408,#101,.T.);
#356=EDGE_CURVE('',#387,#396,#47,.T.);
#357=EDGE_CURVE('',#388,#397,#48,.T.);
#358=EDGE_CURVE('',#399,#408,#102,.T.);
#359=EDGE_CURVE('',#400,#409,#103,.T.);
#360=EDGE_CURVE('',#362,#384,#412,.T.);
#361=EDGE_CURVE('',#364,#385,#413,.T.);
#362=VERTEX_POINT('',#613);
#363=VERTEX_POINT('',#614);
#364=VERTEX_POINT('',#616);
#365=VERTEX_POINT('',#618);
#366=VERTEX_POINT('',#635);
#367=VERTEX_POINT('',#643);
#368=VERTEX_POINT('',#658);
#369=VERTEX_POINT('',#664);
#370=VERTEX_POINT('',#679);
#371=VERTEX_POINT('',#685);
#372=VERTEX_POINT('',#689);
#373=VERTEX_POINT('',#691);
#374=VERTEX_POINT('',#695);
#375=VERTEX_POINT('',#697);
#376=VERTEX_POINT('',#701);
#377=VERTEX_POINT('',#703);
#378=VERTEX_POINT('',#718);
#379=VERTEX_POINT('',#724);
#380=VERTEX_POINT('',#739);
#381=VERTEX_POINT('',#745);
#382=VERTEX_POINT('',#762);
#383=VERTEX_POINT('',#770);
#384=VERTEX_POINT('',#787);
#385=VERTEX_POINT('',#795);
#386=VERTEX_POINT('',#799);
#387=VERTEX_POINT('',#800);
#388=VERTEX_POINT('',#802);
#389=VERTEX_POINT('',#804);
#390=VERTEX_POINT('',#808);
#391=VERTEX_POINT('',#810);
#392=VERTEX_POINT('',#814);
#393=VERTEX_POINT('',#816);
#394=VERTEX_POINT('',#831);
#395=VERTEX_POINT('',#837);
#396=VERTEX_POINT('',#852);
#397=VERTEX_POINT('',#858);
#398=VERTEX_POINT('',#862);
#399=VERTEX_POINT('',#863);
#400=VERTEX_POINT('',#865);
#401=VERTEX_POINT('',#867);
#402=VERTEX_POINT('',#871);
#403=VERTEX_POINT('',#873);
#404=VERTEX_POINT('',#895);
#405=VERTEX_POINT('',#906);
#406=VERTEX_POINT('',#921);
#407=VERTEX_POINT('',#927);
#408=VERTEX_POINT('',#942);
#409=VERTEX_POINT('',#948);
#410=CIRCLE('',#516,0.000987678748916311);
#411=CIRCLE('',#517,0.000987678748916311);
#412=CIRCLE('',#528,0.0001);
#413=CIRCLE('',#529,0.0001);
#414=EDGE_LOOP('',(#146,#147,#148,#149));
#415=EDGE_LOOP('',(#150,#151,#152,#153));
#416=EDGE_LOOP('',(#154,#155,#156,#157));
#417=EDGE_LOOP('',(#158,#159,#160,#161));
#418=EDGE_LOOP('',(#162,#163,#164,#165));
#419=EDGE_LOOP('',(#166,#167,#168,#169));
#420=EDGE_LOOP('',(#170,#171,#172,#173));
#421=EDGE_LOOP('',(#174,#175,#176,#177));
#422=EDGE_LOOP('',(#178,#179,#180,#181));
#423=EDGE_LOOP('',(#182,#183,#184,#185));
#424=EDGE_LOOP('',(#186,#187,#188,#189));
#425=EDGE_LOOP('',(#190,#191,#192,#193));
#426=EDGE_LOOP('',(#194,#195,#196,#197));
#427=EDGE_LOOP('',(#198,#199,#200,#201));
#428=EDGE_LOOP('',(#202,#203,#204,#205));
#429=EDGE_LOOP('',(#206,#207,#208,#209));
#430=EDGE_LOOP('',(#210,#211,#212,#213));
#431=EDGE_LOOP('',(#214,#215,#216,#217));
#432=EDGE_LOOP('',(#218,#219,#220,#221));
#433=EDGE_LOOP('',(#222,#223,#224,#225));
#434=EDGE_LOOP('',(#226,#227,#228,#229));
#435=EDGE_LOOP('',(#230,#231,#232,#233));
#436=EDGE_LOOP('',(#234,#235,#236,#237));
#437=EDGE_LOOP('',(#238,#239,#240,#241));
#438=EDGE_LOOP('',(#242,#243,#244,#245,#246,#247));
#439=EDGE_LOOP('',(#248,#249,#250,#251,#252,#253));
#440=EDGE_LOOP('',(#254,#255,#256,#257,#258,#259,#260,#261,#262,#263,#264,
#265));
#441=EDGE_LOOP('',(#266,#267,#268,#269,#270,#271));
#442=EDGE_LOOP('',(#272,#273,#274,#275,#276,#277));
#443=EDGE_LOOP('',(#278,#279,#280,#281,#282,#283,#284,#285,#286,#287,#288,
#289));
#444=FACE_BOUND('',#414,.T.);
#445=FACE_BOUND('',#415,.T.);
#446=FACE_BOUND('',#416,.T.);
#447=FACE_BOUND('',#417,.T.);
#448=FACE_BOUND('',#418,.T.);
#449=FACE_BOUND('',#419,.T.);
#450=FACE_BOUND('',#420,.T.);
#451=FACE_BOUND('',#421,.T.);
#452=FACE_BOUND('',#422,.T.);
#453=FACE_BOUND('',#423,.T.);
#454=FACE_BOUND('',#424,.T.);
#455=FACE_BOUND('',#425,.T.);
#456=FACE_BOUND('',#426,.T.);
#457=FACE_BOUND('',#427,.T.);
#458=FACE_BOUND('',#428,.T.);
#459=FACE_BOUND('',#429,.T.);
#460=FACE_BOUND('',#430,.T.);
#461=FACE_BOUND('',#431,.T.);
#462=FACE_BOUND('',#432,.T.);
#463=FACE_BOUND('',#433,.T.);
#464=FACE_BOUND('',#434,.T.);
#465=FACE_BOUND('',#435,.T.);
#466=FACE_BOUND('',#436,.T.);
#467=FACE_BOUND('',#437,.T.);
#468=FACE_BOUND('',#438,.T.);
#469=FACE_BOUND('',#439,.T.);
#470=FACE_BOUND('',#440,.T.);
#471=FACE_BOUND('',#441,.T.);
#472=FACE_BOUND('',#442,.T.);
#473=FACE_BOUND('',#443,.T.);
#474=CYLINDRICAL_SURFACE('',#515,0.000987678748916311);
#475=CYLINDRICAL_SURFACE('',#527,0.0001);
#476=ADVANCED_FACE('',(#444),#474,.T.);
#477=ADVANCED_FACE('',(#445),#49,.T.);
#478=ADVANCED_FACE('',(#446),#50,.T.);
#479=ADVANCED_FACE('',(#447),#51,.T.);
#480=ADVANCED_FACE('',(#448),#12,.T.);
#481=ADVANCED_FACE('',(#449),#13,.T.);
#482=ADVANCED_FACE('',(#450),#14,.T.);
#483=ADVANCED_FACE('',(#451),#52,.T.);
#484=ADVANCED_FACE('',(#452),#53,.T.);
#485=ADVANCED_FACE('',(#453),#54,.T.);
#486=ADVANCED_FACE('',(#454),#55,.T.);
#487=ADVANCED_FACE('',(#455),#15,.F.);
#488=ADVANCED_FACE('',(#456),#16,.F.);
#489=ADVANCED_FACE('',(#457),#17,.F.);
#490=ADVANCED_FACE('',(#458),#56,.F.);
#491=ADVANCED_FACE('',(#459),#57,.F.);
#492=ADVANCED_FACE('',(#460),#18,.F.);
#493=ADVANCED_FACE('',(#461),#19,.F.);
#494=ADVANCED_FACE('',(#462),#58,.F.);
#495=ADVANCED_FACE('',(#463),#59,.F.);
#496=ADVANCED_FACE('',(#464),#60,.F.);
#497=ADVANCED_FACE('',(#465),#61,.F.);
#498=ADVANCED_FACE('',(#466),#20,.F.);
#499=ADVANCED_FACE('',(#467),#475,.F.);
#500=ADVANCED_FACE('',(#468,#469,#470),#21,.F.);
#501=ADVANCED_FACE('',(#471,#472,#473),#22,.T.);
#502=CLOSED_SHELL('',(#476,#477,#478,#479,#480,#481,#482,#483,#484,#485,
#486,#487,#488,#489,#490,#491,#492,#493,#494,#495,#496,#497,#498,#499,#500,
#501));
#503=STYLED_ITEM('',(#504),#511);
#504=PRESENTATION_STYLE_ASSIGNMENT((#505));
#505=SURFACE_STYLE_USAGE(.BOTH.,#506);
#506=SURFACE_SIDE_STYLE('',(#507));
#507=SURFACE_STYLE_FILL_AREA(#508);
#508=FILL_AREA_STYLE('',(#509));
#509=FILL_AREA_STYLE_COLOUR('',#510);
#510=COLOUR_RGB('',0.149019607843137,0.145098039215686,0.145098039215686);
#511=MANIFOLD_SOLID_BREP('Part 16',#502);
#512=SHAPE_DEFINITION_REPRESENTATION(#994,#513);
#513=SHAPE_REPRESENTATION('Part 16',(#514),#989);
#514=AXIS2_PLACEMENT_3D('',#610,#532,#533);
#515=AXIS2_PLACEMENT_3D('',#611,#534,#535);
#516=AXIS2_PLACEMENT_3D('',#612,#536,#537);
#517=AXIS2_PLACEMENT_3D('',#617,#539,#540);
#518=AXIS2_PLACEMENT_3D('',#687,#545,#546);
#519=AXIS2_PLACEMENT_3D('',#693,#550,#551);
#520=AXIS2_PLACEMENT_3D('',#699,#555,#556);
#521=AXIS2_PLACEMENT_3D('',#797,#564,#565);
#522=AXIS2_PLACEMENT_3D('',#806,#570,#571);
#523=AXIS2_PLACEMENT_3D('',#812,#575,#576);
#524=AXIS2_PLACEMENT_3D('',#860,#582,#583);
#525=AXIS2_PLACEMENT_3D('',#869,#588,#589);
#526=AXIS2_PLACEMENT_3D('',#980,#596,#597);
#527=AXIS2_PLACEMENT_3D('',#983,#600,#601);
#528=AXIS2_PLACEMENT_3D('',#984,#602,#603);
#529=AXIS2_PLACEMENT_3D('',#985,#604,#605);
#530=AXIS2_PLACEMENT_3D('',#986,#606,#607);
#531=AXIS2_PLACEMENT_3D('',#987,#608,#609);
#532=DIRECTION('',(0.,0.,1.));
#533=DIRECTION('',(1.,0.,0.));
#534=DIRECTION('',(0.,0.,1.));
#535=DIRECTION('',(0.696222543946734,-0.717826002106595,0.));
#536=DIRECTION('',(0.,0.,1.));
#537=DIRECTION('',(1.,0.,0.));
#538=DIRECTION('',(0.,0.,1.));
#539=DIRECTION('',(0.,0.,1.));
#540=DIRECTION('',(1.,0.,0.));
#541=DIRECTION('',(0.,0.,1.));
#542=DIRECTION('',(0.,0.,1.));
#543=DIRECTION('',(0.,0.,1.));
#544=DIRECTION('',(0.,0.,1.));
#545=DIRECTION('',(0.,1.,0.));
#546=DIRECTION('',(0.,0.,1.));
#547=DIRECTION('',(-1.,0.,0.));
#548=DIRECTION('',(-1.,0.,0.));
#549=DIRECTION('',(0.,0.,1.));
#550=DIRECTION('',(-1.,0.,0.));
#551=DIRECTION('',(0.,0.,1.));
#552=DIRECTION('',(0.,-1.,0.));
#553=DIRECTION('',(0.,-1.,0.));
#554=DIRECTION('',(0.,0.,1.));
#555=DIRECTION('',(0.,-1.,0.));
#556=DIRECTION('',(0.,0.,-1.));
#557=DIRECTION('',(1.,0.,0.));
#558=DIRECTION('',(1.,0.,0.));
#559=DIRECTION('',(0.,0.,1.));
#560=DIRECTION('',(0.,0.,1.));
#561=DIRECTION('',(0.,0.,1.));
#562=DIRECTION('',(0.,0.,1.));
#563=DIRECTION('',(0.,0.,1.));
#564=DIRECTION('',(0.,-1.,0.));
#565=DIRECTION('',(0.,0.,-1.));
#566=DIRECTION('',(1.,0.,0.));
#567=DIRECTION('',(0.,0.,1.));
#568=DIRECTION('',(1.,0.,0.));
#569=DIRECTION('',(0.,0.,1.));
#570=DIRECTION('',(-1.,0.,0.));
#571=DIRECTION('',(0.,0.,1.));
#572=DIRECTION('',(0.,-1.,0.));
#573=DIRECTION('',(0.,-1.,0.));
#574=DIRECTION('',(0.,0.,1.));
#575=DIRECTION('',(0.,1.,0.));
#576=DIRECTION('',(0.,0.,1.));
#577=DIRECTION('',(-1.,0.,0.));
#578=DIRECTION('',(-1.,0.,0.));
#579=DIRECTION('',(0.,0.,1.));
#580=DIRECTION('',(0.,0.,1.));
#581=DIRECTION('',(0.,0.,1.));
#582=DIRECTION('',(-1.,0.,0.));
#583=DIRECTION('',(0.,0.,1.));
#584=DIRECTION('',(0.,-1.,0.));
#585=DIRECTION('',(0.,0.,1.));
#586=DIRECTION('',(0.,-1.,0.));
#587=DIRECTION('',(0.,0.,1.));
#588=DIRECTION('',(0.,1.,0.));
#589=DIRECTION('',(0.,0.,1.));
#590=DIRECTION('',(-1.,0.,0.));
#591=DIRECTION('',(-1.,0.,0.));
#592=DIRECTION('',(0.,0.,1.));
#593=DIRECTION('',(0.,0.,1.));
#594=DIRECTION('',(0.,0.,1.));
#595=DIRECTION('',(0.,0.,1.));
#596=DIRECTION('',(0.,-1.,0.));
#597=DIRECTION('',(0.,0.,-1.));
#598=DIRECTION('',(1.,0.,0.));
#599=DIRECTION('',(1.,0.,0.));
#600=DIRECTION('',(0.,0.,1.));
#601=DIRECTION('',(1.,0.,0.));
#602=DIRECTION('',(0.,0.,1.));
#603=DIRECTION('',(1.,0.,0.));
#604=DIRECTION('',(0.,0.,1.));
#605=DIRECTION('',(1.,0.,0.));
#606=DIRECTION('',(0.,0.,1.));
#607=DIRECTION('',(1.,0.,0.));
#608=DIRECTION('',(0.,0.,1.));
#609=DIRECTION('',(1.,0.,0.));
#610=CARTESIAN_POINT('',(0.,0.,0.));
#611=CARTESIAN_POINT('',(0.000614765761234432,-0.019007803193328,0.0042));
#612=CARTESIAN_POINT('',(0.000614765761234432,-0.019007803193328,0.005));
#613=CARTESIAN_POINT('',(0.00110965374880857,-0.0198629725598801,0.005));
#614=CARTESIAN_POINT('',(0.00145207680699633,-0.0195314371339902,0.005));
#615=CARTESIAN_POINT('',(0.00110983614178379,-0.0198632877366819,0.0042));
#616=CARTESIAN_POINT('',(0.00110965375592159,-0.0198629725728341,0.00420000024998986));
#617=CARTESIAN_POINT('',(0.000614765761234432,-0.019007803193328,0.0042));
#618=CARTESIAN_POINT('',(0.00145207680699633,-0.0195314371339902,0.0042));
#619=CARTESIAN_POINT('',(0.00145207680699633,-0.0195314371339902,0.0042));
#620=CARTESIAN_POINT('',(0.00145207666222693,-0.0195314370366257,0.0042));
#621=CARTESIAN_POINT('',(0.00145207666222693,-0.0195314370366257,0.005));
#622=CARTESIAN_POINT('',(0.00159797638925294,-0.0193145015824471,0.0042));
#623=CARTESIAN_POINT('',(0.00159797638925294,-0.0193145015824471,0.005));
#624=CARTESIAN_POINT('',(0.00171681692827483,-0.0190928597190317,0.0042));
#625=CARTESIAN_POINT('',(0.00171681692827483,-0.0190928597190317,0.005));
#626=CARTESIAN_POINT('',(0.00171681692827482,-0.0187964071604325,0.0042));
#627=CARTESIAN_POINT('',(0.00171681692827482,-0.0187964071604325,0.005));
#628=CARTESIAN_POINT('',(0.0014520766332954,-0.0195314370796434,0.005));
#629=CARTESIAN_POINT('',(0.00148279829139908,-0.0194857576463114,0.005));
#630=CARTESIAN_POINT('',(0.00151351994950276,-0.0194400782129794,0.005));
#631=CARTESIAN_POINT('',(0.00154424160760644,-0.0193943987796474,0.005));
#632=CARTESIAN_POINT('',(0.00165941968617262,-0.0192231427444616,0.005));
#633=CARTESIAN_POINT('',(0.00171681692827482,-0.0190304366324643,0.005));
#634=CARTESIAN_POINT('',(0.00171681692827482,-0.0187964071604325,0.005));
#635=CARTESIAN_POINT('',(0.00171681692827482,-0.0187964071604325,0.005));
#636=CARTESIAN_POINT('',(0.0014520766332954,-0.0195314370796434,0.0042));
#637=CARTESIAN_POINT('',(0.00148279829139908,-0.0194857576463114,0.0042));
#638=CARTESIAN_POINT('',(0.00151351994950276,-0.0194400782129794,0.0042));
#639=CARTESIAN_POINT('',(0.00154424160760644,-0.0193943987796474,0.0042));
#640=CARTESIAN_POINT('',(0.00165941968617262,-0.0192231427444616,0.0042));
#641=CARTESIAN_POINT('',(0.00171681692827482,-0.0190304366324643,0.0042));
#642=CARTESIAN_POINT('',(0.00171681692827482,-0.0187964071604325,0.0042));
#643=CARTESIAN_POINT('',(0.00171681692827482,-0.0187964071604325,0.0042));
#644=CARTESIAN_POINT('',(0.00171681692827482,-0.0187964071604325,0.0042));
#645=CARTESIAN_POINT('',(0.00171681692827482,-0.0187964071604325,0.0042));
#646=CARTESIAN_POINT('',(0.00171681692827482,-0.0187964071604325,0.005));
#647=CARTESIAN_POINT('',(0.00171681692827483,-0.0183506068959935,0.0042));
#648=CARTESIAN_POINT('',(0.00171681692827483,-0.0183506068959935,0.005));
#649=CARTESIAN_POINT('',(0.00157635217725239,-0.0180546025562093,0.0042));
#650=CARTESIAN_POINT('',(0.00157635217725239,-0.0180546025562093,0.005));
#651=CARTESIAN_POINT('',(0.00128214097423079,-0.0178366937913545,0.0042));
#652=CARTESIAN_POINT('',(0.00128214097423079,-0.0178366937913545,0.005));
#653=CARTESIAN_POINT('',(0.00171681692827482,-0.0187964071604325,0.005));
#654=CARTESIAN_POINT('',(0.00171681692827482,-0.018573507028213,0.005));
#655=CARTESIAN_POINT('',(0.00163941588514424,-0.0182017267754195,0.005));
#656=CARTESIAN_POINT('',(0.00142924657574159,-0.0179456481737819,0.005));
#657=CARTESIAN_POINT('',(0.00128214097423079,-0.0178366937913545,0.005));
#658=CARTESIAN_POINT('',(0.00128214097423079,-0.0178366937913545,0.005));
#659=CARTESIAN_POINT('',(0.00171681692827482,-0.0187964071604325,0.0042));
#660=CARTESIAN_POINT('',(0.00171681692827482,-0.018573507028213,0.0042));
#661=CARTESIAN_POINT('',(0.00163941588514424,-0.0182017267754195,0.0042));
#662=CARTESIAN_POINT('',(0.00142924657574159,-0.0179456481737819,0.0042));
#663=CARTESIAN_POINT('',(0.00128214097423079,-0.0178366937913545,0.0042));
#664=CARTESIAN_POINT('',(0.00128214097423079,-0.0178366937913545,0.0042));
#665=CARTESIAN_POINT('',(0.00128214097423079,-0.0178366937913545,0.0042));
#666=CARTESIAN_POINT('',(0.00128214097423079,-0.0178366937913545,0.0042));
#667=CARTESIAN_POINT('',(0.00128214097423079,-0.0178366937913545,0.005));
#668=CARTESIAN_POINT('',(0.000987950922824066,-0.0176188006925322,0.0042));
#669=CARTESIAN_POINT('',(0.000987950922824066,-0.0176188006925322,0.005));
#670=CARTESIAN_POINT('',(0.00052749958719006,-0.0174940651926008,0.0042));
#671=CARTESIAN_POINT('',(0.00052749958719006,-0.0174940651926008,0.005));
#672=CARTESIAN_POINT('',(-0.000112007349053672,-0.0174940651926008,0.0042));
#673=CARTESIAN_POINT('',(-0.000112007349053672,-0.0174940651926008,0.005));
#674=CARTESIAN_POINT('',(0.00128214097423079,-0.0178366937913545,0.005));
#675=CARTESIAN_POINT('',(0.00113504594852743,-0.0177277472419433,0.005));
#676=CARTESIAN_POINT('',(0.000760841245195249,-0.0175560174744887,0.005));
#677=CARTESIAN_POINT('',(0.000207746119068194,-0.0174940651926008,0.005));
#678=CARTESIAN_POINT('',(-0.000112007349053672,-0.0174940651926008,0.005));
#679=CARTESIAN_POINT('',(-0.000112007349053689,-0.0174940651926008,0.005));
#680=CARTESIAN_POINT('',(0.00128214097423079,-0.0178366937913545,0.0042));
#681=CARTESIAN_POINT('',(0.00113504594852743,-0.0177277472419433,0.0042));
#682=CARTESIAN_POINT('',(0.000760841245195249,-0.0175560174744887,0.0042));
#683=CARTESIAN_POINT('',(0.000207746119068194,-0.0174940651926008,0.0042));
#684=CARTESIAN_POINT('',(-0.000112007349053672,-0.0174940651926008,0.0042));
#685=CARTESIAN_POINT('',(-0.000112007349053689,-0.0174940651926008,0.0042));
#686=CARTESIAN_POINT('',(-0.000112007349053689,-0.0174940651926008,0.0042));
#687=CARTESIAN_POINT('',(-0.000972205062254874,-0.0174940651926008,0.0042));
#688=CARTESIAN_POINT('',(-0.000972205062254874,-0.0174940651926008,0.005));
#689=CARTESIAN_POINT('',(-0.00183240277545606,-0.0174940651926008,0.005));
#690=CARTESIAN_POINT('',(-0.000972205062254874,-0.0174940651926008,0.0042));
#691=CARTESIAN_POINT('',(-0.00183240277545606,-0.0174940651926008,0.0042));
#692=CARTESIAN_POINT('',(-0.00183240277545606,-0.0174940651926008,0.0042));
#693=CARTESIAN_POINT('',(-0.00183240277545606,-0.0200349055910107,0.0042));
#694=CARTESIAN_POINT('',(-0.00183240277545606,-0.0200349055910107,0.005));
#695=CARTESIAN_POINT('',(-0.00183240277545606,-0.0225757459894207,0.005));
#696=CARTESIAN_POINT('',(-0.00183240277545606,-0.0200349055910107,0.0042));
#697=CARTESIAN_POINT('',(-0.00183240277545606,-0.0225757459894207,0.0042));
#698=CARTESIAN_POINT('',(-0.00183240277545606,-0.0225757459894207,0.0042));
#699=CARTESIAN_POINT('',(-0.00086717979191856,-0.0225757459894207,0.0042));
#700=CARTESIAN_POINT('',(-0.00086717979191856,-0.0225757459894207,0.005));
#701=CARTESIAN_POINT('',(9.80431916138283E-5,-0.0225757459886183,0.005));
#702=CARTESIAN_POINT('',(-0.00086717979191856,-0.0225757459894207,0.0042));
#703=CARTESIAN_POINT('',(9.80431916138283E-5,-0.0225757459886183,0.0042));
#704=CARTESIAN_POINT('',(9.80431916138283E-5,-0.0225757459886183,0.0042));
#705=CARTESIAN_POINT('',(9.80431916138283E-5,-0.0225757459886183,0.0042));
#706=CARTESIAN_POINT('',(9.80431916138283E-5,-0.0225757459886183,0.005));
#707=CARTESIAN_POINT('',(0.000691364935577682,-0.0225710413422004,0.0042));
#708=CARTESIAN_POINT('',(0.000691364935577682,-0.0225710413422004,0.005));
#709=CARTESIAN_POINT('',(0.0011219126049385,-0.0224396999183979,0.0042));
#710=CARTESIAN_POINT('',(0.0011219126049385,-0.0224396999183979,0.005));
#711=CARTESIAN_POINT('',(0.0014118563047794,-0.0222061533821299,0.0042));
#712=CARTESIAN_POINT('',(0.0014118563047794,-0.0222061533821299,0.005));
#713=CARTESIAN_POINT('',(9.80431916138283E-5,-0.0225757459886183,0.005));
#714=CARTESIAN_POINT('',(0.000394576577287149,-0.0225733946762909,0.005));
#715=CARTESIAN_POINT('',(0.000909676258035597,-0.0225046431609512,0.005));
#716=CARTESIAN_POINT('',(0.00126682215501511,-0.022322976832119,0.005));
#717=CARTESIAN_POINT('',(0.0014118563047794,-0.0222061533821299,0.005));
#718=CARTESIAN_POINT('',(0.00141185630477941,-0.0222061533821299,0.005));
#719=CARTESIAN_POINT('',(9.80431916138283E-5,-0.0225757459886183,0.0042));
#720=CARTESIAN_POINT('',(0.000394576577287149,-0.0225733946762909,0.0042));
#721=CARTESIAN_POINT('',(0.000909676258035597,-0.0225046431609512,0.0042));
#722=CARTESIAN_POINT('',(0.00126682215501511,-0.022322976832119,0.0042));
#723=CARTESIAN_POINT('',(0.0014118563047794,-0.0222061533821299,0.0042));
#724=CARTESIAN_POINT('',(0.00141185630477941,-0.0222061533821299,0.0042));
#725=CARTESIAN_POINT('',(0.00141185630477941,-0.0222061533821299,0.0042));
#726=CARTESIAN_POINT('',(0.00141185630477941,-0.0222061533821299,0.0042));
#727=CARTESIAN_POINT('',(0.00141185630477941,-0.0222061533821299,0.005));
#728=CARTESIAN_POINT('',(0.00169901279769157,-0.0219748519111087,0.0042));
#729=CARTESIAN_POINT('',(0.00169901279769157,-0.0219748519111087,0.005));
#730=CARTESIAN_POINT('',(0.00184211248934499,-0.0216489409910677,0.0042));
#731=CARTESIAN_POINT('',(0.00184211248934499,-0.0216489409910677,0.005));
#732=CARTESIAN_POINT('',(0.00184211248934499,-0.0211637704056526,0.0042));
#733=CARTESIAN_POINT('',(0.00184211248934499,-0.0211637704056526,0.005));
#734=CARTESIAN_POINT('',(0.00141185630477941,-0.0222061533821299,0.005));
#735=CARTESIAN_POINT('',(0.00155543455123549,-0.0220905026466193,0.005));
#736=CARTESIAN_POINT('',(0.00176443393344604,-0.0218144060029031,0.005));
#737=CARTESIAN_POINT('',(0.00184211248934499,-0.0214063556983601,0.005));
#738=CARTESIAN_POINT('',(0.00184211248934499,-0.0211637704056526,0.005));
#739=CARTESIAN_POINT('',(0.00184211248934499,-0.0211637704056526,0.005));
#740=CARTESIAN_POINT('',(0.00141185630477941,-0.0222061533821299,0.0042));
#741=CARTESIAN_POINT('',(0.00155543455123549,-0.0220905026466193,0.0042));
#742=CARTESIAN_POINT('',(0.00176443393344604,-0.0218144060029031,0.0042));
#743=CARTESIAN_POINT('',(0.00184211248934499,-0.0214063556983601,0.0042));
#744=CARTESIAN_POINT('',(0.00184211248934499,-0.0211637704056526,0.0042));
#745=CARTESIAN_POINT('',(0.00184211248934499,-0.0211637704056526,0.0042));
#746=CARTESIAN_POINT('',(0.00184211248934499,-0.0211637704056526,0.0042));
#747=CARTESIAN_POINT('',(0.00184211248934499,-0.0211637704056526,0.0042));
#748=CARTESIAN_POINT('',(0.00184211248934499,-0.0211637704056526,0.005));
#749=CARTESIAN_POINT('',(0.00184211248934499,-0.020888500774958,0.0042));
#750=CARTESIAN_POINT('',(0.00184211248934499,-0.020888500774958,0.005));
#751=CARTESIAN_POINT('',(0.00177180545151961,-0.0206761657267047,0.0042));
#752=CARTESIAN_POINT('',(0.00177180545151961,-0.0206761657267047,0.005));
#753=CARTESIAN_POINT('',(0.001636756313055,-0.0204986630224317,0.0042));
#754=CARTESIAN_POINT('',(0.001636756313055,-0.0204986630224317,0.005));
#755=CARTESIAN_POINT('',(0.00184211248934499,-0.0211637704056526,0.005));
#756=CARTESIAN_POINT('',(0.00184211248934499,-0.0208904200074627,0.005));
#757=CARTESIAN_POINT('',(0.00177368862835723,-0.0206786408922967,0.005));
#758=CARTESIAN_POINT('',(0.00163958107831095,-0.020502375770825,0.005));
#759=CARTESIAN_POINT('',(0.0016386394898923,-0.0205011381880273,0.005));
#760=CARTESIAN_POINT('',(0.00163769790147365,-0.0204999006052295,0.005));
#761=CARTESIAN_POINT('',(0.001636756313055,-0.0204986630224317,0.005));
#762=CARTESIAN_POINT('',(0.001636756313055,-0.0204986630224317,0.005));
#763=CARTESIAN_POINT('',(0.00184211248934499,-0.0211637704056526,0.0042));
#764=CARTESIAN_POINT('',(0.00184211248934499,-0.0208904200074627,0.0042));
#765=CARTESIAN_POINT('',(0.00177368862835723,-0.0206786408922967,0.0042));
#766=CARTESIAN_POINT('',(0.00163958107831095,-0.020502375770825,0.0042));
#767=CARTESIAN_POINT('',(0.0016386394898923,-0.0205011381880273,0.0042));
#768=CARTESIAN_POINT('',(0.00163769790147365,-0.0204999006052295,0.0042));
#769=CARTESIAN_POINT('',(0.001636756313055,-0.0204986630224317,0.0042));
#770=CARTESIAN_POINT('',(0.001636756313055,-0.0204986630224317,0.0042));
#771=CARTESIAN_POINT('',(0.001636756313055,-0.0204986630224317,0.0042));
#772=CARTESIAN_POINT('',(0.001636756313055,-0.0204986630224317,0.0042));
#773=CARTESIAN_POINT('',(0.001636756313055,-0.0204986630224317,0.005));
#774=CARTESIAN_POINT('',(0.00151896273049017,-0.0202921388470146,0.0042));
#775=CARTESIAN_POINT('',(0.00151896273049017,-0.0202921388470146,0.005));
#776=CARTESIAN_POINT('',(0.00131624611686607,-0.0201638880870754,0.0042));
#777=CARTESIAN_POINT('',(0.00131624611686607,-0.0201638880870754,0.005));
#778=CARTESIAN_POINT('',(0.00110983616369607,-0.0200317163797375,0.0042));
#779=CARTESIAN_POINT('',(0.00110983616369607,-0.0200317163797375,0.005));
#780=CARTESIAN_POINT('',(0.001636756313055,-0.0204986630224317,0.005));
#781=CARTESIAN_POINT('',(0.00155840329478048,-0.0203612888791359,0.005));
#782=CARTESIAN_POINT('',(0.00145446969154478,-0.0202523976069851,0.005));
#783=CARTESIAN_POINT('',(0.00131717152571413,-0.0201644806596019,0.005));
#784=CARTESIAN_POINT('',(0.00124805973837477,-0.020120225899647,0.005));
#785=CARTESIAN_POINT('',(0.00117894795103542,-0.0200759711396922,0.005));
#786=CARTESIAN_POINT('',(0.00110983616369607,-0.0200317163797375,0.005));
#787=CARTESIAN_POINT('',(0.00110983617720875,-0.0200317163586349,0.005));
#788=CARTESIAN_POINT('',(0.001636756313055,-0.0204986630224317,0.0042));
#789=CARTESIAN_POINT('',(0.00155840329478048,-0.0203612888791359,0.0042));
#790=CARTESIAN_POINT('',(0.00145446969154478,-0.0202523976069851,0.0042));
#791=CARTESIAN_POINT('',(0.00131717152571413,-0.0201644806596019,0.0042));
#792=CARTESIAN_POINT('',(0.00124805973837477,-0.020120225899647,0.0042));
#793=CARTESIAN_POINT('',(0.00117894795103542,-0.0200759711396922,0.0042));
#794=CARTESIAN_POINT('',(0.00110983616369607,-0.0200317163797375,0.0042));
#795=CARTESIAN_POINT('',(0.00110983617720875,-0.0200317163586349,0.0042));
#796=CARTESIAN_POINT('',(0.00110983617720875,-0.0200317163586349,0.0042));
#797=CARTESIAN_POINT('',(-0.000583433535489184,-0.0197903473022137,0.0042));
#798=CARTESIAN_POINT('',(-0.000583433535489184,-0.0197903473022137,0.005));
#799=CARTESIAN_POINT('',(-0.00110233319580396,-0.0197903473022137,0.005));
#800=CARTESIAN_POINT('',(-6.45338751744043E-5,-0.0197903473022137,0.005));
#801=CARTESIAN_POINT('',(-6.45338751744043E-5,-0.0197903473022137,0.0042));
#802=CARTESIAN_POINT('',(-6.45338751744043E-5,-0.0197903473022137,0.0042));
#803=CARTESIAN_POINT('',(-0.000583433535489184,-0.0197903473022137,0.0042));
#804=CARTESIAN_POINT('',(-0.00110233319580396,-0.0197903473022137,0.0042));
#805=CARTESIAN_POINT('',(-0.00110233319580396,-0.0197903473022137,0.0042));
#806=CARTESIAN_POINT('',(-0.00110233319580396,-0.0188994145688123,0.0042));
#807=CARTESIAN_POINT('',(-0.00110233319580396,-0.0188994145688123,0.005));
#808=CARTESIAN_POINT('',(-0.00110233319580396,-0.0180084818354109,0.005));
#809=CARTESIAN_POINT('',(-0.00110233319580396,-0.0188994145688123,0.0042));
#810=CARTESIAN_POINT('',(-0.00110233319580396,-0.0180084818354109,0.0042));
#811=CARTESIAN_POINT('',(-0.00110233319580396,-0.0180084818354109,0.0042));
#812=CARTESIAN_POINT('',(-0.000607170272428818,-0.0180084818354109,0.0042));
#813=CARTESIAN_POINT('',(-0.000607170272428818,-0.0180084818354109,0.005));
#814=CARTESIAN_POINT('',(-0.000112007349053672,-0.0180084818354109,0.005));
#815=CARTESIAN_POINT('',(-0.000607170272428818,-0.0180084818354109,0.0042));
#816=CARTESIAN_POINT('',(-0.000112007349053672,-0.0180084818354109,0.0042));
#817=CARTESIAN_POINT('',(-0.000112007349053672,-0.0180084818354109,0.0042));
#818=CARTESIAN_POINT('',(0.000692476880991655,-0.0182129179241363,0.0042));
#819=CARTESIAN_POINT('',(0.000692476880991655,-0.0182129179241363,0.005));
#820=CARTESIAN_POINT('',(0.000493019655096753,-0.0180617971290294,0.0042));
#821=CARTESIAN_POINT('',(0.000493019655096753,-0.0180617971290294,0.005));
#822=CARTESIAN_POINT('',(0.000222992897869197,-0.0180084818354109,0.0042));
#823=CARTESIAN_POINT('',(0.000222992897869197,-0.0180084818354109,0.005));
#824=CARTESIAN_POINT('',(-0.000112007349053672,-0.0180084818354109,0.0042));
#825=CARTESIAN_POINT('',(-0.000112007349053672,-0.0180084818354109,0.005));
#826=CARTESIAN_POINT('',(0.000692476880991655,-0.0182129179241363,0.005));
#827=CARTESIAN_POINT('',(0.000592748268044204,-0.0181373575265829,0.005));
#828=CARTESIAN_POINT('',(0.000354385230747444,-0.018036982002198,0.005));
#829=CARTESIAN_POINT('',(5.54927744077625E-5,-0.0180084818354109,0.005));
#830=CARTESIAN_POINT('',(-0.000112007349053672,-0.0180084818354109,0.005));
#831=CARTESIAN_POINT('',(0.000692476880991655,-0.0182129179241363,0.005));
#832=CARTESIAN_POINT('',(0.000692476880991655,-0.0182129179241363,0.0042));
#833=CARTESIAN_POINT('',(0.000592748268044204,-0.0181373575265829,0.0042));
#834=CARTESIAN_POINT('',(0.000354385230747444,-0.018036982002198,0.0042));
#835=CARTESIAN_POINT('',(5.54927744077625E-5,-0.0180084818354109,0.0042));
#836=CARTESIAN_POINT('',(-0.000112007349053672,-0.0180084818354109,0.0042));
#837=CARTESIAN_POINT('',(0.000692476880991655,-0.0182129179241363,0.0042));
#838=CARTESIAN_POINT('',(0.000692476880991655,-0.0182129179241363,0.0042));
#839=CARTESIAN_POINT('',(0.000987952113633018,-0.0189096550713998,0.0042));
#840=CARTESIAN_POINT('',(0.000987952113633018,-0.0189096550713998,0.005));
#841=CARTESIAN_POINT('',(0.000987952113633018,-0.0186220681520688,0.0042));
#842=CARTESIAN_POINT('',(0.000987952113633018,-0.0186220681520688,0.005));
#843=CARTESIAN_POINT('',(0.000894948447706601,-0.0183663225652128,0.0042));
#844=CARTESIAN_POINT('',(0.000894948447706601,-0.0183663225652128,0.005));
#845=CARTESIAN_POINT('',(0.000692476880991655,-0.0182129179241363,0.0042));
#846=CARTESIAN_POINT('',(0.000692476880991655,-0.0182129179241363,0.005));
#847=CARTESIAN_POINT('',(0.000987952113633018,-0.0189096550713998,0.005));
#848=CARTESIAN_POINT('',(0.000987952113633018,-0.0187658616117343,0.005));
#849=CARTESIAN_POINT('',(0.000948018428802504,-0.0185000845584803,0.005));
#850=CARTESIAN_POINT('',(0.000793712664349128,-0.0182896202446746,0.005));
#851=CARTESIAN_POINT('',(0.000692476880991655,-0.0182129179241363,0.005));
#852=CARTESIAN_POINT('',(0.000987952113633018,-0.0189096550713998,0.005));
#853=CARTESIAN_POINT('',(0.000987952113633018,-0.0189096550713998,0.0042));
#854=CARTESIAN_POINT('',(0.000987952113633018,-0.0187658616117343,0.0042));
#855=CARTESIAN_POINT('',(0.000948018428802504,-0.0185000845584803,0.0042));
#856=CARTESIAN_POINT('',(0.000793712664349128,-0.0182896202446746,0.0042));
#857=CARTESIAN_POINT('',(0.000692476880991655,-0.0182129179241363,0.0042));
#858=CARTESIAN_POINT('',(0.000987952113633018,-0.0189096550713998,0.0042));
#859=CARTESIAN_POINT('',(0.000987952113633018,-0.0189096550713998,0.0042));
#860=CARTESIAN_POINT('',(-0.00110233319580396,-0.0211288322203541,0.0042));
#861=CARTESIAN_POINT('',(-0.00110233319580396,-0.0211288322203541,0.005));
#862=CARTESIAN_POINT('',(-0.00110233319580396,-0.020189106504036,0.005));
#863=CARTESIAN_POINT('',(-0.00110233319580396,-0.0220685579366722,0.005));
#864=CARTESIAN_POINT('',(-0.00110233319580396,-0.0220685579366722,0.0042));
#865=CARTESIAN_POINT('',(-0.00110233319580396,-0.0220685579366722,0.0042));
#866=CARTESIAN_POINT('',(-0.00110233319580396,-0.0211288322203541,0.0042));
#867=CARTESIAN_POINT('',(-0.00110233319580396,-0.020189106504036,0.0042));
#868=CARTESIAN_POINT('',(-0.00110233319580396,-0.020189106504036,0.0042));
#869=CARTESIAN_POINT('',(-0.000484191139752005,-0.020189106504036,0.0042));
#870=CARTESIAN_POINT('',(-0.000484191139752005,-0.020189106504036,0.005));
#871=CARTESIAN_POINT('',(0.000133950916299953,-0.020189106504036,0.005));
#872=CARTESIAN_POINT('',(-0.000484191139752005,-0.020189106504036,0.0042));
#873=CARTESIAN_POINT('',(0.000133950916299953,-0.020189106504036,0.0042));
#874=CARTESIAN_POINT('',(0.000133950916299953,-0.020189106504036,0.0042));
#875=CARTESIAN_POINT('',(0.0011120429096929,-0.0211529275205599,0.0042));
#876=CARTESIAN_POINT('',(0.0011120429096929,-0.0211529275205599,0.005));
#877=CARTESIAN_POINT('',(0.0011120429096929,-0.0208672015124802,0.0042));
#878=CARTESIAN_POINT('',(0.0011120429096929,-0.0208672015124802,0.005));
#879=CARTESIAN_POINT('',(0.000944342994992422,-0.0203542603582237,0.0042));
#880=CARTESIAN_POINT('',(0.000944342994992422,-0.0203542603582237,0.005));
#881=CARTESIAN_POINT('',(0.000426200929101115,-0.0201931718056017,0.0042));
#882=CARTESIAN_POINT('',(0.000426200929101115,-0.0201931718056017,0.005));
#883=CARTESIAN_POINT('',(0.000133950916299953,-0.020189106504036,0.0042));
#884=CARTESIAN_POINT('',(0.000133950916299953,-0.020189106504036,0.005));
#885=CARTESIAN_POINT('',(0.0011120429096929,-0.0211529275205599,0.005));
#886=CARTESIAN_POINT('',(0.0011120429096929,-0.021010177831988,0.005));
#887=CARTESIAN_POINT('',(0.00107643232947013,-0.0207462060778112,0.005));
#888=CARTESIAN_POINT('',(0.00087931344587785,-0.0204201844390887,0.005));
#889=CARTESIAN_POINT('',(0.000549220656140906,-0.0202288602305501,0.005));
#890=CARTESIAN_POINT('',(0.000281350853600679,-0.0201911568895626,0.005));
#891=CARTESIAN_POINT('',(0.00013534175000906,-0.0201891258510273,0.005));
#892=CARTESIAN_POINT('',(0.000134878138772691,-0.0201891194020302,0.005));
#893=CARTESIAN_POINT('',(0.000134414527536322,-0.0201891129530331,0.005));
#894=CARTESIAN_POINT('',(0.000133950916299953,-0.020189106504036,0.005));
#895=CARTESIAN_POINT('',(0.0011120429096929,-0.0211529275205599,0.005));
#896=CARTESIAN_POINT('',(0.0011120429096929,-0.0211529275205599,0.0042));
#897=CARTESIAN_POINT('',(0.0011120429096929,-0.021010177831988,0.0042));
#898=CARTESIAN_POINT('',(0.00107643232947013,-0.0207462060778112,0.0042));
#899=CARTESIAN_POINT('',(0.00087931344587785,-0.0204201844390887,0.0042));
#900=CARTESIAN_POINT('',(0.000549220656140906,-0.0202288602305501,0.0042));
#901=CARTESIAN_POINT('',(0.000281350853600679,-0.0201911568895626,0.0042));
#902=CARTESIAN_POINT('',(0.00013534175000906,-0.0201891258510273,0.0042));
#903=CARTESIAN_POINT('',(0.000134878138772691,-0.0201891194020302,0.0042));
#904=CARTESIAN_POINT('',(0.000134414527536322,-0.0201891129530331,0.0042));
#905=CARTESIAN_POINT('',(0.000133950916299953,-0.020189106504036,0.0042));
#906=CARTESIAN_POINT('',(0.0011120429096929,-0.0211529275205599,0.0042));
#907=CARTESIAN_POINT('',(0.0011120429096929,-0.0211529275205599,0.0042));
#908=CARTESIAN_POINT('',(0.000817438718883227,-0.0218306333612831,0.0042));
#909=CARTESIAN_POINT('',(0.000817438718883227,-0.0218306333612831,0.005));
#910=CARTESIAN_POINT('',(0.00101094062975516,-0.0216662607703273,0.0042));
#911=CARTESIAN_POINT('',(0.00101094062975516,-0.0216662607703273,0.005));
#912=CARTESIAN_POINT('',(0.0011120429096929,-0.0214208149523471,0.0042));
#913=CARTESIAN_POINT('',(0.0011120429096929,-0.0214208149523471,0.005));
#914=CARTESIAN_POINT('',(0.0011120429096929,-0.0211529275205599,0.0042));
#915=CARTESIAN_POINT('',(0.0011120429096929,-0.0211529275205599,0.005));
#916=CARTESIAN_POINT('',(0.000817438718883227,-0.0218306333612831,0.005));
#917=CARTESIAN_POINT('',(0.000914189674319193,-0.0217484470658052,0.005));
#918=CARTESIAN_POINT('',(0.00106684577066455,-0.0215427157717893,0.005));
#919=CARTESIAN_POINT('',(0.0011120429096929,-0.0212868712364535,0.005));
#920=CARTESIAN_POINT('',(0.0011120429096929,-0.0211529275205599,0.005));
#921=CARTESIAN_POINT('',(0.000817438718883227,-0.0218306333612831,0.005));
#922=CARTESIAN_POINT('',(0.000817438718883227,-0.0218306333612831,0.0042));
#923=CARTESIAN_POINT('',(0.000914189674319193,-0.0217484470658052,0.0042));
#924=CARTESIAN_POINT('',(0.00106684577066455,-0.0215427157717893,0.0042));
#925=CARTESIAN_POINT('',(0.0011120429096929,-0.0212868712364535,0.0042));
#926=CARTESIAN_POINT('',(0.0011120429096929,-0.0211529275205599,0.0042));
#927=CARTESIAN_POINT('',(0.000817438718883227,-0.0218306333612831,0.0042));
#928=CARTESIAN_POINT('',(0.000817438718883227,-0.0218306333612831,0.0042));
#929=CARTESIAN_POINT('',(6.50931074589701E-5,-0.0220685579366722,0.0042));
#930=CARTESIAN_POINT('',(6.50931074589701E-5,-0.0220685579366722,0.005));
#931=CARTESIAN_POINT('',(0.000362767345711521,-0.0220685579366722,0.0042));
#932=CARTESIAN_POINT('',(0.000362767345711521,-0.0220685579366722,0.005));
#933=CARTESIAN_POINT('',(0.000623433490937306,-0.0219954335011511,0.0042));
#934=CARTESIAN_POINT('',(0.000623433490937306,-0.0219954335011511,0.005));
#935=CARTESIAN_POINT('',(0.000817438718883226,-0.0218306333612831,0.0042));
#936=CARTESIAN_POINT('',(0.000817438718883226,-0.0218306333612831,0.005));
#937=CARTESIAN_POINT('',(6.50931074589701E-5,-0.0220685579366722,0.005));
#938=CARTESIAN_POINT('',(0.000213930226585246,-0.0220685579366722,0.005));
#939=CARTESIAN_POINT('',(0.000490118234899924,-0.0220336786376922,0.005));
#940=CARTESIAN_POINT('',(0.000720436104910266,-0.0219130334312171,0.005));
#941=CARTESIAN_POINT('',(0.000817438718883226,-0.0218306333612831,0.005));
#942=CARTESIAN_POINT('',(6.50931074589701E-5,-0.0220685579366722,0.005));
#943=CARTESIAN_POINT('',(6.50931074589701E-5,-0.0220685579366722,0.0042));
#944=CARTESIAN_POINT('',(0.000213930226585246,-0.0220685579366722,0.0042));
#945=CARTESIAN_POINT('',(0.000490118234899924,-0.0220336786376922,0.0042));
#946=CARTESIAN_POINT('',(0.000720436104910266,-0.0219130334312171,0.0042));
#947=CARTESIAN_POINT('',(0.000817438718883226,-0.0218306333612831,0.0042));
#948=CARTESIAN_POINT('',(6.50931074589701E-5,-0.0220685579366722,0.0042));
#949=CARTESIAN_POINT('',(6.50931074589701E-5,-0.0220685579366722,0.0042));
#950=CARTESIAN_POINT('',(-6.45338751744043E-5,-0.0197903473022137,0.0042));
#951=CARTESIAN_POINT('',(-6.45338751744043E-5,-0.0197903473022137,0.005));
#952=CARTESIAN_POINT('',(0.000246462174462814,-0.0197850836173034,0.0042));
#953=CARTESIAN_POINT('',(0.000246462174462814,-0.0197850836173034,0.005));
#954=CARTESIAN_POINT('',(0.000779853881605598,-0.0196596501043272,0.0042));
#955=CARTESIAN_POINT('',(0.000779853881605598,-0.0196596501043272,0.005));
#956=CARTESIAN_POINT('',(0.000987952113633018,-0.0191747103754136,0.0042));
#957=CARTESIAN_POINT('',(0.000987952113633018,-0.0191747103754136,0.005));
#958=CARTESIAN_POINT('',(0.000987952113633018,-0.0189096550713998,0.0042));
#959=CARTESIAN_POINT('',(0.000987952113633018,-0.0189096550713998,0.005));
#960=CARTESIAN_POINT('',(-6.45338751744043E-5,-0.0197903473022137,0.005));
#961=CARTESIAN_POINT('',(-6.39698214631224E-5,-0.0197903377554654,0.005));
#962=CARTESIAN_POINT('',(-6.34057677518405E-5,-0.0197903282087171,0.005));
#963=CARTESIAN_POINT('',(-6.28417140405587E-5,-0.0197903186619688,0.005));
#964=CARTESIAN_POINT('',(9.25152973502254E-5,-0.0197876892062048,0.005));
#965=CARTESIAN_POINT('',(0.000373629494836444,-0.019753368606044,0.005));
#966=CARTESIAN_POINT('',(0.000718631560377441,-0.0195924498186408,0.005));
#967=CARTESIAN_POINT('',(0.000946146452405897,-0.0192929674277416,0.005));
#968=CARTESIAN_POINT('',(0.000987952113633018,-0.0190420625406679,0.005));
#969=CARTESIAN_POINT('',(0.000987952113633018,-0.0189096550713998,0.005));
#970=CARTESIAN_POINT('',(-6.45338751744043E-5,-0.0197903473022137,0.0042));
#971=CARTESIAN_POINT('',(-6.39698214631224E-5,-0.0197903377554654,0.0042));
#972=CARTESIAN_POINT('',(-6.34057677518405E-5,-0.0197903282087171,0.0042));
#973=CARTESIAN_POINT('',(-6.28417140405587E-5,-0.0197903186619688,0.0042));
#974=CARTESIAN_POINT('',(9.25152973502254E-5,-0.0197876892062048,0.0042));
#975=CARTESIAN_POINT('',(0.000373629494836444,-0.019753368606044,0.0042));
#976=CARTESIAN_POINT('',(0.000718631560377441,-0.0195924498186408,0.0042));
#977=CARTESIAN_POINT('',(0.000946146452405897,-0.0192929674277416,0.0042));
#978=CARTESIAN_POINT('',(0.000987952113633018,-0.0190420625406679,0.0042));
#979=CARTESIAN_POINT('',(0.000987952113633018,-0.0189096550713998,0.0042));
#980=CARTESIAN_POINT('',(-0.000518620044172497,-0.0220685579366722,0.0042));
#981=CARTESIAN_POINT('',(-0.000518620044172497,-0.0220685579366722,0.005));
#982=CARTESIAN_POINT('',(-0.000518620044172497,-0.0220685579366722,0.0042));
#983=CARTESIAN_POINT('',(0.00116376156933938,-0.0199475020363165,0.0042));
#984=CARTESIAN_POINT('',(0.00116376156933938,-0.0199475020363165,0.005));
#985=CARTESIAN_POINT('',(0.00116376156933938,-0.0199475020363165,0.0042));
#986=CARTESIAN_POINT('',(0.0121249629810509,-0.0297008252147247,0.0042));
#987=CARTESIAN_POINT('',(0.0121249629810509,-0.0297008252147247,0.005));
#988=MECHANICAL_DESIGN_GEOMETRIC_PRESENTATION_REPRESENTATION('',(#503),
#989);
#989=(
GEOMETRIC_REPRESENTATION_CONTEXT(3)
GLOBAL_UNCERTAINTY_ASSIGNED_CONTEXT((#990))
GLOBAL_UNIT_ASSIGNED_CONTEXT((#993,#992,#991))
REPRESENTATION_CONTEXT('Part 16','TOP_LEVEL_ASSEMBLY_PART')
);
#990=UNCERTAINTY_MEASURE_WITH_UNIT(LENGTH_MEASURE(2.E-5),#993,
'DISTANCE_ACCURACY_VALUE','Maximum Tolerance applied to model');
#991=(
NAMED_UNIT(*)
SI_UNIT($,.STERADIAN.)
SOLID_ANGLE_UNIT()
);
#992=(
NAMED_UNIT(*)
PLANE_ANGLE_UNIT()
SI_UNIT($,.RADIAN.)
);
#993=(
LENGTH_UNIT()
NAMED_UNIT(*)
SI_UNIT($,.METRE.)
);
#994=PRODUCT_DEFINITION_SHAPE('','',#995);
#995=PRODUCT_DEFINITION('','',#997,#996);
#996=PRODUCT_DEFINITION_CONTEXT('',#1003,'design');
#997=PRODUCT_DEFINITION_FORMATION_WITH_SPECIFIED_SOURCE('','',#999,
 .NOT_KNOWN.);
#998=PRODUCT_RELATED_PRODUCT_CATEGORY('','',(#999));
#999=PRODUCT('Part 16','Part 16','Part 16',(#1001));
#1000=PRODUCT_CATEGORY('','');
#1001=PRODUCT_CONTEXT('',#1003,'mechanical');
#1002=APPLICATION_PROTOCOL_DEFINITION('international standard',
'ap242_managed_model_based_3d_engineering',2020,#1003);
#1003=APPLICATION_CONTEXT('managed model based 3d engineering');
ENDSEC;
END-ISO-10303-21;
