ISO-10303-21;
HEADER;
/* Generated by software containing ST-Developer
 * from STEP Tools, Inc. (www.steptools.com) 
 */
/* OPTION: using custom renumber hook */

FILE_DESCRIPTION(
/* description */ ('STEP AP242 Edition 2',
'CAx-IF Rec.Pracs.---Representation and Presentation of Product Manufa
cturing Information (PMI)---4.0---2014-10-13',
'CAx-IF Rec.Pracs.---3D Tessellated Geometry---0.4---2014-09-14','2;1',
'CAx-IF Rec.Pracs.---User Defined Attributes---1.5---2016-08-15'),
/* implementation_level */ '2;1');

FILE_NAME(
/* name */ 'S_BUTTONS - Part 14',
/* time_stamp */ '2026-09-23T15:01:02Z',
/* author */ (''),
/* organization */ (''),
/* preprocessor_version */ 'ST-DEVELOPER v20',
/* originating_system */ 'ONSHAPE BY PTC INC, 1.221',
/* authorisation */ '  ');

FILE_SCHEMA (('AP242_MANAGED_MODEL_BASED_3D_ENGINEERING_MIM_LF { 1 0 10303 442 3 1 4 }'));
ENDSEC;

DATA;
#10=SHAPE_REPRESENTATION_RELATIONSHIP('','',#199,#11);
#11=ADVANCED_BREP_SHAPE_REPRESENTATION('',(#197),#309);
#12=ORIENTED_EDGE('',*,*,#60,.F.);
#13=ORIENTED_EDGE('',*,*,#61,.F.);
#14=ORIENTED_EDGE('',*,*,#62,.T.);
#15=ORIENTED_EDGE('',*,*,#63,.T.);
#16=ORIENTED_EDGE('',*,*,#64,.F.);
#17=ORIENTED_EDGE('',*,*,#63,.F.);
#18=ORIENTED_EDGE('',*,*,#65,.T.);
#19=ORIENTED_EDGE('',*,*,#66,.T.);
#20=ORIENTED_EDGE('',*,*,#67,.F.);
#21=ORIENTED_EDGE('',*,*,#66,.F.);
#22=ORIENTED_EDGE('',*,*,#68,.T.);
#23=ORIENTED_EDGE('',*,*,#69,.T.);
#24=ORIENTED_EDGE('',*,*,#70,.F.);
#25=ORIENTED_EDGE('',*,*,#69,.F.);
#26=ORIENTED_EDGE('',*,*,#71,.T.);
#27=ORIENTED_EDGE('',*,*,#72,.T.);
#28=ORIENTED_EDGE('',*,*,#73,.F.);
#29=ORIENTED_EDGE('',*,*,#72,.F.);
#30=ORIENTED_EDGE('',*,*,#74,.T.);
#31=ORIENTED_EDGE('',*,*,#75,.T.);
#32=ORIENTED_EDGE('',*,*,#76,.F.);
#33=ORIENTED_EDGE('',*,*,#75,.F.);
#34=ORIENTED_EDGE('',*,*,#77,.T.);
#35=ORIENTED_EDGE('',*,*,#78,.T.);
#36=ORIENTED_EDGE('',*,*,#79,.F.);
#37=ORIENTED_EDGE('',*,*,#78,.F.);
#38=ORIENTED_EDGE('',*,*,#80,.T.);
#39=ORIENTED_EDGE('',*,*,#81,.T.);
#40=ORIENTED_EDGE('',*,*,#82,.F.);
#41=ORIENTED_EDGE('',*,*,#81,.F.);
#42=ORIENTED_EDGE('',*,*,#83,.T.);
#43=ORIENTED_EDGE('',*,*,#61,.T.);
#44=ORIENTED_EDGE('',*,*,#62,.F.);
#45=ORIENTED_EDGE('',*,*,#83,.F.);
#46=ORIENTED_EDGE('',*,*,#80,.F.);
#47=ORIENTED_EDGE('',*,*,#77,.F.);
#48=ORIENTED_EDGE('',*,*,#74,.F.);
#49=ORIENTED_EDGE('',*,*,#71,.F.);
#50=ORIENTED_EDGE('',*,*,#68,.F.);
#51=ORIENTED_EDGE('',*,*,#65,.F.);
#52=ORIENTED_EDGE('',*,*,#60,.T.);
#53=ORIENTED_EDGE('',*,*,#64,.T.);
#54=ORIENTED_EDGE('',*,*,#67,.T.);
#55=ORIENTED_EDGE('',*,*,#70,.T.);
#56=ORIENTED_EDGE('',*,*,#73,.T.);
#57=ORIENTED_EDGE('',*,*,#76,.T.);
#58=ORIENTED_EDGE('',*,*,#79,.T.);
#59=ORIENTED_EDGE('',*,*,#82,.T.);
#60=EDGE_CURVE('',#84,#85,#100,.T.);
#61=EDGE_CURVE('',#86,#84,#101,.T.);
#62=EDGE_CURVE('',#86,#87,#102,.T.);
#63=EDGE_CURVE('',#87,#85,#103,.T.);
#64=EDGE_CURVE('',#85,#88,#104,.T.);
#65=EDGE_CURVE('',#87,#89,#105,.T.);
#66=EDGE_CURVE('',#89,#88,#106,.T.);
#67=EDGE_CURVE('',#88,#90,#107,.T.);
#68=EDGE_CURVE('',#89,#91,#108,.T.);
#69=EDGE_CURVE('',#91,#90,#109,.T.);
#70=EDGE_CURVE('',#90,#92,#110,.T.);
#71=EDGE_CURVE('',#91,#93,#111,.T.);
#72=EDGE_CURVE('',#93,#92,#112,.T.);
#73=EDGE_CURVE('',#92,#94,#113,.T.);
#74=EDGE_CURVE('',#93,#95,#114,.T.);
#75=EDGE_CURVE('',#95,#94,#115,.T.);
#76=EDGE_CURVE('',#94,#96,#116,.T.);
#77=EDGE_CURVE('',#95,#97,#117,.T.);
#78=EDGE_CURVE('',#97,#96,#118,.T.);
#79=EDGE_CURVE('',#96,#98,#119,.T.);
#80=EDGE_CURVE('',#97,#99,#120,.T.);
#81=EDGE_CURVE('',#99,#98,#121,.T.);
#82=EDGE_CURVE('',#98,#84,#122,.T.);
#83=EDGE_CURVE('',#99,#86,#123,.T.);
#84=VERTEX_POINT('',#260);
#85=VERTEX_POINT('',#261);
#86=VERTEX_POINT('',#263);
#87=VERTEX_POINT('',#265);
#88=VERTEX_POINT('',#269);
#89=VERTEX_POINT('',#271);
#90=VERTEX_POINT('',#275);
#91=VERTEX_POINT('',#277);
#92=VERTEX_POINT('',#281);
#93=VERTEX_POINT('',#283);
#94=VERTEX_POINT('',#287);
#95=VERTEX_POINT('',#289);
#96=VERTEX_POINT('',#293);
#97=VERTEX_POINT('',#295);
#98=VERTEX_POINT('',#299);
#99=VERTEX_POINT('',#301);
#100=LINE('',#259,#124);
#101=LINE('',#262,#125);
#102=LINE('',#264,#126);
#103=LINE('',#266,#127);
#104=LINE('',#268,#128);
#105=LINE('',#270,#129);
#106=LINE('',#272,#130);
#107=LINE('',#274,#131);
#108=LINE('',#276,#132);
#109=LINE('',#278,#133);
#110=LINE('',#280,#134);
#111=LINE('',#282,#135);
#112=LINE('',#284,#136);
#113=LINE('',#286,#137);
#114=LINE('',#288,#138);
#115=LINE('',#290,#139);
#116=LINE('',#292,#140);
#117=LINE('',#294,#141);
#118=LINE('',#296,#142);
#119=LINE('',#298,#143);
#120=LINE('',#300,#144);
#121=LINE('',#302,#145);
#122=LINE('',#304,#146);
#123=LINE('',#305,#147);
#124=VECTOR('',#215,1.);
#125=VECTOR('',#216,1.);
#126=VECTOR('',#217,1.);
#127=VECTOR('',#218,1.);
#128=VECTOR('',#221,1.);
#129=VECTOR('',#222,1.);
#130=VECTOR('',#223,1.);
#131=VECTOR('',#226,1.);
#132=VECTOR('',#227,1.);
#133=VECTOR('',#228,1.);
#134=VECTOR('',#231,1.);
#135=VECTOR('',#232,1.);
#136=VECTOR('',#233,1.);
#137=VECTOR('',#236,1.);
#138=VECTOR('',#237,1.);
#139=VECTOR('',#238,1.);
#140=VECTOR('',#241,1.);
#141=VECTOR('',#242,1.);
#142=VECTOR('',#243,1.);
#143=VECTOR('',#246,1.);
#144=VECTOR('',#247,1.);
#145=VECTOR('',#248,1.);
#146=VECTOR('',#251,1.);
#147=VECTOR('',#252,1.);
#148=EDGE_LOOP('',(#12,#13,#14,#15));
#149=EDGE_LOOP('',(#16,#17,#18,#19));
#150=EDGE_LOOP('',(#20,#21,#22,#23));
#151=EDGE_LOOP('',(#24,#25,#26,#27));
#152=EDGE_LOOP('',(#28,#29,#30,#31));
#153=EDGE_LOOP('',(#32,#33,#34,#35));
#154=EDGE_LOOP('',(#36,#37,#38,#39));
#155=EDGE_LOOP('',(#40,#41,#42,#43));
#156=EDGE_LOOP('',(#44,#45,#46,#47,#48,#49,#50,#51));
#157=EDGE_LOOP('',(#52,#53,#54,#55,#56,#57,#58,#59));
#158=FACE_BOUND('',#148,.T.);
#159=FACE_BOUND('',#149,.T.);
#160=FACE_BOUND('',#150,.T.);
#161=FACE_BOUND('',#151,.T.);
#162=FACE_BOUND('',#152,.T.);
#163=FACE_BOUND('',#153,.T.);
#164=FACE_BOUND('',#154,.T.);
#165=FACE_BOUND('',#155,.T.);
#166=FACE_BOUND('',#156,.T.);
#167=FACE_BOUND('',#157,.T.);
#168=PLANE('',#201);
#169=PLANE('',#202);
#170=PLANE('',#203);
#171=PLANE('',#204);
#172=PLANE('',#205);
#173=PLANE('',#206);
#174=PLANE('',#207);
#175=PLANE('',#208);
#176=PLANE('',#209);
#177=PLANE('',#210);
#178=ADVANCED_FACE('',(#158),#168,.T.);
#179=ADVANCED_FACE('',(#159),#169,.T.);
#180=ADVANCED_FACE('',(#160),#170,.T.);
#181=ADVANCED_FACE('',(#161),#171,.T.);
#182=ADVANCED_FACE('',(#162),#172,.T.);
#183=ADVANCED_FACE('',(#163),#173,.T.);
#184=ADVANCED_FACE('',(#164),#174,.T.);
#185=ADVANCED_FACE('',(#165),#175,.T.);
#186=ADVANCED_FACE('',(#166),#176,.F.);
#187=ADVANCED_FACE('',(#167),#177,.T.);
#188=CLOSED_SHELL('',(#178,#179,#180,#181,#182,#183,#184,#185,#186,#187));
#189=STYLED_ITEM('',(#190),#197);
#190=PRESENTATION_STYLE_ASSIGNMENT((#191));
#191=SURFACE_STYLE_USAGE(.BOTH.,#192);
#192=SURFACE_SIDE_STYLE('',(#193));
#193=SURFACE_STYLE_FILL_AREA(#194);
#194=FILL_AREA_STYLE('',(#195));
#195=FILL_AREA_STYLE_COLOUR('',#196);
#196=COLOUR_RGB('',0.149019607843137,0.145098039215686,0.145098039215686);
#197=MANIFOLD_SOLID_BREP('Part 14',#188);
#198=SHAPE_DEFINITION_REPRESENTATION(#314,#199);
#199=SHAPE_REPRESENTATION('Part 14',(#200),#309);
#200=AXIS2_PLACEMENT_3D('',#257,#211,#212);
#201=AXIS2_PLACEMENT_3D('',#258,#213,#214);
#202=AXIS2_PLACEMENT_3D('',#267,#219,#220);
#203=AXIS2_PLACEMENT_3D('',#273,#224,#225);
#204=AXIS2_PLACEMENT_3D('',#279,#229,#230);
#205=AXIS2_PLACEMENT_3D('',#285,#234,#235);
#206=AXIS2_PLACEMENT_3D('',#291,#239,#240);
#207=AXIS2_PLACEMENT_3D('',#297,#244,#245);
#208=AXIS2_PLACEMENT_3D('',#303,#249,#250);
#209=AXIS2_PLACEMENT_3D('',#306,#253,#254);
#210=AXIS2_PLACEMENT_3D('',#307,#255,#256);
#211=DIRECTION('',(0.,0.,1.));
#212=DIRECTION('',(1.,0.,0.));
#213=DIRECTION('',(0.529185146906786,0.848506381999124,0.));
#214=DIRECTION('',(-0.848506381999124,0.529185146906786,0.));
#215=DIRECTION('',(-0.848506381999124,0.529185146906786,0.));
#216=DIRECTION('',(0.,0.,1.));
#217=DIRECTION('',(-0.848506381999124,0.529185146906786,0.));
#218=DIRECTION('',(0.,0.,1.));
#219=DIRECTION('',(-1.,0.,0.));
#220=DIRECTION('',(0.,0.,1.));
#221=DIRECTION('',(0.,-1.,0.));
#222=DIRECTION('',(0.,-1.,0.));
#223=DIRECTION('',(0.,0.,1.));
#224=DIRECTION('',(-1.98254111540206E-15,1.,0.));
#225=DIRECTION('',(-1.,-1.98254111540206E-15,0.));
#226=DIRECTION('',(-1.,-1.98254111540206E-15,0.));
#227=DIRECTION('',(-1.,-1.98254111540206E-15,0.));
#228=DIRECTION('',(0.,0.,1.));
#229=DIRECTION('',(-1.,0.,0.));
#230=DIRECTION('',(0.,0.,1.));
#231=DIRECTION('',(0.,-1.,0.));
#232=DIRECTION('',(0.,-1.,0.));
#233=DIRECTION('',(0.,0.,1.));
#234=DIRECTION('',(0.,-1.,0.));
#235=DIRECTION('',(0.,0.,-1.));
#236=DIRECTION('',(1.,0.,0.));
#237=DIRECTION('',(1.,0.,0.));
#238=DIRECTION('',(0.,0.,1.));
#239=DIRECTION('',(-1.,0.,0.));
#240=DIRECTION('',(0.,0.,1.));
#241=DIRECTION('',(0.,-1.,0.));
#242=DIRECTION('',(0.,-1.,0.));
#243=DIRECTION('',(0.,0.,1.));
#244=DIRECTION('',(0.529185146906786,-0.848506381999124,0.));
#245=DIRECTION('',(0.848506381999124,0.529185146906786,0.));
#246=DIRECTION('',(0.848506381999124,0.529185146906786,0.));
#247=DIRECTION('',(0.848506381999124,0.529185146906786,0.));
#248=DIRECTION('',(0.,0.,1.));
#249=DIRECTION('',(1.,0.,0.));
#250=DIRECTION('',(0.,0.,-1.));
#251=DIRECTION('',(0.,1.,0.));
#252=DIRECTION('',(0.,1.,0.));
#253=DIRECTION('',(0.,0.,1.));
#254=DIRECTION('',(1.,0.,0.));
#255=DIRECTION('',(0.,0.,1.));
#256=DIRECTION('',(1.,0.,0.));
#257=CARTESIAN_POINT('',(0.,0.,0.));
#258=CARTESIAN_POINT('',(0.02675,-0.039050208303724,0.0042));
#259=CARTESIAN_POINT('',(0.02675,-0.039050208303724,0.005));
#260=CARTESIAN_POINT('',(0.02805,-0.0398609749703907,0.005));
#261=CARTESIAN_POINT('',(0.02545,-0.0382394416370574,0.005));
#262=CARTESIAN_POINT('',(0.02805,-0.0398609749703907,0.0042));
#263=CARTESIAN_POINT('',(0.02805,-0.0398609749703907,0.0042));
#264=CARTESIAN_POINT('',(0.02675,-0.039050208303724,0.0042));
#265=CARTESIAN_POINT('',(0.02545,-0.0382394416370574,0.0042));
#266=CARTESIAN_POINT('',(0.02545,-0.0382394416370574,0.0042));
#267=CARTESIAN_POINT('',(0.02545,-0.0388662208185287,0.0042));
#268=CARTESIAN_POINT('',(0.02545,-0.0388662208185287,0.005));
#269=CARTESIAN_POINT('',(0.02545,-0.039493,0.005));
#270=CARTESIAN_POINT('',(0.02545,-0.0388662208185287,0.0042));
#271=CARTESIAN_POINT('',(0.02545,-0.039493,0.0042));
#272=CARTESIAN_POINT('',(0.02545,-0.039493,0.0042));
#273=CARTESIAN_POINT('',(0.0237,-0.039493,0.0042));
#274=CARTESIAN_POINT('',(0.0237,-0.039493,0.005));
#275=CARTESIAN_POINT('',(0.02195,-0.039493,0.005));
#276=CARTESIAN_POINT('',(0.0237,-0.039493,0.0042));
#277=CARTESIAN_POINT('',(0.02195,-0.039493,0.0042));
#278=CARTESIAN_POINT('',(0.02195,-0.039493,0.0042));
#279=CARTESIAN_POINT('',(0.02195,-0.04,0.0042));
#280=CARTESIAN_POINT('',(0.02195,-0.04,0.005));
#281=CARTESIAN_POINT('',(0.02195,-0.040507,0.005));
#282=CARTESIAN_POINT('',(0.02195,-0.04,0.0042));
#283=CARTESIAN_POINT('',(0.02195,-0.040507,0.0042));
#284=CARTESIAN_POINT('',(0.02195,-0.040507,0.0042));
#285=CARTESIAN_POINT('',(0.0237,-0.040507,0.0042));
#286=CARTESIAN_POINT('',(0.0237,-0.040507,0.005));
#287=CARTESIAN_POINT('',(0.02545,-0.040507,0.005));
#288=CARTESIAN_POINT('',(0.0237,-0.040507,0.0042));
#289=CARTESIAN_POINT('',(0.02545,-0.040507,0.0042));
#290=CARTESIAN_POINT('',(0.02545,-0.040507,0.0042));
#291=CARTESIAN_POINT('',(0.02545,-0.0411337791814713,0.0042));
#292=CARTESIAN_POINT('',(0.02545,-0.0411337791814713,0.005));
#293=CARTESIAN_POINT('',(0.02545,-0.0417605583629427,0.005));
#294=CARTESIAN_POINT('',(0.02545,-0.0411337791814713,0.0042));
#295=CARTESIAN_POINT('',(0.02545,-0.0417605583629427,0.0042));
#296=CARTESIAN_POINT('',(0.02545,-0.0417605583629427,0.0042));
#297=CARTESIAN_POINT('',(0.02675,-0.040949791696276,0.0042));
#298=CARTESIAN_POINT('',(0.02675,-0.040949791696276,0.005));
#299=CARTESIAN_POINT('',(0.02805,-0.0401390250296094,0.005));
#300=CARTESIAN_POINT('',(0.02675,-0.040949791696276,0.0042));
#301=CARTESIAN_POINT('',(0.02805,-0.0401390250296094,0.0042));
#302=CARTESIAN_POINT('',(0.02805,-0.0401390250296094,0.0042));
#303=CARTESIAN_POINT('',(0.02805,-0.04,0.0042));
#304=CARTESIAN_POINT('',(0.02805,-0.04,0.005));
#305=CARTESIAN_POINT('',(0.02805,-0.04,0.0042));
#306=CARTESIAN_POINT('',(0.0121249629810509,-0.0297008252147247,0.0042));
#307=CARTESIAN_POINT('',(0.0121249629810509,-0.0297008252147247,0.005));
#308=MECHANICAL_DESIGN_GEOMETRIC_PRESENTATION_REPRESENTATION('',(#189),
#309);
#309=(
GEOMETRIC_REPRESENTATION_CONTEXT(3)
GLOBAL_UNCERTAINTY_ASSIGNED_CONTEXT((#310))
GLOBAL_UNIT_ASSIGNED_CONTEXT((#313,#312,#311))
REPRESENTATION_CONTEXT('Part 14','TOP_LEVEL_ASSEMBLY_PART')
);
#310=UNCERTAINTY_MEASURE_WITH_UNIT(LENGTH_MEASURE(1.E-8),#313,
'DISTANCE_ACCURACY_VALUE','Maximum Tolerance applied to model');
#311=(
NAMED_UNIT(*)
SI_UNIT($,.STERADIAN.)
SOLID_ANGLE_UNIT()
);
#312=(
NAMED_UNIT(*)
PLANE_ANGLE_UNIT()
SI_UNIT($,.RADIAN.)
);
#313=(
LENGTH_UNIT()
NAMED_UNIT(*)
SI_UNIT($,.METRE.)
);
#314=PRODUCT_DEFINITION_SHAPE('','',#315);
#315=PRODUCT_DEFINITION('','',#317,#316);
#316=PRODUCT_DEFINITION_CONTEXT('',#323,'design');
#317=PRODUCT_DEFINITION_FORMATION_WITH_SPECIFIED_SOURCE('','',#319,
 .NOT_KNOWN.);
#318=PRODUCT_RELATED_PRODUCT_CATEGORY('','',(#319));
#319=PRODUCT('Part 14','Part 14','Part 14',(#321));
#320=PRODUCT_CATEGORY('','');
#321=PRODUCT_CONTEXT('',#323,'mechanical');
#322=APPLICATION_PROTOCOL_DEFINITION('international standard',
'ap242_managed_model_based_3d_engineering',2020,#323);
#323=APPLICATION_CONTEXT('managed model based 3d engineering');
ENDSEC;
END-ISO-10303-21;
